<?xml version="1.0" encoding="UTF-8"?>
<svg width="24px" height="16px" viewBox="0 0 24 16" version="1.1" xmlns="http://www.w3.org/2000/svg" xmlns:xlink="http://www.w3.org/1999/xlink">
    <!-- Generator: Sketch 47.1 (45422) - http://www.bohemiancoding.com/sketch -->
    <title>Page 1</title>
    <desc>Created with Sketch.</desc>
    <defs>
        <polygon id="path-1" points="22.7999997 0 0 0 0 15.1999998 22.7999997 15.1999998"></polygon>
    </defs>
    <g id="Symbols" stroke="none" stroke-width="1" fill="none" fill-rule="evenodd">
        <g id="top-header" transform="translate(-214.000000, -9.000000)">
            <g id="Group-5">
                <g transform="translate(214.000000, 9.000000)">
                    <g id="Page-1" transform="translate(0.599998, 0.000000)">
                        <mask id="mask-2" fill="white">
                            <use xlink:href="#path-1"></use>
                        </mask>
                        <g id="Clip-2"></g>
                        <path d="M8.76564264,7.59861494 L1.2183206,13.3649201 L1.2183206,1.8350797 L8.76564264,7.59861494 Z M9.76466553,8.37627324 L11.0216243,9.32151241 C11.2196884,9.50328917 11.5291418,9.50813655 11.7661922,9.33051469 L13.034638,8.37661948 L20.3783265,13.9881547 L2.38964882,13.9881547 L9.76466553,8.37627324 Z M2.38930073,1.21184509 L20.4103509,1.21184509 L11.3999999,8.06950332 L2.38930073,1.21184509 Z M21.5816791,1.8350797 L21.5816791,13.3649201 L14.0343571,7.59861494 L21.5816791,1.8350797 Z M22.1908394,0 L0.609160298,0 C0.256195417,0 0,0.25483371 0,0.605922544 L0,14.5940773 C0,14.9451661 0.256195417,15.1999998 0.609160298,15.1999998 L22.1908394,15.1999998 C22.2594135,15.1999998 22.3307722,15.1854577 22.3934287,15.1605283 C22.4418135,15.14287 22.4867173,15.1189793 22.5479814,15.0743142 C22.7081035,14.9531297 22.7999997,14.7654668 22.7999997,14.5594531 L22.7999997,0.605922544 C22.7999997,0.25483371 22.5438043,0 22.1908394,0 L22.1908394,0 Z" id="Fill-1" fill="#293a4d" mask="url(#mask-2)"></path>
                    </g>
                </g>
            </g>
        </g>
    </g>
</svg>