<?xml version="1.0" encoding="UTF-8"?>
<svg width="17px" height="17px" viewBox="0 0 17 17" version="1.1" xmlns="http://www.w3.org/2000/svg" xmlns:xlink="http://www.w3.org/1999/xlink">
    <!-- Generator: Sketch 47.1 (45422) - http://www.bohemiancoding.com/sketch -->
    <title>icon-account</title>
    <desc>Created with Sketch.</desc>
    <defs>
        <polygon id="path-1" points="17 0 0 0 0 17 17 17"></polygon>
    </defs>
    <g id="Symbols" stroke="none" stroke-width="1" fill="none" fill-rule="evenodd" opacity="0.496443563">
        <g id="top-header" transform="translate(-1229.000000, -8.000000)">
            <g id="icon-account">
                <g transform="translate(1229.000000, 8.000000)">
                    <mask id="mask-2" fill="white">
                        <use xlink:href="#path-1"></use>
                    </mask>
                    <g id="Clip-2"></g>
                    <path d="M14.1826364,12.4965455 L13.9389697,12.841697 L13.7437273,12.4671818 C13.1739697,11.3755758 12.2966667,10.5003333 11.2066061,9.93521212 L10.9289394,9.79148485 L11.1236667,9.54627273 C11.5976061,8.94869697 11.8484848,8.23057576 11.8484848,7.46969697 C11.8484848,5.62339394 10.346303,4.12121212 8.5,4.12121212 C6.65369697,4.12121212 5.15151515,5.62339394 5.15151515,7.46969697 C5.15151515,8.23057576 5.40239394,8.94869697 5.87684848,9.54627273 L6.07106061,9.79148485 L5.79339394,9.93521212 C4.70230303,10.5003333 3.825,11.3755758 3.25575758,12.4661515 L3.06,12.8406667 L2.81684848,12.4955152 C1.98487879,11.3158182 1.54545455,9.93366667 1.54545455,8.5 C1.54545455,4.66521212 4.66521212,1.54545455 8.5,1.54545455 C12.3347879,1.54545455 15.4545455,4.66521212 15.4545455,8.5 C15.4545455,9.93521212 15.0146061,11.3173636 14.1826364,12.4965455 L14.1826364,12.4965455 Z M6.6969697,7.46969697 C6.6969697,6.47545455 7.50627273,5.66666667 8.5,5.66666667 C9.49424242,5.66666667 10.3030303,6.47545455 10.3030303,7.46969697 C10.3030303,8.46342424 9.49424242,9.27272727 8.5,9.27272727 C7.50627273,9.27272727 6.6969697,8.46342424 6.6969697,7.46969697 L6.6969697,7.46969697 Z M12.5676364,14.1295758 C11.3709394,14.9965758 9.96457576,15.4545455 8.5,15.4545455 C7.03593939,15.4545455 5.62906061,14.9965758 4.43236364,14.1295758 L4.28039394,14.0193333 L4.33860606,13.8405758 C4.92948485,12.0329091 6.60166667,10.8181818 8.5,10.8181818 C10.3988485,10.8181818 12.0710303,12.0329091 12.6608788,13.8405758 L12.7196061,14.0193333 L12.5676364,14.1295758 Z M8.5,0 C3.81315152,0 0,3.81315152 0,8.5 C0,13.1868485 3.81315152,17 8.5,17 C13.1868485,17 17,13.1868485 17,8.5 C17,3.81315152 13.1868485,0 8.5,0 L8.5,0 Z" id="Fill-1" fill="#2A2A2A" mask="url(#mask-2)"></path>
                </g>
            </g>
        </g>
    </g>
</svg>