<?xml version="1.0" encoding="UTF-8"?>
<svg width="88px" height="69px" viewBox="0 0 88 69" version="1.1" xmlns="http://www.w3.org/2000/svg" xmlns:xlink="http://www.w3.org/1999/xlink">
    <!-- Generator: Sketch 47.1 (45422) - http://www.bohemiancoding.com/sketch -->
    <title>Page 1</title>
    <desc>Created with Sketch.</desc>
    <defs>
        <polygon id="path-1" points="43.75015 69 87.5 69 87.5 0.5 43.75015 0.5 0.0003 0.5 0.0003 69"></polygon>
    </defs>
    <g id="Symbols" stroke="none" stroke-width="1" fill="none" fill-rule="evenodd">
        <g id="pro" transform="translate(0.000000, -1.000000)">
            <g id="Page-1">
                <path d="M67.7451,35 L47.7551,35 C46.7871,35 46.0001,35.785 46.0001,36.75 C46.0001,37.715 46.7871,38.5 47.7551,38.5 L67.7451,38.5 C68.7131,38.5 69.5001,37.715 69.5001,36.75 C69.5001,35.785 68.7131,35 67.7451,35" id="Fill-1" fill="#FFFFFF"></path>
                <path d="M59.7559,43 L47.7439,43 C46.7819,43 45.9999,43.785 45.9999,44.75 C45.9999,45.715 46.7819,46.5 47.7439,46.5 L59.7559,46.5 C60.7179,46.5 61.4999,45.715 61.4999,44.75 C61.4999,43.785 60.7179,43 59.7559,43" id="Fill-3" fill="#FFFFFF"></path>
                <path d="M77.75,51 L47.75,51 C46.785,51 46,51.785 46,52.75 C46,53.715 46.785,54.5 47.75,54.5 L77.75,54.5 C78.715,54.5 79.5,53.715 79.5,52.75 C79.5,51.785 78.715,51 77.75,51" id="Fill-5" fill="#FFFFFF"></path>
                <path d="M43.75,9 C42.785,9 42,9.785 42,10.75 C42,11.715 42.785,12.5 43.75,12.5 C44.715,12.5 45.5,11.715 45.5,10.75 C45.5,9.785 44.715,9 43.75,9" id="Fill-7" fill="#FFFFFF"></path>
                <g id="Group-11" transform="translate(0.000000, 0.500000)">
                    <mask id="mask-2" fill="white">
                        <use xlink:href="#path-1"></use>
                    </mask>
                    <g id="Clip-10"></g>
                    <path d="M83.6523,19 L83.9903,18.73 L84.0003,19.242 L83.9903,65.5 L3.5003,65.508 L3.5103,19 L33.9993,19 L34.0003,19.25 C34.0043,21.317 35.6863,23 37.7493,23 L49.7513,23 C51.8143,23 53.4963,21.317 53.4993,19.25 L53.4993,19 L83.6523,19 Z M37.5003,10.254 C37.5003,6.806 40.3033,4 43.7503,4 C47.1963,4 50.0003,6.806 50.0003,10.254 L50.0013,19.5 L37.5003,19.494 L37.5003,10.254 Z M43.7503,0.5 C38.3743,0.5 34.0003,4.875 34.0003,10.254 L34.0003,15.5 L3.7603,15.5 C1.6873,15.5 0.0003,17.179 0.0003,19.242 L0.0003,65.258 C0.0003,67.321 1.6873,69 3.7603,69 L83.7403,69 C85.8133,69 87.5003,67.321 87.5003,65.258 L87.5003,19.242 C87.5003,17.179 85.8133,15.5 83.7403,15.5 L53.5003,15.5 L53.5003,10.254 C53.5003,4.875 49.1263,0.5 43.7503,0.5 L43.7503,0.5 Z" id="Fill-9" fill="#FFFFFF" mask="url(#mask-2)"></path>
                </g>
                <path d="M35.5762,52.3643 L35.3402,52.6993 L35.1502,52.3353 C34.0212,50.1713 32.2812,48.4343 30.1182,47.3143 L29.8492,47.1743 L30.0382,46.9363 C30.9942,45.7323 31.5002,44.2843 31.5002,42.7493 C31.5002,39.0273 28.4722,35.9993 24.7502,35.9993 C21.0282,35.9993 18.0002,39.0273 18.0002,42.7493 C18.0002,44.2833 18.5052,45.7313 19.4622,46.9363 L19.6512,47.1743 L19.3812,47.3143 C17.2172,48.4343 15.4762,50.1713 14.3472,52.3333 L14.1582,52.6973 L13.9212,52.3613 C12.3372,50.1143 11.5002,47.4813 11.5002,44.7493 C11.5002,37.4433 17.4442,31.4993 24.7502,31.4993 C32.0562,31.4993 38.0002,37.4433 38.0002,44.7493 C38.0002,47.4843 37.1622,50.1163 35.5762,52.3643 L35.5762,52.3643 Z M21.5002,42.7493 C21.5002,40.9573 22.9582,39.4993 24.7502,39.4993 C26.5422,39.4993 28.0002,40.9573 28.0002,42.7493 C28.0002,44.5413 26.5422,45.9993 24.7502,45.9993 C22.9582,45.9993 21.5002,44.5413 21.5002,42.7493 L21.5002,42.7493 Z M32.4982,55.4743 C30.2192,57.1273 27.5392,58.0003 24.7502,58.0003 C21.9612,58.0003 19.2812,57.1273 17.0002,55.4743 L16.8522,55.3683 L16.9092,55.1943 C18.0222,51.7883 21.1732,49.5003 24.7502,49.5003 C28.3272,49.5003 31.4782,51.7893 32.5902,55.1953 L32.6462,55.3683 L32.4982,55.4743 Z M24.7502,27.9993 C15.5142,27.9993 8.0002,35.5133 8.0002,44.7493 C8.0002,53.9853 15.5142,61.5003 24.7502,61.5003 C33.9862,61.5003 41.5002,53.9853 41.5002,44.7493 C41.5002,35.5133 33.9862,27.9993 24.7502,27.9993 L24.7502,27.9993 Z" id="Fill-12" fill="#FFFFFF"></path>
            </g>
        </g>
    </g>
</svg>