<?xml version="1.0" encoding="utf-8"?>
<!-- Generator: Adobe Illustrator 21.0.0, SVG Export Plug-In . SVG Version: 6.00 Build 0)  -->
<svg version="1.1" id="Calque_1" xmlns="http://www.w3.org/2000/svg" xmlns:xlink="http://www.w3.org/1999/xlink" x="0px" y="0px"
	 viewBox="0 0 17 17" style="enable-background:new 0 0 17 17;" xml:space="preserve">
<style type="text/css">
	.st0{filter:url(#Adobe_OpacityMaskFilter);}
	.st1{fill:#FFFFFF;}
	.st2{mask:url(#mask-2);fill:#FFFFFF;}
</style>
<title>icon-account</title>
<desc>Created with Sketch.</desc>
<g id="Symbols">
	<g id="top-header" transform="translate(-1229.000000, -8.000000)">
		<g id="icon-account">
			<g transform="translate(1229.000000, 8.000000)">
				<g id="Clip-2">
				</g>
				<defs>
					<filter id="Adobe_OpacityMaskFilter" filterUnits="userSpaceOnUse" x="0" y="0" width="17" height="17">
						<feColorMatrix  type="matrix" values="1 0 0 0 0  0 1 0 0 0  0 0 1 0 0  0 0 0 1 0"/>
					</filter>
				</defs>
				<mask maskUnits="userSpaceOnUse" x="0" y="0" width="17" height="17" id="mask-2">
					<g class="st0">
						<polygon id="path-1" class="st1" points="17,0 0,0 0,17 17,17 						"/>
					</g>
				</mask>
				<path id="Fill-1" class="st2" d="M14.2,12.5l-0.2,0.3l-0.2-0.4c-0.6-1.1-1.4-2-2.5-2.5l-0.3-0.1l0.2-0.2
					c0.5-0.6,0.7-1.3,0.7-2.1c0-1.8-1.5-3.3-3.3-3.3S5.2,5.6,5.2,7.5c0,0.8,0.3,1.5,0.7,2.1l0.2,0.2L5.8,9.9c-1.1,0.6-2,1.4-2.5,2.5
					l-0.2,0.4l-0.2-0.3c-0.8-1.2-1.3-2.6-1.3-4c0-3.8,3.1-7,7-7s7,3.1,7,7C15.5,9.9,15,11.3,14.2,12.5L14.2,12.5z M6.7,7.5
					c0-1,0.8-1.8,1.8-1.8c1,0,1.8,0.8,1.8,1.8c0,1-0.8,1.8-1.8,1.8C7.5,9.3,6.7,8.5,6.7,7.5L6.7,7.5z M12.6,14.1
					c-1.2,0.9-2.6,1.3-4.1,1.3c-1.5,0-2.9-0.5-4.1-1.3L4.3,14l0.1-0.2c0.6-1.8,2.3-3,4.2-3c1.9,0,3.6,1.2,4.2,3l0.1,0.2L12.6,14.1z
					 M8.5,0C3.8,0,0,3.8,0,8.5S3.8,17,8.5,17S17,13.2,17,8.5S13.2,0,8.5,0L8.5,0z"/>
			</g>
		</g>
	</g>
</g>
</svg>
