<?xml version="1.0" encoding="utf-8"?>
<!-- Generator: Adobe Illustrator 22.0.1, SVG Export Plug-In . SVG Version: 6.00 Build 0)  -->
<svg version="1.1" id="Calque_1" xmlns="http://www.w3.org/2000/svg" xmlns:xlink="http://www.w3.org/1999/xlink" x="0px" y="0px"
	 viewBox="0 0 189 108" style="enable-background:new 0 0 189 108;" xml:space="preserve">
<style type="text/css">
	.st0{opacity:0.2;fill:#FFFFFF;enable-background:new    ;}
	.st1{fill:#123543;}
	.st2{filter:url(#filter-2);}
	.st3{filter:url(#Adobe_OpacityMaskFilter);}
	.st4{fill:#FFFFFF;}
	.st5{mask:url(#mask-4_1_);fill:#FFB945;}
</style>
<filter  filterUnits="objectBoundingBox" height="700.0%" id="filter-2" width="154.5%" x="-27.3%" y="-300.0%">
	<feOffset  dx="0" dy="0" in="SourceAlpha" result="shadowOffsetOuter1"></feOffset>
	<feGaussianBlur  in="shadowOffsetOuter1" result="shadowBlurOuter1" stdDeviation="1"></feGaussianBlur>
	
		<feColorMatrix  in="shadowBlurOuter1" type="matrix" values="0 0 0 0 0.282631803   0 0 0 0 0.282631803   0 0 0 0 0.282631803  0 0 0 0.67614923 0">
		</feColorMatrix>
</filter>
<title>Group 2</title>
<desc>Created with Sketch.</desc>
<g id="Symbols">
	<g id="Header" transform="translate(-536.000000, 0.000000)">
		<g id="bg-map">
			<g transform="translate(202.000000, 0.000000)">
				<g id="Group-2" transform="translate(334.000000, -41.000000)">
					<path id="Fill-4" class="st0" d="M117.4,87.1c-0.9-0.9-1.3-2.2-1.6-3.4c2.9,1.4,6.3,3.2,7.2,3.7c0.1,0.4,0.2,1.3,0.2,2.2
						C121.8,89.1,118.9,88,117.4,87.1 M111.3,84c-0.8-0.4-5.1-3.2-7.7-6c5.1,1.1,8.7,2.7,9.2,3.9c0.1,0.3,0.2,0.8,0.3,1.3
						c0.1,0.6,0.3,1.3,0.5,2c0,0-0.1,0-0.1-0.1C112.5,84.6,111.8,84.2,111.3,84 M160.4,131.3c-1.8-1.9-6.8-7.8-12.5-14.6
						c-12.1-14.4-18.8-22.3-22.1-25.4c0.1-1.5,0.3-4.9-1.1-5.9c-0.9-0.6-6.3-3.5-9.7-5c-2.1-3.4-11.1-5.2-15.8-5.7
						c-8.2-0.9-22-10.5-22.1-10.6l-0.3-0.2H61.5c-10.1,0-18.4,6.8-19.4,10.4c-0.4,1.6-4.9,7.1-8.4,11.6c-1.9,2.4-3.7,4.6-5,6.4
						c-4.2,5.6-16.7,23.4-21.9,31.9l2.2,1.3c5.1-8.4,17.7-26.2,21.8-31.7c1.3-1.8,3.1-4,5-6.3c5-6.3,8.4-10.5,8.9-12.5
						c0.6-2.1,7.4-8.5,16.9-8.5h14.2c2.3,1.6,14.8,10,23,10.8c0.3,0,0.6,0.1,1,0.1c2.3,3.8,9,8.3,10.5,9c0.4,0.2,1.1,0.6,1.9,1
						c1.4,0.8,2.8,1.6,3.9,1.9c2,1.2,5.5,2.5,6.8,2.9l0,0c1.9,1,14.6,16.1,22.9,26.1c5.8,6.9,10.8,12.8,12.7,14.8
						c3,3.1,17.8,15.1,28.4,15.9l0.2-2.6C178,145.7,164.1,135.2,160.4,131.3"/>
					<g id="Page-1_1_" transform="translate(49.000000, 55.000000)">
						<path id="Fill-1_1_" class="st1" d="M6.2,19.8l0.6-2.3h1.5l0.6,2.3H6.2z M14.6,25.6l-3-4.2v-0.4h0.1v-0.2h-0.3v-0.6l0.3-0.1
							v-0.1h-1.1l-1.3-3.8l0.2-0.2v-0.4l-0.4-0.1c0,0-1.1-6.3-1.1-11.8h0.2V2.4H8.1V2.3h0.2V1.9H8L7.7,1.5L7.5,0L7.3,1.5L7,1.9H6.7
							v0.4h0.2v0.2H6.7v1.1h0.2c0,5.6-1.1,11.8-1.1,11.8l-0.4,0.1v0.4l0.2,0.2l-1.3,3.8H3.2V20l0.3,0.1v0.6H3.2v0.2h0.1v0.4l-3,4.2
							H0V26h3.6v-0.4H3c0.1-0.2,1.2-3.1,4.5-3.1c3.3,0,4.4,2.9,4.5,3.1h-0.5V26H15v-0.4L14.6,25.6L14.6,25.6z"/>
					</g>
					<g id="Page-1_2_" transform="translate(32.000000, 94.000000)">
						<g id="Oval">
							<g class="st2">
								<ellipse id="path-1_1_" cx="13.5" cy="29.5" rx="5.5" ry="1"/>
							</g>
						</g>
						<g id="Clip-2">
						</g>
						<defs>
							<filter id="Adobe_OpacityMaskFilter" filterUnits="userSpaceOnUse" x="6" y="8" width="15" height="20">
								<feColorMatrix  type="matrix" values="1 0 0 0 0  0 1 0 0 0  0 0 1 0 0  0 0 0 1 0"/>
							</filter>
						</defs>
						<mask maskUnits="userSpaceOnUse" x="6" y="8" width="15" height="20" id="mask-4_1_">
							<g class="st3">
								<polygon id="path-3_1_" class="st4" points="0,14 0,0 21,0 21,14 21,28 0,28 								"/>
							</g>
						</mask>
						<path id="Fill-1_2_" class="st5" d="M13.5,19c-1.9,0-3.5-1.6-3.5-3.5s1.6-3.5,3.5-3.5s3.5,1.6,3.5,3.5S15.4,19,13.5,19
							 M13.5,8C9.4,8,6,11.4,6,15.6c0,1.5,0.4,2.8,1.2,4l5.7,8c0.2,0.3,0.4,0.4,0.6,0.4c0.2,0,0.4-0.1,0.6-0.4l5.7-8
							c0.7-1.2,1.2-2.5,1.2-4C21,11.4,17.6,8,13.5,8"/>
					</g>
				</g>
			</g>
		</g>
	</g>
</g>
<path class="st4" d="M187,33.2c0.2-2.1,0-3-0.3-4.2c-0.4-1.6-1-3.8-0.8-10.4c0.2-7.1-0.5-8.4-2-10.2c-0.8-0.9-1.6-2-2.5-4.9
	c-0.5-1.6-0.7-2.6-0.9-3.4h-1.9c0.2,0.8,0.4,2.1,1,4c1,3.2,2,4.5,2.8,5.5c1.1,1.4,1.8,2.2,1.6,9c-0.2,6.9,0.4,9.3,0.8,11
	c0.3,1.1,0.5,1.8,0.3,3.5c-0.5,4.7-0.9,10.1,1.2,13.8c1.7,3-1.6,21.9-3.5,25.1c-0.8,1.3-2.9,2.7-5,4.1c-2.8,1.8-5.7,3.8-6.6,6.2
	c-0.4,1.1-2.5,1.6-5.2,2.3c-4.9,1.3-12.3,3.2-19.1,10.6c-2.2,1.9-8.1,4.9-12.4,7.1c-4.3,2.2-5.4,2.8-5.8,3.2
	c-0.6,0.4-3.8,0.5-6.9,0.2c-0.2-0.2-0.4-0.4-0.6-0.5c-3.5-3-5.8-4.5-11.2,0.2c-1.2,1-5,0.4-7.7-0.1c-1.4-0.2-2.7-0.4-3.7-0.5
	c-1.5-0.1-1.7-0.1-2.5-0.7c-1.3-0.8-3.6-2.3-11.6-5.3c-2.6-1-5.7-1.9-9.7-3.1c-6.6-1.9-14.8-4.3-25.2-8.3c-4-1.5-8.1-4.4-12-7.3
	c-5.2-3.7-10.2-7.3-14.7-7.3c-1.1,0-2.1,0.2-3.1,0.6c-3.9,1.7-8.5,1.3-11.5-1.1c-3.1-2.5-4.2-6.9-3-12.3c0.5-2.3-0.6-4.7-1.7-7.3
	c-1.6-3.5-3-6.8-0.5-9.4c1.6-1.7,3.4-3.2,5.1-4.8c3.5-3.1,6.8-6,8.2-9.5c0.2-0.5,0.7-1.2,1.2-2.1c1.2-2,2.9-4.6,3.7-8.1
	c0.4-1.7,1.6-2.9,3-4.2c2-1.9,4.5-4.3,5.2-9.4c0.4-0.5,0.9-1.2,1.6-2c0.8-1,1.8-2.1,2.6-3.3h-2.3c-0.6,0.7-1.2,1.5-1.7,2.1
	c-0.8,0.9-1.4,1.7-1.9,2.3l-0.1,0.2l0,0.2c-0.5,4.6-2.6,6.6-4.7,8.5c-1.5,1.5-3,2.8-3.5,5.1c-0.7,3.1-2.3,5.7-3.5,7.5
	c-0.6,1-1.1,1.7-1.3,2.4c-1.2,3.1-4.4,5.9-7.7,8.8c-1.7,1.5-3.5,3.1-5.2,4.9c-3.4,3.5-1.5,7.7,0.1,11.4c1,2.3,2,4.5,1.6,6.2
	c-1.3,6.1-0.1,11.2,3.6,14.1c3.5,2.9,8.8,3.4,13.4,1.4c4.3-1.9,9.9,2.2,15.9,6.5c4,2.9,8.1,5.9,12.4,7.5c10.5,4,18.7,6.4,25.4,8.4
	c4,1.2,7.1,2.1,9.6,3c7.8,2.9,10,4.3,11.2,5.1c1.1,0.7,1.5,0.9,3.5,1c0.9,0,2.2,0.2,3.5,0.5c3.6,0.6,7.3,1.2,9.2-0.3
	c4.5-3.9,5.8-2.8,8.8-0.2c0.3,0.2,0.6,0.5,0.9,0.7l0.2,0.2l0.3,0c0.8,0.1,2.4,0.2,4.1,0.2c2,0,4.1-0.2,4.7-1
	c0.4-0.4,2.9-1.6,5.2-2.8c4.7-2.4,10.5-5.3,12.8-7.4l0.1-0.1c6.4-7,13.3-8.8,18.2-10c3.3-0.9,5.8-1.5,6.5-3.5
	c0.7-1.9,3.4-3.6,5.9-5.3c2.3-1.5,4.5-3,5.5-4.7c2-3.4,5.7-23.1,3.5-27C186.2,42.7,186.6,37.6,187,33.2z"/>
</svg>
