<?xml version="1.0" encoding="utf-8"?>
<!-- Generator: Adobe Illustrator 22.0.1, SVG Export Plug-In . SVG Version: 6.00 Build 0)  -->
<svg version="1.1" id="Calque_1" xmlns="http://www.w3.org/2000/svg" xmlns:xlink="http://www.w3.org/1999/xlink" x="0px" y="0px"
	 viewBox="0 0 34 32" style="enable-background:new 0 0 34 32;" xml:space="preserve">
<style type="text/css">
	.st0{fill:#4b2980;}
	.st1{fill:none;stroke:#4b2980;stroke-width:2;}
	.st2{fill:none;stroke:#4b2980;stroke-width:1.5;stroke-linecap:round;}
</style>
<title>tv</title>
<desc>Created with Sketch.</desc>
<g id="Symbols">
	<g id="icon-tv" transform="translate(1.000000, 1.000000)">
		<g id="tv">
			<path id="TV" class="st0" d="M12.8,24h-2v-7.6H8.3v-1.6h7v1.6h-2.5V24z M22,14.7h2L20.8,24h-2.1l-3.1-9.3h2l1.7,5.5
				c0.1,0.3,0.2,0.7,0.3,1.1s0.2,0.7,0.2,0.9c0-0.4,0.2-1.1,0.5-2L22,14.7z"/>
			<path id="Rectangle-6" class="st1" d="M2.3,9.7C5.8,9.2,10.2,9,15.5,9C21,9,25.7,9.3,29.7,9.8v0c0.9,0.1,1.6,0.8,1.7,1.6
				c0.4,2.2,0.6,4.9,0.6,8.1c0,3.2-0.2,5.9-0.6,8.1l0,0c-0.2,0.9-0.9,1.5-1.7,1.6c-4.3,0.5-9,0.8-14.1,0.8c-5,0-9.4-0.3-13.2-0.8
				l0,0c-0.9-0.1-1.6-0.8-1.7-1.6C0.2,25.3,0,22.6,0,19.5c0-3.1,0.2-5.8,0.6-8.1h0C0.8,10.5,1.5,9.9,2.3,9.7z"/>
			<path id="Line" class="st2" d="M15.5,8.5l-5-5"/>
			<path id="Line_1_" class="st2" d="M23.5,0.5l-8,8"/>
		</g>
	</g>
</g>
</svg>
