<?xml version="1.0" encoding="UTF-8"?>
<svg width="25px" height="26px" viewBox="0 0 25 26" version="1.1" xmlns="http://www.w3.org/2000/svg" xmlns:xlink="http://www.w3.org/1999/xlink">
    <!-- Generator: Sketch 47.1 (45422) - http://www.bohemiancoding.com/sketch -->
    <title>icon-zip</title>
    <desc>Created with Sketch.</desc>
    <defs>
        <polygon id="path-1" points="0 24.7758997 0 0.0549067809 19.5614855 0.0549067809 19.5614855 24.7758997"></polygon>
    </defs>
    <g id="Symbols" stroke="none" stroke-width="1" fill="none" fill-rule="evenodd">
        <g id="icon-zip">
            <g id="PDF">
                <mask id="mask-2" fill="white">
                    <use xlink:href="#path-1"></use>
                </mask>
                <g id="Clip-4"></g>
                <path d="M19.661996,22.1862664 L17.8718227,22.1862664 L17.7489697,4.97141494 L17.5566478,4.97141494 C16.7699181,4.97136005 15.9831884,4.97306162 15.1964586,4.97059159 C14.8011452,4.96927425 14.623084,4.79483575 14.6214922,4.40462703 C14.6182537,3.63623038 14.6095263,2.86755927 14.6261029,2.09949195 C14.6318663,1.83042414 14.5679202,1.73958218 14.2795313,1.74062508 C11.1510004,1.75198719 8.02241457,1.74863894 4.89382877,1.74896827 C3.94243087,1.74902316 2.99103297,1.74748626 2.03968996,1.74803515 C1.93260075,1.74809004 1.82551153,1.75703701 1.68938583,1.76318463 L1.68938583,2.14192146 C1.68944072,9.01204294 1.69031895,15.8821644 1.68576313,22.7522859 C1.68565335,22.9804062 1.71309805,23.0926002 1.99001505,23.092161 C7.16773179,23.0833787 12.3453936,23.0851352 17.5231104,23.0846412 L17.8718227,23.0846412 L17.8718227,22.1862664 L19.5589032,22.1862664 C19.5589032,22.3602658 19.5589581,22.5379977 19.5589032,22.7156747 C19.5588483,23.0907339 19.5615379,23.465848 19.5580249,23.8408524 C19.5522616,24.4556136 19.2273712,24.772545 18.593728,24.7736428 C16.9378796,24.7765519 15.2820312,24.7758384 13.6261828,24.7757835 C9.42725377,24.7756188 5.22832475,24.7778693 1.02945062,24.7667816 C0.795621796,24.7661778 0.539123648,24.695151 0.334111754,24.5824081 C0.0664161692,24.4351948 -0.000603783357,24.148727 0.000164668188,23.8462865 C0.00384225772,22.4466617 0.000164668188,21.047037 0.000109778792,19.6474123 C-0.000109778792,13.5092409 -0.000164668188,7.37095977 0.000988009129,1.23278839 C0.00104289853,1.0593379 -0.00329336376,0.882539155 0.0268958041,0.713150478 C0.0991302493,0.307572731 0.463650729,0.0609546743 0.978513264,0.0601862228 C2.4696386,0.0578808682 3.96076393,0.0590884349 5.45188926,0.0591982137 C8.58964159,0.05952755 11.7273939,0.0647420427 14.8651462,0.0549168408 C15.2794514,0.0535994953 15.5956143,0.181601567 15.8878455,0.475040278 C16.9917261,1.58325718 18.1104818,2.67665395 19.226987,3.7722463 C19.4321636,3.97363549 19.5621416,4.19730978 19.561483,4.49437119 C19.5579152,6.04949756 19.5594521,7.60462393 19.5581896,9.1597503 C19.5581347,9.2135968 19.5476508,9.2674433 19.539143,9.34917361" id="Fill-3" fill="#2A2A2A" mask="url(#mask-2)"></path>
            </g>
            <path d="M8.95459372,1.3413946 L8.95459372,2.3413946 C8.95459372,2.7003797 9.24560865,2.99139463 9.60459376,2.99139463 C9.96357886,2.99139463 10.2545938,2.7003797 10.2545938,2.3413946 L10.2545938,1.3413946 C10.2545938,0.982409489 9.96357886,0.69139456 9.60459376,0.69139456 C9.24560865,0.69139456 8.95459372,0.982409489 8.95459372,1.3413946 Z M8.95459372,4.9413945 L8.95459372,5.9413945 C8.95459372,6.30037961 9.24560865,6.59139454 9.60459376,6.59139454 C9.96357886,6.59139454 10.2545938,6.30037961 10.2545938,5.9413945 L10.2545938,4.9413945 C10.2545938,4.58240939 9.96357886,4.29139446 9.60459376,4.29139446 C9.24560865,4.29139446 8.95459372,4.58240939 8.95459372,4.9413945 Z M8.95459372,8.5413944 L8.95459372,9.5413944 C8.95459372,9.90037951 9.24560865,10.1913944 9.60459376,10.1913944 C9.96357886,10.1913944 10.2545938,9.90037951 10.2545938,9.5413944 L10.2545938,8.5413944 C10.2545938,8.1824093 9.96357886,7.89139437 9.60459376,7.89139437 C9.24560865,7.89139437 8.95459372,8.1824093 8.95459372,8.5413944 Z M8.95459372,12.1413943 L8.95459372,13.1413943 C8.95459372,13.5003794 9.24560865,13.7913943 9.60459376,13.7913943 C9.96357886,13.7913943 10.2545938,13.5003794 10.2545938,13.1413943 L10.2545938,12.1413943 C10.2545938,11.7824092 9.96357886,11.4913943 9.60459376,11.4913943 C9.24560865,11.4913943 8.95459372,11.7824092 8.95459372,12.1413943 Z M8.95459372,15.7413942 L8.95459372,17.5 C8.95459372,17.8589851 9.24560865,17.15 9.60459376,17.15 C9.96357886,17.15 10.2545938,17.8589851 10.2545938,17.5 L10.2545938,15.7413942 C10.2545938,15.3824091 9.96357886,15.0913942 9.60459376,15.0913942 C9.24560865,15.0913942 8.95459372,15.3824091 8.95459372,15.7413942 Z" id="Line" fill="#2A2A2A" fill-rule="nonzero"></path>
            <path d="M8.95266369,19.2895679 L10.2565238,19.2895679 L9.71707962,17.6712353 L9.49210789,17.6712353 L8.95266369,19.2895679 Z M9.19958881,16.8595382 L10.0095987,16.8595382 C10.1842882,16.8595382 10.3393787,16.9713211 10.3946204,17.1370462 L11.2046303,19.5670759 C11.2922302,19.8298754 11.0966236,20.101265 10.8196086,20.101265 L8.38957893,20.101265 C8.11256387,20.101265 7.91695735,19.8298754 8.0045572,19.5670759 L8.81456709,17.1370462 C8.86980877,16.9713211 9.02489926,16.8595382 9.19958881,16.8595382 Z" id="Rectangle-2" fill="#2A2A2A" fill-rule="nonzero"></path>
        </g>
    </g>
</svg>