<?xml version="1.0" encoding="UTF-8"?>
<svg width="13px" height="17px" viewBox="0 0 13 17" version="1.1" xmlns="http://www.w3.org/2000/svg" xmlns:xlink="http://www.w3.org/1999/xlink">
    <!-- Generator: Sketch 48 (47235) - http://www.bohemiancoding.com/sketch -->
    <title>Icon-bag</title>
    <desc>Created with Sketch.</desc>
    <defs>
        <polygon id="path-1" points="13 2.910664e-15 0 2.910664e-15 0 17 13 17 13 0"></polygon>
    </defs>
    <g id="top-header" stroke="none" stroke-width="1" fill="none" fill-rule="evenodd" transform="translate(-1363.000000, -8.000000)">
        <g id="Icon-bag">
            <g transform="translate(1363.000000, 8.000000)">
                <mask id="mask-2" fill="white">
                    <use xlink:href="#path-1"></use>
                </mask>
                <g id="Clip-2"></g>
                <path d="M10.4349776,15.7301205 L2.54559043,15.7301205 C1.82660688,15.7301205 1.22421525,15.238759 1.20478326,14.6243012 L2.05979073,4.5060241 L3.20627803,4.5060241 L3.20627803,5.71445783 C3.20627803,6.0626506 3.47832586,6.34939759 3.80866966,6.34939759 C4.13901345,6.34939759 4.41106129,6.0626506 4.41106129,5.71445783 L4.41106129,4.5060241 L8.56950673,4.5060241 L8.56950673,5.71445783 C8.56950673,6.0626506 8.84155456,6.34939759 9.17189836,6.34939759 C9.50224215,6.34939759 9.7744843,6.0626506 9.7744843,5.71445783 L9.7744843,4.5060241 L10.9207773,4.5060241 L11.7757848,14.6445783 C11.7563528,15.238759 11.1733931,15.7301205 10.4349776,15.7301205 Z M6.49028401,1.26987952 C7.55904335,1.26987952 8.4529148,2.13012048 8.56950673,3.23614458 L4.41106129,3.23614458 C4.52765321,2.13012048 5.42152466,1.26987952 6.49028401,1.26987952 Z M12.0672646,3.80963855 C12.0478326,3.48192771 11.7757848,3.23614458 11.4648729,3.23614458 L9.7744843,3.23614458 C9.65769806,1.43373494 8.23916293,0 6.49028401,0 C4.74140508,0 3.32286996,1.43373494 3.20627803,3.23614458 L1.51569507,3.23614458 C1.20478326,3.23614458 0.932735426,3.48192771 0.913303438,3.80963855 L0,14.5421687 L0,14.6036145 C0,15.9144578 1.14648729,17 2.54559043,17 L10.4546039,17 C11.8535127,17 13,15.9349398 13,14.6036145 L13,14.5421687 L12.0672646,3.80963855 Z" id="Fill-1" fill="#293a4d" mask="url(#mask-2)"></path>
            </g>
        </g>
    </g>
</svg>