<?xml version="1.0" encoding="utf-8"?>
<!-- Generator: Adobe Illustrator 22.0.1, SVG Export Plug-In . SVG Version: 6.00 Build 0)  -->
<svg version="1.1" id="Calque_1" xmlns="http://www.w3.org/2000/svg" xmlns:xlink="http://www.w3.org/1999/xlink" x="0px" y="0px"
	 viewBox="0 0 25 26" style="enable-background:new 0 0 25 26;" xml:space="preserve">
<style type="text/css">
	.st0{fill:#293a4d;}
</style>
<title>icon-zip</title>
<desc>Created with Sketch.</desc>
<g id="Clip-4">
</g>
<g>
	<path class="st0" d="M19.2,3.7c-1.1-1.1-2.2-2.2-3.3-3.3c-0.3-0.3-0.6-0.4-1-0.4c-3.1,0-6.3,0-9.4,0C4,0,2.5,0,1,0
		C0.4,0,0.1,0.3,0,0.7C0,0.8,0,1,0,1.2c0,6.2,0,12.3,0,18.4c0,1.4,0,2.8,0,4.2c0,0.3,0.1,0.6,0,0.6c0.2,0.1,0.5,0.2,0.7,0.2
		c4.2,0,8.4,0,12.6,0c1.7,0,3.7,0,5.4,0c0.7,0,0.9-0.3,0.9-0.9c0-0.3,0-0.7,0-1.1c0-0.1,0-0.2,0-0.4c0,0,0-0.1,0-0.1V9.3
		c0-0.1,0-0.1,0-0.2c0-1.6,0-3.1,0-4.7C19.6,4.1,19.4,3.9,19.2,3.7z M18,23h-0.3C12.6,23,7,23,1.8,23c-0.3,0-0.3-0.1-0.3-0.3
		c0-6.9,0-13.7,0-20.6V1.7c0.2,0,0.3,0,0.4,0c1,0,1.9,0,2.9,0c1.4,0,2.7,0,4.1,0v0.2c0,0.4,0.3,0.7,0.7,0.7c0.4,0,0.7-0.3,0.7-0.7
		V1.7c1.3,0,2.6,0,3.9,0c0.2,0,0.3,0.1,0.3,0.4c0,0.8,0,1.5,0,2.3c0,0.4,0.2,0.6,0.6,0.6c0.8,0,1.6,0,2.4,0H18v17.1V23z"/>
	<path class="st0" d="M9.6,10.8c0.4,0,0.7-0.3,0.7-0.7V9c0-0.4-0.3-0.7-0.7-0.7C9.2,8.3,8.9,8.6,8.9,9v1.1
		C8.9,10.5,9.2,10.8,9.6,10.8z"/>
	<path class="st0" d="M9.6,6.7c0.4,0,0.7-0.3,0.7-0.7V4.9c0-0.4-0.3-0.7-0.7-0.7c-0.4,0-0.7,0.3-0.7,0.7V6C8.9,6.4,9.2,6.7,9.6,6.7z
		"/>
	<path class="st0" d="M9.6,14.9c0.4,0,0.7-0.3,0.7-0.7v-1.1c0-0.4-0.3-0.7-0.7-0.7c-0.4,0-0.7,0.3-0.7,0.7v1.1
		C8.9,14.6,9.2,14.9,9.6,14.9z"/>
	<path class="st0" d="M10.4,16.8c-0.1-0.2-0.2-0.3-0.4-0.3H9.1c-0.2,0-0.4,0.2-0.4,0.3l-0.9,2.8c-0.1,0.3,0.1,0.6,0.4,0.6h2.7
		c0.3,0,0.5-0.3,0.4-0.6L10.4,16.8z M8.8,19.4l0.6-1.8h0.3l0.6,1.8H8.8z"/>
</g>
</svg>
