<?xml version="1.0" encoding="UTF-8"?>
<svg width="349px" height="174px" viewBox="0 0 349 174" version="1.1" xmlns="http://www.w3.org/2000/svg" xmlns:xlink="http://www.w3.org/1999/xlink">
    <!-- Generator: Sketch 47.1 (45422) - http://www.bohemiancoding.com/sketch -->
    <title>logo</title>
    <desc>Created with Sketch.</desc>
    <defs>
        <polygon id="path-1" points="0 174 348.515567 174 348.515567 0.101980198 0 0.101980198"></polygon>
    </defs>
    <g id="Symbols" stroke="none" stroke-width="1" fill="none" fill-rule="evenodd">
        <g id="logo">
            <g id="Page-1">
                <polygon id="Fill-1" fill="#E74427" points="58 174 116 174 116 116 58 116"></polygon>
                <polygon id="Fill-2" fill="#30B3E8" points="0 116 58 116 58 58 0 58"></polygon>
                <polygon id="Fill-3" fill="#006943" points="58 116 116 116 116 58 58 58"></polygon>
                <polygon id="Fill-4" fill="#F6A723" points="116 116 174 116 174 58 116 58"></polygon>
                <polygon id="Fill-5" fill="#80BA27" points="0 58 58 58 58 0 0 0"></polygon>
                <polygon id="Fill-6" fill="#E74892" points="58 58 116 58 116 0 58 0"></polygon>
                <polygon id="Fill-7" fill="#80BA27" points="116 58 174 58 174 0 116 0"></polygon>
                <polygon id="Fill-8" fill="#006943" points="174 174 348 174 348 0 174 0"></polygon>
                <g id="Group-77">
                    <path d="M228.595521,67.9007921 C227.894048,68.0480693 226.284481,68.1780198 225.579536,68.224802 C225.579536,69.3527723 226.348725,70.669604 228.50176,70.669604 C229.227541,70.669604 230.281486,70.5743069 231.199999,70.1255446 L231.30765,70.1116832 L231.453501,70.1116832 L231.453501,71.7941089 L231.352795,71.820099 C230.458591,72.0938614 229.422008,72.249802 228.494814,72.249802 C226.749814,72.249802 225.494456,71.8460891 224.66276,71.0230693 C223.844954,70.2000495 223.449073,68.9681188 223.449073,67.2718317 C223.459491,64.1166337 225.155874,62.2332178 227.999964,62.2332178 C230.354411,62.2401485 231.757357,63.250297 231.757357,64.9587129 C231.757357,66.5319802 230.76071,67.4693564 228.595521,67.9007921 Z M227.907939,63.5569802 L227.906202,63.6973267 C225.886864,63.7059901 225.579536,65.4577228 225.579536,66.5025248 L225.579536,66.7641584 C228.987929,66.6532673 229.689401,66.0035149 229.689401,65.0592079 C229.689401,64.4770297 229.500143,63.6973267 227.907939,63.6973267 L227.907939,63.5569802 Z" id="Fill-9" fill="#F6A723"></path>
                    <mask id="mask-2" fill="white">
                        <use xlink:href="#path-1"></use>
                    </mask>
                    <g id="Clip-12"></g>
                    <polygon id="Fill-11" fill="#F6A723" mask="url(#mask-2)" points="195.266368 61.0574257 197.367313 61.0574257 197.367313 58.8240099 195.266368 58.8240099"></polygon>
                    <path d="M303.058751,62.2408416 C301.247771,62.2408416 299.4229,62.5943069 298.827343,62.7675743 L298.721428,62.7970297 L298.721428,72.0443069 L300.820637,72.0443069 L300.820637,64.190099 C301.461338,64.0393564 302.272199,63.9579208 303.119522,63.9579208 C304.036299,63.9579208 304.774234,64.2368812 305.090244,64.704703 C305.381945,65.1517327 305.381945,65.6022277 305.381945,67.4891089 L305.381945,72.0443069 L307.477682,72.0443069 L307.477682,66.9069307 C307.477682,65.2470297 307.477682,64.1502475 306.673766,63.2457921 C306.062582,62.5787129 304.84195,62.2408416 303.058751,62.2408416" id="Fill-13" fill="#F6A723" mask="url(#mask-2)"></path>
                    <path d="M315.260555,62.2391089 C314.348988,62.2391089 313.354078,62.3829208 312.303605,62.6722772 L312.194217,62.705198 L312.194217,64.5660891 L312.477237,64.5522277 C313.449575,64.1502475 314.428859,63.925 315.250137,63.925 C316.554112,63.925 316.972565,64.2126238 317.24864,64.7133663 C317.342401,64.9091584 317.403172,65.2227723 317.403172,65.5381188 L317.403172,65.6472772 C316.548903,65.6940594 315.935983,65.7564356 315.180685,65.8361386 C312.538008,66.1376238 311.364257,67.170297 311.364257,69.1905941 C311.364257,71.1363861 312.793247,72.250495 315.291809,72.250495 C316.81456,72.250495 318.556088,71.8537129 319.353058,71.4655941 L319.439874,71.4240099 L319.439874,65.6039604 C319.439874,64.9715347 319.340903,64.4638614 319.149908,64.0289604 C318.601232,62.8316832 317.331983,62.2391089 315.260555,62.2391089 M314.708406,67.5618812 C315.076505,67.4544554 315.56962,67.3660891 316.081834,67.3210396 L316.621829,67.2725248 C316.915267,67.2482673 317.142724,67.2170792 317.403172,67.2066832 L317.403172,70.4433168 C316.962147,70.6460396 316.191222,70.7759901 315.455023,70.7759901 C314.10764,70.7759901 313.466938,70.2388614 313.466938,69.0831683 C313.466938,68.2965347 313.864555,67.7957921 314.708406,67.5618812" id="Fill-14" fill="#F6A723" mask="url(#mask-2)"></path>
                    <path d="M289.761678,62.2273267 C286.704021,62.2273267 284.807961,64.1679208 284.807961,67.2780693 C284.807961,70.3795545 286.608523,72.2317822 289.63319,72.2317822 C292.79329,72.2317822 294.666777,70.3518317 294.666777,67.2070297 C294.666777,64.1852475 292.749882,62.2273267 289.761678,62.2273267 M289.742578,70.6238614 C287.811792,70.6238614 286.950578,69.5790594 286.950578,67.2590099 C286.950578,64.4312871 288.459439,63.8404455 289.726951,63.8404455 C291.593494,63.8404455 292.532842,64.9961386 292.532842,67.2780693 C292.532842,69.4941584 291.596966,70.6238614 289.742578,70.6238614" id="Fill-15" fill="#F6A723" mask="url(#mask-2)"></path>
                    <path d="M240.836218,62.2306188 C239.836099,62.2306188 238.964467,62.6204703 238.139716,63.427896 L238.139716,62.4298762 L236.092597,62.4298762 L236.092597,72.0410149 L238.177915,72.0410149 L238.158815,65.2991832 C238.323766,65.0184901 238.978358,64.1001733 240.426447,64.1001733 C240.673004,64.1001733 240.905671,64.1261634 241.117502,64.1850743 L241.294606,64.2318564 L241.294606,62.287797 L241.183482,62.267005 C241.107084,62.2496782 240.989014,62.2306188 240.836218,62.2306188" id="Fill-16" fill="#F6A723" mask="url(#mask-2)"></path>
                    <path d="M274.126478,70.5268317 C272.902373,70.5268317 272.765204,69.9377228 272.765204,69.5010891 L272.765204,64.0067822 L274.508468,64.0067822 L274.508468,62.4283168 L272.765204,62.4283168 L272.765204,59.8102475 L270.70593,59.8102475 L270.70593,62.4283168 L269.790891,62.4283168 L269.790891,64.0067822 L270.70593,64.0067822 L270.70593,69.740198 C270.70593,71.3637129 271.629652,72.2473762 273.303463,72.2473762 C273.890338,72.2473762 274.279274,72.2473762 274.63001,72.2075248 L274.758498,72.1919307 L274.758498,70.4765842 L274.59702,70.4939109 C274.447697,70.5164356 274.270592,70.5268317 274.126478,70.5268317" id="Fill-17" fill="#F6A723" mask="url(#mask-2)"></path>
                    <path d="M249.290526,62.2408416 C247.462183,62.2408416 245.64773,62.5943069 245.050437,62.7675743 L244.942785,62.7970297 L244.942785,72.0443069 L247.048939,72.0443069 L247.048939,64.190099 C247.693113,64.0393564 248.503974,63.9579208 249.347825,63.9579208 C250.262865,63.9579208 250.992118,64.2368812 251.311601,64.704703 C251.608511,65.1517327 251.608511,65.6022277 251.608511,67.4891089 L251.608511,72.0443069 L253.705984,72.0443069 L253.705984,66.9069307 C253.705984,65.2470297 253.705984,64.1502475 252.905541,63.2457921 C252.292621,62.5787129 251.073725,62.2408416 249.290526,62.2408416" id="Fill-18" fill="#F6A723" mask="url(#mask-2)"></path>
                    <path d="M261.531398,62.2391089 C260.614621,62.2391089 259.616238,62.3829208 258.569238,62.6722772 L258.463323,62.705198 L258.463323,64.5660891 L258.748079,64.5522277 C259.701318,64.1502475 260.68581,63.925 261.515771,63.925 C262.828427,63.925 263.234726,64.2126238 263.491701,64.7133663 C263.601089,64.9178218 263.660124,65.2227723 263.660124,65.5381188 L263.660124,65.6472772 C262.814537,65.6940594 262.19988,65.7564356 261.441109,65.8361386 C258.807114,66.1376238 257.633363,67.170297 257.633363,69.1905941 C257.633363,71.1363861 259.064089,72.250495 261.550497,72.250495 L261.55397,72.250495 C263.076721,72.250495 264.816512,71.8537129 265.616955,71.4655941 L265.693353,71.4240099 L265.693353,65.6039604 C265.693353,64.9784653 265.599592,64.4638614 265.408597,64.0289604 C264.85992,62.8316832 263.592407,62.2391089 261.531398,62.2391089 M260.956676,67.5618812 C261.333457,67.4544554 261.840462,67.3660891 262.347467,67.3210396 L262.892671,67.2725248 C263.182636,67.2482673 263.408358,67.2170792 263.660124,67.2066832 L263.660124,70.4433168 C263.226044,70.6460396 262.462064,70.7759901 261.722393,70.7759901 C260.364592,70.7759901 259.72389,70.2388614 259.72389,69.0831683 C259.72389,68.2965347 260.128452,67.7957921 260.956676,67.5618812" id="Fill-19" fill="#F6A723" mask="url(#mask-2)"></path>
                    <path d="M220.147985,70.4590842 C219.866701,70.5335891 219.587154,70.5665099 219.137447,70.5665099 C218.286651,70.5665099 217.922024,70.0657673 217.922024,68.9014109 L217.922024,64.0135396 L220.017761,64.0135396 L220.017761,62.4298762 L217.922024,62.4298762 L217.922024,60.2605693 L215.880114,60.2605693 L215.880114,62.4298762 L214.60392,62.4298762 L214.60392,64.0135396 L215.880114,64.0135396 L215.880114,68.9533911 C215.880114,70.1905198 216.109308,70.9910149 216.61284,71.477896 C217.076437,71.9803713 217.805691,72.2506683 218.670378,72.2506683 C219.300661,72.2506683 219.897955,72.1605693 220.326825,71.9907673 L220.417114,71.9509158 L220.312935,70.4019059 L220.147985,70.4590842 Z" id="Fill-20" fill="#F6A723" mask="url(#mask-2)"></path>
                    <path d="M206.5033,62.2408416 C204.680166,62.2408416 202.860504,62.5943069 202.273628,62.7675743 L202.169449,62.7970297 L202.169449,72.0443069 L204.25824,72.0443069 L204.25824,64.190099 C204.902414,64.0393564 205.713275,63.9579208 206.553653,63.9579208 C207.48432,63.9579208 208.201419,64.2299505 208.524375,64.704703 C208.826494,65.1517327 208.826494,65.6022277 208.826494,67.4891089 L208.826494,72.0443069 L210.92223,72.0443069 L210.92223,66.9069307 C210.92223,65.2470297 210.92223,64.1502475 210.11137,63.2457921 C209.508867,62.5787129 208.288235,62.2408416 206.5033,62.2408416" id="Fill-21" fill="#F6A723" mask="url(#mask-2)"></path>
                    <polygon id="Fill-22" fill="#F6A723" mask="url(#mask-2)" points="195.276786 72.0443069 197.374259 72.0443069 197.374259 62.434901 195.276786 62.434901"></polygon>
                    <polygon id="Fill-23" fill="#F6A723" mask="url(#mask-2)" points="278.665214 72.0443069 280.762687 72.0443069 280.762687 62.434901 278.665214 62.434901"></polygon>
                    <polygon id="Fill-24" fill="#F6A723" mask="url(#mask-2)" points="278.665214 61.0556931 280.762687 61.0556931 280.762687 58.8205446 278.665214 58.8205446"></polygon>
                    <path d="M93.9435075,154.370371 L93.9435075,148.749579 C93.9435075,148.191658 93.4868557,147.739431 92.9329701,147.739431 L87.1510299,147.739431 C86.5988806,147.739431 86.1422289,148.191658 86.1422289,148.749579 L86.1422289,154.370371 C86.1422289,154.919629 86.5988806,155.375322 87.1510299,155.375322 L92.9329701,155.375322 C93.4868557,155.375322 93.9435075,154.919629 93.9435075,154.370371 L93.9435075,154.370371 Z M88.1546219,153.361955 L91.9311144,153.361955 L91.9311144,149.747599 L88.1546219,149.747599 L88.1546219,153.361955 Z" id="Fill-25" fill="#FEFEFE" mask="url(#mask-2)"></path>
                    <path d="M110.898136,154.194332 C109.446574,154.194332 108.074882,154.630965 106.908076,155.448787 L106.908076,150.973292 L110.629006,150.992351 L110.637688,150.992351 C111.056141,150.992351 111.432922,150.727252 111.582245,150.333936 C111.72636,149.938886 111.613499,149.498787 111.290544,149.223292 L106.114579,144.836163 L105.944419,138.65052 C105.92532,138.104728 105.484295,137.669827 104.939091,137.669827 L101.209479,137.669827 C100.660802,137.669827 100.207623,138.12552 100.207623,138.679975 L100.207623,139.014381 L94.2468423,133.260173 C93.857907,132.884183 93.2432502,132.873787 92.8577876,133.246312 L75.7359517,149.320322 C75.432096,149.609678 75.3331259,150.046312 75.4859219,150.422302 C75.6369816,150.806955 76.01029,151.05646 76.4200612,151.05646 L80.0211856,151.05646 L80.0298672,165.848292 L72.7529567,165.848292 L72.7529567,134.823045 C73.6697328,134.544084 74.3989866,133.821559 74.7063149,132.915371 L84.5842303,134.705223 L84.6172204,134.705223 C84.6745189,134.705223 84.7318174,134.679233 84.7717527,134.634183 C84.8116881,134.583936 84.8203697,134.504233 84.7925886,134.440124 C84.707509,134.259926 82.722897,130.137896 74.8000761,131.359431 C74.5118473,130.011411 73.3103149,128.989134 71.8778522,128.989134 C71.8396532,128.989134 71.8049269,128.996064 71.7702005,128.996064 L70.0790264,119.095569 C70.0616632,119.027995 70.0130463,118.974282 69.9488025,118.950025 C69.8810861,118.9275 69.8064244,118.950025 69.7560711,118.99854 C69.6102204,119.140619 66.4067129,122.429233 70.2804393,129.451757 C69.4452701,129.97849 68.8809667,130.910668 68.8809667,131.977995 C68.8809667,132.336658 68.9486831,132.686658 69.0719617,133.007203 L60.9286284,139.579233 C60.8748025,139.627748 60.8470214,139.70052 60.8609119,139.761163 C60.8800114,139.835668 60.9286284,139.892847 60.9980811,139.910173 C61.0501706,139.930965 61.3991706,140.019332 61.9669468,140.019332 C63.5365786,140.019332 66.7782851,139.302005 69.9435935,134.244332 C70.1779965,134.448787 70.4471259,134.613391 70.7405637,134.732946 L70.7405637,165.848292 L63.7067378,165.848292 C63.1545886,165.848292 62.7014095,166.297054 62.7014095,166.85151 C62.7014095,167.407698 63.1545886,167.85646 63.7067378,167.85646 L81.0351955,167.85646 C81.3043249,167.85646 81.5595637,167.749035 81.7436134,167.565371 C81.9363448,167.369579 82.0474692,167.12354 82.0474692,166.85151 L82.0318423,150.056708 C82.0318423,149.498787 81.5838721,149.055223 81.0247776,149.055223 L78.9550861,149.055223 L93.5366881,135.363639 L100.511479,142.114134 C100.803181,142.389629 101.228579,142.47453 101.603623,142.311658 C101.976932,142.153985 102.216544,141.797054 102.216544,141.388144 L102.216544,139.683193 L103.959807,139.683193 L104.119549,145.340371 C104.131703,145.619332 104.263663,145.886163 104.473758,146.069827 L107.88736,148.966856 L105.901011,148.959926 C105.6423,148.959926 105.387061,149.062153 105.189121,149.249282 C104.999862,149.436411 104.890474,149.694579 104.890474,149.963144 L104.890474,154.279233 C103.867783,153.684926 102.688822,153.364381 101.4543,153.364381 C97.6552353,153.364381 94.5715338,156.439876 94.5715338,160.224035 C94.5715338,160.679728 94.6236234,161.130223 94.7191209,161.592847 C92.298693,162.311906 90.5866831,164.514134 90.5866831,167.135668 C90.5866831,167.683193 91.0398622,168.137153 91.5972204,168.137153 C92.1493697,168.137153 92.5973398,167.683193 92.5973398,167.135668 C92.5973398,165.158688 94.1009915,163.533441 96.0838672,163.363639 C96.4050861,163.33245 96.688106,163.162649 96.8547925,162.890619 C97.0214791,162.618589 97.0492602,162.280718 96.9381358,161.991361 C96.7054692,161.405718 96.5873995,160.80448 96.5873995,160.224035 C96.5873995,157.541856 98.7699517,155.369084 101.4543,155.369084 C103.142001,155.369084 104.687325,156.238886 105.59021,157.690866 C105.755161,157.957698 106.038181,158.129233 106.350718,158.160421 C106.666728,158.191609 106.97232,158.07552 107.185887,157.843342 C108.166907,156.781213 109.4813,156.2025 110.898136,156.2025 C111.452021,156.2025 111.899992,155.74854 111.899992,155.192351 C111.899992,154.644827 111.452021,154.194332 110.898136,154.194332 M72.8467179,131.977995 C72.8467179,132.516856 72.4126383,132.95349 71.8778522,132.95349 C71.3361209,132.95349 70.8968323,132.516856 70.8968323,131.977995 C70.8968323,131.437401 71.3361209,130.995569 71.8778522,130.995569 C72.4126383,130.995569 72.8467179,131.437401 72.8467179,131.977995" id="Fill-26" fill="#FEFEFE" mask="url(#mask-2)"></path>
                    <path d="M53.0959224,95.7148762 C50.1962706,93.1713119 46.7010617,91.8284901 43.0027035,91.8284901 C39.5474299,91.8284901 36.2623154,93.0275 33.555395,95.1690842 C32.5813204,94.2091832 31.7148975,93.0881436 30.9943254,91.8284901 C30.7182507,91.3502723 30.1018577,91.1839356 29.6208975,91.4559653 C29.1364647,91.7297277 28.9732507,92.3465594 29.2475891,92.8299752 C30.0445592,94.2126485 30.9925891,95.4411139 32.0569522,96.5153713 C31.0012706,97.5792327 30.0601861,98.812896 29.2684249,100.192104 C29.0027682,100.668589 29.1625095,101.287153 29.6469423,101.559183 C29.8066836,101.649282 29.9785791,101.694332 30.1487383,101.694332 C30.490793,101.694332 30.8328478,101.514134 31.0221065,101.184926 C31.7374697,99.9287376 32.5917383,98.812896 33.5571313,97.852995 C36.2623154,99.9720545 39.5196488,101.146807 42.9558229,101.146807 C46.6854348,101.146807 50.192798,99.7918564 53.0959224,97.2292327 C53.4067234,96.9641337 53.5126388,96.5240347 53.3737333,96.1307178 C53.3164348,95.9730446 53.2226736,95.8240347 53.0959224,95.7148762 M42.9558229,99.1403713 C40.115206,99.1403713 37.4030766,98.2047277 35.1094,96.5032426 C37.4152308,94.7896287 40.1395144,93.8401238 43.0027035,93.8401238 C45.8276935,93.8401238 48.5120418,94.7480446 50.8456537,96.4737871 C48.5120418,98.2255198 45.8051214,99.1403713 42.9558229,99.1403713" id="Fill-27" fill="#FEFEFE" mask="url(#mask-2)"></path>
                    <path d="M31.7362542,105.080495 C29.0310701,102.703267 25.7685279,101.448812 22.3115179,101.448812 C19.0871746,101.448812 16.0399358,102.545594 13.5205378,104.524307 C12.6350154,103.649307 11.8467269,102.628762 11.1886622,101.483465 C10.9091149,101.00005 10.2944582,100.830248 9.81176169,101.107475 C9.33427413,101.384703 9.16585124,101.998069 9.44018955,102.476287 C10.1729159,103.751535 11.0428114,104.893366 12.0203587,105.879257 C11.051493,106.854752 10.1902791,107.991386 9.45928905,109.25797 C9.1901597,109.743119 9.35510995,110.354752 9.8412791,110.635446 C9.99754776,110.720347 10.1694433,110.765396 10.3378662,110.765396 C10.6833935,110.765396 11.0289209,110.578267 11.2164433,110.25599 C11.869299,109.121089 12.643697,108.095347 13.5240104,107.208218 C16.0329905,109.167871 19.0680751,110.25599 22.2646373,110.25599 C25.7025478,110.25599 29.0640602,108.95302 31.7414632,106.589653 C32.0869905,106.293366 32.1755428,105.794356 31.9723935,105.387178 C31.920304,105.271089 31.8334881,105.165396 31.7362542,105.080495 M22.2646373,108.251287 C19.661896,108.251287 17.1824333,107.402277 15.0745428,105.872327 C17.1893786,104.316386 19.6896771,103.45698 22.3115179,103.45698 C24.8830055,103.45698 27.345105,104.274802 29.4807766,105.839406 C27.3346871,107.419604 24.8673786,108.251287 22.2646373,108.251287" id="Fill-28" fill="#FEFEFE" mask="url(#mask-2)"></path>
                    <path d="M54.8136622,80.1208168 C49.7384035,75.6349257 43.7515776,72.992599 37.3636622,72.3584406 C36.6882343,71.5180941 34.3997667,69.2985396 28.3834234,67.9366584 C27.8382194,67.8153713 27.3034333,68.1567079 27.181891,68.7059653 C27.0620851,69.237896 27.3954582,69.7680941 27.9389259,69.9032426 C30.9201846,70.5633911 32.847498,71.4609158 34.0629209,72.2163614 C26.9457517,72.2856683 20.2036274,74.8742822 14.699498,79.4641337 C12.3311597,77.2289851 10.238896,74.5866584 8.51473184,71.5752723 C8.2369209,71.1022525 7.62573682,70.9289851 7.1430403,71.2062129 C6.6620801,71.4782426 6.49018458,72.0898762 6.77146816,72.5767574 C8.56161244,75.707698 10.7268015,78.4678465 13.1854284,80.787896 C10.707702,83.1287376 8.52862239,85.8923515 6.71416965,89.0198267 C6.44156766,89.5067079 6.60999055,90.1166089 7.09268706,90.3990347 C7.2472194,90.482203 7.41911493,90.5289851 7.59448308,90.5289851 C7.93827413,90.5289851 8.27338358,90.3435891 8.46437861,90.0317079 C10.1954881,87.0012624 12.3068512,84.357203 14.699498,82.1359158 C17.9377318,84.8579455 21.6152542,86.8834406 25.5514881,88.0980446 C24.667702,88.6715594 23.7457169,89.1116584 22.7994234,89.4512624 C22.2698463,89.6383911 22.0024532,90.217104 22.1899756,90.7403713 C22.339299,91.1492822 22.7247617,91.3970545 23.1397418,91.3970545 C23.2526025,91.3970545 23.3689358,91.3831931 23.4748512,91.3450743 C25.1069905,90.7559653 26.6245328,89.9017574 28.076095,88.7685891 C30.1596771,89.2242822 32.302294,89.4668564 34.48311,89.4668564 C41.9353886,89.4668564 48.9605328,86.7604208 54.8067169,81.6369059 C54.9456224,81.5104208 55.0532741,81.3371535 55.1071,81.1604208 C55.2234333,80.787896 55.1071,80.3755198 54.8136622,80.1208168 M41.7114035,86.5126485 C40.0480104,85.1940842 39.0496274,83.1356683 39.0496274,80.9455693 C39.0496274,79.7656188 39.3430652,78.6116584 39.8813239,77.5841832 C40.1365627,77.0903713 39.9525129,76.482203 39.4541896,76.222302 C38.9645478,75.9641337 38.3585726,76.1512624 38.0998612,76.6433416 C37.4053338,77.9584406 37.040707,79.4450743 37.040707,80.9455693 C37.040707,83.2188366 37.8810851,85.3898762 39.3430652,87.0324505 C37.7491249,87.3166089 36.1239308,87.4604208 34.48311,87.4604208 C32.9482045,87.4604208 31.4497617,87.3339356 29.973891,87.087896 C30.4461697,86.6096782 30.9201846,86.1106683 31.3837816,85.5631436 C31.7414632,85.1386386 31.69111,84.5062129 31.2657119,84.1458168 C30.8455229,83.7958168 30.2065577,83.8443317 29.8488761,84.267104 C29.1039955,85.1438366 28.3452244,85.9096782 27.5673537,86.5854208 C23.4470701,85.5388861 19.6045975,83.5740347 16.2344035,80.8017574 C21.4225229,76.5653713 27.7340403,74.2158663 34.3824035,74.2158663 C41.027294,74.2158663 47.3023488,76.5116584 52.6015925,80.8693317 C49.2921697,83.5653713 45.6146473,85.4678465 41.7114035,86.5126485" id="Fill-29" fill="#FEFEFE" mask="url(#mask-2)"></path>
                    <path d="M45.4097617,81.7841832 C46.1754781,81.7841832 46.8022891,81.137896 46.8022891,80.3391337 C46.8022891,79.5403713 46.1754781,78.8871535 45.4097617,78.8871535 C44.642309,78.8871535 44.020707,79.5403713 44.020707,80.3391337 C44.020707,81.137896 44.642309,81.7841832 45.4097617,81.7841832" id="Fill-30" fill="#FEFEFE" mask="url(#mask-2)"></path>
                    <path d="M168.180496,18.7919802 L168.017282,18.0417327 L164.714804,18.0417327 C164.964834,17.8390099 165.187083,17.6189604 165.397177,17.3763861 C167.604038,14.8449505 167.150859,11.4541089 167.135232,11.3085644 L166.770605,8.72688119 L165.385023,10.939505 C163.712948,13.6130198 160.469505,13.4588119 160.334073,13.4501485 L153.73259,13.4449505 C152.057043,13.0204455 150.05854,13.0897525 147.879461,13.1763861 C146.966157,13.2058416 146.025073,13.2491584 145.068361,13.2491584 C144.102968,13.2491584 143.165356,13.2058416 142.260734,13.1763861 C140.116381,13.0897525 138.156078,13.0204455 136.506575,13.4449505 L130.06657,13.4449505 L130.005799,13.4501485 C129.873839,13.4588119 126.630396,13.6130198 124.94964,10.939505 L123.564058,8.72688119 L123.206376,11.3085644 C123.183804,11.4541089 122.742779,14.8449505 124.946167,17.3763861 C125.149316,17.6189604 125.375038,17.8390099 125.61465,18.0417327 L122.32259,18.0417327 L122.159376,18.7919802 C122.140277,18.8786139 121.749605,20.8036139 123.239366,22.6541089 C124.802053,24.5843069 127.778102,25.6343069 132.082436,25.8006436 C131.969575,27.3531188 131.349709,37.9674752 135.487356,41.0100495 C135.43353,41.4484158 135.407486,41.914505 135.407486,42.4360396 C135.407486,48.2093069 138.690864,51.1357921 145.165595,51.1392574 L145.169068,51.1392574 L145.174277,51.1392574 C151.645535,51.1357921 154.932386,48.2093069 154.932386,42.4360396 C154.932386,41.914505 154.902869,41.4414851 154.855988,41.0100495 C158.983217,37.9657426 158.365088,27.3531188 158.253963,25.8006436 C162.563505,25.6343069 165.537819,24.5843069 167.105714,22.6541089 C168.595476,20.8036139 168.196122,18.8786139 168.180496,18.7919802 L168.180496,18.7919802 Z M124.743018,21.4932178 C124.277685,20.935297 124.093635,20.3704455 124.032864,19.9424752 L131.14656,19.9424752 C131.354918,19.9511386 131.565013,19.9511386 131.776844,19.9511386 L131.983466,19.9511386 C131.941794,20.4293564 131.919222,20.935297 131.919222,21.4776238 C131.919222,22.319703 132.070282,23.1444554 132.337675,23.9120297 C127.635724,23.7699505 125.611177,22.5328218 124.743018,21.4932178 L124.743018,21.4932178 Z M132.261277,18.0417327 L131.170869,18.0417327 C129.017834,17.944703 127.40653,17.3105446 126.387311,16.1409901 C125.795227,15.4669802 125.467063,14.6924752 125.27954,13.9751485 C127.37354,15.425396 129.748824,15.3630198 130.09956,15.3456931 L133.469754,15.3456931 C132.919341,16.0560891 132.519988,16.9449505 132.261277,18.0417327 L132.261277,18.0417327 Z M136.03256,38.9152475 C134.129555,36.5865347 133.70763,30.645198 133.943769,26.524901 C134.657396,27.2890099 135.544655,27.924901 136.567346,28.3857921 C136.449277,28.5867822 136.372879,28.8293564 136.372879,29.0857921 C136.372879,29.865495 136.985799,30.4875248 137.746306,30.4875248 C138.19254,30.4875248 138.581476,30.2709406 138.834978,29.9365347 C138.364436,31.9048515 137.541421,35.2333168 136.621172,38.0246535 C136.391978,38.2741584 136.195774,38.5791089 136.03256,38.9152475 L136.03256,38.9152475 Z M145.169068,49.2419802 C141.505436,49.2419802 139.216968,48.2786139 138.107461,46.220198 C139.618058,46.6187129 142.021122,47.0882673 144.983282,47.0882673 L145.203794,47.0882673 L145.354854,47.0882673 C148.31354,47.0882673 150.720078,46.6187129 152.232411,46.220198 C151.126376,48.2786139 148.8327,49.2419802 145.169068,49.2419802 L145.169068,49.2419802 Z M152.93562,43.8758911 C152.084824,44.1635149 149.216426,45.0471782 145.354854,45.0471782 L145.214212,45.0471782 C141.218943,45.0662376 138.263729,44.1635149 137.404252,43.8706931 C137.343481,43.420198 137.310491,42.9437129 137.310491,42.4360396 C137.310491,42.184802 137.319172,41.9508911 137.32959,41.7308416 L140.255287,42.1380198 C140.307376,42.1449505 140.347311,42.1449505 140.392456,42.1449505 C140.859525,42.1449505 141.265824,41.8070792 141.33354,41.3357921 C141.408202,40.8211881 141.043575,40.339505 140.524416,40.2615347 L137.695953,39.8578218 C137.817496,39.5719307 137.96161,39.3345545 138.142187,39.1768812 C138.874913,38.504604 140.392456,38.6570792 142.153083,38.8234158 C143.061177,38.9065842 144.094287,39.0036139 145.165595,39.0036139 L145.169068,39.0036139 L145.174277,39.0036139 C146.23864,39.0036139 147.270013,38.9065842 148.183316,38.8234158 C149.943943,38.6570792 151.463222,38.504604 152.194212,39.1768812 C152.378262,39.3345545 152.525849,39.5719307 152.645655,39.8578218 L149.815456,40.2615347 C149.292824,40.339505 148.933406,40.8211881 149.006331,41.3357921 C149.072311,41.8070792 149.47861,42.1449505 149.943943,42.1449505 C149.990824,42.1449505 150.032496,42.1449505 150.081112,42.1380198 L153.006809,41.7308416 C153.015491,41.9508911 153.029381,42.184802 153.029381,42.4360396 C153.029381,42.9437129 152.996391,43.420198 152.93562,43.8758911 L152.93562,43.8758911 Z M154.307311,38.9152475 C154.142361,38.5791089 153.947894,38.2741584 153.711754,38.0246535 C152.801923,35.2333168 151.966754,31.9048515 151.499685,29.9417327 C151.751451,30.2709406 152.142122,30.4875248 152.588356,30.4875248 C153.3506,30.4875248 153.966993,29.865495 153.966993,29.0857921 C153.966993,28.8293564 153.895804,28.5954455 153.774262,28.3857921 C154.791744,27.9335644 155.672058,27.2890099 156.397839,26.524901 C156.625297,30.645198 156.210316,36.5882673 154.307311,38.9152475 L154.307311,38.9152475 Z M152.564048,26.8298515 C151.768814,27.1209406 150.909336,27.3444554 150.009923,27.5073267 C149.758157,27.5558416 149.532436,27.7048515 149.395267,27.9162376 C149.24768,28.1293564 149.197326,28.3927228 149.254625,28.6456931 C149.266779,28.6890099 150.185292,32.8976733 151.353834,36.839505 C150.364132,36.7078218 149.233789,36.8169802 148.006212,36.9365347 C147.089436,37.0214356 146.15356,37.1028713 145.169068,37.1028713 C144.186311,37.1028713 143.246963,37.0214356 142.33366,36.9365347 C141.106083,36.8169802 139.977476,36.7078218 138.987774,36.839505 C140.152844,32.8976733 141.073093,28.6890099 141.086983,28.6456931 C141.139073,28.3927228 141.090456,28.1293564 140.944605,27.9162376 C140.798754,27.7048515 140.578242,27.5558416 140.324739,27.5073267 C139.427063,27.3444554 138.567585,27.1209406 137.775824,26.8298515 C135.376232,25.9548515 133.822227,23.8479208 133.822227,21.4776238 C133.822227,18.8526238 134.292769,17.1182178 135.275525,16.1721782 C135.68356,15.7805941 136.185356,15.5189604 136.773968,15.3456931 L136.930237,15.3456931 L136.930237,15.2971782 C138.293247,14.9298515 140.090336,14.9922277 142.187809,15.0736634 C143.108058,15.1065842 144.068242,15.1412376 145.068361,15.1412376 C146.059799,15.1412376 147.023456,15.1065842 147.948913,15.0736634 C150.056804,14.9922277 151.966754,14.9263861 153.411371,15.3283663 L153.411371,15.3456931 L153.442625,15.3456931 C154.076381,15.5224257 154.61464,15.7961881 155.050456,16.2120297 C156.041894,17.1684653 156.522854,18.8907426 156.522854,21.4776238 C156.522854,23.8479208 154.965376,25.9548515 152.564048,26.8298515 L152.564048,26.8298515 Z M160.243784,15.3456931 C160.585839,15.3630198 162.964595,15.425396 165.062068,13.9751485 C164.874545,14.6924752 164.535963,15.4669802 163.950824,16.1409901 C162.926396,17.3105446 161.323774,17.944703 159.179421,18.0417327 L158.066441,18.0417327 C157.800784,16.9449505 157.389277,16.0560891 156.812819,15.3456931 L160.243784,15.3456931 Z M165.624635,21.4533663 C164.763421,22.515495 162.742346,23.7699505 158.003933,23.9120297 C158.273063,23.1444554 158.418913,22.319703 158.418913,21.4776238 C158.418913,20.935297 158.391132,20.4293564 158.349461,19.9511386 L158.575182,19.9580693 C158.792222,19.9580693 159.002316,19.9511386 159.210675,19.9424752 L166.312217,19.9424752 C166.247973,20.3583168 166.067396,20.9162376 165.624635,21.4533663 L165.624635,21.4533663 Z" id="Fill-31" fill="#FEFEFE" mask="url(#mask-2)"></path>
                    <path d="M52.0886841,42.8175743 C51.357694,38.295297 45.8813458,30.1777228 45.1451468,29.0982673 L43.5477338,24.7215347 C43.5199527,24.640099 43.4817537,24.5673267 43.4244552,24.4893564 L36.8854801,15.2022277 L37.6772413,6.43490099 C37.7119677,6.05717822 37.5313905,5.69851485 37.2171169,5.49579208 C36.9028433,5.3 36.4965448,5.29133663 36.1735896,5.48019802 C35.9617587,5.60148515 32.3068085,7.75693069 29.136291,11.3054455 C26.7870522,10.995297 17.9804453,10.4997525 6.35752985,18.0507426 C5.88872388,18.3556931 5.76197264,18.9829208 6.06756468,19.4420792 C6.26029602,19.740099 6.57977861,19.8960396 6.90099751,19.8960396 C7.10067413,19.8960396 7.28993284,19.8509901 7.45835572,19.7383663 C16.8692015,13.6220297 24.3683607,13.0762376 27.6048582,13.2009901 C27.0509726,13.975495 26.5266045,14.7881188 26.0925249,15.6388614 C25.8320771,16.1378713 26.0248085,16.7460396 26.5196592,17.0024752 C27.01451,17.2623762 27.6187488,17.0561881 27.8687786,16.5658416 C29.8186642,12.8111386 33.3815896,9.86559406 35.4842711,8.34257426 L34.845306,15.4257426 C34.8175249,15.7289604 34.9355945,16.0079208 35.1387438,16.2141089 L41.6985547,25.5358911 L43.2942313,29.9039604 C43.3254851,29.980198 43.3671567,30.059901 43.4140373,30.1222772 C43.4678632,30.2002475 47.7826144,36.4690594 49.4842065,40.9792079 C49.1629876,40.8960396 48.8730224,40.8700495 48.65251,40.8787129 C47.5048035,40.915099 46.3987687,41.6982673 45.9160721,42.8331683 C45.5045647,43.7809406 45.6399975,44.7668317 46.2702811,45.470297 C46.4647488,45.6955446 46.7425597,45.8081683 47.0273159,45.8081683 C47.2582463,45.8081683 47.4978582,45.7284653 47.6836443,45.555198 C48.1038333,45.1809406 48.140296,44.5537129 47.7721965,44.1361386 C47.6454453,43.9905941 47.6957985,43.7809406 47.7635149,43.625 C47.9354104,43.2178218 48.3451816,42.9336634 48.7167537,42.8816832 C49.0848532,42.8331683 50.0224652,42.9509901 50.0137836,44.1205446 C49.9981567,45.2918317 49.0362363,47.9861386 46.247709,48.1957921 C46.2320821,48.1957921 46.2199279,48.1975248 46.204301,48.1975248 C45.9004453,47.6361386 45.190291,46.875495 43.9696592,45.6591584 C43.5772512,45.2675743 42.9330771,45.2675743 42.5441418,45.6591584 C42.1534701,46.0490099 42.1534701,46.6814356 42.5441418,47.0730198 C43.0546194,47.5824257 43.6258682,48.1819307 44.0061219,48.6133663 C43.0893458,49.0829208 41.7853706,48.6826733 40.8460224,47.9358911 C39.4448134,46.8217822 38.5783905,44.8361386 40.3581169,42.575 C40.7053806,42.1435644 40.6289826,41.5128713 40.1879577,41.1680693 C39.7521418,40.8215347 39.1201219,40.9029703 38.7780672,41.3378713 C38.3978134,41.8195545 38.1130572,42.309901 37.8890721,42.7846535 L31.3066891,37.6368812 C31.039296,37.4272277 30.6850871,37.3648515 30.3551866,37.4757426 C30.3221965,37.4844059 27.1759876,38.5309406 24.5263657,36.1987624 C24.1322214,35.8470297 23.8057935,35.4415842 23.5314552,35.0118812 C23.4880473,34.8507426 23.4012313,34.7138614 23.2866343,34.5891089 C21.9791866,32.0559406 22.5191816,28.4554455 24.8527935,25.7195545 C25.2139478,25.2967822 25.1618582,24.6608911 24.7381965,24.2987624 C24.3162711,23.9435644 23.6807786,23.9955446 23.3248333,24.4183168 C20.5380423,27.6861386 19.8903955,31.995297 21.3714751,35.214604 L8.56265423,52.3542079 C8.22407214,52.799505 8.31956965,53.4267327 8.76580348,53.7524752 C8.94811692,53.8893564 9.15821144,53.9586634 9.36483333,53.9586634 C9.67216169,53.9586634 9.97428109,53.8165842 10.1739577,53.5532178 L22.5278632,37.0217822 C22.7362214,37.2591584 22.9549975,37.489604 23.1980821,37.6992574 C26.0022363,40.1683168 29.1883806,39.8044554 30.461102,39.520297 L37.364704,44.9262376 C37.3074055,46.7923267 38.2658532,48.450495 39.5958731,49.5160891 C40.6984353,50.3841584 41.9364303,50.8207921 43.0893458,50.8207921 C44.0391119,50.8207921 44.928107,50.5123762 45.6313159,49.9232673 C45.811893,50.094802 46.0567139,50.1987624 46.3223706,50.1987624 L46.3987687,50.1987624 C48.9008035,50.1883663 52.6408333,46.2985149 52.0886841,42.8175743" id="Fill-32" fill="#FEFEFE" mask="url(#mask-2)"></path>
                    <path d="M164.208494,96.9010644 C164.208494,96.372599 163.781359,95.9532921 163.255255,95.9532921 C162.725678,95.9532921 162.305489,96.372599 162.305489,96.9010644 C162.305489,97.4243317 162.725678,97.8540347 163.255255,97.8540347 C163.781359,97.8540347 164.208494,97.4243317 164.208494,96.9010644" id="Fill-33" fill="#FEFEFE" mask="url(#mask-2)"></path>
                    <path d="M156.04745,72.724901 C156.04745,72.199901 155.620315,71.770198 155.095947,71.770198 C154.56637,71.770198 154.142708,72.199901 154.142708,72.724901 C154.142708,73.2533663 154.56637,73.6813366 155.095947,73.6813366 C155.620315,73.6813366 156.04745,73.2533663 156.04745,72.724901" id="Fill-34" fill="#FEFEFE" mask="url(#mask-2)"></path>
                    <path d="M127.208243,94.4678713 L120.874153,94.4678713 C120.322004,94.4678713 119.868825,94.9114356 119.868825,95.4658911 C119.868825,96.0220792 120.322004,96.4673762 120.874153,96.4673762 L126.197705,96.4673762 L126.197705,111.458465 C126.197705,112.007723 126.650885,112.458218 127.208243,112.458218 C127.760392,112.458218 128.206626,112.007723 128.206626,111.458465 L128.206626,95.4658911 C128.206626,94.9114356 127.760392,94.4678713 127.208243,94.4678713" id="Fill-35" fill="#FEFEFE" mask="url(#mask-2)"></path>
                    <path d="M171.27583,96.7537871 C171.074417,96.6550248 170.855641,96.642896 170.647283,96.6792822 C170.605611,96.6723515 170.570885,96.6584901 170.527477,96.6584901 C168.004606,96.5146782 166.38983,94.107995 166.37594,94.082005 C166.296069,93.9572525 166.181472,93.8463614 166.052985,93.7666584 L163.085616,91.9941337 L165.181353,89.6394307 C165.407074,89.3847277 165.486945,89.032995 165.400129,88.7124505 C165.315049,88.3867079 165.066756,88.1268069 164.7438,88.0176485 C161.906656,87.0698762 159.283079,87.8235891 157.723865,88.5131931 L156.261885,87.6260644 C153.190338,85.7443812 149.18986,84.8797772 147.384089,84.5609653 L151.691895,78.5035396 C152.518383,78.882995 153.393487,78.9124505 153.570592,78.9211139 L156.822716,78.9384406 C157.336666,79.4946287 158.04682,79.822104 158.855945,79.8446287 C158.892407,79.8446287 158.935815,79.8480941 158.968805,79.8480941 C160.319661,79.8480941 161.715661,79.0510644 162.554303,77.8018069 C164.016283,75.6359653 162.920666,73.6936386 161.804213,72.8931436 L152.804875,65.582995 C152.785776,65.5587376 152.766676,65.5587376 152.74584,65.5344802 C150.096218,63.4327475 146.38397,63.4067574 143.697885,65.4825 C142.232432,66.6139356 141.43199,68.2946287 141.3608,70.0099752 L138.476776,72.1619554 C132.333681,70.5661634 126.631611,72.317896 125.437024,72.7233416 L119.547432,72.2676485 C118.998756,72.2208663 118.51085,72.6401733 118.46397,73.1859653 C118.418825,73.7438861 118.835542,74.2186386 119.389427,74.2654208 L125.496059,74.7436386 C125.522104,74.7436386 125.546412,74.752302 125.570721,74.752302 C125.694,74.752302 125.812069,74.7176485 125.931875,74.6812624 C125.985701,74.657005 132.097542,72.4062624 138.409059,74.2186386 C138.714651,74.312203 139.037606,74.2619554 139.292845,74.0644307 L141.69591,72.2676485 C141.906004,72.8654208 142.20986,73.4406683 142.617895,73.9656683 C143.442646,75.032995 144.635497,75.7087376 145.975935,75.8785396 C146.189502,75.9045297 146.411751,75.9183911 146.618373,75.9183911 C147.731353,75.9183911 148.814815,75.5597277 149.70381,74.8614604 C150.598014,74.1701238 151.171,73.172104 151.31685,72.047599 C151.457492,70.9334901 151.153636,69.8159158 150.4539,68.9305198 C150.120527,68.4869554 149.481562,68.4072525 149.047482,68.7520545 C148.608194,69.0899257 148.52485,69.7171535 148.868641,70.1572525 C149.233268,70.6268069 149.393009,71.2089851 149.318348,71.792896 C149.240213,72.3906683 148.941567,72.912203 148.474497,73.2812624 C147.830323,73.7750743 147.02988,73.9916584 146.225965,73.887698 C145.422049,73.787203 144.70495,73.3782921 144.206626,72.7389356 C142.843616,70.9768069 143.166572,68.4384406 144.928935,67.067896 C146.882293,65.5587376 149.596159,65.582995 151.521736,67.132005 C151.53389,67.142401 151.547781,67.147599 151.559935,67.1562624 L160.564482,74.4733416 C160.5749,74.4785396 160.595736,74.4958663 160.613099,74.507995 C160.963835,74.767896 161.689616,75.4921535 160.887437,76.692896 C160.415159,77.3859653 159.602562,77.8572525 158.925398,77.8347277 C158.479164,77.8260644 158.291641,77.6008168 158.192671,77.4362129 C158.017303,77.1295297 157.692611,76.9354703 157.333194,76.9354703 L153.596636,76.9094802 C153.153875,76.9025495 152.25099,76.6980941 152.164174,76.3636881 C152.027004,75.8213614 151.483537,75.4886881 150.941805,75.6307673 C150.40181,75.7589851 150.084064,76.3065099 150.210815,76.8453713 C150.233388,76.9094802 150.257696,76.9735891 150.273323,77.0342327 L141.810507,88.9446287 C141.7289,89.0503218 141.673338,89.1750743 141.649029,89.3084901 C141.595203,89.5216089 140.457915,94.5688861 136.440074,94.5688861 L133.184477,94.5688861 L133.184477,90.2718564 C133.184477,89.7243317 132.734771,89.272104 132.186094,89.272104 C131.625263,89.272104 131.179029,89.7243317 131.179029,90.2718564 L131.179029,111.45552 C131.179029,112.013441 131.625263,112.458738 132.186094,112.458738 C132.734771,112.458738 133.184477,112.013441 133.184477,111.45552 L133.184477,106.4325 C135.089218,106.453292 137.028686,106.460223 138.817094,106.460223 C141.595203,106.460223 143.979169,106.442896 145.175492,106.4325 L145.175492,111.45552 C145.175492,112.013441 145.61999,112.458738 146.179084,112.458738 C146.729497,112.458738 147.186149,112.013441 147.186149,111.45552 L147.186149,104.478045 C147.186149,103.920124 146.729497,103.476559 146.179084,103.476559 C145.637353,103.476559 145.210218,103.899332 145.177228,104.422599 C143.229079,104.439926 138.053114,104.471114 133.184477,104.422599 L133.184477,96.5718564 L136.440074,96.5718564 C140.826014,96.5718564 142.979049,92.3510644 143.560716,89.9374505 L146.085323,86.392401 C146.116577,86.392401 146.153039,86.4010644 146.184293,86.407995 C146.23291,86.4166584 151.580771,87.1149257 155.213149,89.3518069 L155.878159,89.7485891 C155.767034,90.0431436 155.78787,90.4000743 155.98581,90.6790347 C156.303557,91.1399257 156.925159,91.2560149 157.380074,90.9441337 C157.406119,90.9250743 159.71195,89.382995 162.521313,89.5961139 L160.77284,91.5575 C160.580109,91.7827475 160.495029,92.0790347 160.534965,92.3787871 C160.580109,92.6733416 160.753741,92.9315099 161.00898,93.0857178 L164.839298,95.3797772 C165.302895,96.022599 166.898572,97.9441337 169.369353,98.5089851 C169.129741,99.0963614 168.923119,99.6525495 168.732124,100.160223 C168.296308,101.328045 167.891746,102.426559 167.454194,102.592896 C167.278825,102.662203 166.794393,102.688193 165.617169,102.074827 C165.125791,101.816658 164.514606,102.008985 164.259368,102.501064 C164.167343,102.670866 164.134353,102.866658 164.153452,103.046856 C162.745298,103.734728 158.840318,105.197104 151.551253,104.770866 L151.551253,104.744876 C153.417796,103.634233 153.688661,100.763193 153.707761,100.402797 C153.749432,99.8535396 153.329243,99.3683911 152.780567,99.3302723 C152.224945,99.2921535 151.740512,99.7062624 151.704049,100.264183 C151.660641,100.796114 151.308169,102.845866 150.264641,103.13349 C149.832298,103.254777 149.533651,103.648094 149.533651,104.10552 L149.584004,111.460718 C149.59095,112.018639 150.03892,112.458738 150.591069,112.458738 L150.596278,112.458738 C151.153636,112.458738 151.601606,112.003045 151.601606,111.443391 L151.572089,106.787698 C152.441985,106.83448 153.284099,106.85354 154.07586,106.85354 C161.939646,106.85354 165.474791,104.644381 165.884562,104.372351 C166.386358,104.540421 166.825646,104.644381 167.233681,104.644381 C167.572263,104.644381 167.881328,104.587203 168.174766,104.471114 C169.468323,103.975569 169.971855,102.601559 170.619502,100.863688 C170.921621,100.038936 171.272358,99.0963614 171.751582,98.0948762 C171.99293,97.5958663 171.782835,96.9963614 171.27583,96.7537871" id="Fill-36" fill="#FEFEFE" mask="url(#mask-2)"></path>
                    <path d="M109.81884,34.8954455 C109.81884,33.3516337 109.341353,31.8719307 108.429786,30.6053465 C108.240527,30.3575743 107.943616,30.210297 107.62587,30.210297 L97.3260294,30.210297 C97.013492,30.210297 96.7200542,30.3575743 96.5273229,30.6053465 C95.617492,31.8719307 95.1382682,33.3516337 95.1382682,34.8954455 C95.1382682,38.6016337 97.9111687,41.659802 101.491457,42.1449505 L101.491457,49.184802 L98.610905,49.184802 C98.0691736,49.184802 97.6298851,49.624901 97.6298851,50.1706931 C97.6298851,50.7112871 98.0691736,51.1531188 98.610905,51.1531188 L106.370512,51.1531188 C106.91398,51.1531188 107.360213,50.7112871 107.360213,50.1706931 C107.360213,49.624901 106.91398,49.184802 106.370512,49.184802 L103.458706,49.184802 L103.458706,42.1449505 C107.054621,41.659802 109.81884,38.6016337 109.81884,34.8954455 M97.1124622,34.8954455 C97.1124622,33.9303465 97.3642284,33.0016337 97.8608154,32.1716832 L107.094557,32.1716832 C107.587671,33.0016337 107.844646,33.9303465 107.844646,34.8954455 C107.844646,37.8513861 105.441582,40.254604 102.477686,40.254604 C99.5189995,40.254604 97.1124622,37.8513861 97.1124622,34.8954455" id="Fill-37" fill="#FEFEFE" mask="url(#mask-2)"></path>
                    <path d="M75.6901129,41.7921782 C74.7108294,41.7921782 73.9173318,42.5788119 73.9173318,43.5612376 C73.9173318,44.5384653 74.7108294,45.330297 75.6901129,45.330297 C76.6659239,45.330297 77.4594214,44.5384653 77.4594214,43.5612376 C77.4594214,42.5788119 76.6659239,41.7921782 75.6901129,41.7921782" id="Fill-38" fill="#FEFEFE" mask="url(#mask-2)"></path>
                    <path d="M79.9376687,45.0934406 C79.1736886,45.0934406 78.543405,45.722401 78.543405,46.4882426 C78.543405,47.2540842 79.1736886,47.8761139 79.9376687,47.8761139 C80.7068577,47.8761139 81.3267234,47.2540842 81.3267234,46.4882426 C81.3267234,45.722401 80.7068577,45.0934406 79.9376687,45.0934406" id="Fill-39" fill="#FEFEFE" mask="url(#mask-2)"></path>
                    <path d="M95.1007637,50.6636386 L90.4665299,47.6799752 C90.4665299,47.6799752 90.4717388,47.6678465 90.4717388,47.6591832 L90.4717388,30.7015099 C90.4717388,26.6054703 89.3795945,24.6544802 88.5878333,23.2319554 L88.5305348,23.1210644 C87.6484851,21.5460644 87.0129925,20.1616584 86.917495,19.6089356 C86.8376244,19.1792327 86.7733806,16.4918564 86.7455995,12.9468069 C87.0511915,12.777005 87.2508682,12.4581931 87.2508682,12.0839356 L87.2508682,8.85769802 C87.2508682,8.31017327 86.8063706,7.8735396 86.2646393,7.8735396 L80.1024453,7.8735396 C79.5537687,7.8735396 79.1144801,8.31017327 79.1144801,8.85769802 L79.1144801,12.0839356 C79.1144801,12.4963119 79.3662463,12.8393812 79.7152463,12.9935891 C79.7360821,17.082698 79.6874652,19.257203 79.6249577,19.6089356 C79.5832861,19.867104 79.3367289,20.7265099 77.9945547,23.122797 L77.9337836,23.2319554 C77.3121816,24.3443317 76.5256294,25.7651238 76.1974652,28.2601733 L69.3407438,28.2601733 C68.8979826,28.2601733 68.5142562,28.5512624 68.3840323,28.9688366 L63.7654254,44.5022525 C63.6716642,44.7985396 63.7324353,45.1208168 63.9112761,45.3633911 C64.0987985,45.6163614 64.395709,45.767104 64.7082463,45.767104 L69.4310323,45.767104 C69.0542512,47.8012624 69.1028682,49.8666089 69.6515448,51.7673515 C69.7678781,52.1831931 70.1568134,52.4794802 70.5978383,52.4794802 L94.5659776,52.4794802 C95.0070025,52.4794802 95.3907289,52.1901238 95.5122711,51.7708168 C95.6355498,51.3515099 95.4740721,50.9044802 95.1007637,50.6636386 L95.1007637,50.6636386 Z M78.0205995,30.7015099 C78.0205995,27.1183416 78.9234851,25.4896287 79.6579478,24.1849257 L79.7152463,24.082698 C80.82649,22.0935891 81.4324652,20.7438366 81.5713706,19.9416089 C81.7033308,19.1792327 81.7050672,15.242599 81.682495,12.0804703 C81.6790224,11.6802228 81.4411468,11.3319554 81.0886741,11.1812129 L81.0886741,9.84185644 L85.2784104,9.84185644 L85.2784104,11.227995 C85.1933308,11.2695792 85.1169328,11.3215594 85.0526891,11.3908663 C84.8686393,11.5814604 84.7627239,11.832698 84.7696692,12.0891337 C84.7748781,14.1700743 84.8200224,19.092599 84.9676095,19.9416089 C85.1638134,21.0383911 86.2038682,23.0101733 86.8063706,24.082698 L86.8671418,24.1745297 C87.5911866,25.4896287 88.4975448,27.1183416 88.4975448,30.7015099 L88.4975448,46.402995 L78.0205995,39.6403713 L78.0205995,30.7015099 Z M69.9085199,43.8438366 C69.8182313,43.8143812 69.7296791,43.7953218 69.630709,43.7953218 L66.0226393,43.7953218 L70.0699975,30.2302228 L76.0568234,30.2302228 C76.0481418,30.387896 76.0481418,38.3737871 76.0481418,38.3737871 L74.8188284,37.5802228 C74.4246841,37.3272525 73.8985796,37.3809653 73.5738881,37.7240347 C71.8809776,39.4497772 70.6377736,41.587896 69.9085199,43.8438366 L69.9085199,43.8438366 Z M75.7390771,50.5094307 C76.0481418,50.1888861 76.2426095,49.7574505 76.2426095,49.2775 C76.2426095,48.3037376 75.4508483,47.5032426 74.4698284,47.5032426 C73.4905448,47.5032426 72.7022562,48.3037376 72.7022562,49.2775 C72.7022562,49.7574505 72.8949876,50.1888861 73.2075249,50.5094307 L71.3705,50.5094307 C70.6447189,46.9487871 71.8514602,42.702005 74.4437836,39.6888861 L85.7142264,46.9522525 C85.1065149,47.1047277 84.6550721,47.6453218 84.6550721,48.3037376 C84.6550721,49.0678465 85.2732015,49.6864109 86.0441269,49.6864109 C86.8150522,49.6864109 87.4349179,49.0678465 87.4349179,48.3037376 C87.4349179,48.2119059 87.4210274,48.1304703 87.4106095,48.0507673 L91.2183557,50.5094307 L75.7390771,50.5094307 Z" id="Fill-40" fill="#FEFEFE" mask="url(#mask-2)"></path>
                    <path d="M37.9795343,27.1034406 L36.2223801,27.1034406 C35.8577532,27.1034406 35.6684945,27.3737376 35.6823851,27.6942822 C35.7188478,28.5259653 37.4152308,29.6989851 38.2504,29.6660644 C39.0820965,29.6314109 39.6915443,28.9244802 39.6915443,28.0841337 C39.6915443,26.9925495 38.8181761,27.1034406 37.9795343,27.1034406" id="Fill-41" fill="#FEFEFE" mask="url(#mask-2)"></path>
                    <path d="M212.258154,38.9816089 C210.454119,38.127401 207.799288,37.0046287 205.18092,35.7605693 C202.840363,34.7954703 201.652721,33.4751733 201.798572,31.3162624 C201.927059,29.2578465 203.654696,28.0172525 208.209059,28.0172525 C212.596736,28.0172525 215.777671,29.3583416 217.543507,30.6439851 L217.543507,25.7370545 C215.777671,24.9746782 212.414422,23.9298762 207.799288,23.9298762 C200.260194,23.9298762 195.674577,27.5806188 195.674577,32.9363119 C195.674577,35.2771535 196.688587,37.4828465 200.246303,39.5048762 C201.80899,40.4405198 205.665353,41.9340842 208.662238,43.0291337 C212.247736,44.3355693 213.180139,45.662797 213.180139,47.6449752 C213.180139,50.9301238 210.103383,51.7618069 206.085542,51.7618069 C202.206606,51.7618069 198.022079,50.6615594 194.870661,48.4731931 L194.870661,53.8479455 C197.499447,54.9776485 201.786417,55.9912624 206.245283,55.9912624 C215.93394,55.9912624 219.443039,51.2749257 219.443039,47.057599 C219.443039,43.9058663 217.765756,41.357104 212.258154,38.9816089" id="Fill-42" fill="#FEFEFE" mask="url(#mask-2)"></path>
                    <path d="M280.988582,55.9919554 C270.10881,55.9919554 266.318427,48.3664604 266.318427,40.1431931 C266.318427,28.9986386 272.709815,23.932302 281.426134,23.932302 C292.040248,23.932302 296.327218,31.4365099 296.327218,39.9075495 C296.327218,46.587005 293.818238,55.9919554 280.988582,55.9919554 M281.294174,28.3125 C275.890751,28.3125 272.157666,31.9909653 272.157666,40.0756188 C272.157666,47.3545792 274.918412,51.6186881 281.354945,51.6186881 C286.371169,51.6186881 290.489716,48.8030941 290.489716,40.1431931 C290.489716,33.3147277 288.090124,28.3125 281.294174,28.3125" id="Fill-43" fill="#FEFEFE" mask="url(#mask-2)"></path>
                    <path d="M255.218491,14.1912129 L260.835481,14.1912129 L260.835481,47.9991337 C260.894516,51.1127475 261.98666,51.1127475 264.740461,51.1127475 L264.740461,55.8758663 C264.052879,55.9399752 262.985043,55.9884901 262.234954,55.9884901 C255.395596,55.9884901 255.169874,51.4696782 255.218491,48.1169554 L255.218491,14.1912129 Z" id="Fill-44" fill="#FEFEFE" mask="url(#mask-2)"></path>
                    <path d="M313.358071,23.9629703 C317.726648,23.9629703 321.968474,24.6906931 323.986076,27.024604 C326.307534,29.7466337 326.307534,33.1340099 326.307534,38.3597525 L326.307534,55.3347525 L320.697489,55.3347525 L320.697489,40.2535644 C320.697489,34.1510891 320.697489,32.6575248 319.723414,31.1137129 C318.594807,29.3463861 316.099718,28.5164356 313.408424,28.5164356 C310.553917,28.5164356 308.209887,28.8387129 306.275628,29.3602475 L306.275628,55.3347525 L300.670793,55.3347525 L300.670793,25.6159406 C302.624151,25.0372277 308.088345,23.9629703 313.358071,23.9629703" id="Fill-45" fill="#FEFEFE" mask="url(#mask-2)"></path>
                    <path d="M249.290526,53.4421535 C246.66174,54.6706188 241.043014,55.9995792 235.867049,55.9926485 C226.605526,55.9909158 222.933213,51.8013119 222.933213,46.3867079 C222.933213,41.2268069 225.225153,36.9367079 235.563193,35.8208663 C238.30484,35.5263119 240.485656,35.3010644 243.626656,35.1537871 L243.626656,34.3532921 C243.626656,33.287698 243.409616,32.1874505 242.979009,31.4285396 C241.9268,29.5503218 240.29987,28.5176485 235.761133,28.5176485 C232.930934,28.5176485 229.503442,29.2315099 226.074213,30.6280446 L225.78772,30.6280446 L225.78772,25.3364604 C229.407944,24.3869554 232.781611,23.9347277 235.790651,23.9347277 C243.03978,23.9347277 246.644377,26.0052723 248.34076,29.6040347 C248.971044,30.9485891 249.290526,32.6171535 249.290526,34.602797 L249.290526,53.4421535 Z M236.514696,52.0733416 C239.228561,52.0629455 242.079596,51.557005 243.626656,50.7894307 L243.626656,39.3555198 C241.975417,39.4508168 240.801666,39.5807673 238.573969,39.7748267 C236.766462,39.9325 235.030143,40.2235891 233.717487,40.5735891 C230.024337,41.582005 228.821069,43.6490842 228.821069,46.0332426 C228.821069,49.9646782 231.366511,52.0854703 236.514696,52.0733416 L236.514696,52.0733416 Z" id="Fill-46" fill="#FEFEFE" mask="url(#mask-2)"></path>
                    <path d="M195.339294,86.2731931 L201.267085,86.2731931 L201.267085,105.729381 C201.334801,109.381856 202.610995,109.381856 205.847493,109.381856 L205.847493,114.313045 C205.045313,114.384084 204.441075,114.444728 203.576388,114.444728 C195.542443,114.444728 195.271577,109.13755 195.339294,105.199183 L195.339294,86.2731931 Z" id="Fill-47" fill="#FEFEFE" mask="url(#mask-2)"></path>
                    <path d="M195.417254,76.8720545 L199.051369,76.8720545 C201.454433,76.8720545 203.362647,77.8094307 203.362647,80.3651238 C203.362647,82.777005 201.612438,83.9430941 199.117349,83.9430941 L195.417254,83.9430941 L195.417254,76.8720545 Z M198.391568,82.7614109 C200.916175,82.7614109 201.891986,82.0423515 201.891986,80.3841832 C201.891986,78.6480446 200.867558,78.062401 198.391568,78.062401 L196.896598,78.062401 L196.896598,82.7614109 L198.391568,82.7614109 Z" id="Fill-48" fill="#FEFEFE" mask="url(#mask-2)"></path>
                    <polygon id="Fill-49" fill="#FEFEFE" mask="url(#mask-2)" points="204.668532 76.8720545 211.454065 76.8720545 211.454065 78.0606683 206.144403 78.0606683 206.144403 79.7015099 210.714393 79.7015099 210.714393 80.8849257 206.144403 80.8849257 206.144403 82.7614109 211.584289 82.7614109 211.584289 83.9430941 204.668532 83.9430941"></polygon>
                    <path d="M211.595227,86.2731931 L211.595227,91.422698 C211.628217,92.1573515 211.473685,92.8556188 211.148994,93.5019059 C210.817357,94.1620545 210.358969,94.732104 209.765148,95.2137871 C209.171327,95.7093317 208.462909,96.1269059 207.639894,96.4526485 C206.823824,96.7731931 205.922675,96.9863119 204.955546,97.0677475 L204.955546,94.8481931 C206.143188,94.557104 206.954048,94.1291337 207.388128,93.5590842 C207.822207,92.9786386 208.035775,92.282104 208.035775,91.4556188 L204.955546,91.4556188 L204.955546,86.2731931 L211.595227,86.2731931 Z" id="Fill-50" fill="#FEFEFE" mask="url(#mask-2)"></path>
                    <polygon id="Fill-51" fill="#FEFEFE" mask="url(#mask-2)" points="319.689209 113.919554 326.306318 113.919554 326.306318 87.0804455 319.689209 87.0804455"></polygon>
                    <polygon id="Fill-52" fill="#FEFEFE" mask="url(#mask-2)" points="319.692682 83.7571782 326.302846 83.7571782 326.302846 77.4086634 319.692682 77.4086634"></polygon>
                    <path d="M313.176626,77.0936634 C308.483357,77.0936634 305.045447,79.3998515 302.170103,82.5567822 L302.170103,77.864703 L295.709263,77.864703 L295.709263,113.923366 L302.3229,113.923366 L302.3229,87.4810396 C303.663337,85.2164356 306.674113,82.5446535 311.59484,82.5446535 C312.605377,82.5446535 313.549934,82.6590099 314.426775,82.8738614 L314.426775,77.2166832 C314.077775,77.1283168 313.635014,77.0936634 313.176626,77.0936634" id="Fill-53" fill="#FEFEFE" mask="url(#mask-2)"></path>
                    <path d="M248.181713,83.7299752 C245.987007,79.2111634 241.318047,77.1007673 233.254584,77.1007673 C229.743748,77.1007673 225.071315,77.727995 221.069101,78.7398762 L221.069101,84.7487871 L221.261833,84.7487871 C225.826614,83.1183416 229.964261,82.262401 233.230276,82.262401 C238.812539,82.262401 240.625256,83.5428465 241.904922,85.7606683 C242.436236,86.6876485 242.708838,87.8797277 242.708838,89.2953218 L242.708838,90.3643812 C238.79344,90.6242822 235.914624,90.842599 232.995873,91.1562129 C222.421694,92.2893812 217.601674,96.1844307 217.601674,103.518837 C217.601674,110.641856 223.347151,114.736163 233.367445,114.743094 C239.062569,114.746559 245.386241,113.45745 249.324211,111.761163 L249.324211,89.5812129 C249.324211,87.2594307 248.933539,85.2876485 248.181713,83.7299752 L248.181713,83.7299752 Z M242.708838,108.808688 L242.63244,108.834678 C240.368281,109.914134 236.94947,110.361163 234.141843,110.361163 C227.349365,110.380223 224.49833,107.514381 224.49833,103.092599 C224.49833,99.7312129 226.399599,97.5116584 230.163937,96.5205693 C233.388281,95.6784901 238.862893,95.312896 242.708838,95.0668564 L242.708838,108.808688 Z" id="Fill-54" fill="#FEFEFE" mask="url(#mask-2)"></path>
                    <path d="M287.238633,102.506782 L287.238633,79.2733663 C282.142539,77.885495 277.593385,77.2045545 273.318569,77.2149505 C262.496096,77.2409406 255.601176,83.0436634 255.601176,94.9090099 C255.601176,104.539208 261.506395,110.312475 272.358385,110.362723 C275.047942,110.362723 277.463161,109.991931 280.453101,109.092673 L280.619788,109.044158 L280.619788,110.284752 C280.619788,112.086733 280.479146,113.200842 280.112783,113.838465 C278.794917,116.113465 276.617574,116.806535 271.141225,116.723366 C268.489867,116.68005 265.305459,116.06495 261.680026,114.907525 L261.680026,120.694653 C265.057166,121.415446 268.418678,121.846881 271.177688,121.886733 C280.324613,122.035743 287.233424,119.398614 287.233424,109.655792 L287.238633,102.506782 Z M280.619788,104.856287 L280.531235,104.88401 C278.136852,105.743416 276.296355,106.098614 274.188464,106.102079 C267.790131,106.117673 262.468315,103.425099 262.468315,94.9090099 C262.468315,86.8243564 265.088419,81.5483663 273.653678,81.5483663 C277.074225,81.5483663 279.690857,82.250099 280.548599,82.685 L280.619788,82.7231188 L280.619788,104.856287 Z" id="Fill-55" fill="#FEFEFE" mask="url(#mask-2)"></path>
                    <path d="M247.501771,147.752599 L247.501771,121.798886 L242.143493,121.798886 L242.143493,148.014233 C242.143493,152.158787 244.421542,154.354084 248.713721,154.354084 C249.241562,154.354084 249.96908,154.310767 250.495184,154.265718 L250.495184,150.443441 C248.474109,150.443441 247.552124,150.393193 247.501771,147.752599" id="Fill-56" fill="#FEFEFE" mask="url(#mask-2)"></path>
                    <path d="M205.831866,150.913342 C201.069144,150.913342 199.438741,147.605668 199.438741,142.02646 C199.438741,137.933886 199.310254,131.616559 206.533338,131.616559 C208.809652,131.616559 210.22996,131.99948 211.8239,133.051213 L211.8239,129.280916 C210.129254,128.573985 208.432871,128.275965 206.17392,128.275965 C199.131413,128.275965 193.906831,132.21953 193.906831,142.02646 C193.906831,149.397252 197.044358,154.352698 205.000169,154.352698 C208.186313,154.352698 210.269896,153.943787 212.146856,152.931906 L212.146856,149.31755 C209.65003,150.714084 207.557766,150.913342 205.831866,150.913342" id="Fill-57" fill="#FEFEFE" mask="url(#mask-2)"></path>
                    <path d="M230.974451,128.816733 L230.974451,150.442228 C230.974451,150.442228 228.788426,150.956832 227.638983,150.956832 C226.213466,150.960297 223.647187,150.681337 222.534207,148.818713 C221.7737,147.519208 221.7737,146.16599 221.7737,141.151634 L221.7737,128.816733 L216.408476,128.816733 L216.408476,142.631337 C216.408476,149.71104 217.158565,154.500149 226.743043,154.498416 C230.533426,154.498416 234.56863,153.652871 236.336202,152.836782 L236.336202,128.816733 L230.974451,128.816733 Z" id="Fill-58" fill="#FEFEFE" mask="url(#mask-2)"></path>
                    <path d="M283.993281,128.816733 L283.993281,150.442228 C283.993281,150.442228 281.815937,150.956832 280.647395,150.956832 C279.22535,150.960297 276.66949,150.681337 275.554773,148.818713 C274.789057,147.519208 274.789057,146.16599 274.789057,141.151634 L274.789057,128.816733 L269.427305,128.816733 L269.427305,142.631337 C269.427305,149.71104 270.177395,154.500149 279.761873,154.498416 C283.54531,154.498416 287.570097,153.652871 289.361977,152.836782 L289.361977,128.816733 L283.993281,128.816733 Z" id="Fill-59" fill="#FEFEFE" mask="url(#mask-2)"></path>
                    <path d="M264.298568,150.485371 C262.027464,150.485371 260.91622,149.586114 260.91622,147.754678 L260.91622,132.233391 L265.164991,132.233391 L265.164991,128.818292 L260.91622,128.818292 L260.91622,121.7975 L255.550996,121.7975 L255.550996,128.818292 L253.114941,128.818292 L253.114941,132.233391 L255.550996,132.233391 L255.550996,148.011114 C255.550996,152.157401 257.823837,154.352698 262.124698,154.352698 C263.215105,154.352698 264.32114,154.344035 265.194508,154.262599 L265.194508,150.455916 C264.875026,150.478441 264.574643,150.485371 264.298568,150.485371" id="Fill-60" fill="#FEFEFE" mask="url(#mask-2)"></path>
                    <path d="M307.450421,128.26505 C303.927431,128.26505 301.878576,129.730891 299.857501,132.186089 L299.857501,128.817772 L294.619028,128.817772 L294.619028,153.808119 L299.987725,153.808119 L299.987725,136.051683 C301.425397,133.674455 303.10268,132.556881 306.169018,132.556881 C306.976406,132.556881 307.596272,132.638317 308.047715,132.775198 L308.047715,128.336089 C307.905337,128.299703 307.641416,128.26505 307.450421,128.26505" id="Fill-61" fill="#FEFEFE" mask="url(#mask-2)"></path>
                    <path d="M309.139338,141.598663 C309.121975,150.726386 312.045935,154.366733 320.336856,154.366733 C322.776383,154.366733 325.528448,153.950891 327.898522,153.230099 L327.898522,149.39396 L327.764826,149.39396 C325.380861,150.568713 322.613169,150.896188 320.355955,150.896188 C316.063776,150.896188 314.723338,147.664752 314.723338,144.173416 L314.723338,143.800891 C316.244353,143.728119 318.38697,143.442228 320.4011,143.036782 C326.132687,141.86203 328.712856,139.361782 328.712856,135.397426 C328.712856,130.961782 325.695134,128.392228 319.663164,128.392228 C313.843025,128.378366 309.153229,132.133069 309.139338,141.598663 L309.139338,141.598663 Z M314.723338,139.547178 C314.723338,132.654604 317.247945,131.420941 319.404453,131.410545 C322.342303,131.408812 323.521264,133.006337 323.521264,135.695446 C323.521264,138.273663 321.401219,140.233317 314.723338,140.650891 L314.723338,139.547178 Z" id="Fill-62" fill="#FEFEFE" mask="url(#mask-2)"></path>
                    <polygon id="Fill-63" fill="#80BA27" mask="url(#mask-2)" points="0 174.092078 58.086796 174.092078 58.086796 116.042079 0 116.042079"></polygon>
                    <path d="M20.4043458,138.940396 C21.1891617,137.296089 23.0904303,134.418119 27.0509726,133.371584 C27.592704,133.231238 27.9139229,132.668119 27.77849,132.124059 C27.625694,131.583465 27.0770174,131.266386 26.5283408,131.410198 C23.6599428,132.165644 21.6996393,133.712921 20.3817736,135.260198 L20.3817736,131.115644 C20.3817736,130.559455 19.9285945,130.100297 19.364291,130.100297 C18.8051965,130.100297 18.35549,130.559455 18.35549,131.115644 L18.35549,135.537426 C17.0358881,133.90005 15.0165498,132.214158 11.9762562,131.410198 C11.4327886,131.266386 10.873694,131.586931 10.7243706,132.124059 C10.5819925,132.668119 10.9049478,133.231238 11.4501517,133.371584 C15.4679925,134.43198 17.3588433,137.335941 18.1210871,138.971584 C14.8168731,139.550297 12.3061567,142.386683 11.9710473,146.15698 C11.5074502,151.341139 13.3462114,154.388911 15.1224652,157.336188 C16.7789129,160.098069 18.3572264,162.710941 18.3572264,167.207228 C18.3572264,167.768614 18.8086692,168.220842 19.3729726,168.220842 C19.9372761,168.220842 20.3869826,167.768614 20.3869826,167.207228 C20.3869826,162.724802 21.9132065,160.148317 23.5262463,157.424554 C25.2556194,154.489406 27.0457637,151.462426 26.7662164,146.195099 C26.5752214,142.376287 23.9047637,139.42901 20.4043458,138.940396 M21.769092,156.391881 C20.8991965,157.859455 20.0102015,159.373812 19.3573458,161.182723 C18.6697637,159.294109 17.7373607,157.746832 16.8692015,156.298317 C15.1103109,153.37703 13.5962413,150.866386 14.0025398,146.33198 C14.2768781,143.178515 16.5323557,140.886188 19.3729726,140.886188 C22.2708881,140.886188 24.5819279,143.211436 24.7381965,146.300792 C24.9795448,150.95995 23.4220672,153.593614 21.769092,156.391881" id="Fill-64" fill="#FEFEFE" mask="url(#mask-2)"></path>
                    <path d="M32.9841463,135.576584 C33.4095443,134.788218 33.478997,133.885495 33.1872955,133.038218 C32.9581015,132.365941 32.5066587,131.78203 31.9093652,131.364455 C32.0256985,130.018168 31.2634547,128.706535 29.9021811,128.08797 C29.798002,126.920149 29.0427035,125.85802 27.8741612,125.341683 C26.5128876,124.733515 24.9224199,125.014208 23.8806289,125.929059 C23.6410169,125.726337 23.3666786,125.561733 23.0628229,125.43005 C23.0124697,125.407525 22.9586438,125.383267 22.9100269,125.365941 C22.4620567,123.596881 20.6562856,122.361485 18.6803552,122.555545 C16.9596637,122.732277 15.6105443,123.915693 15.2632806,125.435248 C14.9698428,125.561733 14.7007134,125.731535 14.4593652,125.929059 C13.4141015,125.014208 11.8236338,124.733515 10.4710418,125.341683 C9.29902687,125.85802 8.54546468,126.920149 8.44302189,128.08797 C7.08348458,128.706535 6.31950448,130.018168 6.43410149,131.364455 C5.83854428,131.78203 5.38015622,132.365941 5.15964378,133.038218 C4.8592607,133.880297 4.93218607,134.788218 5.35411144,135.576584 C5.84201692,136.477574 6.72233035,137.113465 7.75370348,137.342178 C7.76238507,137.349109 7.76585771,137.368168 7.77106667,137.380297 C8.40135025,138.546386 9.67754428,139.229059 11.0006189,139.229059 C11.5058876,139.229059 12.0337284,139.128564 12.5233701,138.910248 C12.6171313,138.861733 12.7091562,138.821881 12.7977085,138.768168 C13.6137781,139.154554 14.3794945,139.118168 15.3414149,138.691931 C15.8588378,138.463218 16.0862955,137.867178 15.8588378,137.349109 C15.6313801,136.83797 15.0306139,136.61099 14.5201363,136.83797 C13.940206,137.096139 13.8030368,137.056287 13.3446488,136.73401 C12.9661313,136.465446 12.4452358,136.489703 12.0962358,136.794653 C11.9660119,136.903812 11.8288428,136.988713 11.6951463,137.056287 C10.9103303,137.397624 9.93625572,137.108267 9.57162886,136.432525 C9.5282209,136.33896 9.48828557,136.245396 9.46744975,136.15703 C9.35111642,135.715198 8.96565373,135.408515 8.51421095,135.396386 C7.925599,135.382525 7.40470348,135.084505 7.15814627,134.618416 C6.9532607,134.244158 7.00535025,133.916683 7.08348458,133.700099 C7.19981791,133.344901 7.47415622,133.065941 7.85614627,132.892673 L7.96900697,132.849356 C8.21382786,132.752327 8.42392239,132.554802 8.53331045,132.31396 C8.64617114,132.064455 8.64617114,131.78203 8.54546468,131.530792 C8.30411642,130.91396 8.62707164,130.222624 9.29902687,129.924604 C9.41188756,129.881287 9.54211144,129.841436 9.68275323,129.81198 C9.94840995,129.756535 10.1810766,129.607525 10.3373453,129.378812 C10.4849323,129.153564 10.5352856,128.878069 10.483196,128.609505 C10.36339,128.032525 10.6915542,127.465941 11.3027383,127.195644 C12.080609,126.85604 13.0512109,127.131535 13.4262557,127.828069 C13.4436189,127.871386 13.466191,127.916436 13.4852905,127.963218 C13.6311413,128.346139 14.0009771,128.609505 14.4072756,128.619901 C14.8465642,128.623366 15.2025095,128.38599 15.3639871,128.003069 C15.5046289,127.692921 15.7650766,127.43302 16.1036587,127.28401 C16.2078378,127.237228 16.3120169,127.204307 16.421405,127.18005 C16.8780567,127.070891 17.2166388,126.660248 17.2166388,126.194158 C17.2183751,125.365941 17.9337383,124.678069 18.8800318,124.577574 C19.9252955,124.478812 20.8629075,125.130297 20.9740318,126.034752 C20.9757682,126.085 20.9775045,126.131782 20.9775045,126.180297 C20.9879224,126.660248 21.3386587,127.070891 21.8230915,127.157525 C21.9706786,127.18005 22.1130567,127.228564 22.2363353,127.28401 C22.5766537,127.43302 22.8423104,127.687723 22.9742706,128.003069 C23.1392209,128.38599 23.5038478,128.609505 23.9309821,128.619901 C24.3459622,128.609505 24.715798,128.346139 24.8581761,127.963218 C24.8772756,127.916436 24.8946388,127.871386 24.9154746,127.821139 C25.293992,127.131535 26.2628577,126.85604 27.0459373,127.195644 C27.6501761,127.465941 27.976604,128.032525 27.8550617,128.609505 C27.7977632,128.878069 27.8550617,129.153564 28.0043851,129.378812 C28.1554448,129.607525 28.3933204,129.756535 28.6589771,129.81198 C28.7978826,129.841436 28.9298428,129.881287 29.0392308,129.924604 C29.716395,130.222624 30.0410866,130.91396 29.798002,131.530792 C29.6972955,131.78203 29.7007682,132.064455 29.8153652,132.31396 C29.9247532,132.554802 30.1279025,132.752327 30.376196,132.854554 C30.3866139,132.854554 30.4786388,132.892673 30.4890567,132.892673 C30.8675741,133.065941 31.1419124,133.344901 31.2634547,133.700099 C31.3398527,133.916683 31.3832607,134.244158 31.1853204,134.618416 C30.9404995,135.084505 30.4161313,135.382525 29.830992,135.396386 C29.3691313,135.408515 28.9888776,135.723861 28.8777532,136.158762 C28.8499721,136.252327 28.8169821,136.33896 28.7735741,136.418663 C28.4089473,137.108267 27.4348726,137.397624 26.6500567,137.056287 C26.5059423,136.988713 26.3774547,136.903812 26.2489672,136.794653 C25.8947582,136.489703 25.3773353,136.468911 24.9953453,136.73401 C24.7626786,136.898614 24.6185642,137.000842 24.5786289,137.009505 C24.557793,137.009505 24.4536139,137.000842 24.099405,136.83797 C23.587191,136.61099 22.9864249,136.83797 22.7607035,137.349109 C22.5332458,137.867178 22.7607035,138.463218 23.27639,138.691931 C24.2869274,139.142426 24.8824846,139.128564 25.5561761,138.775099 C25.642992,138.821881 25.7350169,138.865198 25.8235692,138.910248 C27.5720418,139.684752 29.7007682,138.998614 30.567191,137.371634 C30.5741363,137.368168 30.577609,137.349109 30.5862905,137.342178 C31.6124547,137.113465 32.4979771,136.477574 32.9841463,135.576584" id="Fill-65" fill="#FEFEFE" mask="url(#mask-2)"></path>
                    <path d="M40.8866522,141.067252 C41.0811199,141.276906 41.3571945,141.392995 41.6402144,141.392995 C41.9353886,141.392995 42.199309,141.276906 42.3972493,141.067252 L47.3804831,135.583342 C47.7555279,135.165767 47.7242741,134.528144 47.309294,134.153886 C46.8908413,133.772698 46.2449308,133.805619 45.8716224,134.223193 L41.6402144,138.865025 L37.4192244,134.223193 C37.0389706,133.805619 36.3965328,133.772698 35.9780801,134.153886 C35.5596274,134.528144 35.5283736,135.165767 35.9103637,135.583342 L40.8866522,141.067252 Z" id="Fill-66" fill="#FEFEFE" mask="url(#mask-2)"></path>
                    <path d="M45.8735323,139.847277 L41.6421244,144.494307 L37.4176617,139.847277 C37.0391443,139.431436 36.3949701,139.396782 35.9765174,139.77797 C35.559801,140.152228 35.5302836,140.79505 35.9105373,141.20396 L40.8868259,146.691337 C41.0847662,146.90099 41.3573682,147.029208 41.6421244,147.029208 C41.9355622,147.029208 42.1994826,146.90099 42.3991592,146.691337 L47.3789204,141.20396 C47.7557015,140.79505 47.7279204,140.152228 47.3094677,139.77797 C46.8927512,139.396782 46.2485771,139.431436 45.8735323,139.847277" id="Fill-67" fill="#FEFEFE" mask="url(#mask-2)"></path>
                    <path d="M40.8866522,130.623911 C40.9005428,130.63604 40.9057517,130.641238 40.917906,130.655099 C40.9283239,130.656832 40.9317965,130.663762 40.9370055,130.665495 C41.0290303,130.753861 41.1280005,130.824901 41.2425975,130.873416 C41.2460701,130.873416 41.2460701,130.873416 41.2564881,130.880347 C41.3745577,130.928861 41.5047816,130.956584 41.6367418,130.956584 L41.6402144,130.951386 L41.6402144,130.956584 C41.6402144,130.956584 41.6436871,130.951386 41.6471597,130.951386 C41.7739109,130.951386 41.8989259,130.928861 42.0152592,130.880347 C42.0239408,130.873416 42.041304,130.873416 42.0499856,130.873416 C42.155901,130.824901 42.2427169,130.76599 42.3330055,130.684554 C42.346896,130.665495 42.3590502,130.655099 42.3712045,130.637772 C42.3816224,130.63604 42.390304,130.632574 42.3920403,130.623911 L45.6337468,127.056337 C46.0192095,126.640495 45.9879557,125.997673 45.5660303,125.625149 C45.1510502,125.245693 44.5103488,125.280347 44.1283587,125.694455 L42.6594333,127.316238 L42.6594333,123.261782 C42.6594333,122.705594 42.2062542,122.246436 41.6402144,122.246436 C41.0811199,122.246436 40.6279408,122.705594 40.6279408,123.261782 L40.6279408,127.31797 L39.1555428,125.694455 C38.7752891,125.280347 38.1328512,125.245693 37.7091896,125.625149 C37.3011547,125.997673 37.2716373,126.640495 37.6449458,127.056337 L40.8866522,130.623911 Z" id="Fill-68" fill="#FEFEFE" mask="url(#mask-2)"></path>
                    <path d="M40.8866522,135.842203 C41.0811199,136.051856 41.3571945,136.174876 41.6402144,136.174876 C41.9353886,136.174876 42.199309,136.051856 42.3972493,135.842203 L46.5609408,131.262748 C46.9394582,130.841708 46.9082045,130.209282 46.4914881,129.824629 C46.0730353,129.448639 45.4288612,129.481559 45.0520801,129.895668 L41.6402144,133.648639 L38.2387667,129.895668 C37.8619856,129.481559 37.2160751,129.448639 36.7993587,129.824629 C36.3826423,130.209282 36.3496522,130.841708 36.7229607,131.262748 L40.8866522,135.842203 Z" id="Fill-69" fill="#FEFEFE" mask="url(#mask-2)"></path>
                    <path d="M51.3036945,156.070817 C47.7390328,156.070817 44.5858786,157.82255 42.6429383,160.50646 L42.6429383,152.040619 L47.3796149,146.83047 C47.756396,146.419827 47.7268786,145.782203 47.3101622,145.401015 C46.8917095,145.026757 46.2475353,145.057946 45.8724905,145.472054 L41.6410826,150.124282 L37.4183562,145.472054 C37.0381025,145.057946 36.3939284,145.026757 35.9772119,145.401015 C35.5587592,145.782203 35.5292418,146.419827 35.9094955,146.83047 L40.6079731,152.011163 L40.6079731,160.50646 C38.6650328,157.82255 35.5118786,156.070817 31.9576348,156.070817 C31.3950677,156.070817 30.9401522,156.523045 30.9401522,157.080965 C30.9401522,157.640619 31.3950677,158.096312 31.9576348,158.096312 C36.7220925,158.096312 40.6079731,161.974035 40.6079731,166.740619 L40.6079731,166.787401 C40.6079731,167.347054 41.0680975,167.79755 41.6219831,167.79755 C42.1897592,167.79755 42.6429383,167.347054 42.6429383,166.787401 L42.6429383,166.740619 C42.6429383,161.974035 46.5288189,158.096312 51.3036945,158.096312 C51.8645254,158.096312 52.3211771,157.640619 52.3211771,157.080965 C52.3211771,156.523045 51.8645254,156.070817 51.3036945,156.070817" id="Fill-70" fill="#FEFEFE" mask="url(#mask-2)"></path>
                    <polygon id="Fill-71" fill="#80BA27" mask="url(#mask-2)" points="115.970001 174.097276 174.260002 174.097276 174.260002 116.047277 115.970001 116.047277"></polygon>
                    <path d="M161.230881,152.424406 C161.418403,152.568218 161.638916,152.637525 161.864637,152.637525 C161.937563,152.637525 162.012224,152.637525 162.078204,152.620198 C163.903075,152.221683 165.708846,151.038267 167.049284,149.364505 C168.382777,147.695941 169.134602,145.66698 169.117239,143.811287 C169.117239,143.515 168.971389,143.225644 168.735249,143.036782 C168.495637,142.839257 168.179627,142.773416 167.88619,142.835792 C166.07,143.227376 164.255548,144.41599 162.923792,146.084554 C161.583354,147.753119 160.829792,149.778614 160.843682,151.63604 C160.850627,151.942723 160.991269,152.228614 161.230881,152.424406 M164.515996,147.347673 C165.189687,146.496931 166.016175,145.819455 166.875652,145.351634 C166.623886,146.299406 166.134244,147.259307 165.455344,148.106584 C164.776443,148.952129 163.949956,149.643465 163.087005,150.100891 C163.340508,149.153119 163.833622,148.201881 164.515996,147.347673" id="Fill-72" fill="#FEFEFE" mask="url(#mask-2)"></path>
                    <path d="M162.512805,153.084381 C161.983228,153.084381 161.436288,153.141559 160.887611,153.264579 C160.70877,152.389579 160.259064,150.939332 159.191228,149.86854 C158.793611,149.471757 158.154646,149.471757 157.753556,149.86854 C157.357676,150.260124 157.357676,150.908144 157.753556,151.297995 C158.305705,151.855916 158.61477,152.614827 158.77972,153.209134 C158.244934,153.098243 157.711885,153.037599 157.20488,153.037599 C153.758288,153.037599 151.346541,155.672995 151.346541,159.439827 C151.346541,164.131906 155.178596,167.964579 159.882283,167.964579 C164.592914,167.964579 168.423233,164.131906 168.423233,159.439827 C168.423233,155.641807 166.047949,153.084381 162.512805,153.084381 M159.882283,165.928688 C156.300258,165.928688 153.37977,163.016064 153.37977,159.439827 C153.37977,156.788837 154.885158,155.066559 157.20488,155.066559 C157.921979,155.066559 158.703322,155.225965 159.515919,155.537847 C159.74685,155.627946 160.003825,155.634876 160.229546,155.54651 C161.029989,155.255421 161.802651,155.108144 162.512805,155.108144 C164.907188,155.108144 166.39174,156.766312 166.39174,159.439827 C166.39174,163.016064 163.469516,165.928688 159.882283,165.928688" id="Fill-73" fill="#FEFEFE" mask="url(#mask-2)"></path>
                    <path d="M166.369515,129.948688 C166.369515,127.33755 164.237316,125.21849 161.629366,125.21849 C160.123978,125.21849 158.787013,125.921955 157.922326,127.015272 C157.153137,126.051906 156.028003,125.398688 154.751809,125.246213 C154.751809,125.232351 154.758754,125.21849 154.758754,125.197698 L154.758754,122.572698 L156.442983,122.950421 C156.514172,122.967748 156.585361,122.971213 156.661759,122.971213 C157.127093,122.971213 157.554227,122.650668 157.65667,122.181114 C157.778212,121.624926 157.429212,121.086064 156.882272,120.969975 L150.079376,119.460817 C149.532436,119.334332 148.992441,119.684332 148.872635,120.230124 C148.74762,120.777649 149.091411,121.31651 149.64356,121.444728 L152.71858,122.122203 L152.71858,125.197698 C152.71858,125.28953 152.755043,125.3675 152.775879,125.435074 C151.864311,125.724431 151.077759,126.284084 150.49262,127.011807 C149.624461,125.921955 148.285759,125.21849 146.780371,125.21849 C144.172421,125.21849 142.041958,127.33755 142.041958,129.948688 C142.041958,132.327649 143.826894,134.299431 146.125779,134.618243 C145.912212,135.165767 145.783724,135.754876 145.783724,136.382104 C145.783724,138.76453 147.570396,140.736312 149.869282,141.056856 C149.647033,141.604381 149.516809,142.200421 149.516809,142.827649 C149.516809,145.433589 151.650744,147.563045 154.258695,147.563045 C156.87359,147.563045 158.998844,145.433589 158.998844,142.827649 C158.998844,142.200421 158.872093,141.599183 158.646371,141.051658 C160.927894,140.713787 162.685048,138.750668 162.685048,136.382104 C162.685048,135.754876 162.560033,135.160569 162.337784,134.611312 C164.615834,134.269975 166.369515,132.312054 166.369515,129.948688 M154.208341,127.250916 C155.654695,127.250916 156.828446,128.39448 156.897899,129.818738 C156.897899,129.863787 156.896162,129.901906 156.896162,129.948688 C156.896162,129.990272 156.897899,130.028391 156.897899,130.071708 C156.828446,131.501163 155.654695,132.637797 154.208341,132.637797 C153.716963,132.637797 153.260311,132.499183 152.86964,132.273936 C152.80366,132.242748 152.755043,132.213292 152.694272,132.178639 C152.015371,131.717748 151.558719,130.953639 151.517048,130.075173 C151.517048,130.030124 151.523993,129.990272 151.523993,129.948688 C151.523993,129.901906 151.517048,129.860322 151.517048,129.810074 C151.588237,128.384084 152.758515,127.250916 154.208341,127.250916 M144.076923,129.948688 C144.076923,128.458589 145.294083,127.250916 146.780371,127.250916 C148.228461,127.250916 149.403948,128.384084 149.476874,129.810074 C149.476874,129.860322 149.466456,129.901906 149.466456,129.948688 C149.466456,129.990272 149.476874,130.030124 149.476874,130.075173 C149.403948,131.506361 148.228461,132.637797 146.780371,132.637797 C145.294083,132.637797 144.076923,131.428391 144.076923,129.948688 M147.822162,136.382104 C147.822162,134.88854 149.03064,133.680866 150.52561,133.680866 C151.011779,133.680866 151.470167,133.822946 151.864311,134.049926 C151.919874,134.079381 151.977172,134.114035 152.037943,134.14349 C152.71858,134.609579 153.175232,135.382351 153.220376,136.255619 C153.220376,136.302401 153.208222,136.337054 153.208222,136.382104 C153.208222,136.420223 153.220376,136.458342 153.220376,136.505124 C153.145714,137.934579 151.970227,139.079876 150.52561,139.079876 C149.03064,139.079876 147.822162,137.868738 147.822162,136.382104 M154.258695,145.527153 C152.77067,145.527153 151.555247,144.310817 151.555247,142.827649 C151.555247,141.341015 152.77067,140.126411 154.258695,140.126411 C155.750192,140.126411 156.965615,141.341015 156.965615,142.827649 C156.965615,144.310817 155.750192,145.527153 154.258695,145.527153 M157.950107,139.079876 C156.500282,139.079876 155.323058,137.934579 155.26055,136.505124 L155.26055,136.382104 L155.26055,136.255619 C155.323058,134.822698 156.500282,133.680866 157.950107,133.680866 C158.446695,133.680866 158.90161,133.822946 159.3027,134.056856 C159.353053,134.086312 159.398197,134.114035 159.450287,134.133094 C160.17954,134.618243 160.64661,135.449926 160.64661,136.382104 C160.64661,137.868738 159.436396,139.079876 157.950107,139.079876 M161.629366,132.637797 C161.132779,132.637797 160.674391,132.499183 160.269829,132.265272 C160.226421,132.242748 160.17954,132.213292 160.129187,132.185569 C159.436396,131.724678 158.976272,130.953639 158.938073,130.071708 C158.945018,130.028391 158.948491,129.990272 158.948491,129.948688 C158.948491,129.901906 158.945018,129.863787 158.938073,129.818738 C159.002316,128.39448 160.181277,127.250916 161.629366,127.250916 C163.120864,127.250916 164.336287,128.458589 164.336287,129.948688 C164.336287,131.428391 163.120864,132.637797 161.629366,132.637797" id="Fill-74" fill="#FEFEFE" mask="url(#mask-2)"></path>
                    <path d="M147.994058,165.896634 L144.556147,165.896634 L144.556147,163.614703 C144.700262,163.455297 144.835695,163.297624 144.972864,163.15901 C146.556386,161.424604 147.705829,160.170149 147.705829,156.933515 C147.705829,153.457772 146.424426,148.263218 144.349525,145.932772 C143.962326,145.501337 143.212237,145.501337 142.826774,145.932772 C140.75361,148.263218 139.47568,153.457772 139.47568,156.933515 C139.47568,160.170149 140.619913,161.424604 142.199963,163.15901 C142.311088,163.275099 142.427421,163.392921 142.529864,163.510743 L142.529864,165.896634 L134.178172,165.896634 C134.192063,165.818663 134.225053,165.742426 134.225053,165.662723 L134.225053,158.021634 C134.782411,157.18995 135.311988,156.469158 135.780794,155.821139 C137.972028,152.816683 139.414908,150.839703 139.414908,144.719901 C139.414908,137.735495 137.558784,125.246386 134.058366,119.998119 C133.683321,119.429802 132.742237,119.429802 132.363719,119.998119 C130.615247,122.628317 129.276545,127.072624 128.375396,131.726584 C128.116685,131.354059 127.8545,130.991931 127.581899,130.693911 C127.385695,130.475594 127.111356,130.349109 126.817918,130.349109 C126.52969,130.349109 126.251879,130.475594 126.053938,130.693911 C122.961555,134.166188 121.049869,141.999604 121.049869,147.270396 C121.049869,151.979802 122.628182,153.700347 125.019093,156.304554 C125.272595,156.578317 125.538252,156.867673 125.809117,157.172624 C125.795227,157.240198 125.774391,157.292178 125.774391,157.361485 L125.774391,165.896634 L122.338217,165.896634 C121.77565,165.896634 121.324207,166.348861 121.324207,166.901584 C121.324207,167.469901 121.77565,167.923861 122.338217,167.923861 L147.994058,167.923861 C148.547943,167.923861 149.009804,167.469901 149.009804,166.901584 C149.009804,166.348861 148.547943,165.896634 147.994058,165.896634 M141.507172,156.933515 C141.507172,154.369158 142.330187,150.626584 143.583809,148.38104 C144.84264,150.626584 145.670864,154.369158 145.670864,156.933515 C145.670864,159.319406 145.012799,160.092178 143.583809,161.656782 C142.161764,160.092178 141.507172,159.319406 141.507172,156.933515 M133.212779,122.63698 C135.709605,127.805545 137.38168,137.875842 137.38168,144.719901 C137.38168,150.172624 136.228764,151.752822 134.134764,154.625594 C133.850008,155.017178 133.535734,155.448614 133.212779,155.900842 C132.889824,155.448614 132.579023,155.015446 132.287321,154.625594 C131.891441,154.079802 131.530287,153.582525 131.205595,153.099109 C132.0807,151.641931 132.585968,149.940446 132.585968,147.270396 C132.585968,143.515693 131.61363,138.451089 129.924192,134.595891 C130.667336,130.021634 131.806361,125.551337 133.212779,122.63698 M123.084834,147.270396 C123.084834,142.83302 124.552023,136.460248 126.819655,133.03995 C129.082078,136.451584 130.552739,142.826089 130.552739,147.270396 C130.552739,151.189703 129.405033,152.440693 127.111356,154.93401 C127.017595,155.039703 126.918625,155.148861 126.819655,155.256287 C126.724157,155.148861 126.618242,155.039703 126.526217,154.93401 C124.239486,152.440693 123.084834,151.189703 123.084834,147.270396 M127.778102,157.221139 C128.066331,156.904059 128.345879,156.595644 128.606326,156.304554 C129.087287,155.78995 129.528311,155.308267 129.93461,154.824851 C130.163804,155.154059 130.396471,155.479802 130.6465,155.821139 C131.111834,156.462228 131.636202,157.177822 132.186615,157.992178 L132.186615,165.662723 C132.186615,165.742426 132.210923,165.818663 132.231759,165.896634 L127.80762,165.896634 L127.80762,157.361485 C127.80762,157.316436 127.786784,157.269653 127.778102,157.221139" id="Fill-75" fill="#FEFEFE" mask="url(#mask-2)"></path>
                    <path d="M327.413048,70.5488366 C326.482381,70.5488366 326.261869,70.5488366 326.23756,69.6426485 L326.23756,57.8899257 L324.119252,57.8899257 L324.119252,69.4589851 C324.103625,70.2092327 324.141824,71.0530446 324.711336,71.6386881 C325.129789,72.052797 325.768754,72.2659158 326.63865,72.2659158 C326.88868,72.2659158 327.199481,72.2451238 327.428675,72.2260644 L327.562371,72.2104703 L327.562371,70.5488366 L327.413048,70.5488366 Z" id="Fill-76" fill="#F6A723" mask="url(#mask-2)"></path>
                </g>
            </g>
        </g>
    </g>
</svg>