<svg xmlns="http://www.w3.org/2000/svg" width="346" height="174" viewBox="0 0 346 174">
  <g fill="none">
    <rect width="172.9" height="174" x=".1" fill="#1E5740"/>
    <g fill="#FFF" transform="translate(23 28)">
      <path d="M.2 23L4.3 23C4.4 25.8 7.1 28.6 11.3 28.6 15.4 28.6 17.6 26 17.6 23.2 17.6 20.1 14.8 18.8 12.2 18.1L8.1 17.1C1.4 15.5.4 11.5.4 9 .4 3.5 5.3.1 10.8.1 16.3.1 20.7 3.6 20.7 9.3L16.6 9.3C16.6 6.1 14 4 10.6 4 7.5 4 4.5 5.9 4.5 9 4.5 10.1 4.9 12.4 9.1 13.4L13.2 14.4C18.5 15.7 21.7 18.7 21.7 23.2 21.7 28.1 17.7 32.6 11.2 32.6 4.7 32.4.3 27.9.2 23zM42.3 23.9L28.8 23.9 25.8 32 21.5 32 33.4.4 37.8.4 49.7 32 45.4 32 42.3 23.9zM40.9 20.2L35.5 5.9 30.1 20.2 40.9 20.2z"/>
      <polygon points="51.9 .4 56 .4 56 28.2 68.9 28.2 68.9 32 51.9 32"/>
      <path d="M68,16.3 C68,7.3 74.9,0.1 83.9,0.1 C92.9,0.1 99.9,7.3 99.9,16.3 C99.9,25.2 92.9,32.5 83.9,32.5 C75,32.4 68,25.2 68,16.3 Z M95.7,16.3 C95.7,9.5 90.6,3.9 83.9,3.9 C77.3,3.9 72.2,9.5 72.2,16.3 C72.2,23 77.3,28.6 83.9,28.6 C90.6,28.6 95.7,23 95.7,16.3 Z"/>
      <polygon points="126.9 .4 126.9 32 122.9 32 108.4 7.9 108.4 32 104.3 32 104.3 .4 108.4 .4 122.8 24.4 122.8 .4"/>
    </g>
    <g fill="#F2BA44" transform="translate(23 66)">
      <polygon points=".3 .2 2 .2 2 13.4 .3 13.4"/>
      <polygon points="14.1 .2 14.1 13.4 12.4 13.4 6.4 3.4 6.4 13.4 4.7 13.4 4.7 .2 6.4 .2 12.4 10.2 12.4 .2"/>
      <polygon points="25.1 1.8 21.1 1.8 21.1 13.4 19.4 13.4 19.4 1.8 15.4 1.8 15.4 .2 25.1 .2 25.1 1.8"/>
      <polygon points="34.2 11.7 34.2 13.3 26.3 13.3 26.3 .2 34 .2 34 1.8 28 1.8 28 6 33.2 6 33.2 7.6 28 7.6 28 11.7 34.2 11.7"/>
      <path d="M39.5,8.4 L37.8,8.4 L37.8,13.4 L36.1,13.4 L36.1,0.2 L41,0.2 C43.9,0.2 45,2.3 45,4.3 C45,6.2 44.1,8.1 41.6,8.4 L45.1,13.4 L43,13.4 L39.5,8.4 Z M37.8,6.8 L40.5,6.8 C42.4,6.8 43.2,5.8 43.2,4.3 C43.2,2.8 42.3,1.8 41,1.8 L37.8,1.8 L37.8,6.8 Z"/>
      <polygon points="56.3 .2 56.3 13.4 54.6 13.4 48.6 3.4 48.6 13.4 46.9 13.4 46.9 .2 48.6 .2 54.6 10.2 54.6 .2"/>
      <path d="M65.9,9.9 L60.3,9.9 L59,13.3 L57.2,13.3 L62.2,0.1 L64,0.1 L69,13.3 L67.2,13.3 L65.9,9.9 Z M65.3,8.4 L63.1,2.4 L60.9,8.4 L65.3,8.4 Z"/>
      <polygon points="77 1.8 73 1.8 73 13.4 71.3 13.4 71.3 1.8 67.3 1.8 67.3 .2 77 .2"/>
      <polygon points="78.3 .2 80 .2 80 13.4 78.3 13.4"/>
      <path d="M81.8,6.8 C81.8,3.1 84.7,0 88.4,0 C92.1,0 95,3 95,6.8 C95,10.5 92.1,13.5 88.4,13.5 C84.7,13.5 81.8,10.5 81.8,6.8 Z M93.3,6.8 C93.3,4 91.2,1.6 88.4,1.6 C85.6,1.6 83.5,3.9 83.5,6.8 C83.5,9.6 85.6,11.9 88.4,11.9 C91.2,11.9 93.3,9.6 93.3,6.8 Z"/>
      <polygon points="106.3 .2 106.3 13.4 104.6 13.4 98.6 3.4 98.6 13.4 96.9 13.4 96.9 .2 98.6 .2 104.6 10.2 104.6 .2"/>
      <path d="M115.9,9.9 L110.3,9.9 L109,13.3 L107.2,13.3 L112.2,0.1 L114,0.1 L119,13.3 L117.2,13.3 L115.9,9.9 Z M115.3,8.4 L113.1,2.4 L110.9,8.4 L115.3,8.4 Z"/>
      <polygon points="119.9 .2 121.6 .2 121.6 11.8 127 11.8 127 13.4 119.9 13.4"/>
    </g>
    <g fill="#F7FBFD" transform="translate(32 85)">
      <path d="M0.7,0.2 L5.7,0.2 C9.3,0.2 11.5,3 11.5,6.7 C11.5,10.3 9.4,13.1 5.7,13.1 L0.7,13.1 L0.7,0.2 Z M5.7,11.5 C8.4,11.5 9.8,9.4 9.8,6.7 C9.8,4 8.4,1.8 5.7,1.8 L2.4,1.8 L2.4,11.5 L5.7,11.5 Z"/>
      <polygon points="21 11.5 21 13.1 13.3 13.1 13.3 .2 20.8 .2 20.8 1.8 15 1.8 15 6 20.1 6 20.1 7.6 15 7.6 15 11.6 21 11.6"/>
    </g>
    <g fill="#F7FBFD" transform="translate(23 122)">
      <path d="M.9 12.1C.9 5.6 6.1.3 12.6.3 16.1.3 19.2 1.8 21.2 4.2L19 6.1C17.5 4.3 15.1 3.1 12.6 3.1 7.8 3.1 4 7.2 4 12.1 4 17 7.8 21.1 12.6 21.1 15.2 21.1 17.5 19.9 19 18.1L21.2 20C19.2 22.4 16.1 23.9 12.6 23.9 6 24 .9 18.7.9 12.1zM23.6 15.7L23.6.5 26.6.5 26.6 15.7C26.6 19.3 29.1 21 31.9 21 34.8 21 37.2 19.3 37.2 15.7L37.2.5 40.2.5 40.2 15.7C40.2 20.9 36.4 24 31.8 24 27.4 24 23.6 21 23.6 15.7z"/>
      <polygon points="44.8 .5 47.8 .5 47.8 20.8 57.2 20.8 57.2 23.6 44.8 23.6"/>
      <polygon points="71 3.3 64 3.3 64 23.6 61 23.6 61 3.3 54 3.3 54 .5 71 .5"/>
      <path d="M72.9 15.7L72.9.5 75.9.5 75.9 15.7C75.9 19.3 78.4 21 81.2 21 84.1 21 86.5 19.3 86.5 15.7L86.5.5 89.5.5 89.5 15.7C89.5 20.9 85.7 24 81.1 24 76.7 24 72.9 21 72.9 15.7zM100.2 14.9L97.2 14.9 97.2 23.6 94.2 23.6 94.2.5 102.8.5C107.8.5 109.7 4.1 109.7 7.7 109.7 11.1 108 14.4 103.7 14.8L109.8 23.6 106.2 23.6 100.2 14.9zM97.2 12.1L102 12.1C105.4 12.1 106.7 10.3 106.7 7.7 106.7 5.1 105.2 3.3 102.9 3.3L97.2 3.3 97.2 12.1z"/>
      <polygon points="127 20.8 127 23.6 113.1 23.6 113.1 .5 126.6 .5 126.6 3.3 116.1 3.3 116.1 10.8 125.3 10.8 125.3 13.7 116.1 13.7 116.1 20.8"/>
    </g>
    <g transform="translate(24 84)">
      <g fill="#F7FBFD">
        <polygon points="0 .9 4.2 .9 4.2 29.1 17.3 29.1 17.3 33 0 33"/>
        <path d="M53.5 24.8L39.7 24.8 36.6 33.1 32.2 33.1 44.3 1 48.7 1 61 33 56.6 33 53.5 24.8zM52.1 21.1L46.6 6.6 41.1 21.1 52.1 21.1zM60.5 17.1C60.5 8 67.5.6 76.6.6 80.8.6 84.6 2.2 87.4 4.8L84.5 7.6C82.5 5.8 79.7 4.6 76.7 4.6 70 4.6 64.8 10.3 64.8 17.2 64.8 24.1 70 29.7 76.7 29.7 82.2 29.7 86.4 26.5 87.1 21.5 87.1 21.3 87.2 21 87.2 20.7L77.9 20.7 77.9 17 91.8 17C91.8 28.2 85.8 33.6 76.7 33.6 67.6 33.5 60.5 26.1 60.5 17.1zM103.7 20.9L99.5 20.9 99.5 33 95.3 33 95.3.9 107.3.9C114.3.9 116.9 5.9 116.9 10.9 116.9 15.6 114.6 20.2 108.6 20.8L117.1 33 112 33 103.7 20.9zM99.6 17.1L106.3 17.1C111 17.1 112.8 14.6 112.8 11 112.8 7.4 110.7 4.9 107.5 4.9L99.6 4.9 99.6 17.1z"/>
        <polygon points="121.7 .9 125.9 .9 125.9 33 121.7 33"/>
      </g>
      <path fill="#FFF" d="M31.1,14.6 C33.8,10.7 35.4,7.4 34.8,1.5 L38.7,1.5 C39.3,7.1 37.4,12.4 33.6,15.6 L31.1,14.6 Z"/>
    </g>
    <rect width="57.6" height="58" x="287.9" y="116" fill="#8ABD56"/>
    <rect width="57.6" height="58" x="172.6" y="58" fill="#EDA84D"/>
    <rect width="57.6" height="58" x="230.3" y="58" fill="#1E5740"/>
    <rect width="57.6" height="58" x="287.9" y="58" fill="#EDA84D"/>
    <rect width="57.6" height="58" x="172.6" fill="#8ABD56"/>
    <rect width="57.6" height="58" x="230.3" fill="#D73465"/>
    <rect width="57.6" height="58" x="287.9" fill="#8ABD56"/>
    <rect width="57.6" height="58" x="230.3" y="116" fill="#009FD9"/>
    <path fill="#FFF" d="M244.9 132C244.9 132.5 244.5 133 243.9 133 243.4 133 242.9 132.6 242.9 132 242.9 131.5 243.3 131 243.9 131 244.5 131 244.9 131.4 244.9 132M282.7 154.2C281.3 154.2 279.9 154.6 278.7 155.5L278.7 151 282.4 151C282.8 151 283.2 150.7 283.3 150.3 283.4 149.9 283.3 149.5 283 149.2L277.9 144.8 277.7 138.6C277.7 138.1 277.2 137.6 276.7 137.6L273 137.6C272.5 137.6 272 138.1 272 138.6L272 138.9 266.1 133.1C265.7 132.7 265.1 132.7 264.7 133.1L247.7 149.2C247.4 149.5 247.3 149.9 247.5 150.3 247.6 150.7 248 150.9 248.4 150.9L252 150.9 252 165.7 244.8 165.7 244.8 134.7C245.7 134.4 246.4 133.7 246.7 132.8L256.5 134.6C256.6 134.6 256.6 134.6 256.7 134.5 256.7 134.4 256.7 134.4 256.7 134.3 256.6 134.1 254.6 130 246.8 131.2 246.5 129.9 245.3 128.8 243.9 128.8 243.9 128.8 243.8 128.8 243.8 128.8L242.1 118.9C242.1 118.8 242 118.8 242 118.8 241.9 118.8 241.9 118.8 241.8 118.8 241.7 118.9 238.5 122.2 242.3 129.3 241.5 129.8 240.9 130.8 240.9 131.8 240.9 132.2 241 132.5 241.1 132.8L233 139.4C232.9 139.4 232.9 139.5 232.9 139.6 232.9 139.7 233 139.7 233 139.7 233.1 139.7 233.4 139.8 234 139.8 235.6 139.8 238.8 139.1 241.9 134 242.1 134.2 242.4 134.4 242.7 134.5L242.7 165.6 235.7 165.6C235.2 165.6 234.7 166.1 234.7 166.6 234.7 167.2 235.2 167.6 235.7 167.6L252.9 167.6C253.2 167.6 253.4 167.5 253.6 167.3 253.8 167.1 253.9 166.9 253.9 166.6L253.9 149.8C253.9 149.2 253.5 148.8 252.9 148.8L251 148.8 265.5 135.1 272.4 141.9C272.7 142.2 273.1 142.3 273.5 142.1 273.9 141.9 274.1 141.6 274.1 141.2L274.1 139.5 275.8 139.5 276 145.2C276 145.5 276.1 145.7 276.4 145.9L279.8 148.8 277.8 148.8C277.5 148.8 277.3 148.9 277.1 149.1 276.9 149.3 276.8 149.5 276.8 149.8L276.8 154.1C275.8 153.5 274.6 153.2 273.4 153.2 269.6 153.2 266.6 156.3 266.6 160.1 266.6 160.6 266.7 161 266.7 161.5 264.3 162.2 262.6 164.4 262.6 167 262.6 167.5 263.1 168 263.6 168 264.1 168 264.6 167.5 264.6 167 264.6 165 266.1 163.4 268.1 163.2 268.4 163.2 268.7 163 268.9 162.7 269.1 162.4 269.1 162.1 269 161.8 268.8 161.2 268.7 160.6 268.7 160 268.7 157.3 270.9 155.1 273.5 155.1 275.2 155.1 276.7 156 277.6 157.4 277.8 157.7 278 157.8 278.4 157.9 278.7 157.9 279 157.8 279.2 157.6 280.2 156.5 281.5 156 282.9 156 283.4 156 283.9 155.5 283.9 155 283.7 154.6 283.3 154.2 282.7 154.2M337 21.4C336.1 22.5 334.1 23.7 329.4 23.9 329.7 23.1 329.8 22.3 329.8 21.5 329.8 21 329.8 20.5 329.7 20L329.9 20C330.1 20 330.3 20 330.5 20L337.5 20C337.6 20.3 337.5 20.8 337 21.4zM331.7 15.3C332 15.3 334.4 15.4 336.5 13.9 336.3 14.6 336 15.4 335.4 16.1 334.4 17.3 332.8 17.9 330.7 18L329.6 18C329.3 16.9 328.9 16 328.4 15.3L331.7 15.3zM324.1 26.8C323.3 27.1 322.5 27.3 321.6 27.5 321.4 27.5 321.1 27.7 321 27.9 320.9 28.1 320.8 28.4 320.9 28.6 320.9 28.6 321.8 32.9 323 36.8 322 36.7 320.9 36.8 319.7 36.9 318.8 37 317.9 37.1 316.9 37.1 315.9 37.1 315 37 314.1 36.9 312.9 36.8 311.8 36.7 310.8 36.8 312 32.9 312.9 28.6 312.9 28.6 313 28.3 312.9 28.1 312.8 27.9 312.7 27.7 312.4 27.5 312.2 27.5 311.3 27.3 310.5 27.1 309.7 26.8 307.3 25.9 305.8 23.8 305.8 21.4 305.8 18.8 306.3 17 307.2 16.1 307.6 15.7 308.1 15.4 308.7 15.3L308.9 15.3C310.3 14.9 312 15 314.1 15.1 315 15.1 316 15.2 317 15.2 318 15.2 318.9 15.2 319.9 15.1 322 15 323.9 15 325.3 15.4 325.9 15.6 326.5 15.9 326.9 16.3 327.9 17.3 328.4 19 328.4 21.6 328 23.8 326.4 25.9 324.1 26.8zM325.8 38.8C325.6 38.5 325.4 38.2 325.2 37.9 324.3 35.1 323.5 31.8 323 29.8 323.2 30.1 323.6 30.3 324.1 30.3 324.9 30.3 325.5 29.7 325.5 28.9 325.5 28.6 325.4 28.4 325.3 28.2 326.3 27.7 327.2 27.1 327.9 26.3 328.1 30.6 327.7 36.5 325.8 38.8zM324.4 43.8C323.6 44.1 320.7 45 316.9 45L316.8 45C312.8 45 309.9 44.1 309 43.8 308.9 43.3 308.9 42.9 308.9 42.4 308.9 42.1 308.9 41.9 308.9 41.7L311.8 42.1C311.9 42.1 311.9 42.1 311.9 42.1 312.4 42.1 312.8 41.8 312.8 41.3 312.9 40.8 312.5 40.3 312 40.2L309.2 39.8C309.3 39.5 309.5 39.3 309.6 39.1 310.3 38.4 311.8 38.6 313.6 38.7 314.5 38.8 315.5 38.9 316.6 38.9 317.7 38.9 318.7 38.8 319.6 38.7 321.3 38.5 322.9 38.4 323.6 39.1 323.8 39.3 323.9 39.5 324 39.8L321.2 40.2C320.7 40.3 320.3 40.8 320.4 41.3 320.5 41.8 320.9 42.1 321.3 42.1 321.3 42.1 321.4 42.1 321.4 42.1L324.3 41.7C324.3 41.9 324.3 42.2 324.3 42.4 324.5 42.9 324.5 43.4 324.4 43.8zM316.7 49.2C313.1 49.2 310.8 48.2 309.7 46.2 311.2 46.6 313.6 47.1 316.5 47.1L316.7 47.1 316.8 47.1C319.7 47.1 322.1 46.6 323.6 46.2 322.6 48.2 320.3 49.2 316.7 49.2zM307.6 38.8C305.7 36.5 305.3 30.5 305.5 26.4 306.2 27.2 307.1 27.8 308.1 28.3 308 28.5 307.9 28.7 307.9 29 307.9 29.8 308.5 30.4 309.3 30.4 309.7 30.4 310.1 30.2 310.4 29.8 309.9 31.8 309.1 35.1 308.2 37.9 308 38.2 307.8 38.5 307.6 38.8zM303.9 18L302.8 18C300.7 17.9 299.1 17.3 298.1 16.1 297.5 15.4 297.2 14.7 297 13.9 299.1 15.4 301.4 15.3 301.8 15.3L305.1 15.3C304.6 16 304.2 16.9 303.9 18zM296.4 21.4C295.9 20.8 295.8 20.3 295.7 19.8L302.8 19.8C303 19.8 303.2 19.8 303.4 19.8L303.6 19.8C303.6 20.3 303.5 20.8 303.5 21.3 303.5 22.1 303.6 23 303.9 23.7 299.3 23.7 297.3 22.5 296.4 21.4zM339.5 18.7L339.3 18 336 18C336.2 17.8 336.5 17.6 336.7 17.3 338.9 14.8 338.4 11.4 338.4 11.2L338 8.6 336.6 10.8C334.9 13.5 331.7 13.3 331.6 13.3L325 13.3C323.3 12.9 321.4 12.9 319.2 13 318.3 13 317.4 13.1 316.4 13.1 315.4 13.1 314.5 13.1 313.6 13 311.5 12.9 309.5 12.8 307.9 13.3L301.5 13.3 301.4 13.3C301.3 13.3 298 13.5 296.4 10.8L295 8.6 294.6 11.2C294.6 11.3 294.1 14.7 296.3 17.3 296.5 17.5 296.7 17.8 297 18L294 18 293.8 18.7C293.8 18.8 293.4 20.7 294.9 22.6 296.5 24.5 299.4 25.6 303.7 25.7 303.6 27.3 303 37.9 307.1 40.9 307 41.3 307 41.8 307 42.3 307 48.1 310.3 51 316.7 51 323.1 51 326.4 48.1 326.4 42.3 326.4 41.8 326.4 41.3 326.3 40.9 330.4 37.9 329.8 27.2 329.7 25.7 334 25.5 336.9 24.5 338.5 22.6 340 20.7 339.6 18.8 339.5 18.7z"/>
    <g fill="#FFF" transform="translate(291 124)">
      <path d="M41.6 29.8C41.6 29.3 41.2 28.9 40.7 28.9 40.2 28.9 39.8 29.3 39.8 29.8 39.8 30.3 40.2 30.7 40.7 30.7 41.2 30.7 41.6 30.3 41.6 29.8M34.3 8C34.3 7.5 33.9 7.1 33.4 7.1 32.9 7.1 32.5 7.5 32.5 8 32.5 8.5 32.9 8.9 33.4 8.9 33.9 8.8 34.3 8.5 34.3 8M8.4 27.6L2.7 27.6C2.2 27.6 1.8 28 1.8 28.5 1.8 29 2.2 29.4 2.7 29.4L7.5 29.4 7.5 43C7.5 43.5 7.9 43.9 8.4 43.9 8.9 43.9 9.3 43.5 9.3 43L9.3 28.5C9.3 28 8.9 27.6 8.4 27.6"/>
      <path d="M47.9,29.7 C47.7,29.6 47.5,29.6 47.3,29.6 C47.3,29.6 47.2,29.6 47.2,29.6 C44.9,29.5 43.5,27.3 43.5,27.3 C43.4,27.2 43.3,27.1 43.2,27 L40.5,25.4 L42.4,23.3 C42.6,23.1 42.7,22.8 42.6,22.5 C42.5,22.2 42.3,22 42,21.9 C39.5,21 37.1,21.7 35.7,22.3 L34.4,21.5 C31.6,19.8 28.1,19 26.4,18.7 L30.3,13.2 C31,13.5 31.8,13.6 32,13.6 L34.9,13.6 C35.4,14.1 36,14.4 36.7,14.4 C36.7,14.4 36.8,14.4 36.8,14.4 C38,14.4 39.3,13.7 40,12.6 C41.3,10.6 40.3,8.9 39.3,8.2 L31.2,1.6 C31.2,1.6 31.2,1.6 31.1,1.6 C28.7,-0.3 25.4,-0.3 23,1.6 C21.7,2.6 21,4.1 20.9,5.7 L18.3,7.6 C12.8,6.2 7.7,7.7 6.6,8.1 L1.3,7.7 C0.8,7.7 0.4,8 0.3,8.5 C0.3,9 0.6,9.4 1.1,9.5 L6.6,9.9 C6.6,9.9 6.6,9.9 6.7,9.9 C6.8,9.9 6.9,9.9 7,9.8 C7,9.8 12.5,7.7 18.2,9.4 C18.5,9.5 18.8,9.4 19,9.3 L21.2,7.7 C21.4,8.2 21.7,8.8 22,9.2 C22.7,10.2 23.8,10.8 25,10.9 C25.2,10.9 25.4,10.9 25.6,10.9 C26.6,10.9 27.6,10.6 28.4,9.9 C29.2,9.3 29.7,8.4 29.8,7.4 C29.9,6.4 29.7,5.4 29,4.6 C28.7,4.2 28.1,4.1 27.7,4.4 C27.3,4.7 27.2,5.3 27.5,5.7 C27.8,6.1 28,6.6 27.9,7.2 C27.8,7.7 27.6,8.2 27.1,8.5 C26.5,8.9 25.8,9.1 25.1,9 C24.4,8.9 23.7,8.5 23.3,8 C22.1,6.4 22.4,4.1 23.9,2.9 C25.7,1.5 28.1,1.6 29.8,3 C29.8,3 29.8,3 29.8,3 L37.9,9.6 C37.9,9.6 37.9,9.6 37.9,9.6 C38.2,9.8 38.9,10.5 38.1,11.6 C37.7,12.2 36.9,12.7 36.3,12.6 C35.9,12.6 35.7,12.4 35.6,12.2 C35.4,11.9 35.2,11.7 34.8,11.7 L31.5,11.7 C31.1,11.7 30.3,11.5 30.2,11.2 C30.1,10.7 29.6,10.4 29.1,10.5 C28.6,10.6 28.3,11.1 28.4,11.6 C28.4,11.7 28.4,11.7 28.5,11.8 L20.9,22.6 C20.8,22.7 20.8,22.8 20.8,22.9 C20.8,23.1 19.7,27.7 16.1,27.7 L13.2,27.7 L13.2,23.8 C13.2,23.3 12.8,22.9 12.3,22.9 C11.8,22.9 11.4,23.3 11.4,23.8 L11.4,43 C11.4,43.5 11.8,43.9 12.3,43.9 C12.8,43.9 13.2,43.5 13.2,43 L13.2,38.5 C14.9,38.5 16.6,38.5 18.3,38.5 C20.8,38.5 22.9,38.5 24,38.5 L24,43 C24,43.5 24.4,43.9 24.9,43.9 C25.4,43.9 25.8,43.5 25.8,43 L25.8,36.7 C25.8,36.2 25.4,35.8 24.9,35.8 C24.4,35.8 24,36.2 24,36.7 C22.3,36.7 17.6,36.7 13.2,36.7 L13.2,29.6 L16.1,29.6 C20,29.6 22,25.8 22.5,23.6 L24.8,20.4 C24.8,20.4 24.9,20.4 24.9,20.4 C24.9,20.4 29.7,21 33,23.1 L33.6,23.5 C33.5,23.8 33.5,24.1 33.7,24.3 C34,24.7 34.5,24.8 34.9,24.5 C34.9,24.5 37,23.1 39.5,23.3 L37.9,25.1 C37.7,25.3 37.7,25.6 37.7,25.8 C37.7,26.1 37.9,26.3 38.1,26.4 L41.5,28.5 C41.9,29.1 43.3,30.8 45.6,31.3 C45.4,31.8 45.2,32.3 45,32.8 C44.6,33.9 44.2,34.8 43.9,35 C43.7,35.1 43.3,35.1 42.3,34.5 C41.9,34.3 41.3,34.4 41.1,34.9 C41,35.1 41,35.2 41,35.4 C39.7,36 36.2,37.3 29.7,37 C31.4,36 31.6,33.4 31.6,33.1 C31.6,32.6 31.3,32.2 30.8,32.1 C30.3,32.1 29.9,32.4 29.8,32.9 C29.8,33.4 29.4,35.2 28.5,35.5 C28.1,35.6 27.8,36 27.8,36.4 L27.8,43 C27.8,43.5 28.2,43.9 28.7,43.9 C29.2,43.9 29.6,43.5 29.6,43 L29.6,38.8 C30.4,38.8 31.1,38.9 31.8,38.9 C38.9,38.9 42,36.9 42.4,36.7 C42.9,36.9 43.2,36.9 43.6,36.9 C43.9,36.9 44.2,36.8 44.4,36.7 C45.6,36.3 46,35 46.6,33.4 C46.9,32.7 47.2,31.8 47.6,30.9 C48.6,30.5 48.4,29.9 47.9,29.7"/>
    </g>
    <rect width="57.6" height="58" x="172.6" y="116" fill="#8ABD56"/>
    <g fill="#FFF" transform="translate(177 64)">
      <path d="M17.3,34.6 C16.4,36.1 15.6,37.6 14.9,39.4 C14.2,37.5 13.3,36 12.4,34.5 C10.7,31.6 9.2,29.1 9.6,24.5 C9.9,21.3 12.1,19.1 14.9,19.1 C17.8,19.1 20.1,21.4 20.2,24.5 C20.4,29.2 18.9,31.8 17.3,34.6 M15.9,17.1 C16.7,15.5 18.6,12.6 22.5,11.5 C23,11.4 23.4,10.8 23.2,10.3 C23,9.8 22.5,9.4 22,9.6 C19.2,10.4 17.2,11.9 15.9,13.5 L15.9,9.4 C15.9,8.8 15.5,8.4 14.9,8.4 C14.3,8.4 13.9,8.9 13.9,9.4 L13.9,13.8 C12.6,12.2 10.6,10.5 7.6,9.7 C7.1,9.6 6.5,9.9 6.4,10.4 C6.3,10.9 6.6,11.5 7.1,11.6 C11.1,12.7 13,15.6 13.7,17.2 C10.4,17.8 7.9,20.6 7.6,24.4 C7.1,29.6 9,32.6 10.7,35.6 C12.3,38.4 13.9,41 13.9,45.5 C13.9,46.1 14.3,46.5 14.9,46.5 C15.5,46.5 15.9,46 15.9,45.5 C15.9,41 17.4,38.4 19,35.7 C20.7,32.8 22.5,29.7 22.2,24.5 C22,20.6 19.4,17.6 15.9,17.1"/>
      <path d="M28.4 13.8C28.8 13 28.9 12.1 28.6 11.3 28.4 10.6 27.9 10 27.3 9.6 27.4 8.3 26.7 6.9 25.3 6.3 25.2 5.1 24.4 4.1 23.3 3.6 21.9 3 20.4 3.3 19.3 4.2 19.1 4 18.8 3.8 18.5 3.7 18.4 3.7 18.4 3.7 18.3 3.6 17.9 1.8 16.1.6 14.1.8 12.4 1 11.1 2.2 10.7 3.7 10.4 3.8 10.1 4 9.9 4.2 8.9 3.3 7.3 3 5.9 3.6 4.7 4.1 4 5.2 3.9 6.3 2.6 6.9 1.8 8.2 1.9 9.6 1.3 10 .9 10.6.6 11.3.3 12.1.4 13.1.8 13.8 1.3 14.7 2.2 15.3 3.2 15.6 3.2 15.6 3.2 15.6 3.2 15.6 3.8 16.8 5.1 17.5 6.4 17.5 6.9 17.5 7.4 17.4 7.9 17.2 8 17.2 8.1 17.1 8.2 17.1 9 17.5 9.8 17.5 10.7 17 11.2 16.8 11.4 16.2 11.2 15.7 11 15.2 10.4 15 9.9 15.2 9.3 15.5 9.2 15.4 8.7 15.1 8.3 14.8 7.8 14.9 7.5 15.2 7.4 15.3 7.2 15.4 7.1 15.5 6.3 15.8 5.4 15.6 5 14.9 5 14.8 4.9 14.7 4.9 14.6 4.8 14.2 4.4 13.9 4 13.8 3.4 13.8 2.9 13.5 2.7 13 2.5 12.6 2.5 12.3 2.6 12.1 2.7 11.7 3 11.5 3.4 11.3L3.5 11.3C3.7 11.2 4 11 4.1 10.8 4.2 10.5 4.2 10.3 4.1 10 3.9 9.4 4.2 8.7 4.8 8.4 4.9 8.4 5 8.3 5.2 8.3 5.5 8.2 5.7 8.1 5.8 7.9 5.9 7.7 6 7.4 5.9 7.1 5.8 6.5 6.1 6 6.7 5.7 7.5 5.4 8.4 5.6 8.8 6.3 8.8 6.3 8.8 6.4 8.9 6.4 9 6.8 9.4 7 9.8 7.1 10.2 7.1 10.6 6.9 10.7 6.5 10.8 6.2 11.1 5.9 11.4 5.8 11.5 5.8 11.6 5.7 11.7 5.7 12.2 5.6 12.5 5.2 12.5 4.7 12.5 3.9 13.2 3.2 14.2 3.1 15.2 3 16.2 3.7 16.3 4.6 16.3 4.7 16.3 4.7 16.3 4.7 16.3 5.2 16.7 5.6 17.1 5.7 17.2 5.7 17.4 5.8 17.5 5.8 17.8 5.9 18.1 6.2 18.2 6.5 18.4 6.9 18.7 7.1 19.1 7.1 19.5 7.1 19.9 6.8 20 6.4 20 6.4 20 6.3 20.1 6.3 20.5 5.6 21.4 5.3 22.2 5.7 22.8 6 23.1 6.5 23 7.1 22.9 7.4 23 7.6 23.1 7.9 23.2 8.1 23.5 8.3 23.7 8.3 23.8 8.3 24 8.4 24.1 8.4 24.8 8.7 25.1 9.4 24.9 10 24.8 10.3 24.8 10.5 24.9 10.8 25 11 25.2 11.2 25.5 11.3 25.5 11.3 25.6 11.3 25.6 11.3 26 11.5 26.2 11.8 26.4 12.1 26.5 12.3 26.5 12.6 26.3 13 26.1 13.5 25.5 13.8 25 13.8 24.5 13.8 24.2 14.1 24.1 14.6 24.1 14.7 24 14.8 24 14.9 23.6 15.6 22.7 15.9 21.9 15.5 21.8 15.4 21.6 15.3 21.5 15.2 21.1 14.9 20.6 14.9 20.3 15.1 20.1 15.3 19.9 15.4 19.9 15.4 19.9 15.4 19.8 15.4 19.4 15.2 18.9 15 18.3 15.2 18.1 15.7 17.9 16.2 18.1 16.8 18.6 17 19.6 17.5 20.2 17.4 20.9 17.1 21 17.1 21.1 17.2 21.2 17.2 22.9 18 25 17.3 25.9 15.7 25.9 15.7 25.9 15.7 25.9 15.7 27 15.3 27.9 14.7 28.4 13.8M36.2 19.3C36.4 19.5 36.7 19.6 36.9 19.6 37.2 19.6 37.5 19.5 37.7 19.3L42.6 13.8C43 13.4 42.9 12.7 42.5 12.4 42.1 12 41.4 12.1 41.1 12.5L36.9 17.1 32.7 12.5C32.3 12.1 31.7 12 31.3 12.4 30.9 12.8 30.9 13.4 31.2 13.8L36.2 19.3z"/>
      <path d="M41.2 18.1L37 22.7 32.8 18.1C32.4 17.7 31.8 17.6 31.4 18 31 18.4 31 19 31.3 19.4L36.2 24.9C36.4 25.1 36.7 25.2 36.9 25.2 37.2 25.2 37.5 25.1 37.7 24.9L42.6 19.4C43 19 42.9 18.3 42.5 18 42.2 17.6 41.5 17.6 41.2 18.1M36.2 8.8C36.2 8.8 36.2 8.8 36.2 8.8 36.3 8.9 36.3 8.9 36.2 8.8 36.3 8.9 36.4 9 36.6 9 36.6 9 36.6 9 36.6 9 36.7 9 36.8 9.1 37 9.1 37 9.1 37 9.1 37 9.1 37.1 9.1 37.2 9.1 37.4 9 37.4 9 37.4 9 37.4 9 37.5 9 37.6 8.9 37.7 8.8 37.7 8.8 37.7 8.8 37.7 8.8 37.7 8.8 37.7 8.8 37.7 8.8L40.9 5.2C41.3 4.8 41.3 4.1 40.8 3.8 40.4 3.4 39.8 3.5 39.4 3.9L37.9 5.5 37.9 1.4C37.9.8 37.4.4 36.9.4 36.3.4 35.9.9 35.9 1.4L35.9 5.5 34.4 3.9C34 3.5 33.4 3.5 33 3.8 32.6 4.2 32.6 4.8 32.9 5.2L36.2 8.8z"/>
      <path d="M36.2 14C36.4 14.2 36.7 14.3 36.9 14.3 37.2 14.3 37.5 14.2 37.7 14L41.8 9.4C42.2 9 42.1 8.3 41.7 8 41.3 7.6 40.6 7.7 40.3 8.1L36.9 11.9 33.5 8.1C33.1 7.7 32.5 7.7 32.1 8 31.7 8.4 31.7 9 32 9.4L36.2 14zM46.6 34.3C43.1 34.3 39.9 36.1 38 38.7L38 30.2 42.7 25C43.1 24.6 43 24 42.6 23.6 42.2 23.2 41.5 23.3 41.2 23.7L37 28.4 32.8 23.7C32.4 23.3 31.8 23.3 31.4 23.6 31 24 31 24.6 31.3 25L36 30.2 36 38.7C34.1 36 30.9 34.3 27.4 34.3 26.8 34.3 26.4 34.8 26.4 35.3 26.4 35.9 26.9 36.3 27.4 36.3 32.1 36.3 36 40.2 36 44.9 36 45.5 36.5 45.9 37 45.9 37.6 45.9 38 45.4 38 44.9 38 40.1 41.9 36.3 46.6 36.3 47.2 36.3 47.6 35.8 47.6 35.3 47.6 34.7 47.1 34.3 46.6 34.3"/>
    </g>
    <g fill="#FFF" transform="translate(239 5)">
      <path d="M26.5 30.4C26.5 29.4 26.8 28.4 27.3 27.5L36.9 27.5C37.4 28.4 37.7 29.3 37.7 30.4 37.7 33.5 35.2 36 32.1 36 29 36 26.5 33.5 26.5 30.4M39.4 30.4C39.4 28.8 38.9 27.2 38 25.9 37.8 25.6 37.5 25.5 37.2 25.5L26.5 25.5C26.2 25.5 25.9 25.7 25.7 25.9 24.8 27.2 24.3 28.8 24.3 30.4 24.3 34.3 27.2 37.5 30.9 38L30.9 45.4 27.9 45.4C27.3 45.4 26.9 45.9 26.9 46.4 26.9 47 27.4 47.4 27.9 47.4L36 47.4C36.6 47.4 37 46.9 37 46.4 37 45.8 36.5 45.4 36 45.4L33 45.4 33 38C36.5 37.5 39.4 34.3 39.4 30.4M7.4 36.3C6.4 36.3 5.6 37.1 5.6 38.2 5.6 39.2 6.4 40.1 7.4 40.1 8.4 40.1 9.2 39.3 9.2 38.2 9.3 37.1 8.5 36.3 7.4 36.3M11.9 39.8C11.1 39.8 10.4 40.5 10.4 41.3 10.4 42.1 11.1 42.8 11.9 42.8 12.7 42.8 13.3 42.1 13.3 41.3 13.3 40.4 12.7 39.8 11.9 39.8"/>
      <path d="M7.5,45.5 C7.8,45.2 8,44.7 8,44.2 C8,43.2 7.2,42.3 6.2,42.3 C5.2,42.3 4.4,43.1 4.4,44.2 C4.4,44.7 4.6,45.2 4.9,45.5 L3,45.5 C2.2,41.8 3.5,37.3 6.2,34.1 L17.9,41.7 C17.3,41.9 16.8,42.4 16.8,43.1 C16.8,43.9 17.4,44.6 18.2,44.6 C19,44.6 19.6,44 19.6,43.1 C19.6,43 19.6,42.9 19.6,42.8 L23.6,45.4 L7.5,45.4 L7.5,45.5 Z M9.9,24.6 C9.9,20.8 10.8,19.1 11.6,17.8 L11.7,17.7 C12.9,15.6 13.5,14.2 13.6,13.3 C13.7,12.5 13.7,8.4 13.7,5 C13.7,4.6 13.4,4.2 13.1,4.1 L13.1,2.7 L17.5,2.7 L17.5,4.2 C17.4,4.2 17.3,4.3 17.3,4.4 C17.1,4.6 17,4.9 17,5.1 C17,7.3 17.1,12.5 17.2,13.4 C17.4,14.6 18.5,16.6 19.1,17.8 L19.2,17.9 C20,19.3 20.9,21 20.9,24.8 L20.9,41.3 L9.9,34 L9.9,24.6 Z M27.7,45.6 L22.9,42.5 C22.9,42.5 22.9,42.5 22.9,42.5 L22.9,24.6 C22.9,20.3 21.8,18.2 20.9,16.7 L20.8,16.6 C19.9,14.9 19.2,13.5 19.1,12.9 C19,12.4 18.9,9.6 18.9,5.9 C19.2,5.7 19.4,5.4 19.4,5 L19.4,1.7 C19.4,1.1 18.9,0.7 18.4,0.7 L12,0.7 C11.4,0.7 11,1.2 11,1.7 L11,5.1 C11,5.5 11.3,5.9 11.6,6.1 C11.6,10.4 11.6,12.7 11.5,13.1 C11.5,13.4 11.2,14.3 9.8,16.8 L9.7,16.9 C9.1,18.1 8.2,19.6 7.9,22.2 L7.8,24.3 C7.8,24.5 7.8,32.9 7.8,32.9 L6.5,32.1 C6.1,31.8 5.5,31.9 5.2,32.3 C3.4,34.1 2.1,36.4 1.4,38.7 L0.9,40.7 C0.5,42.8 0.6,45 1.1,47 C1.2,47.4 1.6,47.7 2.1,47.7 L27.1,47.7 C27.6,47.7 28,47.4 28.1,47 C28.2,46.3 28.1,45.9 27.7,45.6 Z"/>
    </g>
    <g fill="#FFF" transform="translate(294 61)">
      <g transform="translate(21 27)">
        <path d="M3.7,4.4 C3.1,3.9 2.6,3.3 2.3,2.6 C3,2.8 3.7,3.2 4.3,3.7 C4.9,4.2 5.4,4.8 5.7,5.5 C5,5.4 4.3,5 3.7,4.4 M7.3,7 C7.4,6.9 7.5,6.7 7.5,6.5 C7.5,6.4 7.5,6.4 7.5,6.3 C7.3,5 6.5,3.6 5.3,2.6 C4.1,1.6 2.7,1 1.3,0.9 C1.1,0.9 0.9,1 0.7,1.2 C0.5,1.4 0.5,1.6 0.5,1.8 C0.7,3.1 1.5,4.5 2.7,5.5 C3.9,6.5 5.3,7.1 6.7,7.2 C7,7.2 7.2,7.2 7.3,7"/>
        <path d="M10.5,20.7 C6.9,20.7 4,17.8 4,14.2 C4,11.5 5.5,9.8 7.8,9.8 C8.5,9.8 9.3,10 10.1,10.3 C10.3,10.4 10.6,10.4 10.8,10.3 C11.6,10 12.4,9.9 13.1,9.9 C15.5,9.9 17,11.6 17,14.2 C17,17.8 14.1,20.7 10.5,20.7 M13.1,7.8 C12.6,7.8 12,7.9 11.5,8 C11.3,7.1 10.9,5.7 9.8,4.6 C9.4,4.2 8.8,4.2 8.4,4.6 C8,5 8,5.6 8.4,6 C8.9,6.6 9.3,7.3 9.4,7.9 C8.9,7.8 8.3,7.7 7.8,7.7 C4.4,7.7 2,10.3 2,14.1 C2,18.8 5.8,22.6 10.5,22.6 C15.2,22.6 19,18.8 19,14.1 C19,10.4 16.6,7.8 13.1,7.8"/>
      </g>
      <path d="M40.3 13.2C39.8 13.2 39.4 13.1 39 12.8 39 12.8 38.9 12.7 38.9 12.7 38.2 12.3 37.8 11.5 37.8 10.7 37.8 10.7 37.8 10.6 37.8 10.6 37.8 10.6 37.8 10.5 37.8 10.5 37.9 9.1 39 8 40.4 8 41.8 8 43 9.2 43 10.6 42.9 12 41.8 13.2 40.3 13.2M36.8 19.4C35.4 19.4 34.3 18.3 34.2 16.9L34.2 16.8 34.2 16.7C34.3 15.3 35.4 14.2 36.8 14.2 37.3 14.2 37.7 14.3 38.1 14.6 38.1 14.6 38.2 14.7 38.2 14.7 38.9 15.2 39.3 16 39.3 16.9 39.4 18.2 38.2 19.4 36.8 19.4M33.3 25.6C31.9 25.6 30.7 24.4 30.7 23 30.7 21.6 31.9 20.4 33.3 20.4 34.7 20.4 35.9 21.6 35.9 23 35.9 24.4 34.7 25.6 33.3 25.6M27.1 16.8C27.1 15.4 28.3 14.2 29.7 14.2 30.2 14.2 30.6 14.3 31 14.6 31.1 14.6 31.1 14.7 31.2 14.7 31.8 15.1 32.3 15.9 32.3 16.7 32.3 16.7 32.3 16.8 32.3 16.8 32.3 16.8 32.3 16.9 32.3 16.9 32.2 18.3 31.1 19.4 29.7 19.4 28.3 19.4 27.1 18.2 27.1 16.8M23.6 10.6C23.6 9.2 24.8 8 26.2 8 27.6 8 28.7 9.1 28.8 10.5 28.8 10.5 28.8 10.6 28.8 10.6 28.8 10.6 28.8 10.7 28.8 10.7 28.7 12.1 27.6 13.2 26.2 13.2 24.7 13.2 23.6 12 23.6 10.6M33.2 8C34.6 8 35.7 9.1 35.8 10.5 35.8 10.5 35.8 10.6 35.8 10.6 35.8 10.6 35.8 10.7 35.8 10.7 35.7 12.1 34.6 13.2 33.2 13.2 32.7 13.2 32.3 13.1 31.9 12.8 31.8 12.8 31.8 12.7 31.7 12.7 31.1 12.3 30.6 11.5 30.6 10.7 30.6 10.7 30.6 10.6 30.6 10.6 30.6 10.6 30.6 10.5 30.6 10.5 30.7 9.1 31.9 8 33.2 8M44.9 10.6C44.9 8.1 42.9 6 40.4 6 39 6 37.7 6.7 36.9 7.7 36.2 6.8 35.1 6.1 33.9 6 33.9 6 33.9 6 33.9 6L33.9 3.5 35.5 3.9C35.6 3.9 35.6 3.9 35.7 3.9 36.1 3.9 36.6 3.6 36.7 3.1 36.8 2.6 36.5 2 36 1.9L29.5.4C29 .3 28.5.6 28.3 1.1 28.2 1.6 28.5 2.1 29 2.3L31.9 3 31.9 6C31.9 6.1 31.9 6.2 32 6.2 31.1 6.5 30.4 7 29.8 7.7 29 6.7 27.7 6 26.3 6 23.8 6 21.8 8 21.8 10.6 21.8 12.9 23.5 14.8 25.7 15.1 25.5 15.6 25.4 16.2 25.4 16.8 25.4 19.1 27.1 21 29.3 21.3 29.1 21.8 29 22.4 29 23 29 25.5 31 27.6 33.5 27.6 36 27.6 38 25.5 38 23 38 22.4 37.9 21.8 37.7 21.3 39.9 21 41.6 19.1 41.6 16.8 41.6 16.2 41.5 15.6 41.3 15.1 43.2 14.8 44.9 12.9 44.9 10.6M7.1 39.6C7.4 39.3 7.6 39 7.9 38.7 8.4 38.2 8.8 37.7 9.2 37.3 9.4 37.6 9.6 37.9 9.9 38.3 10.3 38.9 10.8 39.6 11.4 40.4L11.4 47.8C11.4 47.9 11.4 47.9 11.4 48L7.2 48 7.2 39.8C7.1 39.7 7.1 39.6 7.1 39.6M2.6 30C2.6 25.7 4 19.6 6.2 16.3 8.4 19.6 9.8 25.7 9.8 30 9.8 33.8 8.7 35 6.5 37.4 6.4 37.5 6.3 37.6 6.2 37.7 6.1 37.6 6 37.5 5.9 37.4 3.7 35 2.6 33.8 2.6 30M12.3 6.3C14.7 11.3 16.3 21 16.3 27.6 16.3 32.8 15.2 34.4 13.2 37.1 12.9 37.5 12.6 37.9 12.3 38.3 12 37.9 11.7 37.4 11.4 37.1 11 36.6 10.7 36.1 10.4 35.6 11.2 34.2 11.7 32.6 11.7 30 11.7 26.4 10.8 21.5 9.2 17.8 9.9 13.4 10.9 9.1 12.3 6.3M17.6 47.9L15.6 47.9 13.7 47.9 13.3 47.9C13.3 47.8 13.3 47.8 13.3 47.7L13.3 40.3C13.8 39.5 14.3 38.8 14.8 38.2 16.9 35.3 18.3 33.4 18.3 27.5 18.3 20.8 16.5 8.8 13.2 3.7 12.8 3.2 11.9 3.2 11.6 3.7 9.9 6.2 8.7 10.5 7.8 15 7.6 14.6 7.3 14.3 7 14 6.8 13.8 6.6 13.7 6.3 13.7 6 13.7 5.8 13.8 5.6 14 2.6 17.3.8 24.9.8 30 .8 34.5 2.3 36.2 4.6 38.7 4.8 39 5.1 39.2 5.4 39.5 5.4 39.6 5.4 39.6 5.4 39.7L5.4 47.9 2.1 47.9C1.6 47.9 1.1 48.3 1.1 48.9 1.1 49.4 1.5 49.9 2.1 49.9L17.8 49.9C18.3 49.9 18.8 49.5 18.8 48.9 18.6 48.4 18.1 47.9 17.6 47.9"/>
    </g>
    <g fill="#FFF" transform="translate(178 133)">
      <path d="M35.4,19.1 C33.7,17.8 32.7,15.7 32.7,13.5 C32.7,12.3 33,11.1 33.5,10.1 C33.8,9.6 33.6,9 33.1,8.7 C32.6,8.4 32,8.6 31.7,9.1 C31,10.4 30.6,11.9 30.6,13.4 C30.6,15.7 31.4,17.9 32.9,19.5 C31.3,19.8 29.7,19.9 28,19.9 C26.5,19.9 25,19.8 23.5,19.5 C24,19 24.4,18.5 24.9,18 C25.3,17.6 25.2,16.9 24.8,16.6 C24.4,16.2 23.7,16.3 23.4,16.7 C22.7,17.6 21.9,18.4 21.1,19 C17,17.9 13.1,16 9.8,13.2 C15,8.9 21.3,6.6 27.9,6.6 C34.5,6.6 40.8,8.9 46.1,13.3 C43,16.1 39.3,18 35.4,19.1 M48.5,12.6 C43.4,8.1 37.4,5.4 31.1,4.8 C30.4,4 28.1,1.7 22.1,0.3 C21.6,0.2 21,0.5 20.9,1.1 C20.8,1.6 21.1,2.2 21.7,2.3 C24.7,3 26.6,3.9 27.8,4.6 C20.7,4.7 14,7.3 8.5,11.9 C6.1,9.6 4,7 2.3,4 C2,3.5 1.4,3.3 0.9,3.6 C0.4,3.9 0.2,4.5 0.5,5 C2.3,8.2 4.5,10.9 6.9,13.3 C4.4,15.7 2.2,18.4 0.4,21.6 C0.1,22.1 0.3,22.7 0.8,23 C1,23.1 1.1,23.1 1.3,23.1 C1.6,23.1 2,22.9 2.2,22.6 C3.9,19.5 6,16.9 8.4,14.6 C11.6,17.3 15.3,19.4 19.2,20.6 C18.3,21.2 17.4,21.6 16.5,22 C16,22.2 15.7,22.8 15.9,23.3 C16,23.7 16.4,24 16.8,24 C16.9,24 17,24 17.1,23.9 C18.7,23.3 20.2,22.4 21.7,21.3 C23.8,21.8 25.9,22 28.1,22 C35.5,22 42.6,19.3 48.4,14.1 C48.5,14 48.6,13.8 48.7,13.6 C48.9,13.3 48.8,12.9 48.5,12.6"/>
      <path d="M39.1,14.3 C39.9,14.3 40.5,13.6 40.5,12.8 C40.5,12 39.9,11.3 39.1,11.3 C38.3,11.3 37.7,12 37.7,12.8 C37.7,13.7 38.3,14.3 39.1,14.3"/>
    </g>
    <g fill="#FFF" transform="translate(180 6)">
      <path d="M44.3,36.7 C43.6,32.3 38.4,24.5 37.7,23.5 L36.2,19.3 C36.2,19.2 36.1,19.2 36.1,19.1 L29.9,10.2 L30.7,1.8 C30.7,1.4 30.6,1.1 30.3,0.9 C30,0.7 29.6,0.7 29.3,0.9 C29.1,1 25.6,3.1 22.6,6.5 C20.4,6.2 12,5.7 0.9,13 C0.5,13.3 0.3,13.9 0.6,14.3 C0.8,14.6 1.1,14.7 1.4,14.7 C1.6,14.7 1.8,14.7 1.9,14.5 C10.9,8.6 18,8.1 21.1,8.2 C20.6,8.9 20.1,9.7 19.7,10.5 C19.5,11 19.6,11.6 20.1,11.8 C20.6,12.1 21.1,11.9 21.4,11.4 C23.3,7.8 26.7,5 28.7,3.5 L28.1,10.3 C28.1,10.6 28.2,10.9 28.4,11.1 L34.7,20.1 L36.2,24.3 C36.2,24.4 36.3,24.4 36.3,24.5 C36.4,24.6 40.5,30.6 42.1,34.9 C41.8,34.8 41.5,34.8 41.3,34.8 C40.2,34.8 39.1,35.6 38.7,36.7 C38.3,37.6 38.4,38.6 39,39.2 C39.2,39.4 39.5,39.5 39.7,39.5 C39.9,39.5 40.1,39.4 40.3,39.3 C40.7,38.9 40.7,38.3 40.4,37.9 C40.3,37.8 40.3,37.6 40.4,37.4 C40.6,37 41,36.7 41.3,36.7 C41.7,36.7 42.5,36.8 42.5,37.9 C42.5,39 41.6,41.6 38.9,41.8 C38.9,41.8 38.9,41.8 38.9,41.8 C38.6,41.3 37.9,40.5 36.8,39.4 C36.4,39 35.8,39 35.4,39.4 C35,39.8 35,40.4 35.4,40.8 C35.9,41.3 36.4,41.9 36.8,42.3 C35.9,42.8 34.7,42.4 33.8,41.6 C32.5,40.5 31.6,38.6 33.3,36.4 C33.6,36 33.6,35.4 33.1,35 C32.7,34.7 32.1,34.7 31.8,35.2 C31.4,35.7 31.2,36.1 31,36.6 L24.7,31.6 C24.4,31.4 24.1,31.3 23.8,31.4 C23.8,31.4 20.8,32.4 18.2,30.2 C17.8,29.9 17.5,29.5 17.2,29.1 C17.2,28.9 17.1,28.8 17,28.7 C15.8,26.3 16.3,22.8 18.5,20.2 C18.8,19.8 18.8,19.2 18.4,18.8 C18,18.5 17.4,18.5 17.1,18.9 C14.4,22 13.8,26.2 15.2,29.3 L3,45.8 C2.7,46.2 2.8,46.8 3.2,47.1 C3.4,47.2 3.6,47.3 3.8,47.3 C4.1,47.3 4.4,47.2 4.6,46.9 L16.4,31 C16.6,31.2 16.8,31.4 17,31.7 C19.7,34.1 22.7,33.7 23.9,33.5 L30.5,38.7 C30.4,40.5 31.4,42.1 32.6,43.1 C33.7,43.9 34.8,44.4 35.9,44.4 C36.8,44.4 37.7,44.1 38.3,43.5 C38.5,43.7 38.7,43.8 39,43.8 L39.1,43.8 C41.3,43.7 44.9,40 44.3,36.7"/>
      <circle cx="31.2" cy="21.8" r="1.6"/>
    </g>
  </g>
</svg>
