<?xml version="1.0" encoding="UTF-8"?>
<svg width="86px" height="85px" viewBox="0 0 86 85" version="1.1" xmlns="http://www.w3.org/2000/svg" xmlns:xlink="http://www.w3.org/1999/xlink">
    <!-- Generator: Sketch 47.1 (45422) - http://www.bohemiancoding.com/sketch -->
    <title>Page 1</title>
    <desc>Created with Sketch.</desc>
    <defs>
        <polygon id="path-1" points="0 85 85.6363439 85 85.6363439 0.0498179128 0 0.0498179128"></polygon>
    </defs>
    <g id="Symbols" stroke="none" stroke-width="1" fill="none" fill-rule="evenodd">
        <g id="mobile-header">
            <g id="Header">
                <g id="Page-1">
                    <polygon id="Fill-1" fill="#E74427" points="28.6666667 85 57.3333333 85 57.3333333 56.6666667 28.6666667 56.6666667"></polygon>
                    <polygon id="Fill-71" fill="#80BA27" points="57.3333333 85 86 85 86 56.6666667 57.3333333 56.6666667"></polygon>
                    <polygon id="Fill-2" fill="#30B3E8" points="0 56.6666667 28.6666667 56.6666667 28.6666667 28.3333333 0 28.3333333"></polygon>
                    <polygon id="Fill-3" fill="#006943" points="28.6666667 56.6666667 57.3333333 56.6666667 57.3333333 28.3333333 28.6666667 28.3333333"></polygon>
                    <polygon id="Fill-4" fill="#F6A723" points="57.3333333 56.6666667 86 56.6666667 86 28.3333333 57.3333333 28.3333333"></polygon>
                    <polygon id="Fill-5" fill="#80BA27" points="0 28.3333333 28.6666667 28.3333333 28.6666667 0 0 0"></polygon>
                    <polygon id="Fill-6" fill="#E74892" points="28.6666667 28.3333333 57.3333333 28.3333333 57.3333333 0 28.6666667 0"></polygon>
                    <polygon id="Fill-7" fill="#80BA27" points="57.3333333 28.3333333 86 28.3333333 86 0 57.3333333 0"></polygon>
                    <polygon id="Fill-8" fill="#006943" points="28.6666667 56.6666667 57.3333333 56.6666667 57.3333333 28.3333333 28.6666667 28.3333333"></polygon>
                    <g id="Group-77">
                        <path d="M37.372561,39.3519996 C37.2576531,39.3759816 36.9939906,39.3971421 36.8785139,39.4047599 C36.8785139,39.5884332 37.0045144,39.8028598 37.357202,39.8028598 C37.4760918,39.8028598 37.6487381,39.7873421 37.7991992,39.7142678 L37.8168336,39.7120106 L37.8407253,39.7120106 L37.8407253,39.9859689 L37.8242286,39.990201 C37.6777495,40.0347791 37.5079475,40.0601717 37.3560643,40.0601717 C37.0702167,40.0601717 36.864577,39.9944331 36.7283372,39.8604164 C36.5943728,39.7263998 36.5295238,39.5257981 36.5295238,39.2495827 C36.5312304,38.7358053 36.8091141,38.4291188 37.275003,38.4291188 C37.660684,38.4302473 37.8904998,38.5947351 37.8904998,38.8729254 C37.8904998,39.1291088 37.7272396,39.2817467 37.372561,39.3519996 Z M37.2599285,38.644674 L37.259644,38.6675273 C36.9288572,38.668938 36.8785139,38.9541818 36.8785139,39.1243124 L36.8785139,39.1669156 C37.4368411,39.1488586 37.551749,39.043056 37.551749,38.8892896 C37.551749,38.7944904 37.5207466,38.6675273 37.2599285,38.6675273 L37.2599285,38.644674 Z" id="Fill-9" fill="#F6A723"></path>
                        <mask id="mask-2" fill="white">
                            <use xlink:href="#path-1"></use>
                        </mask>
                        <g id="Clip-12"></g>
                        <polygon id="Fill-11" fill="#F6A723" mask="url(#mask-2)" points="31.9428571 38.3054043 32.2860115 38.3054043 32.2860115 37.940613 31.9428571 37.940613"></polygon>
                        <path d="M49.525733,38.4291188 C49.2290772,38.4291188 48.930146,38.4866754 48.8325881,38.5148894 L48.8152381,38.5196858 L48.8152381,40.0254685 L49.1591085,40.0254685 L49.1591085,38.7465266 C49.2640615,38.7219804 49.3968882,38.7087198 49.5356879,38.7087198 C49.6858645,38.7087198 49.8067454,38.7541444 49.8585108,38.8303223 C49.9062943,38.9031144 49.9062943,38.9764709 49.9062943,39.2837217 L49.9062943,40.0254685 L50.2495958,40.0254685 L50.2495958,39.1889226 C50.2495958,38.9186322 50.2495958,38.7400374 50.1179068,38.5927601 C50.0177891,38.4841361 49.817838,38.4291188 49.525733,38.4291188" id="Fill-13" fill="#F6A723" mask="url(#mask-2)"></path>
                        <path d="M51.5830127,38.4291188 C51.4336893,38.4291188 51.2707135,38.4525364 51.0986361,38.4996538 L51.0807173,38.5050145 L51.0807173,38.8080332 L51.1270786,38.8057761 C51.2863569,38.7403195 51.4467729,38.7036413 51.5813062,38.7036413 C51.7949097,38.7036413 51.8634562,38.7504766 51.9086799,38.8320151 C51.9240389,38.863897 51.9339938,38.9149643 51.9339938,38.9663139 L51.9339938,38.9840887 C51.7940564,38.9917065 51.6936542,39.0018635 51.5699291,39.014842 C51.1370335,39.0639344 50.9447619,39.23209 50.9447619,39.5610656 C50.9447619,39.8779091 51.1788441,40.0593253 51.5881324,40.0593253 C51.8375735,40.0593253 52.1228523,39.9947152 52.2534036,39.9315158 L52.2676249,39.9247444 L52.2676249,38.9770352 C52.2676249,38.874054 52.2514126,38.7913869 52.2201258,38.7205697 C52.1302474,38.5256108 51.9223323,38.4291188 51.5830127,38.4291188 M51.4925654,39.2958537 C51.5528636,39.278361 51.6336404,39.2639719 51.717546,39.2566362 L51.8060023,39.2487363 C51.8540702,39.2447863 51.8913299,39.2397078 51.9339938,39.238015 L51.9339938,39.765053 C51.8617497,39.7980634 51.7354648,39.8192239 51.6148684,39.8192239 C51.3941542,39.8192239 51.2892012,39.7317605 51.2892012,39.5435729 C51.2892012,39.4154812 51.3543346,39.3339427 51.4925654,39.2958537" id="Fill-14" fill="#F6A723" mask="url(#mask-2)"></path>
                        <path d="M47.3333707,38.4291188 C46.8324974,38.4291188 46.5219048,38.7451159 46.5219048,39.2515577 C46.5219048,39.7565888 46.816854,40.0581968 47.3123232,40.0581968 C47.8299776,40.0581968 48.1368727,39.7520746 48.1368727,39.2399899 C48.1368727,38.7479373 47.822867,38.4291188 47.3333707,38.4291188 M47.330242,39.7963706 C47.0139609,39.7963706 46.8728858,39.62624 46.8728858,39.2484542 C46.8728858,38.7880012 47.1200516,38.6917914 47.3276822,38.6917914 C47.6334396,38.6917914 47.7873138,38.8799789 47.7873138,39.2515577 C47.7873138,39.6124151 47.6340084,39.7963706 47.330242,39.7963706" id="Fill-15" fill="#F6A723" mask="url(#mask-2)"></path>
                        <path d="M39.4360981,38.4291188 C39.272269,38.4291188 39.1294874,38.4926003 38.9943853,38.6240777 L38.9943853,38.4615649 L38.6590476,38.4615649 L38.6590476,40.0265971 L39.0006426,40.0265971 L38.997514,38.9287892 C39.0245344,38.8830825 39.1317628,38.7335481 39.3689736,38.7335481 C39.4093621,38.7335481 39.4474751,38.7377802 39.482175,38.747373 L39.5111864,38.7549908 L39.5111864,38.4384294 L39.4929832,38.4350437 C39.4804684,38.4322223 39.4611275,38.4291188 39.4360981,38.4291188" id="Fill-16" fill="#F6A723" mask="url(#mask-2)"></path>
                        <path d="M44.7749724,39.8484859 C44.5744524,39.8484859 44.5519828,39.7525582 44.5519828,39.6814589 L44.5519828,38.786792 L44.837546,38.786792 L44.837546,38.5297622 L44.5519828,38.5297622 L44.5519828,38.1034483 L44.2146541,38.1034483 L44.2146541,38.5297622 L44.0647619,38.5297622 L44.0647619,38.786792 L44.2146541,38.786792 L44.2146541,39.7203942 C44.2146541,39.9847597 44.3659685,40.1286512 44.6401547,40.1286512 C44.7362905,40.1286512 44.8000018,40.1286512 44.8574557,40.122162 L44.8785032,40.1196227 L44.8785032,39.8403039 L44.8520517,39.8431253 C44.8275911,39.8467931 44.7985797,39.8484859 44.7749724,39.8484859" id="Fill-17" fill="#F6A723" mask="url(#mask-2)"></path>
                        <path d="M40.8455348,38.4291188 C40.5460347,38.4291188 40.2488101,38.4866754 40.1509677,38.5148894 L40.1333333,38.5196858 L40.1333333,40.0254685 L40.4783415,40.0254685 L40.4783415,38.7465266 C40.5838633,38.7219804 40.71669,38.7087198 40.8549208,38.7087198 C41.004813,38.7087198 41.1242717,38.7541444 41.176606,38.8303223 C41.2252428,38.9031144 41.2252428,38.9764709 41.2252428,39.2837217 L41.2252428,40.0254685 L41.5688288,40.0254685 L41.5688288,39.1889226 C41.5688288,38.9186322 41.5688288,38.7400374 41.4377086,38.5927601 C41.3373064,38.4841361 41.1376397,38.4291188 40.8455348,38.4291188" id="Fill-18" fill="#F6A723" mask="url(#mask-2)"></path>
                        <path d="M42.7375828,38.4291188 C42.5874062,38.4291188 42.4238615,38.4525364 42.252353,38.4996538 L42.235003,38.5050145 L42.235003,38.8080332 L42.2816488,38.8057761 C42.4377984,38.7403195 42.5990676,38.7036413 42.735023,38.7036413 C42.9500487,38.7036413 43.0166043,38.7504766 43.0586992,38.8320151 C43.076618,38.8653077 43.0862885,38.9149643 43.0862885,38.9663139 L43.0862885,38.9840887 C42.9477733,38.9917065 42.8470867,39.0018635 42.7227927,39.014842 C42.2913193,39.0639344 42.0990476,39.23209 42.0990476,39.5610656 C42.0990476,39.8779091 42.3334142,40.0593253 42.7407115,40.0593253 L42.7412804,40.0593253 C42.9907215,40.0593253 43.2757159,39.9947152 43.406836,39.9315158 L43.4193508,39.9247444 L43.4193508,38.9770352 C43.4193508,38.8751826 43.4039918,38.7913869 43.372705,38.7205697 C43.2828265,38.5256108 43.0751959,38.4291188 42.7375828,38.4291188 M42.643438,39.2958537 C42.7051583,39.278361 42.7882106,39.2639719 42.8712628,39.2566362 L42.9605724,39.2487363 C43.0080715,39.2447863 43.0450468,39.2397078 43.0862885,39.238015 L43.0862885,39.765053 C43.0151821,39.7980634 42.8900349,39.8192239 42.7688697,39.8192239 C42.5464489,39.8192239 42.4414959,39.7317605 42.4414959,39.5435729 C42.4414959,39.4154812 42.5077671,39.3339427 42.643438,39.2958537" id="Fill-19" fill="#F6A723" mask="url(#mask-2)"></path>
                        <path d="M35.9634087,39.764126 C35.9173318,39.776258 35.8715393,39.7816187 35.7978731,39.7816187 C35.6585046,39.7816187 35.5987752,39.7000801 35.5987752,39.5104819 L35.5987752,38.7145641 L35.9420768,38.7145641 L35.9420768,38.4566879 L35.5987752,38.4566879 L35.5987752,38.1034483 L35.2642908,38.1034483 L35.2642908,38.4566879 L35.0552381,38.4566879 L35.0552381,38.7145641 L35.2642908,38.7145641 L35.2642908,39.5189461 C35.2642908,39.7203942 35.301835,39.850743 35.3843184,39.9300245 C35.46026,40.0118452 35.5797187,40.055859 35.7213626,40.055859 C35.824609,40.055859 35.9224514,40.0411877 35.9927045,40.013538 L36.0074946,40.0070488 L35.9904291,39.7548154 L35.9634087,39.764126 Z" id="Fill-20" fill="#F6A723" mask="url(#mask-2)"></path>
                        <path d="M33.7994498,38.4291188 C33.5008031,38.4291188 33.2027252,38.4866754 33.1065893,38.5148894 L33.0895238,38.5196858 L33.0895238,40.0254685 L33.4316877,40.0254685 L33.4316877,38.7465266 C33.5372095,38.7219804 33.6700362,38.7087198 33.8076982,38.7087198 C33.9601502,38.7087198 34.077618,38.7530158 34.1305211,38.8303223 C34.1800111,38.9031144 34.1800111,38.9764709 34.1800111,39.2837217 L34.1800111,40.0254685 L34.5233127,40.0254685 L34.5233127,39.1889226 C34.5233127,38.9186322 34.5233127,38.7400374 34.390486,38.5927601 C34.2917904,38.4841361 34.0918392,38.4291188 33.7994498,38.4291188" id="Fill-21" fill="#F6A723" mask="url(#mask-2)"></path>
                        <polygon id="Fill-22" fill="#F6A723" mask="url(#mask-2)" points="31.9428571 39.9938688 32.2854443 39.9938688 32.2854443 38.4291188 31.9428571 38.4291188"></polygon>
                        <polygon id="Fill-23" fill="#F6A723" mask="url(#mask-2)" points="45.5390476 39.9938688 45.8816348 39.9938688 45.8816348 38.4291188 45.5390476 38.4291188"></polygon>
                        <polygon id="Fill-24" fill="#F6A723" mask="url(#mask-2)" points="45.5390476 38.3056873 45.8816348 38.3056873 45.8816348 37.940613 45.5390476 37.940613"></polygon>
                        <path d="M46.1665237,75.4108136 L46.1665237,72.6650243 C46.1665237,72.3924768 45.942112,72.171561 45.6699168,72.171561 L42.8285061,72.171561 C42.5571642,72.171561 42.3327525,72.3924768 42.3327525,72.6650243 L42.3327525,75.4108136 C42.3327525,75.679129 42.5571642,75.9017377 42.8285061,75.9017377 L45.6699168,75.9017377 C45.942112,75.9017377 46.1665237,75.679129 46.1665237,75.4108136 L46.1665237,75.4108136 Z M43.3216999,74.9181966 L45.1775762,74.9181966 L45.1775762,73.1525627 L43.3216999,73.1525627 L43.3216999,74.9181966 Z" id="Fill-25" fill="#FEFEFE" mask="url(#mask-2)"></path>
                        <path d="M54.4985125,75.3248172 C53.7851733,75.3248172 53.1110849,75.5381153 52.5376831,75.9376259 L52.5376831,73.7513208 L54.3662546,73.7606315 L54.370521,73.7606315 C54.5761606,73.7606315 54.7613216,73.6311291 54.8347034,73.4389916 C54.9055253,73.2460076 54.8500624,73.0310167 54.6913529,72.8964358 L52.1477358,70.7532982 L52.0641147,67.7315758 C52.0547286,67.4649532 51.8379964,67.2525016 51.5700676,67.2525016 L49.7372297,67.2525016 C49.4675944,67.2525016 49.2448892,67.4751102 49.2448892,67.7459649 L49.2448892,67.9093241 L46.3155911,65.0983605 C46.1244571,64.9146872 45.8223973,64.9096087 45.6329699,65.0915891 L37.2188106,72.9438354 C37.0694872,73.0851876 37.0208504,73.2984857 37.0959388,73.482159 C37.1701738,73.6700644 37.3536283,73.791949 37.5550015,73.791949 L39.3246969,73.791949 L39.3289633,81.0178438 L35.7528816,81.0178438 L35.7528816,65.8618321 C36.2034116,65.7255584 36.5617877,65.3726009 36.7128176,64.9299228 L41.5671075,65.8042755 L41.5833197,65.8042755 C41.6114779,65.8042755 41.639636,65.7915792 41.6592613,65.7695722 C41.6788867,65.745026 41.6831531,65.7060907 41.6695007,65.6747731 C41.6276901,65.5867453 40.6523951,63.5731101 36.7588946,64.1698368 C36.6172507,63.5113214 36.0267833,63.0119331 35.3228302,63.0119331 C35.3040582,63.0119331 35.2869926,63.0153188 35.2699271,63.0153188 L34.4388358,58.1788701 C34.4303031,58.1458597 34.4064113,58.1196206 34.3748401,58.1077707 C34.3415623,58.0967672 34.3048714,58.1077707 34.2801264,58.1314705 C34.2084512,58.200877 32.6341561,59.8073838 34.5378159,63.2379275 C34.1273899,63.4952394 33.850075,63.9506138 33.850075,64.4720091 C33.850075,64.6472182 33.8833528,64.8181952 33.9439355,64.9747831 L29.9420688,68.1852573 C29.9156172,68.2089571 29.9019648,68.2445068 29.908791,68.2741315 C29.9181771,68.3105276 29.9420688,68.3384595 29.9761999,68.3469237 C30.0017981,68.3570808 30.1733067,68.4002482 30.4523281,68.4002482 C31.2236901,68.4002482 32.8167572,68.04983 34.3722803,65.5791275 C34.4874726,65.6790052 34.6197304,65.7594152 34.7639342,65.8178182 L34.7639342,81.0178438 L31.3073112,81.0178438 C31.0359692,81.0178438 30.8132641,81.2370668 30.8132641,81.5079215 C30.8132641,81.7796226 31.0359692,81.9988456 31.3073112,81.9988456 L39.8230104,81.9988456 C39.9552682,81.9988456 40.0806999,81.9463675 40.1711472,81.8566469 C40.2658609,81.7610013 40.3204706,81.6408096 40.3204706,81.5079215 L40.3127911,73.3035642 C40.3127911,73.0310167 40.0926457,72.814333 39.8178907,72.814333 L38.8007852,72.814333 L45.966601,66.1259154 L49.3942126,69.423571 C49.537563,69.558152 49.7466158,69.5996266 49.9309235,69.520063 C50.1143779,69.4430387 50.2321301,69.268676 50.2321301,69.0689207 L50.2321301,68.2360426 L51.0888197,68.2360426 L51.1673211,70.9996067 C51.173294,71.1358804 51.2381431,71.2662292 51.3413895,71.3559498 L53.0189311,72.7711655 L52.0427828,72.7677798 C51.9156446,72.7677798 51.7902129,72.8177186 51.6929394,72.9091321 C51.5999323,73.0005456 51.5461759,73.1266623 51.5461759,73.2578575 L51.5461759,75.3662918 C51.043596,75.0759695 50.4642213,74.9193816 49.8575417,74.9193816 C47.9905728,74.9193816 46.4751538,76.4217786 46.4751538,78.2703618 C46.4751538,78.4929704 46.5007521,78.7130399 46.5476823,78.9390342 C45.3582149,79.2902989 44.5168843,80.3660998 44.5168843,81.6467345 C44.5168843,81.9142035 44.7395894,82.1359658 45.0134912,82.1359658 C45.2848331,82.1359658 45.5049784,81.9142035 45.5049784,81.6467345 C45.5049784,80.6809683 46.2439158,79.8870256 47.2183576,79.8040763 C47.3762137,79.7888408 47.5152978,79.7058915 47.5972123,79.5730034 C47.6791269,79.4401154 47.6927793,79.2750633 47.6381696,79.133711 C47.5238306,78.8476208 47.4658078,78.5539127 47.4658078,78.2703618 C47.4658078,76.9601023 48.5383763,75.8986905 49.8575417,75.8986905 C50.6869264,75.8986905 51.4463425,76.3235938 51.8900463,77.0328945 C51.9711075,77.1632433 52.1101916,77.2470389 52.2637814,77.2622745 C52.4190777,77.2775101 52.5692544,77.2207999 52.6742074,77.1073795 C53.1563086,76.5885235 53.8022389,76.305819 54.4985125,76.305819 C54.7707077,76.305819 54.990853,76.0840567 54.990853,75.8123556 C54.990853,75.5448866 54.7707077,75.3248172 54.4985125,75.3248172 M35.7989585,64.4720091 C35.7989585,64.735246 35.5856394,64.948544 35.3228302,64.948544 C35.056608,64.948544 34.840729,64.735246 34.840729,64.4720091 C34.840729,64.2079258 35.056608,63.9920885 35.3228302,63.9920885 C35.5856394,63.9920885 35.7989585,64.2079258 35.7989585,64.4720091" id="Fill-26" fill="#FEFEFE" mask="url(#mask-2)"></path>
                        <path d="M26.0928533,46.7572671 C24.6678816,45.5147213 22.950236,44.8587452 21.1327571,44.8587452 C19.434737,44.8587452 17.8203379,45.4444684 16.4900798,46.4906446 C16.0113917,46.0217274 15.5856068,45.4740931 15.231497,44.8587452 C15.0958261,44.625133 14.7929129,44.5438766 14.5565553,44.6767647 C14.3184912,44.8104992 14.2382832,45.111825 14.3731009,45.3479764 C14.7647548,46.0234203 15.2306438,46.6235326 15.7537022,47.1483136 C15.2349101,47.668016 14.7724343,48.2706676 14.3833402,48.9444186 C14.2527889,49.1771843 14.3312904,49.4793566 14.5693545,49.6122447 C14.6478559,49.6562585 14.7323303,49.6782655 14.8159514,49.6782655 C14.9840469,49.6782655 15.1521423,49.5902377 15.2451495,49.4294177 C15.5966994,48.8157626 16.0165114,48.2706676 16.4909331,47.8017505 C17.8203379,48.8369232 19.4210845,49.4107965 21.1097187,49.4107965 C22.9425565,49.4107965 24.666175,48.7488954 26.0928533,47.4970389 C26.2455898,47.3675366 26.2976396,47.1525457 26.2293775,46.9604081 C26.2012194,46.8833838 26.1551425,46.8105916 26.0928533,46.7572671 M21.1097187,48.4306411 C19.7137584,48.4306411 18.3809405,47.9735739 17.2537623,47.1423886 C18.3869134,46.3052784 19.7257042,45.8414398 21.1327571,45.8414398 C22.521038,45.8414398 23.8402034,46.2849643 24.987007,47.1279995 C23.8402034,47.9837309 22.5099454,48.4306411 21.1097187,48.4306411" id="Fill-27" fill="#FEFEFE" mask="url(#mask-2)"></path>
                        <path d="M15.5961021,51.3324257 C14.2666973,50.1711363 12.6633908,49.5583276 10.9645174,49.5583276 C9.37998296,49.5583276 7.88248275,50.094112 6.64437858,51.0607247 C6.20920758,50.6332821 5.82182006,50.1347402 5.49842828,49.5752561 C5.36105076,49.3391046 5.05899089,49.2561554 4.82178003,49.3915827 C4.587129,49.5270101 4.50436118,49.8266431 4.63917887,50.0602552 C4.99926154,50.683221 5.42675305,51.2410123 5.90714771,51.7226258 C5.43101943,52.1991607 5.0077943,52.7544128 4.64856491,53.3731464 C4.51630705,53.6101442 4.59736832,53.9089308 4.83628573,54.046051 C4.91308061,54.0875256 4.99755499,54.1095325 5.0803228,54.1095325 C5.25012482,54.1095325 5.41992684,54.0181191 5.5120807,53.8606848 C5.83291265,53.3062792 6.21347396,52.805198 6.64608513,52.3718305 C7.87906964,53.3291325 9.37059692,53.8606848 10.9414789,53.8606848 C12.6309663,53.8606848 14.2829096,53.2241763 15.5986619,52.0696583 C15.7684639,51.9249203 15.811981,51.6811511 15.7121477,51.4822422 C15.6865494,51.425532 15.6438856,51.3739004 15.5961021,51.3324257 M10.9414789,52.8813759 C9.66241747,52.8813759 8.44393867,52.4666297 7.40806103,51.7192401 C8.44735177,50.9591541 9.6760699,50.5393294 10.9645174,50.5393294 C12.2282198,50.5393294 13.4381659,50.93884 14.4876959,51.7031581 C13.4330462,52.4750939 12.2205403,52.8813759 10.9414789,52.8813759" id="Fill-28" fill="#FEFEFE" mask="url(#mask-2)"></path>
                        <path d="M26.9369997,39.1394795 C24.4428726,36.9480959 21.5007753,35.6573041 18.3615711,35.3475141 C18.0296466,34.937 16.9050282,33.8527349 13.9484252,33.1874481 C13.6804964,33.1281986 13.4176872,33.2949435 13.3579579,33.5632589 C13.2990818,33.8231101 13.4629109,34.0821149 13.7299864,34.1481357 C15.1950621,34.4706221 16.142199,34.9090681 16.7394926,35.2781076 C13.2419123,35.3119644 9.92863973,36.5765172 7.22375331,38.818686 C6.0598842,37.7268031 5.03168604,36.4360113 4.1843825,34.9649319 C4.04785827,34.733859 3.74750495,34.6492169 3.51029409,34.7846442 C3.27393651,34.9175323 3.18946214,35.2163189 3.32769292,35.4541631 C4.20742097,36.9836456 5.27145673,38.331994 6.47969622,39.4653515 C5.26207069,40.6088661 4.19120872,41.9589073 3.2995348,43.486697 C3.16557039,43.7245412 3.24833821,44.0224814 3.48554907,44.160448 C3.56149068,44.2010762 3.64596505,44.2239295 3.73214597,44.2239295 C3.90109471,44.2239295 4.06577707,44.1333625 4.15963749,43.9810067 C5.01035413,42.5006167 6.04793833,41.2089785 7.22375331,40.1238669 C8.81511393,41.4535941 10.6223535,42.4430601 12.5567313,43.0364011 C12.1224135,43.3165664 11.6693237,43.5315573 11.2042881,43.6974558 C10.9440387,43.7888692 10.8126342,44.0715738 10.904788,44.3271929 C10.9781698,44.5269482 11.1675972,44.6479864 11.3715303,44.6479864 C11.4269932,44.6479864 11.4841627,44.641215 11.5362126,44.6225937 C12.3382925,44.3348107 13.0840561,43.9175252 13.7973953,43.3639659 C14.821327,43.5865746 15.8742702,43.7050735 16.9459855,43.7050735 C20.6082481,43.7050735 24.0606047,42.3829642 26.9335866,39.8800977 C27.0018487,39.818309 27.0547519,39.7336669 27.0812034,39.647332 C27.138373,39.4653515 27.0812034,39.2639034 26.9369997,39.1394795 M20.4981754,42.261926 C19.6807366,41.6177997 19.1901026,40.6122518 19.1901026,39.5423758 C19.1901026,38.9659632 19.3343063,38.4022469 19.598822,37.9003194 C19.7242537,37.6590894 19.6338064,37.3619957 19.388916,37.2350326 C19.148292,37.1089159 18.8504986,37.2003293 18.7233604,37.4407128 C18.3820498,38.0831463 18.2028617,38.8093754 18.2028617,39.5423758 C18.2028617,40.65288 18.6158475,41.7134453 19.3343063,42.5158523 C18.5509985,42.6546653 17.7523317,42.7249182 16.9459855,42.7249182 C16.1916891,42.7249182 15.4553115,42.6631295 14.7300265,42.5429377 C14.9621177,42.3093256 15.1950621,42.0655564 15.422887,41.7980874 C15.5986619,41.5907143 15.5739169,41.2817707 15.3648642,41.1057151 C15.1583712,40.9347381 14.8443655,40.9584379 14.6685906,41.1649646 C14.3025349,41.5932535 13.9296531,41.9673715 13.5473853,42.2974757 C11.5225602,41.7862375 9.63425935,40.8263962 7.97804971,39.4721229 C10.5276398,37.4026239 13.6292998,36.2548772 16.8964954,36.2548772 C20.1619845,36.2548772 23.2457257,37.3763849 25.8499255,39.5051333 C24.2235805,40.8221641 22.4163409,41.7515342 20.4981754,42.261926" id="Fill-29" fill="#FEFEFE" mask="url(#mask-2)"></path>
                        <path d="M22.3156543,39.9520435 C22.6919492,39.9520435 22.999982,39.6363285 22.999982,39.2461285 C22.999982,38.8559285 22.6919492,38.5368278 22.3156543,38.5368278 C21.9385061,38.5368278 21.6330331,38.8559285 21.6330331,39.2461285 C21.6330331,39.6363285 21.9385061,39.9520435 22.3156543,39.9520435" id="Fill-30" fill="#FEFEFE" mask="url(#mask-2)"></path>
                        <path d="M82.6487007,9.17999033 L82.5684927,8.8134901 L80.9455608,8.8134901 C81.0684326,8.71445886 81.177652,8.60696341 81.2808985,8.48846449 C82.3654129,7.25184363 82.1427077,5.59539803 82.1350282,5.52429868 L81.9558402,4.26313161 L81.2749255,5.34401104 C80.4532203,6.65003841 78.8592998,6.57470695 78.7927443,6.57047485 L75.5485871,6.56793559 C74.7251753,6.36056248 73.7430541,6.39441931 72.6721921,6.43674036 C72.2233687,6.45112951 71.7608928,6.47229003 71.2907375,6.47229003 C70.8163158,6.47229003 70.3555465,6.45112951 69.9109894,6.43674036 C68.857193,6.39441931 67.8938439,6.36056248 67.0832312,6.56793559 L63.9184288,6.56793559 L63.8885641,6.57047485 C63.8237151,6.57470695 62.2297946,6.65003841 61.403823,5.34401104 L60.7229084,4.26313161 L60.5471334,5.52429868 C60.5360408,5.59539803 60.3193086,7.25184363 61.4021164,8.48846449 C61.5019498,8.60696341 61.6128757,8.71445886 61.7306279,8.8134901 L60.1128157,8.8134901 L60.0326077,9.17999033 C60.0232217,9.22231137 59.8312344,10.1626849 60.5633457,11.0666624 C61.3312945,12.0095752 62.7938104,12.5225063 64.9090827,12.6037627 C64.8536198,13.3621557 64.5490001,18.5473299 66.5823579,20.0336449 C66.5559063,20.2477893 66.5431072,20.4754766 66.5431072,20.7302492 C66.5431072,23.5505235 68.156653,24.9801283 71.338521,24.9818212 L71.3402275,24.9818212 L71.3427874,24.9818212 C74.5229488,24.9801283 76.1382012,23.5505235 76.1382012,20.7302492 C76.1382012,20.4754766 76.1236955,20.2444037 76.100657,20.0336449 C78.1288952,18.5464834 77.8251287,13.3621557 77.7705191,12.6037627 C79.8883513,12.5225063 81.3500139,12.0095752 82.1205225,11.0666624 C82.8526337,10.1626849 82.6563801,9.22231137 82.6487007,9.17999033 L82.6487007,9.17999033 Z M61.3022831,10.4995604 C61.073605,10.2270129 60.9831577,9.95107972 60.953293,9.74201377 L64.4491667,9.74201377 C64.5515599,9.74624587 64.6548064,9.74624587 64.7589061,9.74624587 L64.860446,9.74624587 C64.8399674,9.97985803 64.8288748,10.2270129 64.8288748,10.4919426 C64.8288748,10.9033032 64.9031098,11.3061995 65.0345144,11.6811639 C62.7238417,11.6117574 61.7289213,11.0074129 61.3022831,10.4995604 L61.3022831,10.4995604 Z M64.9969702,8.8134901 L64.4611126,8.8134901 C63.4030498,8.76609053 62.6112092,8.4563005 62.1103359,7.88496643 C61.8193686,7.55570872 61.6580994,7.1773586 61.5659455,6.82694037 C62.5949969,7.53539462 63.7622792,7.50492347 63.934641,7.49645926 L65.5908506,7.49645926 C65.320362,7.84349181 65.1241084,8.2777057 64.9969702,8.8134901 L64.9969702,8.8134901 Z M66.8502867,19.0103221 C65.9150957,17.8727324 65.7077495,14.9703554 65.8237951,12.9575666 C66.1744918,13.3308382 66.610516,13.6414746 67.1130959,13.8666226 C67.0550731,13.9648074 67.0175289,14.0833063 67.0175289,14.2085766 C67.0175289,14.589466 67.3187355,14.8933311 67.6924706,14.8933311 C67.9117627,14.8933311 68.1028966,14.7875285 68.227475,14.6241692 C67.996237,15.5857033 67.591784,17.2116778 67.1395475,18.5752618 C67.026915,18.6971464 66.9304947,18.8461164 66.8502867,19.0103221 L66.8502867,19.0103221 Z M71.3402275,24.0549903 C69.5398142,24.0549903 68.4151958,23.5843803 67.8699521,22.5788324 C68.6123026,22.7735092 69.7932373,23.0028892 71.248927,23.0028892 L71.3572931,23.0028892 L71.4315281,23.0028892 C72.8855112,23.0028892 74.0681524,22.7735092 74.8113562,22.5788324 C74.2678191,23.5843803 73.1406409,24.0549903 71.3402275,24.0549903 L71.3402275,24.0549903 Z M75.1569332,21.433625 C74.7388277,21.5741308 73.329215,22.0058055 71.4315281,22.0058055 L71.3624127,22.0058055 C69.3990236,22.0151161 67.946747,21.5741308 67.5243751,21.4310857 C67.4945105,21.2110163 67.4782982,20.9782505 67.4782982,20.7302492 C67.4782982,20.6075182 67.4825646,20.4932514 67.4876843,20.3857559 L68.9254551,20.5846648 C68.9510534,20.5880505 68.9706788,20.5880505 68.992864,20.5880505 C69.2223953,20.5880505 69.422062,20.4229985 69.4553398,20.192772 C69.4920307,19.941385 69.3128426,19.70608 69.057713,19.6679911 L67.6677256,19.470775 C67.7274549,19.3311156 67.7982769,19.2151559 67.8870176,19.1381316 C68.2471003,18.8097203 68.992864,18.8842054 69.8580863,18.9654618 C70.3043499,19.00609 70.8120494,19.0534895 71.338521,19.0534895 L71.3402275,19.0534895 L71.3427874,19.0534895 C71.8658458,19.0534895 72.3726921,19.00609 72.8215155,18.9654618 C73.6867378,18.8842054 74.4333548,18.8097203 74.7925842,19.1381316 C74.8830315,19.2151559 74.95556,19.3311156 75.014436,19.470775 L73.6235954,19.6679911 C73.3667592,19.70608 73.1901309,19.941385 73.2259685,20.192772 C73.2583931,20.4229985 73.4580597,20.5880505 73.6867378,20.5880505 C73.7097763,20.5880505 73.7302549,20.5880505 73.7541467,20.5846648 L75.1919175,20.3857559 C75.1961839,20.4932514 75.2030101,20.6075182 75.2030101,20.7302492 C75.2030101,20.9782505 75.1867979,21.2110163 75.1569332,21.433625 L75.1569332,21.433625 Z M75.8310216,19.0103221 C75.7499604,18.8461164 75.6543934,18.6971464 75.5383478,18.5752618 C75.0912309,17.2116778 74.6808049,15.5857033 74.4512736,14.6267085 C74.5749987,14.7875285 74.7669859,14.8933311 74.9862779,14.8933311 C75.3608663,14.8933311 75.6637794,14.589466 75.6637794,14.2085766 C75.6637794,14.0833063 75.6287951,13.9690395 75.5690657,13.8666226 C76.0690858,13.6457067 76.5016969,13.3308382 76.8583665,12.9575666 C76.9701457,14.9703554 76.7662126,17.8735789 75.8310216,19.0103221 L75.8310216,19.0103221 Z M74.974332,13.1065366 C74.5835314,13.2487353 74.1611596,13.3579236 73.7191623,13.4374872 C73.5954373,13.461187 73.4845113,13.5339792 73.4171025,13.6372425 C73.344574,13.7413523 73.319829,13.8700083 73.3479871,13.9935857 C73.35396,14.0147462 73.8053433,16.0707025 74.3795983,17.9963099 C73.8932307,17.9319819 73.3377478,17.9853064 72.7344813,18.0437095 C72.2839513,18.0851841 71.8240353,18.1249659 71.3402275,18.1249659 C70.8572731,18.1249659 70.3956505,18.0851841 69.9468271,18.0437095 C69.3435606,17.9853064 68.7889309,17.9319819 68.3025633,17.9963099 C68.8751118,16.0707025 69.3273483,14.0147462 69.3341745,13.9935857 C69.3597728,13.8700083 69.3358811,13.7413523 69.2642059,13.6372425 C69.1925306,13.5339792 69.0841645,13.461187 68.9595862,13.4374872 C68.5184422,13.3579236 68.0960704,13.2487353 67.7069763,13.1065366 C66.5277482,12.6790941 65.7640658,11.6498464 65.7640658,10.4919426 C65.7640658,9.20961506 65.9953037,8.36234779 66.4782582,7.900202 C66.6787782,7.70891089 66.9253751,7.58110134 67.2146358,7.49645926 L67.2914307,7.49645926 L67.2914307,7.47275947 C67.9612527,7.29331825 68.8443938,7.3237894 69.8751518,7.36357118 C70.3273884,7.37965318 70.7992503,7.3965816 71.2907375,7.3965816 C71.7779584,7.3965816 72.2515268,7.37965318 72.7063232,7.36357118 C73.7422008,7.3237894 74.6808049,7.29162541 75.390731,7.48799505 L75.390731,7.49645926 L75.4060899,7.49645926 C75.7175359,7.58279418 75.9820516,7.71652868 76.196224,7.91966968 C76.6834448,8.38689399 76.9198024,9.22823632 76.9198024,10.4919426 C76.9198024,11.6498464 76.1544134,12.6790941 74.974332,13.1065366 L74.974332,13.1065366 Z M78.7483739,7.49645926 C78.9164694,7.50492347 80.0854581,7.53539462 81.1162161,6.82694037 C81.0240622,7.1773586 80.8576733,7.55570872 80.5701192,7.88496643 C80.066686,8.4563005 79.2791119,8.76609053 78.2253154,8.8134901 L77.6783652,8.8134901 C77.5478139,8.2777057 77.3455874,7.84349181 77.0622996,7.49645926 L78.7483739,7.49645926 Z M81.3926777,10.4800928 C80.9694526,10.9989487 79.9762387,11.6117574 77.6476472,11.6811639 C77.7799051,11.3061995 77.8515803,10.9033032 77.8515803,10.4919426 C77.8515803,10.2270129 77.8379279,9.97985803 77.8174493,9.74624587 L77.9283752,9.74963156 C78.0350348,9.74963156 78.1382812,9.74624587 78.2406744,9.74201377 L81.7305752,9.74201377 C81.6990039,9.94515477 81.6102632,10.2177023 81.3926777,10.4800928 L81.3926777,10.4800928 Z" id="Fill-31" fill="#FEFEFE" mask="url(#mask-2)"></path>
                        <path d="M25.5978676,20.9166311 C25.2386382,18.7074727 22.5474042,14.741991 22.185615,14.2146708 L21.4006006,12.0766118 C21.3869482,12.03683 21.3681761,12.0012803 21.340018,11.9631914 L18.1265788,7.42637561 L18.5156729,3.14348612 C18.5327384,2.95896637 18.4439976,2.78375726 18.2895546,2.68472602 C18.1351116,2.58908046 17.9354449,2.58484836 17.7767354,2.67710823 C17.6726357,2.73635769 15.8764887,3.78930522 14.3184059,5.52277512 C13.1639228,5.37126579 8.83610453,5.12918943 3.12427181,8.81789149 C2.89388716,8.96686156 2.83159798,9.2732659 2.98177464,9.49756743 C3.07648833,9.64315182 3.2334912,9.71932969 3.39134735,9.71932969 C3.48947414,9.71932969 3.58248128,9.69732275 3.6652491,9.64230539 C8.29000759,6.6544398 11.9753087,6.38781723 13.565816,6.44875953 C13.2936208,6.82710965 13.0359313,7.22408103 12.8226122,7.63967367 C12.6946208,7.88344287 12.7893344,8.18053659 13.0325182,8.30580687 C13.275702,8.43277 13.5726422,8.33204592 13.6955141,8.09250882 C14.6537435,6.25831484 16.4046669,4.8193994 17.4379847,4.07539547 L17.1239789,7.5355639 C17.1103265,7.68368755 17.1683493,7.81996131 17.2681827,7.92068539 L20.4918612,12.4744296 L21.2760223,14.6082565 C21.2913812,14.645499 21.3118599,14.6844344 21.3348983,14.7149055 C21.3613499,14.7529945 23.4817419,17.8153451 24.3179529,20.0185786 C24.1600967,19.9779504 24.0175996,19.9652541 23.9092335,19.9694862 C23.3452177,19.987261 22.8016806,20.3698432 22.5644697,20.9242489 C22.3622432,21.3872411 22.4287988,21.8688546 22.7385381,22.2125014 C22.8341051,22.3225361 22.9706293,22.3775535 23.1105667,22.3775535 C23.2240525,22.3775535 23.3418046,22.3386181 23.4331052,22.253976 C23.6395981,22.0711491 23.6575169,21.7647448 23.4766223,21.5607574 C23.4143331,21.489658 23.4390781,21.3872411 23.4723559,21.3110632 C23.5568303,21.1121543 23.7582035,20.9733413 23.9408047,20.9479487 C24.1216993,20.9242489 24.5824686,20.9818055 24.5782022,21.5531396 C24.5705227,22.1253201 24.0978076,23.4415045 22.7274455,23.5439214 C22.7197661,23.5439214 22.7137931,23.5447678 22.7061136,23.5447678 C22.5567902,23.2705275 22.2078002,22.8989487 21.6079468,22.3047613 C21.4151063,22.1134702 21.0985408,22.1134702 20.9074068,22.3047613 C20.7154196,22.495206 20.7154196,22.8041496 20.9074068,22.9954407 C21.1582701,23.2442884 21.4389981,23.5371501 21.6258656,23.7479088 C21.1753356,23.9772889 20.534525,23.7817657 20.0729024,23.4169583 C19.3843083,22.8727097 18.9585234,21.9027114 19.8331317,20.7981322 C20.003787,20.5873734 19.9662429,20.2792762 19.7495106,20.1108385 C19.5353383,19.9415543 19.2247456,19.9813361 19.0566501,20.1937877 C18.8697826,20.4290927 18.7298453,20.6686298 18.6197726,20.9005491 L15.3850015,18.3858328 C15.2535969,18.2834158 15.0795285,18.2529447 14.917406,18.3071156 C14.9011937,18.3113477 13.3550567,18.8225859 12.0529568,17.6833035 C11.8592631,17.51148 11.6988471,17.3134175 11.5640294,17.1035052 C11.5426975,17.024788 11.5000337,16.9579208 11.4437174,16.8969785 C10.8012003,15.6595112 11.0665692,13.9006487 12.2133728,12.5641502 C12.3908543,12.3576235 12.365256,12.046987 12.1570566,11.8700851 C11.9497104,11.6965688 11.6374112,11.7219614 11.4624895,11.9284881 C10.0929808,13.5248378 9.77470866,15.6298865 10.5025535,17.2025364 L4.20793294,25.5753315 C4.04154402,25.7928616 4.08847423,26.099266 4.30776628,26.2583931 C4.39736031,26.3252603 4.50060677,26.3591172 4.60214667,26.3591172 C4.7531766,26.3591172 4.90164671,26.2897107 4.9997735,26.1610547 L11.0708356,18.0853534 C11.1732288,18.201313 11.2807416,18.313887 11.4002003,18.4163039 C12.7782418,19.6224536 14.3440042,19.4447052 14.9694558,19.3058922 L18.3620831,21.9467253 C18.333925,22.8583205 18.8049336,23.6683453 19.4585434,24.1888941 C20.0003739,24.612951 20.6087601,24.826249 21.1753356,24.826249 C21.6420779,24.826249 22.0789554,24.6755861 22.4245324,24.387803 C22.5132731,24.4715987 22.6335851,24.5223839 22.7641364,24.5223839 L22.8016806,24.5223839 C24.031252,24.5173054 25.8692095,22.6170906 25.5978676,20.9166311" id="Fill-32" fill="#FEFEFE" mask="url(#mask-2)"></path>
                        <path d="M80.6967454,47.3367268 C80.6967454,47.0785685 80.4868394,46.8737346 80.2282966,46.8737346 C79.9680473,46.8737346 79.7615544,47.0785685 79.7615544,47.3367268 C79.7615544,47.5923459 79.9680473,47.8022583 80.2282966,47.8022583 C80.4868394,47.8022583 80.6967454,47.5923459 80.6967454,47.3367268" id="Fill-33" fill="#FEFEFE" mask="url(#mask-2)"></path>
                        <path d="M76.6861753,35.5265321 C76.6861753,35.2700666 76.4762693,35.0601542 76.2185798,35.0601542 C75.9583305,35.0601542 75.750131,35.2700666 75.750131,35.5265321 C75.750131,35.7846905 75.9583305,35.9937564 76.2185798,35.9937564 C76.4762693,35.9937564 76.6861753,35.7846905 76.6861753,35.5265321" id="Fill-34" fill="#FEFEFE" mask="url(#mask-2)"></path>
                        <path d="M62.513765,46.148098 L59.4010124,46.148098 C59.1296705,46.148098 58.9069654,46.3647818 58.9069654,46.6356365 C58.9069654,46.9073375 59.1296705,47.1248677 59.4010124,47.1248677 L62.0171581,47.1248677 L62.0171581,54.4481009 C62.0171581,54.7164163 62.2398633,54.9364857 62.513765,54.9364857 C62.7851069,54.9364857 63.004399,54.7164163 63.004399,54.4481009 L63.004399,46.6356365 C63.004399,46.3647818 62.7851069,46.148098 62.513765,46.148098" id="Fill-35" fill="#FEFEFE" mask="url(#mask-2)"></path>
                        <path d="M84.1698366,47.2647811 C84.0708566,47.2165351 83.9633437,47.2106101 83.8609505,47.228385 C83.8404719,47.2249993 83.8234064,47.2182279 83.8020745,47.2182279 C82.5622637,47.147975 81.7687166,45.9722964 81.7618904,45.9596001 C81.7226397,45.8986578 81.6663235,45.8444869 81.603181,45.8055515 L80.1449315,44.939663 L81.1748362,43.7893771 C81.2857621,43.6649532 81.3250129,43.4931298 81.282349,43.3365419 C81.2405385,43.1774148 81.11852,43.0504517 80.9598105,42.9971271 C79.5655568,42.5341349 78.276256,42.902328 77.5100137,43.2392035 L76.791555,42.805836 C75.2821089,41.886623 73.3161599,41.464259 72.4287523,41.3085176 L74.5457313,38.3494303 C74.9518909,38.5347964 75.3819422,38.5491856 75.4689764,38.5534177 L77.0671633,38.5618819 C77.3197331,38.833583 77.6687232,38.9935565 78.06635,39.00456 C78.0842688,39.00456 78.1056007,39.0062528 78.121813,39.0062528 C78.7856621,39.0062528 79.4716964,38.6168993 79.8838289,38.0066298 C80.6022877,36.9486038 80.0638702,35.999766 79.5152135,35.6087196 L75.0926815,32.03767 C75.0832954,32.0258201 75.0739094,32.0258201 75.0636701,32.0139702 C73.7615702,30.9872617 71.9372651,30.9745654 70.6172464,31.9885776 C69.897081,32.5412904 69.5037206,33.3623186 69.4687362,34.2002753 L68.051444,35.25153 C65.0325519,34.4719764 62.2303919,35.3277078 61.6433377,35.5257703 L58.7490239,35.3031616 C58.4793885,35.2803083 58.2396178,35.4851421 58.2165794,35.7517647 C58.1943942,36.0243122 58.3991805,36.2562315 58.6713757,36.2790849 L61.6723491,36.512697 C61.6851482,36.512697 61.6970941,36.5169291 61.70904,36.5169291 C61.7696226,36.5169291 61.8276454,36.5000007 61.8865215,36.4822259 C61.9129731,36.470376 64.9165063,35.3708753 68.0181662,36.2562315 C68.1683429,36.3019382 68.3270523,36.277392 68.452484,36.1809001 L69.6334186,35.3031616 C69.7366651,35.5951768 69.8859884,35.8761885 70.0865084,36.1326541 C70.4918147,36.6540493 71.0780157,36.9841534 71.7367451,37.0671027 C71.8416981,37.079799 71.9509175,37.0865704 72.0524574,37.0865704 C72.5994076,37.0865704 73.1318522,36.9113612 73.5687297,36.5702536 C74.0081671,36.2325317 74.2897483,35.7449933 74.3614236,35.1956662 C74.4305389,34.6514176 74.2812156,34.1054761 73.9373451,33.6729551 C73.7735161,33.4562713 73.4595103,33.417336 73.2461912,33.5857737 C73.0303123,33.7508258 72.989355,34.0572301 73.1583037,34.272221 C73.3374918,34.5016011 73.4159932,34.7859985 73.3793023,35.0712423 C73.3409049,35.3632575 73.1941413,35.6180302 72.96461,35.7983178 C72.6480444,36.0395478 72.2546839,36.1453504 71.8596169,36.0945651 C71.4645499,36.0454727 71.1121467,35.8457174 70.8672564,35.5333881 C70.1974344,34.6725781 70.3561438,33.4325716 71.2222194,32.7630527 C72.1821554,32.0258201 73.5158266,32.03767 74.4621102,32.7943702 C74.4680831,32.7994488 74.4749093,32.801988 74.4808823,32.8062201 L78.9059741,36.3806554 C78.9110937,36.3831946 78.921333,36.3916588 78.9298658,36.3975838 C79.1022276,36.5245469 79.4588972,36.8783508 79.0646835,37.4649205 C78.8325923,37.8034888 78.4332589,38.0337153 78.1004811,38.0227118 C77.881189,38.0184797 77.7890351,37.908445 77.7403984,37.828035 C77.6542175,37.6782185 77.4946548,37.5834194 77.3180265,37.5834194 L75.4817756,37.5707231 C75.2641901,37.5673374 74.8204863,37.4674597 74.7778225,37.3041005 C74.7104136,37.0391708 74.4433381,36.876658 74.1771158,36.9460645 C73.9117468,37.0086996 73.7555973,37.2761686 73.8178864,37.5394055 C73.828979,37.5707231 73.8409249,37.6020407 73.8486044,37.6316654 L69.6897349,43.4499623 C69.6496309,43.501594 69.622326,43.5625363 69.6103801,43.6277107 C69.5839286,43.7318204 69.0250325,46.1974444 67.0505507,46.1974444 L65.4506573,46.1974444 L65.4506573,44.0983207 C65.4506573,43.8308517 65.2296587,43.6099358 64.9600234,43.6099358 C64.6844151,43.6099358 64.465123,43.8308517 64.465123,44.0983207 L64.465123,54.446662 C64.465123,54.7192095 64.6844151,54.9367396 64.9600234,54.9367396 C65.2296587,54.9367396 65.4506573,54.7192095 65.4506573,54.446662 L65.4506573,51.9928879 C66.3867016,52.003045 67.3398114,52.0064307 68.2186862,52.0064307 C69.5839286,52.0064307 70.7554772,51.9979665 71.3433847,51.9928879 L71.3433847,54.446662 C71.3433847,54.7192095 71.5618234,54.9367396 71.8365785,54.9367396 C72.1070671,54.9367396 72.3314788,54.7192095 72.3314788,54.446662 L72.3314788,51.0381252 C72.3314788,50.7655777 72.1070671,50.548894 71.8365785,50.548894 C71.5703562,50.548894 71.3604502,50.7554206 71.3442379,51.0110397 C70.3868617,51.019504 67.8432446,51.0347395 65.4506573,51.0110397 L65.4506573,47.1759069 L67.0505507,47.1759069 C69.2059271,47.1759069 70.2639899,45.1140257 70.5498375,43.9349614 L71.7905015,42.2031844 C71.8058605,42.2031844 71.8237793,42.2074165 71.8391383,42.2108022 C71.86303,42.2150343 74.4911216,42.5561419 76.276176,43.6488712 L76.6029809,43.8427016 C76.5483712,43.9865931 76.5586105,44.1609558 76.655884,44.2972296 C76.8120336,44.5223775 77.1175066,44.5790877 77.341065,44.426732 C77.3538641,44.4174213 78.4870153,43.6641068 79.8676166,43.7682165 L79.0083672,44.7263649 C78.9136535,44.8363997 78.871843,44.9811376 78.8914684,45.1275684 C78.9136535,45.27146 78.9989812,45.3975767 79.1244128,45.4729081 L81.0067407,46.5935693 C81.2345656,46.9075915 82.0187266,47.8462722 83.2329391,48.1222054 C83.1151869,48.4091421 83.013647,48.6808431 82.9197866,48.9288445 C82.7056142,49.4993321 82.5068008,50.0359629 82.2917751,50.1172193 C82.2055942,50.1510762 81.96753,50.1637725 81.3890086,49.8641395 C81.1475314,49.7380228 80.847178,49.8319755 80.7217464,50.072359 C80.6765227,50.1553083 80.6603105,50.2509538 80.6696965,50.3389816 C79.9776893,50.6750107 78.0586705,51.3893899 74.4766159,51.1811703 L74.4766159,51.168474 C75.3938881,50.6259183 75.5269992,49.2233989 75.5363853,49.0473434 C75.5568639,48.779028 75.350371,48.5420301 75.0807356,48.5234089 C74.8076871,48.5047876 74.569623,48.7070822 74.5517042,48.9796297 C74.5303723,49.2394809 74.3571572,50.2407968 73.844338,50.3813026 C73.6318722,50.4405521 73.4851086,50.6326896 73.4851086,50.8561447 L73.5098536,54.4492012 C73.5132667,54.7217487 73.7334121,54.9367396 74.004754,54.9367396 L74.0073138,54.9367396 C74.2812156,54.9367396 74.5013609,54.714131 74.5013609,54.440737 L74.4868552,52.1664042 C74.9143467,52.1892576 75.3281858,52.1985682 75.7172799,52.1985682 C79.581769,52.1985682 81.3190399,51.1193816 81.5204132,50.9864935 C81.7670101,51.0685964 81.982889,51.1193816 82.183409,51.1193816 C82.3497979,51.1193816 82.5016811,51.0914497 82.6458848,51.0347395 C83.2815758,50.7926632 83.529026,50.1214514 83.8472981,49.2724913 C83.9957682,48.869595 84.1681301,48.4091421 84.4036344,47.9199108 C84.5222398,47.6761416 84.4189934,47.38328 84.1698366,47.2647811" id="Fill-36" fill="#FEFEFE" mask="url(#mask-2)"></path>
                        <path d="M53.9681158,17.0466257 C53.9681158,16.2924647 53.7334648,15.5696213 53.2854946,14.9508877 C53.1924875,14.8298495 53.0465772,14.7579037 52.8904276,14.7579037 L47.8287916,14.7579037 C47.6752018,14.7579037 47.5309981,14.8298495 47.4362844,14.9508877 C46.9891675,15.5696213 46.7536632,16.2924647 46.7536632,17.0466257 C46.7536632,18.8571199 48.1163457,20.3510527 49.8758018,20.5880505 L49.8758018,24.0270584 L48.4602162,24.0270584 C48.1939939,24.0270584 47.978115,24.2420493 47.978115,24.5086719 C47.978115,24.7727552 48.1939939,24.9885925 48.4602162,24.9885925 L52.2735087,24.9885925 C52.5405843,24.9885925 52.7598763,24.7727552 52.7598763,24.5086719 C52.7598763,24.2420493 52.5405843,24.0270584 52.2735087,24.0270584 L50.8425641,24.0270584 L50.8425641,20.5880505 C52.6096997,20.3510527 53.9681158,18.8571199 53.9681158,17.0466257 M47.7238386,17.0466257 C47.7238386,16.5751693 47.8475637,16.1214877 48.0916007,15.7160521 L52.629325,15.7160521 C52.8716555,16.1214877 52.9979405,16.5751693 52.9979405,17.0466257 C52.9979405,18.4906197 51.8170058,19.6646054 50.3604629,19.6646054 C48.9064798,19.6646054 47.7238386,18.4906197 47.7238386,17.0466257" id="Fill-37" fill="#FEFEFE" mask="url(#mask-2)"></path>
                        <path d="M37.1962841,20.4157192 C36.7150361,20.4157192 36.3250888,20.7999943 36.3250888,21.2799149 C36.3250888,21.7572963 36.7150361,22.1441106 37.1962841,22.1441106 C37.6758254,22.1441106 38.0657728,21.7572963 38.0657728,21.2799149 C38.0657728,20.7999943 37.6758254,20.4157192 37.1962841,20.4157192" id="Fill-38" fill="#FEFEFE" mask="url(#mask-2)"></path>
                        <path d="M39.2836543,22.0284049 C38.9082127,22.0284049 38.5984733,22.3356557 38.5984733,22.7097737 C38.5984733,23.0838917 38.9082127,23.3877568 39.2836543,23.3877568 C39.6616558,23.3877568 39.9662755,23.0838917 39.9662755,22.7097737 C39.9662755,22.3356557 39.6616558,22.0284049 39.2836543,22.0284049" id="Fill-39" fill="#FEFEFE" mask="url(#mask-2)"></path>
                        <path d="M46.7352324,24.7494786 L44.4578375,23.2919419 C44.4578375,23.2919419 44.4603974,23.286017 44.4603974,23.2817849 L44.4603974,14.997864 C44.4603974,12.9969251 43.9236865,12.0438553 43.5345924,11.3489438 L43.5064343,11.2947728 C43.0729698,10.5253763 42.7606706,9.84908601 42.7137404,9.57907776 C42.6744897,9.36916539 42.6429185,8.05636665 42.629266,6.32458959 C42.7794427,6.24164035 42.8775695,6.08589891 42.8775695,5.90307201 L42.8775695,4.32703639 C42.8775695,4.0595674 42.6591307,3.84626935 42.3929085,3.84626935 L39.3646302,3.84626935 C39.0949949,3.84626935 38.8791159,4.0595674 38.8791159,4.32703639 L38.8791159,5.90307201 C38.8791159,6.10452017 39.002841,6.2721115 39.1743496,6.34744296 C39.1845889,8.34499616 39.1606972,9.40725432 39.1299792,9.57907776 C39.1095006,9.70519446 38.9883353,10.1250192 38.3287526,11.2956192 L38.2988879,11.3489438 C37.993415,11.8923459 37.6068807,12.586411 37.4456115,13.8052571 L34.0760227,13.8052571 C33.8584372,13.8052571 33.6698631,13.9474558 33.6058673,14.1514432 L31.3361519,21.7396061 C31.290075,21.8843441 31.3199396,22.0417783 31.4078271,22.1602773 C31.499981,22.2838547 31.6458913,22.3574933 31.799481,22.3574933 L34.120393,22.3574933 C33.935232,23.3511914 33.9591238,24.360125 34.2287591,25.2886487 C34.2859287,25.4917897 34.4770626,25.6365277 34.6937948,25.6365277 L46.4724233,25.6365277 C46.6891555,25.6365277 46.8777296,25.4951754 46.937459,25.2903416 C46.9980416,25.0855077 46.9186869,24.8671311 46.7352324,24.7494786 L46.7352324,24.7494786 Z M38.3415518,14.997864 C38.3415518,13.2474657 38.7852555,12.4518301 39.1461915,11.8144752 L39.1743496,11.7645364 C39.7204465,10.7928453 40.01824,10.1334834 40.0865021,9.74159056 C40.1513512,9.36916539 40.1522044,7.44609722 40.1411118,5.90137917 C40.1394053,5.70585595 40.0225064,5.53572536 39.8492913,5.46208675 L39.8492913,4.80780343 L41.9082474,4.80780343 L41.9082474,5.48494011 C41.8664369,5.50525421 41.8288927,5.53064684 41.7973215,5.56450367 C41.7068742,5.65760996 41.6548243,5.78034099 41.6582374,5.90561127 C41.6607972,6.92216271 41.6829824,9.32684434 41.7555109,9.74159056 C41.8519312,10.277375 42.3630438,11.2406019 42.6591307,11.7645364 L42.6889954,11.8093967 C43.0448117,12.4518301 43.490222,13.2474657 43.490222,14.997864 L43.490222,22.6681298 L38.3415518,19.3645492 L38.3415518,14.997864 Z M34.3550441,21.4179662 C34.3106737,21.403577 34.2671566,21.3942664 34.2185198,21.3942664 L32.4454113,21.3942664 L34.4343988,14.7676376 L37.3764961,14.7676376 C37.3722297,14.8446619 37.3722297,18.7458156 37.3722297,18.7458156 L36.7681099,18.3581548 C36.5744162,18.2345774 36.3158734,18.2608164 36.1563107,18.4284077 C35.3243661,19.2714429 34.7134202,20.3159262 34.3550441,21.4179662 L34.3550441,21.4179662 Z M37.2203465,24.6741472 C37.3722297,24.5175593 37.4677966,24.3068005 37.4677966,24.072342 C37.4677966,23.5966534 37.0787026,23.205607 36.5966014,23.205607 C36.1153534,23.205607 35.7279659,23.5966534 35.7279659,24.072342 C35.7279659,24.3068005 35.8226796,24.5175593 35.9762694,24.6741472 L35.0735029,24.6741472 C34.7168333,22.9347523 35.3098604,20.8601748 36.5838022,19.388249 L42.1224198,22.9364452 C41.823773,23.0109302 41.6019212,23.2750135 41.6019212,23.5966534 C41.6019212,23.969925 41.9056876,24.2720973 42.2845423,24.2720973 C42.6633971,24.2720973 42.9680168,23.969925 42.9680168,23.5966534 C42.9680168,23.5517931 42.9611906,23.5120114 42.9560709,23.473076 L44.8273062,24.6741472 L37.2203465,24.6741472 Z" id="Fill-40" fill="#FEFEFE" mask="url(#mask-2)"></path>
                        <path d="M18.6642283,13.2401865 L17.8007125,13.2401865 C17.6215244,13.2401865 17.5285173,13.3722281 17.5353435,13.528816 C17.5532623,13.935098 18.3869134,14.5081249 18.7973394,14.4920429 C19.2060589,14.4751145 19.5055589,14.1297748 19.5055589,13.7192607 C19.5055589,13.1860156 19.0763608,13.2401865 18.6642283,13.2401865" id="Fill-41" fill="#FEFEFE" mask="url(#mask-2)"></path>
                        <path d="M34.6272845,34.6923319 C34.3317664,34.5532368 33.8968798,34.3704099 33.4679662,34.1678332 C33.0845606,34.010681 32.8900136,33.7956901 32.9139053,33.4441433 C32.9349528,33.1089607 33.2179562,32.9069482 33.9640042,32.9069482 C34.6827475,32.9069482 35.203815,33.1253248 35.4930757,33.3346729 L35.4930757,32.5356516 C35.203815,32.4115099 34.6528828,32.2413793 33.8968798,32.2413793 C32.6619043,32.2413793 31.9107366,32.8358489 31.9107366,33.7079445 C31.9107366,34.089116 32.0768411,34.4482806 32.6596289,34.7775383 C32.9156119,34.9298941 33.5473209,35.173099 34.0382393,35.3514116 C34.6255779,35.5641454 34.7783144,35.7802649 34.7783144,36.1030334 C34.7783144,36.6379713 34.2743125,36.7733987 33.6161519,36.7733987 C32.9807453,36.7733987 32.2952799,36.5942396 31.7790476,36.2378964 L31.7790476,37.1130956 C32.2096678,37.297051 32.9119144,37.4621031 33.642319,37.4621031 C35.2294133,37.4621031 35.8042372,36.6941173 35.8042372,36.0073878 C35.8042372,35.4941746 35.5294822,35.0791463 34.6272845,34.6923319" id="Fill-42" fill="#FEFEFE" mask="url(#mask-2)"></path>
                        <path d="M45.9764443,37.461821 C44.1942342,37.461821 43.5733333,36.2201216 43.5733333,34.8810838 C43.5733333,33.0663575 44.6203036,32.2413793 46.0481195,32.2413793 C47.7868126,32.2413793 48.4890591,33.4633289 48.4890591,34.8427127 C48.4890591,35.9303635 48.0780643,37.461821 45.9764443,37.461821 M46.0265032,32.9546299 C45.1413711,32.9546299 44.5298563,33.5536138 44.5298563,34.8700803 C44.5298563,36.0553517 44.9820928,36.7496989 46.0364581,36.7496989 C46.8581633,36.7496989 47.5328206,36.2912209 47.5328206,34.8810838 C47.5328206,33.7691689 47.1397446,32.9546299 46.0265032,32.9546299" id="Fill-43" fill="#FEFEFE" mask="url(#mask-2)"></path>
                        <path d="M41.7721621,30.6130268 L42.6922786,30.6130268 L42.6922786,36.118148 C42.7019491,36.6251541 42.8808527,36.6251541 43.3319515,36.6251541 L43.3319515,37.4007577 C43.219319,37.4111969 43.0443974,37.4190969 42.9215255,37.4190969 C41.8011735,37.4190969 41.7641982,36.683275 41.7721621,36.1373336 L41.7721621,30.6130268 Z" id="Fill-44" fill="#FEFEFE" mask="url(#mask-2)"></path>
                        <path d="M51.2211542,32.2413793 C51.9367687,32.2413793 52.6316202,32.3598782 52.9621226,32.7399212 C53.3423995,33.1831636 53.3423995,33.7347478 53.3423995,34.5856829 L53.3423995,37.3498113 L52.4234208,37.3498113 L52.4234208,34.8940623 C52.4234208,33.9003642 52.4234208,33.6571593 52.2638581,33.4057723 C52.0789815,33.1179892 51.6702621,32.982844 51.2294025,32.982844 C50.761807,32.982844 50.3778326,33.0353221 50.0609826,33.1202463 L50.0609826,37.3498113 L49.1428571,37.3498113 L49.1428571,32.5105411 C49.4628358,32.4163063 50.3579228,32.2413793 51.2211542,32.2413793" id="Fill-45" fill="#FEFEFE" mask="url(#mask-2)"></path>
                        <path d="M40.8471028,37.0462283 C40.4164826,37.2462658 39.4960817,37.4626674 38.6482093,37.4615388 C37.1310837,37.4612567 36.5295238,36.7790415 36.5295238,35.8973531 C36.5295238,35.0571393 36.9049655,34.35856 38.5984348,34.1768617 C39.0475427,34.1288978 39.4047811,34.0922196 39.9193068,34.0682376 L39.9193068,33.9378888 C39.9193068,33.7643726 39.8837536,33.5852135 39.8132161,33.461636 C39.6408543,33.155796 39.3743476,32.9876404 38.6308593,32.9876404 C38.1672458,32.9876404 37.6057899,33.1038822 37.0440495,33.3312872 L36.9971193,33.3312872 L36.9971193,32.4696308 C37.5901465,32.3150179 38.1427852,32.2413793 38.6356946,32.2413793 C39.823171,32.2413793 40.4136383,32.5785369 40.691522,33.1645423 C40.7947685,33.3834832 40.8471028,33.6551843 40.8471028,33.978517 L40.8471028,37.0462283 Z M38.7543,36.8233375 C39.198857,36.8216447 39.6658837,36.7392597 39.9193068,36.6142716 L39.9193068,34.7524278 C39.6488182,34.7679455 39.4565465,34.7891061 39.0916286,34.8207058 C38.7955417,34.8463805 38.5111162,34.8937801 38.2960905,34.9507724 C37.6911175,35.1149781 37.4940107,35.4515715 37.4940107,35.8397965 C37.4940107,36.4799728 37.9109784,36.8253125 38.7543,36.8233375 L38.7543,36.8233375 Z" id="Fill-46" fill="#FEFEFE" mask="url(#mask-2)"></path>
                        <path d="M31.9439921,42.3371648 L32.9150208,42.3371648 L32.9150208,45.505318 C32.9261134,46.1000697 33.1351661,46.1000697 33.6653352,46.1000697 L33.6653352,46.903041 C33.5339306,46.9146087 33.4349506,46.9244836 33.2933067,46.9244836 C31.9772699,46.9244836 31.9328995,46.0602879 31.9439921,45.4189831 L31.9439921,42.3371648 Z" id="Fill-47" fill="#FEFEFE" mask="url(#mask-2)"></path>
                        <path d="M31.9428571,40.8716475 L32.5381597,40.8716475 C32.9318046,40.8716475 33.2443882,41.0242854 33.2443882,41.4404423 C33.2443882,41.8331816 32.9576873,42.023062 32.5489679,42.023062 L31.9428571,42.023062 L31.9428571,40.8716475 Z M32.430078,41.8306423 C32.8436327,41.8306423 33.0034798,41.7135541 33.0034798,41.4435459 C33.0034798,41.1608413 32.8356688,41.0654779 32.430078,41.0654779 L32.1851877,41.0654779 L32.1851877,41.8306423 L32.430078,41.8306423 Z" id="Fill-48" fill="#FEFEFE" mask="url(#mask-2)"></path>
                        <polygon id="Fill-49" fill="#FEFEFE" mask="url(#mask-2)" points="33.4171429 40.8716475 34.5286777 40.8716475 34.5286777 41.0651957 33.6589045 41.0651957 33.6589045 41.3323826 34.4075124 41.3323826 34.4075124 41.5250844 33.6589045 41.5250844 33.6589045 41.8306423 34.5500096 41.8306423 34.5500096 42.023062 33.4171429 42.023062"></polygon>
                        <path d="M34.6685955,42.3371648 L34.6685955,43.1756857 C34.6739995,43.2953132 34.6486857,43.4090157 34.5954981,43.514254 C34.5411728,43.6217495 34.4660845,43.7145736 34.368811,43.7930086 C34.2715375,43.8737007 34.1554919,43.9416965 34.0206742,43.9947389 C33.8869942,44.0469349 33.7393774,44.0816381 33.5809524,44.0948987 L33.5809524,43.733477 C33.7754994,43.6860774 33.9083261,43.6163888 33.9794325,43.5235646 C34.0505389,43.4290476 34.0855232,43.3156273 34.0855232,43.1810463 L33.5809524,43.1810463 L33.5809524,42.3371648 L34.6685955,42.3371648 Z" id="Fill-50" fill="#FEFEFE" mask="url(#mask-2)"></path>
                        <polygon id="Fill-51" fill="#FEFEFE" mask="url(#mask-2)" points="52.2552381 46.870353 53.3391836 46.870353 53.3391836 42.5 52.2552381 42.5"></polygon>
                        <polygon id="Fill-52" fill="#FEFEFE" mask="url(#mask-2)" points="52.2552381 41.9054095 53.3380459 41.9054095 53.3380459 40.8716475 52.2552381 40.8716475"></polygon>
                        <path d="M51.18513,40.8716475 C50.4163279,40.8716475 49.8531654,41.2471762 49.3821568,41.7612358 L49.3821568,40.9971999 L48.3238095,40.9971999 L48.3238095,46.8688214 L49.4071862,46.8688214 L49.4071862,42.5630785 C49.6267627,42.1943212 50.1199565,41.7592608 50.9260183,41.7592608 C51.091554,41.7592608 51.2462814,41.7778821 51.3899163,41.8128675 L51.3899163,40.8916795 C51.3327468,40.8772903 51.2602183,40.8716475 51.18513,40.8716475" id="Fill-53" fill="#FEFEFE" mask="url(#mask-2)"></path>
                        <path d="M40.5559684,41.9511162 C40.1964546,41.2152944 39.4316345,40.8716475 38.1107625,40.8716475 C37.5356541,40.8716475 36.7702651,40.9737823 36.1146644,41.1385522 L36.1146644,42.1170147 L36.1462356,42.1170147 C36.8939902,41.8515207 37.5717762,41.7121434 38.1067805,41.7121434 C39.0212085,41.7121434 39.3181487,41.9206451 39.5277703,42.2817846 C39.6148045,42.4327297 39.6594593,42.6268422 39.6594593,42.8573508 L39.6594593,43.0314314 C39.0180798,43.0737524 38.5465023,43.1093021 38.0683831,43.1603695 C36.3362318,43.3448892 35.5466667,43.9791406 35.5466667,45.1734404 C35.5466667,46.3333191 36.4878306,47.0000166 38.1292501,47.0011452 C39.0621657,47.0017094 40.0980434,46.7917971 40.7431204,46.5155817 L40.7431204,42.903904 C40.7431204,42.525836 40.6791247,42.2047603 40.5559684,41.9511162 L40.5559684,41.9511162 Z M39.6594593,46.0348147 L39.6469446,46.0390468 C39.2760537,46.2148202 38.7160199,46.2876124 38.2561039,46.2876124 C37.1434314,46.2907159 36.6764047,45.8240559 36.6764047,45.1040339 C36.6764047,44.5566817 36.9878506,44.19526 37.6044851,44.0338758 C38.1326632,43.8967556 39.0294568,43.837224 39.6594593,43.7971601 L39.6594593,46.0348147 Z" id="Fill-54" fill="#FEFEFE" mask="url(#mask-2)"></path>
                        <path d="M46.9539455,44.9900683 L46.9539455,41.2068493 C46.1191566,40.9808549 45.3739618,40.8699738 44.6737063,40.8716666 C42.9008822,40.8758987 41.7714286,41.8207865 41.7714286,43.7528832 C41.7714286,45.3210189 42.7387597,46.2611103 44.516419,46.2692924 C44.9569941,46.2692924 45.3526299,46.2089143 45.8424106,46.0624835 L45.8697155,46.0545836 L45.8697155,46.256596 C45.8697155,46.5500219 45.846677,46.7314381 45.7866632,46.8352658 C45.5707843,47.205716 45.2141147,47.3185721 44.3170367,47.3050293 C43.882719,47.2979758 43.3610826,47.197816 42.7672022,47.0093463 L42.7672022,47.9516949 C43.3204098,48.0690652 43.8710576,48.1393182 44.3230097,48.1458074 C45.8213631,48.1700714 46.9530922,47.7406539 46.9530922,46.1541791 L46.9539455,44.9900683 Z M45.8697155,45.3726505 L45.8552098,45.3771648 C45.462987,45.5171064 45.161496,45.5749451 44.8162035,45.5755094 C43.7680955,45.5780487 42.8963314,45.1396027 42.8963314,43.7528832 C42.8963314,42.4364166 43.3255295,41.5772994 44.7286004,41.5772994 C45.2889186,41.5772994 45.7175478,41.6915663 45.858054,41.7623835 L45.8697155,41.7685906 L45.8697155,45.3726505 Z" id="Fill-55" fill="#FEFEFE" mask="url(#mask-2)"></path>
                        <path d="M40.5196418,52.425413 L40.5196418,48.1992337 L39.6419048,48.1992337 L39.6419048,52.4680162 C39.6419048,53.1428958 40.015071,53.5003675 40.7181708,53.5003675 C40.8046362,53.5003675 40.9238105,53.493314 41.0099914,53.4859783 L41.0099914,52.8635769 C40.6789201,52.8635769 40.5278902,52.8553948 40.5196418,52.425413" id="Fill-56" fill="#FEFEFE" mask="url(#mask-2)"></path>
                        <path d="M33.7324819,52.862408 C32.9523028,52.862408 32.6852272,52.3238022 32.6852272,51.4153105 C32.6852272,50.7488951 32.6641797,49.7202117 33.8473898,49.7202117 C34.2202716,49.7202117 34.4529317,49.7825647 34.7140343,49.9538238 L34.7140343,49.3398866 C34.436435,49.2247733 34.1585513,49.1762452 33.7885137,49.1762452 C32.6348839,49.1762452 31.7790476,49.8183965 31.7790476,51.4153105 C31.7790476,52.6155353 32.2930045,53.4224565 33.5962421,53.4224565 C34.1181629,53.4224565 34.4594735,53.3558714 34.7669374,53.1911014 L34.7669374,52.6025568 C34.3579336,52.8299619 34.0152008,52.862408 33.7324819,52.862408" id="Fill-57" fill="#FEFEFE" mask="url(#mask-2)"></path>
                        <path d="M37.7689026,49.3390805 L37.7689026,52.8604733 C37.7689026,52.8604733 37.4108109,52.944269 37.2225212,52.944269 C36.9890079,52.9448333 36.568627,52.8994087 36.3863103,52.5961079 C36.2617319,52.3845027 36.2617319,52.1641511 36.2617319,51.3476371 L36.2617319,49.3390805 L35.3828571,49.3390805 L35.3828571,51.5885849 C35.3828571,52.7414101 35.505729,53.5212459 37.0757577,53.5209637 C37.6966585,53.5209637 38.3576634,53.3832793 38.6472085,53.2503912 L38.6472085,49.3390805 L37.7689026,49.3390805 Z" id="Fill-58" fill="#FEFEFE" mask="url(#mask-2)"></path>
                        <path d="M46.4508074,49.3390805 L46.4508074,52.8604733 C46.4508074,52.8604733 46.0941378,52.944269 45.9027194,52.944269 C45.669775,52.9448333 45.2511006,52.8994087 45.0684995,52.5961079 C44.9430678,52.3845027 44.9430678,52.1641511 44.9430678,51.3476371 L44.9430678,49.3390805 L44.0647619,49.3390805 L44.0647619,51.5885849 C44.0647619,52.7414101 44.1876337,53.5212459 45.7576624,53.5209637 C46.3774256,53.5209637 47.0367239,53.3832793 47.330251,53.2503912 L47.330251,49.3390805 L46.4508074,49.3390805 Z" id="Fill-59" fill="#FEFEFE" mask="url(#mask-2)"></path>
                        <path d="M43.2757941,52.8706304 C42.9037656,52.8706304 42.7217333,52.7241996 42.7217333,52.4259773 L42.7217333,49.8985646 L43.4177224,49.8985646 L43.4177224,49.3424661 L42.7217333,49.3424661 L42.7217333,48.1992337 L41.8428585,48.1992337 L41.8428585,49.3424661 L41.4438095,49.3424661 L41.4438095,49.8985646 L41.8428585,49.8985646 L41.8428585,52.4677341 C41.8428585,53.1428958 42.2151715,53.5003675 42.9196934,53.5003675 C43.0983126,53.5003675 43.2794916,53.4989568 43.4225577,53.4856962 L43.4225577,52.865834 C43.3702234,52.8695018 43.3210178,52.8706304 43.2757941,52.8706304" id="Fill-60" fill="#FEFEFE" mask="url(#mask-2)"></path>
                        <path d="M50.2619044,49.1762452 C49.6848051,49.1762452 49.349183,49.4149359 49.0181117,49.8147287 L49.0181117,49.266248 L48.16,49.266248 L48.16,53.3355573 L49.0394436,53.3355573 L49.0394436,50.4441836 C49.2749479,50.0570872 49.549703,49.8751067 50.0519984,49.8751067 C50.1842562,49.8751067 50.2857961,49.8883673 50.3597468,49.9106564 L50.3597468,49.187813 C50.3364239,49.181888 50.2931912,49.1762452 50.2619044,49.1762452" id="Fill-61" fill="#FEFEFE" mask="url(#mask-2)"></path>
                        <path d="M52.4514154,53.4058164 C52.8510333,53.4058164 53.3018477,53.3381027 53.6900885,53.2207324 L53.6900885,52.5960738 L53.6681877,52.5960738 C53.2776715,52.7873649 52.8242973,52.8406894 52.4545441,52.8406894 C51.7514443,52.8406894 51.5318678,52.3144978 51.5318678,51.7459851 L51.5318678,51.685325 C51.7810246,51.6734751 52.1320056,51.6269219 52.4619392,51.5609011 C53.4008277,51.36961 53.823484,50.9624816 53.823484,50.3169446 C53.823484,49.5946655 53.3291525,49.1762514 52.3410583,49.1762514 C51.3876641,49.1739943 50.6194308,49.7853923 50.6171554,51.3267247 C50.6143112,52.8130397 51.0932837,53.4058164 52.4514154,53.4058164 Z M51.5318678,50.9926706 C51.5318678,49.8703165 51.9454225,49.6694326 52.2986789,49.6677398 C52.7799269,49.6674577 52.9730518,49.927591 52.9730518,50.3654727 C52.9730518,50.7852975 52.6257683,51.1043981 51.5318678,51.1723939 L51.5318678,50.9926706 Z" id="Fill-62" fill="#FEFEFE" mask="url(#mask-2)"></path>
                        <polygon id="Fill-63" fill="#80BA27" mask="url(#mask-2)" points="0 85.0449808 28.6671289 85.0449808 28.6671289 56.6607704 0 56.6607704"></polygon>
                        <path d="M10.0272785,67.873182 C10.4129595,67.0699286 11.3472972,65.6640236 13.2936208,65.1527854 C13.5598431,65.0842253 13.7176992,64.8091385 13.6511437,64.5433624 C13.5760554,64.279279 13.30642,64.124384 13.0367846,64.194637 C11.6271719,64.5636765 10.6638227,65.3195303 10.0161859,66.0753841 L10.0161859,64.0507454 C10.0161859,63.7790443 9.79348074,63.5547428 9.51616588,63.5547428 C9.24141086,63.5547428 9.02041225,63.7790443 9.02041225,64.0507454 L9.02041225,66.2108114 C8.37192213,65.4109437 7.37956159,64.5873762 5.88547448,64.194637 C5.61839895,64.124384 5.34364392,64.2809719 5.27026215,64.5433624 C5.20029348,64.8091385 5.3590029,65.0842253 5.62693171,65.1527854 C7.60141348,65.6707949 8.53063156,67.0893963 8.90521993,67.8884175 C7.2814348,68.1711221 6.04759701,69.556713 5.88291466,71.3985248 C5.65508984,73.931016 6.55870962,75.4198703 7.43161146,76.8596321 C8.24563721,78.208827 9.02126553,79.4852296 9.02126553,81.6816917 C9.02126553,81.9559321 9.24311741,82.1768479 9.52043227,82.1768479 C9.79774712,82.1768479 10.0187457,81.9559321 10.0187457,81.6816917 C10.0187457,79.492001 10.7687757,78.2333732 11.5614696,76.9027996 C12.411333,75.4689627 13.291061,73.9902654 13.1536835,71.4171461 C13.0598231,69.5516345 11.7474839,68.1118727 10.0272785,67.873182 M10.6979538,76.3983328 C10.2704623,77.1152512 9.83358473,77.855023 9.51275278,78.7386864 C9.17485529,77.8160877 8.71664583,77.0602339 8.29000759,76.352626 C7.42563852,74.9255605 6.68158144,73.6990967 6.88124813,71.4840133 C7.01606581,69.9435274 8.12447195,68.8237126 9.52043227,68.8237126 C10.9445507,68.8237126 12.0802617,69.9596094 12.1570566,71.4687777 C12.275662,73.7448034 11.510273,75.0313631 10.6979538,76.3983328" id="Fill-64" fill="#FEFEFE" mask="url(#mask-2)"></path>
                        <path d="M16.2093519,66.2299405 C16.4184046,65.8448191 16.4525357,65.4038338 16.3091852,64.989934 C16.1965527,64.6615227 15.9747009,64.3762789 15.6811737,64.1722915 C15.7383433,63.5146225 15.3637549,62.8738819 14.6947861,62.5717096 C14.6435895,62.001222 14.2724143,61.482366 13.6981592,61.2301326 C13.0291905,60.9330389 12.2475892,61.070159 11.7356233,61.5170693 C11.6178712,61.418038 11.4830535,61.337628 11.3337301,61.2733 C11.3089851,61.2622966 11.2825335,61.2504467 11.2586418,61.2419825 C11.0384964,60.3777868 10.1510889,59.7742887 9.18006028,59.8690879 C8.33446329,59.9554228 7.67146747,60.5335282 7.50081218,61.2758393 C7.35660845,61.337628 7.2243506,61.4205773 7.10574517,61.5170693 C6.59207273,61.070159 5.81047148,60.9330389 5.14576911,61.2301326 C4.56980749,61.482366 4.1994855,62.001222 4.14914219,62.5717096 C3.48102671,62.8738819 3.10558506,63.5146225 3.1619013,64.1722915 C2.86922747,64.3762789 2.64396248,64.6615227 2.53559637,64.989934 C2.38797954,65.4012945 2.42381715,65.8448191 2.63116334,66.2299405 C2.87093403,66.6700794 3.3035452,66.9807158 3.81039143,67.0924434 C3.81465781,67.0958291 3.81636436,67.1051397 3.81892419,67.1110646 C4.12866355,67.6807059 4.75582176,68.0141957 5.40601843,68.0141957 C5.65432189,68.0141957 5.91371794,67.9651033 6.1543419,67.8584543 C6.20041883,67.8347545 6.24564248,67.8152868 6.28915958,67.7890477 C6.69019953,67.9777996 7.06649445,67.9600248 7.53920962,67.7518052 C7.79348601,67.6400777 7.90526523,67.3489089 7.79348601,67.0958291 C7.68170679,66.8461349 7.38647313,66.7352538 7.13560985,66.8461349 C6.85061551,66.9722516 6.78320666,66.9527839 6.55794167,66.7953497 C6.3719274,66.6641544 6.11594446,66.6760043 5.94443589,66.8249744 C5.88044015,66.8782989 5.81303131,66.9197735 5.74732902,66.9527839 C5.36164806,67.1195288 4.88295995,66.9781766 4.70377189,66.6480724 C4.68243998,66.6023657 4.66281462,66.556659 4.65257531,66.5134915 C4.59540578,66.2976542 4.40597841,66.1478377 4.18412652,66.1419128 C3.8948658,66.1351414 3.63888285,65.989557 3.51771759,65.7618698 C3.41703097,65.5790429 3.44262927,65.4190694 3.48102671,65.3132668 C3.53819623,65.1397505 3.67301391,65.0034767 3.86073474,64.9188346 L3.91619771,64.8976741 C4.03650969,64.8502746 4.13975614,64.7537826 4.19351256,64.6361301 C4.24897553,64.5142455 4.24897553,64.3762789 4.1994855,64.2535479 C4.08088007,63.952222 4.23958949,63.6145001 4.56980749,63.4689157 C4.62527046,63.4477552 4.68926619,63.4282875 4.75838159,63.4138984 C4.88893289,63.3868129 5.00327194,63.3140207 5.08006682,63.2022932 C5.15259532,63.0922584 5.17734034,62.9576775 5.15174204,62.8264823 C5.09286597,62.5446242 5.25413522,62.2678445 5.55448854,62.1358029 C5.9367564,61.9699044 6.41373795,62.1044853 6.59804567,62.4447465 C6.60657843,62.465907 6.61767103,62.487914 6.62705707,62.5107673 C6.69873229,62.6978263 6.88048018,62.8264823 7.08014688,62.8315608 C7.29602583,62.8332537 7.4709475,62.717294 7.55030221,62.530235 C7.61941761,62.3787257 7.74740908,62.2517625 7.91379799,62.1789704 C7.96499458,62.156117 8.01619117,62.140035 8.06994759,62.1281851 C8.2943593,62.0748606 8.46074821,61.8742588 8.46074821,61.6465716 C8.46160149,61.2419825 8.8131514,60.9059534 9.27818708,60.856861 C9.79185951,60.808615 10.2526288,61.1268692 10.3072385,61.5687009 C10.3080918,61.5932471 10.3089451,61.6161005 10.3089451,61.6398003 C10.3140647,61.8742588 10.4864266,62.0748606 10.7244907,62.1171816 C10.7970192,62.1281851 10.8669879,62.1518849 10.9275705,62.1789704 C11.0948127,62.2517625 11.225364,62.3761864 11.290213,62.530235 C11.3712743,62.717294 11.5504623,62.8264823 11.7603683,62.8315608 C11.9643014,62.8264823 12.1460493,62.6978263 12.216018,62.5107673 C12.225404,62.487914 12.2339368,62.465907 12.2441761,62.4413608 C12.4301904,62.1044853 12.9063186,61.9699044 13.2911463,62.1358029 C13.5880866,62.2678445 13.7485025,62.5446242 13.6887732,62.8264823 C13.6606151,62.9576775 13.6887732,63.0922584 13.762155,63.2022932 C13.83639,63.3140207 13.9532889,63.3868129 14.0838402,63.4138984 C14.1521023,63.4282875 14.2169513,63.4477552 14.2707077,63.4689157 C14.6034856,63.6145001 14.7630483,63.952222 14.6435895,64.2535479 C14.5940995,64.3762789 14.5958061,64.5142455 14.6521223,64.6361301 C14.7058787,64.7537826 14.8057121,64.8502746 14.9277306,64.9002134 C14.9328503,64.9002134 14.9780739,64.9188346 14.9831936,64.9188346 C15.1692079,65.0034767 15.3040255,65.1397505 15.3637549,65.3132668 C15.4012991,65.4190694 15.422631,65.5790429 15.3253575,65.7618698 C15.2050455,65.989557 14.947356,66.1351414 14.6598018,66.1419128 C14.4328303,66.1478377 14.2459627,66.3018863 14.191353,66.5143379 C14.1777006,66.5600447 14.1614883,66.6023657 14.1401564,66.6413011 C13.9609684,66.9781766 13.4822803,67.1195288 13.0965993,66.9527839 C13.0257774,66.9197735 12.9626349,66.8782989 12.8994924,66.8249744 C12.725424,66.6760043 12.4711476,66.6658473 12.2834268,66.7953497 C12.1690878,66.8757596 12.0982658,66.9256985 12.0786405,66.9299306 C12.0684011,66.9299306 12.0172046,66.9256985 11.8431362,66.8461349 C11.5914196,66.7352538 11.2961859,66.8461349 11.18526,67.0958291 C11.0734808,67.3489089 11.18526,67.6400777 11.4386831,67.7518052 C11.93529,67.9718746 12.2279638,67.9651033 12.5590351,67.7924334 C12.6016989,67.8152868 12.6469226,67.8364473 12.6904397,67.8584543 C13.5496891,68.2368044 14.5958061,67.9016217 15.021591,67.1068325 C15.0250041,67.1051397 15.0267107,67.0958291 15.0309771,67.0924434 C15.5352635,66.9807158 15.9704345,66.6700794 16.2093519,66.2299405" id="Fill-65" fill="#FEFEFE" mask="url(#mask-2)"></path>
                        <path d="M20.0928691,68.9121636 C20.1884361,69.0145805 20.324107,69.0712907 20.4631911,69.0712907 C20.6082481,69.0712907 20.7379461,69.0145805 20.8352196,68.9121636 L23.2841231,66.2332416 C23.4684308,66.0292542 23.4530719,65.7177713 23.2491388,65.5349444 C23.0434991,65.3487318 22.7260803,65.3648138 22.5426259,65.5688012 L20.4631911,67.8363627 L18.388876,65.5688012 C18.2020084,65.3648138 17.8862961,65.3487318 17.6806565,65.5349444 C17.4750169,65.7177713 17.4596579,66.0292542 17.6473787,66.2332416 L20.0928691,68.9121636 Z" id="Fill-66" fill="#FEFEFE" mask="url(#mask-2)"></path>
                        <path d="M22.5435645,68.3161986 L20.4641297,70.5862994 L18.388108,68.3161986 C18.2020938,68.1130576 17.8855282,68.0961292 17.6798886,68.2823418 C17.4751022,68.4651687 17.4605965,68.7791909 17.6474641,68.9789462 L20.0929544,71.659561 C20.1902279,71.7619779 20.3241924,71.8246131 20.4641297,71.8246131 C20.6083334,71.8246131 20.7380314,71.7619779 20.8361582,71.659561 L23.2833552,68.9789462 C23.4685162,68.7791909 23.4548637,68.4651687 23.2492241,68.2823418 C23.0444378,68.0961292 22.7278722,68.1130576 22.5435645,68.3161986" id="Fill-67" fill="#FEFEFE" mask="url(#mask-2)"></path>
                        <path d="M20.0928691,63.8105312 C20.0996953,63.8164561 20.1022551,63.8189954 20.1082281,63.8257668 C20.1133477,63.8266132 20.1150543,63.8299989 20.1176141,63.8308453 C20.1628378,63.8740127 20.2114745,63.908716 20.2677908,63.9324158 C20.2694973,63.9324158 20.2694973,63.9324158 20.274617,63.9358015 C20.3326398,63.9595013 20.3966355,63.973044 20.4614845,63.973044 L20.4631911,63.9705047 L20.4631911,63.973044 C20.4631911,63.973044 20.4648976,63.9705047 20.4666042,63.9705047 C20.5288934,63.9705047 20.5903293,63.9595013 20.6474988,63.9358015 C20.6517652,63.9324158 20.660298,63.9324158 20.6645643,63.9324158 C20.7166142,63.908716 20.759278,63.8799377 20.8036484,63.8401559 C20.8104746,63.8308453 20.8164476,63.8257668 20.8224205,63.8173025 C20.8275401,63.8164561 20.8318065,63.8147633 20.8326598,63.8105312 L22.425727,62.0677507 C22.6151544,61.8646097 22.5997954,61.5505875 22.3924492,61.368607 C22.1885161,61.1832409 21.8736571,61.2001693 21.6859363,61.4024639 L20.9640644,62.1947138 L20.9640644,60.214089 C20.9640644,59.9423879 20.7413592,59.7180864 20.4631911,59.7180864 C20.1884361,59.7180864 19.9657309,59.9423879 19.9657309,60.214089 L19.9657309,62.1955602 L19.2421525,61.4024639 C19.0552849,61.2001693 18.7395726,61.1832409 18.5313732,61.368607 C18.3308532,61.5505875 18.3163475,61.8646097 18.4998019,62.0677507 L20.0928691,63.8105312 Z" id="Fill-68" fill="#FEFEFE" mask="url(#mask-2)"></path>
                        <path d="M20.0928691,66.3596969 C20.1884361,66.4621138 20.324107,66.5222097 20.4631911,66.5222097 C20.6082481,66.5222097 20.7379461,66.4621138 20.8352196,66.3596969 L22.8813766,64.1226065 C23.0673909,63.9169263 23.0520319,63.6079827 22.8472456,63.4200772 C22.6416059,63.2364039 22.3250404,63.2524859 22.1398794,63.4547805 L20.4631911,65.2881281 L18.7916225,63.4547805 C18.6064615,63.2524859 18.2890426,63.2364039 18.0842563,63.4200772 C17.8794699,63.6079827 17.8632577,63.9169263 18.0467121,64.1226065 L20.0928691,66.3596969 Z" id="Fill-69" fill="#FEFEFE" mask="url(#mask-2)"></path>
                        <path d="M25.2121013,76.241491 C23.4603247,76.241491 21.9107746,77.0972225 20.9559583,78.4083284 L20.9559583,74.2727161 L23.2836965,71.7275286 C23.4688575,71.5269269 23.4543518,71.215444 23.2495654,71.0292314 C23.0439258,70.8464045 22.7273602,70.8616401 22.5430525,71.0639346 L20.4636177,73.3365746 L18.3884493,71.0639346 C18.2015818,70.8616401 17.8850162,70.8464045 17.6802299,71.0292314 C17.4745902,71.215444 17.4600845,71.5269269 17.6469521,71.7275286 L19.9559182,74.2583269 L19.9559182,78.4083284 C19.0011019,77.0972225 17.4515518,76.241491 15.7048948,76.241491 C15.4284333,76.241491 15.2048748,76.4624068 15.2048748,76.7349543 C15.2048748,77.0083483 15.4284333,77.230957 15.7048948,77.230957 C18.0462855,77.230957 19.9559182,79.1252468 19.9559182,81.4537506 L19.9559182,81.4766039 C19.9559182,81.7499979 20.1820365,81.9700673 20.4542317,81.9700673 C20.7332531,81.9700673 20.9559583,81.7499979 20.9559583,81.4766039 L20.9559583,81.4537506 C20.9559583,79.1252468 22.865591,77.230957 25.2121013,77.230957 C25.4877096,77.230957 25.7121213,77.0083483 25.7121213,76.7349543 C25.7121213,76.4624068 25.4877096,76.241491 25.2121013,76.241491" id="Fill-70" fill="#FEFEFE" mask="url(#mask-2)"></path>
                        <path d="M79.2334616,74.4601983 C79.3256154,74.5304512 79.4339815,74.5643081 79.5449075,74.5643081 C79.5807451,74.5643081 79.617436,74.5643081 79.6498605,74.5558439 C80.5466541,74.3611671 81.4340616,73.7830616 82.092791,72.9654191 C82.7481074,72.1503158 83.1175761,71.159157 83.1090433,70.2526403 C83.1090433,70.1079023 83.0373681,69.96655 82.9213225,69.8742901 C82.8035703,69.7777982 82.648274,69.7456342 82.5040703,69.7761053 C81.6115431,69.9673964 80.7198692,70.5480411 80.0654061,71.3631444 C79.4066767,72.1782477 79.0363547,73.1677137 79.0431809,74.0750768 C79.046594,74.2248933 79.1157094,74.3645527 79.2334616,74.4601983 M80.8478607,71.9801852 C81.1789319,71.5645926 81.5850915,71.233642 82.0074634,71.0051084 C81.8837383,71.4681006 81.6431143,71.9370178 81.3094832,72.3509175 C80.9758521,72.7639709 80.5696925,73.1016928 80.1456141,73.3251479 C80.2701925,72.8621557 80.512523,72.3974707 80.8478607,71.9801852" id="Fill-72" fill="#FEFEFE" mask="url(#mask-2)"></path>
                        <path d="M79.8634356,74.7826 C79.6031863,74.7826 79.3344042,74.8105319 79.0647688,74.8706278 C78.9768813,74.4431852 78.7558827,73.734731 78.2311177,73.2116429 C78.0357174,73.0178125 77.7217116,73.0178125 77.5246048,73.2116429 C77.3300577,73.402934 77.3300577,73.7194954 77.5246048,73.9099401 C77.7959467,74.1824876 77.9478299,74.55322 78.0288912,74.8435423 C77.766082,74.7893714 77.5041261,74.7597466 77.2549694,74.7597466 C75.5612156,74.7597466 74.3760146,76.0471528 74.3760146,77.8872717 C74.3760146,80.1793793 76.2591958,82.0516623 78.5707217,82.0516623 C80.8856608,82.0516623 82.7679887,80.1793793 82.7679887,77.8872717 C82.7679887,76.0319172 81.6007065,74.7826 79.8634356,74.7826 M78.5707217,81.0571178 C76.8104124,81.0571178 75.3752013,79.6342843 75.3752013,77.8872717 C75.3752013,76.5922478 76.114992,75.7509055 77.2549694,75.7509055 C77.6073726,75.7509055 77.991347,75.8287762 78.3906804,75.9811319 C78.5041662,76.0251458 78.6304511,76.0285315 78.741377,75.985364 C79.1347375,75.8431653 79.5144455,75.7712196 79.8634356,75.7712196 C81.0401038,75.7712196 81.7696552,76.5812443 81.7696552,77.8872717 C81.7696552,79.6342843 80.3335909,81.0571178 78.5707217,81.0571178" id="Fill-73" fill="#FEFEFE" mask="url(#mask-2)"></path>
                        <path d="M81.7587333,63.480681 C81.7587333,62.2051248 80.7109098,61.1699521 79.4292885,61.1699521 C78.6894978,61.1699521 78.0324749,61.5135989 77.6075432,62.0476905 C77.2295418,61.5770805 76.6766186,61.2579798 76.0494604,61.1834948 C76.0494604,61.1767234 76.0528735,61.1699521 76.0528735,61.159795 L76.0528735,59.8774674 L76.8805517,60.0619872 C76.915536,60.0704514 76.9505204,60.0721442 76.9880645,60.0721442 C77.2167426,60.0721442 77.4266486,59.9155564 77.4769919,59.6861763 C77.5367213,59.4144752 77.3652127,59.1512383 77.0964306,59.0945281 L73.7532934,58.3572956 C73.4845113,58.2955069 73.2191423,58.4664839 73.1602663,58.7331064 C73.0988304,59.0005754 73.2677791,59.2638123 73.539121,59.3264475 L75.0502736,59.657398 L75.0502736,61.159795 C75.0502736,61.2046553 75.0681925,61.2427443 75.0784318,61.2757547 C74.6304616,61.4171069 74.2439274,61.6905009 73.9563732,62.0459976 C73.529735,61.5135989 72.8718588,61.1699521 72.1320681,61.1699521 C70.8504468,61.1699521 69.8034766,62.2051248 69.8034766,63.480681 C69.8034766,64.6428168 70.6806448,65.6060437 71.8103829,65.7617852 C71.7054299,66.0292542 71.6422874,66.3170372 71.6422874,66.6234416 C71.6422874,67.7872703 72.5203089,68.7504972 73.650047,68.907085 C73.5408276,69.174554 73.4768318,69.4657228 73.4768318,69.7721271 C73.4768318,71.0451441 74.5255086,72.0853953 75.8071299,72.0853953 C77.0921643,72.0853953 78.1365747,71.0451441 78.1365747,69.7721271 C78.1365747,69.4657228 78.0742855,69.1720148 77.9633595,68.9045458 C79.0845648,68.7394937 79.9480806,67.7804989 79.9480806,66.6234416 C79.9480806,66.3170372 79.8866447,66.0267149 79.7774253,65.7583995 C80.8969241,65.5916546 81.7587333,64.635199 81.7587333,63.480681 M75.7823849,62.1628037 C76.4931642,62.1628037 77.0699791,62.7214415 77.1041101,63.4171994 C77.1041101,63.4392064 77.1032568,63.4578276 77.1032568,63.480681 C77.1032568,63.5009951 77.1041101,63.5196163 77.1041101,63.5407769 C77.0699791,64.2390741 76.4931642,64.7943261 75.7823849,64.7943261 C75.5409076,64.7943261 75.3164959,64.7266125 75.1245087,64.6165778 C75.0920842,64.6013422 75.0681925,64.586953 75.0383278,64.5700246 C74.7046967,64.3448767 74.480285,63.9716051 74.4598063,63.5424697 C74.4598063,63.5204628 74.4632194,63.5009951 74.4632194,63.480681 C74.4632194,63.4578276 74.4598063,63.4375135 74.4598063,63.4129673 C74.4947907,62.716363 75.069899,62.1628037 75.7823849,62.1628037 M70.8035166,63.480681 C70.8035166,62.752759 71.4016634,62.1628037 72.1320681,62.1628037 C72.8437007,62.1628037 73.4213689,62.716363 73.4572065,63.4129673 C73.4572065,63.4375135 73.4520868,63.4578276 73.4520868,63.480681 C73.4520868,63.5009951 73.4572065,63.5204628 73.4572065,63.5424697 C73.4213689,64.2416133 72.8437007,64.7943261 72.1320681,64.7943261 C71.4016634,64.7943261 70.8035166,64.2035244 70.8035166,63.480681 M72.644034,66.6234416 C72.644034,65.8938268 73.2379144,65.3038715 73.9725855,65.3038715 C74.2115029,65.3038715 74.4367679,65.373278 74.6304616,65.4841591 C74.6577665,65.4985483 74.6859246,65.5154767 74.7157893,65.5298659 C75.0502736,65.7575531 75.2746854,66.1350568 75.2968706,66.5616529 C75.2968706,66.5845062 75.2908976,66.6014346 75.2908976,66.6234416 C75.2908976,66.6420628 75.2968706,66.6606841 75.2968706,66.6835375 C75.2601797,67.3818347 74.6825115,67.9413189 73.9725855,67.9413189 C73.2379144,67.9413189 72.644034,67.3496707 72.644034,66.6234416 M75.8071299,71.0908508 C75.0758719,71.0908508 74.4785784,70.4966634 74.4785784,69.7721271 C74.4785784,69.0458981 75.0758719,68.452557 75.8071299,68.452557 C76.5400944,68.452557 77.1373879,69.0458981 77.1373879,69.7721271 C77.1373879,70.4966634 76.5400944,71.0908508 75.8071299,71.0908508 M77.6211957,67.9413189 C76.9087098,67.9413189 76.3301884,67.3818347 76.2994704,66.6835375 L76.2994704,66.6234416 L76.2994704,66.5616529 C76.3301884,65.8616628 76.9087098,65.3038715 77.6211957,65.3038715 C77.8652327,65.3038715 78.0887912,65.373278 78.285898,65.4875448 C78.3106431,65.501934 78.3328282,65.5154767 78.3584265,65.5247873 C78.7168027,65.7617852 78.946334,66.1680672 78.946334,66.6234416 C78.946334,67.3496707 78.3516003,67.9413189 77.6211957,67.9413189 M79.4292885,64.7943261 C79.1852514,64.7943261 78.9599865,64.7266125 78.761173,64.6123457 C78.7398411,64.6013422 78.7168027,64.586953 78.6920576,64.5734103 C78.3516003,64.3482623 78.1254821,63.9716051 78.10671,63.5407769 C78.1101231,63.5196163 78.1118296,63.5009951 78.1118296,63.480681 C78.1118296,63.4578276 78.1101231,63.4392064 78.10671,63.4171994 C78.1382812,62.7214415 78.7176559,62.1628037 79.4292885,62.1628037 C80.162253,62.1628037 80.7595465,62.752759 80.7595465,63.480681 C80.7595465,64.2035244 80.162253,64.7943261 79.4292885,64.7943261" id="Fill-74" fill="#FEFEFE" mask="url(#mask-2)"></path>
                        <path d="M72.7285084,81.041459 L71.0390209,81.041459 L71.0390209,79.9267227 C71.1098429,79.848852 71.1763985,79.7718277 71.2438073,79.704114 C72.0219954,78.8568468 72.5868645,78.2440381 72.5868645,76.6629239 C72.5868645,74.9650037 71.9571464,72.427434 70.937481,71.288998 C70.7472004,71.0782392 70.3785849,71.0782392 70.1891576,71.288998 C69.1703455,72.427434 68.542334,74.9650037 68.542334,76.6629239 C68.542334,78.2440381 69.1046432,78.8568468 69.8811248,79.704114 C69.9357345,79.7608242 69.992904,79.8183808 70.0432473,79.8759375 L70.0432473,81.041459 L65.9389875,81.041459 C65.9458137,81.00337 65.9620259,80.9661275 65.9620259,80.9271922 L65.9620259,77.1944762 C66.2359277,76.7881942 66.496177,76.4360831 66.7265616,76.1195217 C67.8033965,74.651828 68.5124693,73.6860618 68.5124693,70.6965034 C68.5124693,67.2845809 67.6003167,61.1835794 65.8801114,58.6197707 C65.6958037,58.3421446 65.2333278,58.3421446 65.0473135,58.6197707 C64.1880641,59.9046375 63.530188,62.075707 63.0873375,64.3491934 C62.9601993,64.1672129 62.8313545,63.990311 62.6973901,63.8447266 C62.6009699,63.7380776 62.4661522,63.6762888 62.3219485,63.6762888 C62.1803046,63.6762888 62.0437803,63.7380776 61.9465068,63.8447266 C60.4268214,65.540954 59.487364,69.3676226 59.487364,71.9424348 C59.487364,74.2430067 60.2629923,75.0835026 61.437954,76.3556732 C61.5625324,76.4894076 61.6930837,76.6307599 61.8261948,76.77973 C61.8193686,76.8127404 61.8091293,76.838133 61.8091293,76.8719899 L61.8091293,81.041459 L60.1204952,81.041459 C59.8440336,81.041459 59.6221817,81.2623748 59.6221817,81.5323831 C59.6221817,81.8100091 59.8440336,82.0317714 60.1204952,82.0317714 L72.7285084,82.0317714 C73.0007036,82.0317714 73.2276751,81.8100091 73.2276751,81.5323831 C73.2276751,81.2623748 73.0007036,81.041459 72.7285084,81.041459 M69.5406675,76.6629239 C69.5406675,75.4102211 69.9451205,73.581952 70.5611861,72.4849906 C71.1798116,73.581952 71.5868244,75.4102211 71.5868244,76.6629239 C71.5868244,77.8284454 71.2634327,78.2059491 70.5611861,78.9702672 C69.8623527,78.2059491 69.5406675,77.8284454 69.5406675,76.6629239 M65.4645657,59.9088696 C66.6915773,62.433743 67.5132825,67.353141 67.5132825,70.6965034 C67.5132825,73.3601898 66.946707,74.1321256 65.9176555,75.5354914 C65.7777182,75.7267825 65.6232752,75.9375413 65.4645657,76.1584571 C65.3058563,75.9375413 65.1531198,75.725936 65.0097694,75.5354914 C64.8152223,75.2688688 64.6377408,75.025946 64.4781781,74.7897946 C64.9082295,74.0779546 65.1565329,73.2467694 65.1565329,71.9424348 C65.1565329,70.1082409 64.6786981,67.6341527 63.8484601,65.7508663 C64.2136624,63.5163153 64.7734118,61.3325495 65.4645657,59.9088696 M60.4874041,71.9424348 C60.4874041,69.7747511 61.2084227,66.6616152 62.3228018,64.9907804 C63.434621,66.6573831 64.1573462,69.7713654 64.1573462,71.9424348 C64.1573462,73.8570388 63.5933304,74.4681547 62.4661522,75.6861543 C62.4200753,75.7377859 62.3714385,75.7911104 62.3228018,75.8435885 C62.2758715,75.7911104 62.2238217,75.7377859 62.178598,75.6861543 C61.0548329,74.4681547 60.4874041,73.8570388 60.4874041,71.9424348 M62.7938104,76.8034298 C62.9354543,76.6485348 63.0728318,76.4978719 63.2008232,76.3556732 C63.4371808,76.1042862 63.6539131,75.8689812 63.8535797,75.6328297 C63.9662122,75.7936497 64.0805513,75.9527768 64.2034231,76.1195217 C64.4321012,76.4326975 64.6897907,76.7822693 64.9602793,77.1800871 L64.9602793,80.9271922 C64.9602793,80.9661275 64.9722252,81.00337 64.9824645,81.041459 L62.8083161,81.041459 L62.8083161,76.8719899 C62.8083161,76.8499829 62.7980767,76.8271296 62.7938104,76.8034298" id="Fill-75" fill="#FEFEFE" mask="url(#mask-2)"></path>
                        <path d="M53.6142661,39.8390947 C53.461814,39.8390947 53.425692,39.8390947 53.42171,39.6915353 L53.42171,37.7777778 L53.0747109,37.7777778 L53.0747109,39.6616284 C53.0721511,39.7837952 53.0784085,39.9211975 53.1717,40.0165609 C53.2402466,40.0839925 53.3449152,40.1186957 53.4874123,40.1186957 C53.5283696,40.1186957 53.5792818,40.11531 53.6168259,40.1122065 L53.6387267,40.1096672 L53.6387267,39.8390947 L53.6142661,39.8390947 Z" id="Fill-76" fill="#F6A723" mask="url(#mask-2)"></path>
                    </g>
                </g>
            </g>
        </g>
    </g>
</svg>