<svg xmlns="http://www.w3.org/2000/svg" width="85" height="85" viewBox="0 0 85 85">
  <g fill="none">
    <rect width="28.3" height="28.4" x="56.7" y="56.6" fill="#8ABD56"/>
    <rect width="28.3" height="28.3" y="28.3" fill="#EDA84D"/>
    <rect width="28.4" height="28.3" x="28.3" y="28.3" fill="#1E5740"/>
    <rect width="28.3" height="28.3" x="56.7" y="28.3" fill="#EDA84D"/>
    <rect width="28.3" height="28.3" fill="#8ABD56"/>
    <rect width="28.4" height="28.3" x="28.3" fill="#D73465"/>
    <rect width="28.3" height="28.3" x="56.7" fill="#8ABD56"/>
    <rect width="28.4" height="28.4" x="28.3" y="56.6" fill="#009FD9"/>
    <path fill="#FFF" d="M35.5 64.5C35.5 64.8 35.3 65 35 65 34.7 65 34.5 64.8 34.5 64.5 34.5 64.2 34.7 64 35 64 35.3 64 35.5 64.2 35.5 64.5M54.1 75.3C53.4 75.3 52.7 75.5 52.2 75.9L52.2 73.7 54 73.7C54.2 73.7 54.4 73.6 54.5 73.4 54.6 73.2 54.5 73 54.4 72.9L51.9 70.8 51.8 67.8C51.8 67.5 51.6 67.3 51.3 67.3L49.5 67.3C49.2 67.3 49 67.5 49 67.8L49 68 46 65.1C45.8 64.9 45.5 64.9 45.3 65.1L36.9 73C36.8 73.1 36.7 73.4 36.8 73.5 36.9 73.7 37.1 73.8 37.3 73.8L39 73.8 39 81 35.5 81 35.5 65.9C35.9 65.8 36.3 65.4 36.5 65L41.3 65.9C41.3 65.9 41.4 65.9 41.4 65.9 41.4 65.9 41.4 65.8 41.4 65.8 41.4 65.7 40.4 63.7 36.5 64.3 36.4 63.6 35.8 63.1 35.1 63.1 35.1 63.1 35.1 63.1 35 63.1L34.2 58.3C34.2 58.3 34.2 58.2 34.1 58.2 34.1 58.2 34 58.2 34 58.2 33.9 58.3 32.4 59.9 34.3 63.3 33.9 63.6 33.6 64 33.6 64.5 33.6 64.7 33.6 64.8 33.7 65L29.7 68.2C29.7 68.2 29.7 68.3 29.7 68.3 29.7 68.3 29.7 68.4 29.8 68.4 29.8 68.4 30 68.5 30.3 68.5 31.1 68.5 32.6 68.1 34.2 65.7 34.3 65.8 34.4 65.9 34.6 65.9L34.6 81 31.2 81C30.9 81 30.7 81.2 30.7 81.5 30.7 81.8 30.9 82 31.2 82L39.7 82C39.8 82 40 81.9 40 81.9 40.1 81.8 40.1 81.7 40.1 81.6L40.1 73.4C40.1 73.1 39.9 72.9 39.6 72.9L38.6 72.9 45.7 66.2 49.1 69.5C49.2 69.6 49.4 69.7 49.6 69.6 49.8 69.5 49.9 69.3 49.9 69.1L49.9 68.3 50.8 68.3 50.9 71.1C50.9 71.2 51 71.4 51.1 71.5L52.8 72.9 51.8 72.9C51.7 72.9 51.5 73 51.5 73 51.4 73.1 51.4 73.2 51.4 73.3L51.4 75.4C50.9 75.1 50.3 75 49.7 75 47.8 75 46.3 76.5 46.3 78.4 46.3 78.6 46.3 78.8 46.4 79.1 45.2 79.5 44.4 80.5 44.4 81.8 44.4 82.1 44.6 82.3 44.9 82.3 45.2 82.3 45.4 82.1 45.4 81.8 45.4 80.8 46.1 80 47.1 80 47.3 80 47.4 79.9 47.5 79.8 47.6 79.7 47.6 79.5 47.5 79.4 47.4 79.1 47.3 78.8 47.3 78.5 47.3 77.2 48.4 76.1 49.7 76.1 50.5 76.1 51.3 76.5 51.7 77.2 51.8 77.3 51.9 77.4 52.1 77.4 52.3 77.4 52.4 77.4 52.5 77.2 53 76.7 53.6 76.4 54.3 76.4 54.6 76.4 54.8 76.2 54.8 75.9 54.6 75.5 54.4 75.3 54.1 75.3M80.8 10.4C80.4 10.9 79.4 11.5 77.1 11.6 77.2 11.2 77.3 10.8 77.3 10.4 77.3 10.1 77.3 9.9 77.3 9.7L77.4 9.7C77.5 9.7 77.6 9.7 77.7 9.7L81.2 9.7C81.1 9.9 81 10.2 80.8 10.4zM78.2 7.5C78.4 7.5 79.5 7.5 80.6 6.8 80.5 7.2 80.3 7.5 80.1 7.9 79.6 8.5 78.8 8.8 77.8 8.8L77.3 8.8C77.2 8.3 77 7.8 76.7 7.5L78.2 7.5zM74.4 13.1C74 13.2 73.6 13.4 73.2 13.4 73.1 13.4 73 13.5 72.9 13.6 72.8 13.7 72.8 13.8 72.8 14 72.8 14 73.3 16.1 73.8 18 73.3 17.9 72.8 18 72.2 18 71.8 18 71.3 18.1 70.8 18.1 70.3 18.1 69.9 18.1 69.4 18 68.8 17.9 68.3 17.9 67.8 18 68.4 16.1 68.8 14 68.8 14 68.8 13.9 68.8 13.7 68.7 13.6 68.6 13.5 68.5 13.4 68.4 13.4 68 13.3 67.5 13.2 67.2 13.1 66 12.7 65.3 11.6 65.3 10.5 65.3 9.2 65.5 8.4 66 7.9 66.2 7.7 66.4 7.6 66.7 7.5L66.8 7.5C67.5 7.3 68.3 7.4 69.4 7.4 69.8 7.4 70.3 7.4 70.8 7.4 71.3 7.4 71.8 7.4 72.2 7.4 73.2 7.4 74.2 7.3 74.9 7.5 75.2 7.6 75.5 7.7 75.7 7.9 76.2 8.4 76.4 9.2 76.4 10.5 76.3 11.6 75.6 12.6 74.4 13.1zM75.3 19C75.2 18.8 75.1 18.7 75 18.6 74.6 17.2 74.1 15.6 73.9 14.6 74 14.8 74.2 14.9 74.4 14.9 74.8 14.9 75.1 14.6 75.1 14.2 75.1 14.1 75.1 14 75 13.9 75.5 13.7 75.9 13.4 76.3 13 76.4 14.9 76.2 17.8 75.3 19zM74.6 21.4C74.2 21.5 72.8 22 70.9 22L70.8 22C68.9 22 67.4 21.6 67 21.4 67 21.2 67 20.9 67 20.7 67 20.6 67 20.5 67 20.4L68.4 20.6C68.4 20.6 68.4 20.6 68.5 20.6 68.7 20.6 68.9 20.4 69 20.2 69 19.9 68.9 19.7 68.6 19.7L67.2 19.5C67.3 19.4 67.3 19.2 67.4 19.2 67.8 18.9 68.5 18.9 69.4 19 69.8 19 70.3 19.1 70.9 19.1 71.4 19.1 71.9 19.1 72.4 19 73.3 18.9 74 18.8 74.4 19.2 74.5 19.3 74.6 19.4 74.6 19.5L73.2 19.7C72.9 19.7 72.8 20 72.8 20.2 72.8 20.4 73 20.6 73.3 20.6 73.3 20.6 73.3 20.6 73.4 20.6L74.8 20.4C74.8 20.5 74.8 20.6 74.8 20.7 74.6 20.9 74.6 21.2 74.6 21.4zM70.8 24C69 24 67.9 23.5 67.4 22.5 68.1 22.7 69.3 22.9 70.8 22.9L70.9 22.9 71 22.9C72.4 22.9 73.6 22.7 74.4 22.5 73.7 23.5 72.6 24 70.8 24zM66.4 19C65.5 17.9 65.3 15 65.4 12.9 65.7 13.3 66.2 13.6 66.7 13.8 66.6 13.9 66.6 14 66.6 14.1 66.6 14.5 66.9 14.8 67.3 14.8 67.5 14.8 67.7 14.7 67.8 14.5 67.6 15.5 67.2 17.1 66.7 18.5 66.5 18.7 66.4 18.8 66.4 19zM64.5 8.8L64 8.8C62.9 8.8 62.2 8.4 61.7 7.9 61.4 7.6 61.3 7.2 61.2 6.8 62.2 7.5 63.4 7.5 63.6 7.5L65.2 7.5C64.8 7.8 64.6 8.2 64.5 8.8zM60.8 10.5C60.6 10.2 60.5 10 60.5 9.7L64 9.7C64.1 9.7 64.2 9.7 64.3 9.7L64.4 9.7C64.4 9.9 64.4 10.2 64.4 10.4 64.4 10.8 64.5 11.2 64.6 11.6 62.3 11.6 61.3 11 60.8 10.5zM82 9.1L82 8.8 80.4 8.8C80.5 8.7 80.6 8.6 80.7 8.5 81.8 7.3 81.6 5.6 81.5 5.5L81.3 4.2 80.6 5.3C79.8 6.6 78.2 6.5 78.1 6.5L74.9 6.5C74.1 6.3 73.1 6.3 72 6.4 71.6 6.4 71.1 6.4 70.6 6.4 70.1 6.4 69.7 6.4 69.2 6.4 68.2 6.4 67.2 6.3 66.4 6.5L63.3 6.5C63.2 6.5 61.7 6.6 60.8 5.3L60.1 4.2 59.9 5.5C59.9 5.6 59.7 7.2 60.7 8.5 60.8 8.6 60.9 8.7 61 8.8L59.4 8.8 59.3 9.2C59.3 9.2 59.1 10.2 59.8 11.1 60.6 12 62 12.6 64.1 12.6 64 13.4 63.7 18.5 65.8 20 65.8 20.2 65.8 20.4 65.8 20.7 65.8 23.5 67.4 25 70.6 25 73.8 25 75.4 23.6 75.4 20.7 75.4 20.4 75.4 20.2 75.4 20 77.4 18.5 77.1 13.3 77.1 12.6 79.2 12.5 80.7 12 81.4 11.1 82.2 10.1 82 9.2 82 9.1z"/>
    <g fill="#FFF" transform="translate(58 60)">
      <path d="M20.6 15.2C20.6 15 20.4 14.8 20.2 14.8 20 14.8 19.8 15 19.8 15.2 19.8 15.4 20 15.6 20.2 15.6 20.4 15.6 20.6 15.4 20.6 15.2M17 4.5C17 4.3 16.8 4.1 16.6 4.1 16.4 4.1 16.2 4.3 16.2 4.5 16.2 4.7 16.4 4.9 16.6 4.9 16.8 4.9 17 4.7 17 4.5M4.3 14.1L1.5 14.1C1.3 14.1 1.1 14.3 1.1 14.5 1.1 14.7 1.3 14.9 1.5 14.9L3.8 14.9 3.8 21.5C3.8 21.7 4 21.9 4.2 21.9 4.4 21.9 4.6 21.7 4.6 21.5L4.6 14.4C4.7 14.3 4.5 14.1 4.3 14.1"/>
      <path d="M23.7,15.1 C23.6,15.1 23.5,15.1 23.4,15.1 C23.4,15.1 23.4,15.1 23.3,15.1 C22.2,15 21.5,14 21.5,14 C21.5,13.9 21.4,13.9 21.4,13.9 L20.1,13 L21,12 C21.1,11.9 21.1,11.7 21.1,11.6 C21.1,11.5 21,11.3 20.8,11.3 C19.5,10.9 18.4,11.2 17.7,11.5 L17.1,11.1 C15.7,10.3 14,9.9 13.2,9.7 L15.1,7 C15.5,7.2 15.8,7.2 15.9,7.2 L17.3,7.2 C17.5,7.4 17.8,7.6 18.2,7.6 C18.2,7.6 18.2,7.6 18.2,7.6 C18.8,7.6 19.4,7.2 19.8,6.7 C20.4,5.7 20,4.9 19.5,4.5 L15.5,1.3 C15.5,1.3 15.5,1.3 15.5,1.3 C14.3,0.4 12.7,0.4 11.5,1.3 C10.9,1.8 10.5,2.5 10.5,3.3 L9.2,4.2 C6.5,3.5 4,4.3 3.5,4.4 L0.9,4.2 C0.7,4.2 0.4,4.4 0.4,4.6 C0.4,4.8 0.6,5.1 0.8,5.1 L3.5,5.3 C3.5,5.3 3.5,5.3 3.5,5.3 C3.6,5.3 3.6,5.3 3.7,5.3 C3.7,5.3 6.4,4.3 9.2,5.1 C9.3,5.1 9.5,5.1 9.6,5 L10.7,4.2 C10.8,4.5 10.9,4.7 11.1,4.9 C11.5,5.4 12,5.7 12.6,5.7 C12.7,5.7 12.8,5.7 12.9,5.7 C13.4,5.7 13.9,5.5 14.3,5.2 C14.7,4.9 14.9,4.5 15,4 C15.1,3.5 14.9,3 14.6,2.6 C14.5,2.4 14.2,2.4 14,2.5 C13.8,2.6 13.8,2.9 13.9,3.1 C14.1,3.3 14.1,3.6 14.1,3.8 C14.1,4.1 13.9,4.3 13.7,4.5 C13.4,4.7 13.1,4.8 12.7,4.8 C12.3,4.8 12,4.6 11.8,4.3 C11.2,3.5 11.3,2.4 12.1,1.8 C13,1.1 14.2,1.1 15,1.8 C15,1.8 15,1.8 15,1.8 L19,5 C19,5 19,5 19,5 C19.2,5.1 19.5,5.4 19.1,6 C18.9,6.3 18.5,6.5 18.2,6.5 C18,6.5 17.9,6.4 17.9,6.3 C17.8,6.2 17.7,6.1 17.5,6.1 L15.9,6.1 C15.7,6.1 15.3,6 15.3,5.9 C15.2,5.7 15,5.5 14.8,5.6 C14.6,5.7 14.4,5.9 14.5,6.1 C14.5,6.1 14.5,6.2 14.5,6.2 L10.8,11.5 C10.8,11.5 10.7,11.6 10.7,11.7 C10.7,11.8 10.2,14 8.4,14 L7,14 L7,12.1 C7,11.9 6.8,11.7 6.6,11.7 C6.4,11.7 6.2,11.9 6.2,12.1 L6.2,21.5 C6.2,21.7 6.4,21.9 6.6,21.9 C6.8,21.9 7,21.7 7,21.5 L7,19.3 C7.8,19.3 8.7,19.3 9.5,19.3 C10.7,19.3 11.8,19.3 12.3,19.3 L12.3,21.5 C12.3,21.7 12.5,21.9 12.7,21.9 C12.9,21.9 13.1,21.7 13.1,21.5 L13.1,18.4 C13.1,18.2 12.9,18 12.7,18 C12.5,18 12.3,18.2 12.3,18.4 C11.4,18.4 9.2,18.4 7,18.4 L7,15 L8.4,15 C10.3,15 11.3,13.1 11.5,12.1 L12.6,10.5 C12.6,10.5 12.6,10.5 12.6,10.5 C12.6,10.5 15,10.8 16.6,11.8 L16.9,12 C16.9,12.1 16.9,12.3 16.9,12.4 C17,12.6 17.3,12.7 17.5,12.5 C17.5,12.5 18.5,11.8 19.8,11.9 L19,12.8 C19,12.9 19,13 19,13.2 C19,13.3 19.1,13.4 19.2,13.5 L20.9,14.5 C21.1,14.8 21.8,15.6 22.9,15.9 C22.8,16.2 22.7,16.4 22.6,16.6 C22.4,17.1 22.2,17.6 22,17.7 C21.9,17.7 21.7,17.7 21.2,17.5 C21,17.4 20.7,17.5 20.6,17.7 C20.6,17.8 20.5,17.9 20.6,17.9 C20,18.2 18.3,18.8 15,18.7 C15.8,18.2 15.9,16.9 16,16.8 C16,16.6 15.8,16.3 15.6,16.3 C15.4,16.3 15.1,16.5 15.1,16.7 C15.1,16.9 14.9,17.8 14.5,18 C14.3,18.1 14.2,18.2 14.2,18.4 L14.2,21.6 C14.2,21.8 14.4,22 14.6,22 C14.8,22 15,21.8 15,21.6 L15,19.5 C15.4,19.5 15.8,19.5 16.1,19.5 C19.6,19.5 21.1,18.5 21.3,18.4 C21.5,18.5 21.7,18.5 21.9,18.5 C22,18.5 22.2,18.5 22.3,18.4 C22.9,18.2 23.1,17.6 23.4,16.8 C23.5,16.4 23.7,16 23.9,15.6 C24,15.5 23.9,15.2 23.7,15.1"/>
    </g>
    <rect width="28.3" height="28.4" y="56.6" fill="#8ABD56"/>
    <g fill="#FFF" transform="translate(2 31)">
      <path d="M8.6,17.2 C8.2,17.9 7.7,18.7 7.4,19.5 C7.1,18.6 6.6,17.8 6.2,17.1 C5.3,15.7 4.6,14.4 4.8,12.2 C4.9,10.7 6,9.5 7.4,9.5 C8.8,9.5 9.9,10.6 10,12.1 C10.2,14.5 9.4,15.8 8.6,17.2 M8,8.6 C8.4,7.8 9.3,6.4 11.2,5.9 C11.5,5.8 11.6,5.6 11.6,5.3 C11.5,5 11.3,4.9 11,5 C9.6,5.4 8.6,6.1 8,6.9 L8,4.9 C8,4.6 7.8,4.4 7.5,4.4 C7.2,4.4 7,4.6 7,4.9 L7,7 C6.4,6.2 5.4,5.4 3.9,5 C3.6,4.9 3.4,5.1 3.3,5.3 C3.2,5.6 3.4,5.8 3.7,5.9 C5.7,6.4 6.6,7.8 7,8.6 C5.4,8.9 4.2,10.3 4,12.1 C3.8,14.6 4.7,16.1 5.5,17.6 C6.2,19 7,20.3 7,22.5 C7,22.8 7.2,23 7.5,23 C7.8,23 8,22.8 8,22.5 C8,20.3 8.7,19 9.5,17.7 C10.3,16.3 11.2,14.8 11.1,12.2 C11,10.3 9.7,8.9 8,8.6"/>
      <path d="M14.1 7C14.3 6.6 14.3 6.2 14.2 5.8 14.1 5.5 13.9 5.2 13.6 5 13.7 4.3 13.3 3.7 12.6 3.4 12.5 2.8 12.2 2.3 11.6 2.1 10.9 1.8 10.2 1.9 9.7 2.4 9.6 2.3 9.4 2.2 9.3 2.2 9.3 2.2 9.2 2.2 9.2 2.2 9 1.3 8.1.7 7.1.8 6.3.9 5.6 1.5 5.4 2.2 5.3 2.3 5.1 2.3 5 2.4 4.5 2 3.7 1.8 3.1 2.1 2.5 2.4 2.2 2.9 2.1 3.4 1.4 3.7 1.1 4.3 1.1 5 .8 5.2.6 5.5.5 5.8.4 6.2.4 6.7.6 7 .8 7.4 1.3 7.8 1.8 7.9 1.8 7.9 1.8 7.9 1.8 7.9 2.1 8.5 2.7 8.8 3.4 8.8 3.6 8.8 3.9 8.8 4.1 8.6 4.1 8.6 4.2 8.6 4.2 8.5 4.6 8.7 5 8.7 5.4 8.5 5.7 8.4 5.8 8.1 5.7 7.8 5.6 7.5 5.3 7.4 5 7.5 4.7 7.6 4.7 7.6 4.4 7.4 4.2 7.3 4 7.3 3.8 7.4 3.7 7.5 3.7 7.5 3.6 7.5 3.2 7.7 2.7 7.5 2.6 7.2 2.6 7.2 2.6 7.1 2.5 7.1 2.4 6.9 2.3 6.7 2 6.7 1.7 6.7 1.5 6.5 1.3 6.3 1.2 6.1 1.2 6 1.3 5.9 1.4 5.7 1.5 5.6 1.7 5.5L1.8 5.5C1.9 5.5 2 5.4 2.1 5.2 2.2 5.1 2.2 4.9 2.1 4.8 2 4.5 2.1 4.2 2.5 4 2.6 4 2.6 4 2.7 3.9 2.9 4.1 3 4.1 3 4 3.1 3.9 3.1 3.8 3.1 3.6 3 3.3 3.2 3 3.5 2.9 3.9 2.7 4.4 2.9 4.5 3.2 4.5 3.2 4.5 3.2 4.5 3.3 4.6 3.5 4.8 3.6 4.9 3.6 5.1 3.6 5.3 3.5 5.4 3.3 5.5 3.1 5.6 3 5.8 2.9 5.9 2.9 5.9 2.9 6 2.8 6.2 2.7 6.4 2.5 6.4 2.3 6.4 1.9 6.7 1.6 7.2 1.5 7.7 1.5 8.2 1.8 8.2 2.2 8.2 2.2 8.2 2.2 8.2 2.3 8.2 2.5 8.4 2.7 8.6 2.8 8.7 2.8 8.7 2.8 8.8 2.9 9 3 9.1 3.1 9.2 3.3 9.3 3.5 9.5 3.6 9.7 3.6 9.9 3.6 10.1 3.5 10.2 3.3 10.2 3.3 10.2 3.3 10.2 3.2 10.4 2.9 10.9 2.7 11.2 2.9 11.5 3 11.7 3.3 11.6 3.6 11.6 3.7 11.6 3.9 11.7 4 11.8 4.1 11.9 4.2 12 4.2 12.1 4.2 12.1 4.2 12.2 4.3 12.5 4.4 12.7 4.8 12.6 5.1 12.6 5.2 12.6 5.4 12.6 5.5 12.7 5.6 12.8 5.7 12.9 5.8 12.9 5.8 12.9 5.8 13 5.8 13.2 5.9 13.3 6 13.4 6.2 13.4 6.3 13.5 6.5 13.4 6.6 13.3 6.8 13 7 12.7 7 12.5 7 12.3 7.2 12.2 7.4 12.2 7.4 12.2 7.5 12.1 7.5 11.9 7.8 11.4 8 11.1 7.8 11 7.8 11 7.7 10.9 7.7 10.7 7.6 10.5 7.5 10.3 7.7 10.2 7.8 10.1 7.8 10.1 7.8 10.1 7.8 10 7.8 9.9 7.7 9.7 7.6 9.4 7.7 9.2 8 9.1 8.3 9.2 8.5 9.5 8.7 10 8.9 10.3 8.9 10.6 8.7 10.6 8.7 10.7 8.7 10.7 8.8 11.6 9.2 12.6 8.8 13 8 13 8 13 8 13 8 13.4 7.7 13.9 7.4 14.1 7M17.9 9.7C18 9.8 18.1 9.9 18.3 9.9 18.4 9.9 18.6 9.8 18.7 9.7L21.1 7C21.3 6.8 21.3 6.5 21.1 6.3 20.9 6.1 20.6 6.1 20.4 6.3L18.3 8.6 16.2 6.3C16 6.1 15.7 6.1 15.5 6.3 15.3 6.5 15.3 6.8 15.5 7L17.9 9.7z"/>
      <path d="M20.4 9.1L18.3 11.4 16.2 9.1C16 8.9 15.7 8.9 15.5 9.1 15.3 9.3 15.3 9.6 15.5 9.8L17.9 12.5C18 12.6 18.1 12.7 18.3 12.7 18.4 12.7 18.6 12.6 18.7 12.5L21.1 9.8C21.3 9.6 21.3 9.3 21.1 9.1 20.9 8.9 20.6 8.9 20.4 9.1M17.9 4.6C17.9 4.6 18 4.6 17.9 4.6 18 4.6 18 4.6 17.9 4.6 18 4.7 18 4.7 18.1 4.7 18.1 4.7 18.1 4.7 18.1 4.7 18.2 4.7 18.2 4.7 18.3 4.7 18.3 4.7 18.3 4.7 18.3 4.7 18.4 4.7 18.4 4.7 18.5 4.7 18.5 4.7 18.5 4.7 18.5 4.7 18.6 4.7 18.6 4.6 18.6 4.6 18.6 4.6 18.6 4.6 18.6 4.6 18.6 4.6 18.6 4.6 18.6 4.6L20.2 2.9C20.4 2.7 20.4 2.4 20.2 2.2 20 2 19.7 2 19.5 2.2L18.8 3 18.8 1C18.8.7 18.6.5 18.3.5 18 .5 17.8.7 17.8 1L17.8 3 17.1 2.2C16.9 2 16.6 2 16.4 2.2 16.2 2.4 16.2 2.7 16.4 2.9L17.9 4.6z"/>
      <path d="M17.9 7.1C18 7.2 18.1 7.3 18.3 7.3 18.4 7.3 18.6 7.2 18.7 7.1L20.7 4.9C20.9 4.7 20.9 4.4 20.7 4.2 20.5 4 20.2 4 20 4.2L18.3 6 16.6 4.2C16.4 4 16.1 4 15.9 4.2 15.7 4.4 15.7 4.7 15.9 4.9L17.9 7.1zM23 17C21.3 17 19.7 17.9 18.8 19.2L18.8 15 21.1 12.5C21.3 12.3 21.3 12 21.1 11.8 20.9 11.6 20.6 11.6 20.4 11.8L18.3 14.1 16.2 11.8C16 11.6 15.7 11.6 15.5 11.8 15.3 12 15.3 12.3 15.5 12.5L17.8 15 17.8 19.2C16.9 17.9 15.3 17 13.6 17 13.3 17 13.1 17.2 13.1 17.5 13.1 17.8 13.3 18 13.6 18 15.9 18 17.8 19.9 17.8 22.2 17.8 22.5 18 22.7 18.3 22.7 18.6 22.7 18.8 22.5 18.8 22.2 18.8 19.9 20.7 18 23 18 23.3 18 23.5 17.8 23.5 17.5 23.5 17.2 23.3 17 23 17"/>
    </g>
    <g fill="#FFF" transform="translate(32 2)">
      <path d="M13.7 15.3C13.7 14.8 13.8 14.3 14.1 13.9L18.8 13.9C19.1 14.3 19.2 14.8 19.2 15.3 19.2 16.8 18 18.1 16.5 18.1 14.9 18 13.7 16.8 13.7 15.3M20 15.3C20 14.5 19.8 13.7 19.3 13.1 19.2 13 19.1 12.9 18.9 12.9L13.6 12.9C13.4 12.9 13.3 13 13.2 13.1 12.7 13.7 12.5 14.5 12.5 15.3 12.5 17.2 13.9 18.8 15.8 19L15.8 22.6 14.3 22.6C14 22.6 13.8 22.8 13.8 23.1 13.8 23.4 14 23.6 14.3 23.6L18.3 23.6C18.6 23.6 18.8 23.4 18.8 23.1 18.8 22.8 18.6 22.6 18.3 22.6L16.8 22.6 16.8 19C18.6 18.7 20 17.2 20 15.3M4.3 18.2C3.8 18.2 3.4 18.6 3.4 19.1 3.4 19.6 3.8 20 4.3 20 4.8 20 5.2 19.6 5.2 19.1 5.2 18.6 4.8 18.2 4.3 18.2M6.4 19.9C6 19.9 5.7 20.2 5.7 20.6 5.7 21 6 21.3 6.4 21.3 6.8 21.3 7.1 21 7.1 20.6 7.2 20.2 6.8 19.9 6.4 19.9"/>
      <path d="M4.3,22.6 C4.5,22.4 4.6,22.2 4.6,22 C4.6,21.5 4.2,21.1 3.7,21.1 C3.2,21.1 2.8,21.5 2.8,22 C2.8,22.2 2.9,22.5 3.1,22.6 L2.2,22.6 C1.8,20.8 2.4,18.6 3.8,17 L9.6,20.7 C9.3,20.8 9.1,21.1 9.1,21.4 C9.1,21.8 9.4,22.1 9.8,22.1 C10.2,22.1 10.5,21.8 10.5,21.4 C10.5,21.4 10.5,21.3 10.5,21.3 L12.5,22.6 L4.3,22.6 Z M5.5,12.5 C5.5,10.7 6,9.8 6.3,9.2 L6.3,9.1 C6.9,8.1 7.2,7.4 7.3,7 C7.4,6.6 7.4,4.6 7.4,3 C7.4,2.8 7.3,2.6 7.1,2.5 L7.1,1.8 L9.2,1.8 L9.2,2.5 C9.2,2.5 9.1,2.5 9.1,2.6 C9,2.7 9,2.8 9,3 C9,4.1 9,6.6 9.1,7 C9.2,7.6 9.7,8.6 10,9.1 C10.4,9.8 10.8,10.6 10.8,12.5 L10.8,20.6 L5.4,17.1 L5.4,12.5 L5.5,12.5 Z M14.2,22.7 L11.8,21.2 C11.8,21.2 11.8,21.2 11.8,21.2 L11.8,12.5 C11.8,10.4 11.2,9.4 10.8,8.7 L10.8,8.6 C10.3,7.8 10,7.1 10,6.8 C10,6.6 9.9,5.2 9.9,3.4 C10.1,3.3 10.2,3.1 10.2,3 L10.2,1.3 C10.2,1 10,0.8 9.7,0.8 L6.5,0.8 C6.2,0.8 6,1 6,1.3 L6,3 C6,3.2 6.1,3.4 6.3,3.5 C6.3,5.6 6.3,6.7 6.3,6.9 C6.3,7 6.2,7.5 5.5,8.7 L5.5,8.8 C5.2,9.4 4.8,10.1 4.6,11.4 L4.5,12.4 C4.5,12.5 4.5,16.6 4.5,16.6 L3.8,16 C3.6,15.9 3.3,15.9 3.2,16.1 C2.3,17 1.7,18.1 1.3,19.2 L1.1,20.2 C0.9,21.2 0.9,22.3 1.2,23.3 C1.3,23.5 1.5,23.7 1.7,23.7 L14,23.7 C14.2,23.7 14.4,23.6 14.5,23.3 C14.5,23.1 14.4,22.8 14.2,22.7 Z"/>
    </g>
    <g fill="#FFF" transform="translate(60 30)">
      <g transform="translate(10 13)">
        <path d="M1.8,2.2 C1.5,1.9 1.3,1.6 1.1,1.3 C1.4,1.4 1.8,1.6 2.1,1.8 C2.4,2.1 2.6,2.4 2.8,2.7 C2.4,2.6 2.1,2.4 1.8,2.2 M3.6,3.4 C3.7,3.3 3.7,3.3 3.7,3.2 C3.7,3.2 3.7,3.1 3.7,3.1 C3.6,2.4 3.2,1.8 2.6,1.3 C2,0.8 1.3,0.5 0.6,0.5 C0.5,0.5 0.4,0.5 0.3,0.6 C0.2,0.7 0.2,0.8 0.2,0.9 C0.3,1.6 0.7,2.2 1.3,2.7 C1.9,3.2 2.6,3.5 3.3,3.5 C3.4,3.5 3.5,3.5 3.6,3.4"/>
        <path d="M5.1,10.1 C3.3,10.1 1.9,8.7 1.9,6.9 C1.9,5.6 2.6,4.8 3.8,4.8 C4.2,4.8 4.5,4.9 4.9,5 C5,5 5.1,5 5.2,5 C5.6,4.9 6,4.8 6.3,4.8 C7.5,4.8 8.2,5.6 8.2,6.9 C8.3,8.7 6.9,10.1 5.1,10.1 M6.4,3.8 C6.1,3.8 5.9,3.8 5.6,3.9 C5.5,3.5 5.3,2.8 4.8,2.2 C4.6,2 4.3,2 4.1,2.2 C3.9,2.4 3.9,2.7 4.1,2.9 C4.4,3.2 4.5,3.5 4.6,3.8 C4.3,3.7 4.1,3.7 3.8,3.7 C2.1,3.7 0.9,5 0.9,6.8 C0.9,9.1 2.8,11 5.1,11 C7.4,11 9.3,9.1 9.3,6.8 C9.3,5.1 8.1,3.8 6.4,3.8"/>
      </g>
      <path d="M19.5 6.2C19.3 6.2 19.1 6.1 18.9 6 18.9 6 18.9 6 18.8 6 18.5 5.8 18.3 5.4 18.2 5 18.2 5 18.2 5 18.2 4.9 18.2 4.9 18.2 4.9 18.2 4.8 18.2 4.1 18.8 3.6 19.5 3.6 20.2 3.6 20.8 4.2 20.8 4.9 20.7 5.7 20.2 6.2 19.5 6.2M17.7 9.3C17 9.3 16.5 8.8 16.4 8.1L16.4 8 16.4 7.9C16.4 7.2 17 6.7 17.7 6.7 17.9 6.7 18.1 6.8 18.3 6.9 18.3 6.9 18.3 6.9 18.4 6.9 18.7 7.1 19 7.5 19 8 19 8.7 18.4 9.3 17.7 9.3M16 12.3C15.3 12.3 14.7 11.7 14.7 11 14.7 10.3 15.3 9.7 16 9.7 16.7 9.7 17.3 10.3 17.3 11 17.3 11.7 16.7 12.3 16 12.3M13 8C13 7.3 13.6 6.7 14.3 6.7 14.5 6.7 14.7 6.8 14.9 6.9 14.9 6.9 15 6.9 15 6.9 15.3 7.1 15.5 7.5 15.6 7.9 15.6 7.9 15.6 7.9 15.6 8 15.6 8 15.6 8 15.6 8.1 15.6 8.8 15 9.3 14.3 9.3 13.6 9.3 13 8.7 13 8M11.2 5C11.2 4.3 11.8 3.7 12.5 3.7 13.2 3.7 13.7 4.2 13.8 4.9 13.8 4.9 13.8 4.9 13.8 5 13.8 5 13.8 5 13.8 5.1 13.8 5.8 13.2 6.3 12.5 6.3 11.8 6.2 11.2 5.7 11.2 5M16 3.7C16.7 3.7 17.2 4.2 17.3 4.9 17.3 4.9 17.3 4.9 17.3 5 17.3 5 17.3 5 17.3 5.1 17.3 5.8 16.7 6.3 16 6.3 15.8 6.3 15.6 6.2 15.4 6.1 15.4 6.1 15.3 6.1 15.3 6.1 15 5.9 14.8 5.5 14.7 5.1 14.7 5.1 14.7 5.1 14.7 5 14.7 5 14.7 5 14.7 4.9 14.8 4.2 15.3 3.7 16 3.7M21.7 5C21.7 3.8 20.7 2.8 19.5 2.8 18.8 2.8 18.2 3.1 17.8 3.6 17.4 3.1 16.9 2.8 16.3 2.8 16.3 2.8 16.3 2.8 16.3 2.8L16.3 1.6 17.1 1.8C17.1 1.8 17.2 1.8 17.2 1.8 17.4 1.8 17.6 1.6 17.7 1.4 17.8 1.1 17.6.9 17.3.8L14 .1C13.7 3.1918912e-16 13.5.2 13.4.5 13.3.8 13.5 1 13.8 1.1L15.2 1.4 15.2 2.8C15.2 2.8 15.2 2.9 15.2 2.9 14.8 3 14.4 3.3 14.1 3.6 13.7 3.1 13.1 2.8 12.4 2.8 11.2 2.8 10.2 3.8 10.2 5 10.2 6.1 11 7 12.1 7.2 12.1 7.4 12 7.7 12 8 12 9.1 12.8 10 13.9 10.2 13.8 10.5 13.7 10.7 13.7 11 13.7 12.2 14.7 13.2 15.9 13.2 17.1 13.2 18.1 12.2 18.1 11 18.1 10.7 18 10.4 17.9 10.2 19.1 10 20 9.1 20 8 20 7.7 19.9 7.4 19.8 7.2 20.9 7 21.7 6.1 21.7 5M3.1 19.1C3.2 19 3.4 18.8 3.5 18.7 3.7 18.5 3.9 18.2 4.1 18 4.2 18.2 4.3 18.3 4.4 18.5 4.6 18.8 4.9 19.1 5.1 19.5L5.1 23.1C5.1 23.1 5.1 23.2 5.1 23.2L3 23.2 3.1 19.1C3.2 19.2 3.1 19.2 3.1 19.1M.9 14.5C.9 12.4 1.6 9.4 2.7 7.8 3.8 9.4 4.5 12.4 4.5 14.5 4.5 16.3 4 16.9 2.9 18.1 2.9 18.2 2.8 18.2 2.8 18.3 2.8 18.2 2.7 18.2 2.7 18.1 1.5 16.9.9 16.3.9 14.5M5.7 2.9C6.9 5.3 7.7 10.1 7.7 13.3 7.7 15.9 7.2 16.6 6.2 18 6.1 18.2 5.9 18.4 5.8 18.6 5.6 18.4 5.5 18.2 5.4 18 5.2 17.7 5 17.5 4.9 17.3 5.3 16.6 5.5 15.8 5.5 14.6 5.5 12.8 5 10.5 4.3 8.6 4.5 6.3 5 4.2 5.7 2.9M8.3 23.2L7.3 23.2 6.3 23.2 6.1 23.2C6.1 23.2 6.1 23.1 6.1 23.1L6.1 19.5C6.4 19.1 6.6 18.8 6.8 18.5 7.8 17.1 8.5 16.2 8.5 13.3 8.5 10 7.6 4.1 6 1.7 5.8 1.4 5.4 1.4 5.2 1.7 4.4 2.9 3.8 5 3.3 7.2 3.2 7 3.1 6.9 2.9 6.7 2.8 6.6 2.7 6.5 2.5 6.5 2.4 6.5 2.2 6.6 2.1 6.7.9 8.3 0 12 0 14.5 0 16.7.7 17.5 1.9 18.7 2 18.8 2.1 19 2.3 19.1 2.3 19.1 2.3 19.2 2.3 19.2L2.3 23.2.7 23.2C.4 23.2.2 23.4.2 23.7.2 24 .4 24.2.7 24.2L8.4 24.2C8.7 24.2 8.9 24 8.9 23.7 8.8 23.4 8.6 23.2 8.3 23.2"/>
    </g>
    <g fill="#FFF" transform="translate(2 65)">
      <path d="M18,9.3 C17.2,8.7 16.7,7.6 16.7,6.6 C16.7,6 16.8,5.5 17.1,4.9 C17.2,4.7 17.1,4.4 16.9,4.2 C16.7,4.1 16.4,4.2 16.2,4.4 C15.9,5 15.7,5.8 15.7,6.5 C15.7,7.6 16.1,8.7 16.8,9.5 C16,9.6 15.2,9.7 14.4,9.7 C13.6,9.7 12.9,9.6 12.2,9.5 C12.4,9.3 12.7,9 12.9,8.7 C13.1,8.5 13.1,8.2 12.8,8 C12.6,7.8 12.3,7.9 12.1,8.1 C11.7,8.5 11.4,8.9 11,9.2 C9,8.7 7.1,7.7 5.4,6.4 C7.9,4.3 11,3.2 14.3,3.2 C17.6,3.2 20.6,4.3 23.2,6.5 C21.8,7.8 20,8.8 18,9.3 M24.5,6.1 C22,3.9 19.1,2.6 15.9,2.3 C15.6,1.9 14.4,0.8 11.5,0.1 C11.2,5.55111512e-17 11,0.2 10.9,0.5 C10.8,0.8 11,1 11.3,1.1 C12.8,1.4 13.7,1.9 14.3,2.2 C10.8,2.2 7.5,3.5 4.8,5.8 C3.6,4.7 2.6,3.4 1.8,1.9 C1.7,1.7 1.4,1.6 1.1,1.7 C0.9,1.8 0.8,2.1 0.9,2.4 C1.8,3.9 2.8,5.3 4,6.4 C2.8,7.6 1.7,8.9 0.8,10.5 C0.7,10.7 0.7,11 1,11.2 C1.1,11.2 1.2,11.3 1.2,11.3 C1.4,11.3 1.5,11.2 1.6,11.1 C2.5,9.6 3.5,8.3 4.7,7.2 C6.3,8.5 8.1,9.5 10,10.1 C9.6,10.4 9.1,10.6 8.6,10.8 C8.3,10.9 8.2,11.2 8.3,11.4 C8.4,11.6 8.6,11.7 8.8,11.7 C8.9,11.7 8.9,11.7 9,11.7 C9.8,11.4 10.5,11 11.3,10.4 C12.3,10.6 13.4,10.7 14.4,10.7 C18.1,10.7 21.5,9.4 24.4,6.8 C24.5,6.7 24.5,6.7 24.5,6.6 C24.7,6.5 24.6,6.3 24.5,6.1"/>
      <path d="M19.9,7 C20.3,7 20.6,6.7 20.6,6.3 C20.6,5.9 20.3,5.6 19.9,5.6 C19.5,5.6 19.2,5.9 19.2,6.3 C19.2,6.6 19.5,7 19.9,7"/>
    </g>
    <g fill="#FFF" transform="translate(3 3)">
      <path d="M22.4,17.8 C22.1,15.7 19.5,11.9 19.1,11.3 L18.4,9.2 C18.4,9.2 18.4,9.1 18.3,9.1 L15.2,4.7 L15.6,0.6 C15.6,0.4 15.5,0.3 15.4,0.2 C15.3,0.1 15.1,0.1 14.9,0.2 C14.8,0.3 13.1,1.3 11.6,2.9 C10.5,2.9 6.4,2.6 0.9,6.2 C0.7,6.3 0.7,6.6 0.8,6.8 C0.9,7 1,7.1 1.2,7.1 C1.3,7.1 1.4,7.1 1.5,7 C5.9,4.1 9.4,3.9 11,3.9 C10.7,4.3 10.5,4.6 10.3,5 C10.2,5.2 10.3,5.5 10.5,5.6 C10.7,5.7 11,5.6 11.1,5.4 C12,3.6 13.7,2.3 14.7,1.5 L14.3,5 C14.3,5.1 14.3,5.3 14.4,5.4 L17.5,9.8 L18.2,11.9 C18.2,11.9 18.2,12 18.3,12 C18.3,12 20.3,15 21.1,17.1 C20.9,17.1 20.8,17 20.7,17.1 C20.2,17.1 19.6,17.5 19.4,18 C19.2,18.4 19.3,18.9 19.6,19.2 C19.7,19.3 19.8,19.4 20,19.4 C20.1,19.4 20.2,19.4 20.3,19.3 C20.5,19.1 20.5,18.8 20.3,18.6 C20.2,18.5 20.3,18.4 20.3,18.4 C20.4,18.2 20.6,18.1 20.7,18.1 C20.9,18.1 21.3,18.1 21.3,18.7 C21.3,19.3 20.8,20.5 19.5,20.6 C19.5,20.6 19.5,20.6 19.5,20.6 C19.4,20.3 19,20 18.5,19.4 C18.3,19.2 18,19.2 17.8,19.4 C17.6,19.6 17.6,19.9 17.8,20.1 C18,20.3 18.3,20.6 18.5,20.8 C18.1,21 17.5,20.8 17,20.5 C16.3,20 15.9,19 16.8,18 C17,17.8 16.9,17.5 16.7,17.3 C16.5,17.1 16.2,17.2 16,17.4 C15.8,17.6 15.7,17.9 15.6,18.1 L12.5,15.7 C12.4,15.6 12.2,15.6 12.1,15.6 C12.1,15.6 10.6,16.1 9.4,15 C9.2,14.8 9.1,14.6 8.9,14.4 C8.9,14.3 8.8,14.3 8.8,14.2 C8.2,13 8.4,11.3 9.5,10 C9.7,9.8 9.6,9.5 9.4,9.3 C9.2,9.1 8.9,9.2 8.7,9.4 C7.4,10.9 7.1,13 7.8,14.5 L1.8,22.6 C1.6,22.8 1.7,23.1 1.9,23.3 C2,23.4 2.1,23.4 2.2,23.4 C2.3,23.4 2.5,23.3 2.6,23.2 L8.4,15.4 C8.5,15.5 8.6,15.6 8.7,15.7 C10,16.9 11.5,16.7 12.1,16.6 L15.3,19.1 C15.3,20 15.7,20.8 16.3,21.3 C16.8,21.7 17.4,21.9 17.9,21.9 C18.3,21.9 18.8,21.8 19.1,21.5 C19.2,21.6 19.3,21.6 19.4,21.6 C20.9,21.3 22.7,19.5 22.4,17.8"/>
      <circle cx="16" cy="10.6" r="1"/>
    </g>
    <g transform="translate(31 32)">
      <g fill="#FFF">
        <path d="M.2 4.1L.9 4.1C.9 4.6 1.4 5.1 2.1 5.1 2.8 5.1 3.2 4.6 3.2 4.1 3.2 3.6 2.7 3.3 2.2 3.2L1.6 3C.4 2.7.2 2 .2 1.6.2.6 1.1 0 2.1 0 3.1 0 3.9.6 3.9 1.6L3.2 1.6C3.2 1 2.7.7 2.1.7 1.5.7 1 1 1 1.6 1 1.8 1.1 2.2 1.8 2.4L2.5 2.6C3.5 2.8 4 3.4 4 4.2 4 5.1 3.3 5.9 2.1 5.9 1 5.8.2 5 .2 4.1zM7.7 4.3L5.3 4.3 4.8 5.7 4 5.7 6.1.1 6.9.1 9 5.7 8.2 5.7 7.7 4.3zM7.4 3.6L6.4 1.1 5.4 3.6 7.4 3.6z"/>
        <polygon points="9.4 .1 10.1 .1 10.1 5 12.4 5 12.4 5.7 9.4 5.7"/>
        <path d="M12.3,2.9 C12.3,1.3 13.5,0 15.1,0 C16.7,0 18,1.3 18,2.9 C18,4.5 16.8,5.8 15.1,5.8 C13.5,5.8 12.3,4.5 12.3,2.9 Z M17.2,2.9 C17.2,1.7 16.3,0.7 15.1,0.7 C13.9,0.7 13,1.7 13,2.9 C13,4.1 13.9,5.1 15.1,5.1 C16.3,5.1 17.2,4.1 17.2,2.9 Z"/>
        <polygon points="22.8 .1 22.8 5.7 22.1 5.7 19.5 1.4 19.5 5.7 18.8 5.7 18.8 .1 19.5 .1 22.1 4.4 22.1 .1"/>
      </g>
      <g fill="#F2BA44" transform="translate(0 6)">
        <polygon points=".2 .8 .5 .8 .5 3.1 .2 3.1"/>
        <polygon points="2.6 .8 2.6 3.1 2.3 3.1 1.2 1.3 1.2 3.1 .9 3.1 .9 .8 1.2 .8 2.3 2.6 2.3 .8"/>
        <polygon points="4.6 1.1 3.9 1.1 3.9 3.2 3.6 3.2 3.6 1.1 2.9 1.1 2.9 .8 4.6 .8"/>
        <polygon points="6.2 2.9 6.2 3.2 4.8 3.2 4.8 .9 6.2 .9 6.2 1.2 5.1 1.2 5.1 2 6 2 6 2.3 5.1 2.3 5.1 3 6.2 3"/>
        <path d="M7.2,2.3 L6.9,2.3 L6.9,3.2 L6.6,3.2 L6.6,0.9 L7.5,0.9 C8,0.9 8.2,1.3 8.2,1.6 C8.2,1.9 8,2.3 7.6,2.3 L8.2,3.2 L7.8,3.2 L7.2,2.3 Z M6.9,2 L7.4,2 C7.7,2 7.9,1.8 7.9,1.6 C7.9,1.3 7.7,1.2 7.5,1.2 L6.9,1.2 L6.9,2 Z"/>
        <polygon points="10.2 .8 10.2 3.1 9.9 3.1 8.8 1.3 8.8 3.1 8.5 3.1 8.5 .8 8.8 .8 9.9 2.6 9.9 .8"/>
        <path d="M11.9,2.5 L10.9,2.5 L10.7,3.1 L10.4,3.1 L11.3,0.8 L11.6,0.8 L12.5,3.1 L12.2,3.1 L11.9,2.5 Z M11.8,2.3 L11.4,1.2 L11,2.3 L11.8,2.3 Z"/>
        <polygon points="13.9 1.1 13.2 1.1 13.2 3.2 12.9 3.2 12.9 1.1 12.2 1.1 12.2 .8 13.9 .8"/>
        <polygon points="14.1 .8 14.4 .8 14.4 3.1 14.1 3.1"/>
        <path d="M14.8,2 C14.8,1.3 15.3,0.8 16,0.8 C16.7,0.8 17.2,1.3 17.2,2 C17.2,2.7 16.7,3.2 16,3.2 C15.3,3.2 14.8,2.6 14.8,2 Z M16.8,2 C16.8,1.5 16.4,1.1 15.9,1.1 C15.4,1.1 15,1.5 15,2 C15,2.5 15.4,2.9 15.9,2.9 C16.4,2.9 16.8,2.5 16.8,2 Z"/>
        <polygon points="19.1 .8 19.1 3.1 18.8 3.1 17.7 1.3 17.7 3.1 17.4 3.1 17.4 .8 17.7 .8 18.8 2.6 18.8 .8"/>
        <path d="M20.9,2.5 L19.9,2.5 L19.7,3.1 L19.4,3.1 L20.3,0.8 L20.6,0.8 L21.5,3.1 L21.2,3.1 L20.9,2.5 Z M20.8,2.3 L20.4,1.2 L20,2.3 L20.8,2.3 Z"/>
        <polygon points="21.6 .8 21.9 .8 21.9 2.9 22.9 2.9 22.9 3.2 21.6 3.2"/>
      </g>
      <g fill="#F7FBFD" transform="translate(1 10)">
        <path d="M0.9,0.2 L1.8,0.2 C2.5,0.2 2.8,0.7 2.8,1.4 C2.8,2 2.4,2.5 1.8,2.5 L0.9,2.5 L0.9,0.2 Z M1.7,2.2 C2.2,2.2 2.4,1.8 2.4,1.3 C2.4,0.8 2.2,0.4 1.7,0.4 L1.1,0.4 L1.1,2.1 L1.7,2.1 L1.7,2.2 Z"/>
        <polygon points="4.5 2.2 4.5 2.5 3.1 2.5 3.1 .2 4.5 .2 4.5 .5 3.4 .5 3.4 1.2 4.3 1.2 4.3 1.5 3.4 1.5 3.4 2.2"/>
      </g>
      <g fill="#F7FBFD" transform="translate(0 16)">
        <path d="M.3 2.9C.3 1.7 1.2.8 2.4.8 3 .8 3.6 1.1 3.9 1.5L3.5 1.8C3.2 1.5 2.8 1.3 2.3 1.3 1.4 1.3.8 2 .8 2.9.8 3.8 1.5 4.5 2.3 4.5 2.8 4.5 3.2 4.3 3.5 4L3.9 4.3C3.5 4.7 3 5 2.4 5 1.2 5 .3 4.1.3 2.9zM4.3 3.5L4.3.8 4.8.8 4.8 3.5C4.8 4.1 5.2 4.4 5.8 4.4 6.3 4.4 6.8 4.1 6.8 3.5L6.8.8 7.3.8 7.3 3.5C7.3 4.4 6.6 5 5.8 5 5 5 4.3 4.5 4.3 3.5z"/>
        <polygon points="8.1 .8 8.6 .8 8.6 4.4 10.3 4.4 10.3 4.9 8.1 4.9"/>
        <polygon points="12.8 1.3 11.5 1.3 11.5 4.9 11 4.9 11 1.3 9.7 1.3 9.7 .8 12.8 .8 12.8 1.3"/>
        <path d="M13.2 3.5L13.2.8 13.7.8 13.7 3.5C13.7 4.1 14.1 4.4 14.7 4.4 15.2 4.4 15.7 4.1 15.7 3.5L15.7.8 16.2.8 16.2 3.5C16.2 4.4 15.5 5 14.7 5 13.8 5 13.2 4.5 13.2 3.5zM18 3.4L17.5 3.4 17.5 5 17 5 17 .9 18.5.9C19.4.9 19.7 1.5 19.7 2.2 19.7 2.8 19.4 3.4 18.6 3.5L19.7 5.1 19 5.1 18 3.4zM17.5 2.9L18.4 2.9C19 2.9 19.2 2.6 19.2 2.1 19.2 1.6 18.9 1.3 18.5 1.3L17.5 1.3 17.5 2.9z"/>
        <polygon points="22.8 4.4 22.8 4.9 20.3 4.9 20.3 .8 22.7 .8 22.7 1.3 20.8 1.3 20.8 2.6 22.4 2.6 22.4 3.1 20.8 3.1 20.8 4.4 22.8 4.4"/>
      </g>
      <g transform="translate(0 10)">
        <g fill="#F7FBFD">
          <polygon points=".3 .1 1 .1 1 5.1 3.3 5.1 3.3 5.8 .2 5.8 .2 .1"/>
          <path d="M9.9 4.4L7.4 4.4 6.8 5.9 6 5.9 8.2.2 9 .2 11.2 5.9 10.4 5.9 9.9 4.4zM9.6 3.7L8.6 1.1 7.6 3.7 9.6 3.7zM11.1 3C11.1 1.4 12.4.1 14 .1 14.8.1 15.4.4 15.9.8L15.4 1.3C15 1 14.5.8 14 .8 12.8.8 11.9 1.8 11.9 3 11.9 4.2 12.8 5.2 14 5.2 15 5.2 15.7 4.6 15.9 3.7 15.9 3.7 15.9 3.6 15.9 3.6L14.2 3.6 14.2 3 16.7 3C16.7 5 15.6 5.9 14 5.9 12.4 5.9 11.1 4.6 11.1 3zM18.9 3.7L18.2 3.7 18.2 5.9 17.4 5.9 17.4.2 19.5.2C20.7.2 21.2 1.1 21.2 2 21.2 2.8 20.8 3.7 19.7 3.8L21.2 6 20.3 6 18.9 3.7zM18.1 3L19.3 3C20.1 3 20.5 2.6 20.5 1.9 20.5 1.3 20.1.8 19.5.8L18.1.8 18.1 3z"/>
          <polygon points="22.1 .1 22.9 .1 22.9 5.8 22.1 5.8"/>
        </g>
        <path fill="#FFF" d="M5.9,2.6 C6.4,1.9 6.7,1.3 6.6,0.3 L7.3,0.3 C7.4,1.3 7.1,2.2 6.4,2.8 L5.9,2.6 Z"/>
      </g>
    </g>
  </g>
</svg>
