<?xml version="1.0" encoding="UTF-8"?>
<svg width="20px" height="17px" viewBox="0 0 20 17" version="1.1" xmlns="http://www.w3.org/2000/svg" xmlns:xlink="http://www.w3.org/1999/xlink">
    <!-- Generator: Sketch 47.1 (45422) - http://www.bohemiancoding.com/sketch -->
    <title>Twitter</title>
    <desc>Created with Sketch.</desc>
    <defs>
        <polygon id="path-1" points="0 8.00008 0 16 19.8333333 16 19.8333333 8.00008 19.8333333 0.00015999999 0 0.00015999999"></polygon>
    </defs>
    <g id="Symbols" stroke="none" stroke-width="1" fill="none" fill-rule="evenodd">
        <g id="supfooter" transform="translate(-1055.000000, -164.000000)">
            <g id="Group-22">
                <g transform="translate(1014.000000, 90.000000)">
                    <g id="Social" transform="translate(0.000000, 73.000000)">
                        <g id="Twitter" transform="translate(40.604372, 1.176471)">
                            <g transform="translate(0.700000, 0.000000)">
                                <mask id="mask-2" fill="white">
                                    <use xlink:href="#path-1"></use>
                                </mask>
                                <g id="Clip-2"></g>
                                <path d="M17.4971319,2.52976 C18.3375694,2.03056 18.9821528,1.23896 19.2862639,0.29576 C18.4991285,0.75816 17.6297674,1.09416 16.7004931,1.27456 C15.9604618,0.49016 14.9018576,0.00015999999 13.7308646,0.00015999999 C11.485566,0.00015999999 9.66337847,1.80856 9.66337847,4.03896 C9.66337847,4.35576 9.6985,4.66296 9.76832986,4.95896 C6.38633333,4.79016 3.38902083,3.18376 1.38048264,0.73736 C1.03009375,1.33576 0.830107639,2.03056 0.830107639,2.77016 C0.830107639,4.17056 1.54823958,5.40736 2.6403125,6.13176 C1.97424306,6.11216 1.34577431,5.92856 0.796225694,5.62816 L0.796225694,5.67776 C0.796225694,7.63536 2.19902083,9.26856 4.06170139,9.63816 C3.72040278,9.73296 3.36092361,9.78056 2.98946181,9.78056 C2.72749653,9.78056 2.47131597,9.75576 2.22339931,9.70856 C2.74154514,11.31256 4.24350694,12.48096 6.024375,12.51216 C4.63190972,13.59616 2.87665972,14.24216 0.971006944,14.24216 C0.642517361,14.24216 0.317746528,14.22376 0,14.18656 C1.80070139,15.33096 3.94063542,16.00016 6.23758333,16.00016 C13.7230139,16.00016 17.8144653,9.84616 17.8144653,4.50816 C17.8144653,4.33256 17.8111597,4.15696 17.8041354,3.98496 C18.5995347,3.41496 19.2899826,2.70416 19.8333333,1.89416 C19.1044583,2.21536 18.3198021,2.43256 17.4971319,2.52976 Z" id="Fill-1" fill="#2A2A2A" mask="url(#mask-2)"></path>
                            </g>
                        </g>
                    </g>
                </g>
            </g>
        </g>
    </g>
</svg>