<?xml version="1.0" encoding="UTF-8"?>
<svg width="20px" height="15px" viewBox="0 0 20 15" version="1.1" xmlns="http://www.w3.org/2000/svg" xmlns:xlink="http://www.w3.org/1999/xlink">
    <!-- Generator: Sketch 47.1 (45422) - http://www.bohemiancoding.com/sketch -->
    <title>Youtube</title>
    <desc>Created with Sketch.</desc>
    <defs>
        <polygon id="path-1" points="9.91656337 14 0 14 0 0 9.91656337 0 19.8331267 0 19.8331267 14"></polygon>
    </defs>
    <g id="Symbols" stroke="none" stroke-width="1" fill="none" fill-rule="evenodd">
        <g id="supfooter" transform="translate(-1139.000000, -165.000000)">
            <g id="Group-22">
                <g transform="translate(1014.000000, 90.000000)">
                    <g id="Social" transform="translate(0.000000, 73.000000)">
                        <g id="Youtube" transform="translate(124.162842, 2.352941)">
                            <g transform="translate(0.933333, 0.000000)">
                                <mask id="mask-2" fill="white">
                                    <use xlink:href="#path-1"></use>
                                </mask>
                                <g id="Clip-2"></g>
                                <path d="M19.6347934,3.01988235 C19.6347934,3.01988235 19.4410052,1.64829412 18.8468316,1.04423529 C18.0923385,0.251176471 17.2469427,0.247470588 16.8593663,0.201352941 C14.0839392,0 9.92100521,0 9.92100521,0 L9.91232812,0 C9.91232812,0 5.7493941,0 2.97355382,0.201352941 C2.58556424,0.247470588 1.74099479,0.251176471 0.986088542,1.04423529 C0.391914931,1.64829412 0.198126736,3.01988235 0.198126736,3.01988235 C0.198126736,3.01988235 -0.000206597222,4.63111765 -0.000206597222,6.24152941 L-0.000206597222,7.75147059 C-0.000206597222,9.36270588 0.198126736,10.9731176 0.198126736,10.9731176 C0.198126736,10.9731176 0.391914931,12.3447059 0.986088542,12.9487647 C1.74099479,13.7418235 2.73183507,13.7171176 3.17353993,13.7998824 C4.7597934,13.9526471 9.91646007,14 9.91646007,14 C9.91646007,14 14.0839392,13.9938235 16.8593663,13.7920588 C17.2469427,13.7455294 18.0923385,13.7418235 18.8468316,12.9487647 C19.4410052,12.3447059 19.6347934,10.9731176 19.6347934,10.9731176 C19.6347934,10.9731176 19.8331267,9.36270588 19.8331267,7.75147059 L19.8331267,6.24152941 C19.8331267,4.63111765 19.6347934,3.01988235 19.6347934,3.01988235 L19.6347934,3.01988235 Z M7.8686684,9.58176471 L7.86825521,3.98917647 L13.226974,6.79494118 L7.8686684,9.58176471 Z" id="Fill-1" fill="#2A2A2A" mask="url(#mask-2)"></path>
                            </g>
                        </g>
                    </g>
                </g>
            </g>
        </g>
    </g>
</svg>