<?xml version="1.0" encoding="UTF-8"?>
<svg width="16px" height="15px" viewBox="0 0 16 15" version="1.1" xmlns="http://www.w3.org/2000/svg" xmlns:xlink="http://www.w3.org/1999/xlink">
    <!-- Generator: Sketch 47.1 (45422) - http://www.bohemiancoding.com/sketch -->
    <title>LinkedIn</title>
    <desc>Created with Sketch.</desc>
    <defs></defs>
    <g id="Symbols" stroke="none" stroke-width="1" fill="none" fill-rule="evenodd">
        <g id="supfooter" transform="translate(-1180.000000, -165.000000)" fill="#2A2A2A">
            <g id="Group-22">
                <g transform="translate(1014.000000, 90.000000)">
                    <g id="Social" transform="translate(0.000000, 73.000000)">
                        <g id="LinkedIn" transform="translate(165.942077, 2.027149)">
                            <path d="M0.403636364,15 L3.52218182,15 L3.52218182,4.810125 L0.403636364,4.810125 L0.403636364,15 Z M1.88327273,3.5355 L1.86072727,3.5355 C0.732,3.5355 0,2.756625 0,1.76925 C0,0.76275 0.753454545,0 1.90509091,0 C3.05563636,0 3.76290909,0.7605 3.78545455,1.76625 C3.78545455,2.753625 3.05563636,3.5355 1.88327273,3.5355 L1.88327273,3.5355 Z M16,15 L12.4636364,15 L12.4636364,9.72675 C12.4636364,8.34675 11.9105455,7.404375 10.6941818,7.404375 C9.764,7.404375 9.24654545,8.04 9.00581818,8.653125 C8.91563636,8.872875 8.92945455,9.179625 8.92945455,9.486 L8.92945455,15 L5.42618182,15 C5.42618182,15 5.47127273,5.659125 5.42618182,4.810125 L8.92945455,4.810125 L8.92945455,6.4095 C9.13636364,5.710125 10.256,4.71225 12.0421818,4.71225 C14.2585455,4.71225 16,6.178125 16,9.334125 L16,15 Z" id="Page-1"></path>
                        </g>
                    </g>
                </g>
            </g>
        </g>
    </g>
</svg>