<?xml version="1.0" encoding="UTF-8"?>
<svg width="17px" height="17px" viewBox="0 0 17 17" version="1.1" xmlns="http://www.w3.org/2000/svg" xmlns:xlink="http://www.w3.org/1999/xlink">
    <!-- Generator: Sketch 47.1 (45422) - http://www.bohemiancoding.com/sketch -->
    <title>Snapchat@2x</title>
    <desc>Created with Sketch.</desc>
    <defs>
        <polygon id="path-1" points="8.0001048 0 16 0 16 16 8.0001048 16 0.000209591994 16 0.000209591994 0 8.0001048 0"></polygon>
    </defs>
    <g id="Symbols" stroke="none" stroke-width="1" fill="none" fill-rule="evenodd">
        <g id="supfooter" transform="translate(-1216.000000, -164.000000)">
            <g id="Group-22">
                <g transform="translate(1014.000000, 90.000000)">
                    <g id="Social" transform="translate(0.000000, 73.000000)">
                        <g id="Snapchat" transform="translate(202.551913, 1.176471)">
                            <g>
                                <mask id="mask-2" fill="white">
                                    <use xlink:href="#path-1"></use>
                                </mask>
                                <g id="Clip-2"></g>
                                <path d="M8.1538,0 L8.15313333,0 C8.13946667,0 8.12613333,0 8.1138,0 C8.01546667,0.00106666667 7.85346667,0.00284444444 7.83913333,0.0032 C7.4838,0.0032 6.77313333,0.0565333333 6.0098,0.414933333 C5.57313333,0.619733333 5.1808,0.896355556 4.8428,1.23768889 C4.44013333,1.64444444 4.11213333,2.14577778 3.86813333,2.72817778 C3.51046667,3.5808 3.59546667,5.01724444 3.66346667,6.17137778 L3.6638,6.17315556 C3.67113333,6.29688889 3.6788,6.42595556 3.6858,6.55182222 C3.63313333,6.57742222 3.54813333,6.60444444 3.4228,6.60444444 C3.22113333,6.60444444 2.98113333,6.53582222 2.71013333,6.40071111 C2.63046667,6.36124444 2.53946667,6.34097778 2.4388,6.34097778 C2.27746667,6.34097778 2.10713333,6.39182222 1.95946667,6.48391111 C1.7738,6.59982222 1.6538,6.76373333 1.62146667,6.94577778 C1.5998,7.06595556 1.6008,7.30346667 1.84913333,7.54453333 C1.9858,7.67715556 2.18613333,7.79946667 2.44513333,7.90826667 C2.5128,7.93671111 2.59346667,7.96373333 2.6788,7.99253333 C2.97513333,8.0928 3.42346667,8.24426667 3.54046667,8.53688889 C3.5998,8.68515556 3.57413333,8.88071111 3.4648,9.1168 C3.46213333,9.12284444 3.45913333,9.12924444 3.45646667,9.13564444 C3.42913333,9.20391111 3.17446667,9.81795556 2.65146667,10.4657778 C2.35413333,10.8341333 2.02713333,11.1416889 1.67913333,11.3809778 C1.25446667,11.6725333 0.795133333,11.8631111 0.3138,11.9477333 C0.125133333,11.9804444 -0.00986666667,12.1596444 0.0008,12.3630222 C0.0038,12.4220444 0.0168,12.4807111 0.0391333333,12.5372444 L0.0398,12.5383111 C0.116133333,12.7281778 0.293133333,12.8896 0.581466667,13.0318222 C0.933466667,13.2060444 1.4598,13.3521778 2.14613333,13.4666667 C2.1808,13.5367111 2.21646667,13.7130667 2.24146667,13.8336 C2.26746667,13.9619556 2.2948,14.0938667 2.33346667,14.2339556 C2.37546667,14.3857778 2.4838,14.5671111 2.7628,14.5671111 C2.86846667,14.5671111 2.9898,14.5415111 3.13046667,14.5123556 C3.33646667,14.4693333 3.61846667,14.4110222 3.9698,14.4110222 C4.1648,14.4110222 4.36713333,14.4291556 4.57046667,14.4654222 C4.96246667,14.5347556 5.30046667,14.7886222 5.69146667,15.0826667 C6.2638,15.5128889 6.9118,16 7.9018,16 C7.92846667,16 7.9558,15.9989333 7.98246667,15.9971556 C8.01513333,15.9985778 8.0558,16 8.09846667,16 C9.08846667,16 9.73646667,15.5128889 10.3081333,15.0826667 L10.3088,15.0819556 C10.7001333,14.7882667 11.0378,14.5347556 11.4298,14.4654222 C11.6331333,14.4291556 11.8348,14.4110222 12.0298,14.4110222 C12.3658,14.4110222 12.6321333,14.4565333 12.8694667,14.5059556 C13.0244667,14.5383111 13.1448,14.5539556 13.2371333,14.5539556 L13.2464667,14.5543111 L13.2558,14.5543111 C13.4594667,14.5543111 13.6094667,14.4352 13.6668,14.2268444 C13.7048,14.0896 13.7318,13.9608889 13.7584667,13.8304 C13.7818,13.7173333 13.8191333,13.536 13.8538,13.4652444 C14.5404667,13.3507556 15.0664667,13.2046222 15.4184667,13.0307556 C15.7061333,12.8888889 15.8828,12.7278222 15.9598,12.5383111 C15.9828,12.4814222 15.9964667,12.4224 15.9994667,12.3630222 C16.0101333,12.1596444 15.8751333,11.9800889 15.6858,11.9473778 C13.5468,11.5722667 12.5834667,9.23484444 12.5434667,9.13528889 C12.5411333,9.12888889 12.5381333,9.12248889 12.5351333,9.11644444 C12.4258,8.88035556 12.4004667,8.68515556 12.4594667,8.53653333 C12.5764667,8.24391111 13.0244667,8.09244444 13.3208,7.99253333 C13.4068,7.96373333 13.4874667,7.93635556 13.5551333,7.90791111 C13.8471333,7.78524444 14.0558,7.65226667 14.1931333,7.50151111 C14.3574667,7.32124444 14.3898,7.1488 14.3878,7.03608889 C14.3824667,6.76302222 14.1861333,6.52017778 13.8741333,6.40106667 C13.7684667,6.35484444 13.6481333,6.33031111 13.5258,6.33031111 C13.4424667,6.33031111 13.3188,6.3424 13.2018,6.40035556 C12.9514667,6.52515556 12.7274667,6.59306667 12.5351333,6.60302222 C12.4324667,6.59733333 12.3611333,6.57386667 12.3144667,6.55111111 C12.3204667,6.44444444 12.3268,6.33528889 12.3334667,6.22115556 L12.3361333,6.17208889 C12.4044667,5.01724444 12.4898,3.57973333 12.1321333,2.7264 C11.8871333,2.14186667 11.5578,1.63946667 11.1538,1.23164444 C10.8144667,0.890311111 10.4204667,0.613688889 9.98246667,0.408888889 C9.22013333,0.0529777778 8.50946667,0 8.1538,0" id="Fill-1" fill="#293a4d" mask="url(#mask-2)"></path>
                            </g>
                        </g>
                    </g>
                </g>
            </g>
        </g>
    </g>
</svg>