<?xml version="1.0" encoding="UTF-8"?>
<svg width="23px" height="23px" viewBox="0 0 23 23" version="1.1" xmlns="http://www.w3.org/2000/svg" xmlns:xlink="http://www.w3.org/1999/xlink">
    <!-- Generator: Sketch 47.1 (45422) - http://www.bohemiancoding.com/sketch -->
    <title>Group</title>
    <desc>Created with Sketch.</desc>
    <defs></defs>
    <g id="Desktop" stroke="none" stroke-width="1" fill="none" fill-rule="evenodd">
        <g id="Espace-exposant" transform="translate(-1395.000000, -169.000000)" fill="#FFFFFF">
            <g id="Navigation" transform="translate(0.000000, 153.000000)">
                <g id="Recherche" transform="translate(1239.000000, 0.000000)">
                    <g id="Group" transform="translate(156.000000, 16.000000)">
                        <path d="M8.20944109,14.8060531 C6.74474188,13.3394703 5.93796973,11.3978531 5.93796973,9.3389304 C5.93796973,7.26283462 6.74474188,5.31170616 8.20944109,3.84538756 C11.2283049,0.823450216 16.1401935,0.823714418 19.1580016,3.84538756 C20.601588,5.29057004 21.429473,7.28344234 21.429473,9.31251025 C21.429473,11.3418424 20.601588,13.3344505 19.1580016,14.7793687 C16.1322762,17.8081753 11.2211793,17.820857 8.20944109,14.8060531 M20.2701174,2.73204222 C16.6310656,-0.911032966 10.7099861,-0.910768764 7.06961481,2.73336323 C5.31857351,4.51355328 4.35451114,6.85939885 4.35451114,9.3389304 C4.35451114,11.5376157 5.13383667,13.6623246 6.55393512,15.3495157 L0.235671421,21.6486091 C0.083395486,21.8007892 0,21.9986761 0,22.2055459 C0,22.4124158 0.083395486,22.6100385 0.235407511,22.7622186 C0.393225551,22.9202111 0.606728552,23 0.820495462,23 C1.01473305,23 1.20897064,22.9339496 1.36124657,22.800792 L7.66631479,16.4895454 C11.3518147,19.5981408 16.8408739,19.3793819 20.2701174,15.9455544 C22.0303955,14.1838584 23,11.8372203 23,9.3389304 C23,6.84064054 22.0303955,4.49400236 20.2701174,2.73204222" id="Fill-1"></path>
                        <path d="M17.1382232,4.2109115 C16.8748487,3.92956677 16.4621157,3.92982559 16.1987412,4.2109115 C15.9353667,4.49251506 15.9353667,4.93381476 16.1987412,5.21541832 C17.1433067,6.22510168 17.6632777,7.56893044 17.6632777,8.99920735 C17.6632777,10.4087781 17.1295086,11.7880661 16.1984992,12.783514 C16.070443,12.9206922 16,13.0987651 16,13.2853792 C16,13.4719933 16.0706851,13.650325 16.1987412,13.7875032 C16.3270395,13.9246814 16.4938272,14 16.6686032,14 C16.8431373,14 17.009925,13.9246814 17.1365287,13.7890562 C18.3384168,12.5283108 19,10.8353247 19,9.02198411 C19,7.20320817 18.338901,5.49469244 17.1382232,4.2109115" id="Fill-4"></path>
                    </g>
                </g>
            </g>
        </g>
    </g>
</svg>