<?xml version="1.0" encoding="UTF-8"?>
<svg width="21px" height="20px" viewBox="0 0 21 20" version="1.1" xmlns="http://www.w3.org/2000/svg" xmlns:xlink="http://www.w3.org/1999/xlink">
    <!-- Generator: Sketch 47.1 (45422) - http://www.bohemiancoding.com/sketch -->
    <title>Instagram</title>
    <desc>Created with Sketch.</desc>
    <defs>
        <polygon id="path-1" points="9.91674931 0 19.8333333 0 19.8333333 20 9.91674931 20 0.000165277778 20 0.000165277778 0"></polygon>
    </defs>
    <g id="Symbols" stroke="none" stroke-width="1" fill="none" fill-rule="evenodd">
        <g id="supfooter" transform="translate(-1096.000000, -163.000000)">
            <g id="Group-22">
                <g transform="translate(1014.000000, 90.000000)">
                    <g id="Social" transform="translate(0.000000, 73.000000)">
                        <g id="Instagram" transform="translate(82.383607, 0.000000)">
                            <g transform="translate(0.233333, 0.000000)">
                                <mask id="mask-2" fill="white">
                                    <use xlink:href="#path-1"></use>
                                </mask>
                                <g id="Clip-2"></g>
                                <path d="M16.400266,4.66208333 C16.400266,5.32458333 15.8676583,5.86208333 15.210266,5.86208333 C14.5528736,5.86208333 14.020266,5.32458333 14.020266,4.66208333 C14.020266,3.99916667 14.5528736,3.46208333 15.210266,3.46208333 C15.8676583,3.46208333 16.400266,3.99916667 16.400266,4.66208333 M9.91683194,13.3333333 C8.09092569,13.3333333 6.61127639,11.8408333 6.61127639,10 C6.61127639,8.15916667 8.09092569,6.66666667 9.91683194,6.66666667 C11.742325,6.66666667 13.2223875,8.15916667 13.2223875,10 C13.2223875,11.8408333 11.742325,13.3333333 9.91683194,13.3333333 M9.91683194,4.865 C7.10421736,4.865 4.82421042,7.16375 4.82421042,10 C4.82421042,12.83625 7.10421736,15.135 9.91683194,15.135 C12.7290333,15.135 15.0090403,12.83625 15.0090403,10 C15.0090403,7.16375 12.7290333,4.865 9.91683194,4.865 M9.91683194,1.80166667 C12.5645819,1.80166667 12.8781965,1.81208333 13.9239917,1.86 C14.8908667,1.90458333 15.4156236,2.0675 15.7651861,2.20458333 C16.2279639,2.38583333 16.5585194,2.6025 16.9056028,2.9525 C17.2526861,3.3025 17.4675472,3.63541667 17.6472868,4.1025 C17.7832278,4.45458333 17.9443736,4.98416667 17.9889986,5.95916667 C18.036516,7.01375 18.0464326,7.33 18.0464326,10 C18.0464326,12.67 18.036516,12.98625 17.9889986,14.0408333 C17.9443736,15.0158333 17.7832278,15.5454167 17.6472868,15.8975 C17.4675472,16.3641667 17.2526861,16.6975 16.9056028,17.0475 C16.5585194,17.3975 16.2279639,17.6141667 15.7651861,17.7954167 C15.4156236,17.9325 14.8908667,18.0954167 13.9239917,18.14 C12.8786097,18.1879167 12.5649951,18.1983333 9.91683194,18.1983333 C7.26866875,18.1983333 6.95505417,18.1879167 5.90925903,18.14 C4.94279722,18.0954167 4.41762708,17.9325 4.06806458,17.7954167 C3.60528681,17.6141667 3.27473125,17.3975 2.92806111,17.0475 C2.58097778,16.6975 2.36611667,16.3641667 2.18596389,15.8975 C2.05043611,15.5454167 1.88846389,15.0158333 1.84466528,14.0408333 C1.79673472,12.98625 1.78681806,12.67 1.78681806,10 C1.78681806,7.33 1.79673472,7.01375 1.84466528,5.95916667 C1.88846389,4.98416667 2.05043611,4.45458333 2.18596389,4.1025 C2.36611667,3.63541667 2.58097778,3.3025 2.92806111,2.9525 C3.27473125,2.6025 3.60528681,2.38583333 4.06806458,2.20458333 C4.41762708,2.0675 4.94279722,1.90458333 5.90925903,1.86 C6.95505417,1.81208333 7.26866875,1.80166667 9.91683194,1.80166667 M9.91683194,0 C7.22363056,0 6.8856375,0.0116666667 5.82827292,0.0604166667 C4.77256111,0.10875 4.05153681,0.277916667 3.42100208,0.525 C2.76856806,0.780416667 2.21571389,1.1225 1.6645125,1.67833333 C1.11289792,2.23416667 0.774078472,2.79208333 0.520377083,3.44958333 C0.275352778,4.08583333 0.107595833,4.8125 0.0596652778,5.87708333 C0.0113215278,6.94375 0.000165277778,7.28416667 0.000165277778,10 C0.000165277778,12.7158333 0.0113215278,13.05625 0.0596652778,14.1233333 C0.107595833,15.1870833 0.275352778,15.9141667 0.520377083,16.5504167 C0.774078472,17.2079167 1.11289792,17.7658333 1.6645125,18.3216667 C2.21571389,18.8775 2.76856806,19.2195833 3.42100208,19.475 C4.05153681,19.7220833 4.77256111,19.89125 5.82827292,19.94 C6.8856375,19.98875 7.22363056,20 9.91683194,20 C12.6096201,20 12.9476132,19.98875 14.005391,19.94 C15.0606896,19.89125 15.7817139,19.7220833 16.4122486,19.475 C17.0642694,19.2195833 17.6175368,18.8775 18.1687382,18.3216667 C18.7199396,17.7658333 19.0595854,17.2079167 19.3128736,16.5504167 C19.5578979,15.9141667 19.7256549,15.1870833 19.7735854,14.1233333 C19.8219292,13.05625 19.8334986,12.7158333 19.8334986,10 C19.8334986,7.28416667 19.8219292,6.94375 19.7735854,5.87708333 C19.7256549,4.8125 19.5578979,4.08583333 19.3128736,3.44958333 C19.0595854,2.79208333 18.7199396,2.23416667 18.1687382,1.67833333 C17.6175368,1.1225 17.0642694,0.780416667 16.4122486,0.525 C15.7817139,0.277916667 15.0606896,0.10875 14.005391,0.0604166667 C12.9476132,0.0116666667 12.6096201,0 9.91683194,0" id="Fill-1" fill="#293a4d" mask="url(#mask-2)"></path>
                            </g>
                        </g>
                    </g>
                </g>
            </g>
        </g>
    </g>
</svg>