<?xml version="1.0" encoding="utf-8"?>
<!-- Generator: Adobe Illustrator 24.1.2, SVG Export Plug-In . SVG Version: 6.00 Build 0)  -->
<svg version="1.1" xmlns="http://www.w3.org/2000/svg" xmlns:xlink="http://www.w3.org/1999/xlink" x="0px" y="0px"
	 viewBox="0 0 688 658" style="enable-background:new 0 0 688 658;" xml:space="preserve">
<style type="text/css">
	.st0{display:none;fill-rule:evenodd;clip-rule:evenodd;}
	.st1{filter:url(#graph-exposant-a);}
	.st2{fill-rule:evenodd;clip-rule:evenodd;}
	.st3{fill-rule:evenodd;clip-rule:evenodd;fill:#FFFFFF;}
	.st4{fill:none;stroke:#F6A924;stroke-width:18;}
	.st5{fill:none;stroke:#E30059;stroke-width:18;}
	.st6{fill:none;stroke:#009CD8;stroke-width:18;}
	.st7{fill:none;stroke:#83B81A;stroke-width:18;}
	.st8{fill:#293A4D;}
	.st9{fill:#F6A924;}
	.st10{fill:#83B81A;}
	.st11{fill:#009CD8;}
	.st12{fill:#E30059;}
	.st13{fill:#6F808C;}
	.st14{font-family:'Akrobat-SemiBold';}
	.st15{font-size:10px;}
</style>
<filter  filterUnits="objectBoundingBox" height="124.5%" id="graph-exposant-a" width="124.5%" x="-12.3%" y="-11.6%">
	<feOffset  dy="2" in="SourceAlpha" result="shadowOffsetOuter1"></feOffset>
	<feGaussianBlur  in="shadowOffsetOuter1" result="shadowBlurOuter1" stdDeviation="12"></feGaussianBlur>
	<feColorMatrix  in="shadowBlurOuter1" values="0 0 0 0 0   0 0 0 0 0   0 0 0 0 0  0 0 0 0.15271173 0"></feColorMatrix>
</filter>
<g id="Calque_1">
	<g>
		<g transform="translate(79 35)">
			<g>
				<circle id="graph-exposant-en-b" class="st0" cx="256" cy="299" r="151"/>
				<g class="st1">
					<circle id="graph-exposant-b_1_" class="st2" cx="257.6" cy="294.8" r="151"/>
				</g>
			</g>
			<circle class="st3" cx="257" cy="268" r="176"/>
			<g>
				<path class="st4" d="M365.2,91.3c63.4,38.2,99,105.7,99.7,175.3"/>
				<path class="st5" d="M157.7,87.6c64.8-35.9,141-33.1,201.6,0.9"/>
				<path class="st6" d="M51.5,263.7c1.9-73.1,42-137.3,100.8-172.8"/>
				<path class="st4" d="M150.8,444.7c-63.4-38.2-99-105.7-99.7-175.3"/>
				<path class="st7" d="M358.3,449.4c-64.8,35.9-141,33.1-201.6-0.9"/>
				<path class="st6" d="M464.5,271.3c-1.9,73.1-42,137.3-100.8,172.8"/>
			</g>
		</g>
		<g>
			<path class="st8" d="M287.6,347h-3.1l-2.8-20.3h2.2l2.4,17.3l2.3-17.3h2.2L293,344l2.3-17.3h2l-2.8,20.3h-3l-1.9-13.8L287.6,347z
				 M301.3,326.7V347h-2.3v-20.3H301.3z M306.6,347v-18.2h-3.7v-2.1h9.7v2.1h-3.7V347H306.6z M316.4,337.9v9.1h-2.3v-20.3h2.3v9.1h5
				v-9.1h2.3V347h-2.3v-9.1H316.4z M238.3,361.7c1.6,0,2.8,0.4,3.5,1.3c0.7,0.9,1.1,2.1,1.1,3.6v2.4c0,1.6-0.4,2.8-1.1,3.7
				c-0.8,0.8-2,1.2-3.6,1.2h-2v8h-2.3v-20.3H238.3z M238.1,372c0.9,0,1.5-0.2,1.9-0.6s0.6-1.1,0.6-2.1v-2.7c0-0.9-0.2-1.6-0.5-2.1
				c-0.4-0.5-1-0.7-1.8-0.7h-2.2v8.2H238.1z M249.2,361.7c1.6,0,2.8,0.4,3.5,1.2c0.7,0.8,1.1,1.9,1.1,3.5v1.7c0,1.1-0.2,2-0.6,2.7
				c-0.4,0.7-1,1.2-1.9,1.5c0.9,0.3,1.6,0.8,2,1.5s0.6,1.6,0.6,2.7v3.2c0,0.4,0,0.9,0.1,1.3c0,0.4,0.2,0.8,0.3,1.1h-2.3
				c-0.1-0.3-0.2-0.6-0.3-0.9c-0.1-0.3-0.1-0.8-0.1-1.5v-3.2c0-1.1-0.3-1.9-0.8-2.4s-1.2-0.7-2.2-0.7h-1.6v8.7h-2.3v-20.3H249.2z
				 M248.6,371.3c0.9,0,1.6-0.2,2.1-0.6c0.5-0.4,0.8-1.1,0.8-2.2v-1.9c0-0.9-0.2-1.6-0.5-2.1c-0.4-0.5-1-0.7-1.8-0.7h-2.2v7.5H248.6
				z M255.9,366.6c0-1.6,0.4-2.8,1.1-3.7s1.9-1.4,3.5-1.4s2.7,0.5,3.5,1.4c0.8,0.9,1.2,2.2,1.2,3.7v10.5c0,1.5-0.4,2.8-1.2,3.7
				c-0.8,0.9-1.9,1.4-3.5,1.4s-2.7-0.5-3.5-1.4s-1.1-2.2-1.1-3.7V366.6z M258.1,377.2c0,0.9,0.2,1.6,0.6,2.2c0.4,0.5,1,0.8,1.8,0.8
				c0.8,0,1.4-0.3,1.8-0.8c0.4-0.5,0.6-1.2,0.6-2.2v-10.7c0-0.9-0.2-1.6-0.6-2.2c-0.4-0.5-1-0.8-1.8-0.8c-0.8,0-1.4,0.3-1.8,0.8
				c-0.4,0.5-0.6,1.2-0.6,2.2V377.2z M274.3,371.2v2.1h-4.7v8.8h-2.3v-20.3h8.1v2.1h-5.8v7.4H274.3z M284.4,370.7v2h-5v7.2h6.1v2.1
				h-8.4v-20.3h8.4v2.1h-6.1v6.9H284.4z M291.9,361.5c1.5,0,2.7,0.5,3.4,1.4c0.7,0.9,1.1,2.2,1.1,3.7v0.6h-2.1v-0.7
				c0-0.9-0.2-1.6-0.6-2.1c-0.4-0.5-1-0.8-1.8-0.8s-1.4,0.3-1.8,0.8c-0.4,0.5-0.6,1.2-0.6,2.1c0,0.8,0.2,1.4,0.5,2
				c0.3,0.6,0.8,1.1,1.3,1.6s1,0.9,1.6,1.4c0.6,0.5,1.1,1,1.6,1.5c0.5,0.5,0.9,1.2,1.3,1.8c0.3,0.7,0.5,1.5,0.5,2.5
				c0,1.5-0.4,2.8-1.1,3.7c-0.7,0.9-1.9,1.4-3.5,1.4s-2.7-0.5-3.5-1.4s-1.1-2.2-1.1-3.7V376h2.1v1.3c0,0.9,0.2,1.6,0.6,2.1
				c0.4,0.5,1,0.8,1.8,0.8s1.4-0.3,1.8-0.8c0.4-0.5,0.6-1.2,0.6-2.1c0-0.8-0.2-1.4-0.5-2c-0.3-0.6-0.8-1.1-1.3-1.5
				c-0.5-0.5-1-0.9-1.6-1.4c-0.6-0.5-1.1-1-1.6-1.5c-0.5-0.5-0.9-1.2-1.3-1.8c-0.3-0.7-0.5-1.5-0.5-2.5c0-1.6,0.4-2.8,1.1-3.7
				C289.2,362,290.4,361.5,291.9,361.5z M302.7,361.5c1.5,0,2.7,0.5,3.4,1.4c0.7,0.9,1.1,2.2,1.1,3.7v0.6h-2.1v-0.7
				c0-0.9-0.2-1.6-0.6-2.1c-0.4-0.5-1-0.8-1.8-0.8c-0.8,0-1.4,0.3-1.8,0.8c-0.4,0.5-0.6,1.2-0.6,2.1c0,0.8,0.2,1.4,0.5,2
				c0.3,0.6,0.8,1.1,1.3,1.6c0.5,0.5,1,0.9,1.6,1.4c0.6,0.5,1.1,1,1.6,1.5s0.9,1.2,1.3,1.8c0.3,0.7,0.5,1.5,0.5,2.5
				c0,1.5-0.4,2.8-1.1,3.7s-1.9,1.4-3.5,1.4c-1.6,0-2.7-0.5-3.5-1.4s-1.1-2.2-1.1-3.7V376h2.1v1.3c0,0.9,0.2,1.6,0.6,2.1
				c0.4,0.5,1,0.8,1.8,0.8s1.4-0.3,1.8-0.8c0.4-0.5,0.6-1.2,0.6-2.1c0-0.8-0.2-1.4-0.5-2c-0.3-0.6-0.8-1.1-1.3-1.5
				c-0.5-0.5-1-0.9-1.6-1.4c-0.6-0.5-1.1-1-1.6-1.5c-0.5-0.5-0.9-1.2-1.3-1.8c-0.3-0.7-0.5-1.5-0.5-2.5c0-1.6,0.4-2.8,1.1-3.7
				C300,362,301.2,361.5,302.7,361.5z M311.5,361.7V382h-2.3v-20.3H311.5z M313.6,366.6c0-1.6,0.4-2.8,1.1-3.7s1.9-1.4,3.5-1.4
				s2.7,0.5,3.5,1.4c0.8,0.9,1.2,2.2,1.2,3.7v10.5c0,1.5-0.4,2.8-1.2,3.7c-0.8,0.9-1.9,1.4-3.5,1.4s-2.7-0.5-3.5-1.4
				s-1.1-2.2-1.1-3.7V366.6z M315.9,377.2c0,0.9,0.2,1.6,0.6,2.2c0.4,0.5,1,0.8,1.8,0.8c0.8,0,1.4-0.3,1.8-0.8
				c0.4-0.5,0.6-1.2,0.6-2.2v-10.7c0-0.9-0.2-1.6-0.6-2.2c-0.4-0.5-1-0.8-1.8-0.8c-0.8,0-1.4,0.3-1.8,0.8c-0.4,0.5-0.6,1.2-0.6,2.2
				V377.2z M327.1,382h-2v-20.3h2.9l4.7,14.7v-14.7h2V382h-2.3l-5.2-16.4V382z M339.2,377.9l-0.8,4.1h-2.1l3.9-20.3h3.3l3.9,20.3
				h-2.3l-0.8-4.1H339.2z M339.5,376h4.5l-2.3-11.7L339.5,376z M349.2,382v-20.3h2.3v18.2h5.8v2.1H349.2z M365.2,361.7l3.3,17.7
				l3.3-17.7h2.1L370,382h-3.3l-3.8-20.3H365.2z M377.8,361.7V382h-2.3v-20.3H377.8z M384.4,361.5c1.5,0,2.7,0.5,3.4,1.4
				c0.7,0.9,1.1,2.2,1.1,3.7v0.6h-2.1v-0.7c0-0.9-0.2-1.6-0.6-2.1c-0.4-0.5-1-0.8-1.8-0.8s-1.4,0.3-1.8,0.8
				c-0.4,0.5-0.6,1.2-0.6,2.1c0,0.8,0.2,1.4,0.5,2s0.8,1.1,1.3,1.6c0.5,0.5,1,0.9,1.6,1.4c0.6,0.5,1.1,1,1.6,1.5
				c0.5,0.5,0.9,1.2,1.3,1.8c0.3,0.7,0.5,1.5,0.5,2.5c0,1.5-0.4,2.8-1.1,3.7c-0.7,0.9-1.9,1.4-3.5,1.4s-2.7-0.5-3.5-1.4
				c-0.7-0.9-1.1-2.2-1.1-3.7V376h2.1v1.3c0,0.9,0.2,1.6,0.6,2.1c0.4,0.5,1,0.8,1.8,0.8c0.8,0,1.4-0.3,1.8-0.8
				c0.4-0.5,0.6-1.2,0.6-2.1c0-0.8-0.2-1.4-0.5-2s-0.8-1.1-1.3-1.5c-0.5-0.5-1-0.9-1.6-1.4c-0.6-0.5-1.1-1-1.6-1.5
				c-0.5-0.5-0.9-1.2-1.3-1.8s-0.5-1.5-0.5-2.5c0-1.6,0.4-2.8,1.1-3.7C381.7,362,382.9,361.5,384.4,361.5z M393.2,361.7V382h-2.3
				v-20.3H393.2z M398.4,382v-18.2h-3.7v-2.1h9.7v2.1h-3.7V382H398.4z M405.8,366.6c0-1.6,0.4-2.8,1.1-3.7s1.9-1.4,3.5-1.4
				c1.6,0,2.7,0.5,3.5,1.4c0.8,0.9,1.2,2.2,1.2,3.7v10.5c0,1.5-0.4,2.8-1.2,3.7c-0.8,0.9-1.9,1.4-3.5,1.4c-1.6,0-2.7-0.5-3.5-1.4
				s-1.1-2.2-1.1-3.7V366.6z M408,377.2c0,0.9,0.2,1.6,0.6,2.2c0.4,0.5,1,0.8,1.8,0.8c0.8,0,1.4-0.3,1.8-0.8
				c0.4-0.5,0.6-1.2,0.6-2.2v-10.7c0-0.9-0.2-1.6-0.6-2.2c-0.4-0.5-1-0.8-1.8-0.8c-0.8,0-1.4,0.3-1.8,0.8c-0.4,0.5-0.6,1.2-0.6,2.2
				V377.2z M421.8,361.7c1.6,0,2.8,0.4,3.5,1.2c0.7,0.8,1.1,1.9,1.1,3.5v1.7c0,1.1-0.2,2-0.6,2.7c-0.4,0.7-1,1.2-1.9,1.5
				c0.9,0.3,1.6,0.8,2,1.5s0.6,1.6,0.6,2.7v3.2c0,0.4,0,0.9,0.1,1.3c0,0.4,0.2,0.8,0.3,1.1h-2.3c-0.1-0.3-0.2-0.6-0.3-0.9
				c-0.1-0.3-0.1-0.8-0.1-1.5v-3.2c0-1.1-0.3-1.9-0.8-2.4c-0.5-0.4-1.2-0.7-2.2-0.7h-1.6v8.7h-2.3v-20.3H421.8z M421.2,371.3
				c0.9,0,1.6-0.2,2.1-0.6c0.5-0.4,0.8-1.1,0.8-2.2v-1.9c0-0.9-0.2-1.6-0.5-2.1c-0.4-0.5-1-0.7-1.8-0.7h-2.2v7.5H421.2z
				 M432.9,361.5c1.5,0,2.7,0.5,3.4,1.4c0.7,0.9,1.1,2.2,1.1,3.7v0.6h-2.1v-0.7c0-0.9-0.2-1.6-0.6-2.1c-0.4-0.5-1-0.8-1.8-0.8
				c-0.8,0-1.4,0.3-1.8,0.8c-0.4,0.5-0.6,1.2-0.6,2.1c0,0.8,0.2,1.4,0.5,2s0.8,1.1,1.3,1.6c0.5,0.5,1,0.9,1.6,1.4s1.1,1,1.6,1.5
				c0.5,0.5,0.9,1.2,1.3,1.8c0.3,0.7,0.5,1.5,0.5,2.5c0,1.5-0.4,2.8-1.1,3.7c-0.7,0.9-1.9,1.4-3.5,1.4s-2.7-0.5-3.5-1.4
				s-1.1-2.2-1.1-3.7V376h2.1v1.3c0,0.9,0.2,1.6,0.6,2.1c0.4,0.5,1,0.8,1.8,0.8s1.4-0.3,1.8-0.8c0.4-0.5,0.6-1.2,0.6-2.1
				c0-0.8-0.2-1.4-0.5-2s-0.8-1.1-1.3-1.5c-0.5-0.5-1-0.9-1.6-1.4c-0.6-0.5-1.1-1-1.6-1.5c-0.5-0.5-0.9-1.2-1.3-1.8
				s-0.5-1.5-0.5-2.5c0-1.6,0.4-2.8,1.1-3.7C430.3,362,431.4,361.5,432.9,361.5z M334.8,326.3c1.6,0,2.7,0.5,3.5,1.4
				c0.7,0.9,1.1,2.2,1.1,3.7v0.5c0,1-0.2,1.9-0.6,2.6c-0.4,0.7-1,1.2-1.8,1.5c0.9,0.3,1.5,0.9,1.9,1.6c0.4,0.7,0.6,1.6,0.6,2.6v1.6
				c0,1.6-0.4,2.8-1.1,3.7c-0.7,0.9-1.9,1.4-3.5,1.4c-1.5,0-2.7-0.5-3.4-1.4c-0.7-0.9-1.1-2.2-1.1-3.7v-1.4h2.1v1.5
				c0,0.9,0.2,1.6,0.6,2.2c0.4,0.5,1,0.8,1.8,0.8c0.8,0,1.4-0.3,1.8-0.8c0.4-0.5,0.6-1.3,0.6-2.3v-1.6c0-2-0.9-3-2.6-3h-1.2v-2h1.3
				c0.8,0,1.3-0.3,1.8-0.8c0.4-0.5,0.7-1.1,0.7-2v-0.9c0-1-0.2-1.8-0.6-2.4c-0.4-0.5-1-0.8-1.8-0.8c-0.8,0-1.4,0.3-1.8,0.8
				c-0.4,0.5-0.6,1.2-0.6,2.2v1h-2.1v-0.9c0-1.6,0.4-2.8,1.1-3.7C332.1,326.8,333.3,326.3,334.8,326.3z M345.9,326.3
				c1.6,0,2.7,0.5,3.5,1.4c0.7,0.9,1.1,2.2,1.1,3.7v0.5c0,1-0.2,1.9-0.6,2.6c-0.4,0.7-1,1.2-1.8,1.5c0.9,0.3,1.5,0.9,1.9,1.6
				c0.4,0.7,0.6,1.6,0.6,2.6v1.6c0,1.6-0.4,2.8-1.1,3.7c-0.7,0.9-1.9,1.4-3.5,1.4c-1.5,0-2.7-0.5-3.4-1.4c-0.7-0.9-1.1-2.2-1.1-3.7
				v-1.4h2.1v1.5c0,0.9,0.2,1.6,0.6,2.2c0.4,0.5,1,0.8,1.8,0.8c0.8,0,1.4-0.3,1.8-0.8c0.4-0.5,0.6-1.3,0.6-2.3v-1.6c0-2-0.9-3-2.6-3
				h-1.2v-2h1.3c0.8,0,1.3-0.3,1.8-0.8c0.4-0.5,0.7-1.1,0.7-2v-0.9c0-1-0.2-1.8-0.6-2.4c-0.4-0.5-1-0.8-1.8-0.8
				c-0.8,0-1.4,0.3-1.8,0.8c-0.4,0.5-0.6,1.2-0.6,2.2v1h-2.1v-0.9c0-1.6,0.4-2.8,1.1-3.7S344.3,326.3,345.9,326.3z M365.7,341.1
				h-1.6v-14.6h-2.9l-6,14.2v2.5h6.5v3.9h2.4v-3.9h1.6V341.1z M361.7,341.1h-4.6l4.6-10.9V341.1z M367.9,331.6
				c0-1.6,0.4-2.8,1.1-3.7c0.8-0.9,1.9-1.4,3.5-1.4s2.7,0.5,3.5,1.4s1.2,2.2,1.2,3.7v10.5c0,1.6-0.4,2.8-1.2,3.7
				c-0.8,0.9-1.9,1.4-3.5,1.4s-2.7-0.5-3.5-1.4s-1.1-2.2-1.1-3.7V331.6z M370.1,342.2c0,0.9,0.2,1.6,0.6,2.2c0.4,0.5,1,0.8,1.8,0.8
				s1.4-0.3,1.8-0.8s0.6-1.2,0.6-2.2v-10.7c0-0.9-0.2-1.7-0.6-2.2s-1-0.8-1.8-0.8s-1.4,0.3-1.8,0.8s-0.6,1.2-0.6,2.2V342.2z
				 M387.5,327.7c-0.8-0.8-1.9-1.2-3.4-1.2c-1.5,0-2.7,0.4-3.4,1.2c-0.8,0.8-1.2,2.1-1.2,3.6v1.6h2.4v-1.9c0-0.8,0.2-1.5,0.6-1.9
				c0.5-0.4,0.9-0.6,1.5-0.6c0.6,0,1.2,0.2,1.5,0.6c0.4,0.4,0.5,1.1,0.5,2.1c0,1-0.2,1.9-0.5,2.8c-0.3,0.8-0.8,1.5-1.2,2.1
				c-0.4,0.6-0.9,1.2-1.6,1.8c-0.5,0.6-1.1,1.2-1.5,1.8c-0.5,0.6-0.8,1.3-1.2,2c-0.3,0.8-0.4,1.6-0.4,2.5v2.3h8.7v-2.3h-6l-0.1-0.2
				c-0.1-0.2-0.1-0.4-0.1-0.6c0-0.7,0.2-1.3,0.5-1.9c0.2-0.4,0.6-0.8,0.9-1.3l0.3-0.4c0.5-0.6,1-1.2,1.6-1.8c0.6-0.7,1.1-1.3,1.6-2
				c0.4-0.7,0.8-1.5,1.2-2.3c0.3-0.9,0.4-1.9,0.4-2.8C388.6,329.8,388.3,328.6,387.5,327.7z"/>
			<path class="st9" d="M565.6,145.2c1.1,0,2-0.1,2.7-0.4c0.7-0.2,1.3-0.6,1.7-1s0.8-0.9,1.1-1.5s0.5-1.1,0.7-1.8h3.8V177H570v-27.8
				h-4.4V145.2z M596,168.6c0,1.3,0.3,2.2,0.8,2.8c0.5,0.5,1.3,0.8,2.2,0.8s1.6-0.3,2.2-0.8c0.5-0.5,0.8-1.5,0.8-2.8V149
				c0-1.3-0.3-2.2-0.8-2.8c-0.5-0.5-1.3-0.8-2.2-0.8s-1.6,0.3-2.2,0.8c-0.5,0.5-0.8,1.5-0.8,2.8V168.6z M590.3,149.3
				c0-2.9,0.7-5.2,2.2-6.8c1.5-1.6,3.6-2.4,6.4-2.4c2.8,0,5,0.8,6.4,2.4c1.5,1.6,2.2,3.8,2.2,6.8v18.9c0,2.9-0.7,5.2-2.2,6.8
				s-3.6,2.4-6.4,2.4c-2.8,0-5-0.8-6.4-2.4s-2.2-3.8-2.2-6.8V149.3z M616.6,168.6c0,1.3,0.3,2.2,0.8,2.8c0.5,0.5,1.3,0.8,2.2,0.8
				c0.9,0,1.6-0.3,2.2-0.8s0.8-1.5,0.8-2.8V149c0-1.3-0.3-2.2-0.8-2.8s-1.3-0.8-2.2-0.8c-0.9,0-1.6,0.3-2.2,0.8
				c-0.5,0.5-0.8,1.5-0.8,2.8V168.6z M610.9,149.3c0-2.9,0.7-5.2,2.2-6.8c1.5-1.6,3.6-2.4,6.4-2.4c2.8,0,5,0.8,6.4,2.4
				c1.5,1.6,2.2,3.8,2.2,6.8v18.9c0,2.9-0.7,5.2-2.2,6.8c-1.5,1.6-3.6,2.4-6.4,2.4c-2.8,0-5-0.8-6.4-2.4c-1.5-1.6-2.2-3.8-2.2-6.8
				V149.3z M637.2,168.6c0,1.3,0.3,2.2,0.8,2.8s1.3,0.8,2.2,0.8c0.9,0,1.6-0.3,2.2-0.8c0.5-0.5,0.8-1.5,0.8-2.8V149
				c0-1.3-0.3-2.2-0.8-2.8c-0.5-0.5-1.3-0.8-2.2-0.8c-0.9,0-1.6,0.3-2.2,0.8s-0.8,1.5-0.8,2.8V168.6z M631.4,149.3
				c0-2.9,0.7-5.2,2.2-6.8c1.5-1.6,3.6-2.4,6.4-2.4c2.8,0,5,0.8,6.4,2.4c1.5,1.6,2.2,3.8,2.2,6.8v18.9c0,2.9-0.7,5.2-2.2,6.8
				s-3.6,2.4-6.4,2.4c-2.8,0-5-0.8-6.4-2.4s-2.2-3.8-2.2-6.8V149.3z M670.8,156.8h7v4.1h-7v7.1h-4.1v-7.1h-7v-4.1h7v-7h4.1V156.8z"
				/>
			<path class="st10" d="M309.8,580.4l3.9-25.8h8V591h-5.4v-26.1l-4,26.1h-5.4l-4.3-25.7V591h-5v-36.4h8L309.8,580.4z M325.9,554.6
				h5.7V591h-5.7V554.6z M335.7,554.6h5.7v31.2h9.4v5.2h-15.1V554.6z M353.4,554.6h5.7v31.2h9.4v5.2h-15.1V554.6z M371,554.6h5.7
				V591H371V554.6z M386.1,582.6c0,1.3,0.3,2.2,0.8,2.8c0.5,0.5,1.3,0.8,2.2,0.8s1.6-0.3,2.2-0.8c0.5-0.5,0.8-1.5,0.8-2.8V563
				c0-1.3-0.3-2.2-0.8-2.8s-1.3-0.8-2.2-0.8s-1.6,0.3-2.2,0.8c-0.5,0.5-0.8,1.5-0.8,2.8V582.6z M380.4,563.3c0-2.9,0.7-5.2,2.2-6.8
				c1.5-1.6,3.6-2.4,6.4-2.4s5,0.8,6.4,2.4s2.2,3.8,2.2,6.8v18.9c0,2.9-0.7,5.2-2.2,6.8s-3.6,2.4-6.4,2.4s-5-0.8-6.4-2.4
				c-1.5-1.6-2.2-3.8-2.2-6.8V563.3z M406.6,564.6V591h-5.1v-36.4h7.2l5.9,21.8v-21.8h5.1V591h-5.9L406.6,564.6z M422.9,563.3
				c0-2.9,0.7-5.2,2.1-6.8c1.4-1.6,3.5-2.4,6.3-2.4c2.8,0,4.9,0.8,6.3,2.4s2.1,3.8,2.1,6.8v1.1h-5.4V563c0-1.3-0.3-2.2-0.8-2.8
				s-1.2-0.8-2.1-0.8c-0.9,0-1.6,0.3-2.1,0.8s-0.8,1.5-0.8,2.8c0,1.2,0.3,2.3,0.8,3.3c0.6,1,1.2,1.9,2.1,2.7
				c0.8,0.8,1.7,1.7,2.7,2.5s1.8,1.8,2.7,2.8c0.8,1,1.5,2.1,2.1,3.4c0.6,1.3,0.8,2.8,0.8,4.5c0,2.9-0.7,5.2-2.2,6.8
				s-3.6,2.4-6.4,2.4s-4.9-0.8-6.4-2.4c-1.4-1.6-2.2-3.8-2.2-6.8V580h5.4v2.6c0,1.3,0.3,2.2,0.8,2.8c0.5,0.5,1.3,0.8,2.2,0.8
				s1.6-0.3,2.2-0.8c0.5-0.5,0.8-1.4,0.8-2.8c0-1.2-0.3-2.3-0.8-3.3c-0.6-1-1.2-1.9-2.1-2.7c-0.8-0.8-1.7-1.7-2.7-2.5
				c-1-0.8-1.8-1.8-2.7-2.8c-0.8-1-1.5-2.1-2.1-3.4C423.2,566.6,422.9,565.1,422.9,563.3z"/>
			<path class="st11" d="M592.2,407.3c0,2.9-0.8,5.2-2.3,6.8c-1.5,1.6-3.7,2.4-6.7,2.4c-2.9,0-5.1-0.8-6.7-2.4
				c-1.5-1.6-2.3-3.8-2.3-6.8v-2.9c0-1.8,0.3-3.3,0.8-4.6c0.6-1.3,1.5-2.3,2.7-3c-2.4-1.3-3.5-3.7-3.5-7.3v-1.1
				c0-2.9,0.8-5.2,2.3-6.8c1.5-1.6,3.7-2.4,6.7-2.4c2.9,0,5.1,0.8,6.7,2.4c1.5,1.6,2.3,3.8,2.3,6.8v1.1c0,3.6-1.2,6-3.5,7.3
				c1.2,0.7,2.1,1.7,2.7,3c0.6,1.3,0.8,2.8,0.8,4.6V407.3z M580.1,407.1c0,1.6,0.3,2.7,0.9,3.3s1.4,0.8,2.3,0.8
				c0.9,0,1.7-0.3,2.3-0.8c0.6-0.6,0.9-1.6,1-3.3v-3.4c0-1.5-0.3-2.5-0.9-3.1c-0.6-0.6-1.4-1-2.4-1c-1,0-1.8,0.3-2.4,1
				s-0.9,1.7-0.9,3.1V407.1z M580.1,390.6c0,1.5,0.3,2.5,0.9,3c0.6,0.6,1.4,0.8,2.3,0.8c0.9,0,1.7-0.3,2.3-0.8
				c0.6-0.6,0.9-1.6,0.9-3v-2c0-1.6-0.3-2.7-0.9-3.3c-0.6-0.6-1.4-0.9-2.3-0.9c-0.9,0-1.7,0.3-2.3,0.9c-0.6,0.6-0.9,1.7-0.9,3.3
				V390.6z M612.3,404.2v3.4c0,1.3,0.3,2.2,0.8,2.8c0.5,0.5,1.3,0.8,2.2,0.8c0.9,0,1.6-0.3,2.2-0.8c0.5-0.5,0.8-1.4,0.8-2.8v-8
				c0-1.3-0.3-2.2-0.8-2.8c-0.5-0.5-1.3-0.8-2.2-0.8c-0.9,0-1.6,0.3-2.2,0.8c-0.5,0.5-0.8,1.5-0.8,2.8v1.1h-5.4l1-21.1H623v5.2H613
				l-0.5,8.7c1.1-1.8,2.7-2.7,5-2.7c2.1,0,3.7,0.7,4.8,2.1c1.1,1.4,1.6,3.5,1.6,6.2v8.1c0,2.9-0.7,5.2-2.2,6.8
				c-1.4,1.6-3.6,2.4-6.4,2.4c-2.8,0-4.9-0.8-6.4-2.4c-1.4-1.6-2.2-3.8-2.2-6.8v-3H612.3z M638.9,388.5c0-1.6-0.3-2.7-0.8-3.3
				c-0.5-0.6-1.3-0.9-2.2-0.9c-0.9,0-1.6,0.3-2.2,0.8c-0.5,0.5-0.8,1.5-0.8,2.8v2.3h-5.4v-2c0-2.9,0.7-5.2,2.2-6.8
				c1.4-1.6,3.6-2.4,6.4-2.4c2.8,0,4.9,0.8,6.4,2.4c1.4,1.6,2.2,3.8,2.2,6.8v0.9c0,3.9-1.3,6.4-4,7.5c1.5,0.6,2.5,1.6,3.1,2.9
				c0.6,1.3,0.9,2.9,0.9,4.8v2.9c0,2.9-0.7,5.2-2.2,6.8c-1.4,1.6-3.6,2.4-6.4,2.4c-2.8,0-4.9-0.8-6.4-2.4c-1.4-1.6-2.2-3.8-2.2-6.8
				v-3h5.4v3.4c0,1.3,0.3,2.2,0.8,2.8c0.5,0.5,1.3,0.8,2.2,0.8c0.9,0,1.6-0.3,2.2-0.8c0.5-0.6,0.8-1.6,0.8-3.3v-2.9
				c0-1.7-0.3-2.9-0.9-3.6c-0.6-0.7-1.5-1-2.9-1h-1.9v-5.2h2.2c1.1,0,1.9-0.3,2.5-0.8c0.6-0.6,0.9-1.6,0.9-3V388.5z M660.4,388.9
				c0-1.6-0.3-2.7-0.8-3.3c-0.5-0.6-1.3-0.9-2.2-0.9c-0.9,0-1.6,0.3-2.2,0.8c-0.5,0.5-0.8,1.5-0.8,2.8v3.9H649v-3.5
				c0-2.9,0.7-5.2,2.2-6.8c1.4-1.6,3.6-2.4,6.4-2.4c2.8,0,4.9,0.8,6.4,2.4c1.4,1.6,2.2,3.8,2.2,6.8c0,1.9-0.3,3.6-0.8,5.2
				c-0.6,1.5-1.3,2.9-2.1,4.2c-0.9,1.3-1.8,2.4-2.8,3.5s-1.9,2.1-2.8,3.1c-0.8,1-1.6,1.9-2.1,2.8c-0.6,0.9-0.8,1.9-0.8,2.9
				c0,0.3,0,0.6,0.1,0.8h10.8v5.2h-16.6v-4.5c0-1.8,0.3-3.3,0.8-4.7c0.6-1.4,1.3-2.6,2.1-3.7s1.8-2.2,2.7-3.2c1-1,1.9-2,2.7-3.1
				c0.8-1.1,1.6-2.3,2.1-3.6C660.1,392.3,660.4,390.7,660.4,388.9z"/>
			<path class="st11" d="M37.1,130.6c0-3.1,0.7-5.4,2.1-7s3.6-2.4,6.6-2.4c2.8,0,4.9,0.8,6.4,2.4c1.4,1.6,2.2,3.8,2.2,6.8v0.9H49
				V130c0-1.3-0.3-2.2-0.8-2.8c-0.5-0.5-1.3-0.8-2.2-0.8c-1,0-1.8,0.3-2.3,0.9c-0.6,0.6-0.8,1.8-0.8,3.5v6.7c1-2.1,2.8-3.2,5.3-3.2
				c2.1,0,3.7,0.7,4.8,2.1c1.1,1.4,1.6,3.5,1.6,6.2v6.7c0,2.9-0.7,5.2-2.2,6.8s-3.6,2.4-6.4,2.4s-5-0.8-6.4-2.4s-2.2-3.8-2.2-6.8
				V130.6z M45.8,139.5c-0.9,0-1.6,0.3-2.2,0.8c-0.5,0.5-0.8,1.5-0.8,2.8v6.6c0,1.3,0.3,2.2,0.8,2.8c0.5,0.5,1.3,0.8,2.2,0.8
				c0.9,0,1.6-0.3,2.2-0.8s0.8-1.4,0.8-2.8v-6.6c0-1.3-0.3-2.2-0.8-2.8C47.4,139.8,46.7,139.5,45.8,139.5z"/>
			<path class="st9" d="M48.8,397.5c0-1.6-0.3-2.7-0.8-3.3c-0.5-0.6-1.3-0.9-2.2-0.9s-1.6,0.3-2.2,0.8c-0.5,0.5-0.8,1.5-0.8,2.8v3.9
				h-5.4v-3.5c0-2.9,0.7-5.2,2.2-6.8c1.4-1.6,3.6-2.4,6.4-2.4s4.9,0.8,6.4,2.4c1.4,1.6,2.2,3.8,2.2,6.8c0,1.9-0.3,3.6-0.8,5.2
				c-0.6,1.5-1.3,2.9-2.1,4.2c-0.8,1.3-1.8,2.4-2.8,3.5c-1,1.1-1.9,2.1-2.8,3.1c-0.8,1-1.6,1.9-2.1,2.8c-0.6,0.9-0.8,1.9-0.8,2.9
				c0,0.3,0,0.6,0.1,0.8H54v5.2H37.5v-4.5c0-1.8,0.3-3.3,0.8-4.7c0.6-1.4,1.3-2.6,2.1-3.7c0.8-1.1,1.8-2.2,2.7-3.2
				c1-1,1.9-2,2.7-3.1c0.8-1.1,1.6-2.3,2.1-3.6C48.5,400.9,48.8,399.3,48.8,397.5z M69.8,397.5c0-1.6-0.3-2.7-0.8-3.3
				c-0.5-0.6-1.3-0.9-2.2-0.9s-1.6,0.3-2.2,0.8c-0.5,0.5-0.8,1.5-0.8,2.8v3.9h-5.4v-3.5c0-2.9,0.7-5.2,2.2-6.8
				c1.4-1.6,3.6-2.4,6.4-2.4s4.9,0.8,6.4,2.4c1.4,1.6,2.2,3.8,2.2,6.8c0,1.9-0.3,3.6-0.8,5.2c-0.6,1.5-1.3,2.9-2.1,4.2
				c-0.8,1.3-1.8,2.4-2.8,3.5s-1.9,2.1-2.8,3.1c-0.8,1-1.6,1.9-2.1,2.8s-0.8,1.9-0.8,2.9c0,0.3,0,0.6,0.1,0.8H75v5.2H58.5v-4.5
				c0-1.8,0.3-3.3,0.8-4.7c0.6-1.4,1.3-2.6,2.1-3.7s1.8-2.2,2.7-3.2s1.9-2,2.7-3.1c0.8-1.1,1.6-2.3,2.1-3.6
				C69.5,400.9,69.8,399.3,69.8,397.5z"/>
			<path class="st8" d="M580.2,198.2v1.8H576v6.2h5.2v1.8H574v-17.5h7.2v1.8H576v6H580.2z M587.3,200.4l-2.9,7.6h-1.8l3.5-9
				l-3.3-8.5h2l2.7,7l2.7-7h1.8l-3.3,8.5l3.5,9h-2L587.3,200.4z M595.8,200.1v7.9h-2v-17.5h2v7.9h4.3v-7.9h2V208h-2v-7.9H595.8z
				 M606,190.5V208h-2v-17.5H606z M612,190.5c1.4,0,2.3,0.3,2.9,1c0.6,0.6,0.9,1.6,0.9,2.9v0.8c0,0.9-0.2,1.7-0.5,2.3
				c-0.3,0.6-0.8,1-1.6,1.2c0.8,0.2,1.5,0.7,1.8,1.3s0.5,1.5,0.5,2.4v1.5c0,1.3-0.3,2.3-1,3c-0.7,0.7-1.7,1.1-3,1.1h-4v-17.5H612z
				 M611.5,197.9c0.8,0,1.4-0.2,1.8-0.5s0.6-0.9,0.6-1.8v-1c0-0.8-0.1-1.4-0.4-1.7c-0.3-0.4-0.8-0.6-1.5-0.6H610v5.7H611.5z
				 M612,206.2c1.4,0,2.1-0.8,2.1-2.4v-1.6c0-1-0.2-1.7-0.6-2c-0.4-0.4-1-0.6-1.9-0.6H610v6.5H612z M619.8,190.5V208h-2v-17.5H619.8
				z M624.3,208v-15.7h-3.2v-1.8h8.4v1.8h-3.2V208H624.3z M630.7,194.7c0-1.4,0.3-2.4,1-3.2s1.7-1.2,3-1.2c1.3,0,2.4,0.4,3,1.2
				c0.7,0.8,1,1.9,1,3.2v9c0,1.3-0.3,2.4-1,3.2c-0.7,0.8-1.7,1.2-3,1.2c-1.4,0-2.4-0.4-3-1.2c-0.7-0.8-1-1.9-1-3.2V194.7z
				 M632.6,203.9c0,0.8,0.2,1.4,0.5,1.9s0.9,0.7,1.6,0.7c0.7,0,1.2-0.2,1.6-0.7c0.3-0.4,0.5-1.1,0.5-1.9v-9.2c0-0.8-0.2-1.4-0.5-1.9
				c-0.3-0.4-0.9-0.7-1.6-0.7c-0.7,0-1.2,0.2-1.6,0.7s-0.5,1.1-0.5,1.9V203.9z M644.5,190.5c1.4,0,2.4,0.3,3,1
				c0.6,0.7,0.9,1.7,0.9,3v1.4c0,1-0.2,1.8-0.5,2.3c-0.3,0.6-0.9,1-1.6,1.2c0.8,0.2,1.4,0.7,1.7,1.3c0.3,0.6,0.5,1.4,0.5,2.4v2.7
				c0,0.4,0,0.8,0,1.1s0.1,0.7,0.3,1h-2c-0.1-0.2-0.2-0.5-0.2-0.8c-0.1-0.3-0.1-0.7-0.1-1.3v-2.8c0-1-0.2-1.7-0.7-2
				c-0.4-0.4-1.1-0.6-1.9-0.6h-1.4v7.5h-2v-17.5H644.5z M644,198.8c0.8,0,1.4-0.2,1.8-0.5s0.7-1,0.7-1.9v-1.7c0-0.8-0.2-1.4-0.5-1.8
				c-0.3-0.4-0.8-0.6-1.6-0.6h-1.9v6.5H644z M654.1,190.3c1.3,0,2.3,0.4,3,1.2c0.6,0.8,1,1.9,1,3.2v0.5h-1.8v-0.6
				c0-0.8-0.2-1.4-0.5-1.9c-0.3-0.4-0.8-0.6-1.5-0.6c-0.7,0-1.2,0.2-1.5,0.6s-0.5,1-0.5,1.8c0,0.7,0.1,1.2,0.4,1.7
				c0.3,0.5,0.7,0.9,1.1,1.3c0.4,0.4,0.9,0.8,1.4,1.2c0.5,0.4,1,0.8,1.4,1.3c0.4,0.5,0.8,1,1.1,1.6c0.3,0.6,0.4,1.3,0.4,2.1
				c0,1.3-0.3,2.4-1,3.2s-1.6,1.2-3,1.2c-1.4,0-2.3-0.4-3-1.2c-0.6-0.8-0.9-1.9-0.9-3.2v-1h1.8v1.1c0,0.8,0.2,1.4,0.5,1.9
				c0.3,0.4,0.9,0.6,1.6,0.6c0.7,0,1.2-0.2,1.5-0.6s0.5-1.1,0.5-1.9c0-0.6-0.1-1.2-0.4-1.7c-0.3-0.5-0.7-0.9-1.1-1.3
				s-0.9-0.8-1.4-1.2s-1-0.8-1.4-1.3c-0.4-0.5-0.8-1-1.1-1.6c-0.3-0.6-0.4-1.3-0.4-2.1c0-1.4,0.3-2.4,1-3.2
				C651.8,190.7,652.8,190.3,654.1,190.3z"/>
			<path class="st8" d="M280.9,53.7c0-1.4,0.3-2.4,1-3.2c0.7-0.8,1.7-1.2,3-1.2s2.4,0.4,3,1.2c0.7,0.8,1,1.9,1,3.2v9.1
				c0,1.3-0.3,2.4-1,3.2s-1.7,1.2-3,1.2s-2.4-0.4-3-1.2c-0.7-0.8-1-1.9-1-3.2V53.7z M282.8,62.9c0,0.8,0.2,1.4,0.5,1.9
				c0.3,0.4,0.9,0.7,1.6,0.7c0.7,0,1.2-0.2,1.6-0.7c0.3-0.4,0.5-1.1,0.5-1.9v-9.2c0-0.8-0.2-1.4-0.5-1.9c-0.3-0.4-0.9-0.7-1.6-0.7
				c-0.7,0-1.2,0.2-1.6,0.7s-0.5,1.1-0.5,1.9V62.9z M296.7,57.7v1.8h-4V67h-1.9V49.5h6.9v1.8h-5v6.4H296.7z M305.2,57.7v1.8h-4V67
				h-1.9V49.5h6.9v1.8h-5v6.4H305.2z M309.7,49.5V67h-1.9V49.5H309.7z M315.5,49.3c1.4,0,2.3,0.4,3,1.2c0.6,0.8,1,1.9,1,3.2v1.6
				h-1.9v-1.7c0-0.8-0.2-1.4-0.5-1.9s-0.8-0.7-1.6-0.7c-0.7,0-1.2,0.2-1.5,0.7c-0.3,0.4-0.5,1.1-0.5,1.9v9.2c0,0.8,0.2,1.4,0.5,1.9
				c0.3,0.4,0.8,0.7,1.5,0.7c0.7,0,1.2-0.2,1.6-0.7c0.3-0.4,0.5-1.1,0.5-1.9v-2.3h1.9v2.2c0,1.3-0.3,2.4-1,3.2s-1.6,1.2-3,1.2
				c-1.3,0-2.3-0.4-3-1.2c-0.6-0.8-1-1.9-1-3.2v-9.1c0-0.7,0.1-1.3,0.2-1.8c0.2-0.5,0.4-1,0.7-1.4c0.3-0.4,0.7-0.7,1.2-0.9
				C314.2,49.4,314.8,49.3,315.5,49.3z M323.1,49.5V67h-2V49.5H323.1z M327.1,63.5l-0.7,3.5h-1.8l3.4-17.5h2.8l3.4,17.5h-1.9
				l-0.7-3.5H327.1z M327.4,61.8h3.9l-2-10.1L327.4,61.8z M335.7,67V49.5h2v15.7h5V67H335.7z M349.5,49.5l2.8,15.2l2.8-15.2h1.8
				L353.6,67h-2.9l-3.3-17.5H349.5z M360.4,49.5V67h-2V49.5H360.4z M366,49.3c1.3,0,2.3,0.4,3,1.2c0.6,0.8,1,1.9,1,3.2v0.5h-1.9
				v-0.6c0-0.8-0.2-1.4-0.5-1.8s-0.8-0.7-1.5-0.7c-0.7,0-1.2,0.2-1.5,0.7c-0.3,0.4-0.5,1-0.5,1.8c0,0.7,0.1,1.2,0.4,1.7
				c0.3,0.5,0.7,0.9,1.1,1.3s0.9,0.8,1.4,1.2s1,0.8,1.4,1.3c0.4,0.5,0.8,1,1.1,1.6s0.4,1.3,0.4,2.1c0,1.3-0.3,2.4-1,3.2
				c-0.6,0.8-1.6,1.2-3,1.2s-2.3-0.4-3-1.2c-0.6-0.8-0.9-1.9-0.9-3.2v-1h1.8v1.1c0,0.8,0.2,1.4,0.5,1.8c0.3,0.4,0.9,0.7,1.6,0.7
				c0.7,0,1.2-0.2,1.5-0.7s0.5-1,0.5-1.8c0-0.7-0.1-1.2-0.4-1.7c-0.3-0.5-0.7-0.9-1.1-1.3s-0.9-0.8-1.4-1.2s-1-0.8-1.4-1.3
				c-0.4-0.5-0.8-1-1.1-1.6c-0.3-0.6-0.4-1.3-0.4-2.1c0-1.4,0.3-2.4,1-3.2S364.7,49.3,366,49.3z M373.6,49.5V67h-2V49.5H373.6z
				 M378.2,67V51.3H375v-1.8h8.4v1.8h-3.2V67H378.2z M388.4,49.3c1.3,0,2.3,0.4,3,1.2c0.6,0.8,0.9,1.9,0.9,3.2v0.5h-1.9v-0.6
				c0-0.8-0.2-1.4-0.5-1.8c-0.3-0.4-0.8-0.7-1.5-0.7c-0.7,0-1.2,0.2-1.5,0.7s-0.5,1-0.5,1.8c0,0.7,0.1,1.2,0.4,1.7
				c0.3,0.5,0.7,0.9,1.1,1.3c0.4,0.4,0.9,0.8,1.4,1.2c0.5,0.4,1,0.8,1.4,1.3c0.4,0.5,0.8,1,1.1,1.6c0.3,0.6,0.4,1.3,0.4,2.1
				c0,1.3-0.3,2.4-1,3.2c-0.6,0.8-1.6,1.2-3,1.2s-2.3-0.4-3-1.2s-1-1.9-1-3.2v-1h1.8v1.1c0,0.8,0.2,1.4,0.5,1.8s0.9,0.7,1.5,0.7
				c0.7,0,1.2-0.2,1.6-0.7s0.5-1,0.5-1.8c0-0.7-0.1-1.2-0.4-1.7c-0.3-0.5-0.7-0.9-1.1-1.3c-0.4-0.4-0.9-0.8-1.4-1.2s-1-0.8-1.4-1.3
				c-0.4-0.5-0.8-1-1.1-1.6s-0.4-1.3-0.4-2.1c0-1.4,0.3-2.4,1-3.2C386.1,49.7,387.1,49.3,388.4,49.3z"/>
			<path class="st8" d="M565.2,432.5c1.4,0,2.4,0.4,3,1.1c0.6,0.8,0.9,1.8,0.9,3.1v2.1c0,1.4-0.3,2.5-1,3.2s-1.7,1.1-3.1,1.1h-1.7
				v6.9h-2v-17.5H565.2z M565,441.4c0.7,0,1.3-0.2,1.6-0.5c0.3-0.4,0.5-1,0.5-1.8v-2.3c0-0.8-0.2-1.4-0.5-1.8
				c-0.3-0.4-0.8-0.6-1.5-0.6h-1.9v7.1H565z M574.6,432.5c1.4,0,2.4,0.3,3,1c0.6,0.7,0.9,1.7,0.9,3v1.4c0,1-0.2,1.8-0.5,2.4
				c-0.3,0.6-0.9,1-1.6,1.2c0.8,0.2,1.4,0.7,1.7,1.3c0.3,0.6,0.5,1.4,0.5,2.4v2.7c0,0.4,0,0.8,0,1.1s0.1,0.7,0.3,1h-2
				c-0.1-0.2-0.2-0.5-0.2-0.8c-0.1-0.3-0.1-0.7-0.1-1.3v-2.8c0-1-0.2-1.7-0.7-2c-0.4-0.4-1.1-0.6-1.9-0.6h-1.4v7.5h-2v-17.5H574.6z
				 M574.1,440.8c0.8,0,1.4-0.2,1.8-0.5c0.4-0.3,0.7-1,0.7-1.9v-1.7c0-0.8-0.2-1.4-0.5-1.8s-0.8-0.6-1.6-0.6h-1.9v6.5H574.1z
				 M586.8,440.2v1.8h-4.3v6.2h5.2v1.8h-7.2v-17.5h7.2v1.8h-5.2v6H586.8z M593.2,432.3c1.3,0,2.3,0.4,3,1.2c0.6,0.8,1,1.9,1,3.2v0.5
				h-1.8v-0.6c0-0.8-0.2-1.4-0.5-1.9s-0.8-0.6-1.5-0.6c-0.7,0-1.2,0.2-1.5,0.6s-0.5,1-0.5,1.8c0,0.6,0.1,1.2,0.4,1.7
				c0.3,0.5,0.7,0.9,1.1,1.3c0.4,0.4,0.9,0.8,1.4,1.2c0.5,0.4,1,0.8,1.4,1.3s0.8,1,1.1,1.6c0.3,0.6,0.4,1.3,0.4,2.1
				c0,1.3-0.3,2.4-1,3.2c-0.6,0.8-1.6,1.2-3,1.2c-1.4,0-2.3-0.4-3-1.2c-0.6-0.8-0.9-1.9-0.9-3.2v-1h1.8v1.1c0,0.8,0.2,1.4,0.5,1.9
				c0.3,0.4,0.9,0.6,1.6,0.6c0.7,0,1.2-0.2,1.5-0.6c0.3-0.4,0.5-1,0.5-1.9c0-0.6-0.1-1.2-0.4-1.7c-0.3-0.5-0.7-0.9-1.1-1.3
				c-0.4-0.4-0.9-0.8-1.4-1.2s-1-0.8-1.4-1.3s-0.8-1-1.1-1.6c-0.3-0.6-0.4-1.3-0.4-2.1c0-1.4,0.3-2.4,1-3.2
				C590.9,432.7,591.9,432.3,593.2,432.3z M602.5,432.3c1.3,0,2.3,0.4,2.9,1.2c0.6,0.8,1,1.9,1,3.2v0.5h-1.8v-0.6
				c0-0.8-0.2-1.4-0.5-1.9c-0.3-0.4-0.8-0.6-1.5-0.6s-1.2,0.2-1.5,0.6s-0.5,1-0.5,1.8c0,0.6,0.1,1.2,0.4,1.7
				c0.3,0.5,0.7,0.9,1.1,1.3c0.4,0.4,0.9,0.8,1.4,1.2c0.5,0.4,1,0.8,1.4,1.3s0.8,1,1.1,1.6c0.3,0.6,0.4,1.3,0.4,2.1
				c0,1.3-0.3,2.4-1,3.2c-0.6,0.8-1.6,1.2-3,1.2s-2.3-0.4-3-1.2c-0.6-0.8-1-1.9-1-3.2v-1h1.8v1.1c0,0.8,0.2,1.4,0.5,1.9
				c0.3,0.4,0.8,0.6,1.5,0.6s1.2-0.2,1.5-0.6s0.5-1,0.5-1.9c0-0.6-0.1-1.2-0.4-1.7s-0.7-0.9-1.1-1.3c-0.4-0.4-0.9-0.8-1.4-1.2
				s-1-0.8-1.4-1.3s-0.8-1-1.1-1.6c-0.3-0.6-0.4-1.3-0.4-2.1c0-1.4,0.3-2.4,0.9-3.2C600.2,432.7,601.2,432.3,602.5,432.3z
				 M615.8,432.3c1.4,0,2.3,0.4,3,1.2c0.6,0.8,1,1.9,1,3.2v1.6h-1.8v-1.7c0-0.8-0.2-1.4-0.5-1.9c-0.3-0.4-0.8-0.7-1.6-0.7
				c-0.7,0-1.2,0.2-1.5,0.7c-0.3,0.4-0.5,1.1-0.5,1.9v9.2c0,0.8,0.2,1.4,0.5,1.9c0.3,0.4,0.9,0.7,1.5,0.7c0.7,0,1.2-0.2,1.6-0.7
				c0.3-0.4,0.5-1.1,0.5-1.9v-2.3h1.8v2.2c0,1.3-0.3,2.4-1,3.2c-0.6,0.8-1.6,1.2-3,1.2c-1.3,0-2.3-0.4-3-1.2c-0.6-0.8-1-1.9-1-3.2
				v-9c0-0.7,0.1-1.3,0.2-1.8c0.2-0.5,0.4-1,0.7-1.4c0.3-0.4,0.7-0.7,1.2-0.9C614.5,432.4,615.1,432.3,615.8,432.3z M621.4,436.7
				c0-1.4,0.3-2.4,1-3.2c0.7-0.8,1.7-1.2,3-1.2s2.4,0.4,3,1.2c0.7,0.8,1,1.9,1,3.2v9c0,1.3-0.3,2.4-1,3.2c-0.7,0.8-1.7,1.2-3,1.2
				s-2.4-0.4-3-1.2c-0.7-0.8-1-1.9-1-3.2V436.7z M623.3,445.9c0,0.8,0.2,1.4,0.5,1.9c0.3,0.4,0.9,0.7,1.6,0.7c0.7,0,1.2-0.2,1.6-0.7
				c0.3-0.4,0.5-1.1,0.5-1.9v-9.2c0-0.8-0.2-1.4-0.5-1.9c-0.3-0.4-0.9-0.7-1.6-0.7c-0.7,0-1.2,0.2-1.6,0.7c-0.3,0.4-0.5,1.1-0.5,1.9
				V445.9z M632.7,432.5l2.8,15.2l2.8-15.2h1.8l-3.3,17.5H634l-3.3-17.5H632.7z M647.9,440.2v1.8h-4.3v6.2h5.2v1.8h-7.2v-17.5h7.2
				v1.8h-5.2v6H647.9z M654.6,432.5c1.4,0,2.4,0.3,3,1c0.6,0.7,0.9,1.7,0.9,3v1.4c0,1-0.2,1.8-0.5,2.4c-0.4,0.6-0.9,1-1.7,1.2
				c0.8,0.2,1.4,0.7,1.7,1.3s0.5,1.4,0.5,2.4v2.7c0,0.4,0,0.8,0,1.1s0.1,0.7,0.3,1h-2c-0.1-0.2-0.2-0.5-0.2-0.8s-0.1-0.7-0.1-1.3
				v-2.8c0-1-0.2-1.7-0.7-2s-1.1-0.6-1.9-0.6h-1.4v7.5h-2v-17.5H654.6z M654.1,440.8c0.8,0,1.4-0.2,1.8-0.5c0.4-0.3,0.6-1,0.6-1.9
				v-1.7c0-0.8-0.2-1.4-0.5-1.8c-0.3-0.4-0.8-0.6-1.6-0.6h-1.9v6.5H654.1z M662.5,446.5l-0.7,3.5H660l3.3-17.5h2.8l3.3,17.5h-2
				l-0.7-3.5H662.5z M662.7,444.8h3.9l-2-10.1L662.7,444.8z M674.8,432.3c1.4,0,2.3,0.4,3,1.2c0.6,0.8,1,1.9,1,3.2v1.5h-1.8v-1.6
				c0-0.8-0.2-1.4-0.5-1.9c-0.3-0.4-0.8-0.7-1.6-0.7c-0.7,0-1.2,0.2-1.6,0.7c-0.3,0.4-0.5,1.1-0.5,1.9v9.2c0,0.8,0.2,1.4,0.5,1.9
				c0.3,0.4,0.9,0.7,1.6,0.7c0.7,0,1.2-0.2,1.6-0.7c0.3-0.4,0.5-1.1,0.5-1.9v-3.5h-1.8v-1.8h3.6v5.1c0,1.3-0.3,2.4-1,3.2
				c-0.6,0.8-1.6,1.2-3,1.2c-1.3,0-2.3-0.4-3-1.2c-0.6-0.8-1-1.9-1-3.2v-9c0-0.7,0.1-1.3,0.2-1.8c0.2-0.5,0.4-1,0.7-1.4
				s0.7-0.7,1.2-0.9C673.6,432.4,674.2,432.3,674.8,432.3z M686.9,440.2v1.8h-4.3v6.2h5.2v1.8h-7.2v-17.5h7.2v1.8h-5.2v6H686.9z"/>
			<path class="st8" d="M2,175.5V193H0.1v-17.5H2z M5.8,193H4v-17.5h2.5l4,12.6v-12.6h1.7V193h-2l-4.5-14.1V193z M16.8,193v-15.7
				h-3.2v-1.8H22v1.8h-3.2V193H16.8z M29.6,183.2v1.8h-4.3v6.2h5.2v1.8h-7.2v-17.5h7.2v1.8h-5.2v6H29.6z M36.2,175.5
				c1.4,0,2.4,0.3,3,1c0.6,0.7,0.9,1.7,0.9,3v1.4c0,1-0.2,1.8-0.5,2.3c-0.4,0.6-0.9,1-1.6,1.2c0.8,0.2,1.4,0.7,1.7,1.3
				c0.3,0.6,0.5,1.4,0.5,2.4v2.7c0,0.4,0,0.8,0.1,1.1c0,0.4,0.1,0.7,0.3,1h-2c-0.1-0.2-0.2-0.5-0.2-0.8c0-0.3-0.1-0.7-0.1-1.3v-2.8
				c0-1-0.2-1.7-0.7-2s-1.1-0.6-1.9-0.6h-1.4v7.5h-1.9v-17.5H36.2z M35.7,183.8c0.8,0,1.4-0.2,1.8-0.5s0.7-1,0.7-1.9v-1.7
				c0-0.8-0.2-1.4-0.5-1.8s-0.8-0.6-1.6-0.6h-1.9v6.5H35.7z M43.9,193h-1.8v-17.5h2.5l4,12.6v-12.6h1.7V193h-2l-4.5-14.1V193z
				 M54.4,189.5l-0.7,3.5h-1.8l3.4-17.5h2.8l3.3,17.5h-2l-0.7-3.5H54.4z M54.6,187.8h3.9l-2-10.1L54.6,187.8z M65.5,193v-15.7h-3.2
				v-1.8h8.4v1.8h-3.2V193H65.5z M74,175.5V193H72v-17.5H74z M75.8,179.7c0-1.4,0.3-2.4,1-3.2c0.7-0.8,1.7-1.2,3-1.2s2.4,0.4,3,1.2
				s1,1.9,1,3.2v9c0,1.3-0.3,2.4-1,3.2c-0.7,0.8-1.7,1.2-3,1.2s-2.4-0.4-3-1.2c-0.7-0.8-1-1.9-1-3.2V179.7z M77.8,188.9
				c0,0.8,0.2,1.4,0.5,1.9s0.9,0.7,1.6,0.7c0.7,0,1.2-0.2,1.6-0.7s0.5-1.1,0.5-1.9v-9.2c0-0.8-0.2-1.4-0.5-1.9s-0.9-0.7-1.6-0.7
				c-0.7,0-1.2,0.2-1.6,0.7s-0.5,1.1-0.5,1.9V188.9z M87.4,193h-1.8v-17.5h2.5l4,12.6v-12.6h1.7V193h-2l-4.5-14.1V193z M97.9,189.5
				l-0.7,3.5h-1.8l3.4-17.5h2.8L105,193H103l-0.7-3.5H97.9z M98.2,187.8h3.9l-2-10.1L98.2,187.8z M106.5,193v-17.5h1.9v15.7h5v1.8
				H106.5z M12.2,205.5c1.4,0,2.4,0.4,3,1.2c0.6,0.8,1,1.8,1,3.2v8.8c0,1.4-0.3,2.4-1,3.2c-0.6,0.8-1.6,1.1-3,1.1H8.1v-17.5H12.2z
				 M12.2,221.2c0.7,0,1.2-0.2,1.6-0.6c0.3-0.4,0.5-1,0.5-1.8v-9c0-0.8-0.2-1.4-0.5-1.8c-0.3-0.4-0.9-0.6-1.6-0.6h-2.1v14H12.2z
				 M24.3,213.2v1.8H20v6.2h5.2v1.8H18v-17.5h7.2v1.8H20v6H24.3z M27,223v-17.5h2v15.7h5v1.8H27z M41.7,213.2v1.8h-4.3v6.2h5.2v1.8
				h-7.2v-17.5h7.2v1.8h-5.2v6H41.7z M48.2,205.3c1.4,0,2.3,0.4,3,1.2c0.6,0.8,1,1.9,1,3.2v1.5h-1.8v-1.6c0-0.8-0.2-1.4-0.5-1.9
				c-0.3-0.4-0.8-0.7-1.6-0.7c-0.7,0-1.2,0.2-1.5,0.7c-0.3,0.4-0.5,1.1-0.5,1.9v9.2c0,0.8,0.2,1.4,0.5,1.9c0.3,0.4,0.8,0.7,1.5,0.7
				c0.7,0,1.2-0.2,1.6-0.7c0.3-0.4,0.5-1.1,0.5-1.9v-3.5h-1.8v-1.8h3.7v5.1c0,1.3-0.3,2.4-1,3.2c-0.6,0.8-1.6,1.2-3,1.2
				c-1.3,0-2.3-0.4-3-1.2c-0.6-0.8-1-1.9-1-3.2v-9c0-0.7,0.1-1.3,0.2-1.8c0.2-0.5,0.4-1,0.7-1.4c0.3-0.4,0.7-0.7,1.2-0.9
				C47,205.4,47.6,205.3,48.2,205.3z M56,219.5l-0.7,3.5h-1.8l3.3-17.5h2.8L63,223h-1.9l-0.7-3.5H56z M56.2,217.8h3.9l-2-10.1
				L56.2,217.8z M67.1,223v-15.7h-3.2v-1.8h8.4v1.8h-3.2V223H67.1z M75.6,205.5V223h-1.9v-17.5H75.6z M77.4,209.7
				c0-1.4,0.3-2.4,1-3.2c0.7-0.8,1.7-1.2,3-1.2c1.4,0,2.4,0.4,3,1.2c0.7,0.8,1,1.9,1,3.2v9c0,1.3-0.3,2.4-1,3.2
				c-0.7,0.8-1.7,1.2-3,1.2c-1.4,0-2.4-0.4-3-1.2c-0.7-0.8-1-1.9-1-3.2V209.7z M79.4,218.9c0,0.8,0.2,1.4,0.5,1.9
				c0.3,0.4,0.9,0.7,1.6,0.7c0.7,0,1.2-0.2,1.6-0.7s0.5-1.1,0.5-1.9v-9.2c0-0.8-0.2-1.4-0.5-1.9s-0.9-0.7-1.6-0.7
				c-0.7,0-1.2,0.2-1.6,0.7c-0.3,0.4-0.5,1.1-0.5,1.9V218.9z M89,223h-1.8v-17.5h2.5l4.1,12.6v-12.6h1.7V223h-2L89,208.9V223z
				 M101.2,205.3c1.3,0,2.3,0.4,3,1.2c0.6,0.8,0.9,1.9,0.9,3.2v0.5h-1.8v-0.6c0-0.8-0.2-1.4-0.5-1.9c-0.3-0.4-0.8-0.6-1.5-0.6
				s-1.2,0.2-1.5,0.6s-0.5,1-0.5,1.8c0,0.7,0.1,1.2,0.4,1.7c0.3,0.5,0.7,0.9,1.1,1.3s0.9,0.8,1.4,1.2s1,0.8,1.4,1.3
				c0.4,0.5,0.8,1,1.1,1.6c0.3,0.6,0.4,1.3,0.4,2.1c0,1.3-0.3,2.4-1,3.2s-1.6,1.2-3,1.2c-1.4,0-2.3-0.4-3-1.2
				c-0.6-0.8-0.9-1.9-0.9-3.2v-1h1.8v1.1c0,0.8,0.2,1.4,0.5,1.9s0.8,0.6,1.6,0.6s1.2-0.2,1.6-0.6c0.3-0.4,0.5-1,0.5-1.9
				c0-0.6-0.1-1.2-0.4-1.7c-0.3-0.5-0.7-0.9-1.1-1.3s-0.9-0.8-1.4-1.2s-1-0.8-1.4-1.3c-0.4-0.5-0.8-1-1.1-1.6
				c-0.3-0.6-0.4-1.3-0.4-2.1c0-1.4,0.3-2.4,1-3.2C98.9,205.7,99.9,205.3,101.2,205.3z"/>
			<path class="st8" d="M276,609.5c1.4,0,2.4,0.4,3,1.1c0.6,0.8,0.9,1.8,0.9,3.1v2.1c0,1.4-0.3,2.5-1,3.2c-0.7,0.7-1.7,1.1-3.1,1.1
				h-1.7v6.9h-1.9v-17.5H276z M275.9,618.3c0.7,0,1.3-0.2,1.6-0.5s0.5-1,0.5-1.8v-2.3c0-0.8-0.2-1.4-0.5-1.8
				c-0.3-0.4-0.8-0.6-1.5-0.6h-1.9v7.1H275.9z M287.8,617.2v1.8h-4.3v6.2h5.2v1.8h-7.2v-17.5h7.2v1.8h-5.2v6H287.8z M290.4,613.7
				c0-1.3,0.3-2.4,1-3.2c0.7-0.8,1.7-1.2,3-1.2s2.4,0.4,3,1.2c0.7,0.8,1,1.9,1,3.2v9.1c0,1.3-0.3,2.4-1,3.2c-0.7,0.8-1.7,1.2-3,1.2
				s-2.4-0.4-3-1.2c-0.7-0.8-1-1.9-1-3.2V613.7z M292.4,622.9c0,0.8,0.2,1.4,0.5,1.9c0.3,0.4,0.9,0.7,1.6,0.7c0.7,0,1.2-0.2,1.6-0.7
				c0.3-0.4,0.5-1.1,0.5-1.9v-9.2c0-0.8-0.2-1.4-0.5-1.9c-0.3-0.4-0.9-0.7-1.6-0.7c-0.7,0-1.2,0.2-1.6,0.7c-0.3,0.4-0.5,1.1-0.5,1.9
				V622.9z M304.1,609.5c1.4,0,2.4,0.4,3,1.1c0.6,0.8,0.9,1.8,0.9,3.1v2.1c0,1.4-0.3,2.5-1,3.2c-0.7,0.7-1.7,1.1-3.1,1.1h-1.7v6.9
				h-2v-17.5H304.1z M304,618.3c0.7,0,1.3-0.2,1.6-0.5s0.5-1,0.5-1.8v-2.3c0-0.8-0.2-1.4-0.5-1.8c-0.3-0.4-0.8-0.6-1.5-0.6h-1.9v7.1
				H304z M309.6,627v-17.5h2v15.7h5v1.8H309.6z M324.3,617.2v1.8H320v6.2h5.2v1.8h-7.2v-17.5h7.2v1.8H320v6H324.3z M334.9,609.5
				c1.4,0,2.4,0.3,3,1c0.6,0.7,0.9,1.7,0.9,3v1.4c0,1-0.2,1.8-0.5,2.4c-0.4,0.6-0.9,1-1.6,1.2c0.8,0.2,1.4,0.7,1.7,1.3
				s0.5,1.4,0.5,2.4v2.7c0,0.4,0,0.8,0.1,1.1c0,0.4,0.1,0.7,0.3,1h-2c-0.1-0.2-0.2-0.5-0.2-0.8c0-0.3-0.1-0.7-0.1-1.3v-2.8
				c0-1-0.2-1.7-0.7-2s-1.1-0.6-1.9-0.6h-1.4v7.5H331v-17.5H334.9z M334.4,617.8c0.8,0,1.4-0.2,1.8-0.5c0.4-0.3,0.7-1,0.7-1.9v-1.7
				c0-0.8-0.2-1.4-0.5-1.8c-0.3-0.4-0.8-0.6-1.6-0.6h-1.9v6.5H334.4z M347,617.2v1.8h-4.3v6.2h5.2v1.8h-7.2v-17.5h7.2v1.8h-5.2v6
				H347z M351.8,623.5l-0.7,3.5h-1.8l3.4-17.5h2.8l3.4,17.5h-2l-0.7-3.5H351.8z M352,621.8h3.9l-2-10.1L352,621.8z M364.1,609.3
				c1.4,0,2.3,0.4,3,1.2c0.6,0.8,1,1.9,1,3.2v1.6h-1.9v-1.7c0-0.8-0.2-1.4-0.5-1.9c-0.3-0.4-0.8-0.7-1.6-0.7c-0.7,0-1.2,0.2-1.5,0.7
				c-0.3,0.4-0.5,1.1-0.5,1.9v9.2c0,0.8,0.2,1.4,0.5,1.9c0.3,0.4,0.9,0.7,1.5,0.7c0.7,0,1.2-0.2,1.6-0.7c0.3-0.4,0.5-1.1,0.5-1.9
				v-2.3h1.9v2.2c0,1.3-0.3,2.4-1,3.2c-0.6,0.8-1.6,1.2-3,1.2c-1.3,0-2.3-0.4-3-1.2c-0.6-0.8-1-1.9-1-3.2v-9.1
				c0-0.7,0.1-1.3,0.2-1.8c0.2-0.5,0.4-1,0.7-1.4c0.3-0.4,0.7-0.7,1.2-0.9C362.9,609.4,363.5,609.3,364.1,609.3z M371.8,619.1v7.9
				h-1.9v-17.5h1.9v7.9h4.3v-7.9h1.9V627h-1.9v-7.9H371.8z M386.3,617.2v1.8H382v6.2h5.2v1.8H380v-17.5h7.2v1.8H382v6H386.3z
				 M393.1,609.5c1.4,0,2.4,0.4,3,1.2c0.6,0.8,1,1.8,1,3.2v8.8c0,1.4-0.3,2.4-1,3.2c-0.6,0.8-1.6,1.2-3,1.2H389v-17.5H393.1z
				 M393.1,625.2c0.7,0,1.2-0.2,1.6-0.6c0.3-0.4,0.5-1,0.5-1.8v-9c0-0.8-0.2-1.4-0.5-1.8c-0.3-0.4-0.9-0.6-1.6-0.6H391v13.9H393.1z
				 M402.7,613.7c0-1.3,0.3-2.4,1-3.2c0.7-0.8,1.7-1.2,3-1.2c1.4,0,2.4,0.4,3,1.2c0.7,0.8,1,1.9,1,3.2v9.1c0,1.3-0.3,2.4-1,3.2
				c-0.7,0.8-1.7,1.2-3,1.2c-1.3,0-2.4-0.4-3-1.2c-0.7-0.8-1-1.9-1-3.2V613.7z M404.6,622.9c0,0.8,0.2,1.4,0.5,1.9
				c0.3,0.4,0.9,0.7,1.6,0.7c0.7,0,1.2-0.2,1.6-0.7c0.3-0.4,0.5-1.1,0.5-1.9v-9.2c0-0.8-0.2-1.4-0.5-1.9c-0.3-0.4-0.9-0.7-1.6-0.7
				c-0.7,0-1.2,0.2-1.6,0.7c-0.3,0.4-0.5,1.1-0.5,1.9V622.9z M414.3,627h-1.8v-17.5h2.5l4,12.7v-12.7h1.7V627h-2l-4.5-14.2V627z
				 M300.3,639.3c1.3,0,2.3,0.4,3,1.2s0.9,1.9,0.9,3.2v0.5h-1.8v-0.6c0-0.8-0.2-1.4-0.5-1.8c-0.3-0.4-0.8-0.7-1.5-0.7
				c-0.7,0-1.2,0.2-1.5,0.7c-0.3,0.4-0.5,1-0.5,1.8c0,0.6,0.1,1.2,0.4,1.7c0.3,0.5,0.7,0.9,1.1,1.3c0.4,0.4,0.9,0.8,1.4,1.2
				c0.5,0.4,1,0.8,1.4,1.3c0.4,0.5,0.8,1,1.1,1.6c0.3,0.6,0.4,1.3,0.4,2.1c0,1.3-0.3,2.4-1,3.2c-0.6,0.8-1.6,1.2-3,1.2
				s-2.3-0.4-3-1.2s-0.9-1.9-0.9-3.2v-1h1.8v1.1c0,0.8,0.2,1.4,0.5,1.8s0.9,0.7,1.6,0.7c0.7,0,1.2-0.2,1.5-0.7s0.5-1,0.5-1.8
				c0-0.7-0.1-1.2-0.4-1.7c-0.3-0.5-0.7-0.9-1.1-1.3c-0.4-0.4-0.9-0.8-1.4-1.2s-1-0.8-1.4-1.3c-0.4-0.5-0.8-1-1.1-1.6
				c-0.3-0.6-0.4-1.3-0.4-2.1c0-1.4,0.3-2.4,1-3.2S299,639.3,300.3,639.3z M305.8,643.7c0-1.3,0.3-2.4,1-3.2c0.7-0.8,1.7-1.2,3-1.2
				s2.4,0.4,3,1.2c0.7,0.8,1,1.9,1,3.2v9.1c0,1.3-0.3,2.4-1,3.2c-0.7,0.8-1.7,1.2-3,1.2s-2.4-0.4-3-1.2c-0.7-0.8-1-1.9-1-3.2V643.7z
				 M307.7,652.9c0,0.8,0.2,1.4,0.5,1.9c0.3,0.4,0.9,0.7,1.6,0.7c0.7,0,1.2-0.2,1.6-0.7c0.3-0.4,0.5-1.1,0.5-1.9v-9.2
				c0-0.8-0.2-1.4-0.5-1.9c-0.3-0.4-0.9-0.7-1.6-0.7c-0.7,0-1.2,0.2-1.6,0.7c-0.3,0.4-0.5,1.1-0.5,1.9V652.9z M319.4,639.3
				c1.4,0,2.3,0.4,3,1.2c0.6,0.8,1,1.9,1,3.2v1.6h-1.9v-1.7c0-0.8-0.2-1.4-0.5-1.9c-0.3-0.4-0.8-0.7-1.6-0.7c-0.7,0-1.2,0.2-1.6,0.7
				c-0.3,0.4-0.5,1.1-0.5,1.9v9.2c0,0.8,0.2,1.4,0.5,1.9c0.3,0.4,0.9,0.7,1.6,0.7c0.7,0,1.2-0.2,1.6-0.7c0.3-0.4,0.5-1.1,0.5-1.9
				v-2.3h1.9v2.2c0,1.3-0.3,2.4-1,3.2c-0.6,0.8-1.6,1.2-3,1.2c-1.3,0-2.3-0.4-3-1.2c-0.6-0.8-1-1.9-1-3.2v-9.1
				c0-0.7,0.1-1.3,0.2-1.8c0.2-0.5,0.4-1,0.7-1.4c0.3-0.4,0.7-0.7,1.2-0.9C318.2,639.4,318.7,639.3,319.4,639.3z M327.1,639.5V657
				h-2v-17.5H327.1z M331,653.5l-0.7,3.5h-1.8l3.3-17.5h2.8l3.4,17.5h-2l-0.7-3.5H331z M331.3,651.8h3.9l-2-10.1L331.3,651.8z
				 M339.6,657v-17.5h2v15.7h5v1.8H339.6z M358.4,657h-1.9l-2.9-13.9v14h-1.7v-17.5h2.7l2.9,14l2.8-14h2.7V657h-1.9v-14.1L358.4,657
				z M371.2,647.2v1.8H367v6.2h5.2v1.8H365v-17.5h7.2v1.8H367v6H371.2z M378.1,639.5c1.4,0,2.4,0.4,3,1.2c0.6,0.8,1,1.8,1,3.2v8.8
				c0,1.4-0.3,2.4-1,3.2c-0.6,0.8-1.6,1.2-3,1.2H374v-17.5H378.1z M378.1,655.2c0.7,0,1.2-0.2,1.6-0.6c0.3-0.4,0.5-1,0.5-1.8v-9
				c0-0.8-0.2-1.4-0.5-1.8c-0.3-0.4-0.9-0.6-1.6-0.6H376v13.9H378.1z M385.9,639.5V657h-2v-17.5H385.9z M389.8,653.5l-0.7,3.5h-1.8
				l3.4-17.5h2.8l3.4,17.5h-2l-0.7-3.5H389.8z M390.1,651.8h3.9l-2-10.1L390.1,651.8z"/>
			<path class="st8" d="M20.6,442.3c1.4,0,2.3,0.4,3,1.2c0.6,0.8,1,1.9,1,3.2v1.6h-1.9v-1.7c0-0.8-0.2-1.4-0.5-1.9
				c-0.3-0.4-0.8-0.7-1.6-0.7c-0.7,0-1.2,0.2-1.5,0.7c-0.3,0.4-0.5,1.1-0.5,1.9v9.2c0,0.8,0.2,1.4,0.5,1.9c0.3,0.4,0.8,0.7,1.5,0.7
				c0.7,0,1.2-0.2,1.6-0.7c0.3-0.4,0.5-1.1,0.5-1.9v-2.3h1.9v2.2c0,1.3-0.3,2.4-1,3.2c-0.6,0.8-1.6,1.2-3,1.2c-1.3,0-2.3-0.4-3-1.2
				c-0.6-0.8-1-1.9-1-3.2v-9c0-0.7,0.1-1.3,0.2-1.8c0.2-0.5,0.4-1,0.7-1.4c0.3-0.4,0.7-0.7,1.2-0.9C19.4,442.4,20,442.3,20.6,442.3z
				 M26.2,446.7c0-1.4,0.3-2.4,1-3.2c0.7-0.8,1.7-1.2,3-1.2c1.4,0,2.4,0.4,3,1.2c0.7,0.8,1,1.9,1,3.2v9c0,1.3-0.3,2.4-1,3.2
				c-0.7,0.8-1.7,1.2-3,1.2c-1.4,0-2.4-0.4-3-1.2c-0.7-0.8-1-1.9-1-3.2V446.7z M28.1,455.9c0,0.8,0.2,1.4,0.5,1.9
				c0.3,0.4,0.9,0.7,1.6,0.7c0.7,0,1.2-0.2,1.6-0.7c0.3-0.4,0.5-1.1,0.5-1.9v-9.2c0-0.8-0.2-1.4-0.5-1.9c-0.3-0.4-0.9-0.7-1.6-0.7
				c-0.7,0-1.2,0.2-1.6,0.7c-0.3,0.4-0.5,1.1-0.5,1.9V455.9z M37.9,455.9c0,0.8,0.2,1.4,0.5,1.9c0.3,0.4,0.8,0.7,1.6,0.7
				c0.7,0,1.2-0.2,1.5-0.7c0.3-0.4,0.5-1.1,0.5-1.9v-13.4h1.8v13.3c0,1.3-0.3,2.4-1,3.2c-0.6,0.8-1.6,1.2-3,1.2
				c-1.3,0-2.3-0.4-3-1.2c-0.6-0.8-1-1.9-1-3.2v-13.3h1.9V455.9z M47.5,460h-1.8v-17.5h2.5l4,12.6v-12.6H54V460h-2l-4.5-14.1V460z
				 M58.5,460v-15.7h-3.2v-1.8h8.4v1.8h-3.2V460H58.5z M68.9,442.5c1.4,0,2.4,0.3,3,1c0.6,0.7,0.9,1.7,0.9,3v1.4
				c0,1-0.2,1.8-0.5,2.4c-0.3,0.6-0.9,1-1.6,1.2c0.8,0.2,1.4,0.7,1.7,1.3s0.5,1.4,0.5,2.4v2.7c0,0.4,0,0.8,0.1,1.1s0.1,0.7,0.3,1h-2
				c-0.1-0.2-0.2-0.5-0.2-0.8s-0.1-0.7-0.1-1.3v-2.8c0-1-0.2-1.7-0.7-2c-0.4-0.4-1.1-0.6-1.9-0.6H67v7.5h-1.9v-17.5H68.9z
				 M68.4,450.8c0.8,0,1.4-0.2,1.8-0.5c0.4-0.3,0.7-1,0.7-1.9v-1.7c0-0.8-0.2-1.4-0.5-1.8s-0.8-0.6-1.6-0.6H67v6.5H68.4z
				 M76.8,442.5V460h-1.9v-17.5H76.8z M85.1,450.2v1.8h-4.3v6.2h5.2v1.8h-7.2v-17.5h7.2v1.8h-5.2v6H85.1z M91.5,442.3
				c1.3,0,2.3,0.4,2.9,1.2c0.6,0.8,1,1.9,1,3.2v0.5h-1.9v-0.6c0-0.8-0.2-1.4-0.5-1.9c-0.3-0.4-0.8-0.6-1.5-0.6
				c-0.7,0-1.2,0.2-1.5,0.6c-0.3,0.4-0.5,1-0.5,1.8c0,0.6,0.1,1.2,0.4,1.7c0.3,0.5,0.7,0.9,1.1,1.3c0.4,0.4,0.9,0.8,1.4,1.2
				c0.5,0.4,1,0.8,1.4,1.3c0.4,0.5,0.8,1,1.1,1.6c0.3,0.6,0.4,1.3,0.4,2.1c0,1.3-0.3,2.4-1,3.2c-0.6,0.8-1.6,1.2-3,1.2
				s-2.3-0.4-3-1.2c-0.6-0.8-1-1.9-1-3.2v-1h1.8v1.1c0,0.8,0.2,1.4,0.5,1.9s0.8,0.6,1.5,0.6c0.7,0,1.2-0.2,1.6-0.6s0.5-1,0.5-1.9
				c0-0.6-0.1-1.2-0.4-1.7s-0.7-0.9-1.1-1.3c-0.4-0.4-0.9-0.8-1.4-1.2c-0.5-0.4-1-0.8-1.4-1.3c-0.4-0.5-0.8-1-1.1-1.6
				c-0.3-0.6-0.4-1.3-0.4-2.1c0-1.4,0.3-2.4,0.9-3.2C89.2,442.7,90.2,442.3,91.5,442.3z M9.1,472.5c1.4,0,2.4,0.3,3,1
				c0.6,0.7,0.9,1.7,0.9,3v1.4c0,1-0.2,1.8-0.5,2.4s-0.9,1-1.6,1.2c0.8,0.2,1.4,0.7,1.7,1.3s0.5,1.4,0.5,2.4v2.7
				c0,0.4,0,0.8,0.1,1.1c0,0.4,0.1,0.7,0.3,1h-2c-0.1-0.2-0.2-0.5-0.2-0.8s-0.1-0.7-0.1-1.3v-2.8c0-1-0.2-1.7-0.7-2
				s-1.1-0.6-1.9-0.6H7.2v7.5h-2v-17.5H9.1z M8.6,480.8c0.8,0,1.4-0.2,1.8-0.5c0.4-0.3,0.7-1,0.7-1.9v-1.7c0-0.8-0.2-1.4-0.5-1.8
				s-0.8-0.6-1.6-0.6H7.2v6.5H8.6z M21.3,480.2v1.8H17v6.2h5.2v1.8h-7.2v-17.5h7.2v1.8H17v6H21.3z M27.9,472.5c1.4,0,2.4,0.4,3,1.1
				c0.6,0.8,0.9,1.8,0.9,3.1v2.1c0,1.4-0.3,2.5-1,3.2s-1.7,1.1-3.1,1.1H26v6.9h-1.9v-17.5H27.9z M27.8,481.4c0.7,0,1.3-0.2,1.6-0.5
				s0.5-1,0.5-1.8v-2.3c0-0.8-0.2-1.4-0.5-1.8s-0.8-0.6-1.5-0.6H26v7.1H27.8z M37.3,472.5c1.4,0,2.4,0.3,3,1c0.6,0.7,0.9,1.7,0.9,3
				v1.4c0,1-0.2,1.8-0.5,2.4s-0.9,1-1.7,1.2c0.8,0.2,1.4,0.7,1.7,1.3s0.5,1.4,0.5,2.4v2.7c0,0.4,0,0.8,0,1.1s0.1,0.7,0.3,1h-2
				c-0.1-0.2-0.2-0.5-0.2-0.8s-0.1-0.7-0.1-1.3v-2.8c0-1-0.2-1.7-0.7-2s-1.1-0.6-1.9-0.6h-1.4v7.5h-2v-17.5H37.3z M36.8,480.8
				c0.8,0,1.4-0.2,1.8-0.5c0.4-0.3,0.6-1,0.6-1.9v-1.7c0-0.8-0.2-1.4-0.5-1.8c-0.3-0.4-0.8-0.6-1.6-0.6h-1.9v6.5H36.8z M49.5,480.2
				v1.8h-4.3v6.2h5.2v1.8h-7.2v-17.5h7.2v1.8h-5.2v6H49.5z M56,472.3c1.3,0,2.3,0.4,3,1.2c0.6,0.8,0.9,1.9,0.9,3.2v0.5H58v-0.6
				c0-0.8-0.2-1.4-0.5-1.9c-0.3-0.4-0.8-0.6-1.5-0.6s-1.2,0.2-1.5,0.6c-0.3,0.4-0.5,1-0.5,1.8c0,0.6,0.1,1.2,0.4,1.7
				s0.7,0.9,1.1,1.3c0.4,0.4,0.9,0.8,1.4,1.2s1,0.8,1.4,1.3c0.4,0.5,0.8,1,1.1,1.6s0.4,1.3,0.4,2.1c0,1.3-0.3,2.4-1,3.2
				c-0.6,0.8-1.6,1.2-3,1.2s-2.3-0.4-3-1.2c-0.6-0.8-1-1.9-1-3.2v-1h1.8v1.1c0,0.8,0.2,1.4,0.5,1.9s0.8,0.6,1.5,0.6s1.2-0.2,1.5-0.6
				s0.5-1,0.5-1.9c0-0.6-0.1-1.2-0.4-1.7s-0.7-0.9-1.1-1.3c-0.4-0.4-0.9-0.8-1.4-1.2s-1-0.8-1.4-1.3c-0.4-0.5-0.8-1-1.1-1.6
				s-0.4-1.3-0.4-2.1c0-1.4,0.3-2.4,1-3.2C53.7,472.7,54.6,472.3,56,472.3z M67.8,480.2v1.8h-4.3v6.2h5.2v1.8h-7.2v-17.5h7.2v1.8
				h-5.2v6H67.8z M72.3,490h-1.8v-17.5H73l4,12.6v-12.6h1.7V490h-2l-4.5-14.1V490z M83.3,490v-15.7h-3.2v-1.8h8.4v1.8h-3.2V490H83.3
				z M96.1,480.2v1.8h-4.3v6.2h5.2v1.8h-7.2v-17.5h7.2v1.8h-5.2v6H96.1z M103,472.5c1.4,0,2.4,0.4,3,1.2s1,1.8,1,3.2v8.8
				c0,1.4-0.3,2.4-1,3.2c-0.6,0.8-1.6,1.1-3,1.1h-4.1v-17.5H103z M102.9,488.2c0.7,0,1.2-0.2,1.6-0.6c0.3-0.4,0.5-1,0.5-1.8v-9
				c0-0.8-0.2-1.4-0.5-1.8c-0.3-0.4-0.9-0.6-1.6-0.6h-2.1v14H102.9z"/>
			<path class="st8" d="M278.3,294.8l4.4-29.7h5.3l-5.6,36.4h-8.5l-5.6-36.4h5.8L278.3,294.8z M290.6,265.1h5.7v36.4h-5.7V265.1z
				 M299.7,273.8c0-2.9,0.7-5.2,2.1-6.8c1.4-1.6,3.5-2.4,6.3-2.4s4.9,0.8,6.3,2.4c1.4,1.6,2.1,3.8,2.1,6.8v1.1h-5.4v-1.5
				c0-1.3-0.3-2.2-0.8-2.8c-0.5-0.5-1.2-0.8-2.1-0.8c-0.9,0-1.6,0.3-2.1,0.8c-0.5,0.5-0.8,1.5-0.8,2.8c0,1.2,0.3,2.3,0.8,3.3
				s1.2,1.9,2.1,2.7c0.8,0.8,1.7,1.7,2.7,2.5s1.8,1.8,2.7,2.8s1.5,2.1,2.1,3.4c0.6,1.3,0.8,2.8,0.8,4.5c0,2.9-0.7,5.2-2.2,6.8
				c-1.4,1.6-3.6,2.4-6.4,2.4s-4.9-0.8-6.4-2.4c-1.4-1.6-2.2-3.8-2.2-6.8v-2.2h5.4v2.6c0,1.3,0.3,2.2,0.8,2.8
				c0.5,0.5,1.3,0.8,2.2,0.8s1.6-0.3,2.2-0.8c0.5-0.5,0.8-1.4,0.8-2.8c0-1.2-0.3-2.3-0.8-3.3c-0.6-1-1.2-1.9-2.1-2.7
				s-1.7-1.7-2.7-2.5s-1.8-1.8-2.7-2.8c-0.8-1-1.5-2.1-2.1-3.4C300,277.1,299.7,275.6,299.7,273.8z M319.9,265.1h5.7v36.4h-5.7
				V265.1z M328.1,265.1h17.7v5.2h-6v31.2h-5.7v-31.2h-6V265.1z M353.5,293.1c0,1.3,0.3,2.2,0.8,2.8c0.5,0.5,1.3,0.8,2.2,0.8
				s1.6-0.3,2.2-0.8c0.5-0.5,0.8-1.5,0.8-2.8v-19.7c0-1.3-0.3-2.2-0.8-2.8c-0.5-0.5-1.3-0.8-2.2-0.8s-1.6,0.3-2.2,0.8
				c-0.5,0.5-0.8,1.5-0.8,2.8V293.1z M347.8,273.8c0-2.9,0.7-5.2,2.2-6.8c1.5-1.6,3.6-2.4,6.4-2.4s5,0.8,6.4,2.4
				c1.5,1.6,2.2,3.8,2.2,6.8v18.9c0,2.9-0.7,5.2-2.2,6.8c-1.5,1.6-3.6,2.4-6.4,2.4s-5-0.8-6.4-2.4c-1.5-1.6-2.2-3.8-2.2-6.8V273.8z
				 M380.8,301.5c-0.1-0.2-0.1-0.5-0.2-0.7s-0.1-0.5-0.2-0.8s-0.1-0.7-0.1-1.2c0-0.5,0-1.1,0-1.8v-5.7c0-1.7-0.3-2.9-0.9-3.6
				c-0.6-0.7-1.5-1-2.9-1h-2v14.8h-5.7v-36.4h8.6c3,0,5.1,0.7,6.5,2.1c1.3,1.4,2,3.5,2,6.3v2.9c0,3.7-1.2,6.2-3.7,7.4
				c1.5,0.6,2.5,1.6,3,2.9c0.5,1.3,0.8,3,0.8,4.9v5.6c0,0.9,0,1.7,0.1,2.4c0.1,0.7,0.2,1.4,0.5,2.1H380.8z M374.6,270.3v11.2h2.2
				c1.1,0,1.9-0.3,2.5-0.8s0.9-1.6,0.9-3v-3.6c0-1.3-0.2-2.3-0.7-2.9c-0.5-0.6-1.2-0.9-2.2-0.9H374.6z M389.1,273.8
				c0-2.9,0.7-5.2,2.1-6.8c1.4-1.6,3.5-2.4,6.3-2.4s4.9,0.8,6.3,2.4c1.4,1.6,2.1,3.8,2.1,6.8v1.1h-5.4v-1.5c0-1.3-0.3-2.2-0.8-2.8
				s-1.2-0.8-2.1-0.8c-0.9,0-1.6,0.3-2.1,0.8s-0.8,1.5-0.8,2.8c0,1.2,0.3,2.3,0.8,3.3s1.2,1.9,2.1,2.7c0.8,0.8,1.7,1.7,2.7,2.5
				s1.8,1.8,2.7,2.8s1.5,2.1,2.1,3.4c0.6,1.3,0.8,2.8,0.8,4.5c0,2.9-0.7,5.2-2.2,6.8c-1.4,1.6-3.6,2.4-6.4,2.4s-4.9-0.8-6.4-2.4
				c-1.4-1.6-2.2-3.8-2.2-6.8v-2.2h5.4v2.6c0,1.3,0.3,2.2,0.8,2.8c0.5,0.5,1.3,0.8,2.2,0.8s1.6-0.3,2.2-0.8c0.5-0.5,0.8-1.4,0.8-2.8
				c0-1.2-0.3-2.3-0.8-3.3c-0.6-1-1.2-1.9-2.1-2.7s-1.7-1.7-2.7-2.5s-1.8-1.8-2.7-2.8c-0.8-1-1.5-2.1-2.1-3.4
				C389.3,277.1,389.1,275.6,389.1,273.8z M271.8,236.3l10.4-24.6h6.2v24.6h2.7v5.2h-2.7v6.6h-5.6v-6.6h-11V236.3z M282.9,236.3
				v-13.7l-5.8,13.7H282.9z M312.4,238.9c0,2.9-0.8,5.2-2.3,6.8c-1.5,1.6-3.7,2.4-6.7,2.4s-5.1-0.8-6.7-2.4
				c-1.5-1.6-2.3-3.8-2.3-6.8V236c0-1.8,0.3-3.3,0.8-4.6s1.5-2.3,2.7-3c-2.4-1.3-3.5-3.7-3.5-7.3V220c0-2.9,0.8-5.2,2.3-6.8
				c1.5-1.6,3.7-2.4,6.7-2.4s5.1,0.8,6.7,2.4c1.5,1.6,2.3,3.8,2.3,6.8v1.1c0,3.6-1.2,6-3.5,7.3c1.2,0.7,2.1,1.7,2.7,3
				c0.6,1.3,0.8,2.8,0.8,4.6V238.9z M300.2,222.2c0,1.5,0.3,2.5,0.9,3c0.6,0.6,1.4,0.8,2.3,0.8c0.9,0,1.7-0.3,2.3-0.8s0.9-1.6,0.9-3
				v-2c0-1.6-0.3-2.7-0.9-3.3s-1.4-0.9-2.3-0.9s-1.7,0.3-2.3,0.9s-0.9,1.7-0.9,3.3V222.2z M300.2,238.7c0,1.6,0.3,2.7,0.9,3.3
				c0.6,0.6,1.4,0.8,2.3,0.8s1.7-0.3,2.3-0.8c0.6-0.6,0.9-1.6,1-3.3v-3.4c0-1.5-0.3-2.5-0.9-3.1c-0.6-0.6-1.4-1-2.4-1
				s-1.8,0.3-2.4,1c-0.6,0.6-0.9,1.7-0.9,3.1v3.4H300.2z M327,220.4c0-1.6-0.3-2.7-0.8-3.3c-0.5-0.6-1.3-0.9-2.2-0.9
				c-0.9,0-1.6,0.3-2.2,0.8c-0.5,0.5-0.8,1.5-0.8,2.8v3.9h-5.4v-3.5c0-2.9,0.7-5.2,2.2-6.8c1.4-1.6,3.6-2.4,6.4-2.4
				c2.8,0,4.9,0.8,6.4,2.4c1.4,1.6,2.2,3.8,2.2,6.8c0,1.9-0.3,3.6-0.8,5.2c-0.6,1.5-1.3,2.9-2.1,4.2c-0.9,1.3-1.8,2.4-2.8,3.5
				s-1.9,2.1-2.8,3.1c-0.8,1-1.6,1.9-2.1,2.8c-0.6,0.9-0.8,1.9-0.8,2.9c0,0.3,0,0.6,0.1,0.8h10.8v5.2h-16.6v-4.5
				c0-1.8,0.3-3.3,0.8-4.7c0.6-1.4,1.3-2.6,2.1-3.7c0.8-1.1,1.8-2.2,2.7-3.2c1-1,1.9-2,2.7-3.1c0.8-1.1,1.6-2.3,2.1-3.6
				C326.7,223.8,327,222.2,327,220.4z M355.9,220.4c0-1.6-0.3-2.7-0.8-3.3c-0.5-0.6-1.3-0.9-2.2-0.9s-1.6,0.3-2.2,0.8
				c-0.5,0.5-0.8,1.5-0.8,2.8v3.9h-5.4v-3.5c0-2.9,0.7-5.2,2.2-6.8c1.4-1.6,3.6-2.4,6.4-2.4c2.8,0,4.9,0.8,6.4,2.4
				c1.4,1.6,2.2,3.8,2.2,6.8c0,1.9-0.3,3.6-0.8,5.2c-0.6,1.5-1.3,2.9-2.1,4.2c-0.9,1.3-1.8,2.4-2.8,3.5s-1.9,2.1-2.8,3.1
				c-0.8,1-1.6,1.9-2.1,2.8c-0.6,0.9-0.8,1.9-0.8,2.9c0,0.3,0,0.6,0.1,0.8h10.8v5.2h-16.6v-4.5c0-1.8,0.3-3.3,0.8-4.7
				c0.6-1.4,1.3-2.6,2.1-3.7s1.8-2.2,2.7-3.2c1-1,1.9-2,2.7-3.1s1.6-2.3,2.1-3.6C355.6,223.8,355.9,222.2,355.9,220.4z M376.4,220.4
				c0-1.6-0.3-2.7-0.8-3.3c-0.5-0.6-1.3-0.9-2.2-0.9c-0.9,0-1.6,0.3-2.2,0.8c-0.5,0.5-0.8,1.5-0.8,2.8v3.9H365v-3.5
				c0-2.9,0.7-5.2,2.2-6.8c1.4-1.6,3.6-2.4,6.4-2.4c2.8,0,4.9,0.8,6.4,2.4c1.4,1.6,2.2,3.8,2.2,6.8c0,1.9-0.3,3.6-0.8,5.2
				c-0.6,1.5-1.3,2.9-2.1,4.2c-0.9,1.3-1.8,2.4-2.8,3.5s-1.9,2.1-2.8,3.1c-0.8,1-1.6,1.9-2.1,2.8c-0.6,0.9-0.8,1.9-0.8,2.9
				c0,0.3,0,0.6,0.1,0.8h10.8v5.2h-16.6v-4.5c0-1.8,0.3-3.3,0.8-4.7c0.6-1.4,1.3-2.6,2.1-3.7c0.8-1.1,1.8-2.2,2.7-3.2
				c1-1,1.9-2,2.7-3.1c0.8-1.1,1.6-2.3,2.1-3.6C376.1,223.8,376.4,222.2,376.4,220.4z M385.5,216.3c1.1,0,2-0.1,2.7-0.4
				c0.7-0.2,1.3-0.6,1.7-1c0.5-0.4,0.8-0.9,1.1-1.5s0.5-1.1,0.7-1.8h3.8v36.5h-5.6v-27.8h-4.4V216.3z"/>
			<path class="st12" d="M353.7,1v5l-8.4,31.4h-5.7L348,6.2h-11.4V1H353.7z"/>
			<path class="st12" d="M315,25.6L325.4,1h6.2v24.6h2.7v5.2h-2.7v6.6H326v-6.6h-11V25.6z M326.1,25.6V11.9l-5.8,13.7H326.1z"/>
			<path class="st10" d="M241.9,579l10.4-24.6h6.2V579h2.7v5.2h-2.7v6.6h-5.6v-6.6h-11V579z M253,579v-13.7l-5.8,13.7H253z"/>
			<path class="st10" d="M275.5,578.8v3.4c0,1.3,0.3,2.2,0.8,2.8c0.5,0.5,1.3,0.8,2.2,0.8s1.6-0.3,2.2-0.8c0.5-0.5,0.8-1.4,0.8-2.8
				v-8c0-1.3-0.3-2.2-0.8-2.8c-0.5-0.5-1.3-0.8-2.2-0.8s-1.6,0.3-2.2,0.8c-0.5,0.5-0.8,1.5-0.8,2.8v1.1h-5.4l1-21.1h15.1v5.2h-9.9
				l-0.5,8.7c1.1-1.8,2.7-2.7,5-2.7c2.1,0,3.7,0.7,4.8,2.1c1.1,1.4,1.6,3.5,1.6,6.2v8.1c0,2.9-0.7,5.2-2.2,6.8
				c-1.4,1.6-3.6,2.4-6.4,2.4s-4.9-0.8-6.4-2.4c-1.4-1.6-2.2-3.8-2.2-6.8v-3H275.5z"/>
			<g>
				<path class="st10" d="M262.8,594.6c1.8-0.8,3.2-1.9,3.2-3.4c0-1.4-1.2-1.8-2.6-2.2c-0.2,0-0.6-0.5-0.6-1.2c0-1,0.8-2,2.2-2
					c1.4,0,3.4,1.3,3.4,4.2c0,3.2-2.8,5.1-5.1,5.8L262.8,594.6z"/>
			</g>
		</g>
	</g>
	<path class="st11" d="M58.7,126.6c1.1,0,2-0.1,2.7-0.4c0.7-0.2,1.3-0.6,1.7-1c0.5-0.4,0.8-0.9,1.1-1.5s0.5-1.1,0.7-1.8h3.8v36.5
		h-5.6v-27.8h-4.4V126.6z"/>
	<g>
		<path class="st8" d="M282.2,408.3l-1,1.3v0l1.5-0.2v0.7l-1.5-0.2v0l1,1.2l-0.6,0.4L281,410h0l-0.7,1.4l-0.6-0.4l1-1.2v0l-1.5,0.2
			v-0.7l1.5,0.2v0l-0.9-1.2l0.6-0.4l0.6,1.4h0l0.6-1.4L282.2,408.3z"/>
	</g>
	<text transform="matrix(1 0 0 1 285.5803 416.4164)" class="st13 st14 st15">Early closing of # SIA2020</text>
	<g>
		<path class="st8" d="M403.1,209.4l-1.1,1.4v0l1.7-0.2v0.8l-1.7-0.2v0l1.1,1.4l-0.7,0.4l-0.7-1.6h0L401,213l-0.6-0.4l1.1-1.4v0
			l-1.7,0.2v-0.8l1.7,0.2v0l-1.1-1.4l0.7-0.4l0.7,1.6h0l0.7-1.6L403.1,209.4z"/>
	</g>
</g>
<g id="Calque_2">
</g>
</svg>
