<?xml version="1.0" encoding="utf-8"?>
<!-- Generator: Adobe Illustrator 22.0.1, SVG Export Plug-In . SVG Version: 6.00 Build 0)  -->
<svg version="1.1" id="Calque_1" xmlns="http://www.w3.org/2000/svg" xmlns:xlink="http://www.w3.org/1999/xlink" x="0px" y="0px"
	 viewBox="0 0 298.8 279.1" style="enable-background:new 0 0 298.8 279.1;" xml:space="preserve">
<style type="text/css">
	.st0{fill:#FFFFFF;}
	.st1{fill:#2A2A2A;}
	.st2{fill:none;stroke:#F6A723;stroke-width:9;}
	.st3{fill:none;stroke:#E74892;stroke-width:9;}
	.st4{fill:none;stroke:#E74427;stroke-width:9;}
	.st5{fill:none;stroke:#80BA27;stroke-width:9;}
	.st6{fill:none;stroke:#30B3E8;stroke-width:9;}
	.st7{font-family:'BebasNeueRegular';}
	.st8{font-size:12.0073px;}
	.st9{fill:#E74892;}
	.st10{font-family:'BebasNeueBold';}
	.st11{font-size:21.5303px;}
	.st12{fill:#F6A723;}
	.st13{fill:#80BA27;}
	.st14{fill:#30B3E8;}
	.st15{fill:#E74427;}
	.st16{font-size:10.3511px;}
</style>
<g transform="translate(-14 -12)">
	<g transform="translate(14 48)">
		<circle class="st0" cx="147.3" cy="93.9" r="72.9"/>
		<path class="st1" d="M116.8-10l1.1,6.1l1.1-6.1h0.7l-1.3,7h-1.1l-1.3-7H116.8z M121.3-10v7h-0.8v-7H121.3z M123.8-10.1
			c0.5,0,0.9,0.2,1.2,0.5c0.3,0.3,0.4,0.7,0.4,1.3v0.2h-0.7v-0.2c0-0.3-0.1-0.6-0.2-0.7c-0.1-0.2-0.3-0.3-0.6-0.3
			c-0.3,0-0.5,0.1-0.6,0.3c-0.1,0.2-0.2,0.4-0.2,0.7c0,0.3,0.1,0.5,0.2,0.7s0.3,0.4,0.4,0.5c0.2,0.2,0.4,0.3,0.6,0.5
			s0.4,0.3,0.6,0.5c0.2,0.2,0.3,0.4,0.4,0.6c0.1,0.2,0.2,0.5,0.2,0.8c0,0.5-0.1,1-0.4,1.3c-0.3,0.3-0.7,0.5-1.2,0.5
			s-0.9-0.2-1.2-0.5s-0.4-0.7-0.4-1.3v-0.4h0.7v0.4c0,0.3,0.1,0.6,0.2,0.7c0.1,0.2,0.3,0.3,0.6,0.3s0.5-0.1,0.6-0.3
			c0.1-0.2,0.2-0.4,0.2-0.7c0-0.3-0.1-0.5-0.2-0.7c-0.1-0.2-0.3-0.4-0.4-0.5s-0.4-0.3-0.6-0.5c-0.2-0.2-0.4-0.3-0.6-0.5
			s-0.3-0.4-0.4-0.6c-0.1-0.2-0.2-0.5-0.2-0.8c0-0.5,0.1-1,0.4-1.3S123.3-10.1,123.8-10.1z M127-10v7h-0.8v-7H127z M129-3v-6.3h-1.3
			V-10h3.3v0.7h-1.3V-3H129z M134.2-6.9v0.7h-1.7v2.5h2.1V-3h-2.9v-7h2.9v0.7h-2.1v2.4H134.2z M137-10.1c0.5,0,0.9,0.2,1.2,0.5
			c0.3,0.3,0.4,0.7,0.4,1.3v0.2h-0.7v-0.2c0-0.3-0.1-0.6-0.2-0.7c-0.1-0.2-0.3-0.3-0.6-0.3s-0.5,0.1-0.6,0.3
			c-0.1,0.2-0.2,0.4-0.2,0.7c0,0.3,0.1,0.5,0.2,0.7s0.3,0.4,0.4,0.5c0.2,0.2,0.4,0.3,0.6,0.5c0.2,0.2,0.4,0.3,0.6,0.5
			c0.2,0.2,0.3,0.4,0.4,0.6s0.2,0.5,0.2,0.8c0,0.5-0.1,1-0.4,1.3S137.5-3,137-3c-0.5,0-0.9-0.2-1.2-0.5s-0.4-0.7-0.4-1.3v-0.4h0.7
			v0.4c0,0.3,0.1,0.6,0.2,0.7c0.1,0.2,0.3,0.3,0.6,0.3s0.5-0.1,0.6-0.3c0.1-0.2,0.2-0.4,0.2-0.7c0-0.3-0.1-0.5-0.2-0.7
			s-0.3-0.4-0.4-0.5s-0.4-0.3-0.6-0.5c-0.2-0.2-0.4-0.3-0.6-0.5c-0.2-0.2-0.3-0.4-0.4-0.6c-0.1-0.2-0.2-0.5-0.2-0.8
			c0-0.5,0.1-1,0.4-1.3S136.5-10.1,137-10.1z M141.1-8.3c0-0.5,0.1-1,0.4-1.3c0.3-0.3,0.7-0.5,1.2-0.5s0.9,0.2,1.2,0.5
			c0.3,0.3,0.4,0.7,0.4,1.3v3.6c0,0.5-0.1,1-0.4,1.3c-0.3,0.3-0.7,0.5-1.2,0.5s-0.9-0.2-1.2-0.5c-0.3-0.3-0.4-0.7-0.4-1.3V-8.3z
			 M141.9-4.7c0,0.3,0.1,0.6,0.2,0.7c0.1,0.2,0.3,0.3,0.6,0.3c0.3,0,0.5-0.1,0.6-0.3c0.1-0.2,0.2-0.4,0.2-0.7v-3.7
			c0-0.3-0.1-0.6-0.2-0.7s-0.3-0.3-0.6-0.3c-0.3,0-0.5,0.1-0.6,0.3s-0.2,0.4-0.2,0.7V-4.7z M147.6-6.8V-6H146v3h-0.8v-7h2.8v0.7h-2
			v2.5H147.6z M151.2-6.8V-6h-1.6v3h-0.8v-7h2.8v0.7h-2v2.5H151.2z M153.2-10v7h-0.8v-7H153.2z M155.7-10.1c0.5,0,0.9,0.2,1.2,0.5
			c0.3,0.3,0.4,0.7,0.4,1.3v0.6h-0.7v-0.7c0-0.3-0.1-0.6-0.2-0.7s-0.3-0.3-0.6-0.3c-0.3,0-0.5,0.1-0.6,0.3c-0.1,0.2-0.2,0.4-0.2,0.7
			v3.7c0,0.3,0.1,0.6,0.2,0.7c0.1,0.2,0.3,0.3,0.6,0.3c0.3,0,0.5-0.1,0.6-0.3c0.1-0.2,0.2-0.4,0.2-0.7v-0.9h0.7v0.9
			c0,0.5-0.1,1-0.4,1.3c-0.3,0.3-0.7,0.5-1.2,0.5c-0.5,0-0.9-0.2-1.2-0.5c-0.3-0.3-0.4-0.7-0.4-1.3v-3.6c0-0.3,0-0.5,0.1-0.7
			c0.1-0.2,0.2-0.4,0.3-0.6c0.1-0.2,0.3-0.3,0.5-0.4C155.2-10,155.4-10.1,155.7-10.1z M158.9-10v7h-0.8v-7H158.9z M162.4-6.9v0.7
			h-1.7v2.5h2.1V-3h-2.9v-7h2.9v0.7h-2.1v2.4H162.4z M163.7-3v-7h0.8v6.3h2V-3H163.7z M167.2-3v-7h0.8v6.3h2V-3H167.2z M173.3-6.9
			v0.7h-1.7v2.5h2.1V-3h-2.9v-7h2.9v0.7h-2.1v2.4H173.3z M176-10.1c0.5,0,0.9,0.2,1.2,0.5c0.3,0.3,0.4,0.7,0.4,1.3v0.2h-0.7v-0.2
			c0-0.3-0.1-0.6-0.2-0.7c-0.1-0.2-0.3-0.3-0.6-0.3s-0.5,0.1-0.6,0.3c-0.1,0.2-0.2,0.4-0.2,0.7c0,0.3,0.1,0.5,0.2,0.7
			s0.3,0.4,0.4,0.5c0.2,0.2,0.4,0.3,0.6,0.5s0.4,0.3,0.6,0.5c0.2,0.2,0.3,0.4,0.4,0.6s0.2,0.5,0.2,0.8c0,0.5-0.1,1-0.4,1.3
			S176.5-3,176-3s-0.9-0.2-1.2-0.5s-0.4-0.7-0.4-1.3v-0.4h0.7v0.4c0,0.3,0.1,0.6,0.2,0.7c0.1,0.2,0.3,0.3,0.6,0.3s0.5-0.1,0.6-0.3
			c0.1-0.2,0.2-0.4,0.2-0.7c0-0.3-0.1-0.5-0.2-0.7c-0.1-0.2-0.3-0.4-0.4-0.5s-0.4-0.3-0.6-0.5s-0.4-0.3-0.6-0.5
			c-0.2-0.2-0.3-0.4-0.4-0.6c-0.1-0.2-0.2-0.5-0.2-0.8c0-0.5,0.1-1,0.4-1.3S175.5-10.1,176-10.1z"/>
		<path class="st1" d="M9.8,41.8c0.5,0,0.9,0.2,1.2,0.5c0.3,0.3,0.4,0.7,0.4,1.3V47c0,0.5-0.1,1-0.4,1.3c-0.3,0.3-0.7,0.5-1.2,0.5
			H8.2v-7H9.8z M9.8,48c0.3,0,0.5-0.1,0.6-0.3c0.1-0.2,0.2-0.4,0.2-0.7v-3.6c0-0.3-0.1-0.6-0.2-0.7c-0.1-0.2-0.3-0.3-0.6-0.3H9V48
			H9.8z M14.8,40.4l-0.9,1h-0.5l0.7-1H14.8z M14.8,44.8v0.7h-1.7V48h2.1v0.7h-2.9v-7h2.9v0.7h-2.1v2.4H14.8z M16.1,48.7v-7h0.8V48h2
			v0.7H16.1z M22.1,40.4l-0.9,1h-0.5l0.7-1H22.1z M22.1,44.8v0.7h-1.7V48h2.1v0.7h-2.9v-7h2.9v0.7h-2.1v2.4H22.1z M24.9,41.7
			c0.5,0,0.9,0.2,1.2,0.5c0.3,0.3,0.4,0.7,0.4,1.3V44h-0.7v-0.6c0-0.3-0.1-0.6-0.2-0.7c-0.1-0.2-0.3-0.3-0.6-0.3
			c-0.3,0-0.5,0.1-0.6,0.3s-0.2,0.4-0.2,0.7v3.7c0,0.3,0.1,0.6,0.2,0.7s0.3,0.3,0.6,0.3c0.3,0,0.5-0.1,0.6-0.3
			c0.1-0.2,0.2-0.4,0.2-0.7v-1.4h-0.7V45h1.5v2c0,0.5-0.1,1-0.4,1.3c-0.3,0.3-0.7,0.5-1.2,0.5c-0.5,0-0.9-0.2-1.2-0.5
			c-0.3-0.3-0.4-0.7-0.4-1.3v-3.6c0-0.3,0-0.5,0.1-0.7c0.1-0.2,0.2-0.4,0.3-0.6s0.3-0.3,0.5-0.4C24.4,41.7,24.7,41.7,24.9,41.7z
			 M28.2,47.3l-0.3,1.4h-0.7l1.3-7h1.1l1.3,7h-0.8L30,47.3H28.2z M28.3,46.7h1.6l-0.8-4L28.3,46.7z M32.4,48.7v-6.3h-1.3v-0.7h3.3
			v0.7h-1.3v6.3H32.4z M36,41.8v7h-0.8v-7H36z M36.9,43.4c0-0.5,0.1-1,0.4-1.3c0.3-0.3,0.7-0.5,1.2-0.5s0.9,0.2,1.2,0.5
			c0.3,0.3,0.4,0.7,0.4,1.3V47c0,0.5-0.1,1-0.4,1.3s-0.7,0.5-1.2,0.5s-0.9-0.2-1.2-0.5c-0.3-0.3-0.4-0.7-0.4-1.3V43.4z M37.7,47.1
			c0,0.3,0.1,0.6,0.2,0.7c0.1,0.2,0.3,0.3,0.6,0.3c0.3,0,0.5-0.1,0.6-0.3s0.2-0.4,0.2-0.7v-3.7c0-0.3-0.1-0.6-0.2-0.7
			s-0.3-0.3-0.6-0.3c-0.3,0-0.5,0.1-0.6,0.3c-0.1,0.2-0.2,0.4-0.2,0.7V47.1z M41.7,48.7H41v-7h1l1.6,5v-5h0.7v7h-0.8l-1.8-5.6V48.7z
			 M46.8,41.7c0.5,0,0.9,0.2,1.2,0.5c0.3,0.3,0.4,0.7,0.4,1.3v0.2h-0.7v-0.2c0-0.3-0.1-0.6-0.2-0.7c-0.1-0.2-0.3-0.3-0.6-0.3
			s-0.5,0.1-0.6,0.3c-0.1,0.2-0.2,0.4-0.2,0.7c0,0.3,0.1,0.5,0.2,0.7c0.1,0.2,0.3,0.4,0.4,0.5c0.2,0.2,0.4,0.3,0.6,0.5
			c0.2,0.2,0.4,0.3,0.6,0.5c0.2,0.2,0.3,0.4,0.4,0.6c0.1,0.2,0.2,0.5,0.2,0.8c0,0.5-0.1,1-0.4,1.3c-0.3,0.3-0.7,0.5-1.2,0.5
			c-0.5,0-0.9-0.2-1.2-0.5c-0.3-0.3-0.4-0.7-0.4-1.3v-0.4h0.7v0.4c0,0.3,0.1,0.6,0.2,0.7c0.1,0.2,0.3,0.3,0.6,0.3
			c0.3,0,0.5-0.1,0.6-0.3c0.1-0.2,0.2-0.4,0.2-0.7c0-0.3-0.1-0.5-0.2-0.7c-0.1-0.2-0.3-0.4-0.4-0.5c-0.2-0.2-0.4-0.3-0.6-0.5
			c-0.2-0.2-0.4-0.3-0.6-0.5c-0.2-0.2-0.3-0.4-0.4-0.6c-0.1-0.2-0.2-0.5-0.2-0.8c0-0.5,0.1-1,0.4-1.3C45.9,41.8,46.3,41.7,46.8,41.7
			z M1.8,53.8v7H1v-7H1.8z M3.4,60.7H2.7v-7h1l1.6,5v-5H6v7H5.2l-1.8-5.6V60.7z M8,60.7v-6.3H6.7v-0.7h3.3v0.7H8.8v6.3H8z
			 M13.3,56.9v0.7h-1.7V60h2.1v0.7h-2.9v-7h2.9v0.7h-2.1v2.4H13.3z M16.1,53.8c0.5,0,0.9,0.1,1.2,0.4c0.2,0.3,0.4,0.7,0.4,1.2v0.6
			c0,0.4-0.1,0.7-0.2,0.9s-0.4,0.4-0.7,0.5c0.3,0.1,0.5,0.3,0.7,0.5c0.1,0.2,0.2,0.6,0.2,0.9v1.1c0,0.2,0,0.3,0,0.4
			c0,0.1,0.1,0.3,0.1,0.4H17c0-0.1-0.1-0.2-0.1-0.3s0-0.3,0-0.5v-1.1c0-0.4-0.1-0.7-0.3-0.8c-0.2-0.1-0.4-0.2-0.8-0.2h-0.5v3h-0.8
			v-7H16.1z M15.9,57.1c0.3,0,0.6-0.1,0.7-0.2c0.2-0.1,0.3-0.4,0.3-0.8v-0.7c0-0.3-0.1-0.6-0.2-0.7c-0.1-0.2-0.3-0.2-0.6-0.2h-0.8
			v2.6H15.9z M19.4,60.7h-0.7v-7h1l1.6,5v-5h0.7v7h-0.8l-1.8-5.6V60.7z M23.7,59.3l-0.3,1.4h-0.7l1.3-7h1.1l1.3,7h-0.8l-0.3-1.4
			H23.7z M23.8,58.7h1.6l-0.8-4L23.8,58.7z M28,60.7v-6.3h-1.3v-0.7H30v0.7h-1.3v6.3H28z M31.5,53.8v7h-0.8v-7H31.5z M32.4,55.5
			c0-0.5,0.1-1,0.4-1.3c0.3-0.3,0.7-0.5,1.2-0.5s0.9,0.2,1.2,0.5c0.3,0.3,0.4,0.7,0.4,1.3V59c0,0.5-0.1,1-0.4,1.3
			c-0.3,0.3-0.7,0.5-1.2,0.5s-0.9-0.2-1.2-0.5c-0.3-0.3-0.4-0.7-0.4-1.3V55.5z M33.2,59.1c0,0.3,0.1,0.6,0.2,0.7s0.3,0.3,0.6,0.3
			c0.3,0,0.5-0.1,0.6-0.3s0.2-0.4,0.2-0.7v-3.7c0-0.3-0.1-0.6-0.2-0.7s-0.3-0.3-0.6-0.3c-0.3,0-0.5,0.1-0.6,0.3s-0.2,0.4-0.2,0.7
			V59.1z M37.2,60.7h-0.7v-7h1l1.6,5v-5h0.7v7H39l-1.8-5.6V60.7z M41.6,59.3l-0.3,1.4h-0.7l1.3-7h1.1l1.3,7h-0.8l-0.3-1.4H41.6z
			 M41.7,58.7h1.6l-0.8-4L41.7,58.7z M45.2,60.7v-7H46V60h2v0.7H45.2z M51.2,56.9v0.7h-1.7V60h2.1v0.7h-2.9v-7h2.9v0.7h-2.1v2.4
			H51.2z M54,53.7c0.5,0,0.9,0.2,1.2,0.5c0.3,0.3,0.4,0.7,0.4,1.3v0.2h-0.7v-0.2c0-0.3-0.1-0.6-0.2-0.7c-0.1-0.2-0.3-0.3-0.6-0.3
			c-0.3,0-0.5,0.1-0.6,0.3c-0.1,0.2-0.2,0.4-0.2,0.7c0,0.3,0.1,0.5,0.2,0.7c0.1,0.2,0.3,0.4,0.4,0.5c0.2,0.2,0.4,0.3,0.6,0.5
			s0.4,0.3,0.6,0.5c0.2,0.2,0.3,0.4,0.4,0.6c0.1,0.2,0.2,0.5,0.2,0.8c0,0.5-0.1,1-0.4,1.3c-0.3,0.3-0.7,0.5-1.2,0.5
			c-0.5,0-0.9-0.2-1.2-0.5c-0.3-0.3-0.4-0.7-0.4-1.3v-0.4h0.7v0.4c0,0.3,0.1,0.6,0.2,0.7c0.1,0.2,0.3,0.3,0.6,0.3
			c0.3,0,0.5-0.1,0.6-0.3c0.1-0.2,0.2-0.4,0.2-0.7c0-0.3-0.1-0.5-0.2-0.7s-0.3-0.4-0.4-0.5c-0.2-0.2-0.4-0.3-0.6-0.5
			s-0.4-0.3-0.6-0.5c-0.2-0.2-0.3-0.4-0.4-0.6c-0.1-0.2-0.2-0.5-0.2-0.8c0-0.5,0.1-1,0.4-1.3C53.1,53.9,53.5,53.7,54,53.7z"/>
		<g transform="translate(97)">
			<path class="st2" d="M95.1,20.7c26.3,15.8,41,43.8,41.3,72.6"/>
			<path class="st3" d="M9.2,19.1C36.1,4.3,67.6,5.4,92.7,19.5"/>
			<path class="st4" d="M-34.7,92.1C-34,61.8-17.3,35.2,7,20.5"/>
			<path class="st2" d="M6.4,167c-26.3-15.8-41-43.8-41.3-72.6"/>
			<path class="st5" d="M92.3,169c-26.8,14.8-58.4,13.7-83.5-0.4"/>
			<path class="st6" d="M136.3,95.2c-0.8,30.3-17.4,56.9-41.7,71.5"/>
		</g>
	</g>
	<text transform="matrix(1 0 0 1 109.2823 165.0684)" class="st1 st7 st8">et plus de 33 000 visiteurs </text>
	<text transform="matrix(1 0 0 1 130.9317 179.5596)" class="st1 st7 st8">professionnels</text>
	<text transform="matrix(1 0 0 1 150.5831 31.3013)" class="st9 st10 st11">40+</text>
	<text transform="matrix(1 0 0 1 254.0943 89.6812)" class="st12 st10 st11">1 000 +</text>
	<text transform="matrix(1 0 0 1 129.0538 261.0947)" class="st13 st10 st11">8 millions</text>
	<text transform="matrix(1 0 0 1 259.4771 188.6377)" class="st14 st10 st11">9 869</text>
	<text transform="matrix(1 0 0 1 33.4093 83.0562)" class="st15 st10 st11">68</text>
	<text transform="matrix(1 0 0 1 35.8936 192.3633)" class="st12 st10 st11">22</text>
	<text transform="matrix(1 0 0 1 258.235 102.9302)" class="st1 st7 st16">EXPOSANTS</text>
	<text transform="matrix(1 0 0 1 250.2642 202.7148)" class="st1 st7 st16">RETOMBÉES PRESSE</text>
	<text transform="matrix(1 0 0 1 126.3722 276.001)" class="st1 st7 st16">de personnes touchées </text>
	<text transform="matrix(1 0 0 1 124.085 288.4219)" class="st1 st7 st16">sur les réseaux sociaux</text>
	<text transform="matrix(1 0 0 1 15.2017 206.8555)" class="st1 st7 st16">pays représentés</text>
	<text transform="matrix(1 0 0 1 130.9454 124.2905)" class="st1 st10 st11">672 568</text>
	<text transform="matrix(1 0 0 1 185.4381 124.2905)" class="st1 st10 st11"> </text>
	<text transform="matrix(1 0 0 1 125.3155 146.2349)" class="st1 st10 st11">visiteurs</text>
</g>
</svg>
