<?xml version="1.0" encoding="utf-8"?>
<!-- Generator: Adobe Illustrator 24.1.2, SVG Export Plug-In . SVG Version: 6.00 Build 0)  -->
<svg version="1.1" id="Calque_1" xmlns="http://www.w3.org/2000/svg" xmlns:xlink="http://www.w3.org/1999/xlink" x="0px" y="0px"
	 viewBox="0 0 716 659" style="enable-background:new 0 0 716 659;" xml:space="preserve">
<style type="text/css">
	.st0{filter:url(#graph-exposant-a);}
	.st1{fill-rule:evenodd;clip-rule:evenodd;}
	.st2{fill-rule:evenodd;clip-rule:evenodd;fill:#FFFFFF;}
	.st3{fill:none;stroke:#F6A924;stroke-width:18;}
	.st4{fill:none;stroke:#E30059;stroke-width:18;}
	.st5{fill:none;stroke:#009CD8;stroke-width:18;}
	.st6{fill:none;stroke:#83B81A;stroke-width:18;}
	.st7{fill:#293A4D;}
	.st8{fill:#E30059;}
	.st9{fill:#F6A924;}
	.st10{fill:#83B81A;}
	.st11{fill:#009CD8;}
	.st12{fill:#6F808C;}
	.st13{font-family:'Akrobat-SemiBold';}
	.st14{font-size:10px;}
</style>
<filter  filterUnits="objectBoundingBox" height="124.5%" id="graph-exposant-a" width="124.5%" x="-12.3%" y="-11.6%">
	<feOffset  dy="2" in="SourceAlpha" result="shadowOffsetOuter1"></feOffset>
	<feGaussianBlur  in="shadowOffsetOuter1" result="shadowBlurOuter1" stdDeviation="12"></feGaussianBlur>
	<feColorMatrix  in="shadowBlurOuter1" values="0 0 0 0 0   0 0 0 0 0   0 0 0 0 0  0 0 0 0.15271173 0"></feColorMatrix>
</filter>
<g>
	<g transform="translate(97 36)">
		<g class="st0">
			<circle id="graph-exposant-b_1_" class="st1" cx="256" cy="297" r="151"/>
		</g>
		<circle class="st2" cx="257" cy="268" r="176"/>
		<g>
			<path class="st3" d="M365.2,91.3c63.4,38.2,99,105.7,99.7,175.3"/>
			<path class="st4" d="M157.7,87.6c64.8-35.9,141-33.1,201.6,0.9"/>
			<path class="st5" d="M51.5,263.7c1.9-73.1,42-137.3,100.8-172.8"/>
			<path class="st3" d="M150.8,444.7c-63.4-38.2-99-105.7-99.7-175.3"/>
			<path class="st6" d="M358.3,449.4c-64.8,35.9-141,33.1-201.6-0.9"/>
			<path class="st5" d="M464.5,271.3c-1.9,73.1-42,137.3-100.8,172.8"/>
		</g>
	</g>
	<path class="st7" d="M284.8,293.3l4.4-29.7h5.3l-5.6,36.4h-8.5l-5.6-36.4h5.8L284.8,293.3z M297.1,263.6h5.7V300h-5.7V263.6z
		 M306.2,272.3c0-2.9,0.7-5.2,2.1-6.8c1.4-1.6,3.5-2.4,6.3-2.4s4.9,0.8,6.3,2.4c1.4,1.6,2.1,3.8,2.1,6.8v1.1h-5.4V272
		c0-1.3-0.3-2.2-0.8-2.8c-0.5-0.5-1.2-0.8-2.1-0.8s-1.6,0.3-2.1,0.8c-0.5,0.5-0.8,1.5-0.8,2.8c0,1.2,0.3,2.3,0.8,3.3
		c0.6,1,1.2,1.9,2.1,2.7c0.8,0.8,1.7,1.7,2.7,2.5s1.8,1.8,2.7,2.8c0.8,1,1.5,2.1,2.1,3.4c0.6,1.3,0.8,2.8,0.8,4.5
		c0,2.9-0.7,5.2-2.2,6.8c-1.4,1.6-3.6,2.4-6.4,2.4s-4.9-0.8-6.4-2.4c-1.4-1.6-2.2-3.8-2.2-6.8V289h5.4v2.6c0,1.3,0.3,2.2,0.8,2.8
		c0.5,0.5,1.3,0.8,2.2,0.8s1.6-0.3,2.2-0.8c0.5-0.5,0.8-1.4,0.8-2.8c0-1.2-0.3-2.3-0.8-3.3c-0.6-1-1.2-1.9-2.1-2.7s-1.7-1.7-2.7-2.5
		s-1.8-1.8-2.7-2.8c-0.8-1-1.5-2.1-2.1-3.4C306.5,275.6,306.2,274.1,306.2,272.3z M326.4,263.6h5.7V300h-5.7V263.6z M334.6,263.6
		h17.7v5.2h-6V300h-5.7v-31.2h-6V263.6z M360.5,278.9h7.9v5.2h-7.9v10.7h9.9v5.2h-15.6v-36.4h15.6v5.2h-9.9V278.9z M379.4,263.6
		v28.1c0,1.3,0.3,2.2,0.8,2.8c0.5,0.5,1.3,0.8,2.2,0.8c0.9,0,1.6-0.3,2.2-0.8c0.5-0.5,0.8-1.4,0.8-2.8v-28.1h5.4v27.7
		c0,2.9-0.7,5.2-2.2,6.8c-1.4,1.6-3.6,2.4-6.4,2.4s-4.9-0.8-6.4-2.4c-1.4-1.6-2.2-3.8-2.2-6.8v-27.7H379.4z M406.6,300
		c-0.1-0.2-0.1-0.5-0.2-0.7s-0.1-0.5-0.2-0.8c-0.1-0.3-0.1-0.7-0.1-1.2c0-0.5,0-1.1,0-1.8v-5.7c0-1.7-0.3-2.9-0.9-3.6
		c-0.6-0.7-1.5-1-2.9-1h-2V300h-5.7v-36.4h8.6c3,0,5.1,0.7,6.5,2.1c1.3,1.4,2,3.5,2,6.3v2.9c0,3.7-1.2,6.2-3.7,7.4
		c1.5,0.6,2.5,1.6,3,2.9c0.5,1.3,0.8,3,0.8,4.9v5.6c0,0.9,0,1.7,0.1,2.4c0.1,0.7,0.2,1.4,0.5,2.1H406.6z M400.4,268.8V280h2.2
		c1.1,0,1.9-0.3,2.5-0.8c0.6-0.6,0.9-1.6,0.9-3v-3.6c0-1.3-0.2-2.3-0.7-2.9c-0.5-0.6-1.2-0.9-2.2-0.9H400.4z M414.8,272.3
		c0-2.9,0.7-5.2,2.1-6.8c1.4-1.6,3.5-2.4,6.3-2.4s4.9,0.8,6.3,2.4c1.4,1.6,2.1,3.8,2.1,6.8v1.1h-5.4V272c0-1.3-0.3-2.2-0.8-2.8
		c-0.5-0.5-1.2-0.8-2.1-0.8s-1.6,0.3-2.1,0.8c-0.5,0.5-0.8,1.5-0.8,2.8c0,1.2,0.3,2.3,0.8,3.3c0.6,1,1.2,1.9,2.1,2.7
		s1.7,1.7,2.7,2.5s1.8,1.8,2.7,2.8c0.8,1,1.5,2.1,2.1,3.4c0.6,1.3,0.8,2.8,0.8,4.5c0,2.9-0.7,5.2-2.2,6.8c-1.4,1.6-3.6,2.4-6.4,2.4
		s-4.9-0.8-6.4-2.4c-1.4-1.6-2.2-3.8-2.2-6.8V289h5.4v2.6c0,1.3,0.3,2.2,0.8,2.8c0.5,0.5,1.3,0.8,2.2,0.8s1.6-0.3,2.2-0.8
		c0.5-0.5,0.8-1.4,0.8-2.8c0-1.2-0.3-2.3-0.8-3.3c-0.6-1-1.2-1.9-2.1-2.7s-1.7-1.7-2.7-2.5s-1.8-1.8-2.7-2.8s-1.5-2.1-2.1-3.4
		C415.1,275.6,414.8,274.1,414.8,272.3z"/>
	<g>
		<path class="st7" d="M280.2,53.2l2.7,14.6l2.7-14.6h1.7L284.2,70h-2.8l-3.2-16.8H280.2z M291.2,53.2V70h-1.9V53.2H291.2z
			 M297.1,53c1.3,0,2.2,0.4,2.8,1.1c0.6,0.8,0.9,1.8,0.9,3.1v0.5h-1.8v-0.6c0-0.8-0.2-1.4-0.5-1.8c-0.3-0.4-0.8-0.6-1.5-0.6
			s-1.2,0.2-1.5,0.6c-0.3,0.4-0.5,1-0.5,1.8c0,0.6,0.1,1.2,0.4,1.6s0.6,0.9,1,1.3c0.4,0.4,0.9,0.8,1.4,1.2c0.5,0.4,0.9,0.8,1.4,1.2
			c0.4,0.4,0.8,1,1,1.5c0.3,0.6,0.4,1.2,0.4,2c0,1.3-0.3,2.3-0.9,3.1s-1.6,1.1-2.9,1.1c-1.3,0-2.2-0.4-2.9-1.1s-0.9-1.8-0.9-3.1v-1
			h1.8v1.1c0,0.8,0.2,1.4,0.5,1.8c0.3,0.4,0.8,0.6,1.5,0.6c0.7,0,1.2-0.2,1.5-0.6c0.3-0.4,0.5-1,0.5-1.8c0-0.6-0.1-1.2-0.4-1.6
			s-0.6-0.9-1-1.3c-0.4-0.4-0.9-0.8-1.3-1.2c-0.5-0.4-0.9-0.8-1.3-1.2c-0.4-0.4-0.8-1-1-1.5c-0.3-0.6-0.4-1.2-0.4-2
			c0-1.3,0.3-2.3,0.9-3.1S295.8,53,297.1,53z M304.9,53.2V70H303V53.2H304.9z M309.7,70V54.9h-3.1v-1.7h8v1.7h-3.1V70H309.7z
			 M322.4,60.6v1.7h-4.1v6h5V70h-6.9V53.2h6.9v1.7h-5v5.7H322.4z M329,53c1.3,0,2.2,0.4,2.8,1.1c0.6,0.8,0.9,1.8,0.9,3.1v0.5H331
			v-0.6c0-0.8-0.2-1.4-0.5-1.8c-0.3-0.4-0.8-0.6-1.5-0.6s-1.2,0.2-1.5,0.6c-0.3,0.4-0.5,1-0.5,1.8c0,0.6,0.1,1.2,0.4,1.6
			s0.6,0.9,1,1.3c0.4,0.4,0.9,0.8,1.4,1.2c0.5,0.4,0.9,0.8,1.4,1.2c0.4,0.4,0.8,1,1,1.5c0.3,0.6,0.4,1.2,0.4,2
			c0,1.3-0.3,2.3-0.9,3.1c-0.6,0.8-1.6,1.1-2.9,1.1s-2.2-0.4-2.9-1.1s-0.9-1.8-0.9-3.1v-1h1.8v1.1c0,0.8,0.2,1.4,0.5,1.8
			c0.3,0.4,0.8,0.6,1.5,0.6s1.2-0.2,1.5-0.6c0.3-0.4,0.5-1,0.5-1.8c0-0.6-0.1-1.2-0.4-1.6s-0.6-0.9-1-1.3c-0.4-0.4-0.9-0.8-1.3-1.2
			s-0.9-0.8-1.3-1.2c-0.4-0.4-0.8-1-1-1.5c-0.3-0.6-0.4-1.2-0.4-2c0-1.3,0.3-2.3,0.9-3.1S327.8,53,329,53z M339,57.3
			c0-1.3,0.3-2.3,0.9-3.1c0.6-0.8,1.6-1.1,2.9-1.1c1.3,0,2.3,0.4,2.9,1.1c0.6,0.8,1,1.8,1,3.1v8.7c0,1.3-0.3,2.3-1,3.1
			c-0.6,0.8-1.6,1.2-2.9,1.2c-1.3,0-2.3-0.4-2.9-1.2c-0.6-0.8-0.9-1.8-0.9-3.1V57.3z M340.8,66c0,0.8,0.2,1.4,0.5,1.8
			c0.3,0.4,0.8,0.6,1.5,0.6c0.7,0,1.2-0.2,1.5-0.6c0.3-0.4,0.5-1,0.5-1.8v-8.9c0-0.8-0.2-1.4-0.5-1.8c-0.3-0.4-0.8-0.6-1.5-0.6
			c-0.7,0-1.2,0.2-1.5,0.6c-0.3,0.4-0.5,1-0.5,1.8V66z M354.7,61v1.7h-3.9V70h-1.9V53.2h6.7v1.7h-4.8V61H354.7z M363.3,61v1.7h-3.9
			V70h-1.9V53.2h6.7v1.7h-4.8V61H363.3z M368.1,53.2V70h-1.9V53.2H368.1z M374.1,53c1.3,0,2.3,0.4,2.9,1.2c0.6,0.8,0.9,1.8,0.9,3.1
			v1.5h-1.8v-1.6c0-0.8-0.2-1.4-0.5-1.8c-0.3-0.4-0.8-0.6-1.5-0.6c-0.7,0-1.2,0.2-1.5,0.6c-0.3,0.4-0.5,1-0.5,1.8V66
			c0,0.8,0.2,1.4,0.5,1.8c0.3,0.4,0.8,0.6,1.5,0.6c0.7,0,1.2-0.2,1.5-0.6c0.3-0.4,0.5-1,0.5-1.8v-2.2h1.8v2.1c0,1.3-0.3,2.3-0.9,3.1
			c-0.6,0.8-1.6,1.2-2.9,1.2c-1.3,0-2.2-0.4-2.8-1.2c-0.6-0.8-0.9-1.8-0.9-3.1v-8.7c0-0.6,0.1-1.2,0.2-1.7c0.2-0.5,0.4-1,0.7-1.3
			c0.3-0.4,0.7-0.7,1.2-0.9C372.9,53.1,373.5,53,374.1,53z M381.9,53.2V70h-1.9V53.2H381.9z M390.3,60.6v1.7h-4.1v6h5V70h-6.9V53.2
			h6.9v1.7h-5v5.7H390.3z M393.5,70V53.2h1.9v15.1h4.8V70H393.5z M402,70V53.2h1.9v15.1h4.8V70H402z M416.6,60.6v1.7h-4.1v6h5V70
			h-6.9V53.2h6.9v1.7h-5v5.7H416.6z M423.2,53c1.3,0,2.2,0.4,2.8,1.1c0.6,0.8,0.9,1.8,0.9,3.1v0.5h-1.8v-0.6c0-0.8-0.2-1.4-0.5-1.8
			c-0.3-0.4-0.8-0.6-1.5-0.6c-0.7,0-1.2,0.2-1.5,0.6c-0.3,0.4-0.5,1-0.5,1.8c0,0.6,0.1,1.2,0.4,1.6s0.6,0.9,1,1.3
			c0.4,0.4,0.9,0.8,1.4,1.2c0.5,0.4,0.9,0.8,1.4,1.2s0.8,1,1,1.5c0.3,0.6,0.4,1.2,0.4,2c0,1.3-0.3,2.3-0.9,3.1s-1.6,1.1-2.9,1.1
			c-1.3,0-2.2-0.4-2.9-1.1s-0.9-1.8-0.9-3.1v-1h1.8v1.1c0,0.8,0.2,1.4,0.5,1.8c0.3,0.4,0.8,0.6,1.5,0.6s1.2-0.2,1.5-0.6
			c0.3-0.4,0.5-1,0.5-1.8c0-0.6-0.1-1.2-0.4-1.6s-0.6-0.9-1-1.3c-0.4-0.4-0.9-0.8-1.3-1.2s-0.9-0.8-1.3-1.2c-0.4-0.4-0.8-1-1-1.5
			c-0.3-0.6-0.4-1.2-0.4-2c0-1.3,0.3-2.3,0.9-3.1S422,53,423.2,53z M21.9,178.2c1.3,0,2.3,0.4,2.9,1.1c0.6,0.7,0.9,1.8,0.9,3.1v8.5
			c0,1.3-0.3,2.3-0.9,3s-1.6,1.1-2.9,1.1h-3.9v-16.8H21.9z M21.8,193.3c0.7,0,1.2-0.2,1.5-0.6c0.3-0.4,0.5-1,0.5-1.8v-8.6
			c0-0.8-0.2-1.4-0.5-1.8c-0.3-0.4-0.8-0.6-1.5-0.6h-2v13.4H21.8z M33.8,174.8l-2.2,2.5h-1.3l1.7-2.5H33.8z M33.9,185.6v1.7h-4.1v6
			h5v1.7h-6.9v-16.8h6.9v1.7h-5v5.7H33.9z M37,195v-16.8h1.9v15.1h4.8v1.7H37z M51.4,174.8l-2.2,2.5h-1.3l1.7-2.5H51.4z M51.6,185.6
			v1.7h-4.1v6h5v1.7h-6.9v-16.8h6.9v1.7h-5v5.7H51.6z M58.4,178c1.3,0,2.3,0.4,2.9,1.2c0.6,0.8,0.9,1.8,0.9,3.1v1.4h-1.8v-1.5
			c0-0.8-0.2-1.4-0.5-1.8c-0.3-0.4-0.8-0.6-1.5-0.6c-0.7,0-1.2,0.2-1.5,0.6c-0.3,0.4-0.5,1-0.5,1.8v8.9c0,0.8,0.2,1.4,0.5,1.8
			c0.3,0.4,0.8,0.6,1.5,0.6c0.7,0,1.2-0.2,1.5-0.6c0.3-0.4,0.5-1,0.5-1.8v-3.4h-1.7V186h3.5v4.9c0,1.3-0.3,2.3-0.9,3.1
			c-0.6,0.8-1.6,1.2-2.9,1.2c-1.3,0-2.2-0.4-2.8-1.2c-0.6-0.8-0.9-1.8-0.9-3.1v-8.7c0-0.6,0.1-1.2,0.2-1.7c0.2-0.5,0.4-1,0.7-1.3
			c0.3-0.4,0.7-0.7,1.2-0.9C57.2,178.1,57.7,178,58.4,178z M66.3,191.6l-0.6,3.4h-1.7l3.2-16.8h2.7L73,195h-1.9l-0.6-3.4H66.3z
			 M66.5,190h3.7l-1.9-9.7L66.5,190z M76.5,195v-15.1h-3.1v-1.7h8v1.7h-3.1V195H76.5z M85.1,178.2V195h-1.9v-16.8H85.1z M87.3,182.3
			c0-1.3,0.3-2.3,0.9-3.1s1.6-1.1,2.9-1.1c1.3,0,2.3,0.4,2.9,1.1c0.6,0.8,1,1.8,1,3.1v8.7c0,1.3-0.3,2.3-1,3.1
			c-0.6,0.8-1.6,1.2-2.9,1.2c-1.3,0-2.3-0.4-2.9-1.2c-0.6-0.8-0.9-1.8-0.9-3.1V182.3z M89.2,191c0,0.8,0.2,1.4,0.5,1.8
			c0.3,0.4,0.8,0.6,1.5,0.6c0.7,0,1.2-0.2,1.5-0.6c0.3-0.4,0.5-1,0.5-1.8v-8.9c0-0.8-0.2-1.4-0.5-1.8c-0.3-0.4-0.8-0.6-1.5-0.6
			c-0.7,0-1.2,0.2-1.5,0.6c-0.3,0.4-0.5,1-0.5,1.8V191z M98.9,195h-1.7v-16.8h2.4l3.9,12.1v-12.1h1.7V195h-1.9l-4.3-13.6V195z
			 M111.1,178c1.3,0,2.2,0.4,2.8,1.1c0.6,0.8,0.9,1.8,0.9,3.1v0.5h-1.8v-0.6c0-0.8-0.2-1.4-0.5-1.8c-0.3-0.4-0.8-0.6-1.5-0.6
			s-1.2,0.2-1.5,0.6s-0.5,1-0.5,1.8c0,0.6,0.1,1.2,0.4,1.6s0.6,0.9,1,1.3s0.9,0.8,1.4,1.2c0.5,0.4,0.9,0.8,1.4,1.2
			c0.4,0.4,0.8,1,1,1.5c0.3,0.6,0.4,1.2,0.4,2c0,1.3-0.3,2.3-0.9,3.1c-0.6,0.8-1.6,1.1-2.9,1.1s-2.2-0.4-2.9-1.1s-0.9-1.8-0.9-3.1
			v-1h1.8v1.1c0,0.8,0.2,1.4,0.5,1.8s0.8,0.6,1.5,0.6c0.7,0,1.2-0.2,1.5-0.6c0.3-0.4,0.5-1,0.5-1.8c0-0.6-0.1-1.2-0.4-1.6
			c-0.3-0.5-0.6-0.9-1-1.3s-0.9-0.8-1.3-1.2c-0.5-0.4-0.9-0.8-1.3-1.2s-0.8-1-1-1.5c-0.3-0.6-0.4-1.2-0.4-2c0-1.3,0.3-2.3,0.9-3.1
			C108.9,178.4,109.8,178,111.1,178z M2.4,207.2V224H0.5v-16.8H2.4z M6.4,224H4.7v-16.8h2.4l3.9,12.1v-12.1h1.7V224h-1.9l-4.3-13.6
			V224z M17.5,224v-15.1h-3.1v-1.7h8v1.7h-3.1V224H17.5z M30.2,214.6v1.7H26v6h5v1.7h-6.9v-16.8h6.9v1.7h-5v5.7H30.2z M37,207.2
			c1.3,0,2.3,0.3,2.9,1c0.6,0.7,0.9,1.6,0.9,2.9v1.4c0,0.9-0.2,1.7-0.5,2.3s-0.9,1-1.6,1.2c0.8,0.2,1.3,0.6,1.6,1.2
			c0.3,0.6,0.5,1.4,0.5,2.3v2.6c0,0.4,0,0.7,0,1.1c0,0.3,0.1,0.7,0.3,0.9h-1.9c-0.1-0.2-0.2-0.5-0.2-0.8s-0.1-0.7-0.1-1.3v-2.6
			c0-0.9-0.2-1.6-0.6-2s-1-0.5-1.8-0.5h-1.3v7.2h-1.9v-16.8H37z M36.6,215.1c0.8,0,1.3-0.2,1.8-0.5c0.4-0.3,0.6-0.9,0.6-1.8v-1.6
			c0-0.8-0.1-1.3-0.4-1.7s-0.8-0.6-1.5-0.6h-1.8v6.2H36.6z M44.9,224h-1.7v-16.8h2.4l3.9,12.1v-12.1h1.7V224h-1.9l-4.3-13.6V224z
			 M55.4,220.6l-0.6,3.4H53l3.2-16.8H59l3.2,16.8h-1.9l-0.6-3.4H55.4z M55.7,219h3.7l-1.9-9.7L55.7,219z M65.6,224v-15.1h-3.1v-1.7
			h8v1.7h-3.1V224H65.6z M74.2,207.2V224h-1.9v-16.8H74.2z M76.5,211.3c0-1.3,0.3-2.3,0.9-3.1c0.6-0.8,1.6-1.1,2.9-1.1
			c1.3,0,2.3,0.4,2.9,1.1c0.6,0.8,1,1.8,1,3.1v8.7c0,1.3-0.3,2.3-1,3.1c-0.6,0.8-1.6,1.2-2.9,1.2c-1.3,0-2.3-0.4-2.9-1.2
			c-0.6-0.8-0.9-1.8-0.9-3.1V211.3z M78.3,220c0,0.8,0.2,1.4,0.5,1.8c0.3,0.4,0.8,0.6,1.5,0.6c0.7,0,1.2-0.2,1.5-0.6
			c0.3-0.4,0.5-1,0.5-1.8v-8.9c0-0.8-0.2-1.4-0.5-1.8c-0.3-0.4-0.8-0.6-1.5-0.6c-0.7,0-1.2,0.2-1.5,0.6c-0.3,0.4-0.5,1-0.5,1.8V220z
			 M88.1,224h-1.7v-16.8h2.4l3.9,12.1v-12.1h1.7V224h-1.9l-4.3-13.6V224z M98.6,220.6L98,224h-1.7l3.2-16.8h2.7l3.2,16.8h-1.9
			l-0.6-3.4H98.6z M98.9,219h3.7l-1.9-9.7L98.9,219z M107.3,224v-16.8h1.9v15.1h4.8v1.7H107.3z M121.9,214.6v1.7h-4.1v6h5v1.7h-6.9
			v-16.8h6.9v1.7h-5v5.7H121.9z M128.6,207c1.3,0,2.2,0.4,2.8,1.1c0.6,0.8,0.9,1.8,0.9,3.1v0.5h-1.8v-0.6c0-0.8-0.2-1.4-0.5-1.8
			s-0.8-0.6-1.5-0.6c-0.7,0-1.2,0.2-1.5,0.6s-0.5,1-0.5,1.8c0,0.6,0.1,1.2,0.4,1.6c0.3,0.5,0.6,0.9,1,1.3s0.9,0.8,1.4,1.2
			c0.5,0.4,0.9,0.8,1.4,1.2s0.8,1,1,1.5c0.3,0.6,0.4,1.2,0.4,2c0,1.3-0.3,2.3-0.9,3.1c-0.6,0.8-1.6,1.1-2.9,1.1s-2.2-0.4-2.9-1.1
			c-0.6-0.8-0.9-1.8-0.9-3.1v-1h1.8v1.1c0,0.8,0.2,1.4,0.5,1.8c0.3,0.4,0.8,0.6,1.5,0.6c0.7,0,1.2-0.2,1.5-0.6
			c0.3-0.4,0.5-1,0.5-1.8c0-0.6-0.1-1.2-0.4-1.6s-0.6-0.9-1-1.3c-0.4-0.4-0.9-0.8-1.3-1.2c-0.5-0.4-0.9-0.8-1.3-1.2
			c-0.4-0.4-0.8-1-1-1.5c-0.3-0.6-0.4-1.2-0.4-2c0-1.3,0.3-2.3,0.9-3.1C126.4,207.4,127.3,207,128.6,207z"/>
		<path class="st7" d="M258.9,327.7c1.6,0,2.8,0.4,3.5,1.3c0.7,0.9,1.1,2.1,1.1,3.7V343c0,1.6-0.4,2.8-1.1,3.7
			c-0.7,0.9-1.9,1.3-3.5,1.3h-4.8v-20.3H258.9z M258.8,345.9c0.8,0,1.4-0.2,1.8-0.7c0.4-0.5,0.6-1.2,0.6-2.1v-10.4
			c0-0.9-0.2-1.6-0.6-2.1s-1-0.7-1.8-0.7h-2.4v16.2H258.8z M265.4,332.6c0-1.6,0.4-2.8,1.1-3.7s1.9-1.4,3.5-1.4s2.7,0.5,3.5,1.4
			s1.2,2.2,1.2,3.7v10.5c0,1.5-0.4,2.8-1.2,3.7s-1.9,1.4-3.5,1.4s-2.7-0.5-3.5-1.4s-1.1-2.2-1.1-3.7V332.6z M267.6,343.2
			c0,0.9,0.2,1.6,0.6,2.2c0.4,0.5,1,0.8,1.8,0.8c0.8,0,1.4-0.3,1.8-0.8c0.4-0.5,0.6-1.2,0.6-2.2v-10.7c0-0.9-0.2-1.6-0.6-2.2
			s-1-0.8-1.8-0.8c-0.8,0-1.4,0.3-1.8,0.8s-0.6,1.2-0.6,2.2V343.2z M278.9,348h-2v-20.3h2.9l4.7,14.7v-14.7h2V348h-2.3l-5.2-16.4
			V348z M291.7,348v-18.2h-3.7v-2.1h9.7v2.1h-3.7V348H291.7z M308.1,327.5c1.6,0,2.7,0.5,3.5,1.4c0.7,0.9,1.1,2.2,1.1,3.7v0.5
			c0,1-0.2,1.9-0.6,2.6s-1,1.2-1.8,1.5c0.9,0.3,1.5,0.9,1.9,1.6c0.4,0.7,0.6,1.6,0.6,2.6v1.6c0,1.6-0.4,2.8-1.1,3.7
			c-0.7,0.9-1.9,1.4-3.5,1.4c-1.5,0-2.7-0.5-3.4-1.4c-0.7-0.9-1.1-2.2-1.1-3.7v-1.4h2.1v1.5c0,0.9,0.2,1.6,0.6,2.2
			c0.4,0.5,1,0.8,1.8,0.8c0.8,0,1.4-0.3,1.8-0.8c0.4-0.5,0.6-1.3,0.6-2.3v-1.6c0-2-0.9-3-2.6-3h-1.2v-2h1.3c0.8,0,1.3-0.3,1.8-0.8
			c0.4-0.5,0.7-1.1,0.7-2v-0.9c0-1-0.2-1.8-0.6-2.4c-0.4-0.5-1-0.8-1.8-0.8c-0.8,0-1.4,0.3-1.8,0.8c-0.4,0.5-0.6,1.2-0.6,2.2v1h-2.1
			v-0.9c0-1.6,0.4-2.8,1.1-3.7C305.4,328,306.5,327.5,308.1,327.5z M319.2,327.5c1.6,0,2.7,0.5,3.5,1.4c0.7,0.9,1.1,2.2,1.1,3.7v0.5
			c0,1-0.2,1.9-0.6,2.6s-1,1.2-1.8,1.5c0.9,0.3,1.5,0.9,1.9,1.6c0.4,0.7,0.6,1.6,0.6,2.6v1.6c0,1.6-0.4,2.8-1.1,3.7
			c-0.7,0.9-1.9,1.4-3.5,1.4c-1.5,0-2.7-0.5-3.4-1.4c-0.7-0.9-1.1-2.2-1.1-3.7v-1.4h2.1v1.5c0,0.9,0.2,1.6,0.6,2.2
			c0.4,0.5,1,0.8,1.8,0.8c0.8,0,1.4-0.3,1.8-0.8c0.4-0.5,0.6-1.3,0.6-2.3v-1.6c0-2-0.9-3-2.6-3h-1.2v-2h1.3c0.8,0,1.3-0.3,1.8-0.8
			c0.4-0.5,0.7-1.1,0.7-2v-0.9c0-1-0.2-1.8-0.6-2.4c-0.4-0.5-1-0.8-1.8-0.8c-0.8,0-1.4,0.3-1.8,0.8c-0.4,0.5-0.6,1.2-0.6,2.2v1h-2.1
			v-0.9c0-1.6,0.4-2.8,1.1-3.7C316.5,328,317.6,327.5,319.2,327.5z M370.5,327.7l3.3,17.7l3.3-17.7h2.1l-3.8,20.3h-3.3l-3.8-20.3
			H370.5z M383.2,327.7V348h-2.3v-20.3H383.2z M389.8,327.5c1.5,0,2.7,0.5,3.4,1.4c0.7,0.9,1.1,2.2,1.1,3.7v0.6h-2.1v-0.7
			c0-0.9-0.2-1.6-0.6-2.1c-0.4-0.5-1-0.8-1.8-0.8s-1.4,0.3-1.8,0.8c-0.4,0.5-0.6,1.2-0.6,2.1c0,0.8,0.2,1.4,0.5,2
			c0.3,0.6,0.8,1.1,1.3,1.6c0.5,0.5,1,0.9,1.6,1.4c0.6,0.5,1.1,1,1.6,1.5c0.5,0.5,0.9,1.2,1.3,1.8s0.5,1.5,0.5,2.5
			c0,1.5-0.4,2.8-1.1,3.7s-1.9,1.4-3.5,1.4s-2.7-0.5-3.5-1.4s-1.1-2.2-1.1-3.7V342h2.1v1.3c0,0.9,0.2,1.6,0.6,2.1
			c0.4,0.5,1,0.8,1.8,0.8s1.4-0.3,1.8-0.8c0.4-0.5,0.6-1.2,0.6-2.1c0-0.8-0.2-1.4-0.5-2s-0.8-1.1-1.3-1.5c-0.5-0.5-1-0.9-1.6-1.4
			c-0.6-0.5-1.1-1-1.6-1.5c-0.5-0.5-0.9-1.2-1.3-1.8c-0.3-0.7-0.5-1.5-0.5-2.5c0-1.6,0.4-2.8,1.1-3.7
			C387.1,328,388.3,327.5,389.8,327.5z M398.6,327.7V348h-2.3v-20.3H398.6z M403.8,348v-18.2h-3.7v-2.1h9.7v2.1h-3.7V348H403.8z
			 M418.6,336.7v2h-5v7.2h6.1v2.1h-8.4v-20.3h8.4v2.1h-6.1v6.9H418.6z M423.9,343.2c0,0.9,0.2,1.6,0.6,2.2c0.4,0.5,1,0.8,1.8,0.8
			c0.8,0,1.4-0.3,1.8-0.8c0.4-0.5,0.6-1.2,0.6-2.2v-15.5h2.1v15.4c0,1.5-0.4,2.8-1.1,3.7s-1.9,1.4-3.5,1.4c-1.5,0-2.7-0.5-3.4-1.4
			c-0.7-0.9-1.1-2.2-1.1-3.7v-15.4h2.2V343.2z M437.5,327.7c1.6,0,2.8,0.4,3.5,1.2c0.7,0.8,1.1,1.9,1.1,3.5v1.7c0,1.1-0.2,2-0.6,2.7
			c-0.4,0.7-1,1.2-1.9,1.5c0.9,0.3,1.6,0.8,2,1.5s0.6,1.6,0.6,2.7v3.2c0,0.4,0,0.9,0.1,1.3c0,0.4,0.2,0.8,0.3,1.1h-2.3
			c-0.1-0.3-0.2-0.6-0.3-0.9c-0.1-0.3-0.1-0.8-0.1-1.5v-3.2c0-1.1-0.3-1.9-0.8-2.4s-1.2-0.7-2.2-0.7h-1.6v8.7H433v-20.3H437.5z
			 M436.9,337.3c0.9,0,1.6-0.2,2.1-0.6s0.8-1.1,0.8-2.2v-1.9c0-0.9-0.2-1.6-0.5-2.1c-0.4-0.5-1-0.7-1.8-0.7h-2.2v7.5H436.9z
			 M448.7,327.5c1.5,0,2.7,0.5,3.4,1.4c0.7,0.9,1.1,2.2,1.1,3.7v0.6h-2.1v-0.7c0-0.9-0.2-1.6-0.6-2.1c-0.4-0.5-1-0.8-1.8-0.8
			s-1.4,0.3-1.8,0.8c-0.4,0.5-0.6,1.2-0.6,2.1c0,0.8,0.2,1.4,0.5,2s0.8,1.1,1.3,1.6s1,0.9,1.6,1.4c0.6,0.5,1.1,1,1.6,1.5
			c0.5,0.5,0.9,1.2,1.3,1.8c0.3,0.7,0.5,1.5,0.5,2.5c0,1.5-0.4,2.8-1.1,3.7c-0.7,0.9-1.9,1.4-3.5,1.4s-2.7-0.5-3.5-1.4
			c-0.7-0.9-1.1-2.2-1.1-3.7V342h2.1v1.3c0,0.9,0.2,1.6,0.6,2.1c0.4,0.5,1,0.8,1.8,0.8c0.8,0,1.4-0.3,1.8-0.8
			c0.4-0.5,0.6-1.2,0.6-2.1c0-0.8-0.2-1.4-0.5-2s-0.8-1.1-1.3-1.5c-0.5-0.5-1-0.9-1.6-1.4c-0.6-0.5-1.1-1-1.6-1.5
			c-0.5-0.5-0.9-1.2-1.3-1.8s-0.5-1.5-0.5-2.5c0-1.6,0.4-2.8,1.1-3.7C446,328,447.2,327.5,448.7,327.5z M286.1,362.7
			c1.6,0,2.8,0.4,3.5,1.3s1.1,2.1,1.1,3.6v2.4c0,1.6-0.4,2.8-1.1,3.7c-0.8,0.8-2,1.2-3.6,1.2h-2v8h-2.3v-20.3H286.1z M286,373
			c0.9,0,1.5-0.2,1.9-0.6s0.6-1.1,0.6-2.1v-2.7c0-0.9-0.2-1.6-0.5-2.1c-0.4-0.5-1-0.7-1.8-0.7H284v8.2H286z M297,362.7
			c1.6,0,2.8,0.4,3.5,1.2c0.7,0.8,1.1,1.9,1.1,3.5v1.7c0,1.1-0.2,2-0.6,2.7c-0.4,0.7-1,1.2-1.9,1.5c0.9,0.3,1.6,0.8,2,1.5
			c0.4,0.7,0.6,1.6,0.6,2.7v3.2c0,0.4,0,0.9,0.1,1.3c0,0.4,0.2,0.8,0.3,1.1h-2.3c-0.1-0.3-0.2-0.6-0.3-0.9c-0.1-0.3-0.1-0.8-0.1-1.5
			v-3.2c0-1.1-0.3-1.9-0.8-2.4s-1.2-0.7-2.2-0.7h-1.6v8.7h-2.3v-20.3H297z M296.4,372.3c0.9,0,1.6-0.2,2.1-0.6
			c0.5-0.4,0.8-1.1,0.8-2.2v-1.9c0-0.9-0.2-1.6-0.5-2.1c-0.4-0.5-1-0.7-1.8-0.7h-2.2v7.5H296.4z M303.7,367.6c0-1.6,0.4-2.8,1.1-3.7
			s1.9-1.4,3.5-1.4c1.6,0,2.7,0.5,3.5,1.4c0.8,0.9,1.2,2.2,1.2,3.7v10.5c0,1.5-0.4,2.8-1.2,3.7c-0.8,0.9-1.9,1.4-3.5,1.4
			c-1.6,0-2.7-0.5-3.5-1.4s-1.1-2.2-1.1-3.7V367.6z M305.9,378.2c0,0.9,0.2,1.6,0.6,2.2c0.4,0.5,1,0.8,1.8,0.8
			c0.8,0,1.4-0.3,1.8-0.8c0.4-0.5,0.6-1.2,0.6-2.2v-10.7c0-0.9-0.2-1.6-0.6-2.2c-0.4-0.5-1-0.8-1.8-0.8c-0.8,0-1.4,0.3-1.8,0.8
			c-0.4,0.5-0.6,1.2-0.6,2.2V378.2z M322.1,372.2v2.1h-4.7v8.8h-2.3v-20.3h8.1v2.1h-5.8v7.4H322.1z M332.2,371.7v2h-5v7.2h6.1v2.1
			H325v-20.3h8.4v2.1h-6.1v6.9H332.2z M339.7,362.5c1.5,0,2.7,0.5,3.4,1.4c0.7,0.9,1.1,2.2,1.1,3.7v0.6h-2.1v-0.7
			c0-0.9-0.2-1.6-0.6-2.1c-0.4-0.5-1-0.8-1.8-0.8c-0.8,0-1.4,0.3-1.8,0.8c-0.4,0.5-0.6,1.2-0.6,2.1c0,0.8,0.2,1.4,0.5,2
			c0.3,0.6,0.8,1.1,1.3,1.6c0.5,0.5,1,0.9,1.6,1.4c0.6,0.5,1.1,1,1.6,1.5s0.9,1.2,1.3,1.8c0.3,0.7,0.5,1.5,0.5,2.5
			c0,1.5-0.4,2.8-1.1,3.7s-1.9,1.4-3.5,1.4c-1.6,0-2.7-0.5-3.5-1.4s-1.1-2.2-1.1-3.7V377h2.1v1.3c0,0.9,0.2,1.6,0.6,2.1
			c0.4,0.5,1,0.8,1.8,0.8s1.4-0.3,1.8-0.8c0.4-0.5,0.6-1.2,0.6-2.1c0-0.8-0.2-1.4-0.5-2c-0.3-0.6-0.8-1.1-1.3-1.5
			c-0.5-0.5-1-0.9-1.6-1.4c-0.6-0.5-1.1-1-1.6-1.5c-0.5-0.5-0.9-1.2-1.3-1.8c-0.3-0.7-0.5-1.5-0.5-2.5c0-1.6,0.4-2.8,1.1-3.7
			C337.1,363,338.2,362.5,339.7,362.5z M350.5,362.5c1.5,0,2.7,0.5,3.4,1.4s1.1,2.2,1.1,3.7v0.6h-2.1v-0.7c0-0.9-0.2-1.6-0.6-2.1
			c-0.4-0.5-1-0.8-1.8-0.8c-0.8,0-1.4,0.3-1.8,0.8c-0.4,0.5-0.6,1.2-0.6,2.1c0,0.8,0.2,1.4,0.5,2c0.3,0.6,0.8,1.1,1.3,1.6
			c0.5,0.5,1,0.9,1.6,1.4s1.1,1,1.6,1.5c0.5,0.5,0.9,1.2,1.3,1.8s0.5,1.5,0.5,2.5c0,1.5-0.4,2.8-1.1,3.7c-0.7,0.9-1.9,1.4-3.5,1.4
			s-2.7-0.5-3.5-1.4c-0.7-0.9-1.1-2.2-1.1-3.7V377h2.1v1.3c0,0.9,0.2,1.6,0.6,2.1c0.4,0.5,1,0.8,1.8,0.8c0.8,0,1.4-0.3,1.8-0.8
			c0.4-0.5,0.6-1.2,0.6-2.1c0-0.8-0.2-1.4-0.5-2c-0.3-0.6-0.8-1.1-1.3-1.5c-0.5-0.5-1-0.9-1.6-1.4c-0.6-0.5-1.1-1-1.6-1.5
			c-0.5-0.5-0.9-1.2-1.3-1.8c-0.3-0.7-0.5-1.5-0.5-2.5c0-1.6,0.4-2.8,1.1-3.7C347.9,363,349,362.5,350.5,362.5z M359.3,362.7V383
			H357v-20.3H359.3z M361.4,367.6c0-1.6,0.4-2.8,1.1-3.7s1.9-1.4,3.5-1.4s2.7,0.5,3.5,1.4s1.2,2.2,1.2,3.7v10.5
			c0,1.5-0.4,2.8-1.2,3.7s-1.9,1.4-3.5,1.4s-2.7-0.5-3.5-1.4s-1.1-2.2-1.1-3.7V367.6z M363.7,378.2c0,0.9,0.2,1.6,0.6,2.2
			c0.4,0.5,1,0.8,1.8,0.8c0.8,0,1.4-0.3,1.8-0.8c0.4-0.5,0.6-1.2,0.6-2.2v-10.7c0-0.9-0.2-1.6-0.6-2.2c-0.4-0.5-1-0.8-1.8-0.8
			c-0.8,0-1.4,0.3-1.8,0.8c-0.4,0.5-0.6,1.2-0.6,2.2V378.2z M374.9,383h-2v-20.3h2.9l4.7,14.7v-14.7h2V383h-2.3l-5.2-16.4V383z
			 M386.8,383h-2v-20.3h2.9l4.7,14.7v-14.7h2V383H392l-5.2-16.4V383z M403.8,371.7v2h-5v7.2h6.1v2.1h-8.4v-20.3h8.4v2.1h-6.1v6.9
			H403.8z M407.1,383v-20.3h2.3v18.2h5.8v2.1H407.1z M421.1,362.5c1.5,0,2.7,0.5,3.4,1.4s1.1,2.2,1.1,3.7v0.6h-2.1v-0.7
			c0-0.9-0.2-1.6-0.6-2.1c-0.4-0.5-1-0.8-1.8-0.8c-0.8,0-1.4,0.3-1.8,0.8c-0.4,0.5-0.6,1.2-0.6,2.1c0,0.8,0.2,1.4,0.5,2
			c0.3,0.6,0.8,1.1,1.3,1.6c0.5,0.5,1,0.9,1.6,1.4s1.1,1,1.6,1.5s0.9,1.2,1.3,1.8s0.5,1.5,0.5,2.5c0,1.5-0.4,2.8-1.1,3.7
			c-0.7,0.9-1.9,1.4-3.5,1.4c-1.6,0-2.7-0.5-3.5-1.4c-0.7-0.9-1.1-2.2-1.1-3.7V377h2.1v1.3c0,0.9,0.2,1.6,0.6,2.1
			c0.4,0.5,1,0.8,1.8,0.8c0.8,0,1.4-0.3,1.8-0.8c0.4-0.5,0.6-1.2,0.6-2.1c0-0.8-0.2-1.4-0.5-2c-0.3-0.6-0.8-1.1-1.3-1.5
			c-0.5-0.5-1-0.9-1.6-1.4c-0.6-0.5-1.1-1-1.6-1.5c-0.5-0.5-0.9-1.2-1.3-1.8c-0.3-0.7-0.5-1.5-0.5-2.5c0-1.6,0.4-2.8,1.1-3.7
			C418.4,363,419.6,362.5,421.1,362.5z"/>
		<path class="st8" d="M371.9,0.6v5L363.5,37h-5.7l8.4-31.2h-11.4V0.6H371.9z"/>
		<path class="st9" d="M583.6,146.2c1.1,0,2-0.1,2.7-0.4c0.7-0.2,1.3-0.6,1.7-1s0.8-0.9,1.1-1.5s0.5-1.1,0.7-1.8h3.8V178H588v-27.8
			h-4.4V146.2z M614,169.6c0,1.3,0.3,2.2,0.8,2.8c0.5,0.5,1.3,0.8,2.2,0.8s1.6-0.3,2.2-0.8c0.5-0.5,0.8-1.5,0.8-2.8V150
			c0-1.3-0.3-2.2-0.8-2.8c-0.5-0.5-1.3-0.8-2.2-0.8s-1.6,0.3-2.2,0.8c-0.5,0.5-0.8,1.5-0.8,2.8V169.6z M608.3,150.3
			c0-2.9,0.7-5.2,2.2-6.8c1.5-1.6,3.6-2.4,6.4-2.4c2.8,0,5,0.8,6.4,2.4c1.5,1.6,2.2,3.8,2.2,6.8v18.9c0,2.9-0.7,5.2-2.2,6.8
			s-3.6,2.4-6.4,2.4c-2.8,0-5-0.8-6.4-2.4s-2.2-3.8-2.2-6.8V150.3z M634.6,169.6c0,1.3,0.3,2.2,0.8,2.8c0.5,0.5,1.3,0.8,2.2,0.8
			c0.9,0,1.6-0.3,2.2-0.8s0.8-1.5,0.8-2.8V150c0-1.3-0.3-2.2-0.8-2.8s-1.3-0.8-2.2-0.8c-0.9,0-1.6,0.3-2.2,0.8
			c-0.5,0.5-0.8,1.5-0.8,2.8V169.6z M628.9,150.3c0-2.9,0.7-5.2,2.2-6.8c1.5-1.6,3.6-2.4,6.4-2.4c2.8,0,5,0.8,6.4,2.4
			c1.5,1.6,2.2,3.8,2.2,6.8v18.9c0,2.9-0.7,5.2-2.2,6.8c-1.5,1.6-3.6,2.4-6.4,2.4c-2.8,0-5-0.8-6.4-2.4c-1.5-1.6-2.2-3.8-2.2-6.8
			V150.3z M655.2,169.6c0,1.3,0.3,2.2,0.8,2.8s1.3,0.8,2.2,0.8c0.9,0,1.6-0.3,2.2-0.8c0.5-0.5,0.8-1.5,0.8-2.8V150
			c0-1.3-0.3-2.2-0.8-2.8c-0.5-0.5-1.3-0.8-2.2-0.8c-0.9,0-1.6,0.3-2.2,0.8s-0.8,1.5-0.8,2.8V169.6z M649.4,150.3
			c0-2.9,0.7-5.2,2.2-6.8c1.5-1.6,3.6-2.4,6.4-2.4c2.8,0,5,0.8,6.4,2.4c1.5,1.6,2.2,3.8,2.2,6.8v18.9c0,2.9-0.7,5.2-2.2,6.8
			s-3.6,2.4-6.4,2.4c-2.8,0-5-0.8-6.4-2.4s-2.2-3.8-2.2-6.8V150.3z M688.8,157.8h7v4.1h-7v7.1h-4.1v-7.1h-7v-4.1h7v-7h4.1V157.8z"/>
		<path class="st10" d="M331.8,581.4l3.9-25.8h8V592h-5.4v-26.1l-4,26.1h-5.4l-4.3-25.7V592h-5v-36.4h8L331.8,581.4z M347.9,555.6
			h5.7V592h-5.7V555.6z M357.7,555.6h5.7v31.2h9.4v5.2h-15.1V555.6z M375.4,555.6h5.7v31.2h9.4v5.2h-15.1V555.6z M393,555.6h5.7V592
			H393V555.6z M408.1,583.6c0,1.3,0.3,2.2,0.8,2.8c0.5,0.5,1.3,0.8,2.2,0.8s1.6-0.3,2.2-0.8c0.5-0.5,0.8-1.5,0.8-2.8V564
			c0-1.3-0.3-2.2-0.8-2.8s-1.3-0.8-2.2-0.8s-1.6,0.3-2.2,0.8c-0.5,0.5-0.8,1.5-0.8,2.8V583.6z M402.4,564.3c0-2.9,0.7-5.2,2.2-6.8
			c1.5-1.6,3.6-2.4,6.4-2.4s5,0.8,6.4,2.4s2.2,3.8,2.2,6.8v18.9c0,2.9-0.7,5.2-2.2,6.8s-3.6,2.4-6.4,2.4s-5-0.8-6.4-2.4
			c-1.5-1.6-2.2-3.8-2.2-6.8V564.3z M428.6,565.6V592h-5.1v-36.4h7.2l5.9,21.8v-21.8h5.1V592h-5.9L428.6,565.6z M444.9,564.3
			c0-2.9,0.7-5.2,2.1-6.8c1.4-1.6,3.5-2.4,6.3-2.4c2.8,0,4.9,0.8,6.3,2.4s2.1,3.8,2.1,6.8v1.1h-5.4V564c0-1.3-0.3-2.2-0.8-2.8
			s-1.2-0.8-2.1-0.8c-0.9,0-1.6,0.3-2.1,0.8s-0.8,1.5-0.8,2.8c0,1.2,0.3,2.3,0.8,3.3c0.6,1,1.2,1.9,2.1,2.7c0.8,0.8,1.7,1.7,2.7,2.5
			s1.8,1.8,2.7,2.8c0.8,1,1.5,2.1,2.1,3.4c0.6,1.3,0.8,2.8,0.8,4.5c0,2.9-0.7,5.2-2.2,6.8s-3.6,2.4-6.4,2.4s-4.9-0.8-6.4-2.4
			c-1.4-1.6-2.2-3.8-2.2-6.8V581h5.4v2.6c0,1.3,0.3,2.2,0.8,2.8c0.5,0.5,1.3,0.8,2.2,0.8s1.6-0.3,2.2-0.8c0.5-0.5,0.8-1.4,0.8-2.8
			c0-1.2-0.3-2.3-0.8-3.3c-0.6-1-1.2-1.9-2.1-2.7c-0.8-0.8-1.7-1.7-2.7-2.5c-1-0.8-1.8-1.8-2.7-2.8c-0.8-1-1.5-2.1-2.1-3.4
			C445.2,567.6,444.9,566.1,444.9,564.3z"/>
		<path class="st11" d="M610.2,408.3c0,2.9-0.8,5.2-2.3,6.8c-1.5,1.6-3.7,2.4-6.7,2.4c-2.9,0-5.1-0.8-6.7-2.4
			c-1.5-1.6-2.3-3.8-2.3-6.8v-2.9c0-1.8,0.3-3.3,0.8-4.6c0.6-1.3,1.5-2.3,2.7-3c-2.4-1.3-3.5-3.7-3.5-7.3v-1.1
			c0-2.9,0.8-5.2,2.3-6.8c1.5-1.6,3.7-2.4,6.7-2.4c2.9,0,5.1,0.8,6.7,2.4c1.5,1.6,2.3,3.8,2.3,6.8v1.1c0,3.6-1.2,6-3.5,7.3
			c1.2,0.7,2.1,1.7,2.7,3c0.6,1.3,0.8,2.8,0.8,4.6V408.3z M598.1,408.1c0,1.6,0.3,2.7,0.9,3.3s1.4,0.8,2.3,0.8
			c0.9,0,1.7-0.3,2.3-0.8c0.6-0.6,0.9-1.6,1-3.3v-3.4c0-1.5-0.3-2.5-0.9-3.1c-0.6-0.6-1.4-1-2.4-1c-1,0-1.8,0.3-2.4,1
			s-0.9,1.7-0.9,3.1V408.1z M598.1,391.6c0,1.5,0.3,2.5,0.9,3c0.6,0.6,1.4,0.8,2.3,0.8c0.9,0,1.7-0.3,2.3-0.8c0.6-0.6,0.9-1.6,0.9-3
			v-2c0-1.6-0.3-2.7-0.9-3.3c-0.6-0.6-1.4-0.9-2.3-0.9c-0.9,0-1.7,0.3-2.3,0.9c-0.6,0.6-0.9,1.7-0.9,3.3V391.6z"/>
		<path class="st11" d="M71.4,130.6c1.1,0,2-0.1,2.7-0.4c0.7-0.2,1.3-0.6,1.7-1c0.5-0.4,0.8-0.9,1.1-1.5s0.5-1.1,0.7-1.8h3.8v36.5
			h-5.6v-27.8h-4.4V130.6z M-7834,162.6H8549 M48.9,135c0-3.1,0.7-5.4,2.1-7c1.4-1.6,3.6-2.4,6.6-2.4c2.8,0,4.9,0.8,6.4,2.4
			c1.4,1.6,2.2,3.8,2.2,6.8v0.9h-5.4v-1.3c0-1.3-0.3-2.2-0.8-2.8c-0.5-0.5-1.3-0.8-2.2-0.8c-1,0-1.8,0.3-2.3,0.9
			c-0.6,0.6-0.8,1.8-0.8,3.5v6.7c1-2.1,2.8-3.2,5.3-3.2c2.1,0,3.7,0.7,4.8,2.1c1.1,1.4,1.6,3.5,1.6,6.2v6.7c0,2.9-0.7,5.2-2.2,6.8
			c-1.5,1.6-3.6,2.4-6.4,2.4s-5-0.8-6.4-2.4s-2.2-3.8-2.2-6.8V135z M57.5,143.9c-0.9,0-1.6,0.3-2.2,0.8c-0.5,0.5-0.8,1.5-0.8,2.8
			v6.6c0,1.3,0.3,2.2,0.8,2.8c0.5,0.5,1.3,0.8,2.2,0.8c0.9,0,1.6-0.3,2.2-0.8c0.5-0.5,0.8-1.4,0.8-2.8v-6.6c0-1.3-0.3-2.2-0.8-2.8
			C59.2,144.1,58.4,143.9,57.5,143.9z"/>
		<path class="st9" d="M58.4,398.5c0-1.6-0.3-2.7-0.8-3.3c-0.5-0.6-1.3-0.9-2.2-0.9c-0.9,0-1.6,0.3-2.2,0.8
			c-0.5,0.5-0.8,1.5-0.8,2.8v3.9h-5.4v-3.5c0-2.9,0.7-5.2,2.2-6.8c1.4-1.6,3.6-2.4,6.4-2.4s4.9,0.8,6.4,2.4c1.4,1.6,2.2,3.8,2.2,6.8
			c0,1.9-0.3,3.6-0.8,5.2c-0.6,1.5-1.3,2.9-2.1,4.2c-0.8,1.3-1.8,2.4-2.8,3.5c-1,1.1-1.9,2.1-2.8,3.1s-1.6,1.9-2.1,2.8
			c-0.6,0.9-0.8,1.9-0.8,2.9c0,0.3,0,0.6,0.1,0.8h10.8v5.2H47.1v-4.5c0-1.8,0.3-3.3,0.8-4.7c0.6-1.4,1.3-2.6,2.1-3.7
			c0.8-1.1,1.8-2.2,2.7-3.2c1-1,1.9-2,2.7-3.1c0.8-1.1,1.6-2.3,2.1-3.6C58.1,401.9,58.4,400.3,58.4,398.5z M-7834,417.4H8549
			 M-7834,426H8549 M80.2,398.5c0-1.6-0.3-2.7-0.8-3.3c-0.5-0.6-1.3-0.9-2.2-0.9s-1.6,0.3-2.2,0.8c-0.5,0.5-0.8,1.5-0.8,2.8v3.9
			h-5.4v-3.5c0-2.9,0.7-5.2,2.2-6.8c1.4-1.6,3.6-2.4,6.4-2.4s4.9,0.8,6.4,2.4c1.4,1.6,2.2,3.8,2.2,6.8c0,1.9-0.3,3.6-0.8,5.2
			c-0.6,1.5-1.3,2.9-2.1,4.2c-0.8,1.3-1.8,2.4-2.8,3.5s-1.9,2.1-2.8,3.1c-0.8,1-1.6,1.9-2.1,2.8s-0.8,1.9-0.8,2.9
			c0,0.3,0,0.6,0.1,0.8h10.8v5.2H68.9v-4.5c0-1.8,0.3-3.3,0.8-4.7c0.6-1.4,1.3-2.6,2.1-3.7c0.8-1.1,1.8-2.2,2.7-3.2s1.9-2,2.7-3.1
			c0.8-1.1,1.6-2.3,2.1-3.6C80,401.9,80.2,400.3,80.2,398.5z"/>
		<path class="st7" d="M595.2,200.2v1.8H591v6.2h5.2v1.8H589v-17.5h7.2v1.8H591v6H595.2z M602.3,202.4l-2.9,7.6h-1.8l3.5-9l-3.3-8.5
			h2l2.7,7l2.7-7h1.8l-3.3,8.5l3.5,9h-2L602.3,202.4z M612.7,192.5c1.4,0,2.4,0.4,3,1.1c0.6,0.8,0.9,1.8,0.9,3.1v2.1
			c0,1.4-0.3,2.5-1,3.2c-0.7,0.7-1.7,1.1-3.1,1.1h-1.7v6.9h-2v-17.5H612.7z M612.5,201.4c0.7,0,1.3-0.2,1.6-0.5
			c0.4-0.4,0.5-1,0.5-1.8v-2.3c0-0.8-0.2-1.4-0.5-1.8s-0.8-0.6-1.5-0.6h-1.9v7.1H612.5z M618.1,196.7c0-1.4,0.3-2.4,1-3.2
			s1.7-1.2,3-1.2c1.3,0,2.4,0.4,3,1.2c0.7,0.8,1,1.9,1,3.2v9c0,1.3-0.3,2.4-1,3.2c-0.7,0.8-1.7,1.2-3,1.2c-1.4,0-2.4-0.4-3-1.2
			c-0.7-0.8-1-1.9-1-3.2V196.7z M620,205.9c0,0.8,0.2,1.4,0.5,1.9s0.9,0.7,1.6,0.7c0.7,0,1.2-0.2,1.6-0.7c0.3-0.4,0.5-1.1,0.5-1.9
			v-9.2c0-0.8-0.2-1.4-0.5-1.9c-0.3-0.4-0.9-0.7-1.6-0.7c-0.7,0-1.2,0.2-1.6,0.7s-0.5,1.1-0.5,1.9V205.9z M631.6,192.3
			c1.3,0,2.3,0.4,3,1.2c0.6,0.8,1,1.9,1,3.2v0.5h-1.9v-0.6c0-0.8-0.2-1.4-0.5-1.9c-0.3-0.4-0.8-0.6-1.5-0.6s-1.2,0.2-1.5,0.6
			c-0.3,0.4-0.5,1-0.5,1.8c0,0.7,0.1,1.2,0.4,1.7s0.7,0.9,1.1,1.3c0.4,0.4,0.9,0.8,1.4,1.2c0.5,0.4,1,0.8,1.4,1.3
			c0.4,0.5,0.8,1,1.1,1.6s0.4,1.3,0.4,2.1c0,1.3-0.3,2.4-1,3.2c-0.6,0.8-1.6,1.2-3,1.2c-1.3,0-2.3-0.4-3-1.2s-1-1.9-1-3.2v-1h1.8
			v1.1c0,0.8,0.2,1.4,0.5,1.9s0.8,0.6,1.5,0.6s1.2-0.2,1.5-0.6c0.3-0.4,0.5-1.1,0.5-1.9c0-0.6-0.1-1.2-0.4-1.7
			c-0.3-0.5-0.7-0.9-1.1-1.3s-0.9-0.8-1.4-1.2s-1-0.8-1.4-1.3c-0.4-0.5-0.8-1-1.1-1.6s-0.4-1.3-0.4-2.1c0-1.4,0.3-2.4,1-3.2
			C629.3,192.7,630.3,192.3,631.6,192.3z M639.2,206.5l-0.7,3.5h-1.8l3.3-17.5h2.8l3.4,17.5h-2l-0.7-3.5H639.2z M639.5,204.8h3.9
			l-2-10.1L639.5,204.8z M649.5,210h-1.8v-17.5h2.5l4,12.6v-12.6h1.7V210h-2l-4.5-14.1V210z M660.6,210v-15.7h-3.2v-1.8h8.4v1.8
			h-3.2V210H660.6z M670.8,192.3c1.3,0,2.3,0.4,2.9,1.2c0.6,0.8,1,1.9,1,3.2v0.5h-1.8v-0.6c0-0.8-0.2-1.4-0.5-1.9
			c-0.3-0.4-0.8-0.6-1.5-0.6s-1.2,0.2-1.5,0.6c-0.3,0.4-0.5,1-0.5,1.8c0,0.7,0.1,1.2,0.4,1.7s0.7,0.9,1.1,1.3
			c0.4,0.4,0.9,0.8,1.4,1.2c0.5,0.4,1,0.8,1.4,1.3c0.4,0.5,0.8,1,1.1,1.6s0.4,1.3,0.4,2.1c0,1.3-0.3,2.4-1,3.2s-1.6,1.2-3,1.2
			s-2.3-0.4-3-1.2c-0.6-0.8-1-1.9-1-3.2v-1h1.8v1.1c0,0.8,0.2,1.4,0.5,1.9c0.3,0.4,0.8,0.6,1.5,0.6s1.2-0.2,1.5-0.6s0.5-1.1,0.5-1.9
			c0-0.6-0.1-1.2-0.4-1.7c-0.3-0.5-0.7-0.9-1.1-1.3c-0.4-0.4-0.9-0.8-1.4-1.2s-1-0.8-1.4-1.3c-0.4-0.5-0.8-1-1.1-1.6
			c-0.3-0.6-0.4-1.3-0.4-2.1c0-1.4,0.3-2.4,0.9-3.2C668.5,192.7,669.5,192.3,670.8,192.3z"/>
		<path class="st7" d="M573.7,433.5c1.4,0,2.4,0.3,3,1c0.6,0.7,0.9,1.7,0.9,3v1.4c0,1-0.2,1.8-0.5,2.4c-0.4,0.6-0.9,1-1.7,1.2
			c0.8,0.2,1.4,0.7,1.7,1.3c0.3,0.6,0.5,1.4,0.5,2.4v2.7c0,0.4,0,0.8,0,1.1s0.1,0.7,0.3,1h-2c-0.1-0.2-0.2-0.5-0.2-0.8
			s-0.1-0.7-0.1-1.3v-2.8c0-1-0.2-1.7-0.7-2c-0.4-0.4-1.1-0.6-1.9-0.6h-1.4v7.5h-2v-17.5H573.7z M573.2,441.8c0.8,0,1.4-0.2,1.8-0.5
			c0.4-0.3,0.7-1,0.7-1.9v-1.7c0-0.8-0.2-1.4-0.5-1.8c-0.3-0.4-0.8-0.6-1.6-0.6h-1.9v6.5H573.2z M585.8,441.2v1.8h-4.3v6.2h5.2v1.8
			h-7.2v-17.5h7.2v1.8h-5.2v6H585.8z M591.2,451v-15.7h-3.2v-1.8h8.4v1.8h-3.2V451H591.2z M597.5,437.7c0-1.4,0.3-2.4,1-3.2
			c0.7-0.8,1.7-1.2,3-1.2c1.3,0,2.4,0.4,3,1.2c0.7,0.8,1,1.9,1,3.2v9c0,1.3-0.3,2.4-1,3.2c-0.7,0.8-1.7,1.2-3,1.2
			c-1.4,0-2.4-0.4-3-1.2c-0.7-0.8-1-1.9-1-3.2V437.7z M599.5,446.9c0,0.8,0.2,1.4,0.5,1.9c0.3,0.4,0.9,0.7,1.6,0.7
			c0.7,0,1.2-0.2,1.6-0.7c0.3-0.4,0.5-1.1,0.5-1.9v-9.2c0-0.8-0.2-1.4-0.5-1.9c-0.3-0.4-0.9-0.7-1.6-0.7c-0.7,0-1.2,0.2-1.6,0.7
			c-0.3,0.4-0.5,1.1-0.5,1.9V446.9z M613.8,451H612l-2.9-13.9v14h-1.7v-17.5h2.7l2.9,14l2.8-14h2.7V451h-1.8v-14.1L613.8,451z
			 M624.4,433.5c1.4,0,2.3,0.3,2.9,1c0.6,0.6,0.9,1.6,0.9,2.9v0.8c0,0.9-0.2,1.7-0.5,2.3c-0.3,0.6-0.8,1-1.6,1.2
			c0.8,0.2,1.5,0.7,1.8,1.3s0.5,1.5,0.5,2.4v1.5c0,1.3-0.3,2.3-1,3c-0.7,0.7-1.7,1.1-3,1.1h-4v-17.5H624.4z M623.9,440.9
			c0.8,0,1.4-0.2,1.8-0.5c0.4-0.3,0.6-0.9,0.6-1.9v-1c0-0.8-0.1-1.4-0.4-1.7c-0.3-0.4-0.8-0.6-1.5-0.6h-1.9v5.6H623.9z M624.5,449.2
			c1.4,0,2.1-0.8,2.1-2.4v-1.6c0-1-0.2-1.7-0.6-2s-1-0.6-1.9-0.6h-1.7v6.5H624.5z M636.3,430l-2.3,2.6h-1.4l1.8-2.6H636.3z
			 M636.5,441.2v1.8h-4.3v6.2h5.2v1.8h-7.2v-17.5h7.2v1.8h-5.2v6H636.5z M645.5,441.2v1.8h-4.3v6.2h5.2v1.8h-7.2v-17.5h7.2v1.8h-5.2
			v6H645.5z M652,433.3c1.3,0,2.3,0.4,3,1.2c0.6,0.8,0.9,1.9,0.9,3.2v0.5H654v-0.6c0-0.8-0.2-1.4-0.5-1.9c-0.3-0.4-0.8-0.6-1.5-0.6
			s-1.2,0.2-1.5,0.6c-0.3,0.4-0.5,1-0.5,1.8c0,0.6,0.1,1.2,0.4,1.7s0.7,0.9,1.1,1.3c0.4,0.4,0.9,0.8,1.4,1.2s1,0.8,1.4,1.3
			c0.4,0.5,0.8,1,1.1,1.6s0.4,1.3,0.4,2.1c0,1.3-0.3,2.4-1,3.2c-0.6,0.8-1.6,1.2-3,1.2c-1.3,0-2.3-0.4-3-1.2c-0.6-0.8-1-1.9-1-3.2
			v-1h1.8v1.1c0,0.8,0.2,1.4,0.5,1.9s0.8,0.6,1.5,0.6s1.2-0.2,1.5-0.6s0.5-1,0.5-1.9c0-0.6-0.1-1.2-0.4-1.7s-0.7-0.9-1.1-1.3
			c-0.4-0.4-0.9-0.8-1.4-1.2s-1-0.8-1.4-1.3c-0.4-0.5-0.8-1-1.1-1.6s-0.4-1.3-0.4-2.1c0-1.4,0.3-2.4,1-3.2
			C649.7,433.7,650.6,433.3,652,433.3z M665.3,433.5c1.4,0,2.4,0.4,3,1.1c0.6,0.8,0.9,1.8,0.9,3.1v2.1c0,1.4-0.3,2.5-1,3.2
			c-0.7,0.7-1.7,1.1-3.1,1.1h-1.7v6.9h-2v-17.5H665.3z M665.1,442.4c0.7,0,1.3-0.2,1.6-0.5s0.5-1,0.5-1.8v-2.3
			c0-0.8-0.2-1.4-0.5-1.8s-0.8-0.6-1.5-0.6h-1.9v7.1H665.1z M674.7,433.5c1.4,0,2.4,0.3,3,1c0.6,0.7,0.9,1.7,0.9,3v1.4
			c0,1-0.2,1.8-0.5,2.4c-0.4,0.6-0.9,1-1.7,1.2c0.8,0.2,1.4,0.7,1.7,1.3s0.5,1.4,0.5,2.4v2.7c0,0.4,0,0.8,0,1.1s0.1,0.7,0.3,1h-2
			c-0.1-0.2-0.2-0.5-0.2-0.8s-0.1-0.7-0.1-1.3v-2.8c0-1-0.2-1.7-0.7-2c-0.4-0.4-1.1-0.6-1.9-0.6h-1.4v7.5h-2v-17.5H674.7z
			 M674.2,441.8c0.8,0,1.4-0.2,1.8-0.5c0.4-0.3,0.6-1,0.6-1.9v-1.7c0-0.8-0.2-1.4-0.5-1.8c-0.3-0.4-0.8-0.6-1.6-0.6h-1.9v6.5H674.2z
			 M686.9,441.2v1.8h-4.3v6.2h5.2v1.8h-7.2v-17.5h7.2v1.8h-5.2v6H686.9z M693.3,433.3c1.3,0,2.3,0.4,3,1.2c0.6,0.8,0.9,1.9,0.9,3.2
			v0.5h-1.8v-0.6c0-0.8-0.2-1.4-0.5-1.9c-0.3-0.4-0.8-0.6-1.5-0.6s-1.2,0.2-1.5,0.6c-0.3,0.4-0.5,1-0.5,1.8c0,0.6,0.1,1.2,0.4,1.7
			s0.7,0.9,1.1,1.3c0.4,0.4,0.9,0.8,1.4,1.2s1,0.8,1.4,1.3c0.4,0.5,0.8,1,1.1,1.6s0.4,1.3,0.4,2.1c0,1.3-0.3,2.4-1,3.2
			c-0.6,0.8-1.6,1.2-3,1.2c-1.3,0-2.3-0.4-3-1.2c-0.6-0.8-1-1.9-1-3.2v-1h1.8v1.1c0,0.8,0.2,1.4,0.5,1.9s0.8,0.6,1.5,0.6
			s1.2-0.2,1.5-0.6s0.5-1,0.5-1.9c0-0.6-0.1-1.2-0.4-1.7s-0.7-0.9-1.1-1.3c-0.4-0.4-0.9-0.8-1.4-1.2s-1-0.8-1.4-1.3
			c-0.4-0.5-0.8-1-1.1-1.6s-0.4-1.3-0.4-2.1c0-1.4,0.3-2.4,1-3.2C691,433.7,692,433.3,693.3,433.3z M702.6,433.3
			c1.3,0,2.3,0.4,3,1.2c0.6,0.8,1,1.9,1,3.2v0.5h-1.9v-0.6c0-0.8-0.2-1.4-0.5-1.9c-0.3-0.4-0.8-0.6-1.5-0.6s-1.2,0.2-1.5,0.6
			c-0.3,0.4-0.5,1-0.5,1.8c0,0.6,0.1,1.2,0.4,1.7s0.7,0.9,1.1,1.3c0.4,0.4,0.9,0.8,1.4,1.2s1,0.8,1.4,1.3s0.8,1,1.1,1.6
			s0.4,1.3,0.4,2.1c0,1.3-0.3,2.4-1,3.2c-0.6,0.8-1.6,1.2-3,1.2c-1.3,0-2.3-0.4-3-1.2c-0.6-0.8-1-1.9-1-3.2v-1h1.8v1.1
			c0,0.8,0.2,1.4,0.5,1.9s0.8,0.6,1.5,0.6s1.2-0.2,1.5-0.6c0.3-0.4,0.5-1,0.5-1.9c0-0.6-0.1-1.2-0.4-1.7c-0.3-0.5-0.7-0.9-1.1-1.3
			c-0.4-0.4-0.9-0.8-1.4-1.2s-1-0.8-1.4-1.3s-0.8-1-1.1-1.6s-0.4-1.3-0.4-2.1c0-1.4,0.3-2.4,1-3.2S701.3,433.3,702.6,433.3z
			 M714.5,441.2v1.8h-4.3v6.2h5.2v1.8h-7.2v-17.5h7.2v1.8h-5.2v6H714.5z"/>
		<path class="st7" d="M274.6,610.5c1.4,0,2.4,0.4,3,1.2c0.6,0.8,1,1.8,1,3.2v8.8c0,1.4-0.3,2.4-1,3.2c-0.6,0.8-1.6,1.2-3,1.2h-4.1
			v-17.5H274.6z M274.6,626.2c0.7,0,1.2-0.2,1.6-0.6c0.3-0.4,0.5-1,0.5-1.8v-9c0-0.8-0.2-1.4-0.5-1.8c-0.3-0.4-0.9-0.6-1.6-0.6h-2.1
			v13.9H274.6z M286.6,618.2v1.8h-4.3v6.2h5.2v1.8h-7.2v-17.5h7.2v1.8h-5.2v6H286.6z M297.1,610.5c1.4,0,2.4,0.4,3,1.1
			c0.6,0.8,0.9,1.8,0.9,3.1v2.1c0,1.4-0.3,2.5-1,3.2c-0.7,0.7-1.7,1.1-3.1,1.1h-1.7v6.9h-2v-17.5H297.1z M297,619.3
			c0.7,0,1.3-0.2,1.6-0.5s0.5-1,0.5-1.8v-2.3c0-0.8-0.2-1.4-0.5-1.8c-0.3-0.4-0.8-0.6-1.5-0.6h-1.9v7.1H297z M308.8,618.2v1.8h-4.3
			v6.2h5.2v1.8h-7.2v-17.5h7.2v1.8h-5.2v6H308.8z M315.5,610.5c1.4,0,2.4,0.3,3,1c0.6,0.7,0.9,1.7,0.9,3v1.4c0,1-0.2,1.8-0.5,2.4
			c-0.4,0.6-0.9,1-1.6,1.2c0.8,0.2,1.4,0.7,1.7,1.3s0.5,1.4,0.5,2.4v2.7c0,0.4,0,0.8,0.1,1.1c0,0.4,0.1,0.7,0.3,1h-2
			c-0.1-0.2-0.2-0.5-0.2-0.8c0-0.3-0.1-0.7-0.1-1.3v-2.8c0-1-0.2-1.7-0.7-2c-0.4-0.4-1.1-0.6-1.9-0.6h-1.4v7.5h-1.9v-17.5H315.5z
			 M315,618.8c0.8,0,1.4-0.2,1.8-0.5c0.4-0.3,0.7-1,0.7-1.9v-1.7c0-0.8-0.2-1.4-0.5-1.8c-0.3-0.4-0.8-0.6-1.6-0.6h-1.9v6.5H315z
			 M325.1,610.3c1.3,0,2.3,0.4,2.9,1.2c0.6,0.8,1,1.9,1,3.2v0.5h-1.9v-0.6c0-0.8-0.2-1.4-0.5-1.8c-0.3-0.4-0.8-0.7-1.5-0.7
			c-0.7,0-1.2,0.2-1.5,0.7s-0.5,1-0.5,1.8c0,0.6,0.1,1.2,0.4,1.7c0.3,0.5,0.7,0.9,1.1,1.3c0.4,0.4,0.9,0.8,1.4,1.2s1,0.8,1.4,1.3
			s0.8,1,1.1,1.6s0.4,1.3,0.4,2.1c0,1.3-0.3,2.4-1,3.2s-1.6,1.2-3,1.2s-2.3-0.4-3-1.2s-1-1.9-1-3.2v-1h1.8v1.1
			c0,0.8,0.2,1.4,0.5,1.8s0.9,0.7,1.5,0.7c0.7,0,1.2-0.2,1.6-0.7c0.3-0.4,0.5-1,0.5-1.8c0-0.7-0.1-1.2-0.4-1.7
			c-0.3-0.5-0.7-0.9-1.1-1.3c-0.4-0.4-0.9-0.8-1.4-1.2s-1-0.8-1.4-1.3s-0.8-1-1.1-1.6c-0.3-0.6-0.4-1.3-0.4-2.1
			c0-1.4,0.3-2.4,0.9-3.2C322.8,610.7,323.8,610.3,325.1,610.3z M330.6,614.7c0-1.3,0.3-2.4,1-3.2s1.7-1.2,3-1.2
			c1.3,0,2.4,0.4,3,1.2c0.7,0.8,1,1.9,1,3.2v9.1c0,1.3-0.3,2.4-1,3.2c-0.7,0.8-1.7,1.2-3,1.2c-1.4,0-2.4-0.4-3-1.2
			c-0.7-0.8-1-1.9-1-3.2V614.7z M332.5,623.9c0,0.8,0.2,1.4,0.5,1.9c0.3,0.4,0.9,0.7,1.6,0.7c0.7,0,1.2-0.2,1.6-0.7
			c0.3-0.4,0.5-1.1,0.5-1.9v-9.2c0-0.8-0.2-1.4-0.5-1.9c-0.3-0.4-0.9-0.7-1.6-0.7c-0.7,0-1.2,0.2-1.6,0.7c-0.3,0.4-0.5,1.1-0.5,1.9
			V623.9z M342.2,628h-1.8v-17.5h2.5l4.1,12.7v-12.7h1.7V628h-2l-4.5-14.2V628z M352.4,628h-1.8v-17.5h2.5l4,12.7v-12.7h1.7V628h-2
			l-4.5-14.2V628z M367.1,618.2v1.8h-4.3v6.2h5.2v1.8h-7.2v-17.5h7.2v1.8h-5.2v6H367.1z M373.6,610.3c1.3,0,2.3,0.4,2.9,1.2
			s1,1.9,1,3.2v0.5h-1.9v-0.6c0-0.8-0.2-1.4-0.5-1.8s-0.8-0.7-1.5-0.7s-1.2,0.2-1.5,0.7s-0.5,1-0.5,1.8c0,0.6,0.1,1.2,0.4,1.7
			s0.7,0.9,1.1,1.3c0.4,0.4,0.9,0.8,1.4,1.2s1,0.8,1.4,1.3c0.4,0.5,0.8,1,1.1,1.6s0.4,1.3,0.4,2.1c0,1.3-0.3,2.4-1,3.2
			c-0.6,0.8-1.6,1.2-3,1.2c-1.4,0-2.3-0.4-3-1.2c-0.6-0.8-1-1.9-1-3.2v-1h1.8v1.1c0,0.8,0.2,1.4,0.5,1.8c0.3,0.4,0.8,0.7,1.5,0.7
			s1.2-0.2,1.5-0.7c0.3-0.4,0.5-1,0.5-1.8c0-0.7-0.1-1.2-0.4-1.7c-0.3-0.5-0.7-0.9-1.1-1.3c-0.4-0.4-0.9-0.8-1.4-1.2s-1-0.8-1.4-1.3
			c-0.4-0.5-0.8-1-1.1-1.6c-0.3-0.6-0.4-1.3-0.4-2.1c0-1.4,0.3-2.4,0.9-3.2S372.3,610.3,373.6,610.3z M385.6,628v-15.7h-3.2v-1.8
			h8.4v1.8h-3.2V628H385.6z M391.9,614.7c0-1.3,0.3-2.4,1-3.2c0.7-0.8,1.7-1.2,3-1.2c1.4,0,2.4,0.4,3,1.2c0.7,0.8,1,1.9,1,3.2v9.1
			c0,1.3-0.3,2.4-1,3.2c-0.7,0.8-1.7,1.2-3,1.2c-1.3,0-2.4-0.4-3-1.2c-0.7-0.8-1-1.9-1-3.2V614.7z M393.9,623.9
			c0,0.8,0.2,1.4,0.5,1.9c0.3,0.4,0.9,0.7,1.6,0.7c0.7,0,1.2-0.2,1.6-0.7c0.3-0.4,0.5-1.1,0.5-1.9v-9.2c0-0.8-0.2-1.4-0.5-1.9
			c-0.3-0.4-0.9-0.7-1.6-0.7c-0.7,0-1.2,0.2-1.6,0.7c-0.3,0.4-0.5,1.1-0.5,1.9V623.9z M403.6,623.9c0,0.8,0.2,1.4,0.5,1.9
			c0.3,0.4,0.8,0.7,1.6,0.7c0.7,0,1.2-0.2,1.5-0.7c0.3-0.4,0.5-1.1,0.5-1.9v-13.4h1.8v13.3c0,1.3-0.3,2.4-0.9,3.2s-1.6,1.2-3,1.2
			c-1.3,0-2.3-0.4-3-1.2c-0.6-0.8-0.9-1.9-0.9-3.2v-13.3h1.9V623.9z M415.2,610.3c1.4,0,2.3,0.4,3,1.2c0.6,0.8,1,1.9,1,3.2v1.6h-1.9
			v-1.7c0-0.8-0.2-1.4-0.5-1.9c-0.3-0.4-0.8-0.7-1.6-0.7c-0.7,0-1.2,0.2-1.5,0.7c-0.3,0.4-0.5,1.1-0.5,1.9v9.2
			c0,0.8,0.2,1.4,0.5,1.9c0.3,0.4,0.8,0.7,1.5,0.7c0.7,0,1.2-0.2,1.6-0.7c0.3-0.4,0.5-1.1,0.5-1.9v-2.3h1.9v2.2c0,1.3-0.3,2.4-1,3.2
			c-0.6,0.8-1.6,1.2-3,1.2c-1.3,0-2.3-0.4-3-1.2c-0.6-0.8-1-1.9-1-3.2v-9.1c0-0.7,0.1-1.3,0.2-1.8c0.2-0.5,0.4-1,0.7-1.4
			c0.3-0.4,0.7-0.7,1.2-0.9C414,610.4,414.6,610.3,415.2,610.3z M422.9,620.1v7.9H421v-17.5h1.9v7.9h4.3v-7.9h1.9V628h-1.9v-7.9
			H422.9z M437.2,607l-2.3,2.6h-1.3l1.8-2.6H437.2z M437.4,618.2v1.8h-4.3v6.2h5.2v1.8h-7.2v-17.5h7.2v1.8h-5.2v6H437.4z
			 M446.4,618.2v1.8h-4.3v6.2h5.2v1.8h-7.2v-17.5h7.2v1.8h-5.2v6H446.4z M452.9,610.3c1.3,0,2.3,0.4,2.9,1.2c0.6,0.8,1,1.9,1,3.2
			v0.5h-1.9v-0.6c0-0.8-0.2-1.4-0.5-1.8c-0.3-0.4-0.8-0.7-1.5-0.7c-0.7,0-1.2,0.2-1.5,0.7s-0.5,1-0.5,1.8c0,0.6,0.1,1.2,0.4,1.7
			s0.7,0.9,1.1,1.3c0.4,0.4,0.9,0.8,1.4,1.2s1,0.8,1.4,1.3s0.8,1,1.1,1.6s0.4,1.3,0.4,2.1c0,1.3-0.3,2.4-1,3.2s-1.6,1.2-3,1.2
			c-1.4,0-2.3-0.4-3-1.2s-1-1.9-1-3.2v-1h1.8v1.1c0,0.8,0.2,1.4,0.5,1.8s0.9,0.7,1.5,0.7c0.7,0,1.2-0.2,1.6-0.7
			c0.3-0.4,0.5-1,0.5-1.8c0-0.7-0.1-1.2-0.4-1.7c-0.3-0.5-0.7-0.9-1.1-1.3c-0.4-0.4-0.9-0.8-1.4-1.2c-0.5-0.4-1-0.8-1.4-1.3
			s-0.8-1-1.1-1.6s-0.4-1.3-0.4-2.1c0-1.4,0.3-2.4,0.9-3.2C450.6,610.7,451.5,610.3,452.9,610.3z M268.7,640.3c1.3,0,2.3,0.4,3,1.2
			s1,1.9,1,3.2v0.5h-1.9v-0.6c0-0.8-0.2-1.4-0.5-1.8s-0.8-0.7-1.5-0.7s-1.2,0.2-1.5,0.7c-0.3,0.4-0.5,1-0.5,1.8
			c0,0.6,0.1,1.2,0.4,1.7c0.3,0.5,0.7,0.9,1.1,1.3s0.9,0.8,1.4,1.2s1,0.8,1.4,1.3c0.4,0.5,0.8,1,1.1,1.6c0.3,0.6,0.4,1.3,0.4,2.1
			c0,1.3-0.3,2.4-1,3.2c-0.6,0.8-1.6,1.2-3,1.2s-2.3-0.4-3-1.2c-0.6-0.8-0.9-1.9-0.9-3.2v-1h1.8v1.1c0,0.8,0.2,1.4,0.5,1.8
			c0.3,0.4,0.9,0.7,1.6,0.7s1.2-0.2,1.5-0.7s0.5-1,0.5-1.8c0-0.7-0.1-1.2-0.4-1.7c-0.3-0.5-0.7-0.9-1.1-1.3s-0.9-0.8-1.4-1.2
			s-1-0.8-1.4-1.3c-0.4-0.5-0.8-1-1.1-1.6c-0.3-0.6-0.4-1.3-0.4-2.1c0-1.4,0.3-2.4,1-3.2S267.4,640.3,268.7,640.3z M276.1,653.9
			c0,0.8,0.2,1.4,0.5,1.9c0.3,0.4,0.8,0.7,1.6,0.7c0.7,0,1.2-0.2,1.5-0.7c0.3-0.4,0.5-1.1,0.5-1.9v-13.4h1.8v13.3
			c0,1.3-0.3,2.4-0.9,3.2s-1.6,1.2-3,1.2c-1.3,0-2.3-0.4-3-1.2c-0.6-0.8-0.9-1.9-0.9-3.2v-13.3h1.9V653.9z M287.9,640.5
			c1.4,0,2.4,0.3,3,1c0.6,0.7,0.9,1.7,0.9,3v1.4c0,1-0.2,1.8-0.5,2.4c-0.4,0.6-0.9,1-1.6,1.2c0.8,0.2,1.4,0.7,1.7,1.3
			c0.3,0.6,0.5,1.4,0.5,2.4v2.7c0,0.4,0,0.8,0.1,1.1c0,0.4,0.1,0.7,0.3,1h-2c-0.1-0.2-0.2-0.5-0.2-0.8c0-0.3-0.1-0.7-0.1-1.3v-2.8
			c0-1-0.2-1.7-0.7-2s-1.1-0.6-1.9-0.6h-1.4v7.5H284v-17.5H287.9z M287.4,648.8c0.8,0,1.4-0.2,1.8-0.5c0.4-0.3,0.6-1,0.6-1.9v-1.7
			c0-0.8-0.2-1.4-0.5-1.8c-0.3-0.4-0.8-0.6-1.6-0.6h-1.9v6.5H287.4z M297.7,658v-17.5h1.9v15.7h5v1.8H297.7z M312.4,648.2v1.8h-4.3
			v6.2h5.2v1.8h-7.2v-17.5h7.2v1.8h-5.2v6H312.4z M318.8,640.3c1.3,0,2.3,0.4,3,1.2s1,1.9,1,3.2v0.5h-1.9v-0.6
			c0-0.8-0.2-1.4-0.5-1.8s-0.8-0.7-1.5-0.7c-0.7,0-1.2,0.2-1.5,0.7c-0.3,0.4-0.5,1-0.5,1.8c0,0.6,0.1,1.2,0.4,1.7
			c0.3,0.5,0.7,0.9,1.1,1.3s0.9,0.8,1.4,1.2s1,0.8,1.4,1.3c0.4,0.5,0.8,1,1.1,1.6c0.3,0.6,0.4,1.3,0.4,2.1c0,1.3-0.3,2.4-1,3.2
			c-0.6,0.8-1.6,1.2-3,1.2s-2.3-0.4-3-1.2c-0.6-0.8-0.9-1.9-0.9-3.2v-1h1.8v1.1c0,0.8,0.2,1.4,0.5,1.8c0.3,0.4,0.9,0.7,1.6,0.7
			c0.7,0,1.2-0.2,1.5-0.7s0.5-1,0.5-1.8c0-0.7-0.1-1.2-0.4-1.7c-0.3-0.5-0.7-0.9-1.1-1.3s-0.9-0.8-1.4-1.2s-1-0.8-1.4-1.3
			c-0.4-0.5-0.8-1-1.1-1.6c-0.3-0.6-0.4-1.3-0.4-2.1c0-1.4,0.3-2.4,1-3.2S317.5,640.3,318.8,640.3z M332.2,640.5c1.4,0,2.4,0.3,3,1
			c0.6,0.7,0.9,1.7,0.9,3v1.4c0,1-0.2,1.8-0.5,2.4c-0.4,0.6-0.9,1-1.7,1.2c0.8,0.2,1.4,0.7,1.7,1.3s0.5,1.4,0.5,2.4v2.7
			c0,0.4,0,0.8,0,1.1c0,0.4,0.1,0.7,0.3,1h-2c-0.1-0.2-0.2-0.5-0.2-0.8s-0.1-0.7-0.1-1.3v-2.8c0-1-0.2-1.7-0.7-2
			c-0.4-0.4-1.1-0.6-1.9-0.6h-1.4v7.5h-2v-17.5H332.2z M331.7,648.8c0.8,0,1.4-0.2,1.8-0.5c0.4-0.3,0.6-1,0.6-1.9v-1.7
			c0-0.8-0.2-1.4-0.5-1.8c-0.3-0.4-0.8-0.6-1.6-0.6h-1.9v6.5H331.7z M344.2,637l-2.3,2.6h-1.4l1.8-2.6H344.2z M344.4,648.2v1.8h-4.3
			v6.2h5.2v1.8h-7.2v-17.5h7.2v1.8h-5.2v6H344.4z M350.8,640.3c1.3,0,2.3,0.4,2.9,1.2s1,1.9,1,3.2v0.5h-1.9v-0.6
			c0-0.8-0.2-1.4-0.5-1.8s-0.8-0.7-1.5-0.7s-1.2,0.2-1.5,0.7s-0.5,1-0.5,1.8c0,0.6,0.1,1.2,0.4,1.7s0.7,0.9,1.1,1.3
			c0.4,0.4,0.9,0.8,1.4,1.2s1,0.8,1.4,1.3c0.4,0.5,0.8,1,1.1,1.6s0.4,1.3,0.4,2.1c0,1.3-0.3,2.4-1,3.2c-0.6,0.8-1.6,1.2-3,1.2
			c-1.3,0-2.3-0.4-3-1.2c-0.6-0.8-1-1.9-1-3.2v-1h1.8v1.1c0,0.8,0.2,1.4,0.5,1.8c0.3,0.4,0.8,0.7,1.5,0.7s1.2-0.2,1.5-0.7
			c0.3-0.4,0.5-1,0.5-1.8c0-0.7-0.1-1.2-0.4-1.7c-0.3-0.5-0.7-0.9-1.1-1.3c-0.4-0.4-0.9-0.8-1.4-1.2s-1-0.8-1.4-1.3
			c-0.4-0.5-0.8-1-1.1-1.6c-0.3-0.6-0.4-1.3-0.4-2.1c0-1.4,0.3-2.4,0.9-3.2S349.5,640.3,350.8,640.3z M362.7,648.2v1.8h-4.3v6.2h5.2
			v1.8h-7.2v-17.5h7.2v1.8h-5.2v6H362.7z M367.4,654.5l-0.7,3.5H365l3.3-17.5h2.8l3.4,17.5h-2l-0.7-3.5H367.4z M367.7,652.8h3.9
			l-2-10.1L367.7,652.8z M377.9,653.9c0,0.8,0.2,1.4,0.5,1.9c0.3,0.4,0.8,0.7,1.6,0.7c0.7,0,1.2-0.2,1.5-0.7
			c0.3-0.4,0.5-1.1,0.5-1.9v-13.4h1.8v13.3c0,1.3-0.3,2.4-1,3.2c-0.6,0.8-1.6,1.2-3,1.2c-1.3,0-2.3-0.4-3-1.2s-1-1.9-1-3.2v-13.3
			h1.9V653.9z M390,650.5l-2.9,7.5h-1.9l3.5-9l-3.3-8.5h2l2.7,7l2.7-7h1.8l-3.3,8.5l3.5,9h-2.1L390,650.5z M404.1,640.3
			c1.3,0,2.3,0.4,2.9,1.2c0.6,0.8,1,1.9,1,3.2v0.5h-1.9v-0.6c0-0.8-0.2-1.4-0.5-1.8c-0.3-0.4-0.8-0.7-1.5-0.7
			c-0.7,0-1.2,0.2-1.5,0.7s-0.5,1-0.5,1.8c0,0.6,0.1,1.2,0.4,1.7s0.7,0.9,1.1,1.3c0.4,0.4,0.9,0.8,1.4,1.2s1,0.8,1.4,1.3
			s0.8,1,1.1,1.6s0.4,1.3,0.4,2.1c0,1.3-0.3,2.4-1,3.2s-1.6,1.2-3,1.2c-1.4,0-2.3-0.4-3-1.2s-1-1.9-1-3.2v-1h1.8v1.1
			c0,0.8,0.2,1.4,0.5,1.8s0.9,0.7,1.5,0.7c0.7,0,1.2-0.2,1.6-0.7c0.3-0.4,0.5-1,0.5-1.8c0-0.7-0.1-1.2-0.4-1.7
			c-0.3-0.5-0.7-0.9-1.1-1.3c-0.4-0.4-0.9-0.8-1.4-1.2c-0.5-0.4-1-0.8-1.4-1.3s-0.8-1-1.1-1.6s-0.4-1.3-0.4-2.1
			c0-1.4,0.3-2.4,0.9-3.2C401.8,640.7,402.8,640.3,404.1,640.3z M409.6,644.7c0-1.3,0.3-2.4,1-3.2s1.7-1.2,3-1.2
			c1.3,0,2.4,0.4,3,1.2s1,1.9,1,3.2v9.1c0,1.3-0.3,2.4-1,3.2c-0.7,0.8-1.7,1.2-3,1.2c-1.4,0-2.4-0.4-3-1.2c-0.7-0.8-1-1.9-1-3.2
			V644.7z M411.5,653.9c0,0.8,0.2,1.4,0.5,1.9c0.3,0.4,0.9,0.7,1.6,0.7c0.7,0,1.2-0.2,1.6-0.7c0.3-0.4,0.5-1.1,0.5-1.9v-9.2
			c0-0.8-0.2-1.4-0.5-1.9c-0.3-0.4-0.9-0.7-1.6-0.7c-0.7,0-1.2,0.2-1.6,0.7c-0.3,0.4-0.5,1.1-0.5,1.9V653.9z M423.2,640.3
			c1.4,0,2.3,0.4,3,1.2c0.6,0.8,1,1.9,1,3.2v1.6h-1.8v-1.7c0-0.8-0.2-1.4-0.5-1.9c-0.3-0.4-0.8-0.7-1.6-0.7c-0.7,0-1.2,0.2-1.5,0.7
			c-0.3,0.4-0.5,1.1-0.5,1.9v9.2c0,0.8,0.2,1.4,0.5,1.9c0.3,0.4,0.9,0.7,1.5,0.7c0.7,0,1.2-0.2,1.6-0.7c0.3-0.4,0.5-1.1,0.5-1.9
			v-2.3h1.8v2.2c0,1.3-0.3,2.4-1,3.2c-0.6,0.8-1.6,1.2-3,1.2c-1.3,0-2.3-0.4-3-1.2c-0.6-0.8-1-1.9-1-3.2v-9.1c0-0.7,0.1-1.3,0.2-1.8
			c0.2-0.5,0.4-1,0.7-1.4c0.3-0.4,0.7-0.7,1.2-0.9C422,640.4,422.6,640.3,423.2,640.3z M430.9,640.5V658H429v-17.5H430.9z
			 M434.9,654.5l-0.7,3.5h-1.8l3.4-17.5h2.8l3.3,17.5H440l-0.7-3.5H434.9z M435.1,652.8h3.9l-2-10.1L435.1,652.8z M445.3,653.9
			c0,0.8,0.2,1.4,0.5,1.9c0.3,0.4,0.8,0.7,1.6,0.7c0.7,0,1.2-0.2,1.5-0.7c0.3-0.4,0.5-1.1,0.5-1.9v-13.4h1.8v13.3
			c0,1.3-0.3,2.4-1,3.2s-1.6,1.2-3,1.2c-1.3,0-2.3-0.4-2.9-1.2c-0.6-0.8-1-1.9-1-3.2v-13.3h1.9V653.9z M457.5,650.5l-2.9,7.5h-1.8
			l3.5-9l-3.3-8.5h2l2.7,7l2.7-7h1.8l-3.3,8.5l3.5,9h-2L457.5,650.5z"/>
		<path class="st7" d="M5.8,443.5c1.4,0,2.4,0.4,3,1.1c0.6,0.8,0.9,1.8,0.9,3.1v2.1c0,1.4-0.3,2.5-1,3.2s-1.7,1.1-3.1,1.1H4v6.9H2
			v-17.5H5.8z M5.7,452.4c0.7,0,1.3-0.2,1.6-0.5c0.4-0.4,0.5-1,0.5-1.8v-2.3c0-0.8-0.2-1.4-0.5-1.8c-0.3-0.4-0.8-0.6-1.5-0.6H4v7.1
			H5.7z M12.9,457.5l-0.7,3.5h-1.8l3.3-17.5h2.8L20,461h-2l-0.7-3.5H12.9z M13.2,455.8h3.9l-2-10.1L13.2,455.8z M23.4,454.7
			l-3.7-11.2h2l2.7,8.6l2.8-8.6H29l-3.7,11.2v6.3h-1.9V454.7z M34,443.3c1.3,0,2.3,0.4,3,1.2c0.6,0.8,0.9,1.9,0.9,3.2v0.5H36v-0.6
			c0-0.8-0.2-1.4-0.5-1.9c-0.3-0.4-0.8-0.6-1.5-0.6s-1.2,0.2-1.5,0.6c-0.3,0.4-0.5,1-0.5,1.8c0,0.6,0.1,1.2,0.4,1.7s0.7,0.9,1.1,1.3
			c0.4,0.4,0.9,0.8,1.4,1.2s1,0.8,1.4,1.3c0.4,0.5,0.8,1,1.1,1.6s0.4,1.3,0.4,2.1c0,1.3-0.3,2.4-1,3.2c-0.6,0.8-1.6,1.2-3,1.2
			s-2.3-0.4-3-1.2c-0.6-0.8-1-1.9-1-3.2v-1h1.8v1.1c0,0.8,0.2,1.4,0.5,1.9c0.3,0.4,0.8,0.6,1.5,0.6s1.2-0.2,1.5-0.6s0.5-1,0.5-1.9
			c0-0.6-0.1-1.2-0.4-1.7s-0.7-0.9-1.1-1.3c-0.4-0.4-0.9-0.8-1.4-1.2s-1-0.8-1.4-1.3c-0.4-0.5-0.8-1-1.1-1.6s-0.4-1.3-0.4-2.1
			c0-1.4,0.3-2.4,0.9-3.2S32.6,443.3,34,443.3z M47.3,443.5c1.4,0,2.4,0.3,3,1c0.6,0.7,0.9,1.7,0.9,3v1.4c0,1-0.2,1.8-0.5,2.4
			c-0.3,0.6-0.9,1-1.6,1.2c0.8,0.2,1.4,0.7,1.7,1.3c0.3,0.6,0.5,1.4,0.5,2.4v2.7c0,0.4,0,0.8,0,1.1s0.1,0.7,0.3,1h-2
			c-0.1-0.2-0.2-0.5-0.2-0.8c-0.1-0.3-0.1-0.7-0.1-1.3v-2.8c0-1-0.2-1.7-0.7-2c-0.4-0.4-1.1-0.6-1.9-0.6h-1.4v7.5h-2v-17.5H47.3z
			 M46.8,451.8c0.8,0,1.4-0.2,1.8-0.5c0.4-0.3,0.7-1,0.7-1.9v-1.7c0-0.8-0.2-1.4-0.5-1.8s-0.8-0.6-1.6-0.6h-1.9v6.5H46.8z
			 M59.5,451.2v1.8h-4.3v6.2h5.2v1.8h-7.2v-17.5h7.2v1.8h-5.2v6H59.5z M66.1,443.5c1.4,0,2.4,0.4,3,1.1c0.6,0.8,0.9,1.8,0.9,3.1v2.1
			c0,1.4-0.3,2.5-1,3.2s-1.7,1.1-3.1,1.1h-1.7v6.9h-2v-17.5H66.1z M66,452.4c0.7,0,1.3-0.2,1.6-0.5c0.4-0.4,0.5-1,0.5-1.8v-2.3
			c0-0.8-0.2-1.4-0.5-1.8s-0.8-0.6-1.5-0.6h-1.9v7.1H66z M75.5,443.5c1.4,0,2.4,0.3,3,1c0.6,0.7,0.9,1.7,0.9,3v1.4
			c0,1-0.2,1.8-0.5,2.4c-0.3,0.6-0.9,1-1.7,1.2c0.8,0.2,1.4,0.7,1.7,1.3s0.5,1.4,0.5,2.4v2.7c0,0.4,0,0.8,0,1.1s0.1,0.7,0.3,1h-2
			c-0.1-0.2-0.2-0.5-0.2-0.8c-0.1-0.3-0.1-0.7-0.1-1.3v-2.8c0-1-0.2-1.7-0.7-2c-0.4-0.4-1.1-0.6-1.9-0.6h-1.4v7.5h-2v-17.5H75.5z
			 M75,451.8c0.8,0,1.4-0.2,1.8-0.5c0.4-0.3,0.6-1,0.6-1.9v-1.7c0-0.8-0.2-1.4-0.5-1.8s-0.8-0.6-1.6-0.6h-1.9v6.5H75z M87.5,440
			l-2.3,2.6h-1.4l1.8-2.6H87.5z M87.7,451.2v1.8h-4.3v6.2h5.2v1.8h-7.2v-17.5h7.2v1.8h-5.2v6H87.7z M94.1,443.3c1.3,0,2.3,0.4,3,1.2
			c0.6,0.8,0.9,1.9,0.9,3.2v0.5h-1.8v-0.6c0-0.8-0.2-1.4-0.5-1.9c-0.3-0.4-0.8-0.6-1.5-0.6s-1.2,0.2-1.5,0.6s-0.5,1-0.5,1.8
			c0,0.6,0.1,1.2,0.4,1.7c0.3,0.5,0.7,0.9,1.1,1.3c0.4,0.4,0.9,0.8,1.4,1.2c0.5,0.4,1,0.8,1.4,1.3s0.8,1,1.1,1.6
			c0.3,0.6,0.4,1.3,0.4,2.1c0,1.3-0.3,2.4-1,3.2c-0.6,0.8-1.6,1.2-3,1.2s-2.3-0.4-3-1.2c-0.6-0.8-0.9-1.9-0.9-3.2v-1H92v1.1
			c0,0.8,0.2,1.4,0.5,1.9s0.8,0.6,1.6,0.6s1.2-0.2,1.5-0.6c0.3-0.4,0.5-1,0.5-1.9c0-0.6-0.1-1.2-0.4-1.7c-0.3-0.5-0.7-0.9-1.1-1.3
			c-0.4-0.4-0.9-0.8-1.4-1.2c-0.5-0.4-1-0.8-1.4-1.3s-0.8-1-1.1-1.6c-0.3-0.6-0.4-1.3-0.4-2.1c0-1.4,0.3-2.4,1-3.2
			C91.8,443.7,92.8,443.3,94.1,443.3z M105.9,451.2v1.8h-4.3v6.2h5.2v1.8h-7.2v-17.5h7.2v1.8h-5.2v6H105.9z M110.4,461h-1.8v-17.5
			h2.5l4,12.6v-12.6h1.7V461h-2l-4.5-14.1V461z M121.5,461v-15.7h-3.2v-1.8h8.4v1.8h-3.2V461H121.5z M134,440l-2.3,2.6h-1.3l1.8-2.6
			H134z M134.2,451.2v1.8h-4.3v6.2h5.2v1.8h-7.2v-17.5h7.2v1.8h-5.2v6H134.2z M140.6,443.3c1.3,0,2.3,0.4,2.9,1.2
			c0.6,0.8,0.9,1.9,0.9,3.2v0.5h-1.8v-0.6c0-0.8-0.2-1.4-0.5-1.9s-0.8-0.6-1.5-0.6c-0.7,0-1.2,0.2-1.5,0.6c-0.3,0.4-0.5,1-0.5,1.8
			c0,0.6,0.1,1.2,0.4,1.7s0.7,0.9,1.1,1.3c0.4,0.4,0.9,0.8,1.4,1.2c0.5,0.4,1,0.8,1.4,1.3c0.4,0.5,0.8,1,1.1,1.6s0.4,1.3,0.4,2.1
			c0,1.3-0.3,2.4-1,3.2c-0.6,0.8-1.6,1.2-3,1.2s-2.3-0.4-3-1.2c-0.6-0.8-0.9-1.9-0.9-3.2v-1h1.8v1.1c0,0.8,0.2,1.4,0.5,1.9
			s0.8,0.6,1.6,0.6c0.7,0,1.2-0.2,1.6-0.6c0.3-0.4,0.5-1,0.5-1.9c0-0.6-0.1-1.2-0.4-1.7c-0.3-0.5-0.7-0.9-1.1-1.3
			c-0.4-0.4-0.9-0.8-1.4-1.2s-1-0.8-1.4-1.3c-0.4-0.5-0.8-1-1.1-1.6s-0.4-1.3-0.4-2.1c0-1.4,0.3-2.4,0.9-3.2
			C138.3,443.7,139.3,443.3,140.6,443.3z"/>
	</g>
</g>
<path class="st8" d="M333.2,25.2l10.4-24.6h6.2v24.6h2.7v5.2h-2.7V37h-5.6v-6.6h-11V25.2z M344.3,25.2V11.5l-5.8,13.7H344.3z"/>
<path class="st11" d="M629.6,405.2v3.4c0,1.3,0.3,2.2,0.8,2.8c0.5,0.5,1.3,0.8,2.2,0.8c0.9,0,1.6-0.3,2.2-0.8
	c0.5-0.5,0.8-1.4,0.8-2.8v-8c0-1.3-0.3-2.2-0.8-2.8c-0.5-0.5-1.3-0.8-2.2-0.8c-0.9,0-1.6,0.3-2.2,0.8c-0.5,0.5-0.8,1.5-0.8,2.8v1.1
	h-5.4l1-21.1h15.1v5.2h-9.9l-0.5,8.7c1.1-1.8,2.7-2.7,5-2.7c2.1,0,3.7,0.7,4.8,2.1c1.1,1.4,1.6,3.5,1.6,6.2v8.1
	c0,2.9-0.7,5.2-2.2,6.8c-1.4,1.6-3.6,2.4-6.4,2.4c-2.8,0-4.9-0.8-6.4-2.4c-1.4-1.6-2.2-3.8-2.2-6.8v-3H629.6z"/>
<path class="st11" d="M656.2,389.5c0-1.6-0.3-2.7-0.8-3.3c-0.5-0.6-1.3-0.9-2.2-0.9c-0.9,0-1.6,0.3-2.2,0.8
	c-0.5,0.5-0.8,1.5-0.8,2.8v2.3h-5.4v-2c0-2.9,0.7-5.2,2.2-6.8c1.4-1.6,3.6-2.4,6.4-2.4c2.8,0,4.9,0.8,6.4,2.4
	c1.4,1.6,2.2,3.8,2.2,6.8v0.9c0,3.9-1.3,6.4-4,7.5c1.5,0.6,2.5,1.6,3.1,2.9c0.6,1.3,0.9,2.9,0.9,4.8v2.9c0,2.9-0.7,5.2-2.2,6.8
	c-1.4,1.6-3.6,2.4-6.4,2.4c-2.8,0-4.9-0.8-6.4-2.4c-1.4-1.6-2.2-3.8-2.2-6.8v-3h5.4v3.4c0,1.3,0.3,2.2,0.8,2.8
	c0.5,0.5,1.3,0.8,2.2,0.8c0.9,0,1.6-0.3,2.2-0.8s0.8-1.6,0.8-3.3v-2.9c0-1.7-0.3-2.9-0.9-3.6s-1.5-1-2.9-1h-1.9v-5.2h2.2
	c1.1,0,1.9-0.3,2.5-0.8c0.6-0.6,0.9-1.6,0.9-3V389.5z"/>
<path class="st10" d="M261.4,580.2l10.4-24.6h6.2v24.6h2.7v5.2H278v6.6h-5.6v-6.6h-11V580.2z M272.5,580.2v-13.7l-5.8,13.7H272.5z"
	/>
<path class="st10" d="M295,580v3.4c0,1.3,0.3,2.2,0.8,2.8c0.5,0.5,1.3,0.8,2.2,0.8s1.6-0.3,2.2-0.8c0.5-0.5,0.8-1.4,0.8-2.8v-8
	c0-1.3-0.3-2.2-0.8-2.8c-0.5-0.5-1.3-0.8-2.2-0.8s-1.6,0.3-2.2,0.8c-0.5,0.5-0.8,1.5-0.8,2.8v1.1h-5.4l1-21.1h15.1v5.2h-9.9
	l-0.5,8.7c1.1-1.8,2.7-2.7,5-2.7c2.1,0,3.7,0.7,4.8,2.1c1.1,1.4,1.6,3.5,1.6,6.2v8.1c0,2.9-0.7,5.2-2.2,6.8
	c-1.4,1.6-3.6,2.4-6.4,2.4s-4.9-0.8-6.4-2.4c-1.4-1.6-2.2-3.8-2.2-6.8v-3H295z"/>
<g>
	<path class="st10" d="M282.4,595.8c1.8-0.8,3.2-1.9,3.2-3.4c0-1.4-1.2-1.8-2.6-2.2c-0.2,0-0.6-0.5-0.6-1.2c0-1,0.8-2,2.2-2
		c1.4,0,3.4,1.3,3.4,4.2c0,3.2-2.8,5.1-5.1,5.8L282.4,595.8z"/>
</g>
<path class="st11" d="M677.7,389.9c0-1.6-0.3-2.7-0.8-3.3c-0.5-0.6-1.3-0.9-2.2-0.9s-1.6,0.3-2.2,0.8c-0.5,0.5-0.8,1.5-0.8,2.8v3.9
	h-5.4v-3.5c0-2.9,0.7-5.2,2.2-6.8c1.4-1.6,3.6-2.4,6.4-2.4s4.9,0.8,6.4,2.4c1.4,1.6,2.2,3.8,2.2,6.8c0,1.9-0.3,3.6-0.8,5.2
	c-0.6,1.5-1.3,2.9-2.1,4.2c-0.9,1.3-1.8,2.4-2.8,3.5s-1.9,2.1-2.8,3.1c-0.8,1-1.6,1.9-2.1,2.8c-0.6,0.9-0.8,1.9-0.8,2.9
	c0,0.3,0,0.6,0.1,0.8H683v5.2h-16.6v-4.5c0-1.8,0.3-3.3,0.8-4.7c0.6-1.4,1.3-2.6,2.1-3.7c0.8-1.1,1.8-2.2,2.7-3.2c1-1,1.9-2,2.7-3.1
	s1.6-2.3,2.1-3.6C677.4,393.3,677.7,391.7,677.7,389.9z"/>
<path class="st7" d="M286.7,235.9l10.4-24.6h6.2v24.6h2.7v5.2h-2.7v6.6h-5.6v-6.6h-11V235.9z M297.8,235.9v-13.7l-5.8,13.7H297.8z"
	/>
<path class="st7" d="M327.3,238.5c0,2.9-0.8,5.2-2.3,6.8c-1.5,1.6-3.7,2.4-6.7,2.4s-5.1-0.8-6.7-2.4c-1.5-1.6-2.3-3.8-2.3-6.8v-2.9
	c0-1.8,0.3-3.3,0.8-4.6s1.5-2.3,2.7-3c-2.4-1.3-3.5-3.7-3.5-7.3v-1.1c0-2.9,0.8-5.2,2.3-6.8c1.5-1.6,3.7-2.4,6.7-2.4
	s5.1,0.8,6.7,2.4c1.5,1.6,2.3,3.8,2.3,6.8v1.1c0,3.6-1.2,6-3.5,7.3c1.2,0.7,2.1,1.7,2.7,3c0.6,1.3,0.8,2.8,0.8,4.6V238.5z
	 M315.1,221.8c0,1.5,0.3,2.5,0.9,3c0.6,0.6,1.4,0.8,2.3,0.8c0.9,0,1.7-0.3,2.3-0.8s0.9-1.6,0.9-3v-2c0-1.6-0.3-2.7-0.9-3.3
	s-1.4-0.9-2.3-0.9s-1.7,0.3-2.3,0.9s-0.9,1.7-0.9,3.3V221.8z M315.1,238.3c0,1.6,0.3,2.7,0.9,3.3c0.6,0.6,1.4,0.8,2.3,0.8
	s1.7-0.3,2.3-0.8c0.6-0.6,0.9-1.6,1-3.3v-3.4c0-1.5-0.3-2.5-0.9-3.1c-0.6-0.6-1.4-1-2.4-1s-1.8,0.3-2.4,1c-0.6,0.6-0.9,1.7-0.9,3.1
	v3.4H315.1z"/>
<path class="st7" d="M342,220c0-1.6-0.3-2.7-0.8-3.3c-0.5-0.6-1.3-0.9-2.2-0.9c-0.9,0-1.6,0.3-2.2,0.8c-0.5,0.5-0.8,1.5-0.8,2.8v3.9
	h-5.4v-3.5c0-2.9,0.7-5.2,2.2-6.8c1.4-1.6,3.6-2.4,6.4-2.4c2.8,0,4.9,0.8,6.4,2.4c1.4,1.6,2.2,3.8,2.2,6.8c0,1.9-0.3,3.6-0.8,5.2
	c-0.6,1.5-1.3,2.9-2.1,4.2c-0.9,1.3-1.8,2.4-2.8,3.5s-1.9,2.1-2.8,3.1c-0.8,1-1.6,1.9-2.1,2.8c-0.6,0.9-0.8,1.9-0.8,2.9
	c0,0.3,0,0.6,0.1,0.8h10.8v5.2h-16.6V243c0-1.8,0.3-3.3,0.8-4.7c0.6-1.4,1.3-2.6,2.1-3.7c0.8-1.1,1.8-2.2,2.7-3.2c1-1,1.9-2,2.7-3.1
	c0.8-1.1,1.6-2.3,2.1-3.6C341.7,223.4,342,221.8,342,220z"/>
<path class="st7" d="M370.8,220c0-1.6-0.3-2.7-0.8-3.3c-0.5-0.6-1.3-0.9-2.2-0.9s-1.6,0.3-2.2,0.8c-0.5,0.5-0.8,1.5-0.8,2.8v3.9
	h-5.4v-3.5c0-2.9,0.7-5.2,2.2-6.8c1.4-1.6,3.6-2.4,6.4-2.4c2.8,0,4.9,0.8,6.4,2.4c1.4,1.6,2.2,3.8,2.2,6.8c0,1.9-0.3,3.6-0.8,5.2
	c-0.6,1.5-1.3,2.9-2.1,4.2c-0.9,1.3-1.8,2.4-2.8,3.5s-1.9,2.1-2.8,3.1c-0.8,1-1.6,1.9-2.1,2.8c-0.6,0.9-0.8,1.9-0.8,2.9
	c0,0.3,0,0.6,0.1,0.8h10.8v5.2h-16.6V243c0-1.8,0.3-3.3,0.8-4.7c0.6-1.4,1.3-2.6,2.1-3.7s1.8-2.2,2.7-3.2c1-1,1.9-2,2.7-3.1
	s1.6-2.3,2.1-3.6C370.5,223.4,370.8,221.8,370.8,220z"/>
<path class="st7" d="M391.3,220c0-1.6-0.3-2.7-0.8-3.3c-0.5-0.6-1.3-0.9-2.2-0.9c-0.9,0-1.6,0.3-2.2,0.8c-0.5,0.5-0.8,1.5-0.8,2.8
	v3.9h-5.4v-3.5c0-2.9,0.7-5.2,2.2-6.8c1.4-1.6,3.6-2.4,6.4-2.4c2.8,0,4.9,0.8,6.4,2.4c1.4,1.6,2.2,3.8,2.2,6.8
	c0,1.9-0.3,3.6-0.8,5.2c-0.6,1.5-1.3,2.9-2.1,4.2c-0.9,1.3-1.8,2.4-2.8,3.5s-1.9,2.1-2.8,3.1c-0.8,1-1.6,1.9-2.1,2.8
	c-0.6,0.9-0.8,1.9-0.8,2.9c0,0.3,0,0.6,0.1,0.8h10.8v5.2H380V243c0-1.8,0.3-3.3,0.8-4.7c0.6-1.4,1.3-2.6,2.1-3.7
	c0.8-1.1,1.8-2.2,2.7-3.2c1-1,1.9-2,2.7-3.1c0.8-1.1,1.6-2.3,2.1-3.6C391,223.4,391.3,221.8,391.3,220z"/>
<path class="st7" d="M400.4,215.9c1.1,0,2-0.1,2.7-0.4c0.7-0.2,1.3-0.6,1.7-1c0.5-0.4,0.8-0.9,1.1-1.5s0.5-1.1,0.7-1.8h3.8v36.5
	h-5.6v-27.8h-4.4V215.9z"/>
<path class="st7" d="M339.4,342.1h-1.6v-14.6h-2.9l-6,14.2v2.5h6.5v3.9h2.4v-3.9h1.6V342.1z M335.5,342.1h-4.6l4.6-10.9V342.1z"/>
<path class="st7" d="M341.7,332.6c0-1.6,0.4-2.8,1.1-3.7c0.8-0.9,1.9-1.4,3.5-1.4s2.7,0.5,3.5,1.4s1.2,2.2,1.2,3.7v10.5
	c0,1.6-0.4,2.8-1.2,3.7c-0.8,0.9-1.9,1.4-3.5,1.4s-2.7-0.5-3.5-1.4s-1.1-2.2-1.1-3.7V332.6z M343.9,343.2c0,0.9,0.2,1.6,0.6,2.2
	c0.4,0.5,1,0.8,1.8,0.8s1.4-0.3,1.8-0.8s0.6-1.2,0.6-2.2v-10.7c0-0.9-0.2-1.7-0.6-2.2s-1-0.8-1.8-0.8s-1.4,0.3-1.8,0.8
	s-0.6,1.2-0.6,2.2V343.2z"/>
<path class="st7" d="M361.2,328.7c-0.8-0.8-1.9-1.2-3.4-1.2c-1.5,0-2.7,0.4-3.4,1.2c-0.8,0.8-1.2,2.1-1.2,3.6v1.6h2.4v-1.9
	c0-0.8,0.2-1.5,0.6-1.9c0.5-0.4,0.9-0.6,1.5-0.6c0.6,0,1.2,0.2,1.5,0.6c0.4,0.4,0.5,1.1,0.5,2.1c0,1-0.2,1.9-0.5,2.8
	c-0.3,0.8-0.8,1.5-1.2,2.1c-0.4,0.6-0.9,1.2-1.6,1.8c-0.5,0.6-1.1,1.2-1.5,1.8c-0.5,0.6-0.8,1.3-1.2,2c-0.3,0.8-0.4,1.6-0.4,2.5v2.3
	h8.7v-2.3h-6l-0.1-0.2c-0.1-0.2-0.1-0.4-0.1-0.6c0-0.7,0.2-1.3,0.5-1.9c0.2-0.4,0.6-0.8,0.9-1.3l0.3-0.4c0.5-0.6,1-1.2,1.6-1.8
	c0.6-0.7,1.1-1.3,1.6-2c0.4-0.7,0.8-1.5,1.2-2.3c0.3-0.9,0.4-1.9,0.4-2.8C362.4,330.8,362,329.6,361.2,328.7z"/>
<g>
	<path class="st7" d="M418,209.3l-1.1,1.4v0l1.7-0.2v0.8l-1.7-0.2v0l1.1,1.4l-0.7,0.4l-0.7-1.6h0l-0.7,1.6l-0.6-0.4l1.1-1.4v0
		l-1.7,0.2v-0.8l1.7,0.2v0l-1.1-1.4l0.7-0.4l0.7,1.6h0l0.7-1.6L418,209.3z"/>
</g>
<g>
	<path class="st7" d="M286.6,409.6l-1,1.3v0l1.5-0.2v0.7l-1.5-0.2v0l1,1.2l-0.6,0.4l-0.6-1.4h0l-0.7,1.4l-0.6-0.4l1-1.2v0l-1.5,0.2
		v-0.7l1.5,0.2v0l-0.9-1.2l0.6-0.4l0.6,1.4h0l0.6-1.4L286.6,409.6z"/>
</g>
<text transform="matrix(1 0 0 1 289.9898 417.7231)" class="st12 st13 st14">Fermeture anticipe du #SIA2020</text>
</svg>
