<?xml version="1.0" encoding="utf-8"?>
<!-- Generator: Adobe Illustrator 23.0.3, SVG Export Plug-In . SVG Version: 6.00 Build 0)  -->
<svg version="1.1" id="Calque_1" xmlns="http://www.w3.org/2000/svg" xmlns:xlink="http://www.w3.org/1999/xlink" x="0px" y="0px"
	 viewBox="0 0 300 280" style="enable-background:new 0 0 300 280;" xml:space="preserve">
<style type="text/css">
	.st0{fill:#FFFFFF;}
	.st1{fill:#2A2A2A;}
	.st2{fill:none;stroke:#F6A723;stroke-width:9;}
	.st3{fill:none;stroke:#E74892;stroke-width:9;}
	.st4{fill:none;stroke:#E74427;stroke-width:9;}
	.st5{fill:none;stroke:#80BA27;stroke-width:9;}
	.st6{fill:none;stroke:#30B3E8;stroke-width:9;}
	.st7{font-family:'BebasNeueRegular';}
	.st8{font-size:12.046px;}
	.st9{fill:#E74892;}
	.st10{font-family:'BebasNeueBold';}
	.st11{font-size:21.5997px;}
	.st12{fill:#F6A723;}
	.st13{fill:#80BA27;}
	.st14{fill:#30B3E8;}
	.st15{fill:#E74427;}
	.st16{font-size:10.3845px;}
</style>
<g transform="translate(-14 -12)">
	<g transform="translate(14 48)">
		<circle class="st0" cx="147.9" cy="94.3" r="73.1"/>
		<path class="st1" d="M117.3-9.9l1.1,6.1l1.1-6.1h0.7l-1.3,7h-1.1l-1.3-7H117.3z M121.8-9.9v7H121v-7H121.8z M124.3-10
			c0.5,0,0.9,0.2,1.2,0.5c0.3,0.3,0.4,0.7,0.4,1.3V-8h-0.7v-0.2c0-0.3-0.1-0.6-0.2-0.7c-0.1-0.2-0.3-0.3-0.6-0.3
			c-0.3,0-0.5,0.1-0.6,0.3s-0.2,0.4-0.2,0.7s0.1,0.5,0.2,0.7s0.3,0.4,0.4,0.5c0.2,0.2,0.4,0.3,0.6,0.5s0.4,0.3,0.6,0.5
			s0.3,0.4,0.4,0.6s0.2,0.5,0.2,0.8c0,0.5-0.1,1-0.4,1.3s-0.7,0.5-1.2,0.5s-0.9-0.2-1.2-0.5s-0.4-0.7-0.4-1.3V-5h0.7v0.4
			c0,0.3,0.1,0.6,0.2,0.7c0.1,0.2,0.3,0.3,0.6,0.3s0.5-0.1,0.6-0.3s0.2-0.4,0.2-0.7s-0.1-0.5-0.2-0.7s-0.3-0.4-0.4-0.5
			s-0.4-0.3-0.6-0.5s-0.4-0.3-0.6-0.5s-0.3-0.4-0.4-0.6s-0.2-0.5-0.2-0.8c0-0.5,0.1-1,0.4-1.3C123.4-9.8,123.8-10,124.3-10z
			 M127.5-9.9v7h-0.8v-7H127.5z M129.5-2.9v-6.3h-1.3v-0.7h3.3v0.7h-1.3v6.3C130.2-2.9,129.5-2.9,129.5-2.9z M134.8-6.8v0.7H133v2.5
			h2.1v0.7h-2.9v-7h2.9v0.7H133v2.4C133-6.8,134.8-6.8,134.8-6.8z M137.6-10c0.5,0,0.9,0.2,1.2,0.5s0.4,0.7,0.4,1.3V-8h-0.7v-0.2
			c0-0.3-0.1-0.6-0.2-0.7c-0.1-0.2-0.3-0.3-0.6-0.3s-0.5,0.1-0.6,0.3s-0.2,0.4-0.2,0.7s0.1,0.5,0.2,0.7c0.1,0.2,0.3,0.4,0.4,0.5
			c0.2,0.2,0.4,0.3,0.6,0.5c0.2,0.2,0.4,0.3,0.6,0.5c0.2,0.2,0.3,0.4,0.4,0.6c0.1,0.2,0.2,0.5,0.2,0.8c0,0.5-0.1,1-0.4,1.3
			c-0.3,0.3-0.8,0.4-1.3,0.4s-0.9-0.2-1.2-0.5S136-4.1,136-4.7v-0.4h0.7v0.4c0,0.3,0.1,0.6,0.2,0.7c0.1,0.2,0.3,0.3,0.6,0.3
			s0.5-0.1,0.6-0.3s0.2-0.4,0.2-0.7s-0.1-0.5-0.2-0.7c-0.1-0.2-0.3-0.4-0.4-0.5s-0.4-0.3-0.6-0.5c-0.2-0.2-0.4-0.3-0.6-0.5
			c-0.2-0.2-0.3-0.4-0.4-0.6c-0.1-0.2-0.2-0.5-0.2-0.8c0-0.5,0.1-1,0.4-1.3C136.6-9.9,137.1-10,137.6-10z M141.7-8.2
			c0-0.5,0.1-1,0.4-1.3c0.3-0.3,0.7-0.5,1.2-0.5s0.9,0.2,1.2,0.5s0.4,0.7,0.4,1.3v3.6c0,0.5-0.1,1-0.4,1.3s-0.7,0.5-1.2,0.5
			s-0.9-0.2-1.2-0.5s-0.4-0.7-0.4-1.3V-8.2z M142.5-4.6c0,0.3,0.1,0.6,0.2,0.7c0.1,0.2,0.3,0.3,0.6,0.3s0.5-0.1,0.6-0.3
			s0.2-0.4,0.2-0.7v-3.7c0-0.3-0.1-0.6-0.2-0.7s-0.3-0.3-0.6-0.3s-0.5,0.1-0.6,0.3s-0.2,0.4-0.2,0.7V-4.6z M148.2-6.7v0.8h-1.6v3
			h-0.8v-7h2.8v0.7h-2v2.5H148.2z M151.8-6.7v0.8h-1.6v3h-0.8v-7h2.8v0.7h-2v2.5H151.8z M153.8-9.9v7H153v-7H153.8z M156.3-10
			c0.5,0,0.9,0.2,1.2,0.5s0.4,0.7,0.4,1.3v0.6h-0.7v-0.7c0-0.3-0.1-0.6-0.2-0.7s-0.3-0.3-0.6-0.3s-0.5,0.1-0.6,0.3s-0.2,0.4-0.2,0.7
			v3.7c0,0.3,0.1,0.6,0.2,0.7c0.1,0.2,0.3,0.3,0.6,0.3s0.5-0.1,0.6-0.3s0.2-0.4,0.2-0.7v-0.9h0.7v0.9c0,0.5-0.1,1-0.4,1.3
			s-0.7,0.5-1.2,0.5s-0.9-0.2-1.2-0.5s-0.4-0.7-0.4-1.3v-3.6c0-0.3,0-0.5,0.1-0.7s0.2-0.4,0.3-0.6c0.1-0.2,0.3-0.3,0.5-0.4
			C155.8-9.9,156-10,156.3-10z M159.5-9.9v7h-0.8v-7H159.5z M163-6.8v0.7h-1.7v2.5h2.1v0.7h-2.9v-7h2.9v0.7h-2.1v2.4
			C161.3-6.8,163-6.8,163-6.8z M164.3-2.9v-7h0.8v6.3h2v0.7C167.1-2.9,164.3-2.9,164.3-2.9z M167.9-2.9v-7h0.8v6.3h2v0.7
			C170.7-2.9,167.9-2.9,167.9-2.9z M174-6.8v0.7h-1.7v2.5h2.1v0.7h-2.9v-7h2.9v0.7h-2.1v2.4C172.3-6.8,174-6.8,174-6.8z M176.7-10
			c0.5,0,0.9,0.2,1.2,0.5s0.4,0.7,0.4,1.3V-8h-0.7v-0.2c0-0.3-0.1-0.6-0.2-0.7c-0.1-0.2-0.3-0.3-0.6-0.3s-0.5,0.1-0.6,0.3
			S176-8.5,176-8.2s0.1,0.5,0.2,0.7c0.1,0.2,0.3,0.4,0.4,0.5c0.2,0.2,0.4,0.3,0.6,0.5c0.2,0.2,0.4,0.3,0.6,0.5
			c0.2,0.2,0.3,0.4,0.4,0.6c0.1,0.2,0.2,0.5,0.2,0.8c0,0.5-0.1,1-0.4,1.3c-0.3,0.3-0.8,0.4-1.3,0.4s-0.9-0.2-1.2-0.5
			s-0.4-0.7-0.4-1.3v-0.4h0.7v0.4c0,0.3,0.1,0.6,0.2,0.7c0.1,0.2,0.3,0.3,0.6,0.3s0.5-0.1,0.6-0.3s0.2-0.4,0.2-0.7s-0.1-0.5-0.2-0.7
			c-0.1-0.2-0.3-0.4-0.4-0.5s-0.4-0.3-0.6-0.5c-0.2-0.2-0.4-0.3-0.6-0.5c-0.2-0.2-0.3-0.4-0.4-0.6C175.1-7.7,175-8,175-8.3
			c0-0.5,0.1-1,0.4-1.3C175.7-9.9,176.2-10,176.7-10z"/>
		<path class="st1" d="M9.9,42.1c0.5,0,0.9,0.2,1.2,0.5s0.4,0.7,0.4,1.3v3.4c0,0.5-0.1,1-0.4,1.3c-0.3,0.3-0.7,0.5-1.2,0.5H8.3v-7
			H9.9z M9.9,48.3c0.3,0,0.5-0.1,0.6-0.3s0.2-0.4,0.2-0.7v-3.6c0-0.3-0.1-0.6-0.2-0.7c-0.1-0.2-0.3-0.3-0.6-0.3H9.1v5.6H9.9z
			 M15,40.6l-0.9,1h-0.5l0.7-1H15z M15,45.1v0.7h-1.7v2.5h2.1V49h-2.9v-7h2.9v0.7h-2.1v2.4C13.3,45.1,15,45.1,15,45.1z M16.3,49v-7
			h0.8v6.3h2V49H16.3z M22.3,40.6l-0.9,1h-0.5l0.7-1H22.3z M22.3,45.1v0.7h-1.7v2.5h2.1V49h-2.9v-7h2.9v0.7h-2.1v2.4
			C20.6,45.1,22.3,45.1,22.3,45.1z M25.1,42c0.5,0,0.9,0.2,1.2,0.5c0.3,0.3,0.4,0.7,0.4,1.3v0.5H26v-0.6c0-0.3-0.1-0.6-0.2-0.7
			c-0.1-0.2-0.3-0.3-0.6-0.3s-0.5,0.1-0.6,0.3s-0.2,0.4-0.2,0.7v3.7c0,0.3,0.1,0.6,0.2,0.7c0.1,0.1,0.3,0.3,0.6,0.3
			c0.3,0,0.5-0.1,0.6-0.3s0.2-0.4,0.2-0.7V46h-0.7v-0.7h1.5v2c0,0.5-0.1,1-0.4,1.3s-0.7,0.5-1.2,0.5s-0.9-0.2-1.2-0.5
			c-0.3-0.3-0.4-0.7-0.4-1.3v-3.6c0-0.3,0-0.5,0.1-0.7s0.2-0.4,0.3-0.6s0.3-0.3,0.5-0.4C24.6,42,24.9,42,25.1,42z M28.4,47.6
			L28.1,49h-0.7l1.3-7h1.1l1.3,7h-0.8l-0.1-1.4H28.4z M28.5,47h1.6l-0.8-4L28.5,47z M32.6,49v-6.3h-1.3V42h3.3v0.7h-1.3V49H32.6z
			 M36.2,42.1v7h-0.8v-7H36.2z M37.1,43.7c0-0.5,0.1-1,0.4-1.3s0.7-0.5,1.2-0.5s0.9,0.2,1.2,0.5s0.4,0.7,0.4,1.3v3.6
			c0,0.5-0.1,1-0.4,1.3c-0.3,0.3-0.7,0.5-1.2,0.5s-0.9-0.2-1.2-0.5s-0.4-0.7-0.4-1.3V43.7z M37.9,47.4c0,0.3,0.1,0.6,0.2,0.7
			c0.1,0.2,0.3,0.3,0.6,0.3s0.5-0.1,0.6-0.3s0.2-0.4,0.2-0.7v-3.7c0-0.3-0.1-0.6-0.2-0.7c-0.1-0.1-0.3-0.3-0.6-0.3s-0.5,0.1-0.6,0.3
			s-0.2,0.4-0.2,0.7V47.4z M42,49h-0.7v-7h1l1.6,5v-5h0.7v7h-0.8L42,43.4V49z M47.1,42c0.5,0,0.9,0.2,1.2,0.5s0.4,0.7,0.4,1.3V44H48
			v-0.2c0-0.3-0.1-0.6-0.2-0.7c-0.1-0.2-0.3-0.3-0.6-0.3s-0.5,0.1-0.6,0.3s-0.2,0.4-0.2,0.7s0.1,0.5,0.2,0.7
			c0.1,0.2,0.3,0.4,0.4,0.5c0.2,0.2,0.4,0.3,0.6,0.5c0.2,0.2,0.4,0.3,0.6,0.5c0.2,0.2,0.3,0.4,0.4,0.6c0.1,0.2,0.2,0.5,0.2,0.8
			c0,0.5-0.1,1-0.4,1.3c-0.3,0.3-0.7,0.5-1.2,0.5S46.3,49,46,48.7s-0.4-0.7-0.4-1.3V47h0.7v0.4c0,0.3,0.1,0.6,0.2,0.7
			c0.1,0.2,0.3,0.3,0.6,0.3s0.5-0.1,0.6-0.3s0.2-0.4,0.2-0.7s-0.1-0.5-0.2-0.7s-0.3-0.4-0.4-0.5c-0.2-0.2-0.4-0.3-0.6-0.5
			s-0.4-0.3-0.6-0.5c-0.2-0.2-0.3-0.4-0.4-0.6c-0.1-0.2-0.2-0.5-0.2-0.8c0-0.5,0.1-1,0.4-1.3C46.2,42.1,46.6,42,47.1,42z M1.9,54.1
			v7H1.1v-7H1.9z M3.5,61H2.8v-7h1l1.6,5v-5h0.7v7H5.3l-1.8-5.6C3.5,55.4,3.5,61,3.5,61z M8.1,61v-6.3H6.8V54h3.3v0.7H8.9V61H8.1z
			 M13.5,57.2v0.7h-1.7v2.4h2.1V61H11v-7h2.9v0.7h-2.1v2.4L13.5,57.2C13.5,57.1,13.5,57.2,13.5,57.2z M16.3,54.1
			c0.5,0,0.9,0.1,1.2,0.4c0.2,0.3,0.4,0.7,0.4,1.2v0.6c0,0.4-0.1,0.7-0.2,0.9s-0.4,0.4-0.7,0.5c0.3,0.1,0.5,0.3,0.7,0.5
			c0.1,0.2,0.2,0.6,0.2,0.9v1.1c0,0.2,0,0.3,0,0.4c0,0.1,0.1,0.3,0.1,0.4h-0.8c0-0.1-0.1-0.2-0.1-0.3s0-0.3,0-0.5v-1.1
			c0-0.4-0.1-0.7-0.3-0.8c-0.2-0.1-0.4-0.2-0.8-0.2h-0.5v3h-0.8v-7C14.7,54.1,16.3,54.1,16.3,54.1z M16.1,57.4
			c0.3,0,0.6-0.1,0.7-0.2c0.2-0.1,0.3-0.4,0.3-0.8v-0.7c0-0.3-0.1-0.6-0.2-0.7c-0.1-0.2-0.3-0.2-0.6-0.2h-0.8v2.6
			C15.5,57.4,16.1,57.4,16.1,57.4z M19.6,61h-0.7v-7h1l1.6,5v-5h0.7v7h-0.8l-1.8-5.6C19.6,55.4,19.6,61,19.6,61z M23.9,59.6L23.6,61
			h-0.7l1.3-7h1.1l1.3,7h-0.8l-0.3-1.4H23.9z M24,59h1.6l-0.8-4L24,59z M28.2,61v-6.3h-1.3V54h3.3v0.7h-1.3V61H28.2z M31.7,54.1v7
			h-0.8v-7H31.7z M32.6,55.8c0-0.5,0.1-1,0.4-1.3c0.3-0.3,0.7-0.5,1.2-0.5s0.9,0.2,1.2,0.5s0.4,0.7,0.4,1.3v3.5c0,0.5-0.1,1-0.4,1.3
			c-0.3,0.3-0.7,0.5-1.2,0.5s-0.9-0.2-1.2-0.5s-0.4-0.7-0.4-1.3V55.8z M33.4,59.4c0,0.3,0.1,0.6,0.2,0.7c0.1,0.1,0.3,0.3,0.6,0.3
			s0.5-0.1,0.6-0.3s0.2-0.4,0.2-0.7v-3.7c0-0.3-0.1-0.6-0.2-0.7c-0.1-0.1-0.3-0.3-0.6-0.3s-0.5,0.1-0.6,0.3s-0.2,0.4-0.2,0.7V59.4z
			 M37.4,61h-0.7v-7h1l1.6,5v-5H40v7h-0.8l-1.8-5.6V61z M41.9,59.6L41.6,61h-0.7l1.3-7h1.1l1.3,7h-0.8l-0.3-1.4H41.9z M42,59h1.6
			l-0.8-4L42,59z M45.5,61v-7h0.8v6.3h2V61H45.5z M51.5,57.2v0.7h-1.7v2.4h2.1V61H49v-7h2.9v0.7h-2.1v2.4L51.5,57.2
			C51.5,57.1,51.5,57.2,51.5,57.2z M54.3,54c0.5,0,0.9,0.2,1.2,0.5s0.4,0.7,0.4,1.3V56h-0.7v-0.2c0-0.3-0.1-0.6-0.2-0.7
			c-0.1-0.2-0.3-0.3-0.6-0.3s-0.5,0.1-0.6,0.3s-0.2,0.4-0.2,0.7s0.1,0.5,0.2,0.7s0.3,0.4,0.4,0.5c0.2,0.2,0.4,0.3,0.6,0.5
			c0.2,0.2,0.4,0.3,0.6,0.5c0.2,0.2,0.3,0.4,0.4,0.6c0.1,0.2,0.2,0.5,0.2,0.8c0,0.5-0.1,1-0.4,1.3c-0.3,0.3-0.7,0.5-1.2,0.5
			s-0.9-0.2-1.2-0.5s-0.4-0.7-0.4-1.3V59h0.7v0.4c0,0.3,0.1,0.6,0.2,0.7c0.1,0.2,0.3,0.3,0.6,0.3s0.5-0.1,0.6-0.3s0.2-0.4,0.2-0.7
			s-0.1-0.5-0.2-0.7c-0.1-0.2-0.3-0.4-0.4-0.5c-0.2-0.2-0.4-0.3-0.6-0.5s-0.4-0.3-0.6-0.5c-0.2-0.2-0.3-0.4-0.4-0.6
			c-0.1-0.2-0.2-0.5-0.2-0.8c0-0.5,0.1-1,0.4-1.3C53.4,54.2,53.8,54,54.3,54z"/>
		<g transform="translate(97)">
			<path class="st2" d="M95.8,20.9c26.4,15.9,41.1,43.9,41.4,72.8"/>
			<path class="st3" d="M9.7,19.3c27-14.8,58.6-13.7,83.8,0.4"/>
			<path class="st4" d="M-34.4,92.5c0.7-30.4,17.5-57.1,41.8-71.8"/>
			<path class="st2" d="M6.9,167.7c-26.4-15.9-41.1-43.9-41.4-72.8"/>
			<path class="st5" d="M93,169.7c-26.9,14.8-58.6,13.7-83.8-0.4"/>
			<path class="st6" d="M137.2,95.6c-0.8,30.4-17.5,57.1-41.8,71.7"/>
		</g>
	</g>
	<text transform="matrix(1 0 0 1 119.7081 165.562)" class="st1 st7 st8">Dont 37 950 visiteurs </text>
	<text transform="matrix(1 0 0 1 131.4268 180.1001)" class="st1 st7 st8">professionnels</text>
	<text transform="matrix(1 0 0 1 152.1417 31.3638)" class="st9 st10 st11">57</text>
	<text transform="matrix(1 0 0 1 254.9863 89.9316)" class="st12 st10 st11">1 000 +</text>
	<text transform="matrix(1 0 0 1 129.543 261.8979)" class="st13 st10 st11">3 millions</text>
	<text transform="matrix(1 0 0 1 260.3867 189.2075)" class="st14 st10 st11">8 118</text>
	<text transform="matrix(1 0 0 1 33.5898 83.2852)" class="st15 st10 st11">65</text>
	<text transform="matrix(1 0 0 1 36.082 192.9448)" class="st12 st10 st11">27</text>
	<text transform="matrix(1 0 0 1 259.1406 103.2236)" class="st1 st7 st16">EXPOSANTS</text>
	<text transform="matrix(1 0 0 1 251.144 203.3301)" class="st1 st7 st16">RETOMBÉES PRESSE</text>
	<text transform="matrix(1 0 0 1 126.8525 276.8525)" class="st1 st7 st16">de personnes touchées </text>
	<text transform="matrix(1 0 0 1 124.5581 289.3135)" class="st1 st7 st16">sur les réseaux sociaux</text>
	<text transform="matrix(1 0 0 1 15.3237 207.4839)" class="st1 st7 st16">pays représentés</text>
	<text transform="matrix(1 0 0 1 133.4406 124.6528)" class="st1 st10 st11">633 213</text>
	<text transform="matrix(1 0 0 1 186.1089 124.6528)" class="st1 st10 st11"> </text>
	<text transform="matrix(1 0 0 1 127.7926 146.668)" class="st1 st10 st11">visiteurs</text>
</g>
</svg>
