<?xml version="1.0" encoding="utf-8"?>
<!-- Generator: Adobe Illustrator 22.0.1, SVG Export Plug-In . SVG Version: 6.00 Build 0)  -->
<svg version="1.1" xmlns="http://www.w3.org/2000/svg" xmlns:xlink="http://www.w3.org/1999/xlink" x="0px" y="0px"
	 viewBox="0 0 298.8 279.1" style="enable-background:new 0 0 298.8 279.1;" xml:space="preserve">
<style type="text/css">
	.st0{display:none;}
	.st1{display:inline;}
	.st2{fill:#FFFFFF;}
	.st3{fill:#2A2A2A;}
	.st4{fill:none;stroke:#F6A723;stroke-width:9;}
	.st5{fill:none;stroke:#E74892;stroke-width:9;}
	.st6{fill:none;stroke:#E74427;stroke-width:9;}
	.st7{fill:none;stroke:#80BA27;stroke-width:9;}
	.st8{fill:none;stroke:#30B3E8;stroke-width:9;}
	.st9{font-family:'BebasNeueRegular';}
	.st10{font-size:12.0073px;}
	.st11{fill:#E74892;}
	.st12{font-family:'BebasNeueBold';}
	.st13{font-size:21.5303px;}
	.st14{fill:#F6A723;}
	.st15{fill:#80BA27;}
	.st16{fill:#30B3E8;}
	.st17{fill:#E74427;}
	.st18{font-size:10.3511px;}
	.st19{enable-background:new    ;}
</style>
<g id="Calque_1" class="st0">
	<g transform="translate(-14 -12)" class="st1">
		<g transform="translate(14 48)">
			<circle class="st2" cx="147.3" cy="93.9" r="72.9"/>
			<path class="st3" d="M116.8-10l1.1,6.1L119-10h0.7l-1.3,7h-1.1l-1.3-7H116.8z M121.3-10v7h-0.8v-7H121.3z M123.8-10.1
				c0.5,0,0.9,0.2,1.2,0.5c0.3,0.3,0.4,0.7,0.4,1.3v0.2h-0.7v-0.2c0-0.3-0.1-0.6-0.2-0.7c-0.1-0.2-0.3-0.3-0.6-0.3
				c-0.3,0-0.5,0.1-0.6,0.3s-0.2,0.4-0.2,0.7s0.1,0.5,0.2,0.7s0.3,0.4,0.4,0.5c0.2,0.2,0.4,0.3,0.6,0.5s0.4,0.3,0.6,0.5
				s0.3,0.4,0.4,0.6s0.2,0.5,0.2,0.8c0,0.5-0.1,1-0.4,1.3s-0.7,0.5-1.2,0.5s-0.9-0.2-1.2-0.5s-0.4-0.7-0.4-1.3v-0.4h0.7v0.4
				c0,0.3,0.1,0.6,0.2,0.7c0.1,0.2,0.3,0.3,0.6,0.3s0.5-0.1,0.6-0.3c0.1-0.2,0.2-0.4,0.2-0.7c0-0.3-0.1-0.5-0.2-0.7
				s-0.3-0.4-0.4-0.5s-0.4-0.3-0.6-0.5s-0.4-0.3-0.6-0.5s-0.3-0.4-0.4-0.6s-0.2-0.5-0.2-0.8c0-0.5,0.1-1,0.4-1.3
				S123.3-10.1,123.8-10.1z M127-10v7h-0.8v-7H127z M129-3v-6.3h-1.3V-10h3.3v0.7h-1.3V-3H129z M134.2-6.9v0.7h-1.7v2.5h2.1V-3h-2.9
				v-7h2.9v0.7h-2.1v2.4H134.2z M137-10.1c0.5,0,0.9,0.2,1.2,0.5s0.4,0.7,0.4,1.3v0.2h-0.7v-0.2c0-0.3-0.1-0.6-0.2-0.7
				c-0.1-0.2-0.3-0.3-0.6-0.3s-0.5,0.1-0.6,0.3s-0.2,0.4-0.2,0.7s0.1,0.5,0.2,0.7s0.3,0.4,0.4,0.5c0.2,0.2,0.4,0.3,0.6,0.5
				c0.2,0.2,0.4,0.3,0.6,0.5c0.2,0.2,0.3,0.4,0.4,0.6s0.2,0.5,0.2,0.8c0,0.5-0.1,1-0.4,1.3S137.5-3,137-3s-0.9-0.2-1.2-0.5
				s-0.4-0.7-0.4-1.3v-0.4h0.7v0.4c0,0.3,0.1,0.6,0.2,0.7c0.1,0.2,0.3,0.3,0.6,0.3s0.5-0.1,0.6-0.3c0.1-0.2,0.2-0.4,0.2-0.7
				c0-0.3-0.1-0.5-0.2-0.7s-0.3-0.4-0.4-0.5s-0.4-0.3-0.6-0.5c-0.2-0.2-0.4-0.3-0.6-0.5c-0.2-0.2-0.3-0.4-0.4-0.6
				c-0.1-0.2-0.2-0.5-0.2-0.8c0-0.5,0.1-1,0.4-1.3S136.5-10.1,137-10.1z M141.1-8.3c0-0.5,0.1-1,0.4-1.3c0.3-0.3,0.7-0.5,1.2-0.5
				s0.9,0.2,1.2,0.5s0.4,0.7,0.4,1.3v3.6c0,0.5-0.1,1-0.4,1.3c-0.3,0.3-0.7,0.5-1.2,0.5s-0.9-0.2-1.2-0.5s-0.4-0.7-0.4-1.3V-8.3z
				 M141.9-4.7c0,0.3,0.1,0.6,0.2,0.7c0.1,0.2,0.3,0.3,0.6,0.3s0.5-0.1,0.6-0.3s0.2-0.4,0.2-0.7v-3.7c0-0.3-0.1-0.6-0.2-0.7
				s-0.3-0.3-0.6-0.3s-0.5,0.1-0.6,0.3s-0.2,0.4-0.2,0.7V-4.7z M147.6-6.8V-6H146v3h-0.8v-7h2.8v0.7h-2v2.5H147.6z M151.2-6.8V-6
				h-1.6v3h-0.8v-7h2.8v0.7h-2v2.5H151.2z M153.2-10v7h-0.8v-7H153.2z M155.7-10.1c0.5,0,0.9,0.2,1.2,0.5s0.4,0.7,0.4,1.3v0.6h-0.7
				v-0.7c0-0.3-0.1-0.6-0.2-0.7s-0.3-0.3-0.6-0.3s-0.5,0.1-0.6,0.3S155-8.7,155-8.4v3.7c0,0.3,0.1,0.6,0.2,0.7
				c0.1,0.2,0.3,0.3,0.6,0.3s0.5-0.1,0.6-0.3c0.1-0.2,0.2-0.4,0.2-0.7v-0.9h0.7v0.9c0,0.5-0.1,1-0.4,1.3c-0.3,0.3-0.7,0.5-1.2,0.5
				s-0.9-0.2-1.2-0.5s-0.4-0.7-0.4-1.3v-3.6c0-0.3,0-0.5,0.1-0.7s0.2-0.4,0.3-0.6c0.1-0.2,0.3-0.3,0.5-0.4
				C155.2-10,155.4-10.1,155.7-10.1z M158.9-10v7h-0.8v-7H158.9z M162.4-6.9v0.7h-1.7v2.5h2.1V-3h-2.9v-7h2.9v0.7h-2.1v2.4H162.4z
				 M163.7-3v-7h0.8v6.3h2V-3H163.7z M167.2-3v-7h0.8v6.3h2V-3H167.2z M173.3-6.9v0.7h-1.7v2.5h2.1V-3h-2.9v-7h2.9v0.7h-2.1v2.4
				H173.3z M176-10.1c0.5,0,0.9,0.2,1.2,0.5s0.4,0.7,0.4,1.3v0.2h-0.7v-0.2c0-0.3-0.1-0.6-0.2-0.7c-0.1-0.2-0.3-0.3-0.6-0.3
				s-0.5,0.1-0.6,0.3s-0.2,0.4-0.2,0.7s0.1,0.5,0.2,0.7s0.3,0.4,0.4,0.5c0.2,0.2,0.4,0.3,0.6,0.5s0.4,0.3,0.6,0.5
				c0.2,0.2,0.3,0.4,0.4,0.6s0.2,0.5,0.2,0.8c0,0.5-0.1,1-0.4,1.3S176.5-3,176-3s-0.9-0.2-1.2-0.5s-0.4-0.7-0.4-1.3v-0.4h0.7v0.4
				c0,0.3,0.1,0.6,0.2,0.7c0.1,0.2,0.3,0.3,0.6,0.3s0.5-0.1,0.6-0.3c0.1-0.2,0.2-0.4,0.2-0.7c0-0.3-0.1-0.5-0.2-0.7
				c-0.1-0.2-0.3-0.4-0.4-0.5s-0.4-0.3-0.6-0.5s-0.4-0.3-0.6-0.5c-0.2-0.2-0.3-0.4-0.4-0.6c-0.1-0.2-0.2-0.5-0.2-0.8
				c0-0.5,0.1-1,0.4-1.3S175.5-10.1,176-10.1z"/>
			<path class="st3" d="M9.8,41.8c0.5,0,0.9,0.2,1.2,0.5s0.4,0.7,0.4,1.3V47c0,0.5-0.1,1-0.4,1.3c-0.3,0.3-0.7,0.5-1.2,0.5H8.2v-7
				H9.8z M9.8,48c0.3,0,0.5-0.1,0.6-0.3s0.2-0.4,0.2-0.7v-3.6c0-0.3-0.1-0.6-0.2-0.7c-0.1-0.2-0.3-0.3-0.6-0.3H9V48H9.8z M14.8,40.4
				l-0.9,1h-0.5l0.7-1H14.8z M14.8,44.8v0.7h-1.7V48h2.1v0.7h-2.9v-7h2.9v0.7h-2.1v2.4C13.1,44.8,14.8,44.8,14.8,44.8z M16.1,48.7
				v-7h0.8V48h2v0.7H16.1z M22.1,40.4l-0.9,1h-0.5l0.7-1H22.1z M22.1,44.8v0.7h-1.7V48h2.1v0.7h-2.9v-7h2.9v0.7h-2.1v2.4
				C20.4,44.8,22.1,44.8,22.1,44.8z M24.9,41.7c0.5,0,0.9,0.2,1.2,0.5c0.3,0.3,0.4,0.7,0.4,1.3V44h-0.7v-0.6c0-0.3-0.1-0.6-0.2-0.7
				c-0.1-0.2-0.3-0.3-0.6-0.3c-0.3,0-0.5,0.1-0.6,0.3s-0.2,0.4-0.2,0.7v3.7c0,0.3,0.1,0.6,0.2,0.7s0.3,0.3,0.6,0.3
				c0.3,0,0.5-0.1,0.6-0.3s0.2-0.4,0.2-0.7v-1.4h-0.7V45h1.5v2c0,0.5-0.1,1-0.4,1.3s-0.7,0.5-1.2,0.5s-0.9-0.2-1.2-0.5
				c-0.3-0.3-0.4-0.7-0.4-1.3v-3.6c0-0.3,0-0.5,0.1-0.7s0.2-0.4,0.3-0.6s0.3-0.3,0.5-0.4C24.4,41.7,24.7,41.7,24.9,41.7z M28.2,47.3
				l-0.3,1.4h-0.7l1.3-7h1.1l1.3,7h-0.8L30,47.3H28.2z M28.3,46.7h1.6l-0.8-4L28.3,46.7z M32.4,48.7v-6.3h-1.3v-0.7h3.3v0.7h-1.3
				v6.3H32.4z M36,41.8v7h-0.8v-7H36z M36.9,43.4c0-0.5,0.1-1,0.4-1.3c0.3-0.3,0.7-0.5,1.2-0.5s0.9,0.2,1.2,0.5s0.4,0.7,0.4,1.3V47
				c0,0.5-0.1,1-0.4,1.3s-0.7,0.5-1.2,0.5s-0.9-0.2-1.2-0.5s-0.4-0.7-0.4-1.3V43.4z M37.7,47.1c0,0.3,0.1,0.6,0.2,0.7
				c0.1,0.2,0.3,0.3,0.6,0.3s0.5-0.1,0.6-0.3s0.2-0.4,0.2-0.7v-3.7c0-0.3-0.1-0.6-0.2-0.7s-0.3-0.3-0.6-0.3s-0.5,0.1-0.6,0.3
				s-0.2,0.4-0.2,0.7V47.1z M41.7,48.7H41v-7h1l1.6,5v-5h0.7v7h-0.8l-1.8-5.6V48.7z M46.8,41.7c0.5,0,0.9,0.2,1.2,0.5
				s0.4,0.7,0.4,1.3v0.2h-0.7v-0.2c0-0.3-0.1-0.6-0.2-0.7c-0.1-0.2-0.3-0.3-0.6-0.3s-0.5,0.1-0.6,0.3s-0.2,0.4-0.2,0.7
				s0.1,0.5,0.2,0.7c0.1,0.2,0.3,0.4,0.4,0.5c0.2,0.2,0.4,0.3,0.6,0.5c0.2,0.2,0.4,0.3,0.6,0.5c0.2,0.2,0.3,0.4,0.4,0.6
				c0.1,0.2,0.2,0.5,0.2,0.8c0,0.5-0.1,1-0.4,1.3c-0.3,0.3-0.7,0.5-1.2,0.5s-0.9-0.2-1.2-0.5s-0.4-0.7-0.4-1.3v-0.4H46v0.4
				c0,0.3,0.1,0.6,0.2,0.7c0.1,0.2,0.3,0.3,0.6,0.3s0.5-0.1,0.6-0.3s0.2-0.4,0.2-0.7s-0.1-0.5-0.2-0.7c-0.1-0.2-0.3-0.4-0.4-0.5
				c-0.2-0.2-0.4-0.3-0.6-0.5c-0.2-0.2-0.4-0.3-0.6-0.5c-0.2-0.2-0.3-0.4-0.4-0.6c-0.1-0.2-0.2-0.5-0.2-0.8c0-0.5,0.1-1,0.4-1.3
				C45.9,41.8,46.3,41.7,46.8,41.7z M1.8,53.8v7H1v-7H1.8z M3.4,60.7H2.7v-7h1l1.6,5v-5H6v7H5.2l-1.8-5.6
				C3.4,55.1,3.4,60.7,3.4,60.7z M8,60.7v-6.3H6.7v-0.7H10v0.7H8.8v6.3H8z M13.3,56.9v0.7h-1.7V60h2.1v0.7h-2.9v-7h2.9v0.7h-2.1v2.4
				L13.3,56.9L13.3,56.9z M16.1,53.8c0.5,0,0.9,0.1,1.2,0.4c0.2,0.3,0.4,0.7,0.4,1.2V56c0,0.4-0.1,0.7-0.2,0.9s-0.4,0.4-0.7,0.5
				c0.3,0.1,0.5,0.3,0.7,0.5c0.1,0.2,0.2,0.6,0.2,0.9v1.1c0,0.2,0,0.3,0,0.4c0,0.1,0.1,0.3,0.1,0.4H17c0-0.1-0.1-0.2-0.1-0.3
				s0-0.3,0-0.5v-1.1c0-0.4-0.1-0.7-0.3-0.8c-0.2-0.1-0.4-0.2-0.8-0.2h-0.5v3h-0.8v-7C14.5,53.8,16.1,53.8,16.1,53.8z M15.9,57.1
				c0.3,0,0.6-0.1,0.7-0.2c0.2-0.1,0.3-0.4,0.3-0.8v-0.7c0-0.3-0.1-0.6-0.2-0.7c-0.1-0.2-0.3-0.2-0.6-0.2h-0.8v2.6
				C15.3,57.1,15.9,57.1,15.9,57.1z M19.4,60.7h-0.7v-7h1l1.6,5v-5H22v7h-0.8l-1.8-5.6C19.4,55.1,19.4,60.7,19.4,60.7z M23.7,59.3
				l-0.3,1.4h-0.7l1.3-7h1.1l1.3,7h-0.8l-0.3-1.4H23.7z M23.8,58.7h1.6l-0.8-4L23.8,58.7z M28,60.7v-6.3h-1.3v-0.7H30v0.7h-1.3v6.3
				H28z M31.5,53.8v7h-0.8v-7H31.5z M32.4,55.5c0-0.5,0.1-1,0.4-1.3c0.3-0.3,0.7-0.5,1.2-0.5s0.9,0.2,1.2,0.5s0.4,0.7,0.4,1.3V59
				c0,0.5-0.1,1-0.4,1.3c-0.3,0.3-0.7,0.5-1.2,0.5s-0.9-0.2-1.2-0.5s-0.4-0.7-0.4-1.3V55.5z M33.2,59.1c0,0.3,0.1,0.6,0.2,0.7
				s0.3,0.3,0.6,0.3s0.5-0.1,0.6-0.3s0.2-0.4,0.2-0.7v-3.7c0-0.3-0.1-0.6-0.2-0.7s-0.3-0.3-0.6-0.3s-0.5,0.1-0.6,0.3
				s-0.2,0.4-0.2,0.7V59.1z M37.2,60.7h-0.7v-7h1l1.6,5v-5h0.7v7H39l-1.8-5.6V60.7z M41.6,59.3l-0.3,1.4h-0.7l1.3-7H43l1.3,7h-0.8
				l-0.3-1.4H41.6z M41.7,58.7h1.6l-0.8-4L41.7,58.7z M45.2,60.7v-7H46V60h2v0.7H45.2z M51.2,56.9v0.7h-1.7V60h2.1v0.7h-2.9v-7h2.9
				v0.7h-2.1v2.4L51.2,56.9L51.2,56.9z M54,53.7c0.5,0,0.9,0.2,1.2,0.5s0.4,0.7,0.4,1.3v0.2h-0.7v-0.2c0-0.3-0.1-0.6-0.2-0.7
				c-0.1-0.2-0.3-0.3-0.6-0.3s-0.5,0.1-0.6,0.3s-0.2,0.4-0.2,0.7s0.1,0.5,0.2,0.7c0.1,0.2,0.3,0.4,0.4,0.5c0.2,0.2,0.4,0.3,0.6,0.5
				s0.4,0.3,0.6,0.5c0.2,0.2,0.3,0.4,0.4,0.6c0.1,0.2,0.2,0.5,0.2,0.8c0,0.5-0.1,1-0.4,1.3c-0.3,0.3-0.7,0.5-1.2,0.5
				s-0.9-0.2-1.2-0.5s-0.4-0.7-0.4-1.3v-0.4h0.7v0.4c0,0.3,0.1,0.6,0.2,0.7c0.1,0.2,0.3,0.3,0.6,0.3s0.5-0.1,0.6-0.3
				s0.2-0.4,0.2-0.7s-0.1-0.5-0.2-0.7s-0.3-0.4-0.4-0.5c-0.2-0.2-0.4-0.3-0.6-0.5s-0.4-0.3-0.6-0.5c-0.2-0.2-0.3-0.4-0.4-0.6
				c-0.1-0.2-0.2-0.5-0.2-0.8c0-0.5,0.1-1,0.4-1.3C53.1,53.9,53.5,53.7,54,53.7z"/>
			<g transform="translate(97)">
				<path class="st4" d="M95.1,20.7c26.3,15.8,41,43.8,41.3,72.6"/>
				<path class="st5" d="M9.2,19.1C36.1,4.3,67.6,5.4,92.7,19.5"/>
				<path class="st6" d="M-34.7,92.1C-34,61.8-17.3,35.2,7,20.5"/>
				<path class="st4" d="M6.4,167c-26.3-15.8-41-43.8-41.3-72.6"/>
				<path class="st7" d="M92.3,169c-26.8,14.8-58.4,13.7-83.5-0.4"/>
				<path class="st8" d="M136.3,95.2c-0.8,30.3-17.4,56.9-41.7,71.5"/>
			</g>
		</g>
		<text transform="matrix(1 0 0 1 109.2823 165.0684)" class="st3 st9 st10">et plus de 33 000 visiteurs </text>
		<text transform="matrix(1 0 0 1 130.9317 179.5596)" class="st3 st9 st10">professionnels</text>
		<text transform="matrix(1 0 0 1 150.5831 31.3013)" class="st11 st12 st13">40+</text>
		<text transform="matrix(1 0 0 1 254.0943 89.6812)" class="st14 st12 st13">1 000 +</text>
		<text transform="matrix(1 0 0 1 129.0538 261.0947)" class="st15 st12 st13">8 millions</text>
		<text transform="matrix(1 0 0 1 259.4771 188.6377)" class="st16 st12 st13">9 869</text>
		<text transform="matrix(1 0 0 1 33.4093 83.0562)" class="st17 st12 st13">68</text>
		<text transform="matrix(1 0 0 1 35.8936 192.3633)" class="st14 st12 st13">22</text>
		<text transform="matrix(1 0 0 1 258.235 102.9302)" class="st3 st9 st18">EXPOSANTS</text>
		<text transform="matrix(1 0 0 1 250.2642 202.7148)" class="st3 st9 st18">RETOMBÉES PRESSE</text>
		<text transform="matrix(1 0 0 1 126.3722 276.001)" class="st3 st9 st18">de personnes touchées </text>
		<text transform="matrix(1 0 0 1 124.085 288.4219)" class="st3 st9 st18">sur les réseaux sociaux</text>
		<text transform="matrix(1 0 0 1 15.2017 206.8555)" class="st3 st9 st18">pays représentés</text>
		<text transform="matrix(1 0 0 1 130.9454 124.2905)" class="st3 st12 st13">672 568</text>
		<text transform="matrix(1 0 0 1 185.4381 124.2905)" class="st3 st12 st13"> </text>
		<text transform="matrix(1 0 0 1 125.3155 146.2349)" class="st3 st12 st13">visiteurs</text>
	</g>
</g>
<g id="Calque_2">
	<g>
		<g transform="translate(-32 -12)">
			<g transform="translate(111 47)">
				<circle class="st2" cx="66.8" cy="95.3" r="73"/>
				<g>
					<path class="st4" d="M111.7,22c26.3,15.8,41.1,43.9,41.4,72.8"/>
					<path class="st5" d="M25.6,20.5c26.9-14.9,58.5-13.8,83.6,0.4"/>
					<path class="st6" d="M-18.5,93.5c0.8-30.4,17.4-57,41.8-71.7"/>
					<path class="st4" d="M22.8,168.7c-26.3-15.8-41.1-43.9-41.4-72.8"/>
					<path class="st7" d="M108.9,170.6c-26.9,14.9-58.5,13.8-83.6-0.4"/>
					<path class="st8" d="M152.9,96.7c-0.8,30.4-17.4,57-41.8,71.7"/>
				</g>
			</g>
			<g class="st19">
				<path class="st3" d="M148.8,160.9l-0.3,1.7h-0.9l1.6-8.4h1.4l1.6,8.4h-0.9l-0.3-1.7H148.8z M148.9,160.1h1.9l-1-4.9L148.9,160.1
					z"/>
				<path class="st3" d="M153.7,162.6h-0.8v-8.4h1.2l1.9,6.1v-6.1h0.8v8.4h-1l-2.2-6.8V162.6z"/>
				<path class="st3" d="M159.8,154.2c0.7,0,1.1,0.2,1.5,0.6c0.3,0.4,0.5,0.9,0.5,1.5v4.2c0,0.7-0.2,1.2-0.5,1.5
					c-0.3,0.4-0.8,0.6-1.5,0.6h-2v-8.4H159.8z M159.8,161.7c0.3,0,0.6-0.1,0.8-0.3c0.2-0.2,0.2-0.5,0.2-0.9v-4.3
					c0-0.4-0.1-0.7-0.2-0.9c-0.2-0.2-0.4-0.3-0.8-0.3h-1v6.7H159.8z"/>
				<path class="st3" d="M164.4,156.2c0-0.6,0.2-1.2,0.5-1.5s0.8-0.6,1.5-0.6s1.1,0.2,1.5,0.6c0.3,0.4,0.5,0.9,0.5,1.5v4.4
					c0,0.6-0.2,1.2-0.5,1.5c-0.3,0.4-0.8,0.6-1.5,0.6s-1.1-0.2-1.5-0.6c-0.3-0.4-0.5-0.9-0.5-1.5V156.2z M165.3,160.6
					c0,0.4,0.1,0.7,0.2,0.9s0.4,0.3,0.8,0.3c0.3,0,0.6-0.1,0.8-0.3s0.2-0.5,0.2-0.9v-4.5c0-0.4-0.1-0.7-0.2-0.9
					c-0.2-0.2-0.4-0.3-0.8-0.3c-0.3,0-0.6,0.1-0.8,0.3c-0.2,0.2-0.2,0.5-0.2,0.9V160.6z"/>
				<path class="st3" d="M169.8,154.2l1.4,7.3l1.4-7.3h0.9l-1.6,8.4h-1.4l-1.6-8.4H169.8z"/>
				<path class="st3" d="M177.1,157.9v0.8h-2.1v3h2.5v0.9h-3.5v-8.4h3.5v0.9h-2.5v2.9H177.1z"/>
				<path class="st3" d="M180.4,154.2c0.7,0,1.1,0.2,1.4,0.5c0.3,0.3,0.4,0.8,0.4,1.4v0.7c0,0.5-0.1,0.8-0.3,1.1
					c-0.2,0.3-0.4,0.5-0.8,0.6c0.4,0.1,0.7,0.3,0.8,0.6c0.2,0.3,0.2,0.7,0.2,1.1v1.3c0,0.2,0,0.4,0,0.5c0,0.2,0.1,0.3,0.1,0.5h-1
					c-0.1-0.1-0.1-0.3-0.1-0.4c0-0.1,0-0.4,0-0.6v-1.3c0-0.5-0.1-0.8-0.3-1c-0.2-0.2-0.5-0.3-0.9-0.3h-0.7v3.6h-0.9v-8.4H180.4z
					 M180.1,158.1c0.4,0,0.7-0.1,0.9-0.2c0.2-0.2,0.3-0.5,0.3-0.9v-0.8c0-0.4-0.1-0.7-0.2-0.9c-0.1-0.2-0.4-0.3-0.8-0.3h-0.9v3.1
					H180.1z"/>
				<path class="st3" d="M186.9,154.1c0.7,0,1.1,0.2,1.4,0.6s0.5,0.9,0.5,1.5v0.2c0,0.4-0.1,0.8-0.3,1.1c-0.2,0.3-0.4,0.5-0.8,0.6
					c0.4,0.1,0.6,0.4,0.8,0.7c0.2,0.3,0.2,0.7,0.2,1.1v0.6c0,0.7-0.2,1.2-0.5,1.6c-0.3,0.4-0.8,0.6-1.4,0.6c-0.6,0-1.1-0.2-1.4-0.6
					c-0.3-0.4-0.5-0.9-0.5-1.5V160h0.9v0.6c0,0.4,0.1,0.7,0.2,0.9c0.2,0.2,0.4,0.3,0.7,0.3c0.3,0,0.6-0.1,0.8-0.3
					c0.2-0.2,0.2-0.5,0.2-1v-0.6c0-0.8-0.4-1.2-1.1-1.3h-0.5v-0.8h0.6c0.3,0,0.6-0.1,0.7-0.3c0.2-0.2,0.3-0.5,0.3-0.8v-0.4
					c0-0.4-0.1-0.8-0.2-1s-0.4-0.3-0.8-0.3c-0.3,0-0.6,0.1-0.7,0.3c-0.2,0.2-0.2,0.5-0.2,0.9v0.4H185v-0.4c0-0.6,0.2-1.2,0.5-1.5
					S186.3,154.1,186.9,154.1z"/>
				<path class="st3" d="M191.6,154.1c0.7,0,1.1,0.2,1.4,0.6s0.5,0.9,0.5,1.5v0.2c0,0.4-0.1,0.8-0.3,1.1c-0.2,0.3-0.4,0.5-0.8,0.6
					c0.4,0.1,0.6,0.4,0.8,0.7c0.2,0.3,0.2,0.7,0.2,1.1v0.6c0,0.7-0.2,1.2-0.5,1.6c-0.3,0.4-0.8,0.6-1.4,0.6c-0.6,0-1.1-0.2-1.4-0.6
					c-0.3-0.4-0.5-0.9-0.5-1.5V160h0.9v0.6c0,0.4,0.1,0.7,0.2,0.9c0.2,0.2,0.4,0.3,0.7,0.3c0.3,0,0.6-0.1,0.8-0.3
					c0.2-0.2,0.2-0.5,0.2-1v-0.6c0-0.8-0.4-1.2-1.1-1.3H191v-0.8h0.6c0.3,0,0.6-0.1,0.7-0.3c0.2-0.2,0.3-0.5,0.3-0.8v-0.4
					c0-0.4-0.1-0.8-0.2-1s-0.4-0.3-0.8-0.3c-0.3,0-0.6,0.1-0.7,0.3c-0.2,0.2-0.2,0.5-0.2,0.9v0.4h-0.9v-0.4c0-0.6,0.2-1.2,0.5-1.5
					S190.9,154.1,191.6,154.1z"/>
				<path class="st3" d="M194.8,162.6h-0.3v-1.2h0.9v1.1l-0.5,1.1h-0.4L194.8,162.6z"/>
				<path class="st3" d="M196.3,156.2c0-0.6,0.2-1.2,0.5-1.5c0.3-0.4,0.8-0.6,1.5-0.6c0.6,0,1.1,0.2,1.5,0.6
					c0.3,0.4,0.5,0.9,0.5,1.5v4.3c0,0.7-0.2,1.2-0.5,1.6c-0.3,0.4-0.8,0.6-1.5,0.6c-0.7,0-1.1-0.2-1.5-0.6c-0.3-0.4-0.5-0.9-0.5-1.6
					V156.2z M197.2,160.6c0,0.4,0.1,0.7,0.2,0.9c0.2,0.2,0.4,0.3,0.8,0.3c0.3,0,0.6-0.1,0.8-0.3s0.2-0.5,0.2-0.9v-4.5
					c0-0.4-0.1-0.7-0.2-0.9s-0.4-0.3-0.8-0.3c-0.3,0-0.6,0.1-0.8,0.3c-0.2,0.2-0.2,0.5-0.2,0.9V160.6z"/>
				<path class="st3" d="M200.9,156.2c0-0.6,0.2-1.2,0.5-1.5c0.3-0.4,0.8-0.6,1.5-0.6c0.6,0,1.1,0.2,1.5,0.6
					c0.3,0.4,0.5,0.9,0.5,1.5v4.3c0,0.7-0.2,1.2-0.5,1.6c-0.3,0.4-0.8,0.6-1.5,0.6c-0.7,0-1.1-0.2-1.5-0.6c-0.3-0.4-0.5-0.9-0.5-1.6
					V156.2z M201.9,160.6c0,0.4,0.1,0.7,0.2,0.9c0.2,0.2,0.4,0.3,0.8,0.3c0.3,0,0.6-0.1,0.8-0.3s0.2-0.5,0.2-0.9v-4.5
					c0-0.4-0.1-0.7-0.2-0.9s-0.4-0.3-0.8-0.3c-0.3,0-0.6,0.1-0.8,0.3c-0.2,0.2-0.2,0.5-0.2,0.9V160.6z"/>
				<path class="st3" d="M205.6,156.2c0-0.6,0.2-1.2,0.5-1.5c0.3-0.4,0.8-0.6,1.5-0.6c0.6,0,1.1,0.2,1.5,0.6
					c0.3,0.4,0.5,0.9,0.5,1.5v4.3c0,0.7-0.2,1.2-0.5,1.6c-0.3,0.4-0.8,0.6-1.5,0.6c-0.7,0-1.1-0.2-1.5-0.6c-0.3-0.4-0.5-0.9-0.5-1.6
					V156.2z M206.5,160.6c0,0.4,0.1,0.7,0.2,0.9c0.2,0.2,0.4,0.3,0.8,0.3c0.3,0,0.6-0.1,0.8-0.3s0.2-0.5,0.2-0.9v-4.5
					c0-0.4-0.1-0.7-0.2-0.9s-0.4-0.3-0.8-0.3c-0.3,0-0.6,0.1-0.8,0.3c-0.2,0.2-0.2,0.5-0.2,0.9V160.6z"/>
			</g>
			<g class="st19">
				<path class="st3" d="M138.3,168.7c0.7,0,1.1,0.2,1.4,0.5s0.4,0.9,0.4,1.5v1c0,0.7-0.2,1.2-0.5,1.5c-0.3,0.3-0.8,0.5-1.5,0.5
					h-0.8v3.3h-0.9v-8.4H138.3z M138.2,173c0.4,0,0.6-0.1,0.8-0.3c0.2-0.2,0.3-0.5,0.3-0.9v-1.1c0-0.4-0.1-0.7-0.2-0.9
					c-0.1-0.2-0.4-0.3-0.7-0.3h-0.9v3.4H138.2z"/>
				<path class="st3" d="M142.8,168.7c0.7,0,1.1,0.2,1.4,0.5c0.3,0.3,0.4,0.8,0.4,1.4v0.7c0,0.5-0.1,0.8-0.3,1.1
					c-0.2,0.3-0.4,0.5-0.8,0.6c0.4,0.1,0.7,0.3,0.8,0.6s0.2,0.7,0.2,1.1v1.3c0,0.2,0,0.4,0,0.5c0,0.2,0.1,0.3,0.1,0.5h-1
					c-0.1-0.1-0.1-0.3-0.1-0.4c0-0.1,0-0.4,0-0.6v-1.3c0-0.5-0.1-0.8-0.3-1c-0.2-0.2-0.5-0.3-0.9-0.3h-0.7v3.6h-0.9v-8.4H142.8z
					 M142.5,172.7c0.4,0,0.7-0.1,0.9-0.2c0.2-0.2,0.3-0.5,0.3-0.9v-0.8c0-0.4-0.1-0.7-0.2-0.9c-0.1-0.2-0.4-0.3-0.8-0.3h-0.9v3.1
					H142.5z"/>
				<path class="st3" d="M145.6,170.7c0-0.6,0.2-1.2,0.5-1.5s0.8-0.6,1.5-0.6s1.1,0.2,1.5,0.6c0.3,0.4,0.5,0.9,0.5,1.5v4.4
					c0,0.6-0.2,1.2-0.5,1.5c-0.3,0.4-0.8,0.6-1.5,0.6s-1.1-0.2-1.5-0.6c-0.3-0.4-0.5-0.9-0.5-1.5V170.7z M146.5,175.1
					c0,0.4,0.1,0.7,0.2,0.9s0.4,0.3,0.8,0.3c0.3,0,0.6-0.1,0.8-0.3s0.2-0.5,0.2-0.9v-4.5c0-0.4-0.1-0.7-0.2-0.9
					c-0.2-0.2-0.4-0.3-0.8-0.3c-0.3,0-0.6,0.1-0.8,0.3c-0.2,0.2-0.2,0.5-0.2,0.9V175.1z"/>
				<path class="st3" d="M153.2,172.6v0.9h-1.9v3.6h-0.9v-8.4h3.3v0.9h-2.4v3.1H153.2z"/>
				<path class="st3" d="M157.4,172.4v0.8h-2.1v3h2.5v0.9h-3.5v-8.4h3.5v0.9h-2.5v2.9H157.4z"/>
				<path class="st3" d="M160.5,168.6c0.6,0,1.1,0.2,1.4,0.6c0.3,0.4,0.5,0.9,0.5,1.5v0.2h-0.9v-0.3c0-0.4-0.1-0.7-0.2-0.9
					c-0.2-0.2-0.4-0.3-0.7-0.3s-0.6,0.1-0.7,0.3c-0.2,0.2-0.2,0.5-0.2,0.9c0,0.3,0.1,0.6,0.2,0.8c0.1,0.2,0.3,0.4,0.5,0.6
					c0.2,0.2,0.4,0.4,0.7,0.6s0.5,0.4,0.7,0.6c0.2,0.2,0.4,0.5,0.5,0.8c0.1,0.3,0.2,0.6,0.2,1c0,0.6-0.2,1.2-0.5,1.5
					c-0.3,0.4-0.8,0.6-1.4,0.6s-1.1-0.2-1.4-0.6c-0.3-0.4-0.5-0.9-0.5-1.5v-0.5h0.9v0.5c0,0.4,0.1,0.7,0.2,0.9
					c0.2,0.2,0.4,0.3,0.7,0.3s0.6-0.1,0.7-0.3c0.2-0.2,0.2-0.5,0.2-0.9c0-0.3-0.1-0.6-0.2-0.8c-0.1-0.2-0.3-0.4-0.5-0.6
					c-0.2-0.2-0.4-0.4-0.7-0.6s-0.5-0.4-0.7-0.6s-0.4-0.5-0.5-0.8c-0.1-0.3-0.2-0.6-0.2-1c0-0.6,0.2-1.2,0.5-1.5
					S159.9,168.6,160.5,168.6z"/>
				<path class="st3" d="M165,168.6c0.6,0,1.1,0.2,1.4,0.6c0.3,0.4,0.5,0.9,0.5,1.5v0.2H166v-0.3c0-0.4-0.1-0.7-0.2-0.9
					c-0.2-0.2-0.4-0.3-0.7-0.3s-0.6,0.1-0.7,0.3c-0.2,0.2-0.2,0.5-0.2,0.9c0,0.3,0.1,0.6,0.2,0.8c0.1,0.2,0.3,0.4,0.5,0.6
					c0.2,0.2,0.4,0.4,0.7,0.6s0.5,0.4,0.7,0.6c0.2,0.2,0.4,0.5,0.5,0.8c0.1,0.3,0.2,0.6,0.2,1c0,0.6-0.2,1.2-0.5,1.5
					c-0.3,0.4-0.8,0.6-1.4,0.6s-1.1-0.2-1.4-0.6c-0.3-0.4-0.5-0.9-0.5-1.5v-0.5h0.9v0.5c0,0.4,0.1,0.7,0.2,0.9
					c0.2,0.2,0.4,0.3,0.7,0.3s0.6-0.1,0.7-0.3c0.2-0.2,0.2-0.5,0.2-0.9c0-0.3-0.1-0.6-0.2-0.8c-0.1-0.2-0.3-0.4-0.5-0.6
					c-0.2-0.2-0.4-0.4-0.7-0.6s-0.5-0.4-0.7-0.6s-0.4-0.5-0.5-0.8c-0.1-0.3-0.2-0.6-0.2-1c0-0.6,0.2-1.2,0.5-1.5
					S164.4,168.6,165,168.6z"/>
				<path class="st3" d="M168.7,168.7v8.4h-0.9v-8.4H168.7z"/>
				<path class="st3" d="M169.5,170.7c0-0.6,0.2-1.2,0.5-1.5s0.8-0.6,1.5-0.6s1.1,0.2,1.5,0.6c0.3,0.4,0.5,0.9,0.5,1.5v4.4
					c0,0.6-0.2,1.2-0.5,1.5c-0.3,0.4-0.8,0.6-1.5,0.6s-1.1-0.2-1.5-0.6c-0.3-0.4-0.5-0.9-0.5-1.5V170.7z M170.5,175.1
					c0,0.4,0.1,0.7,0.2,0.9s0.4,0.3,0.8,0.3c0.3,0,0.6-0.1,0.8-0.3s0.2-0.5,0.2-0.9v-4.5c0-0.4-0.1-0.7-0.2-0.9
					c-0.2-0.2-0.4-0.3-0.8-0.3c-0.3,0-0.6,0.1-0.8,0.3c-0.2,0.2-0.2,0.5-0.2,0.9V175.1z"/>
				<path class="st3" d="M175.1,177.1h-0.8v-8.4h1.2l1.9,6.1v-6.1h0.8v8.4h-1l-2.2-6.8V177.1z"/>
				<path class="st3" d="M180.2,175.4l-0.3,1.7H179l1.6-8.4h1.4l1.6,8.4h-0.9l-0.3-1.7H180.2z M180.3,174.6h1.9l-1-4.9L180.3,174.6z
					"/>
				<path class="st3" d="M184.3,177.1v-8.4h0.9v7.6h2.4v0.9H184.3z"/>
				<path class="st3" d="M190.9,168.7l1.4,7.3l1.4-7.3h0.9l-1.6,8.4h-1.4l-1.6-8.4H190.9z"/>
				<path class="st3" d="M196.2,168.7v8.4h-0.9v-8.4H196.2z"/>
				<path class="st3" d="M198.9,168.6c0.6,0,1.1,0.2,1.4,0.6c0.3,0.4,0.5,0.9,0.5,1.5v0.2h-0.9v-0.3c0-0.4-0.1-0.7-0.2-0.9
					s-0.4-0.3-0.7-0.3s-0.6,0.1-0.7,0.3s-0.2,0.5-0.2,0.9c0,0.3,0.1,0.6,0.2,0.8c0.1,0.2,0.3,0.4,0.5,0.6c0.2,0.2,0.4,0.4,0.7,0.6
					s0.5,0.4,0.7,0.6c0.2,0.2,0.4,0.5,0.5,0.8c0.1,0.3,0.2,0.6,0.2,1c0,0.6-0.2,1.2-0.5,1.5c-0.3,0.4-0.8,0.6-1.4,0.6
					c-0.6,0-1.1-0.2-1.4-0.6c-0.3-0.4-0.5-0.9-0.5-1.5v-0.5h0.9v0.5c0,0.4,0.1,0.7,0.2,0.9c0.2,0.2,0.4,0.3,0.7,0.3s0.6-0.1,0.7-0.3
					c0.2-0.2,0.2-0.5,0.2-0.9c0-0.3-0.1-0.6-0.2-0.8s-0.3-0.4-0.5-0.6c-0.2-0.2-0.4-0.4-0.7-0.6c-0.2-0.2-0.5-0.4-0.7-0.6
					s-0.4-0.5-0.5-0.8c-0.1-0.3-0.2-0.6-0.2-1c0-0.6,0.2-1.2,0.5-1.5C197.8,168.8,198.3,168.6,198.9,168.6z"/>
				<path class="st3" d="M202.6,168.7v8.4h-0.9v-8.4H202.6z"/>
				<path class="st3" d="M204.7,177.1v-7.6h-1.6v-0.9h4v0.9h-1.6v7.6H204.7z"/>
				<path class="st3" d="M207.8,170.7c0-0.6,0.2-1.2,0.5-1.5c0.3-0.4,0.8-0.6,1.5-0.6c0.6,0,1.1,0.2,1.5,0.6
					c0.3,0.4,0.5,0.9,0.5,1.5v4.4c0,0.6-0.2,1.2-0.5,1.5c-0.3,0.4-0.8,0.6-1.5,0.6c-0.7,0-1.1-0.2-1.5-0.6c-0.3-0.4-0.5-0.9-0.5-1.5
					V170.7z M208.7,175.1c0,0.4,0.1,0.7,0.2,0.9c0.2,0.2,0.4,0.3,0.8,0.3c0.3,0,0.6-0.1,0.8-0.3s0.2-0.5,0.2-0.9v-4.5
					c0-0.4-0.1-0.7-0.2-0.9c-0.2-0.2-0.4-0.3-0.8-0.3c-0.3,0-0.6,0.1-0.8,0.3c-0.2,0.2-0.2,0.5-0.2,0.9V175.1z"/>
				<path class="st3" d="M214.4,168.7c0.7,0,1.1,0.2,1.4,0.5s0.4,0.8,0.4,1.4v0.7c0,0.5-0.1,0.8-0.3,1.1c-0.2,0.3-0.4,0.5-0.8,0.6
					c0.4,0.1,0.7,0.3,0.8,0.6c0.2,0.3,0.2,0.7,0.2,1.1v1.3c0,0.2,0,0.4,0,0.5c0,0.2,0.1,0.3,0.1,0.5h-1c-0.1-0.1-0.1-0.3-0.1-0.4
					c0-0.1,0-0.4,0-0.6v-1.3c0-0.5-0.1-0.8-0.3-1c-0.2-0.2-0.5-0.3-0.9-0.3h-0.7v3.6h-0.9v-8.4H214.4z M214.2,172.7
					c0.4,0,0.7-0.1,0.9-0.2c0.2-0.2,0.3-0.5,0.3-0.9v-0.8c0-0.4-0.1-0.7-0.2-0.9c-0.1-0.2-0.4-0.3-0.8-0.3h-0.9v3.1H214.2z"/>
				<path class="st3" d="M219,168.6c0.6,0,1.1,0.2,1.4,0.6c0.3,0.4,0.5,0.9,0.5,1.5v0.2H220v-0.3c0-0.4-0.1-0.7-0.2-0.9
					s-0.4-0.3-0.7-0.3s-0.6,0.1-0.7,0.3s-0.2,0.5-0.2,0.9c0,0.3,0.1,0.6,0.2,0.8c0.1,0.2,0.3,0.4,0.5,0.6c0.2,0.2,0.4,0.4,0.7,0.6
					s0.5,0.4,0.7,0.6c0.2,0.2,0.4,0.5,0.5,0.8c0.1,0.3,0.2,0.6,0.2,1c0,0.6-0.2,1.2-0.5,1.5c-0.3,0.4-0.8,0.6-1.4,0.6
					c-0.6,0-1.1-0.2-1.4-0.6c-0.3-0.4-0.5-0.9-0.5-1.5v-0.5h0.9v0.5c0,0.4,0.1,0.7,0.2,0.9c0.2,0.2,0.4,0.3,0.7,0.3s0.6-0.1,0.7-0.3
					c0.2-0.2,0.2-0.5,0.2-0.9c0-0.3-0.1-0.6-0.2-0.8s-0.3-0.4-0.5-0.6c-0.2-0.2-0.4-0.4-0.7-0.6c-0.2-0.2-0.5-0.4-0.7-0.6
					s-0.4-0.5-0.5-0.8c-0.1-0.3-0.2-0.6-0.2-1c0-0.6,0.2-1.2,0.5-1.5C217.9,168.8,218.4,168.6,219,168.6z"/>
			</g>
			<g class="st19">
				<path class="st11" d="M167.3,27.1l4.3-10.2h2.6v10.2h1.1v2.2h-1.1V32h-2.3v-2.7h-4.6V27.1z M171.9,27.1v-5.7l-2.4,5.7H171.9z"/>
				<path class="st11" d="M176.3,20.5c0-1.2,0.3-2.2,0.9-2.8c0.6-0.7,1.5-1,2.7-1c1.2,0,2.1,0.3,2.7,1c0.6,0.7,0.9,1.6,0.9,2.8v7.9
					c0,1.2-0.3,2.2-0.9,2.8c-0.6,0.7-1.5,1-2.7,1c-1.2,0-2.1-0.3-2.7-1s-0.9-1.6-0.9-2.8V20.5z M178.6,28.5c0,0.5,0.1,0.9,0.3,1.2
					c0.2,0.2,0.5,0.3,0.9,0.3s0.7-0.1,0.9-0.3c0.2-0.2,0.3-0.6,0.3-1.2v-8.2c0-0.5-0.1-0.9-0.3-1.2s-0.5-0.3-0.9-0.3
					s-0.7,0.1-0.9,0.3s-0.3,0.6-0.3,1.2V28.5z"/>
				<path class="st11" d="M189.2,23.6h2.9v1.7h-2.9v3h-1.7v-3h-2.9v-1.7h2.9v-2.9h1.7V23.6z"/>
			</g>
			<g class="st19">
				<path class="st14" d="M273.1,76.8c0.5,0,0.8-0.1,1.1-0.2s0.5-0.2,0.7-0.4c0.2-0.2,0.3-0.4,0.5-0.6c0.1-0.2,0.2-0.5,0.3-0.7h1.6
					v15.1H275V78.5h-1.8V76.8z"/>
				<path class="st14" d="M283.3,78.6c0-1.2,0.3-2.2,0.9-2.8c0.6-0.7,1.5-1,2.7-1s2.1,0.3,2.7,1c0.6,0.7,0.9,1.6,0.9,2.8v7.9
					c0,1.2-0.3,2.2-0.9,2.8s-1.5,1-2.7,1s-2.1-0.3-2.7-1s-0.9-1.6-0.9-2.8V78.6z M285.7,86.6c0,0.5,0.1,0.9,0.3,1.2
					c0.2,0.2,0.5,0.3,0.9,0.3s0.7-0.1,0.9-0.3c0.2-0.2,0.3-0.6,0.3-1.2v-8.2c0-0.5-0.1-0.9-0.3-1.2s-0.5-0.3-0.9-0.3
					s-0.7,0.1-0.9,0.3s-0.3,0.6-0.3,1.2V86.6z"/>
				<path class="st14" d="M291.9,78.6c0-1.2,0.3-2.2,0.9-2.8c0.6-0.7,1.5-1,2.7-1s2.1,0.3,2.7,1c0.6,0.7,0.9,1.6,0.9,2.8v7.9
					c0,1.2-0.3,2.2-0.9,2.8s-1.5,1-2.7,1s-2.1-0.3-2.7-1s-0.9-1.6-0.9-2.8V78.6z M294.3,86.6c0,0.5,0.1,0.9,0.3,1.2
					c0.2,0.2,0.5,0.3,0.9,0.3s0.7-0.1,0.9-0.3c0.2-0.2,0.3-0.6,0.3-1.2v-8.2c0-0.5-0.1-0.9-0.3-1.2s-0.5-0.3-0.9-0.3
					s-0.7,0.1-0.9,0.3s-0.3,0.6-0.3,1.2V86.6z"/>
				<path class="st14" d="M300.4,78.6c0-1.2,0.3-2.2,0.9-2.8c0.6-0.7,1.5-1,2.7-1s2.1,0.3,2.7,1c0.6,0.7,0.9,1.6,0.9,2.8v7.9
					c0,1.2-0.3,2.2-0.9,2.8s-1.5,1-2.7,1s-2.1-0.3-2.7-1s-0.9-1.6-0.9-2.8V78.6z M302.8,86.6c0,0.5,0.1,0.9,0.3,1.2
					c0.2,0.2,0.5,0.3,0.9,0.3s0.7-0.1,0.9-0.3c0.2-0.2,0.3-0.6,0.3-1.2v-8.2c0-0.5-0.1-0.9-0.3-1.2s-0.5-0.3-0.9-0.3
					s-0.7,0.1-0.9,0.3s-0.3,0.6-0.3,1.2V86.6z"/>
				<path class="st14" d="M316.8,81.7h2.9v1.7h-2.9v3h-1.7v-3h-2.9v-1.7h2.9v-2.9h1.7V81.7z"/>
			</g>
			<g class="st19">
				<path class="st15" d="M153.4,258.2c0,1.2-0.3,2.2-0.9,2.8c-0.6,0.7-1.6,1-2.8,1s-2.1-0.3-2.8-1c-0.6-0.7-0.9-1.6-0.9-2.8V257
					c0-0.7,0.1-1.4,0.3-1.9c0.2-0.5,0.6-1,1.1-1.2c-1-0.5-1.5-1.5-1.5-3v-0.5c0-1.2,0.3-2.2,0.9-2.8c0.6-0.7,1.6-1,2.8-1
					s2.1,0.3,2.8,1c0.6,0.7,0.9,1.6,0.9,2.8v0.5c0,1.5-0.5,2.5-1.5,3c0.5,0.3,0.9,0.7,1.1,1.2s0.3,1.2,0.3,1.9V258.2z M148.4,251.3
					c0,0.6,0.1,1,0.4,1.3c0.3,0.2,0.6,0.3,1,0.3c0.4,0,0.7-0.1,0.9-0.3c0.3-0.2,0.4-0.6,0.4-1.3v-0.8c0-0.7-0.1-1.1-0.4-1.4
					c-0.3-0.2-0.6-0.4-0.9-0.4s-0.7,0.1-0.9,0.4c-0.3,0.2-0.4,0.7-0.4,1.4V251.3z M148.4,258.2c0,0.7,0.1,1.1,0.4,1.4
					c0.3,0.2,0.6,0.3,0.9,0.3s0.7-0.1,0.9-0.3c0.3-0.2,0.4-0.7,0.4-1.4v-1.4c0-0.6-0.1-1-0.4-1.3c-0.2-0.3-0.6-0.4-1-0.4
					c-0.4,0-0.7,0.1-1,0.4c-0.2,0.3-0.4,0.7-0.4,1.3V258.2z"/>
				<path class="st15" d="M163.2,257.5l1.6-10.7h3.3v15.1h-2.2V251l-1.6,10.8H162l-1.8-10.7v10.7h-2.1v-15.1h3.3L163.2,257.5z"/>
				<path class="st15" d="M169.9,246.7h2.4v15.1h-2.4V246.7z"/>
				<path class="st15" d="M174,246.7h2.4v12.9h3.9v2.2H174V246.7z"/>
				<path class="st15" d="M181.3,246.7h2.4v12.9h3.9v2.2h-6.3V246.7z"/>
				<path class="st15" d="M188.6,246.7h2.4v15.1h-2.4V246.7z"/>
				<path class="st15" d="M192.5,250.4c0-1.2,0.3-2.2,0.9-2.8c0.6-0.7,1.5-1,2.7-1s2.1,0.3,2.7,1c0.6,0.7,0.9,1.6,0.9,2.8v7.9
					c0,1.2-0.3,2.2-0.9,2.8c-0.6,0.7-1.5,1-2.7,1s-2.1-0.3-2.7-1c-0.6-0.7-0.9-1.6-0.9-2.8V250.4z M194.9,258.4
					c0,0.5,0.1,0.9,0.3,1.2c0.2,0.2,0.5,0.3,0.9,0.3s0.7-0.1,0.9-0.3c0.2-0.2,0.3-0.6,0.3-1.2v-8.2c0-0.5-0.1-0.9-0.3-1.2
					s-0.5-0.3-0.9-0.3s-0.7,0.1-0.9,0.3s-0.3,0.6-0.3,1.2V258.4z"/>
				<path class="st15" d="M203.4,250.9v10.9h-2.1v-15.1h3l2.4,9v-9h2.1v15.1h-2.4L203.4,250.9z"/>
				<path class="st15" d="M210.2,250.4c0-1.2,0.3-2.2,0.9-2.8c0.6-0.7,1.5-1,2.6-1s2,0.3,2.6,1c0.6,0.7,0.9,1.6,0.9,2.8v0.5h-2.2
					v-0.6c0-0.5-0.1-0.9-0.3-1.2c-0.2-0.2-0.5-0.3-0.9-0.3s-0.7,0.1-0.9,0.3c-0.2,0.2-0.3,0.6-0.3,1.2c0,0.5,0.1,1,0.3,1.4
					c0.2,0.4,0.5,0.8,0.9,1.1c0.3,0.4,0.7,0.7,1.1,1.1s0.8,0.7,1.1,1.2c0.3,0.4,0.6,0.9,0.9,1.4c0.2,0.5,0.3,1.2,0.3,1.9
					c0,1.2-0.3,2.2-0.9,2.8c-0.6,0.7-1.5,1-2.6,1s-2-0.3-2.6-1c-0.6-0.7-0.9-1.6-0.9-2.8v-0.9h2.2v1.1c0,0.5,0.1,0.9,0.3,1.1
					c0.2,0.2,0.5,0.3,0.9,0.3s0.7-0.1,0.9-0.3c0.2-0.2,0.3-0.6,0.3-1.1c0-0.5-0.1-1-0.3-1.4c-0.2-0.4-0.5-0.8-0.9-1.1
					c-0.3-0.4-0.7-0.7-1.1-1.1s-0.8-0.7-1.1-1.2c-0.3-0.4-0.6-0.9-0.9-1.4S210.2,251.1,210.2,250.4z"/>
			</g>
			<g class="st19">
				<path class="st16" d="M284,185.5c0,1.3-0.3,2.3-0.9,2.9s-1.5,1-2.7,1c-1.2,0-2-0.3-2.6-1c-0.6-0.7-0.9-1.6-0.9-2.8v-0.4h2.2v0.5
					c0,0.5,0.1,0.9,0.3,1.2c0.2,0.2,0.5,0.3,0.9,0.3c0.4,0,0.7-0.1,1-0.4c0.2-0.3,0.3-0.7,0.3-1.5v-2.8c-0.4,0.9-1.2,1.3-2.2,1.3
					c-0.9,0-1.5-0.3-2-0.9c-0.4-0.6-0.7-1.4-0.7-2.6v-2.8c0-1.2,0.3-2.2,0.9-2.8c0.6-0.7,1.5-1,2.7-1s2.1,0.3,2.7,1
					c0.6,0.7,0.9,1.6,0.9,2.8V185.5z M280.4,181.8c0.4,0,0.7-0.1,0.9-0.3c0.2-0.2,0.3-0.6,0.3-1.2v-2.7c0-0.5-0.1-0.9-0.3-1.1
					c-0.2-0.2-0.5-0.3-0.9-0.3s-0.7,0.1-0.9,0.3c-0.2,0.2-0.3,0.6-0.3,1.1v2.7c0,0.5,0.1,0.9,0.3,1.2
					C279.7,181.7,280,181.8,280.4,181.8z"/>
				<path class="st16" d="M296.1,185.6c0,1.2-0.3,2.2-1,2.8c-0.6,0.7-1.6,1-2.8,1c-1.2,0-2.1-0.3-2.8-1c-0.6-0.7-0.9-1.6-0.9-2.8
					v-1.2c0-0.7,0.1-1.4,0.3-1.9s0.6-1,1.1-1.2c-1-0.5-1.5-1.5-1.5-3v-0.5c0-1.2,0.3-2.2,0.9-2.8c0.6-0.7,1.6-1,2.8-1
					c1.2,0,2.1,0.3,2.8,1c0.6,0.7,1,1.6,1,2.8v0.5c0,1.5-0.5,2.5-1.5,3c0.5,0.3,0.9,0.7,1.1,1.2s0.3,1.2,0.3,1.9V185.6z M291,178.7
					c0,0.6,0.1,1,0.4,1.3c0.3,0.2,0.6,0.3,1,0.3c0.4,0,0.7-0.1,0.9-0.3c0.3-0.2,0.4-0.6,0.4-1.3v-0.8c0-0.7-0.1-1.1-0.4-1.4
					c-0.3-0.2-0.6-0.4-0.9-0.4s-0.7,0.1-0.9,0.4s-0.4,0.7-0.4,1.4V178.7z M291,185.5c0,0.7,0.1,1.1,0.4,1.4c0.3,0.2,0.6,0.3,0.9,0.3
					s0.7-0.1,0.9-0.3c0.3-0.2,0.4-0.7,0.4-1.4v-1.4c0-0.6-0.1-1-0.4-1.3c-0.2-0.3-0.6-0.4-1-0.4s-0.7,0.1-1,0.4
					c-0.2,0.3-0.4,0.7-0.4,1.3V185.5z"/>
				<path class="st16" d="M297.3,177.9c0-1.3,0.3-2.3,0.9-2.9s1.5-1,2.7-1c1.2,0,2,0.3,2.6,1c0.6,0.7,0.9,1.6,0.9,2.8v0.4h-2.2v-0.5
					c0-0.5-0.1-0.9-0.3-1.2c-0.2-0.2-0.5-0.3-0.9-0.3c-0.4,0-0.7,0.1-1,0.4c-0.2,0.3-0.3,0.7-0.3,1.5v2.8c0.4-0.9,1.2-1.3,2.2-1.3
					c0.9,0,1.5,0.3,2,0.9c0.4,0.6,0.7,1.4,0.7,2.6v2.8c0,1.2-0.3,2.2-0.9,2.8c-0.6,0.7-1.5,1-2.7,1c-1.2,0-2.1-0.3-2.7-1
					c-0.6-0.7-0.9-1.6-0.9-2.8V177.9z M300.9,181.6c-0.4,0-0.7,0.1-0.9,0.3c-0.2,0.2-0.3,0.6-0.3,1.2v2.7c0,0.5,0.1,0.9,0.3,1.1
					c0.2,0.2,0.5,0.3,0.9,0.3s0.7-0.1,0.9-0.3c0.2-0.2,0.3-0.6,0.3-1.1V183c0-0.5-0.1-0.9-0.3-1.2
					C301.6,181.7,301.3,181.6,300.9,181.6z"/>
				<path class="st16" d="M313,185.5c0,1.3-0.3,2.3-0.9,2.9s-1.5,1-2.7,1c-1.2,0-2-0.3-2.6-1c-0.6-0.7-0.9-1.6-0.9-2.8v-0.4h2.2v0.5
					c0,0.5,0.1,0.9,0.3,1.2c0.2,0.2,0.5,0.3,0.9,0.3c0.4,0,0.7-0.1,1-0.4c0.2-0.3,0.3-0.7,0.3-1.5v-2.8c-0.4,0.9-1.2,1.3-2.2,1.3
					c-0.9,0-1.5-0.3-2-0.9c-0.4-0.6-0.7-1.4-0.7-2.6v-2.8c0-1.2,0.3-2.2,0.9-2.8c0.6-0.7,1.5-1,2.7-1s2.1,0.3,2.7,1
					c0.6,0.7,0.9,1.6,0.9,2.8V185.5z M309.4,181.8c0.4,0,0.7-0.1,0.9-0.3c0.2-0.2,0.3-0.6,0.3-1.2v-2.7c0-0.5-0.1-0.9-0.3-1.1
					c-0.2-0.2-0.5-0.3-0.9-0.3s-0.7,0.1-0.9,0.3c-0.2,0.2-0.3,0.6-0.3,1.1v2.7c0,0.5,0.1,0.9,0.3,1.2
					C308.7,181.7,309,181.8,309.4,181.8z"/>
			</g>
			<g class="st19">
				<path class="st17" d="M52,70.8c0-1.3,0.3-2.3,0.9-2.9s1.5-1,2.7-1c1.2,0,2,0.3,2.6,1c0.6,0.7,0.9,1.6,0.9,2.8v0.4h-2.2v-0.5
					c0-0.5-0.1-0.9-0.3-1.2s-0.5-0.3-0.9-0.3c-0.4,0-0.7,0.1-1,0.4c-0.2,0.3-0.3,0.7-0.3,1.5v2.8c0.4-0.9,1.2-1.3,2.2-1.3
					c0.9,0,1.5,0.3,2,0.9c0.4,0.6,0.7,1.4,0.7,2.6v2.8c0,1.2-0.3,2.2-0.9,2.8c-0.6,0.7-1.5,1-2.7,1c-1.2,0-2.1-0.3-2.7-1
					c-0.6-0.7-0.9-1.6-0.9-2.8V70.8z M55.6,74.5c-0.4,0-0.7,0.1-0.9,0.3c-0.2,0.2-0.3,0.6-0.3,1.2v2.7c0,0.5,0.1,0.9,0.3,1.1
					c0.2,0.2,0.5,0.3,0.9,0.3c0.4,0,0.7-0.1,0.9-0.3c0.2-0.2,0.3-0.6,0.3-1.1V76c0-0.5-0.1-0.9-0.3-1.2C56.3,74.6,56,74.5,55.6,74.5
					z"/>
				<path class="st17" d="M67.8,78.5c0,1.2-0.3,2.2-0.9,2.8c-0.6,0.7-1.6,1-2.8,1s-2.1-0.3-2.8-1c-0.6-0.7-0.9-1.6-0.9-2.8v-1.2
					c0-0.7,0.1-1.4,0.3-1.9c0.2-0.5,0.6-1,1.1-1.2c-1-0.5-1.5-1.5-1.5-3v-0.5c0-1.2,0.3-2.2,0.9-2.8c0.6-0.7,1.6-1,2.8-1
					s2.1,0.3,2.8,1c0.6,0.7,0.9,1.6,0.9,2.8v0.5c0,1.5-0.5,2.5-1.5,3c0.5,0.3,0.9,0.7,1.1,1.2s0.3,1.2,0.3,1.9V78.5z M62.7,71.6
					c0,0.6,0.1,1,0.4,1.3c0.3,0.2,0.6,0.3,1,0.3c0.4,0,0.7-0.1,0.9-0.3c0.3-0.2,0.4-0.6,0.4-1.3v-0.8c0-0.7-0.1-1.1-0.4-1.4
					c-0.3-0.2-0.6-0.4-0.9-0.4s-0.7,0.1-0.9,0.4c-0.3,0.2-0.4,0.7-0.4,1.4V71.6z M62.7,78.5c0,0.7,0.1,1.1,0.4,1.4
					c0.3,0.2,0.6,0.3,0.9,0.3s0.7-0.1,0.9-0.3c0.3-0.2,0.4-0.7,0.4-1.4v-1.4c0-0.6-0.1-1-0.4-1.3s-0.6-0.4-1-0.4
					c-0.4,0-0.7,0.1-1,0.4c-0.2,0.3-0.4,0.7-0.4,1.3V78.5z"/>
			</g>
			<g class="st19">
				<path class="st14" d="M57.7,181.6c0-0.7-0.1-1.1-0.3-1.4c-0.2-0.2-0.5-0.4-0.9-0.4c-0.4,0-0.7,0.1-0.9,0.3
					c-0.2,0.2-0.3,0.6-0.3,1.2v1.6H53v-1.5c0-1.2,0.3-2.2,0.9-2.8c0.6-0.7,1.5-1,2.6-1c1.2,0,2,0.3,2.6,1c0.6,0.7,0.9,1.6,0.9,2.8
					c0,0.8-0.1,1.5-0.3,2.1c-0.2,0.6-0.5,1.2-0.9,1.7c-0.4,0.5-0.7,1-1.1,1.5c-0.4,0.4-0.8,0.9-1.1,1.3c-0.4,0.4-0.6,0.8-0.9,1.2
					c-0.2,0.4-0.3,0.8-0.3,1.2c0,0.1,0,0.3,0,0.3h4.5v2.2H53v-1.9c0-0.7,0.1-1.4,0.3-1.9c0.2-0.6,0.5-1.1,0.9-1.5
					c0.4-0.5,0.7-0.9,1.1-1.3c0.4-0.4,0.8-0.8,1.1-1.3c0.4-0.5,0.6-1,0.9-1.5C57.5,183,57.7,182.3,57.7,181.6z"/>
				<path class="st14" d="M66.2,181.6c0-0.7-0.1-1.1-0.3-1.4c-0.2-0.2-0.5-0.4-0.9-0.4c-0.4,0-0.7,0.1-0.9,0.3
					c-0.2,0.2-0.3,0.6-0.3,1.2v1.6h-2.2v-1.5c0-1.2,0.3-2.2,0.9-2.8c0.6-0.7,1.5-1,2.6-1c1.2,0,2,0.3,2.6,1c0.6,0.7,0.9,1.6,0.9,2.8
					c0,0.8-0.1,1.5-0.3,2.1c-0.2,0.6-0.5,1.2-0.9,1.7c-0.4,0.5-0.7,1-1.1,1.5c-0.4,0.4-0.8,0.9-1.1,1.3c-0.4,0.4-0.6,0.8-0.9,1.2
					c-0.2,0.4-0.3,0.8-0.3,1.2c0,0.1,0,0.3,0,0.3h4.5v2.2h-6.9v-1.9c0-0.7,0.1-1.4,0.3-1.9c0.2-0.6,0.5-1.1,0.9-1.5
					c0.4-0.5,0.7-0.9,1.1-1.3c0.4-0.4,0.8-0.8,1.1-1.3c0.4-0.5,0.6-1,0.9-1.5C66.1,183,66.2,182.3,66.2,181.6z"/>
			</g>
			<g class="st19">
				<path class="st3" d="M279.2,98.9v0.7h-1.8v2.6h2.2v0.7h-3v-7.3h3v0.7h-2.2v2.5H279.2z"/>
				<path class="st3" d="M282.1,99.8l-1.2,3.1h-0.8l1.5-3.7l-1.4-3.5h0.8l1.1,2.9l1.1-2.9h0.8l-1.4,3.5l1.5,3.7h-0.9L282.1,99.8z"/>
				<path class="st3" d="M285.7,99.7v3.3h-0.8v-7.3h0.8v3.3h1.8v-3.3h0.8v7.3h-0.8v-3.3H285.7z"/>
				<path class="st3" d="M289.9,95.7v7.3h-0.8v-7.3H289.9z"/>
				<path class="st3" d="M292.3,95.7c0.6,0,1,0.1,1.2,0.4c0.2,0.3,0.4,0.7,0.4,1.2v0.3c0,0.4-0.1,0.7-0.2,0.9
					c-0.1,0.2-0.3,0.4-0.7,0.5c0.4,0.1,0.6,0.3,0.8,0.5c0.1,0.3,0.2,0.6,0.2,1v0.6c0,0.5-0.1,1-0.4,1.3c-0.3,0.3-0.7,0.4-1.3,0.4
					h-1.7v-7.3H292.3z M292.1,98.7c0.3,0,0.6-0.1,0.7-0.2c0.2-0.1,0.2-0.4,0.2-0.8v-0.4c0-0.3-0.1-0.6-0.2-0.7
					c-0.1-0.2-0.3-0.2-0.6-0.2h-0.8v2.3H292.1z M292.4,102.2c0.6,0,0.9-0.3,0.9-1v-0.6c0-0.4-0.1-0.7-0.2-0.8
					c-0.2-0.2-0.4-0.2-0.8-0.2h-0.7v2.7H292.4z"/>
				<path class="st3" d="M295.6,95.7v7.3h-0.8v-7.3H295.6z"/>
				<path class="st3" d="M297.5,102.9v-6.5h-1.3v-0.7h3.5v0.7h-1.3v6.5H297.5z"/>
				<path class="st3" d="M300.1,97.4c0-0.6,0.1-1,0.4-1.3s0.7-0.5,1.2-0.5s1,0.2,1.3,0.5c0.3,0.3,0.4,0.8,0.4,1.3v3.8
					c0,0.6-0.1,1-0.4,1.3c-0.3,0.3-0.7,0.5-1.3,0.5s-1-0.2-1.2-0.5s-0.4-0.8-0.4-1.3V97.4z M300.9,101.2c0,0.3,0.1,0.6,0.2,0.8
					c0.1,0.2,0.4,0.3,0.6,0.3c0.3,0,0.5-0.1,0.7-0.3c0.1-0.2,0.2-0.4,0.2-0.8v-3.8c0-0.3-0.1-0.6-0.2-0.8c-0.1-0.2-0.4-0.3-0.7-0.3
					c-0.3,0-0.5,0.1-0.6,0.3c-0.1,0.2-0.2,0.4-0.2,0.8V101.2z"/>
				<path class="st3" d="M305.8,95.7c0.6,0,1,0.1,1.2,0.4c0.3,0.3,0.4,0.7,0.4,1.2v0.6c0,0.4-0.1,0.7-0.2,1
					c-0.1,0.2-0.4,0.4-0.7,0.5c0.3,0.1,0.6,0.3,0.7,0.5c0.1,0.3,0.2,0.6,0.2,1v1.1c0,0.2,0,0.3,0,0.5s0.1,0.3,0.1,0.4h-0.8
					c0-0.1-0.1-0.2-0.1-0.3c0-0.1,0-0.3,0-0.5v-1.1c0-0.4-0.1-0.7-0.3-0.8c-0.2-0.2-0.4-0.2-0.8-0.2H305v3.1h-0.8v-7.3H305.8z
					 M305.6,99.1c0.3,0,0.6-0.1,0.8-0.2c0.2-0.1,0.3-0.4,0.3-0.8v-0.7c0-0.3-0.1-0.6-0.2-0.7s-0.3-0.2-0.6-0.2H305v2.7H305.6z"/>
				<path class="st3" d="M309.8,95.6c0.6,0,1,0.2,1.2,0.5s0.4,0.8,0.4,1.3v0.2h-0.8v-0.2c0-0.3-0.1-0.6-0.2-0.8
					c-0.1-0.2-0.3-0.3-0.6-0.3c-0.3,0-0.5,0.1-0.6,0.3c-0.1,0.2-0.2,0.4-0.2,0.8c0,0.3,0.1,0.5,0.2,0.7c0.1,0.2,0.3,0.4,0.5,0.6
					s0.4,0.3,0.6,0.5s0.4,0.3,0.6,0.5c0.2,0.2,0.3,0.4,0.5,0.7c0.1,0.2,0.2,0.5,0.2,0.9c0,0.6-0.1,1-0.4,1.3
					c-0.3,0.3-0.7,0.5-1.2,0.5s-1-0.2-1.2-0.5c-0.3-0.3-0.4-0.8-0.4-1.3v-0.4h0.8v0.5c0,0.3,0.1,0.6,0.2,0.8s0.4,0.3,0.6,0.3
					c0.3,0,0.5-0.1,0.6-0.3c0.1-0.2,0.2-0.4,0.2-0.8c0-0.3-0.1-0.5-0.2-0.7c-0.1-0.2-0.3-0.4-0.5-0.5c-0.2-0.2-0.4-0.3-0.6-0.5
					c-0.2-0.2-0.4-0.3-0.6-0.5c-0.2-0.2-0.3-0.4-0.5-0.7c-0.1-0.2-0.2-0.5-0.2-0.9c0-0.6,0.1-1,0.4-1.3
					C308.9,95.7,309.3,95.6,309.8,95.6z"/>
			</g>
			<g class="st19">
				<path class="st3" d="M154.9,38.9c0-0.6,0.1-1,0.4-1.3c0.3-0.3,0.7-0.5,1.2-0.5s1,0.2,1.3,0.5c0.3,0.3,0.4,0.8,0.4,1.3v3.8
					c0,0.6-0.1,1-0.4,1.3c-0.3,0.3-0.7,0.5-1.3,0.5s-1-0.2-1.2-0.5c-0.3-0.3-0.4-0.8-0.4-1.3V38.9z M155.7,42.7
					c0,0.3,0.1,0.6,0.2,0.8c0.1,0.2,0.4,0.3,0.6,0.3c0.3,0,0.5-0.1,0.7-0.3c0.1-0.2,0.2-0.4,0.2-0.8v-3.8c0-0.3-0.1-0.6-0.2-0.8
					c-0.1-0.2-0.4-0.3-0.7-0.3c-0.3,0-0.5,0.1-0.6,0.3c-0.1,0.2-0.2,0.4-0.2,0.8V42.7z"/>
				<path class="st3" d="M161.5,40.5v0.7h-1.7v3.1H159v-7.3h2.9v0.7h-2.1v2.6H161.5z"/>
				<path class="st3" d="M165,40.5v0.7h-1.7v3.1h-0.8v-7.3h2.9v0.7h-2.1v2.6H165z"/>
				<path class="st3" d="M166.9,37.1v7.3h-0.8v-7.3H166.9z"/>
				<path class="st3" d="M169.3,37.1c0.6,0,1,0.2,1.2,0.5c0.3,0.3,0.4,0.8,0.4,1.3v0.7h-0.8v-0.7c0-0.3-0.1-0.6-0.2-0.8
					c-0.1-0.2-0.4-0.3-0.6-0.3c-0.3,0-0.5,0.1-0.6,0.3c-0.1,0.2-0.2,0.4-0.2,0.8v3.8c0,0.3,0.1,0.6,0.2,0.8c0.1,0.2,0.4,0.3,0.6,0.3
					c0.3,0,0.5-0.1,0.6-0.3c0.1-0.2,0.2-0.4,0.2-0.8v-0.9h0.8v0.9c0,0.6-0.1,1-0.4,1.3s-0.7,0.5-1.2,0.5c-0.6,0-1-0.2-1.2-0.5
					s-0.4-0.8-0.4-1.3v-3.8c0-0.3,0-0.5,0.1-0.8s0.2-0.4,0.3-0.6c0.1-0.2,0.3-0.3,0.5-0.4C168.8,37.1,169,37.1,169.3,37.1z"/>
				<path class="st3" d="M172.5,37.1v7.3h-0.8v-7.3H172.5z"/>
				<path class="st3" d="M174.1,42.9l-0.3,1.5h-0.7l1.4-7.3h1.2l1.4,7.3h-0.8l-0.3-1.5H174.1z M174.2,42.3h1.6l-0.8-4.2L174.2,42.3z
					"/>
				<path class="st3" d="M177.7,44.4v-7.3h0.8v6.5h2.1v0.7H177.7z"/>
				<path class="st3" d="M183.4,37.1l1.2,6.3l1.2-6.3h0.7l-1.4,7.3H184l-1.4-7.3H183.4z"/>
				<path class="st3" d="M187.9,37.1v7.3h-0.8v-7.3H187.9z"/>
				<path class="st3" d="M190.3,37.1c0.6,0,1,0.2,1.2,0.5s0.4,0.8,0.4,1.3v0.2h-0.8v-0.2c0-0.3-0.1-0.6-0.2-0.8
					c-0.1-0.2-0.3-0.3-0.6-0.3c-0.3,0-0.5,0.1-0.6,0.3c-0.1,0.2-0.2,0.4-0.2,0.8c0,0.3,0.1,0.5,0.2,0.7c0.1,0.2,0.3,0.4,0.5,0.6
					s0.4,0.3,0.6,0.5s0.4,0.3,0.6,0.5c0.2,0.2,0.3,0.4,0.5,0.7c0.1,0.2,0.2,0.5,0.2,0.9c0,0.6-0.1,1-0.4,1.3
					c-0.3,0.3-0.7,0.5-1.2,0.5s-1-0.2-1.2-0.5c-0.3-0.3-0.4-0.8-0.4-1.3v-0.4h0.8v0.5c0,0.3,0.1,0.6,0.2,0.8s0.4,0.3,0.6,0.3
					c0.3,0,0.5-0.1,0.6-0.3c0.1-0.2,0.2-0.4,0.2-0.8c0-0.3-0.1-0.5-0.2-0.7c-0.1-0.2-0.3-0.4-0.5-0.5c-0.2-0.2-0.4-0.3-0.6-0.5
					c-0.2-0.2-0.4-0.3-0.6-0.5c-0.2-0.2-0.3-0.4-0.5-0.7c-0.1-0.2-0.2-0.5-0.2-0.9c0-0.6,0.1-1,0.4-1.3
					C189.3,37.2,189.8,37.1,190.3,37.1z"/>
				<path class="st3" d="M193.4,37.1v7.3h-0.8v-7.3H193.4z"/>
				<path class="st3" d="M195.3,44.4v-6.5H194v-0.7h3.5v0.7h-1.3v6.5H195.3z"/>
				<path class="st3" d="M199.6,37.1c0.6,0,1,0.2,1.2,0.5s0.4,0.8,0.4,1.3v0.2h-0.8v-0.2c0-0.3-0.1-0.6-0.2-0.8
					c-0.1-0.2-0.3-0.3-0.6-0.3c-0.3,0-0.5,0.1-0.6,0.3c-0.1,0.2-0.2,0.4-0.2,0.8c0,0.3,0.1,0.5,0.2,0.7c0.1,0.2,0.3,0.4,0.5,0.6
					s0.4,0.3,0.6,0.5s0.4,0.3,0.6,0.5c0.2,0.2,0.3,0.4,0.5,0.7c0.1,0.2,0.2,0.5,0.2,0.9c0,0.6-0.1,1-0.4,1.3
					c-0.3,0.3-0.7,0.5-1.2,0.5s-1-0.2-1.2-0.5c-0.3-0.3-0.4-0.8-0.4-1.3v-0.4h0.8v0.5c0,0.3,0.1,0.6,0.2,0.8s0.4,0.3,0.6,0.3
					c0.3,0,0.5-0.1,0.6-0.3c0.1-0.2,0.2-0.4,0.2-0.8c0-0.3-0.1-0.5-0.2-0.7c-0.1-0.2-0.3-0.4-0.5-0.5c-0.2-0.2-0.4-0.3-0.6-0.5
					c-0.2-0.2-0.4-0.3-0.6-0.5c-0.2-0.2-0.3-0.4-0.5-0.7c-0.1-0.2-0.2-0.5-0.2-0.9c0-0.6,0.1-1,0.4-1.3
					C198.6,37.2,199,37.1,199.6,37.1z"/>
			</g>
			<g class="st19">
				<path class="st3" d="M272.9,196.1c0.6,0,1,0.2,1.2,0.5s0.4,0.7,0.4,1.3v0.9c0,0.6-0.1,1-0.4,1.3c-0.3,0.3-0.7,0.4-1.3,0.4h-0.7
					v2.9h-0.8v-7.3H272.9z M272.9,199.8c0.3,0,0.5-0.1,0.7-0.2s0.2-0.4,0.2-0.8v-1c0-0.3-0.1-0.6-0.2-0.7c-0.1-0.2-0.3-0.2-0.6-0.2
					h-0.8v2.9H272.9z"/>
				<path class="st3" d="M276.8,196.1c0.6,0,1,0.1,1.2,0.4c0.3,0.3,0.4,0.7,0.4,1.2v0.6c0,0.4-0.1,0.7-0.2,1
					c-0.1,0.2-0.4,0.4-0.7,0.5c0.3,0.1,0.6,0.3,0.7,0.5c0.1,0.3,0.2,0.6,0.2,1v1.1c0,0.2,0,0.3,0,0.5c0,0.1,0.1,0.3,0.1,0.4h-0.8
					c0-0.1-0.1-0.2-0.1-0.3c0-0.1,0-0.3,0-0.5v-1.1c0-0.4-0.1-0.7-0.3-0.8c-0.2-0.2-0.4-0.2-0.8-0.2H276v3.1h-0.8v-7.3H276.8z
					 M276.6,199.5c0.3,0,0.6-0.1,0.8-0.2s0.3-0.4,0.3-0.8v-0.7c0-0.3-0.1-0.6-0.2-0.7s-0.3-0.2-0.6-0.2H276v2.7H276.6z"/>
				<path class="st3" d="M281.9,199.3v0.7h-1.8v2.6h2.2v0.7h-3v-7.3h3v0.7h-2.2v2.5H281.9z"/>
				<path class="st3" d="M284.6,196c0.6,0,1,0.2,1.2,0.5s0.4,0.8,0.4,1.3v0.2h-0.8v-0.2c0-0.3-0.1-0.6-0.2-0.8
					c-0.1-0.2-0.3-0.3-0.6-0.3c-0.3,0-0.5,0.1-0.6,0.3c-0.1,0.2-0.2,0.4-0.2,0.8c0,0.3,0.1,0.5,0.2,0.7c0.1,0.2,0.3,0.4,0.5,0.6
					c0.2,0.2,0.4,0.3,0.6,0.5s0.4,0.3,0.6,0.5s0.3,0.4,0.5,0.7c0.1,0.2,0.2,0.5,0.2,0.9c0,0.6-0.1,1-0.4,1.3
					c-0.3,0.3-0.7,0.5-1.2,0.5s-1-0.2-1.2-0.5c-0.3-0.3-0.4-0.8-0.4-1.3v-0.4h0.8v0.5c0,0.3,0.1,0.6,0.2,0.8s0.4,0.3,0.6,0.3
					c0.3,0,0.5-0.1,0.6-0.3c0.1-0.2,0.2-0.4,0.2-0.8c0-0.3-0.1-0.5-0.2-0.7s-0.3-0.4-0.5-0.5c-0.2-0.2-0.4-0.3-0.6-0.5
					c-0.2-0.2-0.4-0.3-0.6-0.5c-0.2-0.2-0.3-0.4-0.5-0.7c-0.1-0.2-0.2-0.5-0.2-0.9c0-0.6,0.1-1,0.4-1.3
					C283.6,196.2,284,196,284.6,196z"/>
				<path class="st3" d="M288.4,196c0.6,0,1,0.2,1.2,0.5s0.4,0.8,0.4,1.3v0.2h-0.8v-0.2c0-0.3-0.1-0.6-0.2-0.8
					c-0.1-0.2-0.3-0.3-0.6-0.3c-0.3,0-0.5,0.1-0.6,0.3c-0.1,0.2-0.2,0.4-0.2,0.8c0,0.3,0.1,0.5,0.2,0.7c0.1,0.2,0.3,0.4,0.5,0.6
					c0.2,0.2,0.4,0.3,0.6,0.5s0.4,0.3,0.6,0.5s0.3,0.4,0.5,0.7c0.1,0.2,0.2,0.5,0.2,0.9c0,0.6-0.1,1-0.4,1.3
					c-0.3,0.3-0.7,0.5-1.2,0.5s-1-0.2-1.2-0.5c-0.3-0.3-0.4-0.8-0.4-1.3v-0.4h0.8v0.5c0,0.3,0.1,0.6,0.2,0.8s0.4,0.3,0.6,0.3
					c0.3,0,0.5-0.1,0.6-0.3c0.1-0.2,0.2-0.4,0.2-0.8c0-0.3-0.1-0.5-0.2-0.7s-0.3-0.4-0.5-0.5c-0.2-0.2-0.4-0.3-0.6-0.5
					c-0.2-0.2-0.4-0.3-0.6-0.5c-0.2-0.2-0.3-0.4-0.5-0.7c-0.1-0.2-0.2-0.5-0.2-0.9c0-0.6,0.1-1,0.4-1.3
					C287.5,196.2,287.9,196,288.4,196z"/>
				<path class="st3" d="M293.9,196c0.6,0,1,0.2,1.2,0.5c0.3,0.3,0.4,0.8,0.4,1.3v0.7h-0.8v-0.7c0-0.3-0.1-0.6-0.2-0.8
					c-0.1-0.2-0.4-0.3-0.6-0.3c-0.3,0-0.5,0.1-0.6,0.3c-0.1,0.2-0.2,0.4-0.2,0.8v3.8c0,0.3,0.1,0.6,0.2,0.8c0.1,0.2,0.4,0.3,0.6,0.3
					c0.3,0,0.5-0.1,0.6-0.3c0.1-0.2,0.2-0.4,0.2-0.8v-0.9h0.8v0.9c0,0.6-0.1,1-0.4,1.3c-0.3,0.3-0.7,0.5-1.2,0.5
					c-0.6,0-1-0.2-1.2-0.5s-0.4-0.8-0.4-1.3v-3.8c0-0.3,0-0.5,0.1-0.8s0.2-0.4,0.3-0.6s0.3-0.3,0.5-0.4
					C293.4,196.1,293.7,196,293.9,196z"/>
				<path class="st3" d="M296.2,197.8c0-0.6,0.1-1,0.4-1.3s0.7-0.5,1.2-0.5s1,0.2,1.3,0.5c0.3,0.3,0.4,0.8,0.4,1.3v3.8
					c0,0.6-0.1,1-0.4,1.3c-0.3,0.3-0.7,0.5-1.3,0.5s-1-0.2-1.2-0.5s-0.4-0.8-0.4-1.3V197.8z M297,201.6c0,0.3,0.1,0.6,0.2,0.8
					c0.1,0.2,0.4,0.3,0.6,0.3c0.3,0,0.5-0.1,0.7-0.3c0.1-0.2,0.2-0.4,0.2-0.8v-3.8c0-0.3-0.1-0.6-0.2-0.8c-0.1-0.2-0.4-0.3-0.7-0.3
					c-0.3,0-0.5,0.1-0.6,0.3c-0.1,0.2-0.2,0.4-0.2,0.8V201.6z"/>
				<path class="st3" d="M300.9,196.1l1.2,6.3l1.2-6.3h0.7l-1.4,7.3h-1.2l-1.4-7.3H300.9z"/>
				<path class="st3" d="M307.3,199.3v0.7h-1.8v2.6h2.2v0.7h-3v-7.3h3v0.7h-2.2v2.5H307.3z"/>
				<path class="st3" d="M310,196.1c0.6,0,1,0.1,1.2,0.4c0.3,0.3,0.4,0.7,0.4,1.2v0.6c0,0.4-0.1,0.7-0.2,1c-0.1,0.2-0.4,0.4-0.7,0.5
					c0.3,0.1,0.6,0.3,0.7,0.5c0.1,0.3,0.2,0.6,0.2,1v1.1c0,0.2,0,0.3,0,0.5c0,0.1,0.1,0.3,0.1,0.4H311c0-0.1-0.1-0.2-0.1-0.3
					c0-0.1,0-0.3,0-0.5v-1.1c0-0.4-0.1-0.7-0.3-0.8c-0.2-0.2-0.4-0.2-0.8-0.2h-0.6v3.1h-0.8v-7.3H310z M309.8,199.5
					c0.3,0,0.6-0.1,0.8-0.2s0.3-0.4,0.3-0.8v-0.7c0-0.3-0.1-0.6-0.2-0.7s-0.3-0.2-0.6-0.2h-0.8v2.7H309.8z"/>
				<path class="st3" d="M313.3,201.9l-0.3,1.5h-0.7l1.4-7.3h1.2l1.4,7.3h-0.8l-0.3-1.5H313.3z M313.4,201.2h1.6l-0.8-4.2
					L313.4,201.2z"/>
				<path class="st3" d="M318.4,196c0.6,0,1,0.2,1.2,0.5c0.3,0.3,0.4,0.8,0.4,1.3v0.6h-0.8v-0.7c0-0.3-0.1-0.6-0.2-0.8
					c-0.1-0.2-0.4-0.3-0.6-0.3c-0.3,0-0.5,0.1-0.6,0.3c-0.1,0.2-0.2,0.4-0.2,0.8v3.8c0,0.3,0.1,0.6,0.2,0.8c0.1,0.2,0.4,0.3,0.6,0.3
					c0.3,0,0.5-0.1,0.6-0.3c0.1-0.2,0.2-0.4,0.2-0.8v-1.5h-0.7v-0.7h1.5v2.1c0,0.6-0.1,1-0.4,1.3c-0.3,0.3-0.7,0.5-1.2,0.5
					c-0.6,0-1-0.2-1.2-0.5s-0.4-0.8-0.4-1.3v-3.8c0-0.3,0-0.5,0.1-0.8s0.2-0.4,0.3-0.6s0.3-0.3,0.5-0.4
					C317.9,196.1,318.2,196,318.4,196z"/>
				<path class="st3" d="M323.4,199.3v0.7h-1.8v2.6h2.2v0.7h-3v-7.3h3v0.7h-2.2v2.5H323.4z"/>
			</g>
			<g class="st19">
				<path class="st3" d="M39.2,89.4v7.3h-0.8v-7.3H39.2z"/>
				<path class="st3" d="M40.8,96.7h-0.7v-7.3h1l1.7,5.2v-5.2h0.7v7.3h-0.8l-1.9-5.9V96.7z"/>
				<path class="st3" d="M45.4,96.7v-6.5H44v-0.7h3.5v0.7h-1.3v6.5H45.4z"/>
				<path class="st3" d="M50.7,92.6v0.7h-1.8V96h2.2v0.7h-3v-7.3h3v0.7h-2.2v2.5H50.7z"/>
				<path class="st3" d="M53.4,89.4c0.6,0,1,0.1,1.2,0.4c0.3,0.3,0.4,0.7,0.4,1.2v0.6c0,0.4-0.1,0.7-0.2,1c-0.1,0.2-0.4,0.4-0.7,0.5
					c0.3,0.1,0.6,0.3,0.7,0.5c0.1,0.3,0.2,0.6,0.2,1v1.1c0,0.2,0,0.3,0,0.5c0,0.1,0.1,0.3,0.1,0.4h-0.8c0-0.1-0.1-0.2-0.1-0.3
					c0-0.1,0-0.3,0-0.5v-1.1c0-0.4-0.1-0.7-0.3-0.8c-0.2-0.2-0.4-0.2-0.8-0.2h-0.6v3.1h-0.8v-7.3H53.4z M53.2,92.9
					c0.3,0,0.6-0.1,0.8-0.2c0.2-0.1,0.3-0.4,0.3-0.8v-0.7c0-0.3-0.1-0.6-0.2-0.7c-0.1-0.2-0.3-0.2-0.6-0.2h-0.8v2.7H53.2z"/>
				<path class="st3" d="M56.6,96.7h-0.7v-7.3h1l1.7,5.2v-5.2h0.7v7.3h-0.8l-1.9-5.9V96.7z"/>
				<path class="st3" d="M61,95.2l-0.3,1.5h-0.7l1.4-7.3h1.2l1.4,7.3h-0.8l-0.3-1.5H61z M61.1,94.5h1.6l-0.8-4.2L61.1,94.5z"/>
				<path class="st3" d="M65.6,96.7v-6.5h-1.3v-0.7h3.5v0.7h-1.3v6.5H65.6z"/>
				<path class="st3" d="M69.1,89.4v7.3h-0.8v-7.3H69.1z"/>
				<path class="st3" d="M69.9,91.2c0-0.6,0.1-1,0.4-1.3c0.3-0.3,0.7-0.5,1.2-0.5s1,0.2,1.3,0.5c0.3,0.3,0.4,0.8,0.4,1.3v3.8
					c0,0.6-0.1,1-0.4,1.3c-0.3,0.3-0.7,0.5-1.3,0.5s-1-0.2-1.2-0.5c-0.3-0.3-0.4-0.8-0.4-1.3V91.2z M70.7,95c0,0.3,0.1,0.6,0.2,0.8
					c0.1,0.2,0.4,0.3,0.6,0.3c0.3,0,0.5-0.1,0.7-0.3c0.1-0.2,0.2-0.4,0.2-0.8v-3.8c0-0.3-0.1-0.6-0.2-0.8c-0.1-0.2-0.4-0.3-0.7-0.3
					c-0.3,0-0.5,0.1-0.6,0.3c-0.1,0.2-0.2,0.4-0.2,0.8V95z"/>
				<path class="st3" d="M74.7,96.7H74v-7.3h1l1.7,5.2v-5.2h0.7v7.3h-0.8l-1.9-5.9V96.7z"/>
				<path class="st3" d="M79,95.2l-0.3,1.5H78l1.4-7.3h1.2l1.4,7.3h-0.8l-0.3-1.5H79z M79.1,94.5h1.6l-0.8-4.2L79.1,94.5z"/>
				<path class="st3" d="M82.6,96.7v-7.3h0.8V96h2.1v0.7H82.6z"/>
			</g>
			<g class="st19">
				<path class="st3" d="M43.5,101.9c0.6,0,1,0.2,1.3,0.5c0.3,0.3,0.4,0.8,0.4,1.3v3.7c0,0.6-0.1,1-0.4,1.3
					c-0.3,0.3-0.7,0.5-1.3,0.5h-1.7v-7.3H43.5z M43.5,108.4c0.3,0,0.5-0.1,0.6-0.3c0.1-0.2,0.2-0.4,0.2-0.8v-3.7
					c0-0.3-0.1-0.6-0.2-0.8c-0.1-0.2-0.4-0.3-0.7-0.3h-0.9v5.8H43.5z"/>
				<path class="st3" d="M48.5,105.1v0.7h-1.8v2.6h2.2v0.7h-3v-7.3h3v0.7h-2.2v2.5H48.5z"/>
				<path class="st3" d="M49.6,109.1v-7.3h0.8v6.5h2.1v0.7H49.6z"/>
				<path class="st3" d="M55.7,105.1v0.7h-1.8v2.6h2.2v0.7h-3v-7.3h3v0.7h-2.2v2.5H55.7z"/>
				<path class="st3" d="M58.4,101.8c0.6,0,1,0.2,1.2,0.5c0.3,0.3,0.4,0.8,0.4,1.3v0.6h-0.8v-0.7c0-0.3-0.1-0.6-0.2-0.8
					c-0.1-0.2-0.4-0.3-0.6-0.3c-0.3,0-0.5,0.1-0.6,0.3c-0.1,0.2-0.2,0.4-0.2,0.8v3.8c0,0.3,0.1,0.6,0.2,0.8c0.1,0.2,0.4,0.3,0.6,0.3
					c0.3,0,0.5-0.1,0.6-0.3c0.1-0.2,0.2-0.4,0.2-0.8V106h-0.7v-0.7h1.5v2.1c0,0.6-0.1,1-0.4,1.3s-0.7,0.5-1.2,0.5
					c-0.6,0-1-0.2-1.2-0.5s-0.4-0.8-0.4-1.3v-3.8c0-0.3,0-0.5,0.1-0.8s0.2-0.4,0.3-0.6c0.1-0.2,0.3-0.3,0.5-0.4
					C57.9,101.9,58.1,101.8,58.4,101.8z"/>
				<path class="st3" d="M61.6,107.7l-0.3,1.5h-0.7l1.4-7.3h1.2l1.4,7.3h-0.8l-0.3-1.5H61.6z M61.7,107h1.6l-0.8-4.2L61.7,107z"/>
				<path class="st3" d="M66.2,109.1v-6.5h-1.3v-0.7h3.5v0.7h-1.3v6.5H66.2z"/>
				<path class="st3" d="M69.8,101.9v7.3H69v-7.3H69.8z"/>
				<path class="st3" d="M70.5,103.6c0-0.6,0.1-1,0.4-1.3c0.3-0.3,0.7-0.5,1.2-0.5s1,0.2,1.3,0.5c0.3,0.3,0.4,0.8,0.4,1.3v3.8
					c0,0.6-0.1,1-0.4,1.3c-0.3,0.3-0.7,0.5-1.3,0.5s-1-0.2-1.2-0.5c-0.3-0.3-0.4-0.8-0.4-1.3V103.6z M71.3,107.4
					c0,0.3,0.1,0.6,0.2,0.8c0.1,0.2,0.4,0.3,0.6,0.3c0.3,0,0.5-0.1,0.7-0.3c0.1-0.2,0.2-0.4,0.2-0.8v-3.8c0-0.3-0.1-0.6-0.2-0.8
					c-0.1-0.2-0.4-0.3-0.7-0.3c-0.3,0-0.5,0.1-0.6,0.3c-0.1,0.2-0.2,0.4-0.2,0.8V107.4z"/>
				<path class="st3" d="M75.3,109.1h-0.7v-7.3h1l1.7,5.2v-5.2H78v7.3h-0.8l-1.9-5.9V109.1z"/>
				<path class="st3" d="M80.4,101.8c0.6,0,1,0.2,1.2,0.5s0.4,0.8,0.4,1.3v0.2h-0.8v-0.2c0-0.3-0.1-0.6-0.2-0.8
					c-0.1-0.2-0.3-0.3-0.6-0.3s-0.5,0.1-0.6,0.3c-0.1,0.2-0.2,0.4-0.2,0.8c0,0.3,0.1,0.5,0.2,0.7c0.1,0.2,0.3,0.4,0.5,0.6
					c0.2,0.2,0.4,0.3,0.6,0.5s0.4,0.3,0.6,0.5c0.2,0.2,0.3,0.4,0.5,0.7c0.1,0.2,0.2,0.5,0.2,0.9c0,0.6-0.1,1-0.4,1.3
					c-0.3,0.3-0.7,0.5-1.2,0.5s-1-0.2-1.2-0.5c-0.3-0.3-0.4-0.8-0.4-1.3V107h0.8v0.5c0,0.3,0.1,0.6,0.2,0.8s0.4,0.3,0.6,0.3
					s0.5-0.1,0.6-0.3c0.1-0.2,0.2-0.4,0.2-0.8c0-0.3-0.1-0.5-0.2-0.7c-0.1-0.2-0.3-0.4-0.5-0.5c-0.2-0.2-0.4-0.3-0.6-0.5
					c-0.2-0.2-0.4-0.3-0.6-0.5c-0.2-0.2-0.3-0.4-0.5-0.7c-0.1-0.2-0.2-0.5-0.2-0.9c0-0.6,0.1-1,0.4-1.3
					C79.4,102,79.9,101.8,80.4,101.8z"/>
			</g>
			<g class="st19">
				<path class="st3" d="M153,269.5c0.6,0,1,0.2,1.2,0.5s0.4,0.7,0.4,1.3v0.9c0,0.6-0.1,1-0.4,1.3c-0.3,0.3-0.7,0.4-1.3,0.4h-0.7
					v2.9h-0.8v-7.3H153z M152.9,273.2c0.3,0,0.5-0.1,0.7-0.2c0.1-0.1,0.2-0.4,0.2-0.8v-1c0-0.3-0.1-0.6-0.2-0.7s-0.3-0.2-0.6-0.2
					h-0.8v2.9H152.9z"/>
				<path class="st3" d="M157.8,272.7v0.7h-1.8v2.6h2.2v0.7h-3v-7.3h3v0.7h-2.2v2.5H157.8z"/>
				<path class="st3" d="M158.9,271.3c0-0.6,0.1-1,0.4-1.3c0.3-0.3,0.7-0.5,1.2-0.5s1,0.2,1.3,0.5c0.3,0.3,0.4,0.8,0.4,1.3v3.8
					c0,0.6-0.1,1-0.4,1.3c-0.3,0.3-0.7,0.5-1.3,0.5s-1-0.2-1.2-0.5c-0.3-0.3-0.4-0.8-0.4-1.3V271.3z M159.7,275.1
					c0,0.3,0.1,0.6,0.2,0.8c0.1,0.2,0.4,0.3,0.6,0.3c0.3,0,0.5-0.1,0.7-0.3c0.1-0.2,0.2-0.4,0.2-0.8v-3.8c0-0.3-0.1-0.6-0.2-0.8
					c-0.1-0.2-0.4-0.3-0.7-0.3c-0.3,0-0.5,0.1-0.6,0.3c-0.1,0.2-0.2,0.4-0.2,0.8V275.1z"/>
				<path class="st3" d="M164.6,269.5c0.6,0,1,0.2,1.2,0.5s0.4,0.7,0.4,1.3v0.9c0,0.6-0.1,1-0.4,1.3c-0.3,0.3-0.7,0.4-1.3,0.4h-0.7
					v2.9H163v-7.3H164.6z M164.5,273.2c0.3,0,0.5-0.1,0.7-0.2c0.1-0.1,0.2-0.4,0.2-0.8v-1c0-0.3-0.1-0.6-0.2-0.7s-0.3-0.2-0.6-0.2
					h-0.8v2.9H164.5z"/>
				<path class="st3" d="M166.9,276.8v-7.3h0.8v6.5h2.1v0.7H166.9z"/>
				<path class="st3" d="M173,272.7v0.7h-1.8v2.6h2.2v0.7h-3v-7.3h3v0.7h-2.2v2.5H173z"/>
				<path class="st3" d="M177.4,269.5c0.6,0,1,0.1,1.2,0.4c0.3,0.3,0.4,0.7,0.4,1.2v0.6c0,0.4-0.1,0.7-0.2,1
					c-0.1,0.2-0.4,0.4-0.7,0.5c0.3,0.1,0.6,0.3,0.7,0.5c0.1,0.3,0.2,0.6,0.2,1v1.1c0,0.2,0,0.3,0,0.5c0,0.1,0.1,0.3,0.1,0.4h-0.8
					c0-0.1-0.1-0.2-0.1-0.3c0-0.1,0-0.3,0-0.5v-1.1c0-0.4-0.1-0.7-0.3-0.8c-0.2-0.2-0.4-0.2-0.8-0.2h-0.6v3.1h-0.8v-7.3H177.4z
					 M177.1,273c0.3,0,0.6-0.1,0.8-0.2c0.2-0.1,0.3-0.4,0.3-0.8v-0.7c0-0.3-0.1-0.6-0.2-0.7c-0.1-0.2-0.3-0.2-0.6-0.2h-0.8v2.7
					H177.1z"/>
				<path class="st3" d="M182.4,272.7v0.7h-1.8v2.6h2.2v0.7h-3v-7.3h3v0.7h-2.2v2.5H182.4z"/>
				<path class="st3" d="M184.4,275.3l-0.3,1.5h-0.7l1.4-7.3h1.2l1.4,7.3h-0.8l-0.3-1.5H184.4z M184.5,274.6h1.6l-0.8-4.2
					L184.5,274.6z"/>
				<path class="st3" d="M189.5,269.5c0.6,0,1,0.2,1.2,0.5c0.3,0.3,0.4,0.8,0.4,1.3v0.7h-0.8v-0.7c0-0.3-0.1-0.6-0.2-0.8
					c-0.1-0.2-0.4-0.3-0.6-0.3c-0.3,0-0.5,0.1-0.6,0.3c-0.1,0.2-0.2,0.4-0.2,0.8v3.8c0,0.3,0.1,0.6,0.2,0.8c0.1,0.2,0.4,0.3,0.6,0.3
					c0.3,0,0.5-0.1,0.6-0.3c0.1-0.2,0.2-0.4,0.2-0.8v-0.9h0.8v0.9c0,0.6-0.1,1-0.4,1.3c-0.3,0.3-0.7,0.5-1.2,0.5
					c-0.6,0-1-0.2-1.2-0.5s-0.4-0.8-0.4-1.3v-3.8c0-0.3,0-0.5,0.1-0.8s0.2-0.4,0.3-0.6s0.3-0.3,0.5-0.4
					C189,269.5,189.2,269.5,189.5,269.5z"/>
				<path class="st3" d="M192.7,273.5v3.3h-0.8v-7.3h0.8v3.3h1.8v-3.3h0.8v7.3h-0.8v-3.3H192.7z"/>
				<path class="st3" d="M198.7,272.7v0.7h-1.8v2.6h2.2v0.7h-3v-7.3h3v0.7h-2.2v2.5H198.7z"/>
				<path class="st3" d="M201.5,269.5c0.6,0,1,0.2,1.2,0.5c0.3,0.3,0.4,0.8,0.4,1.3v3.7c0,0.6-0.1,1-0.4,1.3
					c-0.3,0.3-0.7,0.5-1.2,0.5h-1.7v-7.3H201.5z M201.5,276.1c0.3,0,0.5-0.1,0.6-0.3c0.1-0.2,0.2-0.4,0.2-0.8v-3.7
					c0-0.3-0.1-0.6-0.2-0.8c-0.1-0.2-0.4-0.3-0.7-0.3h-0.9v5.8H201.5z"/>
				<path class="st3" d="M205.5,271.3c0-0.6,0.1-1,0.4-1.3s0.7-0.5,1.2-0.5s1,0.2,1.3,0.5c0.3,0.3,0.4,0.8,0.4,1.3v3.8
					c0,0.6-0.1,1-0.4,1.3c-0.3,0.3-0.7,0.5-1.3,0.5s-1-0.2-1.2-0.5s-0.4-0.8-0.4-1.3V271.3z M206.3,275.1c0,0.3,0.1,0.6,0.2,0.8
					c0.1,0.2,0.4,0.3,0.6,0.3c0.3,0,0.5-0.1,0.7-0.3c0.1-0.2,0.2-0.4,0.2-0.8v-3.8c0-0.3-0.1-0.6-0.2-0.8c-0.1-0.2-0.4-0.3-0.7-0.3
					c-0.3,0-0.5,0.1-0.6,0.3c-0.1,0.2-0.2,0.4-0.2,0.8V275.1z"/>
				<path class="st3" d="M210.3,276.8h-0.7v-7.3h1l1.7,5.2v-5.2h0.7v7.3h-0.8l-1.9-5.9V276.8z"/>
			</g>
			<g class="st19">
				<path class="st3" d="M163,281.9c0.6,0,1,0.2,1.2,0.5s0.4,0.8,0.4,1.3v0.2h-0.8v-0.2c0-0.3-0.1-0.6-0.2-0.8
					c-0.1-0.2-0.3-0.3-0.6-0.3s-0.5,0.1-0.6,0.3c-0.1,0.2-0.2,0.4-0.2,0.8c0,0.3,0.1,0.5,0.2,0.7c0.1,0.2,0.3,0.4,0.5,0.6
					c0.2,0.2,0.4,0.3,0.6,0.5s0.4,0.3,0.6,0.5c0.2,0.2,0.3,0.4,0.5,0.7c0.1,0.2,0.2,0.5,0.2,0.9c0,0.6-0.1,1-0.4,1.3
					c-0.3,0.3-0.7,0.5-1.2,0.5s-1-0.2-1.2-0.5c-0.3-0.3-0.4-0.8-0.4-1.3v-0.4h0.8v0.5c0,0.3,0.1,0.6,0.2,0.8s0.4,0.3,0.6,0.3
					s0.5-0.1,0.6-0.3c0.1-0.2,0.2-0.4,0.2-0.8c0-0.3-0.1-0.5-0.2-0.7c-0.1-0.2-0.3-0.4-0.5-0.5c-0.2-0.2-0.4-0.3-0.6-0.5
					c-0.2-0.2-0.4-0.3-0.6-0.5c-0.2-0.2-0.3-0.4-0.5-0.7c-0.1-0.2-0.2-0.5-0.2-0.9c0-0.6,0.1-1,0.4-1.3S162.5,281.9,163,281.9z"/>
				<path class="st3" d="M165.3,283.7c0-0.6,0.1-1,0.4-1.3c0.3-0.3,0.7-0.5,1.2-0.5s1,0.2,1.3,0.5c0.3,0.3,0.4,0.8,0.4,1.3v3.8
					c0,0.6-0.1,1-0.4,1.3c-0.3,0.3-0.7,0.5-1.3,0.5s-1-0.2-1.2-0.5c-0.3-0.3-0.4-0.8-0.4-1.3V283.7z M166.1,287.5
					c0,0.3,0.1,0.6,0.2,0.8c0.1,0.2,0.4,0.3,0.6,0.3c0.3,0,0.5-0.1,0.7-0.3c0.1-0.2,0.2-0.4,0.2-0.8v-3.8c0-0.3-0.1-0.6-0.2-0.8
					c-0.1-0.2-0.4-0.3-0.7-0.3c-0.3,0-0.5,0.1-0.6,0.3c-0.1,0.2-0.2,0.4-0.2,0.8V287.5z"/>
				<path class="st3" d="M170.9,281.9c0.6,0,1,0.2,1.2,0.5s0.4,0.8,0.4,1.3v0.7h-0.8v-0.7c0-0.3-0.1-0.6-0.2-0.8
					c-0.1-0.2-0.4-0.3-0.6-0.3c-0.3,0-0.5,0.1-0.6,0.3c-0.1,0.2-0.2,0.4-0.2,0.8v3.8c0,0.3,0.1,0.6,0.2,0.8c0.1,0.2,0.4,0.3,0.6,0.3
					c0.3,0,0.5-0.1,0.6-0.3c0.1-0.2,0.2-0.4,0.2-0.8v-0.9h0.8v0.9c0,0.6-0.1,1-0.4,1.3s-0.7,0.5-1.2,0.5c-0.6,0-1-0.2-1.2-0.5
					s-0.4-0.8-0.4-1.3v-3.8c0-0.3,0-0.5,0.1-0.8s0.2-0.4,0.3-0.6c0.1-0.2,0.3-0.3,0.5-0.4C170.4,282,170.7,281.9,170.9,281.9z"/>
				<path class="st3" d="M174.1,282v7.3h-0.8V282H174.1z"/>
				<path class="st3" d="M175.8,287.8l-0.3,1.5h-0.7l1.4-7.3h1.2l1.4,7.3h-0.8l-0.3-1.5H175.8z M175.9,287.1h1.6l-0.8-4.2
					L175.9,287.1z"/>
				<path class="st3" d="M179.3,289.2V282h0.8v6.5h2.1v0.7H179.3z"/>
				<path class="st3" d="M187.1,289.2h-0.8l-1.2-5.8v5.8h-0.7V282h1.1l1.2,5.8l1.2-5.8h1.1v7.3h-0.8v-5.8L187.1,289.2z"/>
				<path class="st3" d="M192.4,285.2v0.7h-1.8v2.6h2.2v0.7h-3V282h3v0.7h-2.2v2.5H192.4z"/>
				<path class="st3" d="M195.3,282c0.6,0,1,0.2,1.2,0.5c0.3,0.3,0.4,0.8,0.4,1.3v3.7c0,0.6-0.1,1-0.4,1.3c-0.3,0.3-0.7,0.5-1.2,0.5
					h-1.7V282H195.3z M195.3,288.5c0.3,0,0.5-0.1,0.6-0.3c0.1-0.2,0.2-0.4,0.2-0.8v-3.7c0-0.3-0.1-0.6-0.2-0.8
					c-0.1-0.2-0.4-0.3-0.7-0.3h-0.9v5.8H195.3z"/>
				<path class="st3" d="M198.5,282v7.3h-0.8V282H198.5z"/>
				<path class="st3" d="M200.2,287.8l-0.3,1.5h-0.7l1.4-7.3h1.2l1.4,7.3h-0.8l-0.3-1.5H200.2z M200.3,287.1h1.6l-0.8-4.2
					L200.3,287.1z"/>
			</g>
			<g class="st19">
				<path class="st3" d="M47,200.2c0.6,0,1,0.2,1.2,0.5s0.4,0.8,0.4,1.3v0.7h-0.8v-0.7c0-0.3-0.1-0.6-0.2-0.8
					c-0.1-0.2-0.4-0.3-0.6-0.3c-0.3,0-0.5,0.1-0.6,0.3c-0.1,0.2-0.2,0.4-0.2,0.8v3.8c0,0.3,0.1,0.6,0.2,0.8c0.1,0.2,0.4,0.3,0.6,0.3
					c0.3,0,0.5-0.1,0.6-0.3c0.1-0.2,0.2-0.4,0.2-0.8v-0.9h0.8v0.9c0,0.6-0.1,1-0.4,1.3s-0.7,0.5-1.2,0.5c-0.6,0-1-0.2-1.2-0.5
					s-0.4-0.8-0.4-1.3V202c0-0.3,0-0.5,0.1-0.8s0.2-0.4,0.3-0.6c0.1-0.2,0.3-0.3,0.5-0.4C46.4,200.2,46.7,200.2,47,200.2z"/>
				<path class="st3" d="M49.3,202c0-0.6,0.1-1,0.4-1.3c0.3-0.3,0.7-0.5,1.2-0.5s1,0.2,1.3,0.5c0.3,0.3,0.4,0.8,0.4,1.3v3.8
					c0,0.6-0.1,1-0.4,1.3c-0.3,0.3-0.7,0.5-1.3,0.5s-1-0.2-1.2-0.5c-0.3-0.3-0.4-0.8-0.4-1.3V202z M50.1,205.8
					c0,0.3,0.1,0.6,0.2,0.8c0.1,0.2,0.4,0.3,0.6,0.3c0.3,0,0.5-0.1,0.7-0.3c0.1-0.2,0.2-0.4,0.2-0.8v-3.8c0-0.3-0.1-0.6-0.2-0.8
					c-0.1-0.2-0.4-0.3-0.7-0.3c-0.3,0-0.5,0.1-0.6,0.3c-0.1,0.2-0.2,0.4-0.2,0.8V205.8z"/>
				<path class="st3" d="M54.1,205.8c0,0.3,0.1,0.6,0.2,0.8c0.1,0.2,0.4,0.3,0.6,0.3c0.3,0,0.5-0.1,0.6-0.3c0.1-0.2,0.2-0.4,0.2-0.8
					v-5.5h0.8v5.5c0,0.6-0.1,1-0.4,1.3c-0.3,0.3-0.7,0.5-1.2,0.5c-0.6,0-1-0.2-1.2-0.5c-0.3-0.3-0.4-0.8-0.4-1.3v-5.5h0.8V205.8z"/>
				<path class="st3" d="M58.1,207.5h-0.7v-7.3h1l1.7,5.2v-5.2h0.7v7.3H60l-1.9-5.9V207.5z"/>
				<path class="st3" d="M62.7,207.5V201h-1.3v-0.7h3.5v0.7h-1.3v6.5H62.7z"/>
				<path class="st3" d="M67,200.2c0.6,0,1,0.1,1.2,0.4c0.3,0.3,0.4,0.7,0.4,1.2v0.6c0,0.4-0.1,0.7-0.2,1c-0.1,0.2-0.4,0.4-0.7,0.5
					c0.3,0.1,0.6,0.3,0.7,0.5c0.1,0.3,0.2,0.6,0.2,1v1.1c0,0.2,0,0.3,0,0.5c0,0.1,0.1,0.3,0.1,0.4H68c0-0.1-0.1-0.2-0.1-0.3
					c0-0.1,0-0.3,0-0.5v-1.1c0-0.4-0.1-0.7-0.3-0.8c-0.2-0.2-0.4-0.2-0.8-0.2h-0.6v3.1h-0.8v-7.3H67z M66.8,203.7
					c0.3,0,0.6-0.1,0.8-0.2c0.2-0.1,0.3-0.4,0.3-0.8V202c0-0.3-0.1-0.6-0.2-0.7c-0.1-0.2-0.3-0.2-0.6-0.2h-0.8v2.7H66.8z"/>
				<path class="st3" d="M70.3,200.2v7.3h-0.8v-7.3H70.3z"/>
				<path class="st3" d="M73.7,203.4v0.7h-1.8v2.6h2.2v0.7h-3v-7.3h3v0.7h-2.2v2.5H73.7z"/>
				<path class="st3" d="M76.4,200.2c0.6,0,1,0.2,1.2,0.5s0.4,0.8,0.4,1.3v0.2h-0.8v-0.2c0-0.3-0.1-0.6-0.2-0.8
					c-0.1-0.2-0.3-0.3-0.6-0.3s-0.5,0.1-0.6,0.3c-0.1,0.2-0.2,0.4-0.2,0.8c0,0.3,0.1,0.5,0.2,0.7c0.1,0.2,0.3,0.4,0.5,0.6
					c0.2,0.2,0.4,0.3,0.6,0.5s0.4,0.3,0.6,0.5c0.2,0.2,0.3,0.4,0.5,0.7c0.1,0.2,0.2,0.5,0.2,0.9c0,0.6-0.1,1-0.4,1.3
					c-0.3,0.3-0.7,0.5-1.2,0.5s-1-0.2-1.2-0.5c-0.3-0.3-0.4-0.8-0.4-1.3v-0.4h0.8v0.5c0,0.3,0.1,0.6,0.2,0.8s0.4,0.3,0.6,0.3
					s0.5-0.1,0.6-0.3c0.1-0.2,0.2-0.4,0.2-0.8c0-0.3-0.1-0.5-0.2-0.7c-0.1-0.2-0.3-0.4-0.5-0.5c-0.2-0.2-0.4-0.3-0.6-0.5
					c-0.2-0.2-0.4-0.3-0.6-0.5c-0.2-0.2-0.3-0.4-0.5-0.7c-0.1-0.2-0.2-0.5-0.2-0.9c0-0.6,0.1-1,0.4-1.3S75.8,200.2,76.4,200.2z"/>
			</g>
			<g class="st19">
				<path class="st3" d="M42.2,212.7c0.6,0,1,0.1,1.2,0.4c0.3,0.3,0.4,0.7,0.4,1.2v0.6c0,0.4-0.1,0.7-0.2,1
					c-0.1,0.2-0.4,0.4-0.7,0.5c0.3,0.1,0.6,0.3,0.7,0.5c0.1,0.3,0.2,0.6,0.2,1v1.1c0,0.2,0,0.3,0,0.5c0,0.1,0.1,0.3,0.1,0.4h-0.8
					c0-0.1-0.1-0.2-0.1-0.3c0-0.1,0-0.3,0-0.5v-1.1c0-0.4-0.1-0.7-0.3-0.8c-0.2-0.2-0.4-0.2-0.8-0.2h-0.6v3.1h-0.8v-7.3H42.2z
					 M42,216.1c0.3,0,0.6-0.1,0.8-0.2c0.2-0.1,0.3-0.4,0.3-0.8v-0.7c0-0.3-0.1-0.6-0.2-0.7c-0.1-0.2-0.3-0.2-0.6-0.2h-0.8v2.7H42z"
					/>
				<path class="st3" d="M47.2,215.9v0.7h-1.8v2.6h2.2v0.7h-3v-7.3h3v0.7h-2.2v2.5H47.2z"/>
				<path class="st3" d="M50,212.7c0.6,0,1,0.2,1.2,0.5s0.4,0.7,0.4,1.3v0.9c0,0.6-0.1,1-0.4,1.3c-0.3,0.3-0.7,0.4-1.3,0.4h-0.7v2.9
					h-0.8v-7.3H50z M49.9,216.4c0.3,0,0.5-0.1,0.7-0.2c0.1-0.1,0.2-0.4,0.2-0.8v-1c0-0.3-0.1-0.6-0.2-0.7s-0.3-0.2-0.6-0.2h-0.8v2.9
					H49.9z"/>
				<path class="st3" d="M53.9,212.7c0.6,0,1,0.1,1.2,0.4c0.3,0.3,0.4,0.7,0.4,1.2v0.6c0,0.4-0.1,0.7-0.2,1
					c-0.1,0.2-0.4,0.4-0.7,0.5c0.3,0.1,0.6,0.3,0.7,0.5c0.1,0.3,0.2,0.6,0.2,1v1.1c0,0.2,0,0.3,0,0.5c0,0.1,0.1,0.3,0.1,0.4h-0.8
					c0-0.1-0.1-0.2-0.1-0.3c0-0.1,0-0.3,0-0.5v-1.1c0-0.4-0.1-0.7-0.3-0.8c-0.2-0.2-0.4-0.2-0.8-0.2h-0.6v3.1h-0.8v-7.3H53.9z
					 M53.7,216.1c0.3,0,0.6-0.1,0.8-0.2c0.2-0.1,0.3-0.4,0.3-0.8v-0.7c0-0.3-0.1-0.6-0.2-0.7c-0.1-0.2-0.3-0.2-0.6-0.2h-0.8v2.7
					H53.7z"/>
				<path class="st3" d="M58.9,215.9v0.7h-1.8v2.6h2.2v0.7h-3v-7.3h3v0.7h-2.2v2.5H58.9z"/>
				<path class="st3" d="M61.6,212.6c0.6,0,1,0.2,1.2,0.5s0.4,0.8,0.4,1.3v0.2h-0.8v-0.2c0-0.3-0.1-0.6-0.2-0.8
					c-0.1-0.2-0.3-0.3-0.6-0.3s-0.5,0.1-0.6,0.3c-0.1,0.2-0.2,0.4-0.2,0.8c0,0.3,0.1,0.5,0.2,0.7c0.1,0.2,0.3,0.4,0.5,0.6
					c0.2,0.2,0.4,0.3,0.6,0.5s0.4,0.3,0.6,0.5c0.2,0.2,0.3,0.4,0.5,0.7c0.1,0.2,0.2,0.5,0.2,0.9c0,0.6-0.1,1-0.4,1.3
					c-0.3,0.3-0.7,0.5-1.2,0.5s-1-0.2-1.2-0.5c-0.3-0.3-0.4-0.8-0.4-1.3v-0.4h0.8v0.5c0,0.3,0.1,0.6,0.2,0.8s0.4,0.3,0.6,0.3
					s0.5-0.1,0.6-0.3c0.1-0.2,0.2-0.4,0.2-0.8c0-0.3-0.1-0.5-0.2-0.7c-0.1-0.2-0.3-0.4-0.5-0.5c-0.2-0.2-0.4-0.3-0.6-0.5
					c-0.2-0.2-0.4-0.3-0.6-0.5c-0.2-0.2-0.3-0.4-0.5-0.7c-0.1-0.2-0.2-0.5-0.2-0.9c0-0.6,0.1-1,0.4-1.3S61.1,212.6,61.6,212.6z"/>
				<path class="st3" d="M66.5,215.9v0.7h-1.8v2.6h2.2v0.7h-3v-7.3h3v0.7h-2.2v2.5H66.5z"/>
				<path class="st3" d="M68.4,219.9h-0.7v-7.3h1l1.7,5.2v-5.2h0.7v7.3h-0.8l-1.9-5.9V219.9z"/>
				<path class="st3" d="M73,219.9v-6.5h-1.3v-0.7h3.5v0.7h-1.3v6.5H73z"/>
				<path class="st3" d="M78.3,215.9v0.7h-1.8v2.6h2.2v0.7h-3v-7.3h3v0.7h-2.2v2.5H78.3z"/>
				<path class="st3" d="M81.1,212.7c0.6,0,1,0.2,1.3,0.5c0.3,0.3,0.4,0.8,0.4,1.3v3.7c0,0.6-0.1,1-0.4,1.3
					c-0.3,0.3-0.7,0.5-1.3,0.5h-1.7v-7.3H81.1z M81.1,219.2c0.3,0,0.5-0.1,0.6-0.3c0.1-0.2,0.2-0.4,0.2-0.8v-3.7
					c0-0.3-0.1-0.6-0.2-0.8c-0.1-0.2-0.4-0.3-0.7-0.3h-0.9v5.8H81.1z"/>
			</g>
			<g class="st19">
				<path class="st3" d="M149.1,110.4c0-1.3,0.3-2.3,0.9-2.9s1.5-1,2.7-1c1.2,0,2,0.3,2.6,1c0.6,0.7,0.9,1.6,0.9,2.8v0.4H154v-0.5
					c0-0.5-0.1-0.9-0.3-1.2s-0.5-0.3-0.9-0.3c-0.4,0-0.7,0.1-1,0.4c-0.2,0.3-0.3,0.7-0.3,1.5v2.8c0.4-0.9,1.2-1.3,2.2-1.3
					c0.9,0,1.5,0.3,2,0.9c0.4,0.6,0.7,1.4,0.7,2.6v2.8c0,1.2-0.3,2.2-0.9,2.8c-0.6,0.7-1.5,1-2.7,1c-1.2,0-2.1-0.3-2.7-1
					c-0.6-0.7-0.9-1.6-0.9-2.8V110.4z M152.7,114c-0.4,0-0.7,0.1-0.9,0.3c-0.2,0.2-0.3,0.6-0.3,1.2v2.7c0,0.5,0.1,0.9,0.3,1.1
					c0.2,0.2,0.5,0.3,0.9,0.3c0.4,0,0.7-0.1,0.9-0.3c0.2-0.2,0.3-0.6,0.3-1.1v-2.7c0-0.5-0.1-0.9-0.3-1.2
					C153.3,114.2,153,114,152.7,114z"/>
				<path class="st3" d="M164.7,106.6v2.1l-3.5,13h-2.4l3.5-12.9h-4.7v-2.2H164.7z"/>
				<path class="st3" d="M171,110.3c0-0.7-0.1-1.1-0.3-1.4c-0.2-0.2-0.5-0.4-0.9-0.4c-0.4,0-0.7,0.1-0.9,0.3
					c-0.2,0.2-0.3,0.6-0.3,1.2v1.6h-2.2v-1.5c0-1.2,0.3-2.2,0.9-2.8c0.6-0.7,1.5-1,2.6-1c1.2,0,2,0.3,2.6,1c0.6,0.7,0.9,1.6,0.9,2.8
					c0,0.8-0.1,1.5-0.3,2.1c-0.2,0.6-0.5,1.2-0.9,1.7c-0.4,0.5-0.7,1-1.1,1.5c-0.4,0.4-0.8,0.9-1.1,1.3c-0.4,0.4-0.6,0.8-0.9,1.2
					c-0.2,0.4-0.3,0.8-0.3,1.2c0,0.1,0,0.3,0,0.3h4.5v2.2h-6.9v-1.9c0-0.7,0.1-1.4,0.3-1.9c0.2-0.6,0.5-1.1,0.9-1.5
					c0.4-0.5,0.7-0.9,1.1-1.3c0.4-0.4,0.8-0.8,1.1-1.3c0.4-0.5,0.6-1,0.9-1.5C170.9,111.7,171,111.1,171,110.3z"/>
				<path class="st3" d="M180.3,116.9v1.4c0,0.5,0.1,0.9,0.3,1.1c0.2,0.2,0.5,0.3,0.9,0.3c0.4,0,0.7-0.1,0.9-0.3
					c0.2-0.2,0.3-0.6,0.3-1.1v-3.3c0-0.5-0.1-0.9-0.3-1.2c-0.2-0.2-0.5-0.3-0.9-0.3c-0.4,0-0.7,0.1-0.9,0.3
					c-0.2,0.2-0.3,0.6-0.3,1.2v0.5h-2.2l0.4-8.8h6.3v2.2h-4.1l-0.2,3.6c0.4-0.7,1.1-1.1,2.1-1.1c0.9,0,1.5,0.3,2,0.9
					s0.7,1.4,0.7,2.6v3.4c0,1.2-0.3,2.2-0.9,2.8s-1.5,1-2.6,1s-2-0.3-2.6-1c-0.6-0.7-0.9-1.6-0.9-2.8v-1.3H180.3z"/>
				<path class="st3" d="M186.6,110.4c0-1.3,0.3-2.3,0.9-2.9s1.5-1,2.7-1c1.2,0,2,0.3,2.6,1c0.6,0.7,0.9,1.6,0.9,2.8v0.4h-2.2v-0.5
					c0-0.5-0.1-0.9-0.3-1.2c-0.2-0.2-0.5-0.3-0.9-0.3c-0.4,0-0.7,0.1-1,0.4c-0.2,0.3-0.3,0.7-0.3,1.5v2.8c0.4-0.9,1.2-1.3,2.2-1.3
					c0.9,0,1.5,0.3,2,0.9c0.4,0.6,0.7,1.4,0.7,2.6v2.8c0,1.2-0.3,2.2-0.9,2.8s-1.5,1-2.7,1c-1.2,0-2.1-0.3-2.7-1
					c-0.6-0.7-0.9-1.6-0.9-2.8V110.4z M190.2,114c-0.4,0-0.7,0.1-0.9,0.3c-0.2,0.2-0.3,0.6-0.3,1.2v2.7c0,0.5,0.1,0.9,0.3,1.1
					c0.2,0.2,0.5,0.3,0.9,0.3s0.7-0.1,0.9-0.3c0.2-0.2,0.3-0.6,0.3-1.1v-2.7c0-0.5-0.1-0.9-0.3-1.2C190.9,114.2,190.6,114,190.2,114
					z"/>
				<path class="st3" d="M202.4,118.1c0,1.2-0.3,2.2-1,2.8c-0.6,0.7-1.6,1-2.8,1c-1.2,0-2.1-0.3-2.8-1c-0.6-0.7-0.9-1.6-0.9-2.8
					v-1.2c0-0.7,0.1-1.4,0.3-1.9s0.6-1,1.1-1.2c-1-0.5-1.5-1.5-1.5-3v-0.5c0-1.2,0.3-2.2,0.9-2.8c0.6-0.7,1.6-1,2.8-1
					c1.2,0,2.1,0.3,2.8,1c0.6,0.7,1,1.6,1,2.8v0.5c0,1.5-0.5,2.5-1.5,3c0.5,0.3,0.9,0.7,1.1,1.2s0.3,1.2,0.3,1.9V118.1z
					 M197.4,111.2c0,0.6,0.1,1,0.4,1.3c0.3,0.2,0.6,0.3,1,0.3c0.4,0,0.7-0.1,0.9-0.3c0.3-0.2,0.4-0.6,0.4-1.3v-0.8
					c0-0.7-0.1-1.1-0.4-1.4c-0.3-0.2-0.6-0.4-0.9-0.4s-0.7,0.1-0.9,0.4s-0.4,0.7-0.4,1.4V111.2z M197.4,118c0,0.7,0.1,1.1,0.4,1.4
					c0.3,0.2,0.6,0.3,0.9,0.3s0.7-0.1,0.9-0.3c0.3-0.2,0.4-0.7,0.4-1.4v-1.4c0-0.6-0.1-1-0.4-1.3c-0.2-0.3-0.6-0.4-1-0.4
					s-0.7,0.1-1,0.4s-0.4,0.7-0.4,1.3V118z"/>
			</g>
			<g class="st19">
				<path class="st3" d="M151.2,140.9l1.8-12.3h2.2l-2.3,15.1h-3.5l-2.3-15.1h2.4L151.2,140.9z"/>
				<path class="st3" d="M156.2,128.6h2.4v15.1h-2.4V128.6z"/>
				<path class="st3" d="M160,132.2c0-1.2,0.3-2.2,0.9-2.8c0.6-0.7,1.5-1,2.6-1c1.2,0,2,0.3,2.6,1c0.6,0.7,0.9,1.6,0.9,2.8v0.5h-2.2
					v-0.6c0-0.5-0.1-0.9-0.3-1.2c-0.2-0.2-0.5-0.3-0.9-0.3c-0.4,0-0.7,0.1-0.9,0.3s-0.3,0.6-0.3,1.2c0,0.5,0.1,1,0.3,1.4
					c0.2,0.4,0.5,0.8,0.9,1.1c0.3,0.4,0.7,0.7,1.1,1.1c0.4,0.4,0.8,0.7,1.1,1.2c0.3,0.4,0.6,0.9,0.9,1.4c0.2,0.5,0.3,1.2,0.3,1.9
					c0,1.2-0.3,2.2-0.9,2.8c-0.6,0.7-1.5,1-2.6,1c-1.2,0-2-0.3-2.6-1c-0.6-0.7-0.9-1.6-0.9-2.8v-0.9h2.2v1.1c0,0.5,0.1,0.9,0.3,1.1
					s0.5,0.3,0.9,0.3c0.4,0,0.7-0.1,0.9-0.3c0.2-0.2,0.3-0.6,0.3-1.1c0-0.5-0.1-1-0.3-1.4s-0.5-0.8-0.9-1.1s-0.7-0.7-1.1-1.1
					c-0.4-0.4-0.8-0.7-1.1-1.2c-0.3-0.4-0.6-0.9-0.9-1.4C160.2,133.6,160,133,160,132.2z"/>
				<path class="st3" d="M168.4,128.6h2.4v15.1h-2.4V128.6z"/>
				<path class="st3" d="M171.8,128.6h7.3v2.2h-2.5v12.9h-2.4v-12.9h-2.5V128.6z"/>
				<path class="st3" d="M180,132.2c0-1.2,0.3-2.2,0.9-2.8c0.6-0.7,1.5-1,2.7-1s2.1,0.3,2.7,1c0.6,0.7,0.9,1.6,0.9,2.8v7.9
					c0,1.2-0.3,2.2-0.9,2.8s-1.5,1-2.7,1s-2.1-0.3-2.7-1s-0.9-1.6-0.9-2.8V132.2z M182.4,140.3c0,0.5,0.1,0.9,0.3,1.2
					c0.2,0.2,0.5,0.3,0.9,0.3s0.7-0.1,0.9-0.3c0.2-0.2,0.3-0.6,0.3-1.2v-8.2c0-0.5-0.1-0.9-0.3-1.2s-0.5-0.3-0.9-0.3
					s-0.7,0.1-0.9,0.3s-0.3,0.6-0.3,1.2V140.3z"/>
				<path class="st3" d="M193.7,143.7c0-0.1-0.1-0.2-0.1-0.3c0-0.1-0.1-0.2-0.1-0.3c0-0.1,0-0.3,0-0.5c0-0.2,0-0.5,0-0.8v-2.4
					c0-0.7-0.1-1.2-0.4-1.5c-0.2-0.3-0.6-0.4-1.2-0.4h-0.8v6.1h-2.4v-15.1h3.6c1.2,0,2.1,0.3,2.7,0.9s0.8,1.4,0.8,2.6v1.2
					c0,1.6-0.5,2.6-1.6,3.1c0.6,0.2,1,0.6,1.2,1.2s0.3,1.2,0.3,2v2.3c0,0.4,0,0.7,0,1c0,0.3,0.1,0.6,0.2,0.9H193.7z M191.1,130.8
					v4.6h0.9c0.4,0,0.8-0.1,1-0.3s0.4-0.6,0.4-1.3v-1.5c0-0.5-0.1-0.9-0.3-1.2s-0.5-0.4-0.9-0.4H191.1z"/>
				<path class="st3" d="M197.1,132.2c0-1.2,0.3-2.2,0.9-2.8c0.6-0.7,1.5-1,2.6-1s2,0.3,2.6,1c0.6,0.7,0.9,1.6,0.9,2.8v0.5h-2.2
					v-0.6c0-0.5-0.1-0.9-0.3-1.2c-0.2-0.2-0.5-0.3-0.9-0.3s-0.7,0.1-0.9,0.3c-0.2,0.2-0.3,0.6-0.3,1.2c0,0.5,0.1,1,0.3,1.4
					c0.2,0.4,0.5,0.8,0.9,1.1c0.3,0.4,0.7,0.7,1.1,1.1s0.8,0.7,1.1,1.2c0.3,0.4,0.6,0.9,0.9,1.4c0.2,0.5,0.3,1.2,0.3,1.9
					c0,1.2-0.3,2.2-0.9,2.8c-0.6,0.7-1.5,1-2.6,1s-2-0.3-2.6-1s-0.9-1.6-0.9-2.8v-0.9h2.2v1.1c0,0.5,0.1,0.9,0.3,1.1
					c0.2,0.2,0.5,0.3,0.9,0.3s0.7-0.1,0.9-0.3c0.2-0.2,0.3-0.6,0.3-1.1c0-0.5-0.1-1-0.3-1.4c-0.2-0.4-0.5-0.8-0.9-1.1
					c-0.3-0.4-0.7-0.7-1.1-1.1c-0.4-0.4-0.8-0.7-1.1-1.2c-0.3-0.4-0.6-0.9-0.9-1.4C197.2,133.6,197.1,133,197.1,132.2z"/>
			</g>
		</g>
	</g>
</g>
</svg>
