<?xml version="1.0" encoding="utf-8"?>
<!-- Generator: Adobe Illustrator 23.0.3, SVG Export Plug-In . SVG Version: 6.00 Build 0)  -->
<svg version="1.1" id="Calque_1" xmlns="http://www.w3.org/2000/svg" xmlns:xlink="http://www.w3.org/1999/xlink" x="0px" y="0px"
	 viewBox="0 0 300 280" style="enable-background:new 0 0 300 280;" xml:space="preserve">
<style type="text/css">
	.st0{fill:#FFFFFF;}
	.st1{fill:none;stroke:#F6A723;stroke-width:9;}
	.st2{fill:none;stroke:#E74892;stroke-width:9;}
	.st3{fill:none;stroke:#E74427;stroke-width:9;}
	.st4{fill:none;stroke:#80BA27;stroke-width:9;}
	.st5{fill:none;stroke:#30B3E8;stroke-width:9;}
	.st6{fill:#2A2A2A;}
	.st7{font-family:'BebasNeueRegular';}
	.st8{font-size:12.046px;}
	.st9{fill:#E74892;}
	.st10{font-family:'BebasNeueBold';}
	.st11{font-size:21.5997px;}
	.st12{fill:#F6A723;}
	.st13{fill:#80BA27;}
	.st14{fill:#30B3E8;}
	.st15{fill:#E74427;}
	.st16{font-size:10.3845px;}
	.st17{enable-background:new    ;}
</style>
<g transform="translate(-14 -12)">
	<g transform="translate(14 48)">
		<circle class="st0" cx="147.9" cy="94.3" r="73.1"/>
		<g transform="translate(97)">
			<path class="st1" d="M95.8,20.9c26.4,15.9,41.1,43.9,41.4,72.8"/>
			<path class="st2" d="M9.7,19.3c27-14.8,58.6-13.7,83.8,0.4"/>
			<path class="st3" d="M-34.4,92.5c0.7-30.4,17.5-57.1,41.8-71.8"/>
			<path class="st1" d="M6.9,167.7c-26.4-15.9-41.1-43.9-41.4-72.8"/>
			<path class="st4" d="M93,169.7c-26.9,14.8-58.6,13.7-83.8-0.4"/>
			<path class="st5" d="M137.2,95.6c-0.8,30.4-17.5,57.1-41.8,71.7"/>
		</g>
	</g>
	<text transform="matrix(1 0 0 1 138.7093 165.562)" class="st6 st7 st8">With 37 950</text>
	<text transform="matrix(1 0 0 1 121.4262 180.1001)" class="st6 st7 st8">Professional Visitors</text>
	<text transform="matrix(1 0 0 1 152.1417 31.3638)" class="st9 st10 st11">57</text>
	<text transform="matrix(1 0 0 1 254.9863 89.9316)" class="st12 st10 st11">1 000 +</text>
	<text transform="matrix(1 0 0 1 129.543 261.8979)" class="st13 st10 st11">3 millions</text>
	<text transform="matrix(1 0 0 1 260.3867 189.2075)" class="st14 st10 st11">8 118</text>
	<text transform="matrix(1 0 0 1 33.5898 83.2852)" class="st15 st10 st11">65</text>
	<text transform="matrix(1 0 0 1 36.082 192.9448)" class="st12 st10 st11">27</text>
	<text transform="matrix(1 0 0 1 259.1406 103.2236)" class="st6 st7 st16">Exhibitors</text>
	<text transform="matrix(1 0 0 1 253.1441 203.3301)" class="st6 st7 st16">Press coverage</text>
	<text transform="matrix(1 0 0 1 137.6169 276.8525)" class="st6 st7 st16">People reach on</text>
	<text transform="matrix(1 0 0 1 143.7955 289.3135)" class="st6 st7 st16">Social media</text>
	<text transform="matrix(1 0 0 1 27.6639 207.4839)" class="st17"><tspan x="0" y="0" class="st6 st7 st16">Countries</tspan><tspan x="-4.8" y="12.5" class="st6 st7 st16">represented</tspan></text>
	<text transform="matrix(1 0 0 1 18.509 96.606)" class="st17"><tspan x="0" y="0" class="st6 st7 st16">International</tspan><tspan x="3.3" y="12.5" class="st6 st7 st16">Delegations</tspan></text>
	<text transform="matrix(1 0 0 1 138.4473 43.4242)" class="st6 st7 st16">Official visits</text>
	<text transform="matrix(1 0 0 1 133.4406 124.6528)" class="st6 st10 st11">633 213</text>
	<text transform="matrix(1 0 0 1 186.1089 124.6528)" class="st6 st10 st11"> </text>
	<text transform="matrix(1 0 0 1 132.7929 146.668)" class="st6 st10 st11">visitors</text>
</g>
</svg>
