<svg xmlns="http://www.w3.org/2000/svg" xmlns:xlink="http://www.w3.org/1999/xlink" width="298" height="274" viewBox="0 0 298 274">
  <defs>
    <circle id="graph-exposant-mobile-b" cx="117" cy="122" r="67"/>
    <filter id="graph-exposant-mobile-a" width="125.4%" height="125.4%" x="-12.7%" y="-11.9%" filterUnits="objectBoundingBox">
      <feOffset dy="1" in="SourceAlpha" result="shadowOffsetOuter1"/>
      <feGaussianBlur in="shadowOffsetOuter1" result="shadowBlurOuter1" stdDeviation="5.5"/>
      <feColorMatrix in="shadowBlurOuter1" values="0 0 0 0 0   0 0 0 0 0   0 0 0 0 0  0 0 0 0.497027853 0"/>
    </filter>
  </defs>
  <g fill="none" fill-rule="evenodd" transform="translate(34 9)">
    <use fill="#000" filter="url(#graph-exposant-mobile-a)" xlink:href="#graph-exposant-mobile-b"/>
    <circle cx="115" cy="119" r="78" fill="#FFF"/>
    <g stroke-width="8.019">
      <path stroke="#f6a924" d="M146.20155,57.2067039 C179.184698,57.81338 207.982205,75.9765624 223.75969,102.793296" transform="rotate(30 184.98 80)"/>
      <path stroke="#e30059" d="M76.2209302,61.6759777 C93.2417814,33.3168323 123.268624,17.3384225 154.224806,16.9832402" transform="rotate(30 115.223 39.33)"/>
      <path stroke="#009cd8" d="M45.9557009,121.117318 C30.3888722,92.3835572 31.5742515,58.5836052 46.3565891,31.7318436" transform="rotate(30 40.562 76.425)"/>
      <path stroke="#f6a924" d="M83.7984496,182.346369 C50.8153019,181.739693 22.0177947,163.57651 6.24031008,136.759777" transform="rotate(30 45.02 159.553)"/>
      <path stroke="#83b81a" d="M153.77907,178.324022 C136.758219,206.683168 106.732059,222.661578 75.7751938,223.01676" transform="rotate(30 114.777 200.67)"/>
      <path stroke="#009cd8" d="M184.044291,117.988827 C199.610793,146.722588 198.426104,180.52254 183.643411,207.374302" transform="rotate(30 189.438 162.682)"/>
    </g>
    <g fill-rule="nonzero" transform="translate(-34 -9)">
      <path fill="#2A2A2A" d="M116.3.1L117.4 6.2 118.5.1 119.2.1 117.9 7.1 116.8 7.1 115.5.1 116.3.1zM120.8.1L120.8 7.1 120 7.1 120 .1 120.8.1zM123.3 0C123.8 0 124.2.2 124.5.5 124.8.8 124.9 1.2 124.9 1.8L124.9 2 124.2 2 124.2 1.8C124.2 1.5 124.1 1.2 124 1.1 123.9.9 123.7.8 123.4.8 123.1.8 122.9.9 122.8 1.1 122.7 1.3 122.6 1.5 122.6 1.8 122.6 2.1 122.7 2.3 122.8 2.5 122.9 2.7 123.1 2.9 123.2 3 123.4 3.2 123.6 3.3 123.8 3.5 124 3.7 124.2 3.8 124.4 4 124.6 4.2 124.7 4.4 124.8 4.6 124.9 4.8 125 5.1 125 5.4 125 5.9 124.9 6.4 124.6 6.7 124.3 7 123.9 7.2 123.4 7.2 122.9 7.2 122.5 7 122.2 6.7 121.9 6.4 121.8 6 121.8 5.4L121.8 5 122.5 5 122.5 5.4C122.5 5.7 122.6 6 122.7 6.1 122.8 6.3 123 6.4 123.3 6.4 123.6 6.4 123.8 6.3 123.9 6.1 124 5.9 124.1 5.7 124.1 5.4 124.1 5.1 124 4.9 123.9 4.7 123.8 4.5 123.6 4.3 123.5 4.2 123.4 4.1 123.1 3.9 122.9 3.7 122.7 3.5 122.5 3.4 122.3 3.2 122.1 3 122 2.8 121.9 2.6 121.8 2.4 121.7 2.1 121.7 1.8 121.7 1.3 121.8.8 122.1.5 122.4.2 122.8 0 123.3 0zM126.5.1L126.5 7.1 125.7 7.1 125.7.1 126.5.1zM128.5 7.1L128.5.8 127.2.8 127.2.1 130.5.1 130.5.8 129.2.8 129.2 7.1C129.2 7.1 128.5 7.1 128.5 7.1zM133.8 3.2L133.8 3.9 132 3.9 132 6.4 134.1 6.4 134.1 7.1 131.2 7.1 131.2.1 134.1.1 134.1.8 132 .8 132 3.2C132 3.2 133.8 3.2 133.8 3.2zM136.6 0C137.1 0 137.5.2 137.8.5 138.1.8 138.2 1.2 138.2 1.8L138.2 2 137.5 2 137.5 1.8C137.5 1.5 137.4 1.2 137.3 1.1 137.2.9 137 .8 136.7.8 136.4.8 136.2.9 136.1 1.1 136 1.3 135.9 1.5 135.9 1.8 135.9 2.1 136 2.3 136.1 2.5 136.2 2.7 136.4 2.9 136.5 3 136.7 3.2 136.9 3.3 137.1 3.5 137.3 3.7 137.5 3.8 137.7 4 137.9 4.2 138 4.4 138.1 4.6 138.2 4.8 138.3 5.1 138.3 5.4 138.3 5.9 138.2 6.4 137.9 6.7 137.6 7 137.1 7.1 136.6 7.1 136.1 7.1 135.7 6.9 135.4 6.6 135.1 6.3 135 5.9 135 5.3L135 4.9 135.7 4.9 135.7 5.3C135.7 5.6 135.8 5.9 135.9 6 136 6.2 136.2 6.3 136.5 6.3 136.8 6.3 137 6.2 137.1 6 137.2 5.8 137.3 5.6 137.3 5.3 137.3 5 137.2 4.8 137.1 4.6 137 4.4 136.8 4.2 136.7 4.1 136.6 4 136.3 3.8 136.1 3.6 135.9 3.4 135.7 3.3 135.5 3.1 135.3 2.9 135.2 2.7 135.1 2.5 135 2.3 134.9 2 134.9 1.7 134.9 1.2 135 .7 135.3.4 135.6.1 136.1 0 136.6 0zM140.7 1.8C140.7 1.3 140.8.8 141.1.5 141.4.2 141.8 0 142.3 0 142.8 0 143.2.2 143.5.5 143.8.8 143.9 1.2 143.9 1.8L143.9 5.4C143.9 5.9 143.8 6.4 143.5 6.7 143.2 7 142.8 7.2 142.3 7.2 141.8 7.2 141.4 7 141.1 6.7 140.8 6.4 140.7 6 140.7 5.4L140.7 1.8zM141.5 5.4C141.5 5.7 141.6 6 141.7 6.1 141.8 6.3 142 6.4 142.3 6.4 142.6 6.4 142.8 6.3 142.9 6.1 143 5.9 143.1 5.7 143.1 5.4L143.1 1.7C143.1 1.4 143 1.1 142.9 1 142.8.9 142.6.7 142.3.7 142 .7 141.8.8 141.7 1 141.6 1.2 141.5 1.4 141.5 1.7L141.5 5.4zM147.2 3.3L147.2 4.1 145.6 4.1 145.6 7.1 144.8 7.1 144.8.1 147.6.1 147.6.8 145.6.8 145.6 3.3 147.2 3.3zM150.8 3.3L150.8 4.1 149.2 4.1 149.2 7.1 148.4 7.1 148.4.1 151.2.1 151.2.8 149.2.8 149.2 3.3 150.8 3.3zM152.8.1L152.8 7.1 152 7.1 152 .1 152.8.1zM155.3 0C155.8 0 156.2.2 156.5.5 156.8.8 156.9 1.2 156.9 1.8L156.9 2.4 156.2 2.4 156.2 1.7C156.2 1.4 156.1 1.1 156 1 155.9.9 155.7.7 155.4.7 155.1.7 154.9.8 154.8 1 154.7 1.2 154.6 1.4 154.6 1.7L154.6 5.4C154.6 5.7 154.7 6 154.8 6.1 154.9 6.3 155.1 6.4 155.4 6.4 155.7 6.4 155.9 6.3 156 6.1 156.1 5.9 156.2 5.7 156.2 5.4L156.2 4.5 156.9 4.5 156.9 5.4C156.9 5.9 156.8 6.4 156.5 6.7 156.2 7 155.8 7.2 155.3 7.2 154.8 7.2 154.4 7 154.1 6.7 153.8 6.4 153.7 6 153.7 5.4L153.7 1.8C153.7 1.5 153.7 1.3 153.8 1.1 153.9.9 154 .7 154.1.5 154.2.3 154.4.2 154.6.1 154.8.1 155 0 155.3 0zM158.5.1L158.5 7.1 157.7 7.1 157.7.1 158.5.1zM162 3.2L162 3.9 160.3 3.9 160.3 6.4 162.4 6.4 162.4 7.1 159.5 7.1 159.5.1 162.4.1 162.4.8 160.3.8 160.3 3.2C160.3 3.2 162 3.2 162 3.2zM163.3 7.1L163.3.1 164.1.1 164.1 6.4 166.1 6.4 166.1 7.1C166.1 7.1 163.3 7.1 163.3 7.1zM166.9 7.1L166.9.1 167.7.1 167.7 6.4 169.7 6.4 169.7 7.1C169.7 7.1 166.9 7.1 166.9 7.1zM173 3.2L173 3.9 171.3 3.9 171.3 6.4 173.4 6.4 173.4 7.1 170.5 7.1 170.5.1 173.4.1 173.4.8 171.3.8 171.3 3.2C171.3 3.2 173 3.2 173 3.2zM175.7 0C176.2 0 176.6.2 176.9.5 177.2.8 177.3 1.2 177.3 1.8L177.3 2 176.6 2 176.6 1.8C176.6 1.5 176.5 1.2 176.4 1.1 176.3.9 176.1.8 175.8.8 175.5.8 175.3.9 175.2 1.1 175.1 1.3 175 1.5 175 1.8 175 2.1 175.1 2.3 175.2 2.5 175.3 2.7 175.5 2.9 175.6 3 175.8 3.2 176 3.3 176.2 3.5 176.4 3.7 176.6 3.8 176.8 4 177 4.2 177.1 4.4 177.2 4.6 177.3 4.8 177.4 5.1 177.4 5.4 177.4 5.9 177.3 6.4 177 6.7 176.7 7 176.2 7.1 175.7 7.1 175.2 7.1 174.8 6.9 174.5 6.6 174.2 6.3 174.1 5.9 174.1 5.3L174.1 4.9 174.8 4.9 174.8 5.3C174.8 5.6 174.9 5.9 175 6 175.1 6.2 175.3 6.3 175.6 6.3 175.9 6.3 176.1 6.2 176.2 6 176.3 5.8 176.4 5.6 176.4 5.3 176.4 5 176.3 4.8 176.2 4.6 176.1 4.4 175.9 4.2 175.8 4.1 175.7 4 175.4 3.8 175.2 3.6 175 3.4 174.8 3.3 174.6 3.1 174.4 2.9 174.3 2.7 174.2 2.5 174.1 2.3 174 2 174 1.7 174 1.2 174.1.7 174.4.4 174.7.1 175.2 0 175.7 0zM8.9 52.1C9.4 52.1 9.8 52.3 10.1 52.6 10.4 52.9 10.5 53.3 10.5 53.9L10.5 57.3C10.5 57.8 10.4 58.3 10.1 58.6 9.8 58.9 9.4 59.1 8.9 59.1L7.3 59.1 7.3 52.1 8.9 52.1 8.9 52.1zM8.9 58.3C9.2 58.3 9.4 58.2 9.5 58 9.6 57.8 9.7 57.6 9.7 57.3L9.7 53.7C9.7 53.4 9.6 53.1 9.5 53 9.4 52.8 9.2 52.7 8.9 52.7L8.1 52.7 8.1 58.3 8.9 58.3zM14 50.6L13.1 51.6 12.6 51.6 13.3 50.6 14 50.6zM14 55.1L14 55.8 12.3 55.8 12.3 58.3 14.4 58.3 14.4 59 11.5 59 11.5 52 14.4 52 14.4 52.7 12.3 52.7 12.3 55.1C12.3 55.1 14 55.1 14 55.1zM15.3 59L15.3 52 16.1 52 16.1 58.3 18.1 58.3 18.1 59 15.3 59zM21.3 50.6L20.4 51.6 19.9 51.6 20.6 50.6 21.3 50.6zM21.3 55.1L21.3 55.8 19.6 55.8 19.6 58.3 21.7 58.3 21.7 59 18.8 59 18.8 52 21.7 52 21.7 52.7 19.6 52.7 19.6 55.1C19.6 55.1 21.3 55.1 21.3 55.1zM24.1 52C24.6 52 25 52.2 25.3 52.5 25.6 52.8 25.7 53.2 25.7 53.8L25.7 54.3 25 54.3 25 53.7C25 53.4 24.9 53.1 24.8 53 24.7 52.8 24.5 52.7 24.2 52.7 23.9 52.7 23.7 52.8 23.6 53 23.5 53.2 23.4 53.4 23.4 53.7L23.4 57.4C23.4 57.7 23.5 58 23.6 58.1 23.7 58.2 23.9 58.4 24.2 58.4 24.5 58.4 24.7 58.3 24.8 58.1 24.9 57.9 25 57.7 25 57.4L25 56 24.3 56 24.3 55.3 25.8 55.3 25.8 57.3C25.8 57.8 25.7 58.3 25.4 58.6 25.1 58.9 24.7 59.1 24.2 59.1 23.7 59.1 23.3 58.9 23 58.6 22.7 58.3 22.6 57.9 22.6 57.3L22.6 53.7C22.6 53.4 22.6 53.2 22.7 53 22.8 52.8 22.9 52.6 23 52.4 23.1 52.2 23.3 52.1 23.5 52 23.6 52 23.9 52 24.1 52zM27.4 57.6L27.1 59 26.4 59 27.7 52 28.8 52 30.1 59 29.3 59 29.2 57.6 27.4 57.6zM27.5 57L29.1 57 28.3 53 27.5 57zM31.6 59L31.6 52.7 30.3 52.7 30.3 52 33.6 52 33.6 52.7 32.3 52.7 32.3 59 31.6 59zM35.2 52.1L35.2 59.1 34.4 59.1 34.4 52.1 35.2 52.1zM36.1 53.7C36.1 53.2 36.2 52.7 36.5 52.4 36.8 52.1 37.2 51.9 37.7 51.9 38.2 51.9 38.6 52.1 38.9 52.4 39.2 52.7 39.3 53.1 39.3 53.7L39.3 57.3C39.3 57.8 39.2 58.3 38.9 58.6 38.6 58.9 38.2 59.1 37.7 59.1 37.2 59.1 36.8 58.9 36.5 58.6 36.2 58.3 36.1 57.9 36.1 57.3L36.1 53.7zM36.9 57.4C36.9 57.7 37 58 37.1 58.1 37.2 58.3 37.4 58.4 37.7 58.4 38 58.4 38.2 58.3 38.3 58.1 38.4 57.9 38.5 57.7 38.5 57.4L38.5 53.7C38.5 53.4 38.4 53.1 38.3 53 38.2 52.9 38 52.7 37.7 52.7 37.4 52.7 37.2 52.8 37.1 53 37 53.2 36.9 53.4 36.9 53.7L36.9 57.4zM41 59L40.3 59 40.3 52 41.3 52 42.9 57 42.9 52 43.6 52 43.6 59 42.8 59 41 53.4 41 59zM46.1 52C46.6 52 47 52.2 47.3 52.5 47.6 52.8 47.7 53.2 47.7 53.8L47.7 54 47 54 47 53.8C47 53.5 46.9 53.2 46.8 53.1 46.7 52.9 46.5 52.8 46.2 52.8 45.9 52.8 45.7 52.9 45.6 53.1 45.5 53.3 45.4 53.5 45.4 53.8 45.4 54.1 45.5 54.3 45.6 54.5 45.7 54.7 45.9 54.9 46 55 46.2 55.2 46.4 55.3 46.6 55.5 46.8 55.7 47 55.8 47.2 56 47.4 56.2 47.5 56.4 47.6 56.6 47.7 56.8 47.8 57.1 47.8 57.4 47.8 57.9 47.7 58.4 47.4 58.7 47.1 59 46.7 59.2 46.2 59.2 45.7 59.2 45.3 59 45 58.7 44.7 58.4 44.6 58 44.6 57.4L44.6 57 45.3 57 45.3 57.4C45.3 57.7 45.4 58 45.5 58.1 45.6 58.3 45.8 58.4 46.1 58.4 46.4 58.4 46.6 58.3 46.7 58.1 46.8 57.9 46.9 57.7 46.9 57.4 46.9 57.1 46.8 56.9 46.7 56.7 46.6 56.5 46.4 56.3 46.3 56.2 46.1 56 45.9 55.9 45.7 55.7 45.5 55.5 45.3 55.4 45.1 55.2 44.9 55 44.8 54.8 44.7 54.6 44.6 54.4 44.5 54.1 44.5 53.8 44.5 53.3 44.6 52.8 44.9 52.5 45.2 52.1 45.6 52 46.1 52zM.9 64.1L.9 71.1.1 71.1.1 64.1.9 64.1zM2.5 71L1.8 71 1.8 64 2.8 64 4.4 69 4.4 64 5.1 64 5.1 71 4.3 71 2.5 65.4C2.5 65.4 2.5 71 2.5 71zM7.1 71L7.1 64.7 5.8 64.7 5.8 64 9.1 64 9.1 64.7 7.9 64.7 7.9 71 7.1 71zM12.5 67.2L12.5 67.9 10.8 67.9 10.8 70.3 12.9 70.3 12.9 71 10 71 10 64 12.9 64 12.9 64.7 10.8 64.7 10.8 67.1 12.5 67.2C12.5 67.1 12.5 67.2 12.5 67.2zM15.3 64.1C15.8 64.1 16.2 64.2 16.5 64.5 16.7 64.8 16.9 65.2 16.9 65.7L16.9 66.3C16.9 66.7 16.8 67 16.7 67.2 16.6 67.4 16.3 67.6 16 67.7 16.3 67.8 16.5 68 16.7 68.2 16.8 68.4 16.9 68.8 16.9 69.1L16.9 70.2C16.9 70.4 16.9 70.5 16.9 70.6 16.9 70.7 17 70.9 17 71L16.2 71C16.2 70.9 16.1 70.8 16.1 70.7 16.1 70.6 16.1 70.4 16.1 70.2L16.1 69.1C16.1 68.7 16 68.4 15.8 68.3 15.6 68.2 15.4 68.1 15 68.1L14.5 68.1 14.5 71.1 13.7 71.1 13.7 64.1C13.7 64.1 15.3 64.1 15.3 64.1zM15.1 67.4C15.4 67.4 15.7 67.3 15.8 67.2 16 67.1 16.1 66.8 16.1 66.4L16.1 65.7C16.1 65.4 16 65.1 15.9 65 15.8 64.8 15.6 64.8 15.3 64.8L14.5 64.8 14.5 67.4C14.5 67.4 15.1 67.4 15.1 67.4zM18.6 71L17.9 71 17.9 64 18.9 64 20.5 69 20.5 64 21.2 64 21.2 71 20.4 71 18.6 65.4C18.6 65.4 18.6 71 18.6 71zM22.9 69.6L22.6 71 21.9 71 23.2 64 24.3 64 25.6 71 24.8 71 24.5 69.6 22.9 69.6zM23 69L24.6 69 23.8 65 23 69zM27.2 71L27.2 64.7 25.9 64.7 25.9 64 29.2 64 29.2 64.7 27.9 64.7 27.9 71 27.2 71zM30.7 64.1L30.7 71.1 29.9 71.1 29.9 64.1 30.7 64.1zM31.6 65.8C31.6 65.3 31.7 64.8 32 64.5 32.3 64.2 32.7 64 33.2 64 33.7 64 34.1 64.2 34.4 64.5 34.7 64.8 34.8 65.2 34.8 65.8L34.8 69.3C34.8 69.8 34.7 70.3 34.4 70.6 34.1 70.9 33.7 71.1 33.2 71.1 32.7 71.1 32.3 70.9 32 70.6 31.7 70.3 31.6 69.9 31.6 69.3L31.6 65.8zM32.4 69.4C32.4 69.7 32.5 70 32.6 70.1 32.7 70.2 32.9 70.4 33.2 70.4 33.5 70.4 33.7 70.3 33.8 70.1 33.9 69.9 34 69.7 34 69.4L34 65.7C34 65.4 33.9 65.1 33.8 65 33.7 64.9 33.5 64.7 33.2 64.7 32.9 64.7 32.7 64.8 32.6 65 32.5 65.2 32.4 65.4 32.4 65.7L32.4 69.4zM36.4 71L35.7 71 35.7 64 36.7 64 38.3 69 38.3 64 39 64 39 71 38.2 71 36.4 65.4 36.4 71 36.4 71zM40.9 69.6L40.6 71 39.9 71 41.2 64 42.3 64 43.6 71 42.8 71 42.5 69.6 40.9 69.6zM41 69L42.6 69 41.8 65 41 69zM44.5 71L44.5 64 45.3 64 45.3 70.3 47.3 70.3 47.3 71 44.5 71zM50.5 67.2L50.5 67.9 48.8 67.9 48.8 70.3 50.9 70.3 50.9 71 48 71 48 64 50.9 64 50.9 64.7 48.8 64.7 48.8 67.1 50.5 67.2C50.5 67.1 50.5 67.2 50.5 67.2zM53.3 64C53.8 64 54.2 64.2 54.5 64.5 54.8 64.8 54.9 65.2 54.9 65.8L54.9 66 54.2 66 54.2 65.8C54.2 65.5 54.1 65.2 54 65.1 53.9 64.9 53.7 64.8 53.4 64.8 53.1 64.8 52.9 64.9 52.8 65.1 52.7 65.3 52.6 65.5 52.6 65.8 52.6 66.1 52.7 66.3 52.8 66.5 52.9 66.7 53.1 66.9 53.2 67 53.4 67.2 53.6 67.3 53.8 67.5 54 67.7 54.2 67.8 54.4 68 54.6 68.2 54.7 68.4 54.8 68.6 54.9 68.8 55 69.1 55 69.4 55 69.9 54.9 70.4 54.6 70.7 54.3 71 53.9 71.2 53.4 71.2 52.9 71.2 52.5 71 52.2 70.7 51.9 70.4 51.8 70 51.8 69.4L51.8 69 52.5 69 52.5 69.4C52.5 69.7 52.6 70 52.7 70.1 52.8 70.3 53 70.4 53.3 70.4 53.6 70.4 53.8 70.3 53.9 70.1 54 69.9 54.1 69.7 54.1 69.4 54.1 69.1 54 68.9 53.9 68.7 53.8 68.5 53.6 68.3 53.5 68.2 53.3 68 53.1 67.9 52.9 67.7 52.7 67.5 52.5 67.4 52.3 67.2 52.1 67 52 66.8 51.9 66.6 51.8 66.4 51.7 66.1 51.7 65.8 51.7 65.3 51.8 64.8 52.1 64.5 52.4 64.2 52.8 64 53.3 64z" transform="translate(0 22)"/>
      <g fill="#2A2A2A" transform="translate(105 141)">
        <path d="M2.2.1C2.9.1 3.3.3 3.7.7 4.1 1.1 4.2 1.6 4.2 2.2L4.2 6.5C4.2 7.2 4 7.7 3.7 8 3.4 8.3 2.9 8.6 2.2 8.6L.2 8.6.2.2 2.2.2 2.2.1zM2.2 7.7C2.5 7.7 2.8 7.6 3 7.4 3.2 7.2 3.2 6.9 3.2 6.5L3.2 2.2C3.2 1.8 3.1 1.5 3 1.3 2.8 1.1 2.6 1 2.2 1L1.2 1 1.2 7.7 2.2 7.7 2.2 7.7zM4.9 2.2C4.9 1.5 5.1 1 5.4.7 5.7.3 6.2.1 6.9.1 7.6.1 8 .3 8.4.7 8.7 1.1 8.9 1.6 8.9 2.2L8.9 6.6C8.9 7.2 8.7 7.8 8.4 8.1 8.1 8.4 7.6 8.7 6.9 8.7 6.2 8.7 5.8 8.5 5.4 8.1 5 7.7 4.9 7.2 4.9 6.6L4.9 2.2zM5.8 6.6C5.8 7 5.9 7.3 6 7.5 6.1 7.7 6.4 7.8 6.8 7.8 7.1 7.8 7.4 7.7 7.6 7.5 7.8 7.3 7.8 7 7.8 6.6L7.8 2.1C7.8 1.7 7.7 1.4 7.6 1.2 7.5 1 7.2.9 6.8.9 6.5.9 6.2 1 6 1.2 5.8 1.4 5.8 1.7 5.8 2.1L5.8 6.6z"/>
        <polygon points="10.5 8.6 9.7 8.6 9.7 .2 10.9 .2 12.9 6.3 12.9 .2 13.7 .2 13.7 8.6 12.7 8.6 10.5 1.8"/>
        <polygon points="15.8 8.6 15.8 1 14.2 1 14.2 .1 18.2 .1 18.2 1 16.6 1 16.6 8.6"/>
        <path d="M22.6,0 C23.3,0 23.7,0.2 24,0.6 C24.3,1 24.5,1.5 24.5,2.1 L24.5,2.3 C24.5,2.7 24.4,3.1 24.2,3.4 C24,3.7 23.8,3.9 23.4,4 C23.8,4.1 24,4.4 24.2,4.7 C24.4,5 24.4,5.4 24.4,5.8 L24.4,6.5 C24.4,7.2 24.2,7.7 23.9,8.1 C23.6,8.5 23.1,8.7 22.5,8.7 C21.9,8.7 21.4,8.5 21.1,8.1 C20.8,7.7 20.6,7.2 20.6,6.6 L20.6,6 L21.5,6 L21.5,6.6 C21.5,7 21.6,7.3 21.7,7.5 C21.8,7.7 22.1,7.8 22.4,7.8 C22.7,7.8 23,7.7 23.2,7.5 C23.4,7.3 23.4,7 23.4,6.5 L23.4,5.8 C23.4,5 23,4.6 22.3,4.5 L22,4.5 L22,3.7 L22.6,3.7 C22.9,3.7 23.2,3.6 23.3,3.4 C23.5,3.2 23.6,2.9 23.6,2.6 L23.6,2.2 C23.6,1.8 23.5,1.4 23.4,1.2 C23.3,1 23,0.9 22.6,0.9 C22.3,0.9 22,1 21.9,1.2 C21.8,1.4 21.7,1.7 21.7,2.1 L21.7,2.5 L20.8,2.5 L20.8,2.1 C20.8,1.4 21,0.9 21.3,0.6 C21.5,0.2 22,0 22.6,0 Z"/>
        <polygon points="28.2 1 25.3 1 25.3 .2 29.1 .2 29.1 1 26.9 8.6 26 8.6"/>
        <path d="M33.8 0C34.5 0 34.9.2 35.3.6 35.6 1 35.8 1.5 35.8 2.1L35.8 6.4C35.8 7.1 35.6 7.6 35.3 8 35 8.4 34.5 8.6 33.8 8.6 33.1 8.6 32.7 8.4 32.4 8 32.1 7.6 31.9 7.1 31.9 6.5L31.9 6.3 32.8 6.3 32.8 6.5C32.8 6.9 32.9 7.2 33 7.4 33.1 7.6 33.4 7.7 33.8 7.7 34.2 7.7 34.4 7.6 34.6 7.4 34.8 7.2 34.8 6.8 34.8 6.4L34.8 4.5C34.6 5.1 34.1 5.4 33.4 5.4 32.9 5.4 32.5 5.2 32.2 4.9 32 4.5 31.8 4.1 31.8 3.4L31.8 2.1C31.8 1.4 32 .9 32.3.6 32.7.2 33.2 0 33.8 0zM33.8.9C33.5.9 33.2 1 33 1.2 32.8 1.4 32.8 1.7 32.8 2.1L32.8 3.4C32.8 3.8 32.9 4.1 33 4.3 33.1 4.5 33.4 4.6 33.8 4.6 34.1 4.6 34.4 4.5 34.6 4.3 34.8 4.1 34.8 3.8 34.8 3.4L34.8 2.1C34.8 1.7 34.7 1.4 34.6 1.2 34.4 1 34.2.9 33.8.9zM37.6 3.6C37.9 3.1 38.3 2.9 38.9 2.9 39.4 2.9 39.8 3.1 40.1 3.4 40.4 3.7 40.5 4.2 40.5 4.9L40.5 6.6C40.5 7.2 40.3 7.8 40 8.1 39.7 8.5 39.2 8.7 38.6 8.7 38 8.7 37.5 8.5 37.2 8.1 36.9 7.7 36.7 7.2 36.7 6.6L36.7 6 37.6 6 37.6 6.6C37.6 7 37.7 7.3 37.8 7.5 37.9 7.7 38.2 7.8 38.5 7.8 38.8 7.8 39.1 7.7 39.2 7.5 39.3 7.3 39.4 7 39.4 6.6L39.4 5C39.4 4.6 39.3 4.3 39.2 4.1 39.1 3.9 38.8 3.8 38.5 3.8 38.2 3.8 38 3.9 37.9 4 37.7 4.2 37.6 4.4 37.6 4.7L37.6 4.9 36.7 4.9 36.9.2 40.2.2 40.2 1 37.7 1 37.6 3.6zM41.2 2.2C41.2 1.5 41.4 1 41.7.7 42 .3 42.5.1 43.2.1 43.9.1 44.3.3 44.7.7 45 1.1 45.2 1.6 45.2 2.2L45.2 6.5C45.2 7.2 45 7.7 44.7 8.1 44.4 8.5 43.9 8.7 43.2 8.7 42.5 8.7 42.1 8.5 41.7 8.1 41.3 7.7 41.2 7.2 41.2 6.5L41.2 2.2zM42.2 6.6C42.2 7 42.3 7.3 42.4 7.5 42.5 7.7 42.8 7.8 43.2 7.8 43.5 7.8 43.8 7.7 44 7.5 44.2 7.3 44.2 7 44.2 6.6L44.2 2.1C44.2 1.7 44.1 1.4 44 1.2 43.9 1 43.6.9 43.2.9 42.9.9 42.6 1 42.4 1.2 42.2 1.4 42.2 1.7 42.2 2.1L42.2 6.6z"/>
        <polygon points="48.6 .1 50 7.4 51.4 .1 52.3 .1 50.7 8.5 49.3 8.5 47.7 .1"/>
        <polygon points="53.8 .1 53.8 8.5 52.9 8.5 52.9 .1"/>
        <path d="M56.6,0 C57.2,0 57.7,0.2 58,0.6 C58.3,1 58.5,1.5 58.5,2.1 L58.5,2.3 L57.6,2.3 L57.6,2 C57.6,1.6 57.5,1.3 57.4,1.1 C57.2,0.9 57,0.8 56.7,0.8 C56.4,0.8 56.1,0.9 56,1.1 C55.8,1.3 55.8,1.6 55.8,2 C55.8,2.3 55.9,2.6 56,2.8 C56.1,3 56.3,3.2 56.5,3.4 C56.7,3.6 56.9,3.8 57.2,4 C57.4,4.2 57.7,4.4 57.9,4.6 C58.1,4.8 58.3,5.1 58.4,5.4 C58.5,5.7 58.6,6 58.6,6.4 C58.6,7 58.4,7.6 58.1,7.9 C57.8,8.2 57.3,8.5 56.7,8.5 C56.1,8.5 55.6,8.3 55.3,7.9 C55,7.5 54.8,7 54.8,6.4 L54.8,5.9 L55.7,5.9 L55.7,6.4 C55.7,6.8 55.8,7.1 55.9,7.3 C56.1,7.5 56.3,7.6 56.6,7.6 C56.9,7.6 57.2,7.5 57.3,7.3 C57.5,7.1 57.5,6.8 57.5,6.4 C57.5,6.1 57.4,5.8 57.3,5.6 C57.2,5.4 57,5.2 56.8,5 C56.6,4.8 56.4,4.6 56.1,4.4 C55.9,4.2 55.6,4 55.4,3.8 C55.2,3.6 55,3.3 54.9,3 C54.8,2.7 54.7,2.4 54.7,2 C54.7,1.3 54.9,0.8 55.2,0.5 C55.5,0.2 55.9,0 56.6,0 Z"/>
        <polygon points="60.2 .1 60.2 8.5 59.3 8.5 59.3 .1"/>
        <polygon points="62.4 8.6 62.4 1 60.8 1 60.8 .1 64.8 .1 64.8 1 63.2 1 63.2 8.6"/>
        <polygon points="68.5 3.9 68.5 4.7 66.4 4.7 66.4 7.7 68.9 7.7 68.9 8.6 65.4 8.6 65.4 .2 68.9 .2 68.9 1.1 66.4 1.1 66.4 4 68.5 4"/>
        <path d="M70.8 6.6C70.8 7 70.9 7.3 71 7.5 71.2 7.7 71.4 7.8 71.8 7.8 72.1 7.8 72.4 7.7 72.5 7.5 72.6 7.3 72.7 7 72.7 6.6L72.7.2 73.6.2 73.6 6.6C73.6 7.2 73.4 7.8 73.1 8.1 72.8 8.5 72.3 8.7 71.7 8.7 71.1 8.7 70.6 8.5 70.3 8.1 70 7.7 69.8 7.2 69.8 6.6L69.8.2 70.7.2 70.7 6.6 70.8 6.6zM76.4.1C77.1.1 77.5.3 77.8.6 78.1.9 78.2 1.4 78.2 2L78.2 2.7C78.2 3.2 78.1 3.5 77.9 3.8 77.7 4.1 77.5 4.3 77.1 4.4 77.5 4.5 77.8 4.7 77.9 5 78.1 5.3 78.1 5.7 78.1 6.1L78.1 7.4C78.1 7.6 78.1 7.8 78.1 7.9 78.1 8.1 78.2 8.2 78.2 8.4L77.2 8.4C77.1 8.3 77.1 8.1 77.1 8 77.1 7.9 77.1 7.6 77.1 7.4L77.1 6.1C77.1 5.6 77 5.3 76.8 5.1 76.6 4.9 76.3 4.8 75.9 4.8L75.2 4.8 75.2 8.4 74.3 8.4 74.3-5.68434189e-14 76.4-5.68434189e-14 76.4.1zM76.2 4.1C76.6 4.1 76.9 4 77.1 3.9 77.3 3.7 77.4 3.4 77.4 3L77.4 2.2C77.4 1.8 77.3 1.5 77.2 1.3 77.1 1.1 76.8 1 76.4 1L75.5 1 75.5 4.1 76.2 4.1 76.2 4.1zM81 0C81.6 0 82.1.2 82.4.6 82.7 1 82.9 1.5 82.9 2.1L82.9 2.3 82 2.3 82 2C82 1.6 81.9 1.3 81.8 1.1 81.7.9 81.4.8 81.1.8 80.8.8 80.5.9 80.4 1.1 80.3 1.3 80.2 1.6 80.2 2 80.2 2.3 80.3 2.6 80.4 2.8 80.5 3 80.7 3.2 80.9 3.4 81.1 3.6 81.3 3.8 81.6 4 81.8 4.2 82.1 4.4 82.3 4.6 82.5 4.8 82.7 5.1 82.8 5.4 82.9 5.7 83 6 83 6.4 83 7 82.8 7.6 82.5 7.9 82.2 8.3 81.7 8.5 81.1 8.5 80.4 8.5 80 8.3 79.7 7.9 79.4 7.5 79.2 7 79.2 6.4L79.2 5.9 80.1 5.9 80.1 6.4C80.1 6.8 80.2 7.1 80.3 7.3 80.5 7.5 80.7 7.6 81 7.6 81.3 7.6 81.6 7.5 81.7 7.3 81.9 7.1 81.9 6.8 81.9 6.4 81.9 6.1 81.8 5.8 81.7 5.6 81.6 5.4 81.4 5.2 81.2 5 81 4.8 80.8 4.6 80.5 4.4 80.2 4.2 80 4 79.8 3.8 79.6 3.6 79.4 3.3 79.3 3 79.2 2.7 79.1 2.4 79.1 2 79.1 1.3 79.3.8 79.6.5 79.9.2 80.4 0 81 0z"/>
      </g>
      <g fill="#2A2A2A" transform="translate(116 155)">
        <path d="M2.8.7C3.5.7 3.9.9 4.2 1.2 4.5 1.6 4.6 2.1 4.6 2.7L4.6 3.7C4.6 4.4 4.4 4.9 4.1 5.2 3.8 5.5 3.3 5.7 2.6 5.7L1.8 5.7 1.8 9 .9 9 .9.6 2.8.6 2.8.7zM2.7 4.9C3.1 4.9 3.3 4.8 3.5 4.6 3.7 4.4 3.8 4.1 3.8 3.7L3.8 2.6C3.8 2.2 3.7 1.9 3.6 1.7 3.5 1.5 3.2 1.4 2.9 1.4L2 1.4 2 4.8 2.7 4.8 2.7 4.9zM7.3.7C8 .7 8.4.9 8.7 1.2 9 1.5 9.1 2 9.1 2.6L9.1 3.3C9.1 3.8 9 4.1 8.8 4.4 8.6 4.7 8.4 4.9 8 5 8.4 5.1 8.7 5.3 8.8 5.6 8.9 5.9 9 6.3 9 6.7L9 8C9 8.2 9 8.4 9 8.5 9 8.7 9.1 8.8 9.1 9L8.1 9C8 8.9 8 8.8 8 8.6 8 8.5 8 8.2 8 8L8 6.7C8 6.2 7.9 5.9 7.7 5.7 7.5 5.5 7.2 5.4 6.8 5.4L6.1 5.4 6.1 9 5.2 9 5.2.6 7.3.6 7.3.7zM7 4.6C7.4 4.6 7.7 4.5 7.9 4.4 8.1 4.2 8.2 3.9 8.2 3.5L8.2 2.7C8.2 2.3 8.1 2 8 1.8 7.9 1.6 7.6 1.5 7.2 1.5L6.3 1.5 6.3 4.6 7 4.6 7 4.6zM10.1 2.7C10.1 2 10.3 1.5 10.6 1.2 10.9.9 11.4.6 12.1.6 12.8.6 13.2.8 13.6 1.2 14 1.6 14.1 2.1 14.1 2.7L14.1 7.1C14.1 7.7 13.9 8.3 13.6 8.6 13.3 9 12.8 9.2 12.1 9.2 11.4 9.2 11 9 10.6 8.6 10.3 8.2 10.1 7.7 10.1 7.1L10.1 2.7zM11 7.1C11 7.5 11.1 7.8 11.2 8 11.3 8.2 11.6 8.3 12 8.3 12.3 8.3 12.6 8.2 12.8 8 13 7.8 13 7.5 13 7.1L13 2.6C13 2.2 12.9 1.9 12.8 1.7 12.7 1.5 12.4 1.4 12 1.4 11.7 1.4 11.4 1.5 11.2 1.7 11 1.9 11 2.2 11 2.6L11 7.1z"/>
        <polygon points="17.7 4.6 17.7 5.5 15.8 5.5 15.8 9.2 14.9 9.2 14.9 .8 18.2 .8 18.2 1.7 15.8 1.7 15.8 4.8 17.7 4.8"/>
        <polygon points="21.9 4.4 21.9 5.2 19.8 5.2 19.8 8.2 22.3 8.2 22.3 9.1 18.8 9.1 18.8 .7 22.3 .7 22.3 1.6 19.8 1.6 19.8 4.5 21.9 4.5"/>
        <path d="M25 .6C25.6.6 26.1.8 26.4 1.2 26.7 1.6 26.9 2.1 26.9 2.7L26.9 2.9 26 2.9 26 2.6C26 2.2 25.9 1.9 25.8 1.7 25.6 1.5 25.4 1.4 25.1 1.4 24.8 1.4 24.5 1.5 24.4 1.7 24.2 1.9 24.2 2.2 24.2 2.6 24.2 2.9 24.3 3.2 24.4 3.4 24.5 3.6 24.7 3.8 24.9 4 25.1 4.2 25.3 4.4 25.6 4.6 25.8 4.8 26.1 5 26.3 5.2 26.5 5.4 26.7 5.7 26.8 6 26.9 6.3 27 6.6 27 7 27 7.6 26.8 8.2 26.5 8.5 26.2 8.9 25.7 9.1 25.1 9.1 24.4 9.1 24 8.9 23.7 8.5 23.4 8.1 23.2 7.6 23.2 7L23.2 6.5 24.1 6.5 24.1 7C24.1 7.4 24.2 7.7 24.3 7.9 24.4 8.1 24.7 8.2 25 8.2 25.3 8.2 25.6 8.1 25.7 7.9 25.8 7.7 25.9 7.4 25.9 7 25.9 6.7 25.8 6.4 25.7 6.2 25.6 6 25.4 5.8 25.2 5.6 25 5.4 24.8 5.2 24.5 5 24.3 4.8 24 4.6 23.8 4.4 23.6 4.2 23.4 3.9 23.3 3.6 23.2 3.3 23.1 3 23.1 2.6 23.1 1.9 23.3 1.4 23.6 1.1 23.9.8 24.4.6 25 .6zM29.5.6C30.1.6 30.6.8 30.9 1.2 31.2 1.6 31.4 2.1 31.4 2.7L31.4 2.9 30.5 2.9 30.5 2.6C30.5 2.2 30.4 1.9 30.3 1.7 30.1 1.5 29.9 1.4 29.6 1.4 29.3 1.4 29 1.5 28.9 1.7 28.7 1.9 28.7 2.2 28.7 2.6 28.7 2.9 28.8 3.2 28.9 3.4 29 3.6 29.2 3.8 29.4 4 29.6 4.2 29.8 4.4 30.1 4.6 30.3 4.8 30.6 5 30.8 5.2 31 5.4 31.2 5.7 31.3 6 31.4 6.3 31.5 6.6 31.5 7 31.5 7.6 31.3 8.2 31 8.5 30.7 8.9 30.2 9.1 29.6 9.1 28.9 9.1 28.5 8.9 28.2 8.5 27.9 8.1 27.7 7.6 27.7 7L27.7 6.5 28.6 6.5 28.6 7C28.6 7.4 28.7 7.7 28.8 7.9 28.9 8.1 29.2 8.2 29.5 8.2 29.8 8.2 30.1 8.1 30.2 7.9 30.3 7.7 30.4 7.4 30.4 7 30.4 6.7 30.3 6.4 30.2 6.2 30.1 6 29.9 5.8 29.7 5.6 29.5 5.4 29.3 5.2 29 5 28.8 4.8 28.5 4.6 28.3 4.4 28.1 4.2 27.9 3.9 27.8 3.6 27.7 3.3 27.6 3 27.6 2.6 27.6 1.9 27.8 1.4 28.1 1.1 28.4.8 28.9.6 29.5.6z"/>
        <polygon points="33.1 .7 33.1 9.1 32.2 9.1 32.2 .7"/>
        <path d="M34,2.7 C34,2 34.2,1.5 34.5,1.2 C34.8,0.9 35.3,0.6 36,0.6 C36.7,0.6 37.1,0.8 37.5,1.2 C37.9,1.6 38,2.1 38,2.7 L38,7.1 C38,7.7 37.8,8.3 37.5,8.6 C37.2,9 36.7,9.2 36,9.2 C35.3,9.2 34.9,9 34.5,8.6 C34.2,8.2 34,7.7 34,7.1 L34,2.7 Z M35,7.1 C35,7.5 35.1,7.8 35.2,8 C35.4,8.2 35.6,8.3 36,8.3 C36.3,8.3 36.6,8.2 36.8,8 C37,7.8 37,7.5 37,7.1 L37,2.6 C37,2.2 36.9,1.9 36.8,1.7 C36.6,1.5 36.4,1.4 36,1.4 C35.7,1.4 35.4,1.5 35.2,1.7 C35,1.9 35,2.2 35,2.6 L35,7.1 Z"/>
        <polygon points="39.6 9.1 38.8 9.1 38.8 .7 40 .7 42 6.8 42 .7 42.8 .7 42.8 9.1 41.8 9.1 39.6 2.3"/>
        <polygon points="44.6 9.1 43.8 9.1 43.8 .7 45 .7 47 6.8 47 .7 47.8 .7 47.8 9.1 46.8 9.1 44.6 2.3"/>
        <polygon points="51.6 4.4 51.6 5.2 49.5 5.2 49.5 8.2 52 8.2 52 9.1 48.5 9.1 48.5 .7 52 .7 52 1.6 49.5 1.6 49.5 4.5 51.6 4.5"/>
        <polygon points="53 9.1 53 .7 53.9 .7 53.9 8.3 56.3 8.3 56.3 9.2 53 9.2"/>
        <path d="M58.8,0.6 C59.4,0.6 59.9,0.8 60.2,1.2 C60.5,1.6 60.7,2.1 60.7,2.7 L60.7,2.9 L59.8,2.9 L59.8,2.6 C59.8,2.2 59.7,1.9 59.6,1.7 C59.5,1.5 59.2,1.4 58.9,1.4 C58.6,1.4 58.3,1.5 58.2,1.7 C58.1,1.9 58,2.2 58,2.6 C58,2.9 58.1,3.2 58.2,3.4 C58.3,3.6 58.5,3.8 58.7,4 C58.9,4.2 59.1,4.4 59.4,4.6 C59.6,4.8 59.9,5 60.1,5.2 C60.3,5.4 60.5,5.7 60.6,6 C60.7,6.3 60.8,6.6 60.8,7 C60.8,7.6 60.6,8.2 60.3,8.5 C60,8.9 59.5,9.1 58.9,9.1 C58.2,9.1 57.8,8.9 57.5,8.5 C57.2,8.1 57,7.6 57,7 L57,6.5 L57.9,6.5 L57.9,7 C57.9,7.4 58,7.7 58.1,7.9 C58.3,8.1 58.5,8.2 58.8,8.2 C59.1,8.2 59.4,8.1 59.5,7.9 C59.7,7.7 59.7,7.4 59.7,7 C59.7,6.7 59.6,6.4 59.5,6.2 C59.4,6 59.2,5.8 59,5.6 C58.8,5.4 58.6,5.2 58.3,5 C58.1,4.8 57.8,4.6 57.6,4.4 C57.4,4.2 57.2,3.9 57.1,3.6 C57,3.3 56.9,3 56.9,2.6 C56.9,1.9 57.1,1.4 57.4,1.1 C57.7,0.8 58.2,0.6 58.8,0.6 Z"/>
      </g>
      <g fill="#e30059" transform="translate(137)">
        <path d="M3.1,10.5 L3.1,11.9 C3.1,12.4 3.2,12.8 3.4,13 C3.6,13.2 3.9,13.3 4.3,13.3 C4.7,13.3 5,13.2 5.2,13 C5.4,12.8 5.5,12.4 5.5,11.9 L5.5,8.6 C5.5,8.1 5.4,7.7 5.2,7.4 C5,7.2 4.7,7.1 4.3,7.1 C3.9,7.1 3.6,7.2 3.4,7.4 C3.2,7.6 3.1,8 3.1,8.6 L3.1,9 L0.9,9 L1.3,0.2 L7.6,0.2 L7.6,2.4 L3.5,2.4 L3.3,6 C3.7,5.3 4.4,4.9 5.4,4.9 C6.3,4.9 6.9,5.2 7.4,5.8 C7.8,6.4 8.1,7.2 8.1,8.4 L8.1,11.8 C8.1,13 7.8,14 7.2,14.6 C6.6,15.3 5.7,15.6 4.6,15.6 C3.5,15.6 2.6,15.3 2,14.6 C1.4,13.9 1.1,13 1.1,11.8 L1.1,10.5 L3.1,10.5 L3.1,10.5 Z"/>
        <polygon points="16.5 .2 16.5 2.3 13 15.3 10.6 15.3 14.1 2.3 9.4 2.3 9.4 .1 16.5 .1"/>
      </g>
      <g fill="#f6a924" transform="translate(242 58)">
        <path d="M.3 2.7C.8 2.7 1.1 2.6 1.4 2.5 1.7 2.4 1.9 2.3 2.1 2.1 2.3 1.9 2.4 1.7 2.6 1.5 2.7 1.3 2.8 1 2.9.8L4.5.8 4.5 15.9 2.1 15.9 2.1 4.4.3 4.4.3 2.7.3 2.7zM10.6 4.4C10.6 3.2 10.9 2.2 11.5 1.6 12.1 1 13 .6 14.2.6 15.4.6 16.3.9 16.9 1.6 17.5 2.3 17.8 3.2 17.8 4.4L17.8 12.3C17.8 13.5 17.5 14.5 16.9 15.1 16.3 15.7 15.4 16.1 14.2 16.1 13 16.1 12.1 15.8 11.5 15.1 10.9 14.4 10.6 13.5 10.6 12.3L10.6 4.4zM12.9 12.5C12.9 13 13 13.4 13.2 13.7 13.4 13.9 13.7 14 14.1 14 14.5 14 14.8 13.9 15 13.7 15.2 13.5 15.3 13.1 15.3 12.5L15.3 4.3C15.3 3.8 15.2 3.4 15 3.1 14.8 2.9 14.5 2.8 14.1 2.8 13.7 2.8 13.4 2.9 13.2 3.1 13 3.3 12.9 3.7 12.9 4.3L12.9 12.5zM19.1 4.4C19.1 3.2 19.4 2.2 20 1.6 20.6 1 21.5.6 22.7.6 23.9.6 24.8.9 25.4 1.6 26 2.3 26.3 3.2 26.3 4.4L26.3 12.3C26.3 13.5 26 14.5 25.4 15.1 24.8 15.7 23.9 16.1 22.7 16.1 21.5 16.1 20.6 15.8 20 15.1 19.4 14.4 19.1 13.5 19.1 12.3L19.1 4.4zM21.5 12.5C21.5 13 21.6 13.4 21.8 13.7 22 13.9 22.3 14 22.7 14 23.1 14 23.4 13.9 23.6 13.7 23.8 13.5 23.9 13.1 23.9 12.5L23.9 4.3C23.9 3.8 23.8 3.4 23.6 3.1 23.4 2.9 23.1 2.8 22.7 2.8 22.3 2.8 22 2.9 21.8 3.1 21.6 3.3 21.5 3.7 21.5 4.3L21.5 12.5zM27.7 4.4C27.7 3.2 28 2.2 28.6 1.6 29.2 1 30.1.6 31.3.6 32.5.6 33.4.9 34 1.6 34.6 2.3 34.9 3.2 34.9 4.4L34.9 12.3C34.9 13.5 34.6 14.5 34 15.1 33.4 15.7 32.5 16.1 31.3 16.1 30.1 16.1 29.2 15.8 28.6 15.1 28 14.4 27.7 13.5 27.7 12.3L27.7 4.4zM30 12.5C30 13 30.1 13.4 30.3 13.7 30.5 13.9 30.8 14 31.2 14 31.6 14 31.9 13.9 32.1 13.7 32.3 13.5 32.4 13.1 32.4 12.5L32.4 4.3C32.4 3.8 32.3 3.4 32.1 3.1 31.9 2.9 31.6 2.8 31.2 2.8 30.8 2.8 30.5 2.9 30.3 3.1 30.1 3.3 30 3.7 30 4.3L30 12.5z"/>
        <polygon points="44 7.5 46.9 7.5 46.9 9.2 44 9.2 44 12.2 42.3 12.2 42.3 9.2 39.4 9.2 39.4 7.5 42.3 7.5 42.3 4.6 44 4.6"/>
      </g>
      <g fill="#83b81a" transform="translate(115 230)">
        <path d="M5,4.5 C5,3.8 4.9,3.4 4.7,3.1 C4.5,2.9 4.2,2.7 3.8,2.7 C3.4,2.7 3.1,2.8 2.9,3 C2.7,3.2 2.6,3.6 2.6,4.2 L2.6,5.2 L0.4,5.2 L0.4,4.4 C0.4,3.2 0.7,2.2 1.3,1.6 C1.9,0.9 2.8,0.6 3.9,0.6 C5,0.6 5.9,0.9 6.5,1.6 C7.1,2.3 7.4,3.2 7.4,4.4 L7.4,4.8 C7.4,6.4 6.8,7.5 5.7,7.9 C6.3,8.2 6.7,8.6 7,9.1 C7.3,9.6 7.4,10.3 7.4,11.1 L7.4,12.3 C7.4,13.5 7.1,14.5 6.5,15.1 C5.9,15.8 5,16.1 3.9,16.1 C2.8,16.1 1.9,15.8 1.3,15.1 C0.7,14.4 0.4,13.5 0.4,12.3 L0.4,11 L2.6,11 L2.6,12.4 C2.6,12.9 2.7,13.3 2.9,13.6 C3.1,13.8 3.4,13.9 3.8,13.9 C4.2,13.9 4.5,13.8 4.7,13.6 C4.9,13.4 5,12.9 5,12.2 L5,11 C5,10.3 4.9,9.8 4.6,9.5 C4.4,9.2 4,9.1 3.4,9.1 L2.6,9.1 L2.6,6.9 L3.5,6.9 C3.9,6.9 4.3,6.8 4.5,6.6 C4.7,6.4 4.9,6 4.9,5.3 L4.9,4.5 L5,4.5 Z"/>
        <polygon points="17.3 11.5 18.9 .8 22.2 .8 22.2 15.9 20 15.9 20 5.1 18.4 15.9 16.2 15.9 14.4 5.2 14.4 15.9 12.3 15.9 12.3 .8 15.6 .8"/>
        <polygon points="24 .8 26.4 .8 26.4 15.9 24 15.9"/>
        <polygon points="28.1 .8 30.5 .8 30.5 13.8 34.4 13.8 34.4 16 28.1 16"/>
        <polygon points="35.4 .8 37.8 .8 37.8 13.8 41.7 13.8 41.7 16 35.4 16"/>
        <polygon points="42.7 .8 45.1 .8 45.1 15.9 42.7 15.9"/>
        <path d="M46.7,4.4 C46.7,3.2 47,2.2 47.6,1.6 C48.2,1 49.1,0.6 50.3,0.6 C51.5,0.6 52.4,0.9 53,1.6 C53.6,2.3 53.9,3.2 53.9,4.4 L53.9,12.3 C53.9,13.5 53.6,14.5 53,15.1 C52.4,15.7 51.5,16.1 50.3,16.1 C49.1,16.1 48.2,15.8 47.6,15.1 C47,14.4 46.7,13.5 46.7,12.3 L46.7,4.4 Z M49,12.4 C49,12.9 49.1,13.3 49.3,13.6 C49.5,13.8 49.8,13.9 50.2,13.9 C50.6,13.9 50.9,13.8 51.1,13.6 C51.3,13.4 51.4,13 51.4,12.4 L51.4,4.2 C51.4,3.7 51.3,3.3 51.1,3 C50.9,2.8 50.6,2.7 50.2,2.7 C49.8,2.7 49.5,2.8 49.3,3 C49.1,3.2 49,3.6 49,4.2 L49,12.4 Z"/>
        <polygon points="57.5 4.9 57.5 15.9 55.4 15.9 55.4 .8 58.4 .8 60.8 9.9 60.8 .8 62.9 .8 62.9 15.9 60.5 15.9"/>
        <path d="M64.3,4.4 C64.3,3.2 64.6,2.2 65.2,1.6 C65.8,0.9 66.7,0.6 67.8,0.6 C69,0.6 69.8,0.9 70.4,1.6 C71,2.3 71.3,3.2 71.3,4.4 L71.3,4.9 L69.1,4.9 L69.1,4.3 C69.1,3.8 69,3.4 68.8,3.1 C68.6,2.9 68.3,2.8 67.9,2.8 C67.5,2.8 67.2,2.9 67,3.1 C66.8,3.3 66.7,3.7 66.7,4.3 C66.7,4.8 66.8,5.3 67,5.7 C67.2,6.1 67.5,6.5 67.9,6.8 C68.3,7.1 68.6,7.5 69,7.9 C69.4,8.3 69.8,8.6 70.1,9.1 C70.4,9.5 70.7,10 71,10.5 C71.2,11 71.3,11.7 71.3,12.4 C71.3,13.6 71,14.6 70.4,15.2 C69.8,15.8 68.9,16.2 67.8,16.2 C66.7,16.2 65.8,15.9 65.2,15.2 C64.6,14.5 64.3,13.6 64.3,12.4 L64.3,11.5 L66.5,11.5 L66.5,12.6 C66.5,13.1 66.6,13.5 66.8,13.7 C67,13.9 67.3,14 67.7,14 C68.1,14 68.4,13.9 68.6,13.7 C68.8,13.5 68.9,13.1 68.9,12.6 C68.9,12.1 68.8,11.6 68.6,11.2 C68.4,10.8 68.1,10.4 67.7,10.1 C67.4,9.7 67,9.4 66.6,9 C66.2,8.6 65.8,8.3 65.5,7.8 C65.2,7.4 64.9,6.9 64.6,6.4 C64.4,5.8 64.3,5.1 64.3,4.4 Z"/>
      </g>
      <path fill="#009cd8" d="M8.4 11.6C8.4 12.8 8.1 13.8 7.4 14.4 6.8 15.1 5.8 15.4 4.6 15.4 3.4 15.4 2.5 15.1 1.8 14.4 1.2 13.7.8 12.8.8 11.6L.8 10.4C.8 9.7.9 9 1.1 8.5 1.3 8 1.7 7.5 2.2 7.3 1.2 6.8.7 5.8.7 4.3L.7 3.8C.7 2.6 1 1.6 1.7 1 2.3.3 3.3 0 4.5 0 5.7 0 6.6.3 7.3 1 7.9 1.7 8.3 2.6 8.3 3.8L8.3 4.3C8.3 5.8 7.8 6.8 6.8 7.3 7.3 7.6 7.7 8 7.9 8.5 8.1 9 8.2 9.7 8.2 10.4L8.2 11.6 8.4 11.6zM3.3 4.6C3.3 5.2 3.4 5.6 3.7 5.9 4 6.2 4.3 6.2 4.7 6.2 5.1 6.2 5.4 6.1 5.6 5.9 5.9 5.7 6 5.3 6 4.6L6 3.8C6 3.1 5.9 2.7 5.6 2.4 5.3 2.2 5 2 4.7 2 4.3 2 4 2.1 3.7 2.4 3.4 2.6 3.3 3.1 3.3 3.8L3.3 4.6zM3.3 11.5C3.3 12.2 3.4 12.6 3.7 12.9 4 13.1 4.3 13.2 4.7 13.2 5.1 13.2 5.4 13.1 5.6 12.9 5.8 12.7 6 12.2 6 11.5L6 10.1C6 9.5 5.9 9.1 5.6 8.8 5.4 8.5 5 8.4 4.6 8.4 4.2 8.4 3.9 8.5 3.6 8.8 3.4 9.1 3.2 9.5 3.2 10.1L3.2 11.5 3.3 11.5zM14.6 2C15.1 2 15.4 1.9 15.7 1.8 16 1.7 16.2 1.6 16.4 1.4 16.6 1.2 16.7 1 16.9.8 17.1.6 17.1.3 17.2.1L18.8.1 18.8 15.2 16.4 15.2 16.4 3.7 14.6 3.7 14.6 2 14.6 2zM23.2 2C23.7 2 24 1.9 24.3 1.8 24.6 1.7 24.8 1.6 25 1.4 25.2 1.2 25.3 1 25.5.8 25.6.6 25.7.3 25.8.1L27.4.1 27.4 15.2 25 15.2 25 3.7 23.2 3.7 23.2 2zM37.4 11.6C37.4 12.8 37.1 13.8 36.4 14.4 35.8 15.1 34.8 15.4 33.6 15.4 32.4 15.4 31.5 15.1 30.8 14.4 30.2 13.7 29.8 12.8 29.8 11.6L29.8 10.4C29.8 9.7 29.9 9 30.1 8.5 30.3 8 30.7 7.5 31.2 7.3 30.2 6.8 29.7 5.8 29.7 4.3L29.7 3.8C29.7 2.6 30 1.6 30.7 1 31.3.3 32.3 0 33.5 0 34.7 0 35.6.3 36.3 1 36.9 1.7 37.3 2.6 37.3 3.8L37.3 4.3C37.3 5.8 36.8 6.8 35.8 7.3 36.3 7.6 36.7 8 36.9 8.5 37.1 9 37.2 9.7 37.2 10.4L37.2 11.6 37.4 11.6zM32.3 4.6C32.3 5.2 32.4 5.6 32.7 5.9 33 6.2 33.3 6.2 33.7 6.2 34.1 6.2 34.4 6.1 34.7 5.9 35 5.7 35.1 5.3 35.1 4.6L35.1 3.8C35.1 3.1 35 2.7 34.7 2.4 34.4 2.2 34.1 2 33.7 2 33.3 2 33 2.1 32.7 2.4 32.4 2.6 32.3 3.1 32.3 3.8L32.3 4.6zM32.3 11.5C32.3 12.2 32.4 12.6 32.7 12.9 33 13.1 33.3 13.2 33.7 13.2 34.1 13.2 34.4 13.1 34.6 12.9 34.8 12.7 35 12.2 35 11.5L35 10.1C35 9.5 34.9 9.1 34.6 8.8 34.4 8.5 34 8.4 33.6 8.4 33.2 8.4 32.9 8.5 32.6 8.8 32.4 9.1 32.2 9.5 32.2 10.1L32.2 11.5 32.3 11.5z" transform="translate(245 158)"/>
      <path fill="#009cd8" d="M.3 3.9C.3 2.6.6 1.6 1.2 1 1.8.4 2.7 0 3.9 0 5.1 0 5.9.3 6.5 1 7.1 1.7 7.4 2.6 7.4 3.8L7.4 4.2 5.2 4.2 5.2 3.7C5.2 3.2 5.1 2.8 4.9 2.5 4.7 2.3 4.4 2.2 4 2.2 3.6 2.2 3.3 2.3 3 2.6 2.8 2.9 2.7 3.3 2.7 4.1L2.7 6.9C3.1 6 3.9 5.6 4.9 5.6 5.8 5.6 6.4 5.9 6.9 6.5 7.3 7.1 7.6 7.9 7.6 9.1L7.6 11.9C7.6 13.1 7.3 14.1 6.7 14.7 6.1 15.4 5.2 15.7 4 15.7 2.8 15.7 1.9 15.4 1.3 14.7.7 14 .4 13.1.4 11.9L.4 3.9.3 3.9zM3.9 7.6C3.5 7.6 3.2 7.7 3 7.9 2.8 8.1 2.7 8.5 2.7 9.1L2.7 11.8C2.7 12.3 2.8 12.7 3 12.9 3.2 13.1 3.5 13.2 3.9 13.2 4.3 13.2 4.6 13.1 4.8 12.9 5 12.7 5.1 12.3 5.1 11.8L5.1 9.1C5.1 8.6 5 8.2 4.8 7.9 4.6 7.7 4.3 7.6 3.9 7.6zM11.1 10.4L11.1 11.8C11.1 12.3 11.2 12.7 11.4 12.9 11.6 13.1 11.9 13.2 12.3 13.2 12.7 13.2 13 13.1 13.2 12.9 13.4 12.7 13.5 12.3 13.5 11.8L13.5 8.5C13.5 8 13.4 7.6 13.2 7.3 13 7.1 12.8 7 12.4 7 12 7 11.7 7.1 11.5 7.3 11.3 7.5 11.2 7.9 11.2 8.5L11.2 9 9 9 9.4.2 15.7.2 15.7 2.4 11.6 2.4 11.4 6C11.8 5.3 12.5 4.9 13.5 4.9 14.4 4.9 15 5.2 15.5 5.8 15.9 6.4 16.2 7.2 16.2 8.4L16.2 11.8C16.2 13 15.9 14 15.3 14.6 14.7 15.3 13.8 15.6 12.7 15.6 11.6 15.6 10.7 15.3 10.1 14.6 9.5 13.9 9.2 13 9.2 11.8L9.2 10.5 11.1 10.5 11.1 10.4z" transform="translate(19 52)"/>
      <g fill="#f6a924" transform="translate(22 161)">
        <path d="M4.7,4.5 C4.7,3.8 4.6,3.4 4.4,3.1 C4.2,2.9 3.9,2.7 3.5,2.7 C3.1,2.7 2.8,2.8 2.6,3 C2.4,3.2 2.3,3.6 2.3,4.2 L2.3,5.8 L0.1,5.8 L0.1,4.3 C0.1,3.1 0.4,2.1 1,1.5 C1.6,0.8 2.5,0.5 3.6,0.5 C4.7,0.5 5.6,0.8 6.2,1.5 C6.8,2.2 7.1,3.1 7.1,4.3 C7.1,5.1 7,5.8 6.8,6.5 C6.6,7.2 6.3,7.7 5.9,8.2 C5.5,8.7 5.2,9.2 4.8,9.7 C4.4,10.1 4,10.6 3.7,11 C3.3,11.4 3.1,11.8 2.8,12.2 C2.6,12.6 2.5,13 2.5,13.4 C2.5,13.5 2.5,13.7 2.5,13.7 L7,13.7 L7,15.9 L0.1,15.9 L0.1,14 C0.1,13.3 0.2,12.6 0.4,12.1 C0.6,11.5 0.9,11 1.3,10.6 C1.7,10.1 2,9.7 2.4,9.3 C2.8,8.9 3.2,8.5 3.5,8 C3.9,7.5 4.1,7 4.4,6.5 C4.7,6 4.7,5.3 4.7,4.5 Z"/>
        <polygon points="15.5 .8 15.5 2.9 12 15.9 9.6 15.9 13.1 2.9 8.4 2.9 8.4 .7 15.5 .7"/>
      </g>
      <g fill="#2A2A2A" transform="translate(244 79)">
        <polygon points="3.1 4.2 3.1 4.9 1.3 4.9 1.3 7.5 3.5 7.5 3.5 8.2 .5 8.2 .5 1 3.5 1 3.5 1.7 1.3 1.7 1.3 4.2"/>
        <polygon points="6.1 5.1 4.9 8.2 4.1 8.2 5.6 4.5 4.2 1 5 1 6.1 3.9 7.2 1 8 1 6.6 4.5 8.1 8.2 7.2 8.2"/>
        <path d="M10.4 1C11 1 11.4 1.2 11.6 1.5 11.9 1.8 12 2.3 12 2.8L12 3.7C12 4.3 11.9 4.7 11.6 5 11.3 5.3 10.9 5.4 10.3 5.4L9.6 5.4 9.6 8.3 8.8 8.3 8.8 1 10.4 1zM10.3 4.6C10.6 4.6 10.8 4.5 11 4.4 11.1 4.3 11.2 4 11.2 3.6L11.2 2.6C11.2 2.3 11.1 2 11 1.9 10.9 1.7 10.7 1.7 10.4 1.7L9.6 1.7 9.6 4.6 10.3 4.6zM12.6 2.7C12.6 2.1 12.7 1.7 13 1.4 13.3 1.1 13.7.9 14.3.9 14.9.9 15.3 1.1 15.6 1.4 15.9 1.7 16 2.2 16 2.7L16 6.5C16 7.1 15.9 7.5 15.6 7.8 15.3 8.1 14.9 8.3 14.3 8.3 13.7 8.3 13.3 8.1 13 7.8 12.7 7.5 12.6 7 12.6 6.5L12.6 2.7zM13.4 6.5C13.4 6.8 13.5 7.1 13.6 7.3 13.7 7.5 14 7.6 14.2 7.6 14.5 7.6 14.7 7.5 14.9 7.3 15 7.1 15.1 6.9 15.1 6.5L15.1 2.7C15.1 2.4 15 2.1 14.9 1.9 14.8 1.7 14.5 1.6 14.2 1.6 13.9 1.6 13.7 1.7 13.6 1.9 13.5 2.1 13.4 2.3 13.4 2.7L13.4 6.5zM18.3.9C18.9.9 19.3 1.1 19.5 1.4 19.8 1.7 19.9 2.2 19.9 2.7L19.9 2.9 19.1 2.9 19.1 2.7C19.1 2.4 19 2.1 18.9 1.9 18.8 1.7 18.6 1.6 18.3 1.6 18 1.6 17.8 1.7 17.7 1.9 17.6 2.1 17.5 2.3 17.5 2.7 17.5 3 17.6 3.2 17.7 3.4 17.8 3.6 18 3.8 18.2 4 18.4 4.2 18.6 4.3 18.8 4.5 19 4.7 19.2 4.8 19.4 5 19.6 5.2 19.7 5.4 19.9 5.7 20.1 6 20.1 6.2 20.1 6.6 20.1 7.2 20 7.6 19.7 7.9 19.4 8.2 19 8.4 18.5 8.4 17.9 8.4 17.5 8.2 17.3 7.9 17 7.6 16.9 7.1 16.9 6.6L16.9 6.2 17.7 6.2 17.7 6.7C17.7 7 17.8 7.3 17.9 7.5 18 7.7 18.3 7.8 18.5 7.8 18.7 7.8 19 7.7 19.1 7.5 19.2 7.3 19.3 7.1 19.3 6.7 19.3 6.4 19.2 6.2 19.1 6 19 5.8 18.8 5.6 18.6 5.5 18.4 5.3 18.2 5.2 18 5 17.8 4.8 17.6 4.7 17.4 4.5 17.2 4.3 17.1 4.1 16.9 3.8 16.8 3.6 16.7 3.3 16.7 2.9 16.7 2.3 16.8 1.9 17.1 1.6 17.3 1 17.7.9 18.3.9zM21.4 6.8L21.1 8.3 20.4 8.3 21.8 1 23 1 24.4 8.3 23.6 8.3 23.3 6.8 21.4 6.8zM21.5 6.1L23.1 6.1 22.3 1.9 21.5 6.1z"/>
        <polygon points="25.7 8.2 25 8.2 25 1 26 1 27.7 6.3 27.7 1 28.4 1 28.4 8.3 27.6 8.3 25.7 2.4"/>
        <polygon points="30.3 8.2 30.3 1.7 29 1.7 29 1 32.5 1 32.5 1.7 31.2 1.7 31.2 8.2"/>
        <path d="M34.5,0.9 C35.1,0.9 35.5,1.1 35.7,1.4 C36,1.7 36.1,2.2 36.1,2.7 L36.1,2.9 L35.3,2.9 L35.3,2.7 C35.3,2.4 35.2,2.1 35.1,1.9 C35,1.7 34.8,1.6 34.5,1.6 C34.2,1.6 34,1.7 33.9,1.9 C33.8,2.1 33.7,2.3 33.7,2.7 C33.7,3 33.8,3.2 33.9,3.4 C34,3.6 34.2,3.8 34.4,4 C34.6,4.2 34.8,4.3 35,4.5 C35.2,4.7 35.4,4.8 35.6,5 C35.8,5.2 35.9,5.4 36.1,5.7 C36.3,6 36.3,6.2 36.3,6.6 C36.3,7.2 36.2,7.6 35.9,7.9 C35.6,8.2 35.2,8.4 34.7,8.4 C34.1,8.4 33.7,8.2 33.5,7.9 C33.2,7.6 33.1,7.1 33.1,6.6 L33.1,6.2 L33.9,6.2 L33.9,6.7 C33.9,7 34,7.3 34.1,7.5 C34.2,7.7 34.5,7.8 34.7,7.8 C34.9,7.8 35.2,7.7 35.3,7.5 C35.4,7.3 35.5,7.1 35.5,6.7 C35.5,6.4 35.4,6.2 35.3,6 C35.2,5.8 35,5.6 34.8,5.5 C34.6,5.3 34.4,5.2 34.2,5 C34,4.8 33.8,4.7 33.6,4.5 C33.4,4.3 33.3,4.1 33.1,3.8 C33,3.6 32.9,3.3 32.9,2.9 C32.9,2.3 33,1.9 33.3,1.6 C33.6,1 34,0.9 34.5,0.9 Z"/>
      </g>
      <g fill="#2A2A2A" transform="translate(236 178)">
        <path d="M2.2,2.1 C2.8,2.1 3.2,2.2 3.4,2.5 C3.7,2.8 3.8,3.2 3.8,3.7 L3.8,4.3 C3.8,4.7 3.7,5 3.6,5.3 C3.5,5.5 3.2,5.7 2.9,5.8 C3.2,5.9 3.5,6.1 3.6,6.3 C3.7,6.5 3.8,6.9 3.8,7.3 L3.8,8.4 C3.8,8.6 3.8,8.7 3.8,8.9 C3.8,9.1 3.9,9.2 3.9,9.3 L3.1,9.3 C3.1,9.2 3,9.1 3,9 C3,8.9 3,8.7 3,8.5 L3,7.4 C3,7 2.9,6.7 2.7,6.6 C2.5,6.4 2.3,6.4 1.9,6.4 L1.3,6.4 L1.3,9.5 L0.5,9.5 L0.5,2.2 L2.2,2.2 L2.2,2.1 Z M2,5.5 C2.3,5.5 2.6,5.4 2.8,5.3 C3,5.2 3.1,4.9 3.1,4.5 L3.1,3.8 C3.1,3.5 3,3.2 2.9,3.1 C2.8,2.9 2.6,2.9 2.3,2.9 L1.5,2.9 L1.5,5.6 L2,5.6 L2,5.5 Z"/>
        <polygon points="7.2 5.3 7.2 6 5.4 6 5.4 8.6 7.6 8.6 7.6 9.3 4.6 9.3 4.6 2 7.6 2 7.6 2.7 5.4 2.7 5.4 5.2 7.2 5.2"/>
        <polygon points="9.4 9.3 9.4 2.8 8.1 2.8 8.1 2.1 11.6 2.1 11.6 2.8 10.3 2.8 10.3 9.3"/>
        <path d="M12.1,3.8 C12.1,3.2 12.2,2.8 12.5,2.5 C12.8,2.2 13.2,2 13.8,2 C14.4,2 14.8,2.2 15.1,2.5 C15.4,2.8 15.5,3.3 15.5,3.8 L15.5,7.6 C15.5,8.2 15.4,8.6 15.1,8.9 C14.8,9.2 14.4,9.4 13.8,9.4 C13.2,9.4 12.8,9.2 12.5,8.9 C12.2,8.6 12.1,8.1 12.1,7.6 L12.1,3.8 Z M12.9,7.6 C12.9,7.9 13,8.2 13.1,8.4 C13.2,8.6 13.5,8.7 13.7,8.7 C14,8.7 14.2,8.6 14.4,8.4 C14.5,8.2 14.6,8 14.6,7.6 L14.6,3.8 C14.6,3.5 14.5,3.2 14.4,3 C14.3,2.8 14,2.7 13.7,2.7 C13.4,2.7 13.2,2.8 13.1,3 C13,3.2 12.9,3.4 12.9,3.8 L12.9,7.6 Z"/>
        <polygon points="18.9 9.3 18.1 9.3 16.9 3.5 16.9 9.3 16.2 9.3 16.2 2 17.3 2 18.5 7.8 19.7 2 20.8 2 20.8 9.3 20 9.3 20 3.5"/>
        <path d="M23.3 2.1C23.9 2.1 24.3 2.2 24.5 2.5 24.7 2.8 24.9 3.2 24.9 3.7L24.9 4C24.9 4.4 24.8 4.7 24.7 4.9 24.6 5.1 24.4 5.3 24 5.4 24.4 5.5 24.6 5.7 24.8 5.9 24.9 6.2 25 6.5 25 6.9L25 7.5C25 8 24.9 8.5 24.6 8.8 24.3 9.1 23.9 9.2 23.3 9.2L21.6 9.2 21.6 1.9 23.3 1.9 23.3 2.1zM23.1 5.1C23.4 5.1 23.7 5 23.8 4.9 24 4.8 24 4.5 24 4.1L24 3.7C24 3.4 23.9 3.1 23.8 3 23.7 2.8 23.5 2.8 23.2 2.8L22.4 2.8 22.4 5.1 23.1 5.1 23.1 5.1zM23.3 8.6C23.9 8.6 24.2 8.3 24.2 7.6L24.2 7C24.2 6.6 24.1 6.3 24 6.2 23.8 6 23.6 6 23.2 6L22.5 6 22.5 8.7 23.3 8.7 23.3 8.6zM28.3 5.3L28.3 6 26.5 6 26.5 8.6 28.7 8.6 28.7 9.3 25.7 9.3 25.7 2 28.7 2 28.7 2.7 26.5 2.7 26.5 5.2 28.3 5.2 28.3 5.3zM28.2.6L27.2 1.7 26.6 1.7 27.3.6 28.2.6z"/>
        <polygon points="32 5.3 32 6 30.2 6 30.2 8.6 32.4 8.6 32.4 9.3 29.4 9.3 29.4 2 32.4 2 32.4 2.7 30.2 2.7 30.2 5.2 32 5.2"/>
        <path d="M34.7 2C35.3 2 35.7 2.2 35.9 2.5 36.2 2.8 36.3 3.3 36.3 3.8L36.3 4 35.5 4 35.5 3.8C35.5 3.5 35.4 3.2 35.3 3 35.2 2.8 35 2.7 34.7 2.7 34.4 2.7 34.2 2.8 34.1 3 34 3.2 33.9 3.4 33.9 3.8 33.9 4.1 34 4.3 34.1 4.5 34.2 4.7 34.4 4.9 34.6 5.1 34.8 5.3 35 5.4 35.2 5.6 35.4 5.8 35.6 5.9 35.8 6.1 36 6.3 36.1 6.5 36.3 6.8 36.5 7.1 36.5 7.3 36.5 7.7 36.5 8.3 36.4 8.7 36.1 9 35.8 9.3 35.4 9.5 34.9 9.5 34.4 9.5 33.9 9.3 33.7 9 33.4 8.7 33.3 8.2 33.3 7.7L33.3 7.3 34.1 7.3 34.1 7.8C34.1 8.1 34.2 8.4 34.3 8.6 34.4 8.8 34.7 8.9 34.9 8.9 35.1 8.9 35.4 8.8 35.5 8.6 35.6 8.4 35.7 8.2 35.7 7.8 35.7 7.5 35.6 7.3 35.5 7.1 35.4 6.9 35.2 6.7 35 6.6 34.8 6.4 34.6 6.3 34.4 6.1 34.2 5.9 34 5.8 33.8 5.6 33.6 5.4 33.5 5.2 33.3 4.9 33.2 4.7 33.1 4.4 33.1 4 33.1 3.4 33.2 3 33.5 2.7 33.8 2.2 34.2 2 34.7 2zM40.2 2.1C40.8 2.1 41.2 2.3 41.4 2.6 41.7 2.9 41.8 3.4 41.8 3.9L41.8 4.8C41.8 5.4 41.7 5.8 41.4 6.1 41.1 6.4 40.7 6.5 40.1 6.5L39.4 6.5 39.4 9.4 38.6 9.4 38.6 2.1 40.2 2.1 40.2 2.1zM40.2 5.7C40.5 5.7 40.7 5.6 40.9 5.5 41 5.4 41.1 5.1 41.1 4.7L41.1 3.7C41.1 3.4 41 3.1 40.9 3 40.8 2.8 40.6 2.8 40.3 2.8L39.5 2.8 39.5 5.7 40.2 5.7 40.2 5.7zM44.2 2.1C44.8 2.1 45.2 2.2 45.4 2.5 45.7 2.8 45.8 3.2 45.8 3.7L45.8 4.3C45.8 4.7 45.7 5 45.6 5.3 45.5 5.5 45.2 5.7 44.9 5.8 45.2 5.9 45.5 6.1 45.6 6.3 45.7 6.5 45.8 6.9 45.8 7.3L45.8 8.4C45.8 8.6 45.8 8.7 45.8 8.9 45.8 9 45.9 9.2 45.9 9.3L45.1 9.3C45.1 9.2 45 9.1 45 9 45 8.9 45 8.7 45 8.5L45 7.4C45 7 44.9 6.7 44.7 6.6 44.5 6.4 44.3 6.4 43.9 6.4L43.3 6.4 43.3 9.5 42.5 9.5 42.5 2.2 44.2 2.2 44.2 2.1zM43.9 5.5C44.2 5.5 44.5 5.4 44.7 5.3 44.9 5.2 45 4.9 45 4.5L45 3.8C45 3.5 44.9 3.2 44.8 3.1 44.7 2.9 44.5 2.9 44.2 2.9L43.4 2.9 43.4 5.6 43.9 5.6 43.9 5.5z"/>
        <polygon points="49.2 5.3 49.2 6 47.4 6 47.4 8.6 49.6 8.6 49.6 9.3 46.6 9.3 46.6 2 49.6 2 49.6 2.7 47.4 2.7 47.4 5.2 49.2 5.2"/>
        <path d="M51.9 2C52.5 2 52.9 2.2 53.1 2.5 53.4 2.8 53.5 3.3 53.5 3.8L53.5 4 52.7 4 52.7 3.8C52.7 3.5 52.6 3.2 52.5 3 52.4 2.8 52.2 2.7 51.9 2.7 51.6 2.7 51.4 2.8 51.3 3 51.2 3.2 51.1 3.4 51.1 3.8 51.1 4.1 51.2 4.3 51.3 4.5 51.4 4.7 51.6 4.9 51.8 5.1 52 5.3 52.2 5.4 52.4 5.6 52.6 5.8 52.8 5.9 53 6.1 53.2 6.3 53.3 6.5 53.5 6.8 53.7 7.1 53.7 7.3 53.7 7.7 53.7 8.3 53.6 8.7 53.3 9 53 9.3 52.6 9.5 52.1 9.5 51.6 9.5 51.1 9.3 50.9 9 50.6 8.7 50.5 8.2 50.5 7.7L50.5 7.3 51.3 7.3 51.3 7.8C51.3 8.1 51.4 8.4 51.5 8.6 51.6 8.8 51.9 8.9 52.1 8.9 52.3 8.9 52.6 8.8 52.7 8.6 52.8 8.4 52.9 8.2 52.9 7.8 52.9 7.5 52.8 7.3 52.7 7.1 52.6 6.9 52.4 6.7 52.2 6.6 52 6.4 51.8 6.3 51.6 6.1 51.4 5.9 51.2 5.8 51 5.6 50.8 5.4 50.7 5.2 50.5 4.9 50.4 4.7 50.3 4.4 50.3 4 50.3 3.4 50.4 3 50.7 2.7 50.9 2.2 51.3 2 51.9 2zM55.8 2C56.4 2 56.8 2.2 57 2.5 57.3 2.8 57.4 3.3 57.4 3.8L57.4 4 56.6 4 56.6 3.8C56.6 3.5 56.5 3.2 56.4 3 56.3 2.8 56.1 2.7 55.8 2.7 55.5 2.7 55.3 2.8 55.2 3 55.1 3.2 55 3.4 55 3.8 55 4.1 55.1 4.3 55.2 4.5 55.3 4.7 55.5 4.9 55.7 5.1 55.9 5.3 56.1 5.4 56.3 5.6 56.5 5.8 56.7 5.9 56.9 6.1 57.1 6.3 57.2 6.5 57.4 6.8 57.6 7.1 57.6 7.3 57.6 7.7 57.6 8.3 57.5 8.7 57.2 9 56.9 9.3 56.5 9.5 56 9.5 55.5 9.5 55 9.3 54.8 9 54.5 8.7 54.4 8.2 54.4 7.7L54.4 7.3 55.2 7.3 55.2 7.8C55.2 8.1 55.3 8.4 55.4 8.6 55.5 8.8 55.8 8.9 56 8.9 56.2 8.9 56.5 8.8 56.6 8.6 56.7 8.4 56.8 8.2 56.8 7.8 56.8 7.5 56.7 7.3 56.6 7.1 56.5 6.9 56.3 6.7 56.1 6.6 55.9 6.4 55.7 6.3 55.5 6.1 55.3 5.9 55.1 5.8 54.9 5.6 54.7 5.4 54.6 5.2 54.4 4.9 54.3 4.7 54.2 4.4 54.2 4 54.2 3.4 54.3 3 54.6 2.7 54.8 2.2 55.2 2 55.8 2z"/>
        <polygon points="60.7 5.3 60.7 6 58.9 6 58.9 8.6 61.1 8.6 61.1 9.3 58.1 9.3 58.1 2 61.1 2 61.1 2.7 58.9 2.7 58.9 5.2 60.7 5.2"/>
      </g>
      <g fill="#2A2A2A" transform="translate(112 252)">
        <path d="M2,1.6 C2.6,1.6 3,1.8 3.3,2.1 C3.6,2.4 3.7,2.9 3.7,3.4 L3.7,7.1 C3.7,7.7 3.6,8.1 3.3,8.4 C3,8.7 2.6,8.9 2,8.9 L0.3,8.9 L0.3,1.6 L2,1.6 Z M2,8.1 C2.3,8.1 2.5,8 2.6,7.8 C2.7,7.6 2.8,7.4 2.8,7 L2.8,3.3 C2.8,3 2.7,2.7 2.6,2.5 C2.5,2.3 2.2,2.2 1.9,2.2 L1,2.2 L1,8 L2,8 L2,8.1 Z"/>
        <polygon points="7 4.8 7 5.5 5.2 5.5 5.2 8.1 7.4 8.1 7.4 8.8 4.4 8.8 4.4 1.5 7.4 1.5 7.4 2.2 5.2 2.2 5.2 4.7 7 4.7"/>
        <path d="M11.3,1.6 C11.9,1.6 12.3,1.8 12.5,2.1 C12.8,2.4 12.9,2.9 12.9,3.4 L12.9,4.3 C12.9,4.9 12.8,5.3 12.5,5.6 C12.2,5.9 11.8,6 11.2,6 L10.5,6 L10.5,8.9 L9.7,8.9 L9.7,1.6 L11.3,1.6 L11.3,1.6 Z M11.3,5.3 C11.6,5.3 11.8,5.2 12,5.1 C12.1,5 12.2,4.7 12.2,4.3 L12.2,3.3 C12.2,3 12.1,2.7 12,2.6 C11.9,2.4 11.7,2.4 11.4,2.4 L10.6,2.4 L10.6,5.3 L11.3,5.3 Z"/>
        <polygon points="16.2 4.8 16.2 5.5 14.4 5.5 14.4 8.1 16.6 8.1 16.6 8.8 13.6 8.8 13.6 1.5 16.6 1.5 16.6 2.2 14.4 2.2 14.4 4.7 16.2 4.7"/>
        <path d="M18.9 1.6C19.5 1.6 19.9 1.7 20.1 2 20.4 2.3 20.5 2.7 20.5 3.2L20.5 3.8C20.5 4.2 20.4 4.5 20.3 4.8 20.2 5 19.9 5.2 19.6 5.3 19.9 5.4 20.2 5.6 20.3 5.8 20.4 6 20.5 6.4 20.5 6.8L20.5 7.9C20.5 8.1 20.5 8.2 20.5 8.4 20.5 8.5 20.6 8.7 20.6 8.8L19.8 8.8C19.8 8.7 19.7 8.6 19.7 8.5 19.7 8.4 19.7 8.2 19.7 8L19.7 6.9C19.7 6.5 19.6 6.2 19.4 6.1 19.2 5.9 19 5.9 18.6 5.9L18 5.9 18 9 17.2 9 17.2 1.7 18.9 1.7 18.9 1.6zM18.7 5C19 5 19.3 4.9 19.5 4.8 19.7 4.7 19.8 4.4 19.8 4L19.8 3.3C19.8 3 19.7 2.7 19.6 2.6 19.5 2.4 19.3 2.4 19 2.4L18.2 2.4 18.2 5.1 18.7 5.1 18.7 5zM22.9 1.5C23.5 1.5 23.9 1.7 24.1 2 24.4 2.3 24.5 2.8 24.5 3.3L24.5 3.5 23.7 3.5 23.7 3.3C23.7 3 23.6 2.7 23.5 2.5 23.4 2.3 23.2 2.2 22.9 2.2 22.6 2.2 22.4 2.3 22.3 2.5 22.2 2.7 22.1 2.9 22.1 3.3 22.1 3.6 22.2 3.8 22.3 4 22.4 4.2 22.6 4.4 22.8 4.6 23 4.8 23.2 4.9 23.4 5.1 23.6 5.3 23.8 5.4 24 5.6 24.2 5.8 24.3 6 24.5 6.3 24.7 6.6 24.7 6.8 24.7 7.2 24.7 7.8 24.6 8.2 24.3 8.5 24 8.8 23.6 9 23.1 9 22.5 9 22.1 8.8 21.9 8.5 21.6 8.2 21.5 7.7 21.5 7.2L21.5 6.8 22.3 6.8 22.3 7.3C22.3 7.6 22.4 7.9 22.5 8.1 22.6 8.3 22.9 8.4 23.1 8.4 23.4 8.4 23.6 8.3 23.7 8.1 23.8 7.9 23.9 7.7 23.9 7.3 23.9 7 23.8 6.8 23.7 6.6 23.6 6.4 23.4 6.2 23.2 6.1 23 5.9 22.8 5.8 22.6 5.6 22.4 5.4 22.2 5.3 22 5.1 21.8 4.9 21.7 4.7 21.5 4.4 21.4 4.2 21.3 3.9 21.3 3.5 21.3 2.9 21.4 2.5 21.7 2.2 22 1.7 22.4 1.5 22.9 1.5zM25.2 3.3C25.2 2.7 25.3 2.3 25.6 2 25.9 1.7 26.3 1.5 26.9 1.5 27.5 1.5 27.9 1.7 28.2 2 28.5 2.3 28.6 2.8 28.6 3.3L28.6 7.1C28.6 7.7 28.5 8.1 28.2 8.4 27.9 8.7 27.5 8.9 26.9 8.9 26.3 8.9 25.9 8.7 25.6 8.4 25.3 8.1 25.2 7.6 25.2 7.1L25.2 3.3zM26 7.1C26 7.4 26.1 7.7 26.2 7.9 26.3 8.1 26.6 8.2 26.8 8.2 27.1 8.2 27.3 8.1 27.5 7.9 27.6 7.7 27.7 7.5 27.7 7.1L27.7 3.3C27.7 3 27.6 2.7 27.5 2.5 27.4 2.3 27.1 2.2 26.8 2.2 26.5 2.2 26.3 2.3 26.2 2.5 26.1 2.7 26 2.9 26 3.3L26 7.1z"/>
        <polygon points="30 8.9 29.3 8.9 29.3 1.6 30.3 1.6 32 6.9 32 1.6 32.7 1.6 32.7 8.9 31.9 8.9 30 3"/>
        <polygon points="34.3 8.9 33.6 8.9 33.6 1.6 34.6 1.6 36.3 6.9 36.3 1.6 37 1.6 37 8.9 36.2 8.9 34.3 3 34.3 8.9"/>
        <polygon points="40.4 4.8 40.4 5.5 38.6 5.5 38.6 8.1 40.8 8.1 40.8 8.8 37.8 8.8 37.8 1.5 40.8 1.5 40.8 2.2 38.6 2.2 38.6 4.7 40.4 4.7"/>
        <path d="M43.1,1.5 C43.7,1.5 44.1,1.7 44.3,2 C44.5,2.3 44.7,2.8 44.7,3.3 L44.7,3.5 L43.9,3.5 L43.9,3.3 C43.9,3 43.8,2.7 43.7,2.5 C43.6,2.3 43.4,2.2 43.1,2.2 C42.8,2.2 42.6,2.3 42.5,2.5 C42.4,2.7 42.3,2.9 42.3,3.3 C42.3,3.6 42.4,3.8 42.5,4 C42.6,4.2 42.8,4.4 43,4.6 C43.2,4.8 43.4,4.9 43.6,5.1 C43.8,5.3 44,5.4 44.2,5.6 C44.4,5.8 44.5,6 44.7,6.3 C44.9,6.6 44.9,6.8 44.9,7.2 C44.9,7.8 44.8,8.2 44.5,8.5 C44.2,8.8 43.8,9 43.3,9 C42.7,9 42.3,8.8 42.1,8.5 C41.8,8.2 41.7,7.7 41.7,7.2 L41.7,6.8 L42.5,6.8 L42.5,7.3 C42.5,7.6 42.6,7.9 42.7,8.1 C42.8,8.3 43.1,8.4 43.3,8.4 C43.6,8.4 43.8,8.3 43.9,8.1 C44,7.9 44.1,7.7 44.1,7.3 C44.1,7 44,6.8 43.9,6.6 C43.8,6.4 43.6,6.2 43.4,6.1 C43.2,5.9 43,5.8 42.8,5.6 C42.6,5.4 42.4,5.3 42.2,5.1 C42,4.9 41.9,4.7 41.7,4.4 C41.6,4.2 41.5,3.9 41.5,3.5 C41.5,2.9 41.6,2.5 41.9,2.2 C42.2,1.9 42.5,1.5 43.1,1.5 Z"/>
        <polygon points="48.1 8.9 48.1 2.4 46.8 2.4 46.8 1.7 50.3 1.7 50.3 2.4 49 2.4 49 8.9"/>
        <path d="M50.7 3.3C50.7 2.7 50.8 2.3 51.1 2 51.4 1.7 51.8 1.5 52.4 1.5 53 1.5 53.4 1.7 53.7 2 54 2.3 54.1 2.8 54.1 3.3L54.1 7.1C54.1 7.7 54 8.1 53.7 8.4 53.4 8.7 53 8.9 52.4 8.9 51.8 8.9 51.4 8.7 51.1 8.4 50.8 8.1 50.7 7.6 50.7 7.1L50.7 3.3zM51.5 7.1C51.5 7.4 51.6 7.7 51.7 7.9 51.8 8.1 52.1 8.2 52.3 8.2 52.6 8.2 52.8 8.1 53 7.9 53.1 7.7 53.2 7.5 53.2 7.1L53.2 3.3C53.2 3 53.1 2.7 53 2.5 52.9 2.3 52.6 2.2 52.3 2.2 52 2.2 51.8 2.3 51.7 2.5 51.6 2.7 51.5 2.9 51.5 3.3L51.5 7.1zM55.6 7.1C55.6 7.4 55.7 7.7 55.8 7.9 55.9 8.1 56.2 8.2 56.4 8.2 56.7 8.2 56.9 8.1 57 7.9 57.1 7.7 57.2 7.5 57.2 7.1L57.2 1.5 58 1.5 58 7C58 7.6 57.9 8 57.6 8.3 57.3 8.6 56.9 8.8 56.4 8.8 55.8 8.8 55.4 8.6 55.2 8.3 54.9 8 54.8 7.5 54.8 7L54.8 1.5 55.6 1.5 55.6 7.1zM60.4 1.5C61 1.5 61.4 1.7 61.6 2 61.9 2.3 62 2.8 62 3.3L62 4 61.2 4 61.2 3.3C61.2 3 61.1 2.7 61 2.5 60.9 2.3 60.6 2.2 60.4 2.2 60.1 2.2 59.9 2.3 59.8 2.5 59.7 2.7 59.6 2.9 59.6 3.3L59.6 7.1C59.6 7.4 59.7 7.7 59.8 7.9 59.9 8.1 60.2 8.2 60.4 8.2 60.7 8.2 60.9 8.1 61 7.9 61.1 7.7 61.2 7.5 61.2 7.1L61.2 6.2 62 6.2 62 7.1C62 7.7 61.9 8.1 61.6 8.4 61.3 8.7 60.9 8.9 60.4 8.9 59.8 8.9 59.4 8.7 59.2 8.4 59 8.1 58.8 7.6 58.8 7.1L58.8 3.3C58.8 3 58.8 2.8 58.9 2.5 59 2.3 59.1 2.1 59.2 1.9 59.3 1.7 59.5 1.6 59.7 1.5 59.9 1.4 60.1 1.5 60.4 1.5z"/>
        <polygon points="63.6 5.6 63.6 8.9 62.8 8.9 62.8 1.6 63.6 1.6 63.6 4.9 65.4 4.9 65.4 1.6 66.2 1.6 66.2 8.9 65.4 8.9 65.4 5.6"/>
        <path d="M69.6,4.8 L69.6,5.5 L67.8,5.5 L67.8,8.1 L70,8.1 L70,8.8 L67,8.8 L67,1.5 L70,1.5 L70,2.2 L67.8,2.2 L67.8,4.7 L69.6,4.7 L69.6,4.8 Z M69.5,0.1 L68.5,1.2 L68,1.2 L68.7,0.1 L69.5,0.1 Z"/>
        <polygon points="73.3 4.8 73.3 5.5 71.5 5.5 71.5 8.1 73.7 8.1 73.7 8.8 70.7 8.8 70.7 1.5 73.7 1.5 73.7 2.2 71.5 2.2 71.5 4.7 73.3 4.7"/>
        <path d="M76,1.5 C76.6,1.5 77,1.7 77.2,2 C77.5,2.3 77.6,2.8 77.6,3.3 L77.6,3.5 L76.8,3.5 L76.8,3.3 C76.8,3 76.7,2.7 76.6,2.5 C76.5,2.3 76.3,2.2 76,2.2 C75.7,2.2 75.5,2.3 75.4,2.5 C75.3,2.7 75.2,2.9 75.2,3.3 C75.2,3.6 75.3,3.8 75.4,4 C75.5,4.2 75.7,4.4 75.9,4.6 C76.1,4.8 76.3,4.9 76.5,5.1 C76.7,5.3 76.9,5.4 77.1,5.6 C77.3,5.8 77.4,6 77.6,6.3 C77.8,6.6 77.8,6.8 77.8,7.2 C77.8,7.8 77.7,8.2 77.4,8.5 C77.1,8.8 76.7,9 76.2,9 C75.7,9 75.2,8.8 75,8.5 C74.7,8.2 74.6,7.7 74.6,7.2 L74.6,6.8 L75.4,6.8 L75.4,7.3 C75.4,7.6 75.5,7.9 75.6,8.1 C75.7,8.3 76,8.4 76.2,8.4 C76.4,8.4 76.7,8.3 76.8,8.1 C76.9,7.9 77,7.7 77,7.3 C77,7 76.9,6.8 76.8,6.6 C76.7,6.4 76.5,6.2 76.3,6.1 C76.1,5.9 75.9,5.8 75.7,5.6 C75.5,5.4 75.3,5.3 75.1,5.1 C74.9,4.9 74.8,4.7 74.6,4.4 C74.5,4.2 74.4,3.9 74.4,3.5 C74.4,2.9 74.5,2.5 74.8,2.2 C75,1.7 75.5,1.5 76,1.5 Z"/>
      </g>
      <g fill="#2A2A2A" transform="translate(109 264)">
        <path d="M2.5 2C3.1 2 3.5 2.2 3.7 2.5 4 2.8 4.1 3.3 4.1 3.8L4.1 4 3.3 4 3.3 3.8C3.3 3.5 3.2 3.2 3.1 3 3 2.8 2.8 2.7 2.5 2.7 2.2 2.7 2 2.8 1.9 3 1.8 3.2 1.7 3.4 1.7 3.8 1.7 4.1 1.8 4.3 1.9 4.5 2 4.7 2.2 4.9 2.4 5.1 2.6 5.3 2.8 5.4 3 5.6 3.2 5.8 3.4 5.9 3.6 6.1 3.8 6.3 3.9 6.5 4.1 6.8 4.3 7.1 4.3 7.3 4.3 7.7 4.3 8.3 4.2 8.7 3.9 9 3.6 9.3 3.2 9.5 2.7 9.5 2.1 9.5 1.7 9.3 1.5 9 1.2 8.7 1.1 8.2 1.1 7.7L1.1 7.3 1.9 7.3 1.9 7.8C1.9 8.1 2 8.4 2.1 8.6 2.2 8.8 2.5 8.9 2.7 8.9 3 8.9 3.2 8.8 3.3 8.6 3.4 8.4 3.5 8.2 3.5 7.8 3.5 7.5 3.4 7.3 3.3 7.1 3.2 6.9 3 6.7 2.8 6.6 2.6 6.4 2.4 6.3 2.2 6.1 2 5.9 1.8 5.8 1.6 5.6 1.4 5.4 1.3 5.2 1.1 4.9 1 4.7.9 4.4.9 4 .9 3.4 1 3 1.3 2.7 1.5 2.1 2 2 2.5 2zM5.6 7.6C5.6 7.9 5.7 8.2 5.8 8.4 5.9 8.6 6.2 8.7 6.4 8.7 6.7 8.7 6.9 8.6 7 8.4 7.1 8.2 7.2 8 7.2 7.6L7.2 2 8 2 8 7.5C8 8.1 7.9 8.5 7.6 8.8 7.3 9.1 6.9 9.3 6.4 9.3 5.8 9.3 5.4 9.1 5.2 8.8 4.9 8.5 4.8 8 4.8 7.5L4.8 2 5.6 2 5.6 7.6zM10.5 2C11.1 2 11.5 2.1 11.7 2.4 12 2.7 12.1 3.1 12.1 3.6L12.1 4.2C12.1 4.6 12 4.9 11.9 5.2 11.8 5.4 11.5 5.6 11.2 5.7 11.5 5.8 11.8 6 11.9 6.2 12 6.4 12.1 6.8 12.1 7.2L12.1 8.3C12.1 8.5 12.1 8.6 12.1 8.8 12.1 8.9 12.2 9.1 12.2 9.2L11.4 9.2C11.4 9.1 11.3 9 11.3 8.9 11.3 8.8 11.3 8.6 11.3 8.4L11.3 7.3C11.3 6.9 11.2 6.6 11 6.5 10.8 6.3 10.6 6.3 10.2 6.3L9.6 6.3 9.6 9.4 8.8 9.4 8.8 2 10.5 2zM10.3 5.5C10.6 5.5 10.9 5.4 11.1 5.3 11.3 5.2 11.4 4.9 11.4 4.5L11.4 3.8C11.4 3.5 11.3 3.2 11.2 3.1 11.1 2.9 10.9 2.9 10.6 2.9L9.8 2.9 9.8 5.6 10.3 5.6 10.3 5.5z"/>
        <polygon points="14.6 9.3 14.6 2 15.4 2 15.4 8.5 17.5 8.5 17.5 9.2 14.6 9.2"/>
        <polygon points="20.6 5.3 20.6 6 18.8 6 18.8 8.6 21 8.6 21 9.3 18 9.3 18 2 21 2 21 2.7 18.8 2.7 18.8 5.2 20.6 5.2"/>
        <path d="M23.3 2C23.9 2 24.3 2.2 24.5 2.5 24.8 2.8 24.9 3.3 24.9 3.8L24.9 4 24.1 4 24.1 3.8C24.1 3.5 24 3.2 23.9 3 23.8 2.8 23.6 2.7 23.3 2.7 23 2.7 22.8 2.8 22.7 3 22.6 3.2 22.5 3.4 22.5 3.8 22.5 4.1 22.6 4.3 22.7 4.5 22.8 4.7 23 4.9 23.2 5.1 23.4 5.3 23.6 5.4 23.8 5.6 24 5.8 24.2 5.9 24.4 6.1 24.6 6.3 24.7 6.5 24.9 6.8 25.1 7.1 25.1 7.3 25.1 7.7 25.1 8.3 25 8.7 24.7 9 24.4 9.3 24 9.5 23.5 9.5 22.9 9.5 22.5 9.3 22.3 9 22 8.7 21.9 8.2 21.9 7.7L21.9 7.3 22.7 7.3 22.7 7.8C22.7 8.1 22.8 8.4 22.9 8.6 23 8.8 23.3 8.9 23.5 8.9 23.8 8.9 24 8.8 24.1 8.6 24.2 8.4 24.3 8.2 24.3 7.8 24.3 7.5 24.2 7.3 24.1 7.1 24 6.9 23.8 6.7 23.6 6.6 23.4 6.4 23.2 6.3 23 6.1 22.8 5.9 22.6 5.8 22.4 5.6 22.2 5.4 22.1 5.2 21.9 4.9 21.8 4.7 21.7 4.4 21.7 4 21.7 3.4 21.8 3 22.1 2.7 22.4 2.1 22.8 2 23.3 2zM28.9 2C29.5 2 29.9 2.1 30.1 2.4 30.4 2.7 30.5 3.1 30.5 3.6L30.5 4.2C30.5 4.6 30.4 4.9 30.3 5.2 30.2 5.4 29.9 5.6 29.6 5.7 29.9 5.8 30.2 6 30.3 6.2 30.4 6.4 30.5 6.8 30.5 7.2L30.5 8.3C30.5 8.5 30.5 8.6 30.5 8.8 30.5 8.9 30.6 9.1 30.6 9.2L29.8 9.2C29.8 9.1 29.7 9 29.7 8.9 29.7 8.8 29.7 8.6 29.7 8.4L29.7 7.3C29.7 6.9 29.6 6.6 29.4 6.5 29.2 6.3 29 6.3 28.6 6.3L28 6.3 28 9.4 27.2 9.4 27.2 2 28.9 2zM28.7 5.5C29 5.5 29.3 5.4 29.5 5.3 29.7 5.2 29.8 4.9 29.8 4.5L29.8 3.8C29.8 3.5 29.7 3.2 29.6 3.1 29.5 2.9 29.3 2.9 29 2.9L28.2 2.9 28.2 5.6 28.7 5.6 28.7 5.5zM33.9 5.3L33.9 6 32.1 6 32.1 8.6 34.3 8.6 34.3 9.3 31.3 9.3 31.3 2 34.3 2 34.3 2.7 32.1 2.7 32.1 5.2 33.9 5.2 33.9 5.3zM33.9.6L32.9 1.7 32.3 1.7 33 .6 33.9.6zM36.6 2C37.2 2 37.6 2.2 37.8 2.5 38.1 2.8 38.2 3.3 38.2 3.8L38.2 4 37.4 4 37.4 3.8C37.4 3.5 37.3 3.2 37.2 3 37.1 2.8 36.9 2.7 36.6 2.7 36.3 2.7 36.1 2.8 36 3 35.9 3.2 35.8 3.4 35.8 3.8 35.8 4.1 35.9 4.3 36 4.5 36.1 4.7 36.3 4.9 36.5 5.1 36.7 5.3 36.9 5.4 37.1 5.6 37.3 5.8 37.5 5.9 37.7 6.1 37.9 6.3 38 6.5 38.2 6.8 38.4 7.1 38.4 7.3 38.4 7.7 38.4 8.3 38.3 8.7 38 9 37.7 9.3 37.3 9.5 36.8 9.5 36.2 9.5 35.8 9.3 35.6 9 35.3 8.7 35.2 8.2 35.2 7.7L35.2 7.3 36 7.3 36 7.8C36 8.1 36.1 8.4 36.2 8.6 36.3 8.8 36.6 8.9 36.8 8.9 37.1 8.9 37.3 8.8 37.4 8.6 37.5 8.4 37.6 8.2 37.6 7.8 37.6 7.5 37.5 7.3 37.4 7.1 37.3 6.9 37.1 6.7 36.9 6.6 36.7 6.4 36.5 6.3 36.3 6.1 36.1 5.9 35.9 5.8 35.7 5.6 35.5 5.4 35.4 5.2 35.2 4.9 35.1 4.7 35 4.4 35 4 35 3.4 35.1 3 35.4 2.7 35.7 2.1 36.1 2 36.6 2z"/>
        <polygon points="41.5 5.3 41.5 6 39.7 6 39.7 8.6 41.9 8.6 41.9 9.3 38.9 9.3 38.9 2 41.9 2 41.9 2.7 39.7 2.7 39.7 5.2 41.5 5.2"/>
        <path d="M43.5 7.8L43.2 9.3 42.5 9.3 43.9 2 45.1 2 46.5 9.3 45.7 9.3 45.4 7.8 43.5 7.8zM43.6 7.2L45.2 7.2 44.4 3 43.6 7.2zM47.8 7.6C47.8 7.9 47.9 8.2 48 8.4 48.1 8.6 48.4 8.7 48.6 8.7 48.9 8.7 49.1 8.6 49.2 8.4 49.3 8.2 49.4 8 49.4 7.6L49.4 2 50.2 2 50.2 7.5C50.2 8.1 50.1 8.5 49.8 8.8 49.5 9.1 49.1 9.3 48.6 9.3 48 9.3 47.6 9.1 47.4 8.8 47.1 8.5 47 8 47 7.5L47 2 47.8 2 47.8 7.6z"/>
        <polygon points="52.9 6.2 51.7 9.3 50.9 9.3 52.4 5.6 51 2 51.8 2 52.9 4.9 54 2 54.8 2 53.4 5.5 54.9 9.2 54 9.2"/>
        <path d="M58.8 2C59.4 2 59.8 2.2 60 2.5 60.3 2.8 60.4 3.3 60.4 3.8L60.4 4 59.6 4 59.6 3.8C59.6 3.5 59.5 3.2 59.4 3 59.3 2.8 59.1 2.7 58.8 2.7 58.5 2.7 58.3 2.8 58.2 3 58.1 3.2 58 3.4 58 3.8 58 4.1 58.1 4.3 58.2 4.5 58.3 4.7 58.5 4.9 58.7 5.1 58.9 5.3 59.1 5.4 59.3 5.6 59.5 5.8 59.7 5.9 59.9 6.1 60.1 6.3 60.2 6.5 60.4 6.8 60.6 7.1 60.6 7.3 60.6 7.7 60.6 8.3 60.5 8.7 60.2 9 59.9 9.3 59.5 9.5 59 9.5 58.4 9.5 58 9.3 57.8 9 57.5 8.7 57.4 8.2 57.4 7.7L57.4 7.3 58.2 7.3 58.2 7.8C58.2 8.1 58.3 8.4 58.4 8.6 58.5 8.8 58.8 8.9 59 8.9 59.2 8.9 59.5 8.8 59.6 8.6 59.7 8.4 59.8 8.2 59.8 7.8 59.8 7.5 59.7 7.3 59.6 7.1 59.5 6.9 59.3 6.7 59.1 6.6 58.9 6.4 58.7 6.3 58.5 6.1 58.3 5.9 58.1 5.8 57.9 5.6 57.7 5.4 57.6 5.2 57.4 4.9 57.3 4.7 57.2 4.4 57.2 4 57.2 3.4 57.3 3 57.6 2.7 57.8 2.1 58.2 2 58.8 2zM61 3.8C61 3.2 61.1 2.8 61.4 2.5 61.7 2.2 62.1 2 62.7 2 63.3 2 63.7 2.2 64 2.5 64.3 2.8 64.4 3.3 64.4 3.8L64.4 7.6C64.4 8.2 64.3 8.6 64 8.9 63.7 9.2 63.3 9.4 62.7 9.4 62.1 9.4 61.7 9.2 61.4 8.9 61.1 8.6 61 8.1 61 7.6L61 3.8zM61.8 7.6C61.8 7.9 61.9 8.2 62 8.4 62.1 8.6 62.4 8.7 62.6 8.7 62.9 8.7 63.1 8.6 63.3 8.4 63.5 8.2 63.5 8 63.5 7.6L63.5 3.8C63.5 3.5 63.4 3.2 63.3 3 63.2 2.8 62.9 2.7 62.6 2.7 62.3 2.7 62.1 2.8 62 3 61.9 3.2 61.8 3.4 61.8 3.8L61.8 7.6zM66.7 2C67.3 2 67.7 2.2 67.9 2.5 68.2 2.8 68.3 3.3 68.3 3.8L68.3 4.5 67.5 4.5 67.5 3.8C67.5 3.5 67.4 3.2 67.3 3 67.2 2.8 66.9 2.7 66.7 2.7 66.4 2.7 66.2 2.8 66.1 3 66 3.2 65.9 3.4 65.9 3.8L65.9 7.6C65.9 7.9 66 8.2 66.1 8.4 66.2 8.6 66.5 8.7 66.7 8.7 67 8.7 67.2 8.6 67.3 8.4 67.4 8.2 67.5 8 67.5 7.6L67.5 6.7 68.3 6.7 68.3 7.6C68.3 8.2 68.2 8.6 67.9 8.9 67.6 9.2 67.2 9.4 66.7 9.4 66.1 9.4 65.7 9.2 65.5 8.9 65.2 8.6 65.1 8.1 65.1 7.6L65.1 3.8C65.1 3.5 65.1 3.3 65.2 3 65.3 2.8 65.4 2.6 65.5 2.4 65.6 2.2 65.8 2.1 66 2 66.2 2 66.4 2 66.7 2z"/>
        <polygon points="69.9 2 69.9 9.3 69.1 9.3 69.1 2"/>
        <path d="M71.5 7.8L71.2 9.3 70.5 9.3 71.9 2 73.1 2 74.5 9.3 73.7 9.3 73.4 7.8 71.5 7.8zM71.6 7.2L73.2 7.2 72.4 3 71.6 7.2zM75.9 7.6C75.9 7.9 76 8.2 76.1 8.4 76.2 8.6 76.5 8.7 76.7 8.7 77 8.7 77.2 8.6 77.3 8.4 77.4 8.2 77.5 8 77.5 7.6L77.5 2 78.3 2 78.3 7.5C78.3 8.1 78.2 8.5 77.9 8.8 77.6 9.1 77.2 9.3 76.7 9.3 76.1 9.3 75.7 9.1 75.5 8.8 75.2 8.5 75.1 8 75.1 7.5L75.1 2 75.9 2 75.9 7.6z"/>
        <polygon points="80.9 6.2 79.7 9.3 78.9 9.3 80.4 5.6 79 2 79.8 2 80.9 4.9 82 2 82.8 2 81.4 5.5 82.9 9.2 82 9.2"/>
      </g>
      <g fill="#2A2A2A" transform="translate(0 182)">
        <path d="M2.3 2.2C2.9 2.2 3.3 2.4 3.5 2.7 3.8 3 3.9 3.5 3.9 4L3.9 4.9C3.9 5.5 3.8 5.9 3.5 6.2 3.2 6.5 2.8 6.6 2.2 6.6L1.5 6.6 1.5 9.5.7 9.5.7 2.2 2.3 2.2 2.3 2.2zM2.3 5.9C2.6 5.9 2.8 5.8 3 5.7 3.1 5.6 3.2 5.3 3.2 4.9L3.2 3.9C3.2 3.6 3.1 3.3 3 3.2 2.9 3 2.7 3 2.4 3L1.6 3 1.6 5.9 2.3 5.9 2.3 5.9zM5.3 8L5 9.5 4.3 9.5 5.7 2.2 6.9 2.2 8.3 9.5 7.5 9.5 7.2 8 5.3 8zM5.4 7.3L7 7.3 6.2 3.1 5.4 7.3z"/>
        <polygon points="9.6 6.9 8.1 2.2 8.9 2.2 10 5.8 11.1 2.2 12 2.2 10.5 6.9 10.5 9.5 9.7 9.5 9.7 6.9"/>
        <path d="M14 2.1C14.6 2.1 15 2.3 15.2 2.6 15.5 2.9 15.6 3.4 15.6 3.9L15.6 4.1 14.8 4.1 14.8 3.9C14.8 3.6 14.7 3.3 14.6 3.1 14.5 2.9 14.3 2.8 14 2.8 13.7 2.8 13.5 2.9 13.4 3.1 13.3 3.3 13.2 3.5 13.2 3.9 13.2 4.2 13.3 4.4 13.4 4.6 13.5 4.8 13.7 5 13.9 5.2 14.1 5.4 14.3 5.5 14.5 5.7 14.7 5.9 14.9 6 15.1 6.2 15.3 6.4 15.4 6.6 15.6 6.9 15.8 7.2 15.8 7.4 15.8 7.8 15.8 8.4 15.7 8.8 15.4 9.1 15.1 9.4 14.7 9.6 14.2 9.6 13.6 9.6 13.2 9.4 13 9.1 12.7 8.8 12.6 8.3 12.6 7.8L12.6 7.4 13.4 7.4 13.4 7.9C13.4 8.2 13.5 8.5 13.6 8.7 13.7 8.9 14 9 14.2 9 14.5 9 14.7 8.9 14.8 8.7 14.9 8.5 15 8.3 15 7.9 15 7.6 14.9 7.4 14.8 7.2 14.7 7 14.5 6.8 14.3 6.6 14.1 6.4 13.9 6.3 13.7 6.1 13.5 5.9 13.3 5.8 13.1 5.6 12.9 5.4 12.8 5.2 12.6 4.9 12.5 4.7 12.4 4.4 12.4 4 12.4 3.4 12.5 3 12.8 2.7 13 2.3 13.5 2.1 14 2.1zM19.6 2.2C20.2 2.2 20.6 2.3 20.8 2.6 21.1 2.9 21.2 3.3 21.2 3.8L21.2 4.4C21.2 4.8 21.1 5.1 21 5.4 20.9 5.6 20.6 5.8 20.3 5.9 20.6 6 20.9 6.2 21 6.4 21.1 6.6 21.2 7 21.2 7.4L21.2 8.5C21.2 8.7 21.2 8.8 21.2 9 21.2 9.1 21.3 9.3 21.3 9.4L20.5 9.4C20.5 9.3 20.4 9.2 20.4 9.1 20.4 9 20.4 8.8 20.4 8.6L20.4 7.5C20.4 7.1 20.3 6.8 20.1 6.7 19.9 6.5 19.7 6.5 19.3 6.5L18.7 6.5 18.7 9.6 17.9 9.6 17.9 2.3 19.6 2.3 19.6 2.2zM19.4 5.6C19.7 5.6 20 5.5 20.2 5.4 20.4 5.3 20.5 5 20.5 4.6L20.5 3.9C20.5 3.6 20.4 3.3 20.3 3.2 20.2 3.1 20 3 19.7 3L18.9 3 18.9 5.7 19.4 5.7 19.4 5.6z"/>
        <polygon points="24.6 5.4 24.6 6.1 22.8 6.1 22.8 8.7 25 8.7 25 9.4 22 9.4 22 2.1 25 2.1 25 2.8 22.8 2.8 22.8 5.3 24.6 5.3"/>
        <path d="M27.4 2.2C28 2.2 28.4 2.4 28.6 2.7 28.9 3 29 3.5 29 4L29 4.9C29 5.5 28.9 5.9 28.6 6.2 28.3 6.5 27.9 6.6 27.3 6.6L26.6 6.6 26.6 9.5 25.8 9.5 25.8 2.2 27.4 2.2 27.4 2.2zM27.3 5.9C27.6 5.9 27.8 5.8 28 5.7 28.1 5.6 28.2 5.3 28.2 4.9L28.2 3.9C28.2 3.6 28.1 3.3 28 3.2 27.9 3 27.7 3 27.4 3L26.6 3 26.6 5.9 27.3 5.9 27.3 5.9zM31.2 2.2C31.8 2.2 32.2 2.3 32.4 2.6 32.7 2.9 32.8 3.3 32.8 3.8L32.8 4.4C32.8 4.8 32.7 5.1 32.6 5.4 32.5 5.6 32.2 5.8 31.9 5.9 32.2 6 32.5 6.2 32.6 6.4 32.7 6.6 32.8 7 32.8 7.4L32.8 8.5C32.8 8.7 32.8 8.8 32.8 9 32.8 9.1 32.9 9.3 32.9 9.4L32.1 9.4C32.1 9.3 32 9.2 32 9.1 32 9 32 8.8 32 8.6L32 7.5C32 7.1 31.9 6.8 31.7 6.7 31.5 6.5 31.3 6.5 30.9 6.5L30.3 6.5 30.3 9.6 29.5 9.6 29.5 2.3 31.2 2.3 31.2 2.2zM31 5.6C31.3 5.6 31.6 5.5 31.8 5.4 32 5.3 32.1 5 32.1 4.6L32.1 3.9C32.1 3.6 32 3.3 31.9 3.2 31.8 3.1 31.6 3 31.3 3L30.5 3 30.5 5.7 31 5.7 31 5.6zM36.3 5.4L36.3 6.1 34.5 6.1 34.5 8.7 36.7 8.7 36.7 9.4 33.7 9.4 33.7 2.1 36.7 2.1 36.7 2.8 34.5 2.8 34.5 5.3 36.3 5.3 36.3 5.4zM36.2.7L35.2 1.8 34.6 1.8 35.3.7 36.2.7zM39 2.1C39.6 2.1 40 2.3 40.2 2.6 40.5 2.9 40.6 3.4 40.6 3.9L40.6 4.1 39.8 4.1 39.8 3.9C39.8 3.6 39.7 3.3 39.6 3.1 39.5 2.9 39.3 2.8 39 2.8 38.7 2.8 38.5 2.9 38.4 3.1 38.3 3.3 38.2 3.5 38.2 3.9 38.2 4.2 38.3 4.4 38.4 4.6 38.5 4.8 38.7 5 38.9 5.2 39.1 5.4 39.3 5.5 39.5 5.7 39.7 5.9 39.9 6 40.1 6.2 40.3 6.4 40.4 6.6 40.6 6.9 40.8 7.2 40.8 7.4 40.8 7.8 40.8 8.4 40.7 8.8 40.4 9.1 40.1 9.4 39.7 9.6 39.2 9.6 38.6 9.6 38.2 9.4 38 9.1 37.7 8.8 37.6 8.3 37.6 7.8L37.6 7.4 38.4 7.4 38.4 7.9C38.4 8.2 38.5 8.5 38.6 8.7 38.7 8.9 39 9 39.2 9 39.5 9 39.7 8.9 39.8 8.7 39.9 8.5 40 8.3 40 7.9 40 7.6 39.9 7.4 39.8 7.2 39.7 7 39.5 6.8 39.3 6.6 39.1 6.4 38.9 6.3 38.7 6.1 38.5 5.9 38.3 5.8 38.1 5.6 37.9 5.4 37.8 5.2 37.6 4.9 37.5 4.7 37.4 4.4 37.4 4 37.4 3.4 37.5 3 37.8 2.7 38 2.3 38.4 2.1 39 2.1z"/>
        <polygon points="43.9 5.4 43.9 6.1 42.1 6.1 42.1 8.7 44.3 8.7 44.3 9.4 41.3 9.4 41.3 2.1 44.3 2.1 44.3 2.8 42.1 2.8 42.1 5.3 43.9 5.3"/>
        <polygon points="45.8 9.5 45 9.5 45 2.2 46 2.2 47.7 7.5 47.7 2.2 48.4 2.2 48.4 9.5 47.6 9.5 45.7 3.6 45.7 9.5"/>
        <polygon points="50.4 9.5 50.4 3 49 3 49 2.3 52.5 2.3 52.5 3 51.2 3 51.2 9.5"/>
        <path d="M55.6 5.4L55.6 6.1 53.8 6.1 53.8 8.7 56 8.7 56 9.4 53 9.4 53 2.1 56 2.1 56 2.8 53.8 2.8 53.8 5.3 55.6 5.3 55.6 5.4zM55.6.7L54.6 1.8 54 1.8 54.7.7 55.6.7zM58.3 2.1C58.9 2.1 59.3 2.3 59.5 2.6 59.8 2.9 59.9 3.4 59.9 3.9L59.9 4.1 59.1 4.1 59.1 3.9C59.1 3.6 59 3.3 58.9 3.1 58.8 2.9 58.6 2.8 58.3 2.8 58 2.8 57.8 2.9 57.7 3.1 57.6 3.3 57.5 3.5 57.5 3.9 57.5 4.2 57.6 4.4 57.7 4.6 57.8 4.8 58 5 58.2 5.2 58.4 5.4 58.6 5.5 58.8 5.7 59 5.9 59.2 6 59.4 6.2 59.6 6.4 59.7 6.6 59.9 6.9 60.1 7.2 60.1 7.4 60.1 7.8 60.1 8.4 60 8.8 59.7 9.1 59.4 9.4 59 9.6 58.5 9.6 57.9 9.6 57.5 9.4 57.3 9.1 57 8.8 56.9 8.3 56.9 7.8L56.9 7.4 57.7 7.4 57.7 7.9C57.7 8.2 57.8 8.5 57.9 8.7 58 8.9 58.3 9 58.5 9 58.8 9 59 8.9 59.1 8.7 59.2 8.5 59.3 8.3 59.3 7.9 59.3 7.6 59.2 7.4 59.1 7.2 59 7 58.8 6.8 58.6 6.6 58.4 6.4 58.2 6.3 58 6.1 57.8 5.9 57.6 5.8 57.4 5.6 57.2 5.4 57.1 5.2 56.9 4.9 56.8 4.7 56.7 4.4 56.7 4 56.7 3.4 56.8 3 57.1 2.7 57.4 2.3 57.8 2.1 58.3 2.1z"/>
      </g>
      <path fill="#2A2A2A" d="M.2 4.3C.2 3 .5 2 1.1 1.4 1.7.8 2.6.4 3.8.4 5 .4 5.8.7 6.4 1.4 7 2.1 7.3 3 7.3 4.2L7.3 4.6 5.1 4.6 5.1 4C5.1 3.5 5 3.1 4.8 2.8 4.6 2.6 4.3 2.5 3.9 2.5 3.5 2.5 3.2 2.6 2.9 2.9 2.7 3.2 2.6 3.6 2.6 4.4L2.6 7.2C3 6.3 3.8 5.9 4.8 5.9 5.7 5.9 6.3 6.2 6.8 6.8 7.2 7.4 7.5 8.2 7.5 9.4L7.5 12.2C7.5 13.4 7.2 14.4 6.6 15 6 15.7 5.1 16 3.9 16 2.7 16 1.8 15.7 1.2 15 .6 14.3.3 13.4.3 12.2L.3 4.3.2 4.3zM3.8 8C3.4 8 3.1 8.1 2.9 8.3 2.7 8.5 2.6 8.9 2.6 9.5L2.6 12.2C2.6 12.7 2.7 13.1 2.9 13.3 3.1 13.5 3.4 13.6 3.8 13.6 4.2 13.6 4.5 13.5 4.7 13.3 4.9 13.1 5 12.7 5 12.2L5 9.5C5 9 4.9 8.6 4.7 8.3 4.4 8.1 4.1 8 3.8 8zM13.4 4.2C13.4 3.5 13.3 3.1 13.1 2.8 12.9 2.6 12.6 2.4 12.2 2.4 11.8 2.4 11.5 2.5 11.3 2.7 11.1 2.9 11 3.3 11 3.9L11 4.9 8.8 4.9 8.8 4.1C8.8 2.9 9.1 1.9 9.7 1.3 10.3.6 11.2.3 12.3.3 13.4.3 14.3.6 14.9 1.3 15.5 2 15.8 2.9 15.8 4.1L15.8 4.5C15.8 6.1 15.2 7.2 14.1 7.6 14.7 7.9 15.1 8.3 15.4 8.8 15.7 9.3 15.8 10 15.8 10.8L15.8 12C15.8 13.2 15.5 14.2 14.9 14.8 14.3 15.5 13.4 15.8 12.3 15.8 11.2 15.8 10.3 15.5 9.7 14.8 9.1 14.1 8.8 13.2 8.8 12L8.8 10.7 11 10.7 11 12.1C11 12.6 11.1 13 11.3 13.3 11.5 13.5 11.8 13.6 12.2 13.6 12.6 13.6 12.9 13.5 13.1 13.3 13.3 13.1 13.4 12.6 13.4 11.9L13.4 10.7C13.4 10 13.3 9.5 13 9.2 12.8 8.9 12.4 8.8 11.8 8.8L11 8.8 11 6.6 11.9 6.6C12.3 6.6 12.7 6.5 12.9 6.3 13.1 6.1 13.3 5.7 13.3 5L13.3 4.2 13.4 4.2zM22 4.2C22 3.5 21.9 3.1 21.7 2.8 21.5 2.6 21.2 2.4 20.8 2.4 20.4 2.4 20.1 2.5 19.9 2.7 19.7 2.9 19.6 3.3 19.6 3.9L19.6 4.9 17.4 4.9 17.4 4.1C17.4 2.9 17.7 1.9 18.3 1.3 18.9.6 19.8.3 20.9.3 22 .3 22.9.6 23.5 1.3 24.1 2 24.4 2.9 24.4 4.1L24.4 4.5C24.4 6.1 23.8 7.2 22.7 7.6 23.3 7.9 23.7 8.3 24 8.8 24.3 9.3 24.4 10 24.4 10.8L24.4 12C24.4 13.2 24.1 14.2 23.5 14.8 22.9 15.5 22 15.8 20.9 15.8 19.8 15.8 18.9 15.5 18.3 14.8 17.7 14.1 17.4 13.2 17.4 12L17.4 10.7 19.6 10.7 19.6 12.1C19.6 12.6 19.7 13 19.9 13.3 20.1 13.5 20.4 13.6 20.8 13.6 21.2 13.6 21.5 13.5 21.7 13.3 21.9 13.1 22 12.6 22 11.9L22 10.7C22 10 21.9 9.5 21.6 9.2 21.4 8.9 21 8.8 20.4 8.8L19.6 8.8 19.6 6.6 20.5 6.6C20.9 6.6 21.3 6.5 21.5 6.3 21.7 6.1 21.9 5.7 21.9 5L21.9 4.2 22 4.2zM34 4.2C34 3.5 33.9 3.1 33.7 2.8 33.5 2.6 33.2 2.4 32.8 2.4 32.4 2.4 32.1 2.5 31.9 2.7 31.7 2.9 31.6 3.3 31.6 3.9L31.6 5.5 29.4 5.5 29.4 4C29.4 2.8 29.7 1.8 30.3 1.2 30.9.6 31.8.2 32.9.2 34.1.2 34.9.5 35.5 1.2 36.1 1.9 36.4 2.8 36.4 4 36.4 4.8 36.3 5.5 36.1 6.1 35.9 6.7 35.6 7.3 35.2 7.8 34.8 8.3 34.5 8.8 34.1 9.3 33.7 9.7 33.3 10.2 33 10.6 32.6 11 32.4 11.4 32.1 11.8 31.8 12.2 31.8 12.6 31.8 13 31.8 13.1 31.8 13.3 31.8 13.3L36.3 13.3 36.3 15.5 29.4 15.5 29.4 13.6C29.4 12.9 29.5 12.2 29.7 11.7 29.9 11.2 30.2 10.6 30.6 10.2 31 9.7 31.3 9.3 31.7 8.9 32.1 8.5 32.5 8.1 32.8 7.6 33.2 7.1 33.4 6.6 33.7 6.1 33.9 5.6 34 5 34 4.2zM39.3 2.4C39.8 2.4 40.1 2.3 40.4 2.2 40.7 2.1 40.9 2 41.1 1.8 41.3 1.6 41.4 1.4 41.6 1.2 41.7 1 41.8.7 41.9.5L43.5.5 43.5 15.6 41.1 15.6 41.1 4.1 39.3 4.1 39.3 2.4 39.3 2.4zM51 4.2C51 3.5 50.9 3.1 50.7 2.8 50.5 2.6 50.2 2.4 49.8 2.4 49.4 2.4 49.1 2.5 48.9 2.7 48.7 2.9 48.6 3.3 48.6 3.9L48.6 4.9 46.4 4.9 46.4 4.1C46.4 2.9 46.7 1.9 47.3 1.3 47.9.6 48.8.3 49.9.3 51.1.3 51.9.6 52.5 1.3 53.1 2 53.4 2.9 53.4 4.1L53.4 4.5C53.4 6.1 52.8 7.2 51.7 7.6 52.3 7.9 52.7 8.3 53 8.8 53.3 9.3 53.4 10 53.4 10.8L53.4 12C53.4 13.2 53.1 14.2 52.5 14.8 51.9 15.5 51 15.8 49.9 15.8 48.7 15.8 47.9 15.5 47.3 14.8 46.7 14.1 46.4 13.2 46.4 12L46.4 10.7 48.6 10.7 48.6 12.1C48.6 12.6 48.7 13 48.9 13.3 49.1 13.5 49.4 13.6 49.8 13.6 50.2 13.6 50.5 13.5 50.7 13.3 50.9 13.1 51 12.6 51 11.9L51 10.7C51 10 50.9 9.5 50.6 9.2 50.4 8.9 50 8.8 49.4 8.8L48.6 8.8 48.6 6.6 49.5 6.6C49.9 6.6 50.3 6.5 50.5 6.3 50.7 6.1 50.9 5.7 50.9 5L50.9 4.2 51 4.2z" transform="translate(119 93)"/>
      <g fill="#2A2A2A" transform="translate(113 115)">
        <polygon points="4.2 12.9 6 .6 8.2 .6 5.9 15.7 2.4 15.7 .1 .6 2.5 .6"/>
        <polygon points="9.3 .5 11.7 .5 11.7 15.6 9.3 15.6"/>
        <path d="M13.1,4.2 C13.1,3 13.4,2 14,1.4 C14.6,0.7 15.5,0.4 16.6,0.4 C17.8,0.4 18.6,0.7 19.2,1.4 C19.8,2.1 20.1,3 20.1,4.2 L20.1,4.7 L17.9,4.7 L17.9,4 C17.9,3.5 17.8,3.1 17.6,2.8 C17.4,2.6 17.1,2.5 16.7,2.5 C16.3,2.5 16,2.6 15.8,2.8 C15.6,3 15.5,3.4 15.5,4 C15.5,4.5 15.6,5 15.8,5.4 C16,5.8 16.3,6.2 16.7,6.5 C17,6.9 17.4,7.2 17.8,7.6 C18.2,8 18.6,8.3 18.9,8.8 C19.2,9.2 19.5,9.7 19.8,10.2 C20,10.7 20.1,11.4 20.1,12.1 C20.1,13.3 19.8,14.3 19.2,14.9 C18.6,15.5 17.7,15.9 16.6,15.9 C15.5,15.9 14.6,15.6 14,14.9 C13.4,14.2 13.1,13.3 13.1,12.1 L13.1,11.2 L15.3,11.2 L15.3,12.3 C15.3,12.8 15.4,13.2 15.6,13.4 C15.8,13.6 16.1,13.7 16.5,13.7 C16.9,13.7 17.2,13.6 17.4,13.4 C17.6,13.2 17.7,12.8 17.7,12.3 C17.7,11.8 17.6,11.3 17.4,10.9 C17.2,10.5 16.9,10.1 16.5,9.8 C16.2,9.4 15.8,9.1 15.4,8.7 C15,8.3 14.6,8 14.3,7.5 C14,7.1 13.7,6.6 13.4,6.1 C13.3,5.5 13.1,4.9 13.1,4.2 Z"/>
        <polygon points="21.5 .5 23.9 .5 23.9 15.6 21.5 15.6"/>
        <polygon points="24.9 .5 32.2 .5 32.2 2.7 29.7 2.7 29.7 15.7 27.3 15.7 27.3 2.7 24.8 2.7 24.8 .5"/>
        <polygon points="35.7 6.9 39 6.9 39 9.1 35.7 9.1 35.7 13.5 39.8 13.5 39.8 15.7 33.3 15.7 33.3 .6 39.8 .6 39.8 2.8 35.7 2.8"/>
        <path d="M43.5.5L43.5 12.2C43.5 12.7 43.6 13.1 43.8 13.3 44 13.5 44.3 13.6 44.7 13.6 45.1 13.6 45.4 13.5 45.6 13.3 45.8 13.1 45.9 12.7 45.9 12.2L45.9.5 48.1.5 48.1 12C48.1 13.2 47.8 14.2 47.2 14.8 46.6 15.4 45.7 15.8 44.6 15.8 43.4 15.8 42.6 15.5 42 14.8 41.4 14.1 41.1 13.2 41.1 12L41.1.5 43.5.5zM54.8 15.7C54.8 15.6 54.7 15.5 54.7 15.4 54.7 15.3 54.6 15.2 54.6 15.1 54.6 15 54.6 14.8 54.6 14.6 54.6 14.4 54.6 14.1 54.6 13.8L54.6 11.4C54.6 10.7 54.5 10.2 54.2 9.9 53.9 9.6 53.6 9.5 53 9.5L52.2 9.5 52.2 15.7 49.8 15.7 49.8.6 53.4.6C54.6.6 55.5.9 56.1 1.5 56.7 2.1 56.9 2.9 56.9 4.1L56.9 5.3C56.9 6.9 56.4 7.9 55.3 8.4 55.9 8.6 56.3 9 56.5 9.6 56.7 10.2 56.8 10.8 56.8 11.6L56.8 13.9C56.8 14.3 56.8 14.6 56.8 14.9 56.8 15.2 56.9 15.5 57 15.8L54.8 15.8 54.8 15.7zM52.2 2.7L52.2 7.3 53.1 7.3C53.5 7.3 53.9 7.2 54.1 7 54.3 6.8 54.5 6.4 54.5 5.7L54.5 4.2C54.5 3.7 54.4 3.3 54.2 3 54 2.8 53.7 2.6 53.3 2.6L52.2 2.6 52.2 2.7zM58.2 4.2C58.2 3 58.5 2 59.1 1.4 59.7.7 60.6.4 61.7.4 62.8.4 63.7.7 64.3 1.4 64.9 2.1 65.2 3 65.2 4.2L65.2 4.7 63 4.7 63 4C63 3.5 62.9 3.1 62.7 2.8 62.5 2.6 62.2 2.5 61.8 2.5 61.4 2.5 61.1 2.6 60.9 2.8 60.7 3 60.6 3.4 60.6 4 60.6 4.5 60.7 5 60.9 5.4 61.1 5.8 61.4 6.2 61.8 6.5 62.1 6.9 62.5 7.2 62.9 7.6 63.3 8 63.7 8.3 64 8.8 64.3 9.2 64.6 9.7 64.9 10.2 65.1 10.7 65.2 11.4 65.2 12.1 65.2 13.3 64.9 14.3 64.3 14.9 63.7 15.5 62.8 15.9 61.7 15.9 60.5 15.9 59.7 15.6 59.1 14.9 58.5 14.2 58.2 13.3 58.2 12.1L58.2 11.2 60.4 11.2 60.4 12.3C60.4 12.8 60.5 13.2 60.7 13.4 60.9 13.6 61.2 13.7 61.6 13.7 62 13.7 62.3 13.6 62.5 13.4 62.7 13.2 62.8 12.8 62.8 12.3 62.8 11.8 62.7 11.3 62.5 10.9 62.3 10.5 62 10.1 61.6 9.8 61.3 9.4 60.9 9.1 60.5 8.7 60.1 8.3 59.7 8 59.4 7.5 59.1 7.1 58.8 6.6 58.5 6.1 58.4 5.5 58.2 4.9 58.2 4.2z"/>
      </g>
    </g>
  </g>
</svg>
