<?xml version="1.0" encoding="utf-8"?>
<!-- Generator: Adobe Illustrator 24.1.2, SVG Export Plug-In . SVG Version: 6.00 Build 0)  -->
<svg version="1.1" id="Calque_1" xmlns="http://www.w3.org/2000/svg" xmlns:xlink="http://www.w3.org/1999/xlink" x="0px" y="0px"
	 viewBox="0 0 289 274" style="enable-background:new 0 0 289 274;" xml:space="preserve">
<style type="text/css">
	.st0{opacity:0.58;}
	.st1{fill-rule:evenodd;clip-rule:evenodd;}
	.st2{filter:url(#graph-exposant-a);}
	.st3{fill-rule:evenodd;clip-rule:evenodd;fill:#FFFFFF;}
	.st4{fill:none;stroke:#F6A924;stroke-width:8.019;}
	.st5{fill:none;stroke:#E30059;stroke-width:8.019;}
	.st6{fill:none;stroke:#009CD8;stroke-width:8.019;}
	.st7{fill:none;stroke:#83B81A;stroke-width:8.019;}
	.st8{fill:#293A4D;}
	.st9{fill:#E30059;}
	.st10{fill:#F6A924;}
	.st11{fill:#009CD8;}
	.st12{fill:#83B81A;}
	.st13{fill:#6F808C;}
	.st14{font-family:'Akrobat-SemiBold';}
	.st15{font-size:5px;}
</style>
<filter  filterUnits="objectBoundingBox" height="124.5%" id="graph-exposant-a" width="124.5%" x="-12.3%" y="-11.6%">
	<feOffset  dy="2" in="SourceAlpha" result="shadowOffsetOuter1"></feOffset>
	<feGaussianBlur  in="shadowOffsetOuter1" result="shadowBlurOuter1" stdDeviation="12"></feGaussianBlur>
	<feColorMatrix  in="shadowBlurOuter1" values="0 0 0 0 0   0 0 0 0 0   0 0 0 0 0  0 0 0 0.15271173 0"></feColorMatrix>
</filter>
<g>
	<g>
		<g transform="translate(29 8)">
			<g class="st0">
				<circle id="graph-exposant-mobile-en-b" class="st1" cx="116" cy="125" r="67"/>
			</g>
			<g class="st2">
				<circle id="graph-exposant-b_1_" class="st1" cx="114.2" cy="114.7" r="61.4"/>
			</g>
			<circle class="st3" cx="115" cy="119" r="78"/>
			<g>
				<path class="st4" d="M162.8,40.9c28.3,17,44.1,47.1,44.4,78.3"/>
				<path class="st5" d="M70.3,39.2c28.9-16,62.9-14.9,89.9,0.3"/>
				<path class="st6" d="M22.9,117.8c0.9-32.7,18.8-61.3,45-77.2"/>
				<path class="st4" d="M67.2,198.7c-28.3-17-44.1-47.1-44.4-78.3"/>
				<path class="st7" d="M159.7,200.8c-28.9,16-62.9,14.9-89.9-0.3"/>
				<path class="st6" d="M207.1,121.3c-0.9,32.7-18.8,61.3-45,77.2"/>
			</g>
		</g>
	</g>
	<g transform="translate(120 141)">
		<polygon class="st8" points="3.4,8.6 2.1,8.6 0.9,0.2 1.8,0.2 2.8,7.4 3.7,0.2 4.6,0.2 5.5,7.4 6.5,0.2 7.3,0.2 6.2,8.6 5,8.6 
			4.2,2.9 		"/>
		<polygon class="st8" points="9.2,0.1 9.2,8.5 8.3,8.5 8.3,0.1 		"/>
		<polygon class="st8" points="11.3,8.6 11.3,1 9.7,1 9.7,0.1 13.7,0.1 13.7,1 12.1,1 12.1,8.6 		"/>
		<polygon class="st8" points="15.4,4.8 15.4,8.6 14.5,8.6 14.5,0.2 15.4,0.2 15.4,4 17.5,4 17.5,0.2 18.4,0.2 18.4,8.6 17.5,8.6 
			17.5,4.8 		"/>
	</g>
	<g transform="translate(103 155)">
		<path class="st8" d="M2.8,0.7c0.7,0,1.1,0.2,1.4,0.5c0.3,0.4,0.4,0.9,0.4,1.5v1c0,0.7-0.2,1.2-0.5,1.5C3.8,5.5,3.3,5.7,2.6,5.7
			H1.8V9H0.9V0.6L2.8,0.7L2.8,0.7z M2.7,4.9c0.4,0,0.6-0.1,0.8-0.3c0.2-0.2,0.3-0.5,0.3-0.9V2.6c0-0.4-0.1-0.7-0.2-0.9
			C3.5,1.5,3.2,1.4,2.9,1.4H2v3.4L2.7,4.9L2.7,4.9z M7.3,0.7c0.7,0,1.1,0.2,1.4,0.5S9.1,2,9.1,2.6v0.7c0,0.5-0.1,0.8-0.3,1.1
			C8.6,4.7,8.4,4.9,8,5c0.4,0.1,0.7,0.3,0.8,0.6C8.9,5.9,9,6.3,9,6.7V8c0,0.2,0,0.4,0,0.5C9,8.7,9.1,8.8,9.1,9h-1C8,8.9,8,8.8,8,8.6
			C8,8.5,8,8.2,8,8V6.7c0-0.5-0.1-0.8-0.3-1C7.5,5.5,7.2,5.4,6.8,5.4H6.1V9H5.2V0.6L7.3,0.7L7.3,0.7z M7.1,4.6
			c0.4,0,0.7-0.1,0.9-0.2c0.2-0.2,0.3-0.5,0.3-0.9V2.7c0-0.4-0.1-0.7-0.2-0.9C8,1.6,7.7,1.5,7.3,1.5H6.4v3.1H7.1L7.1,4.6z M10.1,2.7
			c0-0.7,0.2-1.2,0.5-1.5c0.3-0.3,0.8-0.6,1.5-0.6c0.7,0,1.1,0.2,1.5,0.6c0.4,0.4,0.5,0.9,0.5,1.5v4.4c0,0.6-0.2,1.2-0.5,1.5
			c-0.3,0.4-0.8,0.6-1.5,0.6c-0.7,0-1.1-0.2-1.5-0.6c-0.3-0.4-0.5-0.9-0.5-1.5V2.7z M11,7.1c0,0.4,0.1,0.7,0.2,0.9
			c0.1,0.2,0.4,0.3,0.8,0.3c0.3,0,0.6-0.1,0.8-0.3S13,7.5,13,7.1V2.6c0-0.4-0.1-0.7-0.2-0.9c-0.1-0.2-0.4-0.3-0.8-0.3
			c-0.3,0-0.6,0.1-0.8,0.3S11,2.2,11,2.6V7.1z"/>
		<polygon class="st8" points="17.7,4.6 17.7,5.5 15.8,5.5 15.8,9.2 14.9,9.2 14.9,0.8 18.2,0.8 18.2,1.7 15.8,1.7 15.8,4.8 
			17.7,4.8 		"/>
		<polygon class="st8" points="21.9,4.4 21.9,5.2 19.8,5.2 19.8,8.2 22.3,8.2 22.3,9.1 18.8,9.1 18.8,0.7 22.3,0.7 22.3,1.6 
			19.8,1.6 19.8,4.5 21.9,4.5 		"/>
		<path class="st8" d="M25,0.6c0.6,0,1.1,0.2,1.4,0.6c0.3,0.4,0.5,0.9,0.5,1.5v0.2H26V2.6c0-0.4-0.1-0.7-0.2-0.9
			c-0.2-0.2-0.4-0.3-0.7-0.3c-0.3,0-0.6,0.1-0.7,0.3c-0.2,0.2-0.2,0.5-0.2,0.9c0,0.3,0.1,0.6,0.2,0.8c0.1,0.2,0.3,0.4,0.5,0.6
			c0.2,0.2,0.4,0.4,0.7,0.6c0.2,0.2,0.5,0.4,0.7,0.6c0.2,0.2,0.4,0.5,0.5,0.8C26.9,6.3,27,6.6,27,7c0,0.6-0.2,1.2-0.5,1.5
			c-0.3,0.4-0.8,0.6-1.4,0.6c-0.7,0-1.1-0.2-1.4-0.6c-0.3-0.4-0.5-0.9-0.5-1.5V6.5h0.9V7c0,0.4,0.1,0.7,0.2,0.9
			c0.1,0.2,0.4,0.3,0.7,0.3s0.6-0.1,0.7-0.3c0.1-0.2,0.2-0.5,0.2-0.9c0-0.3-0.1-0.6-0.2-0.8c-0.1-0.2-0.3-0.4-0.5-0.6
			C25,5.4,24.8,5.2,24.5,5c-0.2-0.2-0.5-0.4-0.7-0.6c-0.2-0.2-0.4-0.5-0.5-0.8c-0.1-0.3-0.2-0.6-0.2-1c0-0.7,0.2-1.2,0.5-1.5
			C23.9,0.8,24.4,0.6,25,0.6z M29.5,0.6c0.6,0,1.1,0.2,1.4,0.6c0.3,0.4,0.5,0.9,0.5,1.5v0.2h-0.9V2.6c0-0.4-0.1-0.7-0.2-0.9
			c-0.2-0.2-0.4-0.3-0.7-0.3c-0.3,0-0.6,0.1-0.7,0.3c-0.2,0.2-0.2,0.5-0.2,0.9c0,0.3,0.1,0.6,0.2,0.8C29,3.6,29.2,3.8,29.4,4
			c0.2,0.2,0.4,0.4,0.7,0.6c0.2,0.2,0.5,0.4,0.7,0.6C31,5.4,31.2,5.7,31.3,6c0.1,0.3,0.2,0.6,0.2,1c0,0.6-0.2,1.2-0.5,1.5
			c-0.3,0.4-0.8,0.6-1.4,0.6c-0.7,0-1.1-0.2-1.4-0.6c-0.3-0.4-0.5-0.9-0.5-1.5V6.5h0.9V7c0,0.4,0.1,0.7,0.2,0.9
			c0.1,0.2,0.4,0.3,0.7,0.3s0.6-0.1,0.7-0.3c0.1-0.2,0.2-0.5,0.2-0.9c0-0.3-0.1-0.6-0.2-0.8c-0.1-0.2-0.3-0.4-0.5-0.6
			C29.5,5.4,29.3,5.2,29,5c-0.2-0.2-0.5-0.4-0.7-0.6c-0.2-0.2-0.4-0.5-0.5-0.8c-0.1-0.3-0.2-0.6-0.2-1c0-0.7,0.2-1.2,0.5-1.5
			C28.4,0.8,28.9,0.6,29.5,0.6z"/>
		<polygon class="st8" points="33.2,0.7 33.2,9.1 32.3,9.1 32.3,0.7 		"/>
		<path class="st8" d="M34.1,2.7c0-0.7,0.2-1.2,0.5-1.5c0.3-0.3,0.8-0.6,1.5-0.6c0.7,0,1.1,0.2,1.5,0.6c0.4,0.4,0.5,0.9,0.5,1.5v4.4
			c0,0.6-0.2,1.2-0.5,1.5c-0.3,0.4-0.8,0.6-1.5,0.6c-0.7,0-1.1-0.2-1.5-0.6c-0.3-0.4-0.5-0.9-0.5-1.5V2.7z M35,7.1
			c0,0.4,0.1,0.7,0.2,0.9c0.1,0.2,0.4,0.3,0.8,0.3c0.3,0,0.6-0.1,0.8-0.3S37,7.5,37,7.1V2.6c0-0.4-0.1-0.7-0.2-0.9
			c-0.1-0.2-0.4-0.3-0.8-0.3c-0.3,0-0.6,0.1-0.8,0.3S35,2.2,35,2.6V7.1z"/>
		<polygon class="st8" points="39.7,9.1 38.9,9.1 38.9,0.7 40.1,0.7 42.1,6.8 42.1,0.7 42.9,0.7 42.9,9.1 41.9,9.1 39.7,2.3 		"/>
		<path class="st8" d="M44.7,7.4l-0.3,1.7h-0.9l1.6-8.4h1.4l1.6,8.4h-0.9l-0.3-1.7H44.7z M44.8,6.6h1.9l-1-4.9L44.8,6.6z"/>
		<polygon class="st8" points="48.8,9.1 48.8,0.7 49.7,0.7 49.7,8.3 52.1,8.3 52.1,9.2 48.8,9.2 		"/>
		<polygon class="st8" points="55.5,0.7 56.9,8 58.3,0.7 59.2,0.7 57.6,9.1 56.2,9.1 54.6,0.7 		"/>
		<polygon class="st8" points="60.7,0.7 60.7,9.1 59.8,9.1 59.8,0.7 		"/>
		<path class="st8" d="M63.5,0.6c0.6,0,1.1,0.2,1.4,0.6c0.3,0.4,0.5,0.9,0.5,1.5v0.2h-0.9V2.6c0-0.4-0.1-0.7-0.2-0.9
			c-0.1-0.2-0.4-0.3-0.7-0.3c-0.3,0-0.6,0.1-0.7,0.3c-0.1,0.2-0.2,0.5-0.2,0.9c0,0.3,0.1,0.6,0.2,0.8C63,3.6,63.2,3.8,63.4,4
			c0.2,0.2,0.4,0.4,0.7,0.6c0.2,0.2,0.5,0.4,0.7,0.6C65,5.4,65.2,5.7,65.3,6c0.1,0.3,0.2,0.6,0.2,1c0,0.6-0.2,1.2-0.5,1.5
			c-0.3,0.4-0.8,0.6-1.4,0.6c-0.7,0-1.1-0.2-1.4-0.6S61.7,7.6,61.7,7V6.5h0.9V7c0,0.4,0.1,0.7,0.2,0.9c0.2,0.2,0.4,0.3,0.7,0.3
			s0.6-0.1,0.7-0.3c0.2-0.2,0.2-0.5,0.2-0.9c0-0.3-0.1-0.6-0.2-0.8c-0.1-0.2-0.3-0.4-0.5-0.6C63.5,5.4,63.3,5.2,63,5
			c-0.2-0.2-0.5-0.4-0.7-0.6c-0.2-0.2-0.4-0.5-0.5-0.8c-0.1-0.3-0.2-0.6-0.2-1c0-0.7,0.2-1.2,0.5-1.5C62.4,0.8,62.8,0.6,63.5,0.6z"
			/>
		<polygon class="st8" points="67.1,0.7 67.1,9.1 66.2,9.1 66.2,0.7 		"/>
		<polygon class="st8" points="69.3,9.1 69.3,1.5 67.7,1.5 67.7,0.6 71.7,0.6 71.7,1.5 70.1,1.5 70.1,9.1 		"/>
		<path class="st8" d="M72.4,2.7c0-0.7,0.2-1.2,0.5-1.5c0.3-0.3,0.8-0.6,1.5-0.6c0.7,0,1.1,0.2,1.5,0.6s0.5,0.9,0.5,1.5v4.4
			c0,0.6-0.2,1.2-0.5,1.5c-0.3,0.4-0.8,0.6-1.5,0.6c-0.7,0-1.1-0.2-1.5-0.6c-0.3-0.4-0.5-0.9-0.5-1.5V2.7z M73.3,7.1
			c0,0.4,0.1,0.7,0.2,0.9c0.2,0.2,0.4,0.3,0.8,0.3c0.3,0,0.6-0.1,0.8-0.3c0.2-0.2,0.2-0.5,0.2-0.9V2.6c0-0.4-0.1-0.7-0.2-0.9
			c-0.2-0.2-0.4-0.3-0.8-0.3c-0.3,0-0.6,0.1-0.8,0.3s-0.2,0.5-0.2,0.9V7.1z M79,0.7c0.7,0,1.1,0.2,1.4,0.5c0.3,0.3,0.4,0.8,0.4,1.4
			v0.7c0,0.5-0.1,0.8-0.3,1.1c-0.2,0.3-0.4,0.5-0.8,0.6c0.4,0.1,0.7,0.3,0.8,0.6c0.2,0.3,0.2,0.7,0.2,1.1V8c0,0.2,0,0.4,0,0.5
			c0,0.2,0.1,0.3,0.1,0.5h-1c-0.1-0.1-0.1-0.2-0.1-0.4c0-0.1,0-0.4,0-0.6V6.7c0-0.5-0.1-0.8-0.3-1c-0.2-0.2-0.5-0.3-0.9-0.3H78V9
			h-0.9V0.6L79,0.7L79,0.7z M78.7,4.6c0.4,0,0.7-0.1,0.9-0.2c0.2-0.2,0.3-0.5,0.3-0.9V2.7c0-0.4-0.1-0.7-0.2-0.9
			c-0.1-0.2-0.4-0.3-0.8-0.3H78v3.1H78.7L78.7,4.6z M83.6,0.6c0.6,0,1.1,0.2,1.4,0.6s0.5,0.9,0.5,1.5v0.2h-0.9V2.6
			c0-0.4-0.1-0.7-0.2-0.9S84,1.4,83.7,1.4c-0.3,0-0.6,0.1-0.7,0.3s-0.2,0.5-0.2,0.9c0,0.3,0.1,0.6,0.2,0.8c0.1,0.2,0.3,0.4,0.5,0.6
			c0.2,0.2,0.4,0.4,0.7,0.6c0.2,0.2,0.5,0.4,0.7,0.6c0.2,0.2,0.4,0.5,0.5,0.8s0.2,0.6,0.2,1c0,0.6-0.2,1.2-0.5,1.5
			c-0.3,0.4-0.8,0.6-1.4,0.6c-0.7,0-1.1-0.2-1.4-0.6C82,8.1,81.8,7.6,81.8,7V6.5h0.9V7c0,0.4,0.1,0.7,0.2,0.9
			c0.2,0.2,0.4,0.3,0.7,0.3c0.3,0,0.6-0.1,0.7-0.3c0.2-0.2,0.2-0.5,0.2-0.9c0-0.3-0.1-0.6-0.2-0.8C84.2,6,84,5.8,83.8,5.6
			c-0.2-0.2-0.4-0.4-0.7-0.6c-0.2-0.2-0.5-0.4-0.7-0.6c-0.2-0.2-0.4-0.5-0.5-0.8s-0.2-0.6-0.2-1c0-0.7,0.2-1.2,0.5-1.5
			C82.5,0.8,83,0.6,83.6,0.6z"/>
	</g>
	<g transform="translate(134)">
		<polygon class="st9" points="16.5,0.2 16.5,2.3 13,15.3 10.6,15.3 14.1,2.3 9.4,2.3 9.4,0.1 16.5,0.1 		"/>
	</g>
	<g transform="translate(239 58)">
		<path class="st10" d="M0.3,2.7c0.5,0,0.8-0.1,1.1-0.2s0.5-0.2,0.7-0.4s0.3-0.4,0.5-0.6C2.7,1.3,2.8,1,2.9,0.8h1.6v15.1H2.1V4.4
			H0.3V2.7L0.3,2.7z M10.6,4.4c0-1.2,0.3-2.2,0.9-2.8s1.5-1,2.7-1s2.1,0.3,2.7,1s0.9,1.6,0.9,2.8v7.9c0,1.2-0.3,2.2-0.9,2.8
			c-0.6,0.6-1.5,1-2.7,1s-2.1-0.3-2.7-1c-0.6-0.7-0.9-1.6-0.9-2.8V4.4z M12.9,12.5c0,0.5,0.1,0.9,0.3,1.2c0.2,0.2,0.5,0.3,0.9,0.3
			c0.4,0,0.7-0.1,0.9-0.3s0.3-0.6,0.3-1.2V4.3c0-0.5-0.1-0.9-0.3-1.2c-0.2-0.2-0.5-0.3-0.9-0.3c-0.4,0-0.7,0.1-0.9,0.3
			c-0.2,0.2-0.3,0.6-0.3,1.2V12.5z M19.1,4.4c0-1.2,0.3-2.2,0.9-2.8s1.5-1,2.7-1c1.2,0,2.1,0.3,2.7,1s0.9,1.6,0.9,2.8v7.9
			c0,1.2-0.3,2.2-0.9,2.8c-0.6,0.6-1.5,1-2.7,1c-1.2,0-2.1-0.3-2.7-1c-0.6-0.7-0.9-1.6-0.9-2.8V4.4z M21.5,12.5
			c0,0.5,0.1,0.9,0.3,1.2c0.2,0.2,0.5,0.3,0.9,0.3c0.4,0,0.7-0.1,0.9-0.3c0.2-0.2,0.3-0.6,0.3-1.2V4.3c0-0.5-0.1-0.9-0.3-1.2
			c-0.2-0.2-0.5-0.3-0.9-0.3c-0.4,0-0.7,0.1-0.9,0.3c-0.2,0.2-0.3,0.6-0.3,1.2V12.5z M27.7,4.4c0-1.2,0.3-2.2,0.9-2.8s1.5-1,2.7-1
			c1.2,0,2.1,0.3,2.7,1s0.9,1.6,0.9,2.8v7.9c0,1.2-0.3,2.2-0.9,2.8c-0.6,0.6-1.5,1-2.7,1c-1.2,0-2.1-0.3-2.7-1
			c-0.6-0.7-0.9-1.6-0.9-2.8V4.4z M30,12.5c0,0.5,0.1,0.9,0.3,1.2c0.2,0.2,0.5,0.3,0.9,0.3c0.4,0,0.7-0.1,0.9-0.3
			c0.2-0.2,0.3-0.6,0.3-1.2V4.3c0-0.5-0.1-0.9-0.3-1.2c-0.2-0.2-0.5-0.3-0.9-0.3c-0.4,0-0.7,0.1-0.9,0.3C30.1,3.3,30,3.7,30,4.3
			V12.5z"/>
		<polygon class="st10" points="44,7.5 46.9,7.5 46.9,9.2 44,9.2 44,12.2 42.3,12.2 42.3,9.2 39.4,9.2 39.4,7.5 42.3,7.5 42.3,4.6 
			44,4.6 		"/>
	</g>
	<path class="st11" d="M16.3,55.9c0-1.3,0.3-2.3,0.9-2.9c0.6-0.6,1.5-1,2.7-1c1.2,0,2,0.3,2.6,1s0.9,1.6,0.9,2.8v0.4h-2.2v-0.5
		c0-0.5-0.1-0.9-0.3-1.2c-0.2-0.2-0.5-0.3-0.9-0.3s-0.7,0.1-1,0.4c-0.2,0.3-0.3,0.7-0.3,1.5v2.8c0.4-0.9,1.2-1.3,2.2-1.3
		c0.9,0,1.5,0.3,2,0.9c0.4,0.6,0.7,1.4,0.7,2.6v2.8c0,1.2-0.3,2.2-0.9,2.8c-0.6,0.7-1.5,1-2.7,1s-2.1-0.3-2.7-1
		c-0.6-0.7-0.9-1.6-0.9-2.8v-8H16.3z M19.9,59.6c-0.4,0-0.7,0.1-0.9,0.3c-0.2,0.2-0.3,0.6-0.3,1.2v2.7c0,0.5,0.1,0.9,0.3,1.1
		c0.2,0.2,0.5,0.3,0.9,0.3s0.7-0.1,0.9-0.3c0.2-0.2,0.3-0.6,0.3-1.1v-2.7c0-0.5-0.1-0.9-0.3-1.2C20.6,59.7,20.3,59.6,19.9,59.6z"/>
	<g transform="translate(19 161)">
		<path class="st10" d="M4.7,4.5c0-0.7-0.1-1.1-0.3-1.4C4.2,2.9,3.9,2.7,3.5,2.7S2.8,2.8,2.6,3C2.4,3.2,2.3,3.6,2.3,4.2v1.6H0.1V4.3
			c0-1.2,0.3-2.2,0.9-2.8c0.6-0.7,1.5-1,2.6-1s2,0.3,2.6,1s0.9,1.6,0.9,2.8c0,0.8-0.1,1.5-0.3,2.2C6.6,7.2,6.3,7.7,5.9,8.2
			s-0.7,1-1.1,1.5C4.4,10.1,4,10.6,3.7,11c-0.4,0.4-0.6,0.8-0.9,1.2c-0.2,0.4-0.3,0.8-0.3,1.2c0,0.1,0,0.3,0,0.3H7v2.2H0.1V14
			c0-0.7,0.1-1.4,0.3-1.9c0.2-0.6,0.5-1.1,0.9-1.5C1.7,10.1,2,9.7,2.4,9.3C2.8,8.9,3.2,8.5,3.5,8c0.4-0.5,0.6-1,0.9-1.5
			C4.7,6,4.7,5.3,4.7,4.5z"/>
	</g>
	<g transform="translate(241 79)">
		<polygon class="st8" points="3.1,4.2 3.1,4.9 1.3,4.9 1.3,7.5 3.5,7.5 3.5,8.2 0.5,8.2 0.5,1 3.5,1 3.5,1.7 1.3,1.7 1.3,4.2 		"/>
		<polygon class="st8" points="6.1,5.1 4.9,8.2 4.1,8.2 5.6,4.5 4.2,1 5,1 6.1,3.9 7.2,1 8,1 6.6,4.5 8.1,8.2 7.2,8.2 		"/>
		<polygon class="st8" points="9.6,5 9.6,8.3 8.8,8.3 8.8,1 9.6,1 9.6,4.3 11.4,4.3 11.4,1 12.2,1 12.2,8.3 11.4,8.3 11.4,5 		"/>
		<polygon class="st8" points="13.9,1 13.9,8.3 13,8.3 13,1 		"/>
		<path class="st8" d="M16.3,1c0.6,0,1,0.1,1.2,0.4s0.4,0.7,0.4,1.2v0.3c0,0.4-0.1,0.7-0.2,0.9C17.6,4,17.4,4.2,17,4.3
			c0.4,0.1,0.6,0.3,0.8,0.5c0.1,0.3,0.2,0.6,0.2,1v0.6c0,0.5-0.1,1-0.4,1.3c-0.3,0.3-0.7,0.4-1.3,0.4h-1.7V1H16.3z M16.1,4
			c0.3,0,0.6-0.1,0.7-0.2C17,3.7,17,3.4,17,3V2.6c0-0.3-0.1-0.6-0.2-0.7c-0.1-0.2-0.3-0.2-0.6-0.2h-0.8V4H16.1z M16.4,7.5
			c0.6,0,0.9-0.3,0.9-1V5.9c0-0.4-0.1-0.7-0.2-0.8c-0.2-0.2-0.4-0.2-0.8-0.2h-0.7v2.7L16.4,7.5L16.4,7.5z"/>
		<polygon class="st8" points="19.6,1 19.6,8.3 18.8,8.3 18.8,1 		"/>
		<polygon class="st8" points="21.4,8.2 21.4,1.7 20.1,1.7 20.1,1 23.6,1 23.6,1.7 22.3,1.7 22.3,8.2 		"/>
		<path class="st8" d="M24.1,2.7c0-0.6,0.1-1,0.4-1.3s0.7-0.5,1.3-0.5c0.6,0,1,0.2,1.3,0.5c0.3,0.3,0.4,0.8,0.4,1.3v3.8
			c0,0.6-0.1,1-0.4,1.3c-0.3,0.3-0.7,0.5-1.3,0.5c-0.6,0-1-0.2-1.3-0.5S24.1,7,24.1,6.5V2.7z M24.9,6.5c0,0.3,0.1,0.6,0.2,0.8
			c0.1,0.2,0.4,0.3,0.6,0.3c0.3,0,0.5-0.1,0.7-0.3c0.1-0.2,0.2-0.4,0.2-0.8V2.7c0-0.3-0.1-0.6-0.2-0.8S26,1.6,25.7,1.6
			c-0.3,0-0.5,0.1-0.6,0.3s-0.2,0.4-0.2,0.8V6.5z M29.8,1c0.6,0,1,0.1,1.2,0.4c0.3,0.3,0.4,0.7,0.4,1.2v0.6c0,0.4-0.1,0.7-0.2,1
			c-0.1,0.2-0.4,0.4-0.7,0.5c0.3,0.1,0.6,0.3,0.7,0.5c0.1,0.2,0.2,0.6,0.2,1v1.1c0,0.2,0,0.3,0,0.5c0,0.2,0.1,0.3,0.1,0.4h-0.8
			c0-0.1-0.1-0.2-0.1-0.3s0-0.3,0-0.5V6.3c0-0.4-0.1-0.7-0.3-0.8c-0.2-0.2-0.4-0.2-0.8-0.2H29v3.1h-0.8V1H29.8z M29.6,4.4
			c0.3,0,0.6-0.1,0.8-0.2c0.2-0.1,0.3-0.4,0.3-0.8V2.7c0-0.3-0.1-0.6-0.2-0.7c-0.1-0.2-0.3-0.2-0.6-0.2H29v2.7L29.6,4.4L29.6,4.4z
			 M33.8,0.9c0.6,0,1,0.2,1.2,0.5c0.3,0.3,0.4,0.8,0.4,1.3v0.2h-0.8V2.7c0-0.3-0.1-0.6-0.2-0.8c-0.1-0.2-0.3-0.3-0.6-0.3
			s-0.5,0.1-0.6,0.3C33.1,2.1,33,2.3,33,2.7c0,0.3,0.1,0.5,0.2,0.7c0.1,0.2,0.3,0.4,0.5,0.6c0.2,0.2,0.4,0.3,0.6,0.5
			s0.4,0.3,0.6,0.5c0.2,0.2,0.3,0.4,0.5,0.7c0.2,0.3,0.2,0.5,0.2,0.9c0,0.6-0.1,1-0.4,1.3c-0.3,0.3-0.7,0.5-1.2,0.5s-1-0.2-1.2-0.5
			c-0.3-0.3-0.4-0.8-0.4-1.3V6.2h0.8v0.5c0,0.3,0.1,0.6,0.2,0.8c0.1,0.2,0.4,0.3,0.6,0.3c0.3,0,0.5-0.1,0.6-0.3
			c0.1-0.2,0.2-0.4,0.2-0.8c0-0.3-0.1-0.5-0.2-0.7c-0.1-0.2-0.3-0.4-0.5-0.5c-0.2-0.2-0.4-0.3-0.6-0.5s-0.4-0.3-0.6-0.5
			c-0.2-0.2-0.3-0.4-0.5-0.7c-0.1-0.2-0.2-0.5-0.2-0.9c0-0.6,0.1-1,0.4-1.3C32.9,1.3,33.2,0.9,33.8,0.9z"/>
	</g>
	<g transform="translate(235 179)">
		<path class="st8" d="M2.1,1.1c0.6,0,1,0.2,1.2,0.5c0.3,0.3,0.4,0.8,0.4,1.3v0.9c0,0.6-0.1,1-0.4,1.3C3,5.4,2.6,5.5,2,5.5H1.3v2.9
			H0.5V1.1H2.1L2.1,1.1z M2.1,4.7c0.3,0,0.5-0.1,0.7-0.2C2.9,4.4,3,4.1,3,3.7v-1C3,2.4,2.9,2.1,2.8,2C2.7,1.8,2.5,1.8,2.2,1.8H1.4
			v2.9H2.1L2.1,4.7z M6.1,1.1c0.6,0,1,0.1,1.2,0.4c0.3,0.3,0.4,0.7,0.4,1.2v0.6c0,0.4-0.1,0.7-0.2,1C7.4,4.5,7.1,4.7,6.8,4.8
			c0.3,0.1,0.6,0.3,0.7,0.5c0.1,0.2,0.2,0.6,0.2,1v1.1c0,0.2,0,0.3,0,0.5c0,0.1,0.1,0.3,0.1,0.4H7C7,8.2,6.9,8.1,6.9,8
			c0-0.1,0-0.3,0-0.5V6.4c0-0.4-0.1-0.7-0.3-0.8C6.4,5.4,6.2,5.4,5.8,5.4H5.2v3.1H4.4V1.2h1.7V1.1z M5.9,4.5c0.3,0,0.6-0.1,0.8-0.2
			C6.9,4.2,7,3.9,7,3.5V2.8c0-0.3-0.1-0.6-0.2-0.7C6.7,1.9,6.5,1.9,6.2,1.9H5.4v2.7L5.9,4.5L5.9,4.5z"/>
		<polygon class="st8" points="11.1,4.3 11.1,5 9.3,5 9.3,7.6 11.5,7.6 11.5,8.3 8.5,8.3 8.5,1 11.5,1 11.5,1.7 9.3,1.7 9.3,4.2 
			11.1,4.2 		"/>
		<path class="st8" d="M13.8,1c0.6,0,1,0.2,1.2,0.5c0.3,0.3,0.4,0.8,0.4,1.3V3h-0.8V2.8c0-0.3-0.1-0.6-0.2-0.8
			c-0.1-0.2-0.3-0.3-0.6-0.3S13.3,1.8,13.2,2C13.1,2.2,13,2.4,13,2.8c0,0.3,0.1,0.5,0.2,0.7c0.1,0.2,0.3,0.4,0.5,0.6
			c0.2,0.2,0.4,0.3,0.6,0.5c0.2,0.2,0.4,0.3,0.6,0.5c0.2,0.2,0.3,0.4,0.5,0.7c0.2,0.3,0.2,0.5,0.2,0.9c0,0.6-0.1,1-0.4,1.3
			S14.5,8.5,14,8.5S13,8.3,12.8,8c-0.3-0.3-0.4-0.8-0.4-1.3V6.3h0.8v0.5c0,0.3,0.1,0.6,0.2,0.8c0.1,0.2,0.4,0.3,0.6,0.3
			s0.5-0.1,0.6-0.3c0.1-0.2,0.2-0.4,0.2-0.8c0-0.3-0.1-0.5-0.2-0.7c-0.1-0.2-0.3-0.4-0.5-0.5c-0.2-0.2-0.4-0.3-0.6-0.5
			c-0.2-0.2-0.4-0.3-0.6-0.5c-0.2-0.2-0.3-0.4-0.5-0.7c-0.1-0.2-0.2-0.5-0.2-0.9c0-0.6,0.1-1,0.4-1.3C12.8,1.2,13.3,1,13.8,1z
			 M17.7,1c0.6,0,1,0.2,1.2,0.5c0.2,0.3,0.4,0.8,0.4,1.3V3h-0.8V2.8c0-0.3-0.1-0.6-0.2-0.8c-0.1-0.2-0.3-0.3-0.6-0.3
			c-0.3,0-0.5,0.1-0.6,0.3s-0.2,0.4-0.2,0.8c0,0.3,0.1,0.5,0.2,0.7s0.3,0.4,0.5,0.6c0.2,0.2,0.4,0.3,0.6,0.5
			c0.2,0.2,0.4,0.3,0.6,0.5c0.2,0.2,0.3,0.4,0.5,0.7c0.2,0.3,0.2,0.5,0.2,0.9c0,0.6-0.1,1-0.4,1.3c-0.3,0.3-0.7,0.5-1.2,0.5
			c-0.6,0-1-0.2-1.2-0.5c-0.3-0.3-0.4-0.8-0.4-1.3V6.3h0.8v0.5c0,0.3,0.1,0.6,0.2,0.8c0.1,0.2,0.4,0.3,0.6,0.3
			c0.3,0,0.5-0.1,0.6-0.3c0.1-0.2,0.2-0.4,0.2-0.8c0-0.3-0.1-0.5-0.2-0.7c-0.1-0.2-0.3-0.4-0.5-0.5c-0.2-0.2-0.4-0.3-0.6-0.5
			c-0.2-0.2-0.4-0.3-0.6-0.5c-0.2-0.2-0.3-0.4-0.5-0.7c-0.1-0.2-0.2-0.5-0.2-0.9c0-0.6,0.1-1,0.4-1.3S17.1,1,17.7,1z M23.2,1
			c0.6,0,1,0.2,1.2,0.5c0.3,0.3,0.4,0.8,0.4,1.3v0.7H24V2.8c0-0.3-0.1-0.6-0.2-0.8c-0.1-0.2-0.4-0.3-0.6-0.3c-0.3,0-0.5,0.1-0.6,0.3
			s-0.2,0.4-0.2,0.8v3.8c0,0.3,0.1,0.6,0.2,0.8c0.1,0.2,0.4,0.3,0.6,0.3c0.3,0,0.5-0.1,0.6-0.3C23.9,7.2,24,7,24,6.6V5.7h0.8v0.9
			c0,0.6-0.1,1-0.4,1.3c-0.3,0.3-0.7,0.5-1.2,0.5c-0.6,0-1-0.2-1.2-0.5c-0.2-0.3-0.4-0.8-0.4-1.3V2.8c0-0.3,0-0.5,0.1-0.8
			c0.1-0.2,0.2-0.4,0.3-0.6s0.3-0.3,0.5-0.4S22.9,1,23.2,1z M25.5,2.8c0-0.6,0.1-1,0.4-1.3C26.2,1.2,26.6,1,27.2,1
			c0.6,0,1,0.2,1.3,0.5s0.4,0.8,0.4,1.3v3.8c0,0.6-0.1,1-0.4,1.3c-0.3,0.3-0.7,0.5-1.3,0.5c-0.6,0-1-0.2-1.3-0.5
			c-0.3-0.3-0.4-0.8-0.4-1.3V2.8z M26.3,6.6c0,0.3,0.1,0.6,0.2,0.8c0.1,0.2,0.4,0.3,0.6,0.3c0.3,0,0.5-0.1,0.7-0.3
			C27.9,7.2,28,7,28,6.6V2.8c0-0.3-0.1-0.6-0.2-0.8c-0.1-0.2-0.4-0.3-0.7-0.3c-0.3,0-0.5,0.1-0.6,0.3s-0.2,0.4-0.2,0.8V6.6z"/>
		<polygon class="st8" points="30.2,1.1 31.4,7.4 32.6,1.1 33.3,1.1 31.9,8.4 30.7,8.4 29.3,1.1 		"/>
		<polygon class="st8" points="36.5,4.3 36.5,5 34.7,5 34.7,7.6 36.9,7.6 36.9,8.3 33.9,8.3 33.9,1 36.9,1 36.9,1.7 34.7,1.7 
			34.7,4.2 36.5,4.2 		"/>
		<path class="st8" d="M39.3,1.1c0.6,0,1,0.1,1.2,0.4c0.3,0.3,0.4,0.7,0.4,1.2v0.6c0,0.4-0.1,0.7-0.2,1c-0.1,0.2-0.4,0.4-0.7,0.5
			c0.3,0.1,0.6,0.3,0.7,0.5c0.1,0.2,0.2,0.6,0.2,1v1.1c0,0.2,0,0.3,0,0.5S41,8.2,41,8.3h-0.8c0-0.1-0.1-0.2-0.1-0.3
			c0-0.1,0-0.3,0-0.5V6.4c0-0.4-0.1-0.7-0.3-0.8c-0.2-0.2-0.4-0.2-0.8-0.2h-0.6v3.1h-0.8V1.2h1.7V1.1z M39.1,4.5
			c0.3,0,0.6-0.1,0.8-0.2c0.2-0.1,0.3-0.4,0.3-0.8V2.8c0-0.3-0.1-0.6-0.2-0.7c-0.1-0.2-0.3-0.2-0.6-0.2h-0.8v2.7L39.1,4.5L39.1,4.5z
			 M42.6,6.9l-0.3,1.5h-0.7L43,1.1h1.2l1.4,7.3h-0.8l-0.3-1.5H42.6z M42.7,6.2h1.6L43.5,2L42.7,6.2z M47.7,1c0.6,0,1,0.2,1.2,0.5
			c0.3,0.3,0.4,0.8,0.4,1.3v0.6h-0.8V2.7c0-0.3-0.1-0.6-0.2-0.8c-0.1-0.2-0.4-0.3-0.6-0.3c-0.3,0-0.5,0.1-0.6,0.3
			c-0.1,0.2-0.2,0.4-0.2,0.8v3.8c0,0.3,0.1,0.6,0.2,0.8c0.1,0.2,0.4,0.3,0.6,0.3c0.3,0,0.5-0.1,0.6-0.3c0.1-0.2,0.2-0.4,0.2-0.8V5
			h-0.7V4.3h1.5v2.1c0,0.6-0.1,1-0.4,1.3c-0.3,0.3-0.7,0.5-1.2,0.5c-0.6,0-1-0.2-1.2-0.5c-0.2-0.3-0.4-0.8-0.4-1.3V2.6
			c0-0.3,0-0.5,0.1-0.8c0.1-0.2,0.2-0.4,0.3-0.6s0.3-0.3,0.5-0.4S47.4,1,47.7,1z"/>
		<polygon class="st8" points="52.7,4.3 52.7,5 50.9,5 50.9,7.6 53.1,7.6 53.1,8.3 50.1,8.3 50.1,1 53.1,1 53.1,1.7 50.9,1.7 
			50.9,4.2 52.7,4.2 		"/>
	</g>
	<g transform="translate(120 253)">
		<path class="st8" d="M1.6,0.6c0.6,0,1,0.2,1.2,0.5c0.3,0.3,0.4,0.8,0.4,1.3v0.9c0,0.6-0.1,1-0.4,1.3C2.5,4.9,2.1,5,1.5,5H0.8v2.9
			H0V0.6H1.6L1.6,0.6z M1.6,4.3c0.3,0,0.5-0.1,0.7-0.2C2.4,4,2.5,3.7,2.5,3.3v-1c0-0.3-0.1-0.6-0.2-0.7C2.2,1.4,2,1.4,1.7,1.4H0.9
			v2.9H1.6z"/>
		<polygon class="st8" points="6.5,3.8 6.5,4.5 4.7,4.5 4.7,7.1 6.9,7.1 6.9,7.8 3.9,7.8 3.9,0.5 6.9,0.5 6.9,1.2 4.7,1.2 4.7,3.7 
			6.5,3.7 		"/>
		<path class="st8" d="M7.6,2.3c0-0.6,0.1-1,0.4-1.3s0.7-0.5,1.3-0.5c0.6,0,1,0.2,1.3,0.5C10.9,1.3,11,1.8,11,2.3v3.8
			c0,0.6-0.1,1-0.4,1.3c-0.3,0.3-0.7,0.5-1.3,0.5c-0.6,0-1-0.2-1.3-0.5C7.7,7.1,7.6,6.6,7.6,6.1V2.3z M8.4,6.1
			c0,0.3,0.1,0.6,0.2,0.8C8.7,7.1,9,7.2,9.2,7.2c0.3,0,0.5-0.1,0.7-0.3c0.1-0.2,0.2-0.4,0.2-0.8V2.3c0-0.3-0.1-0.6-0.2-0.8
			C9.8,1.3,9.5,1.2,9.2,1.2S8.7,1.3,8.6,1.5C8.5,1.7,8.4,1.9,8.4,2.3V6.1z M13.3,0.6c0.6,0,1,0.2,1.2,0.5c0.3,0.3,0.4,0.8,0.4,1.3
			v0.9c0,0.6-0.1,1-0.4,1.3C14.2,4.9,13.8,5,13.2,5h-0.7v2.9h-0.8V0.6H13.3L13.3,0.6z M13.2,4.3c0.3,0,0.5-0.1,0.7-0.2
			C14,4,14.1,3.7,14.1,3.3v-1c0-0.3-0.1-0.6-0.2-0.7c-0.1-0.2-0.3-0.2-0.6-0.2h-0.8v2.9H13.2z"/>
		<polygon class="st8" points="15.5,7.9 15.5,0.6 16.3,0.6 16.3,7.1 18.4,7.1 18.4,7.8 15.5,7.8 		"/>
		<polygon class="st8" points="21.6,3.8 21.6,4.5 19.8,4.5 19.8,7.1 22,7.1 22,7.8 19,7.8 19,0.5 22,0.5 22,1.2 19.8,1.2 19.8,3.7 
			21.6,3.7 		"/>
		<path class="st8" d="M26,0.6c0.6,0,1,0.1,1.2,0.4c0.3,0.3,0.4,0.7,0.4,1.2v0.6c0,0.4-0.1,0.7-0.2,1C27.3,4,27,4.2,26.7,4.3
			c0.3,0.1,0.6,0.3,0.7,0.5c0.1,0.2,0.2,0.6,0.2,1v1.1c0,0.2,0,0.3,0,0.5c0,0.1,0.1,0.3,0.1,0.4H27c0-0.1-0.1-0.2-0.1-0.3
			s0-0.3,0-0.5V5.9c0-0.4-0.1-0.7-0.3-0.8c-0.2-0.2-0.4-0.2-0.8-0.2h-0.6V8h-0.8V0.7L26,0.6L26,0.6z M25.8,4c0.3,0,0.6-0.1,0.8-0.2
			c0.2-0.1,0.3-0.4,0.3-0.8V2.3c0-0.3-0.1-0.6-0.2-0.7c-0.1-0.2-0.3-0.2-0.6-0.2h-0.8v2.7L25.8,4L25.8,4z"/>
		<polygon class="st8" points="31.1,3.8 31.1,4.5 29.3,4.5 29.3,7.1 31.5,7.1 31.5,7.8 28.5,7.8 28.5,0.5 31.5,0.5 31.5,1.2 
			29.3,1.2 29.3,3.7 31.1,3.7 		"/>
		<path class="st8" d="M33,6.4l-0.3,1.5H32l1.4-7.3h1.2L36,7.9h-0.8l-0.3-1.5H33z M33.1,5.7h1.6l-0.8-4.2L33.1,5.7z M38.2,0.5
			c0.6,0,1,0.2,1.2,0.5c0.3,0.3,0.4,0.8,0.4,1.3V3H39V2.3c0-0.3-0.1-0.6-0.2-0.8c-0.1-0.2-0.4-0.3-0.6-0.3c-0.3,0-0.5,0.1-0.6,0.3
			c-0.1,0.2-0.2,0.4-0.2,0.8v3.8c0,0.3,0.1,0.6,0.2,0.8c0.1,0.2,0.4,0.3,0.6,0.3c0.3,0,0.5-0.1,0.6-0.3C38.9,6.7,39,6.5,39,6.1V5.2
			h0.8v0.9c0,0.6-0.1,1-0.4,1.3c-0.3,0.3-0.7,0.5-1.2,0.5c-0.6,0-1-0.2-1.2-0.5c-0.2-0.3-0.4-0.8-0.4-1.3V2.3c0-0.3,0-0.5,0.1-0.8
			c0.1-0.2,0.2-0.4,0.3-0.6s0.3-0.3,0.5-0.4S37.9,0.5,38.2,0.5z"/>
		<polygon class="st8" points="41.4,4.6 41.4,7.9 40.6,7.9 40.6,0.6 41.4,0.6 41.4,3.9 43.2,3.9 43.2,0.6 44,0.6 44,7.9 43.2,7.9 
			43.2,4.6 		"/>
		<path class="st8" d="M46.3,2.3c0-0.6,0.1-1,0.4-1.3s0.7-0.5,1.3-0.5s1,0.2,1.3,0.5s0.4,0.8,0.4,1.3v3.8c0,0.6-0.1,1-0.4,1.3
			C49,7.7,48.6,7.9,48,7.9s-1-0.2-1.3-0.5c-0.3-0.3-0.4-0.8-0.4-1.3V2.3z M47.1,6.1c0,0.3,0.1,0.6,0.2,0.8c0.1,0.2,0.4,0.3,0.6,0.3
			c0.3,0,0.5-0.1,0.7-0.3c0.1-0.2,0.2-0.4,0.2-0.8V2.3c0-0.3-0.1-0.6-0.2-0.8c-0.1-0.2-0.4-0.3-0.7-0.3c-0.3,0-0.5,0.1-0.6,0.3
			c-0.1,0.2-0.2,0.4-0.2,0.8V6.1z"/>
		<polygon class="st8" points="51.1,7.9 50.4,7.9 50.4,0.6 51.4,0.6 53.1,5.9 53.1,0.6 53.8,0.6 53.8,7.9 53,7.9 51.1,2 		"/>
	</g>
	<g transform="translate(126 265)">
		<path class="st8" d="M1.7,1c0.6,0,1,0.2,1.2,0.5c0.3,0.3,0.4,0.8,0.4,1.3V3H2.5V2.8c0-0.3-0.1-0.6-0.2-0.8C2.2,1.8,2,1.7,1.7,1.7
			S1.2,1.8,1.1,2S0.9,2.4,0.9,2.8c0,0.3,0.1,0.5,0.2,0.7s0.3,0.4,0.5,0.6C1.8,4.3,2,4.4,2.2,4.6c0.2,0.2,0.4,0.3,0.6,0.5
			C3,5.3,3.1,5.5,3.3,5.8c0.2,0.3,0.2,0.5,0.2,0.9c0,0.6-0.1,1-0.4,1.3S2.4,8.5,1.9,8.5c-0.6,0-1-0.2-1.2-0.5
			C0.4,7.7,0.3,7.2,0.3,6.7V6.3h0.8v0.5c0,0.3,0.1,0.6,0.2,0.8c0.1,0.2,0.4,0.3,0.6,0.3c0.3,0,0.5-0.1,0.6-0.3
			c0.1-0.2,0.2-0.4,0.2-0.8c0-0.3-0.1-0.5-0.2-0.7C2.4,5.9,2.2,5.7,2,5.6C1.8,5.4,1.6,5.3,1.4,5.1C1.2,4.9,1,4.8,0.8,4.6
			C0.6,4.4,0.5,4.2,0.3,3.9C0.2,3.7,0.1,3.4,0.1,3c0-0.6,0.1-1,0.4-1.3C0.8,1.1,1.2,1,1.7,1z M4,2.8c0-0.6,0.1-1,0.4-1.3
			C4.7,1.2,5.1,1,5.7,1s1,0.2,1.3,0.5s0.4,0.8,0.4,1.3v3.8c0,0.6-0.1,1-0.4,1.3C6.7,8.2,6.3,8.4,5.7,8.4s-1-0.2-1.3-0.5
			C4.1,7.6,4,7.1,4,6.6V2.8z M4.8,6.6c0,0.3,0.1,0.6,0.2,0.8c0.1,0.2,0.4,0.3,0.6,0.3c0.3,0,0.5-0.1,0.7-0.3C6.4,7.2,6.5,7,6.5,6.6
			V2.8c0-0.3-0.1-0.6-0.2-0.8C6.2,1.8,5.9,1.7,5.6,1.7C5.3,1.7,5.1,1.8,5,2S4.8,2.4,4.8,2.8V6.6z M9.7,1c0.6,0,1,0.2,1.2,0.5
			c0.3,0.3,0.4,0.8,0.4,1.3v0.7h-0.8V2.8c0-0.3-0.1-0.6-0.2-0.8c-0.1-0.2-0.4-0.3-0.6-0.3C9.4,1.7,9.2,1.8,9.1,2
			C9,2.2,8.9,2.4,8.9,2.8v3.8c0,0.3,0.1,0.6,0.2,0.8c0.1,0.2,0.4,0.3,0.6,0.3c0.3,0,0.5-0.1,0.6-0.3c0.1-0.2,0.2-0.4,0.2-0.8V5.7
			h0.8v0.9c0,0.6-0.1,1-0.4,1.3c-0.3,0.3-0.7,0.5-1.2,0.5c-0.6,0-1-0.2-1.2-0.5C8.3,7.6,8.1,7.1,8.1,6.6V2.8c0-0.3,0-0.5,0.1-0.8
			c0.1-0.2,0.2-0.4,0.3-0.6S8.8,1.1,9,1S9.4,1,9.7,1z"/>
		<polygon class="st8" points="12.9,1 12.9,8.3 12.1,8.3 12.1,1 		"/>
		<path class="st8" d="M14.5,6.8l-0.3,1.5h-0.7L14.9,1h1.2l1.4,7.3h-0.8l-0.3-1.5H14.5z M14.6,6.2h1.6L15.4,2L14.6,6.2z"/>
		<polygon class="st8" points="18.1,8.3 18.1,1 18.9,1 18.9,7.5 21,7.5 21,8.2 18.1,8.2 		"/>
		<polygon class="st8" points="25.9,8.3 25.1,8.3 23.9,2.5 23.9,8.3 23.2,8.3 23.2,1 24.3,1 25.5,6.8 26.7,1 27.8,1 27.8,8.3 
			27,8.3 27,2.5 		"/>
		<polygon class="st8" points="31.2,4.3 31.2,5 29.4,5 29.4,7.6 31.6,7.6 31.6,8.3 28.6,8.3 28.6,1 31.6,1 31.6,1.7 29.4,1.7 
			29.4,4.2 31.2,4.2 		"/>
		<path class="st8" d="M34.1,1c0.6,0,1,0.2,1.3,0.5c0.3,0.3,0.4,0.8,0.4,1.3v3.7c0,0.6-0.1,1-0.4,1.3c-0.3,0.3-0.7,0.5-1.3,0.5h-1.7
			V1H34.1z M34.1,7.6c0.3,0,0.5-0.1,0.6-0.3c0.1-0.2,0.2-0.4,0.2-0.8V2.8c0-0.3-0.1-0.6-0.2-0.8c-0.1-0.2-0.4-0.3-0.7-0.3h-0.9v5.8
			L34.1,7.6L34.1,7.6z"/>
		<polygon class="st8" points="37.3,1 37.3,8.3 36.5,8.3 36.5,1 		"/>
		<path class="st8" d="M38.9,6.8l-0.3,1.5h-0.7L39.3,1h1.2l1.4,7.3h-0.8l-0.3-1.5H38.9z M39,6.2h1.6L39.8,2L39,6.2z"/>
	</g>
	<g transform="translate(10 184)">
		<path class="st8" d="M1.6,0.1c0.6,0,1,0.2,1.2,0.5c0.3,0.3,0.4,0.8,0.4,1.3v0.7H2.4V1.9c0-0.3-0.1-0.6-0.2-0.8
			C2.1,0.9,1.8,0.8,1.6,0.8C1.3,0.8,1.1,0.9,1,1.1S0.8,1.5,0.8,1.9v3.8C0.8,6,0.9,6.3,1,6.5s0.4,0.3,0.6,0.3c0.3,0,0.5-0.1,0.6-0.3
			c0.1-0.2,0.2-0.4,0.2-0.8V4.8h0.8v0.9c0,0.6-0.1,1-0.4,1.3S2.1,7.5,1.6,7.5C1,7.5,0.6,7.3,0.4,7S0,6.2,0,5.7V2
			c0-0.3,0-0.5,0.1-0.8s0.2-0.4,0.3-0.6s0.3-0.3,0.5-0.4C1.1,0.2,1.4,0.1,1.6,0.1z M4,2c0-0.6,0.1-1,0.4-1.3
			c0.3-0.3,0.7-0.5,1.3-0.5s1,0.2,1.3,0.5S7.4,1.5,7.4,2v3.8c0,0.6-0.1,1-0.4,1.3C6.7,7.4,6.3,7.6,5.7,7.6s-1-0.2-1.3-0.5
			C4.1,6.8,4,6.3,4,5.8V2z M4.8,5.8c0,0.3,0.1,0.6,0.2,0.8c0.1,0.2,0.4,0.3,0.6,0.3c0.3,0,0.5-0.1,0.7-0.3c0.1-0.2,0.2-0.4,0.2-0.8
			V2c0-0.3-0.1-0.6-0.2-0.8C6.2,1,5.9,0.9,5.6,0.9C5.3,0.9,5.1,1,5,1.2S4.8,1.6,4.8,2V5.8z M8.8,5.8c0,0.3,0.1,0.6,0.2,0.8
			c0.1,0.2,0.4,0.3,0.6,0.3c0.3,0,0.5-0.1,0.6-0.3c0.1-0.2,0.2-0.4,0.2-0.8V0.2h0.8v5.5c0,0.6-0.1,1-0.4,1.3s-0.7,0.5-1.2,0.5
			C9,7.5,8.6,7.3,8.4,7C8.1,6.7,8,6.2,8,5.7V0.2h0.8V5.8z"/>
		<polygon class="st8" points="12.8,7.5 12.1,7.5 12.1,0.2 13.1,0.2 14.8,5.5 14.8,0.2 15.5,0.2 15.5,7.5 14.7,7.5 12.8,1.6 		"/>
		<polygon class="st8" points="17.4,7.5 17.4,1 16,1 16,0.3 19.5,0.3 19.5,1 18.2,1 18.2,7.5 		"/>
		<path class="st8" d="M21.7,0.2c0.6,0,1,0.1,1.2,0.4c0.3,0.3,0.4,0.7,0.4,1.2v0.6c0,0.4-0.1,0.7-0.2,1c-0.1,0.2-0.4,0.4-0.7,0.5
			C22.7,4,23,4.2,23.1,4.4c0.1,0.2,0.2,0.6,0.2,1v1.1c0,0.2,0,0.3,0,0.5c0,0.1,0.1,0.3,0.1,0.4h-0.8c0-0.1-0.1-0.2-0.1-0.3
			s0-0.3,0-0.5V5.5c0-0.4-0.1-0.7-0.3-0.8c-0.2-0.2-0.4-0.2-0.8-0.2h-0.6v3.1H20V0.3h1.7V0.2z M21.5,3.6c0.3,0,0.6-0.1,0.8-0.2
			c0.2-0.1,0.3-0.4,0.3-0.8V1.9c0-0.3-0.1-0.6-0.2-0.7C22.3,1.1,22,1,21.7,1h-0.8v2.7h0.6V3.6z"/>
		<polygon class="st8" points="25,0.2 25,7.5 24.2,7.5 24.2,0.2 		"/>
		<polygon class="st8" points="28.4,3.4 28.4,4.1 26.6,4.1 26.6,6.7 28.8,6.7 28.8,7.4 25.8,7.4 25.8,0.1 28.8,0.1 28.8,0.8 
			26.6,0.8 26.6,3.3 28.4,3.3 		"/>
		<path class="st8" d="M31.1,0.1c0.6,0,1,0.2,1.2,0.5c0.3,0.3,0.4,0.8,0.4,1.3v0.2h-0.8V1.9c0-0.3-0.1-0.6-0.2-0.8
			c-0.1-0.2-0.3-0.3-0.6-0.3c-0.3,0-0.5,0.1-0.6,0.3s-0.2,0.4-0.2,0.8c0,0.3,0.1,0.5,0.2,0.7C30.6,2.8,30.8,3,31,3.2
			s0.4,0.3,0.6,0.5C31.8,3.9,32,4,32.2,4.2c0.2,0.2,0.3,0.4,0.5,0.7c0.2,0.3,0.2,0.5,0.2,0.9c0,0.6-0.1,1-0.4,1.3
			c-0.3,0.3-0.7,0.5-1.2,0.5c-0.6,0-1-0.2-1.2-0.5c-0.3-0.3-0.4-0.8-0.4-1.3V5.4h0.8v0.5c0,0.3,0.1,0.6,0.2,0.8
			C30.8,6.9,31.1,7,31.3,7c0.3,0,0.5-0.1,0.6-0.3c0.1-0.2,0.2-0.4,0.2-0.8c0-0.3-0.1-0.5-0.2-0.7c-0.1-0.2-0.3-0.4-0.5-0.6
			c-0.2-0.2-0.4-0.3-0.6-0.5c-0.2-0.2-0.4-0.3-0.6-0.5c-0.2-0.2-0.3-0.4-0.5-0.7c-0.1-0.2-0.2-0.5-0.2-0.9c0-0.6,0.1-1,0.4-1.3
			C30.1,0.3,30.5,0.1,31.1,0.1z"/>
	</g>
	<g transform="translate(5 196)">
		<path class="st8" d="M1.9,0.7c0.6,0,1,0.1,1.2,0.4c0.3,0.3,0.4,0.7,0.4,1.2v0.6c0,0.4-0.1,0.7-0.2,1C3.2,4.1,2.9,4.3,2.6,4.4
			c0.3,0.1,0.6,0.3,0.7,0.5c0.1,0.2,0.2,0.6,0.2,1V7c0,0.2,0,0.3,0,0.5c0,0.1,0.1,0.3,0.1,0.4H2.8c0-0.1-0.1-0.2-0.1-0.3
			s0-0.3,0-0.5V6c0-0.4-0.1-0.7-0.3-0.8C2.2,5,2,5,1.6,5H1v3.1H0.2V0.8h1.7V0.7z M1.7,4.1C2,4.1,2.3,4,2.5,3.9
			c0.2-0.1,0.3-0.4,0.3-0.8V2.4c0-0.3-0.1-0.6-0.2-0.7C2.5,1.6,2.3,1.5,2,1.5H1.2v2.7L1.7,4.1L1.7,4.1z"/>
		<polygon class="st8" points="7,3.9 7,4.6 5.2,4.6 5.2,7.2 7.4,7.2 7.4,7.9 4.4,7.9 4.4,0.6 7.4,0.6 7.4,1.3 5.2,1.3 5.2,3.8 
			7,3.8 		"/>
		<path class="st8" d="M9.7,0.7c0.6,0,1,0.2,1.2,0.5c0.3,0.3,0.4,0.8,0.4,1.3v0.9c0,0.6-0.1,1-0.4,1.3C10.6,5,10.2,5.1,9.6,5.1H8.9
			V8H8.1V0.7H9.7L9.7,0.7z M9.6,4.4c0.3,0,0.5-0.1,0.7-0.2c0.1-0.1,0.2-0.4,0.2-0.8v-1c0-0.3-0.1-0.6-0.2-0.7
			C10.2,1.5,10,1.5,9.7,1.5H8.9v2.9H9.6L9.6,4.4z M13.6,0.7c0.6,0,1,0.1,1.2,0.4c0.3,0.3,0.4,0.7,0.4,1.2v0.6c0,0.4-0.1,0.7-0.2,1
			c-0.1,0.2-0.4,0.4-0.7,0.5c0.3,0.1,0.6,0.3,0.7,0.5c0.1,0.2,0.2,0.6,0.2,1V7c0,0.2,0,0.3,0,0.5c0,0.1,0.1,0.3,0.1,0.4h-0.8
			c0-0.1-0.1-0.2-0.1-0.3s0-0.3,0-0.5V6c0-0.4-0.1-0.7-0.3-0.8C13.9,5,13.7,5,13.3,5h-0.6v3.1H12V0.8h1.6V0.7z M13.4,4.1
			c0.3,0,0.6-0.1,0.8-0.2c0.2-0.1,0.3-0.4,0.3-0.8V2.4c0-0.3-0.1-0.6-0.2-0.7c-0.1-0.1-0.3-0.2-0.6-0.2h-0.8v2.7L13.4,4.1L13.4,4.1z
			"/>
		<polygon class="st8" points="18.6,3.9 18.6,4.6 16.8,4.6 16.8,7.2 19,7.2 19,7.9 16,7.9 16,0.6 19,0.6 19,1.3 16.8,1.3 16.8,3.8 
			18.6,3.8 		"/>
		<path class="st8" d="M21.3,0.6c0.6,0,1,0.2,1.2,0.5c0.3,0.3,0.4,0.8,0.4,1.3v0.2h-0.8V2.4c0-0.3-0.1-0.6-0.2-0.8s-0.3-0.3-0.6-0.3
			c-0.3,0-0.5,0.1-0.6,0.3c-0.1,0.2-0.2,0.4-0.2,0.8c0,0.3,0.1,0.5,0.2,0.7c0.1,0.2,0.3,0.4,0.5,0.6c0.2,0.2,0.4,0.3,0.6,0.5
			c0.2,0.2,0.4,0.3,0.6,0.5c0.2,0.2,0.3,0.4,0.5,0.7c0.2,0.3,0.2,0.5,0.2,0.9c0,0.6-0.1,1-0.4,1.3c-0.3,0.3-0.7,0.5-1.2,0.5
			c-0.6,0-1-0.2-1.2-0.5c-0.3-0.3-0.4-0.8-0.4-1.3V5.9h0.8v0.5c0,0.3,0.1,0.6,0.2,0.8c0.1,0.2,0.4,0.3,0.6,0.3
			c0.3,0,0.5-0.1,0.6-0.3c0.1-0.2,0.2-0.4,0.2-0.8c0-0.3-0.1-0.5-0.2-0.7c-0.1-0.2-0.3-0.4-0.5-0.6c-0.2-0.2-0.4-0.3-0.6-0.5
			c-0.2-0.2-0.4-0.3-0.6-0.5c-0.2-0.2-0.3-0.4-0.5-0.7c-0.1-0.2-0.2-0.5-0.2-0.9c0-0.6,0.1-1,0.4-1.3C20.4,0.8,20.8,0.6,21.3,0.6z"
			/>
		<polygon class="st8" points="26.2,3.9 26.2,4.6 24.4,4.6 24.4,7.2 26.6,7.2 26.6,7.9 23.6,7.9 23.6,0.6 26.6,0.6 26.6,1.3 
			24.4,1.3 24.4,3.8 26.2,3.8 		"/>
		<polygon class="st8" points="28.1,8 27.4,8 27.4,0.7 28.4,0.7 30.1,6 30.1,0.7 30.8,0.7 30.8,8 30,8 28.1,2.1 		"/>
		<polygon class="st8" points="32.7,8 32.7,1.5 31.4,1.5 31.4,0.8 34.9,0.8 34.9,1.5 33.6,1.5 33.6,8 		"/>
		<polygon class="st8" points="38,3.9 38,4.6 36.2,4.6 36.2,7.2 38.4,7.2 38.4,7.9 35.4,7.9 35.4,0.6 38.4,0.6 38.4,1.3 36.2,1.3 
			36.2,3.8 38,3.8 		"/>
		<path class="st8" d="M40.8,0.7c0.6,0,1,0.2,1.3,0.5c0.3,0.3,0.4,0.8,0.4,1.3v3.7c0,0.6-0.1,1-0.4,1.3C41.8,7.8,41.4,8,40.8,8h-1.7
			V0.7H40.8z M40.8,7.2c0.3,0,0.5-0.1,0.6-0.3c0.1-0.2,0.2-0.4,0.2-0.8V2.4c0-0.3-0.1-0.6-0.2-0.8c-0.1-0.2-0.4-0.3-0.7-0.3h-0.9
			v5.8L40.8,7.2L40.8,7.2z"/>
	</g>
	<g transform="translate(0 73)">
		<polygon class="st8" points="1.7,0.3 1.7,7.6 0.9,7.6 0.9,0.3 		"/>
		<polygon class="st8" points="3.3,7.6 2.6,7.6 2.6,0.3 3.6,0.3 5.3,5.6 5.3,0.3 6,0.3 6,7.6 5.2,7.6 3.3,1.7 		"/>
		<polygon class="st8" points="7.9,7.6 7.9,1.1 6.6,1.1 6.6,0.4 10,0.4 10,1.1 8.7,1.1 8.7,7.6 		"/>
		<polygon class="st8" points="13.1,3.6 13.1,4.3 11.3,4.3 11.3,6.9 13.5,6.9 13.5,7.6 10.5,7.6 10.5,0.3 13.5,0.3 13.5,1 11.3,1 
			11.3,3.5 13.1,3.5 		"/>
		<path class="st8" d="M15.9,0.3c0.6,0,1,0.1,1.2,0.4c0.3,0.3,0.4,0.7,0.4,1.2v0.6c0,0.4-0.1,0.7-0.2,1c-0.1,0.2-0.4,0.4-0.7,0.5
			c0.3,0.1,0.6,0.3,0.7,0.5c0.1,0.2,0.2,0.6,0.2,1v1.1c0,0.2,0,0.3,0,0.5c0,0.1,0.1,0.3,0.1,0.4h-0.8c0-0.1-0.1-0.2-0.1-0.3
			c0-0.1,0-0.3,0-0.5V5.6c0-0.4-0.1-0.7-0.3-0.8c-0.2-0.2-0.4-0.2-0.8-0.2H15v3.1h-0.8V0.4L15.9,0.3L15.9,0.3z M15.7,3.8
			c0.3,0,0.6-0.1,0.8-0.2c0.2-0.1,0.3-0.4,0.3-0.8V2.1c0-0.3-0.1-0.6-0.2-0.7c-0.1-0.2-0.3-0.2-0.6-0.2h-0.8v2.7h0.5V3.8z"/>
		<polygon class="st8" points="19.1,7.6 18.4,7.6 18.4,0.3 19.4,0.3 21.1,5.6 21.1,0.3 21.8,0.3 21.8,7.6 21,7.6 19.1,1.7 		"/>
		<path class="st8" d="M23.4,6.1l-0.3,1.5h-0.7l1.4-7.3H25l1.4,7.3h-0.8l-0.3-1.5H23.4z M23.6,5.4h1.6l-0.8-4.2L23.6,5.4z"/>
		<polygon class="st8" points="27.7,7.6 27.7,1.1 26.4,1.1 26.4,0.4 29.9,0.4 29.9,1.1 28.6,1.1 28.6,7.6 		"/>
		<polygon class="st8" points="31.2,0.3 31.2,7.6 30.4,7.6 30.4,0.3 		"/>
		<path class="st8" d="M31.9,2.1c0-0.6,0.1-1,0.4-1.3s0.7-0.5,1.3-0.5c0.6,0,1,0.2,1.3,0.5c0.3,0.3,0.4,0.8,0.4,1.3v3.8
			c0,0.6-0.1,1-0.4,1.3c-0.3,0.3-0.7,0.5-1.3,0.5c-0.6,0-1-0.2-1.3-0.5c-0.3-0.3-0.4-0.8-0.4-1.3V2.1z M32.7,5.9
			c0,0.3,0.1,0.6,0.2,0.8C33,6.9,33.3,7,33.5,7c0.3,0,0.5-0.1,0.7-0.3c0.1-0.2,0.2-0.4,0.2-0.8V2.1c0-0.3-0.1-0.6-0.2-0.8
			C34.1,1.1,33.8,1,33.5,1S33,1.1,32.9,1.3c-0.1,0.2-0.2,0.4-0.2,0.8V5.9z"/>
		<polygon class="st8" points="36.8,7.6 36,7.6 36,0.3 37,0.3 38.7,5.6 38.7,0.3 39.4,0.3 39.4,7.6 38.6,7.6 36.7,1.7 36.7,7.6 		
			"/>
		<path class="st8" d="M41.1,6.1l-0.3,1.5h-0.7l1.4-7.3h1.2l1.4,7.3h-0.8L43,6.1H41.1z M41.2,5.4h1.6L42,1.3L41.2,5.4z"/>
		<polygon class="st8" points="44.7,7.6 44.7,0.3 45.5,0.3 45.5,6.8 47.6,6.8 47.6,7.5 44.7,7.5 		"/>
	</g>
	<g transform="translate(4 85)">
		<path class="st8" d="M1.9,0.8c0.6,0,1,0.2,1.3,0.5s0.4,0.8,0.4,1.3v3.7c0,0.6-0.1,1-0.4,1.3C2.9,7.9,2.5,8.1,1.9,8.1H0.2V0.8H1.9z
			 M1.9,7.4c0.3,0,0.5-0.1,0.6-0.3c0.1-0.2,0.2-0.4,0.2-0.8V2.6c0-0.3-0.1-0.6-0.2-0.8S2.1,1.5,1.8,1.5H1v5.8L1.9,7.4L1.9,7.4z"/>
		<polygon class="st8" points="6.9,4.1 6.9,4.8 5.1,4.8 5.1,7.4 7.3,7.4 7.3,8.1 4.3,8.1 4.3,0.8 7.3,0.8 7.3,1.5 5.1,1.5 5.1,4 
			6.9,4 		"/>
		<polygon class="st8" points="8.1,8.1 8.1,0.8 8.9,0.8 8.9,7.3 11,7.3 11,8 8.1,8 		"/>
		<polygon class="st8" points="14.2,4.1 14.2,4.8 12.4,4.8 12.4,7.4 14.6,7.4 14.6,8.1 11.6,8.1 11.6,0.8 14.6,0.8 14.6,1.5 
			12.4,1.5 12.4,4 14.2,4 		"/>
		<path class="st8" d="M16.9,0.8c0.6,0,1,0.2,1.2,0.5c0.3,0.3,0.4,0.8,0.4,1.3v0.6h-0.8V2.5c0-0.3-0.1-0.6-0.2-0.8s-0.4-0.3-0.6-0.3
			c-0.3,0-0.5,0.1-0.6,0.3c-0.1,0.2-0.2,0.4-0.2,0.8v3.8c0,0.3,0.1,0.6,0.2,0.8c0.1,0.2,0.4,0.3,0.6,0.3c0.3,0,0.5-0.1,0.6-0.3
			c0.1-0.2,0.2-0.4,0.2-0.8V4.8H17V4.1h1.5v2.1c0,0.6-0.1,1-0.4,1.3C17.8,7.8,17.4,8,16.9,8c-0.6,0-1-0.2-1.2-0.5s-0.4-0.8-0.4-1.3
			V2.4c0-0.3,0-0.5,0.1-0.8c0.1-0.2,0.2-0.4,0.3-0.6c0.1-0.2,0.3-0.3,0.5-0.4C16.4,0.5,16.6,0.8,16.9,0.8z M20.1,6.6l-0.3,1.5h-0.7
			l1.4-7.3h1.2l1.4,7.3h-0.8L22,6.6H20.1z M20.2,5.9h1.6L21,1.7L20.2,5.9z"/>
		<polygon class="st8" points="24.3,8.1 24.3,1.6 23,1.6 23,0.9 26.5,0.9 26.5,1.6 25.2,1.6 25.2,8.1 		"/>
		<polygon class="st8" points="27.8,0.8 27.8,8.1 27,8.1 27,0.8 		"/>
		<path class="st8" d="M28.6,2.6c0-0.6,0.1-1,0.4-1.3s0.7-0.5,1.3-0.5c0.6,0,1,0.2,1.3,0.5C31.9,1.6,32,2.1,32,2.6v3.8
			c0,0.6-0.1,1-0.4,1.3c-0.3,0.3-0.7,0.5-1.3,0.5c-0.6,0-1-0.2-1.3-0.5c-0.3-0.3-0.4-0.8-0.4-1.3V2.6z M29.4,6.4
			c0,0.3,0.1,0.6,0.2,0.8c0.1,0.2,0.4,0.3,0.6,0.3c0.3,0,0.5-0.1,0.7-0.3C31,7,31.1,6.8,31.1,6.4V2.6c0-0.3-0.1-0.6-0.2-0.8
			s-0.4-0.3-0.7-0.3c-0.3,0-0.5,0.1-0.6,0.3s-0.2,0.4-0.2,0.8V6.4z"/>
		<polygon class="st8" points="33.4,8.1 32.7,8.1 32.7,0.8 33.7,0.8 35.4,6.1 35.4,0.8 36.1,0.8 36.1,8.1 35.3,8.1 33.4,2.2 		"/>
		<path class="st8" d="M38.5,0.8c0.6,0,1,0.2,1.2,0.5c0.3,0.3,0.4,0.8,0.4,1.3v0.2h-0.8V2.6c0-0.3-0.1-0.6-0.2-0.8
			c-0.1-0.2-0.3-0.3-0.6-0.3S38,1.6,37.9,1.8c-0.1,0.2-0.2,0.4-0.2,0.8c0,0.3,0.1,0.5,0.2,0.7c0.1,0.2,0.3,0.4,0.5,0.6
			c0.2,0.2,0.4,0.3,0.6,0.5c0.2,0.2,0.4,0.3,0.6,0.5c0.2,0.2,0.3,0.4,0.5,0.7c0.2,0.3,0.2,0.5,0.2,0.9c0,0.6-0.1,1-0.4,1.3
			c-0.3,0.3-0.7,0.5-1.2,0.5c-0.6,0-1-0.2-1.2-0.5c-0.3-0.3-0.4-0.8-0.4-1.3V6.1h0.8v0.5c0,0.3,0.1,0.6,0.2,0.8
			c0.1,0.2,0.4,0.3,0.6,0.3c0.3,0,0.5-0.1,0.6-0.3c0.1-0.2,0.2-0.4,0.2-0.8c0-0.3-0.1-0.5-0.2-0.7c-0.1-0.2-0.3-0.4-0.5-0.5
			c-0.2-0.2-0.4-0.3-0.6-0.5c-0.2-0.2-0.4-0.3-0.6-0.5c-0.2-0.2-0.3-0.4-0.5-0.7c-0.1-0.2-0.2-0.5-0.2-0.9c0-0.6,0.1-1,0.4-1.3
			C37.5,0.9,37.9,0.8,38.5,0.8z"/>
	</g>
	<g transform="translate(120 20)">
		<path class="st8" d="M0.8,1.9c0-0.6,0.1-1,0.4-1.3s0.7-0.5,1.3-0.5s1,0.2,1.3,0.5s0.4,0.8,0.4,1.3v3.8c0,0.6-0.1,1-0.4,1.3
			S3.1,7.5,2.5,7.5S1.5,7.3,1.2,7S0.8,6.2,0.8,5.7V1.9z M1.6,5.7c0,0.3,0.1,0.6,0.2,0.8c0.1,0.2,0.4,0.3,0.6,0.3
			c0.3,0,0.5-0.1,0.7-0.3c0.1-0.2,0.2-0.4,0.2-0.8V1.9c0-0.3-0.1-0.6-0.2-0.8C3,0.9,2.7,0.8,2.4,0.8S1.9,0.9,1.8,1.1
			C1.7,1.3,1.6,1.5,1.6,1.9V5.7z"/>
		<polygon class="st8" points="7.4,3.5 7.4,4.2 5.7,4.2 5.7,7.3 4.9,7.3 4.9,0 7.8,0 7.8,0.7 5.7,0.7 5.7,3.3 7.4,3.3 		"/>
		<polygon class="st8" points="10.9,3.5 10.9,4.2 9.2,4.2 9.2,7.3 8.4,7.3 8.4,0 11.3,0 11.3,0.7 9.2,0.7 9.2,3.3 10.9,3.3 		"/>
		<polygon class="st8" points="12.8,0.2 12.8,7.5 12,7.5 12,0.2 		"/>
		<path class="st8" d="M15.2,0.1c0.6,0,1,0.2,1.2,0.5c0.3,0.3,0.4,0.8,0.4,1.3v0.7H16V1.9c0-0.3-0.1-0.6-0.2-0.8
			c-0.1-0.2-0.4-0.3-0.6-0.3c-0.3,0-0.5,0.1-0.6,0.3c-0.1,0.2-0.2,0.4-0.2,0.8v3.8c0,0.3,0.1,0.6,0.2,0.8c0.1,0.2,0.4,0.3,0.6,0.3
			c0.3,0,0.5-0.1,0.6-0.3C15.9,6.3,16,6.1,16,5.7V4.8h0.8v0.9c0,0.6-0.1,1-0.4,1.3c-0.3,0.3-0.7,0.5-1.2,0.5c-0.6,0-1-0.2-1.2-0.5
			s-0.4-0.8-0.4-1.3V1.9c0-0.3,0-0.5,0.1-0.8c0.1-0.2,0.2-0.4,0.3-0.6s0.3-0.3,0.5-0.4S14.9,0.1,15.2,0.1z"/>
		<polygon class="st8" points="18.4,0.2 18.4,7.5 17.6,7.5 17.6,0.2 		"/>
		<path class="st8" d="M20,6l-0.3,1.5H19l1.4-7.3h1.2L23,7.5h-0.8L21.9,6H20z M20.1,5.3h1.6l-0.8-4.2L20.1,5.3z"/>
		<polygon class="st8" points="23.6,7.4 23.6,0.1 24.4,0.1 24.4,6.6 26.5,6.6 26.5,7.3 23.6,7.3 		"/>
		<polygon class="st8" points="29.3,0.2 30.5,6.5 31.7,0.2 32.4,0.2 31,7.5 29.8,7.5 28.4,0.2 		"/>
		<polygon class="st8" points="33.8,0.2 33.8,7.5 33,7.5 33,0.2 		"/>
		<path class="st8" d="M36.2,0.1c0.6,0,1,0.2,1.2,0.5c0.3,0.3,0.4,0.8,0.4,1.3v0.2H37V1.9c0-0.3-0.1-0.6-0.2-0.8
			c-0.1-0.2-0.3-0.3-0.6-0.3s-0.5,0.1-0.6,0.3c-0.1,0.2-0.2,0.4-0.2,0.8c0,0.3,0.1,0.5,0.2,0.7c0.1,0.2,0.3,0.4,0.5,0.6
			c0.2,0.2,0.4,0.3,0.6,0.5s0.4,0.3,0.6,0.5c0.2,0.2,0.3,0.4,0.5,0.7C38,5.2,38,5.4,38,5.8c0,0.6-0.1,1-0.4,1.3
			c-0.3,0.3-0.7,0.5-1.2,0.5s-1-0.2-1.2-0.5c-0.3-0.3-0.4-0.8-0.4-1.3V5.4h0.8v0.5c0,0.3,0.1,0.6,0.2,0.8C35.9,6.9,36.2,7,36.4,7
			c0.3,0,0.5-0.1,0.6-0.3c0.1-0.2,0.2-0.4,0.2-0.8c0-0.3-0.1-0.5-0.2-0.7c-0.1-0.2-0.3-0.4-0.5-0.5c-0.2-0.2-0.4-0.3-0.6-0.5
			c-0.2-0.2-0.4-0.3-0.6-0.5S35,3.3,34.8,3c-0.1-0.2-0.2-0.5-0.2-0.9c0-0.6,0.1-1,0.4-1.3C35.2,0.2,35.6,0.1,36.2,0.1z"/>
		<polygon class="st8" points="39.3,0.2 39.3,7.5 38.5,7.5 38.5,0.2 		"/>
		<polygon class="st8" points="41.2,7.4 41.2,0.9 39.9,0.9 39.9,0.2 43.4,0.2 43.4,0.9 42,0.9 42,7.4 		"/>
		<path class="st8" d="M45.4,0.1c0.6,0,1,0.2,1.2,0.5C46.8,0.9,47,1.4,47,1.9v0.2h-0.8V1.9c0-0.3-0.1-0.6-0.2-0.8s-0.3-0.3-0.6-0.3
			c-0.3,0-0.5,0.1-0.6,0.3c-0.1,0.2-0.2,0.4-0.2,0.8c0,0.3,0.1,0.5,0.2,0.7c0.1,0.2,0.3,0.4,0.5,0.6s0.4,0.3,0.6,0.5
			c0.2,0.2,0.4,0.3,0.6,0.5c0.2,0.2,0.3,0.4,0.5,0.7c0.2,0.3,0.2,0.5,0.2,0.9c0,0.6-0.1,1-0.4,1.3c-0.3,0.3-0.7,0.5-1.2,0.5
			c-0.6,0-1-0.2-1.2-0.5C44.1,6.8,44,6.3,44,5.8V5.4h0.8v0.5c0,0.3,0.1,0.6,0.2,0.8C45.1,6.9,45.4,7,45.6,7c0.2,0,0.5-0.1,0.6-0.3
			c0.1-0.2,0.2-0.4,0.2-0.8c0-0.3-0.1-0.5-0.2-0.7c-0.1-0.2-0.3-0.4-0.5-0.5c-0.2-0.2-0.4-0.3-0.6-0.5c-0.2-0.2-0.4-0.3-0.6-0.5
			S44.2,3.3,44,3c-0.1-0.2-0.2-0.5-0.2-0.9c0-0.6,0.1-1,0.4-1.3C44.5,0.2,44.9,0.1,45.4,0.1z"/>
	</g>
	<g>
		<path class="st8" d="M116.4,104l4.4-10.5h2.6V104h1.1v2.2h-1.1v2.8H121v-2.8h-4.7V104z M121.1,104v-5.8l-2.5,5.8H121.1z"/>
	</g>
	<g>
		<path class="st8" d="M133.6,105.1c0,1.2-0.3,2.2-1,2.9c-0.6,0.7-1.6,1-2.8,1s-2.2-0.3-2.8-1c-0.6-0.7-1-1.6-1-2.9v-1.2
			c0-0.8,0.1-1.4,0.3-2s0.6-1,1.1-1.3c-1-0.6-1.5-1.6-1.5-3.1v-0.5c0-1.2,0.3-2.2,1-2.9c0.6-0.7,1.6-1,2.8-1s2.2,0.3,2.8,1
			c0.6,0.7,1,1.6,1,2.9v0.5c0,1.5-0.5,2.5-1.5,3.1c0.5,0.3,0.9,0.7,1.1,1.3c0.3,0.6,0.3,1.2,0.3,2V105.1z M128.4,98
			c0,0.6,0.1,1.1,0.4,1.3c0.3,0.3,0.6,0.3,1,0.3c0.4,0,0.7-0.1,1-0.3s0.4-0.7,0.4-1.3v-0.8c0-0.7-0.1-1.1-0.4-1.4
			c-0.3-0.3-0.6-0.4-1-0.4s-0.7,0.1-1,0.4c-0.3,0.3-0.4,0.7-0.4,1.4V98z M128.4,105c0,0.7,0.1,1.1,0.4,1.4c0.3,0.3,0.6,0.3,1,0.3
			s0.7-0.1,1-0.3c0.3-0.3,0.4-0.7,0.4-1.4v-1.4c0-0.6-0.1-1.1-0.4-1.3c-0.3-0.3-0.6-0.4-1-0.4s-0.8,0.1-1,0.4
			c-0.3,0.3-0.4,0.7-0.4,1.3L128.4,105L128.4,105z"/>
	</g>
	<path class="st8" d="M139.8,97.2c0-0.7-0.1-1.1-0.3-1.4c-0.2-0.3-0.6-0.4-0.9-0.4c-0.4,0-0.7,0.1-0.9,0.3c-0.2,0.2-0.3,0.6-0.3,1.2
		v1.7H135v-1.5c0-1.2,0.3-2.2,0.9-2.9c0.6-0.7,1.5-1,2.7-1s2.1,0.3,2.7,1c0.6,0.7,0.9,1.6,0.9,2.9c0,0.8-0.1,1.5-0.3,2.2
		c-0.3,0.6-0.6,1.2-0.9,1.8c-0.4,0.6-0.8,1-1.2,1.5c-0.4,0.5-0.8,0.9-1.2,1.3c-0.3,0.4-0.7,0.8-0.9,1.2c-0.3,0.4-0.3,0.8-0.3,1.2
		c0,0.1,0,0.3,0,0.3h4.6v2.2H135V107c0-0.8,0.1-1.4,0.3-2c0.3-0.6,0.6-1.1,0.9-1.6c0.3-0.5,0.8-0.9,1.1-1.4c0.4-0.4,0.8-0.8,1.1-1.3
		c0.3-0.5,0.7-1,0.9-1.5C139.7,98.7,139.8,98,139.8,97.2z"/>
	<path class="st8" d="M152.1,97.2c0-0.7-0.1-1.1-0.3-1.4c-0.2-0.3-0.6-0.4-0.9-0.4c-0.4,0-0.7,0.1-0.9,0.3c-0.2,0.2-0.3,0.6-0.3,1.2
		v1.7h-2.3v-1.5c0-1.2,0.3-2.2,0.9-2.9c0.6-0.7,1.5-1,2.7-1s2.1,0.3,2.7,1c0.6,0.7,0.9,1.6,0.9,2.9c0,0.8-0.1,1.5-0.3,2.2
		c-0.3,0.6-0.6,1.2-0.9,1.8c-0.4,0.6-0.8,1-1.2,1.5c-0.4,0.5-0.8,0.9-1.2,1.3c-0.3,0.4-0.7,0.8-0.9,1.2c-0.3,0.4-0.3,0.8-0.3,1.2
		c0,0.1,0,0.3,0,0.3h4.6v2.2h-7.1V107c0-0.8,0.1-1.4,0.3-2c0.3-0.6,0.6-1.1,0.9-1.6c0.3-0.5,0.8-0.9,1.1-1.4
		c0.4-0.4,0.8-0.8,1.1-1.3c0.3-0.5,0.7-1,0.9-1.5C152,98.7,152.1,98,152.1,97.2z"/>
	<path class="st8" d="M160.8,97.2c0-0.7-0.1-1.1-0.3-1.4c-0.2-0.3-0.6-0.4-0.9-0.4c-0.4,0-0.7,0.1-0.9,0.3c-0.2,0.2-0.3,0.6-0.3,1.2
		v1.7H156v-1.5c0-1.2,0.3-2.2,0.9-2.9c0.6-0.7,1.5-1,2.7-1s2.1,0.3,2.7,1c0.6,0.7,0.9,1.6,0.9,2.9c0,0.8-0.1,1.5-0.3,2.2
		c-0.3,0.6-0.6,1.2-0.9,1.8c-0.4,0.6-0.8,1-1.2,1.5c-0.4,0.5-0.8,0.9-1.2,1.3c-0.3,0.4-0.7,0.8-0.9,1.2c-0.3,0.4-0.3,0.8-0.3,1.2
		c0,0.1,0,0.3,0,0.3h4.6v2.2H156V107c0-0.8,0.1-1.4,0.3-2c0.3-0.6,0.6-1.1,0.9-1.6c0.3-0.5,0.8-0.9,1.1-1.4c0.4-0.4,0.8-0.8,1.1-1.3
		c0.3-0.5,0.7-1,0.9-1.5C160.7,98.7,160.8,98,160.8,97.2z"/>
	<path class="st8" d="M164.7,95.5c0.5,0,0.8,0,1.1-0.2c0.3-0.1,0.6-0.3,0.7-0.4c0.2-0.2,0.3-0.4,0.5-0.6c0.1-0.3,0.2-0.5,0.3-0.8
		h1.6V109h-2.4V97.2h-1.9V95.5z"/>
	<g transform="translate(115 115)">
		<polygon class="st8" points="4.2,12.9 6,0.6 8.2,0.6 5.9,15.7 2.4,15.7 0.1,0.6 2.5,0.6 		"/>
		<polygon class="st8" points="9.3,0.5 11.7,0.5 11.7,15.6 9.3,15.6 		"/>
		<path class="st8" d="M13.1,4.2C13.1,3,13.4,2,14,1.4c0.6-0.7,1.5-1,2.6-1c1.2,0,2,0.3,2.6,1c0.6,0.7,0.9,1.6,0.9,2.8v0.5h-2.2V4
			c0-0.5-0.1-0.9-0.3-1.2c-0.2-0.2-0.5-0.3-0.9-0.3c-0.4,0-0.7,0.1-0.9,0.3S15.5,3.4,15.5,4c0,0.5,0.1,1,0.3,1.4s0.5,0.8,0.9,1.1
			c0.3,0.4,0.7,0.7,1.1,1.1c0.4,0.4,0.8,0.7,1.1,1.2c0.3,0.4,0.6,0.9,0.9,1.4c0.2,0.5,0.3,1.2,0.3,1.9c0,1.2-0.3,2.2-0.9,2.8
			c-0.6,0.6-1.5,1-2.6,1s-2-0.3-2.6-1c-0.6-0.7-0.9-1.6-0.9-2.8v-0.9h2.2v1.1c0,0.5,0.1,0.9,0.3,1.1c0.2,0.2,0.5,0.3,0.9,0.3
			s0.7-0.1,0.9-0.3c0.2-0.2,0.3-0.6,0.3-1.1s-0.1-1-0.3-1.4c-0.2-0.4-0.5-0.8-0.9-1.1c-0.3-0.4-0.7-0.7-1.1-1.1
			C15,8.3,14.6,8,14.3,7.5c-0.3-0.4-0.6-0.9-0.9-1.4C13.3,5.5,13.1,4.9,13.1,4.2z"/>
		<polygon class="st8" points="21.5,0.5 23.9,0.5 23.9,15.6 21.5,15.6 		"/>
		<polygon class="st8" points="24.9,0.5 32.2,0.5 32.2,2.7 29.7,2.7 29.7,15.7 27.3,15.7 27.3,2.7 24.8,2.7 24.8,0.5 		"/>
		<path class="st8" d="M33.1,4.2C33.1,3,33.4,2,34,1.4s1.5-1,2.7-1s2.1,0.3,2.7,1C40,2.1,40.3,3,40.3,4.2v7.9c0,1.2-0.3,2.2-0.9,2.8
			c-0.6,0.6-1.5,1-2.7,1s-2.1-0.3-2.7-1c-0.6-0.7-0.9-1.6-0.9-2.8V4.2z M35.5,12.2c0,0.5,0.1,0.9,0.3,1.2c0.2,0.2,0.5,0.3,0.9,0.3
			c0.4,0,0.7-0.1,0.9-0.3c0.2-0.2,0.3-0.6,0.3-1.2V4c0-0.5-0.1-0.9-0.3-1.2c-0.2-0.2-0.5-0.3-0.9-0.3c-0.4,0-0.7,0.1-0.9,0.3
			S35.5,3.4,35.5,4V12.2z M46.8,15.7c0-0.1-0.1-0.2-0.1-0.3c0-0.1-0.1-0.2-0.1-0.3c0-0.1,0-0.3,0-0.5c0-0.2,0-0.5,0-0.8v-2.4
			c0-0.7-0.1-1.2-0.4-1.5C46,9.6,45.6,9.5,45,9.5h-0.8v6.2h-2.4V0.6h3.6c1.2,0,2.1,0.3,2.7,0.9c0.6,0.6,0.8,1.4,0.8,2.6v1.2
			c0,1.6-0.5,2.6-1.6,3.1c0.6,0.2,1,0.6,1.2,1.2c0.2,0.6,0.3,1.2,0.3,2v2.3c0,0.4,0,0.7,0,1c0,0.3,0.1,0.6,0.2,0.9h-2.2V15.7z
			 M44.2,2.7v4.6h0.9c0.4,0,0.8-0.1,1-0.3c0.2-0.2,0.4-0.6,0.4-1.3V4.2c0-0.5-0.1-0.9-0.3-1.2c-0.2-0.2-0.5-0.4-0.9-0.4h-1.1V2.7z
			 M50.2,4.2c0-1.2,0.3-2.2,0.9-2.8c0.6-0.6,1.5-1,2.6-1c1.2,0,2,0.3,2.6,1c0.6,0.7,0.9,1.6,0.9,2.8v0.5H55V4c0-0.5-0.1-0.9-0.3-1.2
			c-0.2-0.2-0.5-0.3-0.9-0.3c-0.4,0-0.7,0.1-0.9,0.3C52.7,3,52.6,3.4,52.6,4c0,0.5,0.1,1,0.3,1.4c0.2,0.4,0.5,0.8,0.9,1.1
			c0.4,0.3,0.7,0.7,1.1,1.1C55.3,8,55.7,8.3,56,8.8c0.3,0.4,0.6,0.9,0.9,1.4c0.2,0.5,0.3,1.2,0.3,1.9c0,1.2-0.3,2.2-0.9,2.8
			c-0.6,0.6-1.5,1-2.6,1c-1.2,0-2-0.3-2.6-1c-0.6-0.7-0.9-1.6-0.9-2.8v-0.9h2.2v1.1c0,0.5,0.1,0.9,0.3,1.1c0.2,0.2,0.5,0.3,0.9,0.3
			c0.4,0,0.7-0.1,0.9-0.3c0.2-0.2,0.3-0.6,0.3-1.1s-0.1-1-0.3-1.4c-0.2-0.4-0.5-0.8-0.9-1.1c-0.3-0.4-0.7-0.7-1.1-1.1
			c-0.4-0.4-0.8-0.7-1.1-1.2c-0.3-0.4-0.6-0.9-0.9-1.4C50.4,5.5,50.2,4.9,50.2,4.2z"/>
	</g>
	<path class="st12" d="M133.2,241.4l1.5-10.1h3.1v14.3h-2.1v-10.2l-1.5,10.2H132l-1.7-10.1v10.1h-2v-14.3h3.1L133.2,241.4z
		 M139.4,231.3h2.2v14.3h-2.2V231.3z M143.3,231.3h2.2v12.2h3.7v2h-5.9V231.3z M150.2,231.3h2.2v12.2h3.7v2h-5.9V231.3z
		 M157.1,231.3h2.2v14.3h-2.2V231.3z M163,242.3c0,0.5,0.1,0.9,0.3,1.1c0.2,0.2,0.5,0.3,0.8,0.3s0.6-0.1,0.8-0.3
		c0.2-0.2,0.3-0.6,0.3-1.1v-7.7c0-0.5-0.1-0.9-0.3-1.1c-0.2-0.2-0.5-0.3-0.8-0.3s-0.6,0.1-0.8,0.3c-0.2,0.2-0.3,0.6-0.3,1.1V242.3z
		 M160.8,234.7c0-1.2,0.3-2,0.9-2.7c0.6-0.6,1.4-0.9,2.5-0.9s1.9,0.3,2.5,0.9c0.6,0.6,0.9,1.5,0.9,2.7v7.4c0,1.2-0.3,2-0.9,2.7
		c-0.6,0.6-1.4,0.9-2.5,0.9s-1.9-0.3-2.5-0.9c-0.6-0.6-0.9-1.5-0.9-2.7V234.7z M171,235.2v10.3h-2v-14.3h2.8l2.3,8.5v-8.5h2v14.3
		h-2.3L171,235.2z M177.4,234.7c0-1.2,0.3-2,0.8-2.7c0.5-0.6,1.4-0.9,2.5-0.9c1.1,0,1.9,0.3,2.5,0.9c0.5,0.6,0.8,1.5,0.8,2.7v0.4
		h-2.1v-0.6c0-0.5-0.1-0.9-0.3-1.1c-0.2-0.2-0.5-0.3-0.8-0.3c-0.4,0-0.6,0.1-0.8,0.3c-0.2,0.2-0.3,0.6-0.3,1.1
		c0,0.5,0.1,0.9,0.3,1.3c0.2,0.4,0.5,0.7,0.8,1.1c0.3,0.3,0.7,0.7,1,1c0.4,0.3,0.7,0.7,1,1.1c0.3,0.4,0.6,0.8,0.8,1.3
		c0.2,0.5,0.3,1.1,0.3,1.8c0,1.2-0.3,2-0.8,2.7c-0.6,0.6-1.4,0.9-2.5,0.9s-1.9-0.3-2.5-0.9c-0.6-0.6-0.8-1.5-0.8-2.7v-0.9h2.1v1
		c0,0.5,0.1,0.9,0.3,1.1c0.2,0.2,0.5,0.3,0.8,0.3c0.4,0,0.6-0.1,0.8-0.3c0.2-0.2,0.3-0.6,0.3-1.1c0-0.5-0.1-0.9-0.3-1.3
		c-0.2-0.4-0.5-0.7-0.8-1.1c-0.3-0.3-0.7-0.7-1-1c-0.4-0.3-0.7-0.7-1-1.1s-0.6-0.8-0.8-1.3S177.4,235.4,177.4,234.7z"/>
	<path class="st12" d="M106.5,240.9l4.1-9.6h2.4v9.6h1.1v2H113v2.6h-2.2v-2.6h-4.3V240.9z M110.9,240.9v-5.4l-2.3,5.4H110.9z"/>
	<path class="st12" d="M119.7,240.8v1.3c0,0.5,0.1,0.9,0.3,1.1c0.2,0.2,0.5,0.3,0.8,0.3c0.4,0,0.6-0.1,0.8-0.3
		c0.2-0.2,0.3-0.6,0.3-1.1V239c0-0.5-0.1-0.9-0.3-1.1c-0.2-0.2-0.5-0.3-0.8-0.3c-0.4,0-0.6,0.1-0.8,0.3c-0.2,0.2-0.3,0.6-0.3,1.1
		v0.4h-2.1l0.4-8.3h5.9v2H120l-0.2,3.4c0.4-0.7,1.1-1,2-1c0.8,0,1.4,0.3,1.9,0.8c0.4,0.6,0.6,1.4,0.6,2.4v3.2c0,1.2-0.3,2-0.8,2.7
		s-1.4,0.9-2.5,0.9c-1.1,0-1.9-0.3-2.5-0.9s-0.8-1.5-0.8-2.7v-1.2H119.7z"/>
	<g>
		<path class="st12" d="M114.7,247c0.7-0.3,1.3-0.8,1.3-1.3c0-0.5-0.5-0.7-1-0.8c-0.1,0-0.3-0.2-0.3-0.5c0-0.4,0.3-0.8,0.9-0.8
			c0.6,0,1.3,0.5,1.3,1.7c0,1.2-1.1,2-2,2.3L114.7,247z"/>
	</g>
	<path class="st11" d="M250.3,169.6c0,1.2-0.3,2.2-1,2.9c-0.6,0.7-1.6,1-2.8,1c-1.2,0-2.2-0.3-2.8-1c-0.6-0.7-1-1.6-1-2.9v-1.2
		c0-0.7,0.1-1.4,0.4-1.9c0.2-0.6,0.6-1,1.1-1.3c-1-0.5-1.5-1.6-1.5-3.1v-0.5c0-1.2,0.3-2.2,1-2.9c0.6-0.7,1.6-1,2.8-1
		c1.2,0,2.2,0.3,2.8,1c0.6,0.7,1,1.6,1,2.9v0.5c0,1.5-0.5,2.5-1.5,3.1c0.5,0.3,0.9,0.7,1.1,1.3c0.2,0.6,0.4,1.2,0.4,1.9V169.6z
		 M245.1,169.6c0,0.7,0.1,1.2,0.4,1.4s0.6,0.4,1,0.4c0.4,0,0.7-0.1,1-0.4s0.4-0.7,0.4-1.4v-1.4c0-0.6-0.1-1.1-0.4-1.3
		c-0.2-0.3-0.6-0.4-1-0.4c-0.4,0-0.8,0.1-1,0.4c-0.2,0.3-0.4,0.7-0.4,1.3V169.6z M245.1,162.6c0,0.6,0.1,1,0.4,1.3
		c0.3,0.2,0.6,0.4,1,0.4c0.4,0,0.7-0.1,1-0.4s0.4-0.7,0.4-1.3v-0.9c0-0.7-0.1-1.2-0.4-1.4c-0.3-0.2-0.6-0.4-1-0.4
		c-0.4,0-0.7,0.1-1,0.4c-0.3,0.2-0.4,0.7-0.4,1.4V162.6z M258.8,168.3v1.4c0,0.6,0.1,0.9,0.3,1.2c0.2,0.2,0.5,0.3,0.9,0.3
		c0.4,0,0.7-0.1,0.9-0.3c0.2-0.2,0.3-0.6,0.3-1.2v-3.4c0-0.6-0.1-1-0.3-1.2c-0.2-0.2-0.5-0.3-0.9-0.3c-0.4,0-0.7,0.1-0.9,0.3
		c-0.2,0.2-0.3,0.6-0.3,1.2v0.5h-2.3l0.4-8.9h6.4v2.2h-4.2l-0.2,3.7c0.5-0.7,1.2-1.1,2.1-1.1c0.9,0,1.6,0.3,2,0.9s0.7,1.5,0.7,2.6
		v3.4c0,1.2-0.3,2.2-0.9,2.9c-0.6,0.7-1.5,1-2.7,1c-1.2,0-2.1-0.3-2.7-1c-0.6-0.7-0.9-1.6-0.9-2.9v-1.3H258.8z M270,161.7
		c0-0.7-0.1-1.2-0.3-1.4c-0.2-0.2-0.5-0.4-0.9-0.4s-0.7,0.1-0.9,0.3c-0.2,0.2-0.3,0.6-0.3,1.2v1h-2.3v-0.8c0-1.2,0.3-2.2,0.9-2.9
		c0.6-0.7,1.5-1,2.7-1c1.2,0,2.1,0.3,2.7,1c0.6,0.7,0.9,1.6,0.9,2.9v0.4c0,1.6-0.6,2.7-1.7,3.2c0.6,0.3,1.1,0.7,1.3,1.2
		c0.3,0.6,0.4,1.2,0.4,2v1.2c0,1.2-0.3,2.2-0.9,2.9c-0.6,0.7-1.5,1-2.7,1c-1.2,0-2.1-0.3-2.7-1c-0.6-0.7-0.9-1.6-0.9-2.9v-1.3h2.3
		v1.4c0,0.6,0.1,1,0.3,1.2s0.5,0.3,0.9,0.3s0.7-0.1,0.9-0.4c0.2-0.2,0.3-0.7,0.3-1.4v-1.2c0-0.7-0.1-1.2-0.4-1.5
		c-0.2-0.3-0.7-0.4-1.2-0.4h-0.8v-2.2h0.9c0.5,0,0.8-0.1,1.1-0.4c0.3-0.2,0.4-0.7,0.4-1.3V161.7z M279.2,161.8
		c0-0.7-0.1-1.1-0.3-1.4c-0.2-0.3-0.6-0.4-0.9-0.4s-0.7,0.1-0.9,0.3c-0.2,0.2-0.3,0.6-0.3,1.2v1.7h-2.3v-1.5c0-1.2,0.3-2.2,0.9-2.9
		c0.6-0.7,1.5-1,2.7-1s2.1,0.3,2.7,1c0.6,0.7,0.9,1.6,0.9,2.9c0,0.8-0.1,1.5-0.3,2.2c-0.3,0.6-0.6,1.2-0.9,1.8
		c-0.4,0.6-0.8,1-1.2,1.5c-0.4,0.5-0.8,0.9-1.2,1.3c-0.3,0.4-0.7,0.8-0.9,1.2c-0.3,0.4-0.3,0.8-0.3,1.2c0,0.1,0,0.3,0,0.3h4.6v2.2
		h-7v-1.9c0-0.8,0.1-1.4,0.3-2c0.3-0.6,0.6-1.1,0.9-1.6c0.3-0.5,0.8-0.9,1.1-1.4c0.4-0.4,0.8-0.8,1.1-1.3c0.3-0.5,0.7-1,0.9-1.5
		C279,163.3,279.2,162.6,279.2,161.8z"/>
</g>
<path class="st11" d="M25.6,54.1c0.5,0,0.9,0,1.2-0.2c0.3-0.1,0.6-0.3,0.7-0.4c0.2-0.2,0.3-0.4,0.5-0.6c0.1-0.3,0.2-0.5,0.3-0.8h1.6
	v15.6h-2.4V55.8h-1.9V54.1z"/>
<path class="st10" d="M32.5,165.4c0-0.7-0.1-1.1-0.3-1.4c-0.2-0.2-0.5-0.4-0.9-0.4s-0.7,0.1-0.9,0.3c-0.2,0.2-0.3,0.6-0.3,1.2v1.6
	h-2.3v-1.5c0-1.2,0.3-2.2,0.9-2.9c0.6-0.7,1.5-1,2.7-1c1.2,0,2.1,0.3,2.7,1c0.6,0.7,0.9,1.6,0.9,2.9c0,0.8-0.1,1.5-0.4,2.2
	c-0.2,0.6-0.5,1.2-0.9,1.8c-0.4,0.5-0.7,1-1.2,1.5c-0.4,0.5-0.8,0.9-1.2,1.3c-0.4,0.4-0.7,0.8-0.9,1.2c-0.2,0.4-0.4,0.8-0.4,1.2
	c0,0.1,0,0.3,0,0.3h4.6v2.2h-7v-1.9c0-0.7,0.1-1.4,0.4-2c0.2-0.6,0.5-1.1,0.9-1.6c0.4-0.5,0.7-0.9,1.1-1.3c0.4-0.4,0.8-0.9,1.1-1.3
	c0.4-0.5,0.7-1,0.9-1.5C32.4,166.8,32.5,166.1,32.5,165.4z"/>
<path class="st8" d="M143,141.1c0.7,0,1.1,0.2,1.4,0.6c0.3,0.4,0.5,0.9,0.5,1.5v0.2c0,0.4-0.1,0.8-0.3,1.1c-0.2,0.3-0.4,0.5-0.8,0.6
	c0.4,0.1,0.6,0.4,0.8,0.7c0.2,0.3,0.2,0.7,0.2,1.1v0.7c0,0.7-0.2,1.2-0.5,1.6c-0.3,0.4-0.8,0.6-1.4,0.6c-0.6,0-1.1-0.2-1.4-0.6
	s-0.5-0.9-0.5-1.5V147h0.9v0.6c0,0.4,0.1,0.7,0.2,0.9c0.2,0.2,0.4,0.3,0.7,0.3c0.3,0,0.6-0.1,0.8-0.3c0.2-0.2,0.2-0.5,0.2-1v-0.7
	c0-0.8-0.4-1.2-1.1-1.3h-0.5v-0.8h0.6c0.3,0,0.6-0.1,0.7-0.3c0.2-0.2,0.3-0.5,0.3-0.8v-0.4c0-0.4-0.1-0.8-0.2-1
	c-0.2-0.2-0.4-0.3-0.8-0.3c-0.3,0-0.6,0.1-0.7,0.3c-0.2,0.2-0.2,0.5-0.2,0.9v0.4h-0.9v-0.4c0-0.7,0.2-1.2,0.5-1.5
	C141.9,141.3,142.3,141.1,143,141.1z"/>
<path class="st8" d="M147.6,141.1c0.7,0,1.1,0.2,1.4,0.6c0.3,0.4,0.5,0.9,0.5,1.5v0.2c0,0.4-0.1,0.8-0.3,1.1
	c-0.2,0.3-0.4,0.5-0.8,0.6c0.4,0.1,0.6,0.4,0.8,0.7c0.2,0.3,0.2,0.7,0.2,1.1v0.7c0,0.7-0.2,1.2-0.5,1.6c-0.3,0.4-0.8,0.6-1.4,0.6
	c-0.6,0-1.1-0.2-1.4-0.6s-0.5-0.9-0.5-1.5V147h0.9v0.6c0,0.4,0.1,0.7,0.2,0.9c0.2,0.2,0.4,0.3,0.7,0.3c0.3,0,0.6-0.1,0.8-0.3
	c0.2-0.2,0.2-0.5,0.2-1v-0.7c0-0.8-0.4-1.2-1.1-1.3H147v-0.8h0.6c0.3,0,0.6-0.1,0.7-0.3c0.2-0.2,0.3-0.5,0.3-0.8v-0.4
	c0-0.4-0.1-0.8-0.2-1c-0.2-0.2-0.4-0.3-0.8-0.3c-0.3,0-0.6,0.1-0.7,0.3c-0.2,0.2-0.2,0.5-0.2,0.9v0.4h-0.9v-0.4
	c0-0.7,0.2-1.2,0.5-1.5C146.5,141.3,146.9,141.1,147.6,141.1z"/>
<g>
	<path class="st8" d="M155.8,147.3h-0.7v-6.1h-1.2l-2.5,5.9v1h2.7v1.6h1v-1.6h0.7V147.3z M154.2,147.3h-1.9l1.9-4.5V147.3z"/>
	<g>
		<path class="st8" d="M156.7,143.3c0-0.7,0.2-1.2,0.5-1.5c0.3-0.4,0.8-0.6,1.5-0.6c0.7,0,1.1,0.2,1.5,0.6c0.3,0.4,0.5,0.9,0.5,1.5
			v4.4c0,0.7-0.2,1.2-0.5,1.5c-0.3,0.4-0.8,0.6-1.5,0.6c-0.7,0-1.1-0.2-1.5-0.6c-0.3-0.4-0.5-0.9-0.5-1.5V143.3z M157.7,147.7
			c0,0.4,0.1,0.7,0.2,0.9c0.2,0.2,0.4,0.3,0.7,0.3s0.6-0.1,0.7-0.3c0.2-0.2,0.2-0.5,0.2-0.9v-4.4c0-0.4-0.1-0.7-0.2-0.9
			c-0.2-0.2-0.4-0.3-0.7-0.3s-0.6,0.1-0.7,0.3c-0.2,0.2-0.2,0.5-0.2,0.9V147.7z"/>
	</g>
	<path class="st8" d="M164.9,141.7c-0.3-0.3-0.8-0.5-1.4-0.5c-0.6,0-1.1,0.2-1.4,0.5c-0.3,0.3-0.5,0.9-0.5,1.5v0.7h1v-0.8
		c0-0.3,0.1-0.6,0.2-0.8c0.2-0.2,0.4-0.2,0.6-0.2c0.3,0,0.5,0.1,0.6,0.3c0.1,0.2,0.2,0.5,0.2,0.9c0,0.4-0.1,0.8-0.2,1.1
		c-0.1,0.3-0.3,0.6-0.5,0.9c-0.2,0.2-0.4,0.5-0.7,0.8c-0.2,0.2-0.4,0.5-0.6,0.7c-0.2,0.3-0.4,0.5-0.5,0.8c-0.1,0.3-0.2,0.7-0.2,1.1
		v0.9h3.6v-0.9h-2.5l0-0.1c0-0.1,0-0.2,0-0.3c0-0.3,0.1-0.6,0.2-0.8c0.1-0.2,0.2-0.3,0.4-0.5l0.1-0.2c0.2-0.2,0.4-0.5,0.7-0.7
		c0.3-0.3,0.5-0.5,0.7-0.8c0.2-0.3,0.3-0.6,0.5-1c0.1-0.4,0.2-0.8,0.2-1.2C165.4,142.6,165.2,142.1,164.9,141.7z"/>
</g>
<path class="st9" d="M134.6,10.5L139,0.1h2.6v10.4h1.1v2.2h-1.1v2.8h-2.4v-2.8h-4.6V10.5z M139.3,10.5V4.7l-2.5,5.8H139.3z"/>
<g>
	<path class="st8" d="M172.4,92.5l-0.4,0.6v0l0.7-0.1v0.3l-0.7-0.1v0l0.4,0.5l-0.3,0.2l-0.3-0.6h0l-0.3,0.6l-0.3-0.2l0.4-0.5v0
		l-0.7,0.1V93l0.7,0.1v0l-0.4-0.5l0.3-0.2l0.3,0.6h0l0.3-0.6L172.4,92.5z"/>
</g>
<text transform="matrix(1 0 0 1 119.1002 179.7998)" class="st13 st14 st15">Early closing of #SIA2020</text>
<g>
	<path class="st8" d="M117.2,176l-0.4,0.6v0l0.7-0.1v0.3l-0.7-0.1v0l0.4,0.5l-0.3,0.2l-0.3-0.6h0l-0.3,0.6l-0.3-0.2l0.4-0.5v0
		l-0.7,0.1v-0.3l0.7,0.1v0l-0.4-0.5l0.3-0.2l0.3,0.6h0l0.3-0.6L117.2,176z"/>
</g>
</svg>
