<?xml version="1.0" encoding="utf-8"?>
<!-- Generator: Adobe Illustrator 24.1.2, SVG Export Plug-In . SVG Version: 6.00 Build 0)  -->
<svg version="1.1" id="Calque_1" xmlns="http://www.w3.org/2000/svg" xmlns:xlink="http://www.w3.org/1999/xlink" x="0px" y="0px"
	 viewBox="0 0 298 274" style="enable-background:new 0 0 298 274;" xml:space="preserve">
<style type="text/css">
	.st0{fill-rule:evenodd;clip-rule:evenodd;}
	.st1{filter:url(#graph-exposant-a);}
	.st2{fill-rule:evenodd;clip-rule:evenodd;fill:#FFFFFF;}
	.st3{fill:none;stroke:#F6A924;stroke-width:8.019;}
	.st4{fill:none;stroke:#E30059;stroke-width:8.019;}
	.st5{fill:none;stroke:#009CD8;stroke-width:8.019;}
	.st6{fill:none;stroke:#83B81A;stroke-width:8.019;}
	.st7{fill:#293A4D;}
	.st8{fill:#F6A924;}
	.st9{fill:#83B81A;}
	.st10{fill:#009CD8;}
	.st11{fill:#E30059;}
	.st12{fill:#6F808C;}
	.st13{font-family:'Akrobat-SemiBold';}
	.st14{font-size:5px;}
</style>
<filter  filterUnits="objectBoundingBox" height="124.5%" id="graph-exposant-a" width="124.5%" x="-12.3%" y="-11.6%">
	<feOffset  dy="2" in="SourceAlpha" result="shadowOffsetOuter1"></feOffset>
	<feGaussianBlur  in="shadowOffsetOuter1" result="shadowBlurOuter1" stdDeviation="12"></feGaussianBlur>
	<feColorMatrix  in="shadowBlurOuter1" values="0 0 0 0 0   0 0 0 0 0   0 0 0 0 0  0 0 0 0.15271173 0"></feColorMatrix>
</filter>
<g transform="translate(34 9)">
	<g>
		<circle id="graph-exposant-mobile-b" class="st0" cx="116" cy="121" r="67"/>
		<g class="st1">
			<circle id="graph-exposant-b_1_" class="st0" cx="115.2" cy="113.8" r="61.4"/>
		</g>
	</g>
	<circle class="st2" cx="115" cy="119" r="78"/>
	<g>
		<path class="st3" d="M162.8,40.9c28.3,17,44.1,47.1,44.4,78.3"/>
		<path class="st4" d="M70.3,39.2c28.9-16,62.9-14.9,89.9,0.3"/>
		<path class="st5" d="M22.9,117.8c0.9-32.7,18.8-61.3,45-77.2"/>
		<path class="st3" d="M67.2,198.7c-28.3-17-44.1-47.1-44.4-78.3"/>
		<path class="st6" d="M159.7,200.8c-28.9,16-62.9,14.9-89.9-0.3"/>
		<path class="st5" d="M207.1,121.3c-0.9,32.7-18.8,61.3-45,77.2"/>
	</g>
	<g transform="translate(-34 -9)">
		<path class="st7" d="M116.3,22.1l1.1,6.1l1.1-6.1h0.7l-1.3,7h-1.1l-1.3-7H116.3z M120.8,22.1v7H120v-7H120.8z M123.3,22
			c0.5,0,0.9,0.2,1.2,0.5s0.4,0.7,0.4,1.3V24h-0.7v-0.2c0-0.3-0.1-0.6-0.2-0.7c-0.1-0.2-0.3-0.3-0.6-0.3c-0.3,0-0.5,0.1-0.6,0.3
			c-0.1,0.2-0.2,0.4-0.2,0.7c0,0.3,0.1,0.5,0.2,0.7s0.3,0.4,0.4,0.5c0.2,0.2,0.4,0.3,0.6,0.5s0.4,0.3,0.6,0.5s0.3,0.4,0.4,0.6
			s0.2,0.5,0.2,0.8c0,0.5-0.1,1-0.4,1.3s-0.7,0.5-1.2,0.5s-0.9-0.2-1.2-0.5c-0.3-0.3-0.4-0.7-0.4-1.3V27h0.7v0.4
			c0,0.3,0.1,0.6,0.2,0.7c0.1,0.2,0.3,0.3,0.6,0.3c0.3,0,0.5-0.1,0.6-0.3c0.1-0.2,0.2-0.4,0.2-0.7c0-0.3-0.1-0.5-0.2-0.7
			s-0.3-0.4-0.4-0.5s-0.4-0.3-0.6-0.5s-0.4-0.3-0.6-0.5s-0.3-0.4-0.4-0.6s-0.2-0.5-0.2-0.8c0-0.5,0.1-1,0.4-1.3
			C122.4,22.2,122.8,22,123.3,22z M126.5,22.1v7h-0.8v-7H126.5z M128.5,29.1v-6.3h-1.3v-0.7h3.3v0.7h-1.3v6.3
			C129.2,29.1,128.5,29.1,128.5,29.1z M133.8,25.2v0.7H132v2.5h2.1v0.7h-2.9v-7h2.9v0.7H132v2.4C132,25.2,133.8,25.2,133.8,25.2z
			 M136.6,22c0.5,0,0.9,0.2,1.2,0.5s0.4,0.7,0.4,1.3V24h-0.7v-0.2c0-0.3-0.1-0.6-0.2-0.7c-0.1-0.2-0.3-0.3-0.6-0.3s-0.5,0.1-0.6,0.3
			c-0.1,0.2-0.2,0.4-0.2,0.7c0,0.3,0.1,0.5,0.2,0.7c0.1,0.2,0.3,0.4,0.4,0.5c0.2,0.2,0.4,0.3,0.6,0.5c0.2,0.2,0.4,0.3,0.6,0.5
			s0.3,0.4,0.4,0.6c0.1,0.2,0.2,0.5,0.2,0.8c0,0.5-0.1,1-0.4,1.3c-0.3,0.3-0.8,0.4-1.3,0.4s-0.9-0.2-1.2-0.5s-0.4-0.7-0.4-1.3v-0.4
			h0.7v0.4c0,0.3,0.1,0.6,0.2,0.7c0.1,0.2,0.3,0.3,0.6,0.3s0.5-0.1,0.6-0.3c0.1-0.2,0.2-0.4,0.2-0.7c0-0.3-0.1-0.5-0.2-0.7
			c-0.1-0.2-0.3-0.4-0.4-0.5c-0.1-0.1-0.4-0.3-0.6-0.5c-0.2-0.2-0.4-0.3-0.6-0.5c-0.2-0.2-0.3-0.4-0.4-0.6c-0.1-0.2-0.2-0.5-0.2-0.8
			c0-0.5,0.1-1,0.4-1.3C135.6,22.1,136.1,22,136.6,22z M140.7,23.8c0-0.5,0.1-1,0.4-1.3c0.3-0.3,0.7-0.5,1.2-0.5s0.9,0.2,1.2,0.5
			s0.4,0.7,0.4,1.3v3.6c0,0.5-0.1,1-0.4,1.3c-0.3,0.3-0.7,0.5-1.2,0.5s-0.9-0.2-1.2-0.5s-0.4-0.7-0.4-1.3V23.8z M141.5,27.4
			c0,0.3,0.1,0.6,0.2,0.7c0.1,0.2,0.3,0.3,0.6,0.3s0.5-0.1,0.6-0.3c0.1-0.2,0.2-0.4,0.2-0.7v-3.7c0-0.3-0.1-0.6-0.2-0.7
			c-0.1-0.1-0.3-0.3-0.6-0.3s-0.5,0.1-0.6,0.3c-0.1,0.2-0.2,0.4-0.2,0.7V27.4z M147.2,25.3v0.8h-1.6v3h-0.8v-7h2.8v0.7h-2v2.5H147.2
			z M150.8,25.3v0.8h-1.6v3h-0.8v-7h2.8v0.7h-2v2.5H150.8z M152.8,22.1v7H152v-7H152.8z M155.3,22c0.5,0,0.9,0.2,1.2,0.5
			s0.4,0.7,0.4,1.3v0.6h-0.7v-0.7c0-0.3-0.1-0.6-0.2-0.7s-0.3-0.3-0.6-0.3s-0.5,0.1-0.6,0.3c-0.1,0.2-0.2,0.4-0.2,0.7v3.7
			c0,0.3,0.1,0.6,0.2,0.7c0.1,0.2,0.3,0.3,0.6,0.3s0.5-0.1,0.6-0.3c0.1-0.2,0.2-0.4,0.2-0.7v-0.9h0.7v0.9c0,0.5-0.1,1-0.4,1.3
			c-0.3,0.3-0.7,0.5-1.2,0.5s-0.9-0.2-1.2-0.5s-0.4-0.7-0.4-1.3v-3.6c0-0.3,0-0.5,0.1-0.7s0.2-0.4,0.3-0.6s0.3-0.3,0.5-0.4
			C154.8,22.1,155,22,155.3,22z M158.5,22.1v7h-0.8v-7H158.5z M162,25.2v0.7h-1.7v2.5h2.1v0.7h-2.9v-7h2.9v0.7h-2.1v2.4
			C160.3,25.2,162,25.2,162,25.2z M163.3,29.1v-7h0.8v6.3h2v0.7C166.1,29.1,163.3,29.1,163.3,29.1z M166.9,29.1v-7h0.8v6.3h2v0.7
			C169.7,29.1,166.9,29.1,166.9,29.1z M173,25.2v0.7h-1.7v2.5h2.1v0.7h-2.9v-7h2.9v0.7h-2.1v2.4C171.3,25.2,173,25.2,173,25.2z
			 M175.7,22c0.5,0,0.9,0.2,1.2,0.5s0.4,0.7,0.4,1.3V24h-0.7v-0.2c0-0.3-0.1-0.6-0.2-0.7c-0.1-0.2-0.3-0.3-0.6-0.3s-0.5,0.1-0.6,0.3
			c-0.1,0.2-0.2,0.4-0.2,0.7c0,0.3,0.1,0.5,0.2,0.7c0.1,0.2,0.3,0.4,0.4,0.5c0.2,0.2,0.4,0.3,0.6,0.5s0.4,0.3,0.6,0.5
			s0.3,0.4,0.4,0.6c0.1,0.2,0.2,0.5,0.2,0.8c0,0.5-0.1,1-0.4,1.3c-0.3,0.3-0.8,0.4-1.3,0.4s-0.9-0.2-1.2-0.5s-0.4-0.7-0.4-1.3v-0.4
			h0.7v0.4c0,0.3,0.1,0.6,0.2,0.7c0.1,0.2,0.3,0.3,0.6,0.3s0.5-0.1,0.6-0.3c0.1-0.2,0.2-0.4,0.2-0.7c0-0.3-0.1-0.5-0.2-0.7
			c-0.1-0.2-0.3-0.4-0.4-0.5c-0.1-0.1-0.4-0.3-0.6-0.5c-0.2-0.2-0.4-0.3-0.6-0.5c-0.2-0.2-0.3-0.4-0.4-0.6c-0.1-0.2-0.2-0.5-0.2-0.8
			c0-0.5,0.1-1,0.4-1.3C174.7,22.1,175.2,22,175.7,22z M8.9,74.1c0.5,0,0.9,0.2,1.2,0.5s0.4,0.7,0.4,1.3v3.4c0,0.5-0.1,1-0.4,1.3
			c-0.3,0.3-0.7,0.5-1.2,0.5H7.3v-7L8.9,74.1L8.9,74.1z M8.9,80.3c0.3,0,0.5-0.1,0.6-0.3s0.2-0.4,0.2-0.7v-3.6
			c0-0.3-0.1-0.6-0.2-0.7c-0.1-0.2-0.3-0.3-0.6-0.3H8.1v5.6H8.9z M14,72.6l-0.9,1h-0.5l0.7-1H14z M14,77.1v0.7h-1.7v2.5h2.1V81h-2.9
			v-7h2.9v0.7h-2.1v2.4H14z M15.3,81v-7h0.8v6.3h2V81H15.3z M21.3,72.6l-0.9,1h-0.5l0.7-1H21.3z M21.3,77.1v0.7h-1.7v2.5h2.1V81
			h-2.9v-7h2.9v0.7h-2.1v2.4H21.3z M24.1,74c0.5,0,0.9,0.2,1.2,0.5c0.3,0.3,0.4,0.7,0.4,1.3v0.5H25v-0.6c0-0.3-0.1-0.6-0.2-0.7
			c-0.1-0.2-0.3-0.3-0.6-0.3c-0.3,0-0.5,0.1-0.6,0.3s-0.2,0.4-0.2,0.7v3.7c0,0.3,0.1,0.6,0.2,0.7s0.3,0.3,0.6,0.3
			c0.3,0,0.5-0.1,0.6-0.3c0.1-0.2,0.2-0.4,0.2-0.7V78h-0.7v-0.7h1.5v2c0,0.5-0.1,1-0.4,1.3s-0.7,0.5-1.2,0.5s-0.9-0.2-1.2-0.5
			c-0.3-0.3-0.4-0.7-0.4-1.3v-3.6c0-0.3,0-0.5,0.1-0.7s0.2-0.4,0.3-0.6c0.1-0.2,0.3-0.3,0.5-0.4C23.6,74,23.9,74,24.1,74z
			 M27.4,79.6L27.1,81h-0.7l1.3-7h1.1l1.3,7h-0.8l-0.1-1.4H27.4z M27.5,79h1.6l-0.8-4L27.5,79z M31.6,81v-6.3h-1.3V74h3.3v0.7h-1.3
			V81H31.6z M35.2,74.1v7h-0.8v-7H35.2z M36.1,75.7c0-0.5,0.1-1,0.4-1.3c0.3-0.3,0.7-0.5,1.2-0.5s0.9,0.2,1.2,0.5s0.4,0.7,0.4,1.3
			v3.6c0,0.5-0.1,1-0.4,1.3c-0.3,0.3-0.7,0.5-1.2,0.5s-0.9-0.2-1.2-0.5s-0.4-0.7-0.4-1.3V75.7z M36.9,79.4c0,0.3,0.1,0.6,0.2,0.7
			c0.1,0.2,0.3,0.3,0.6,0.3s0.5-0.1,0.6-0.3c0.1-0.2,0.2-0.4,0.2-0.7v-3.7c0-0.3-0.1-0.6-0.2-0.7c-0.1-0.1-0.3-0.3-0.6-0.3
			s-0.5,0.1-0.6,0.3c-0.1,0.2-0.2,0.4-0.2,0.7V79.4z M41,81h-0.7v-7h1l1.6,5v-5h0.7v7h-0.8L41,75.4V81z M46.1,74
			c0.5,0,0.9,0.2,1.2,0.5s0.4,0.7,0.4,1.3V76H47v-0.2c0-0.3-0.1-0.6-0.2-0.7c-0.1-0.2-0.3-0.3-0.6-0.3s-0.5,0.1-0.6,0.3
			c-0.1,0.2-0.2,0.4-0.2,0.7c0,0.3,0.1,0.5,0.2,0.7c0.1,0.2,0.3,0.4,0.4,0.5c0.2,0.2,0.4,0.3,0.6,0.5c0.2,0.2,0.4,0.3,0.6,0.5
			s0.3,0.4,0.4,0.6c0.1,0.2,0.2,0.5,0.2,0.8c0,0.5-0.1,1-0.4,1.3c-0.3,0.3-0.7,0.5-1.2,0.5S45.3,81,45,80.7s-0.4-0.7-0.4-1.3V79h0.7
			v0.4c0,0.3,0.1,0.6,0.2,0.7c0.1,0.2,0.3,0.3,0.6,0.3s0.5-0.1,0.6-0.3c0.1-0.2,0.2-0.4,0.2-0.7c0-0.3-0.1-0.5-0.2-0.7
			c-0.1-0.2-0.3-0.4-0.4-0.5c-0.2-0.2-0.4-0.3-0.6-0.5c-0.2-0.2-0.4-0.3-0.6-0.5c-0.2-0.2-0.3-0.4-0.4-0.6c-0.1-0.2-0.2-0.5-0.2-0.8
			c0-0.5,0.1-1,0.4-1.3C45.2,74.1,45.6,74,46.1,74z M0.9,86.1v7H0.1v-7H0.9z M2.5,93H1.8v-7h1l1.6,5v-5h0.7v7H4.3l-1.8-5.6
			C2.5,87.4,2.5,93,2.5,93z M7.1,93v-6.3H5.8V86h3.3v0.7H7.9V93H7.1z M12.5,89.2v0.7h-1.7v2.4h2.1V93H10v-7h2.9v0.7h-2.1v2.4
			L12.5,89.2C12.5,89.1,12.5,89.2,12.5,89.2z M15.3,86.1c0.5,0,0.9,0.1,1.2,0.4c0.2,0.3,0.4,0.7,0.4,1.2v0.6c0,0.4-0.1,0.7-0.2,0.9
			c-0.1,0.2-0.4,0.4-0.7,0.5c0.3,0.1,0.5,0.3,0.7,0.5c0.1,0.2,0.2,0.6,0.2,0.9v1.1c0,0.2,0,0.3,0,0.4S17,92.9,17,93h-0.8
			c0-0.1-0.1-0.2-0.1-0.3c0-0.1,0-0.3,0-0.5v-1.1c0-0.4-0.1-0.7-0.3-0.8c-0.2-0.1-0.4-0.2-0.8-0.2h-0.5v3h-0.8v-7H15.3z M15.1,89.4
			c0.3,0,0.6-0.1,0.7-0.2c0.2-0.1,0.3-0.4,0.3-0.8v-0.7c0-0.3-0.1-0.6-0.2-0.7c-0.1-0.2-0.3-0.2-0.6-0.2h-0.8v2.6
			C14.5,89.4,15.1,89.4,15.1,89.4z M18.6,93h-0.7v-7h1l1.6,5v-5h0.7v7h-0.8l-1.8-5.6C18.6,87.4,18.6,93,18.6,93z M22.9,91.6L22.6,93
			h-0.7l1.3-7h1.1l1.3,7h-0.8l-0.3-1.4H22.9z M23,91h1.6l-0.8-4L23,91z M27.2,93v-6.3h-1.3V86h3.3v0.7h-1.3V93H27.2z M30.7,86.1v7
			h-0.8v-7H30.7z M31.6,87.8c0-0.5,0.1-1,0.4-1.3s0.7-0.5,1.2-0.5s0.9,0.2,1.2,0.5s0.4,0.7,0.4,1.3v3.5c0,0.5-0.1,1-0.4,1.3
			c-0.3,0.3-0.7,0.5-1.2,0.5s-0.9-0.2-1.2-0.5s-0.4-0.7-0.4-1.3V87.8z M32.4,91.4c0,0.3,0.1,0.6,0.2,0.7c0.1,0.1,0.3,0.3,0.6,0.3
			s0.5-0.1,0.6-0.3c0.1-0.2,0.2-0.4,0.2-0.7v-3.7c0-0.3-0.1-0.6-0.2-0.7c-0.1-0.1-0.3-0.3-0.6-0.3s-0.5,0.1-0.6,0.3
			c-0.1,0.2-0.2,0.4-0.2,0.7V91.4z M36.4,93h-0.7v-7h1l1.6,5v-5H39v7h-0.8l-1.8-5.6V93L36.4,93z M40.9,91.6L40.6,93h-0.7l1.3-7h1.1
			l1.3,7h-0.8l-0.3-1.4H40.9z M41,91h1.6l-0.8-4L41,91z M44.5,93v-7h0.8v6.3h2V93H44.5z M50.5,89.2v0.7h-1.7v2.4h2.1V93H48v-7h2.9
			v0.7h-2.1v2.4L50.5,89.2C50.5,89.1,50.5,89.2,50.5,89.2z M53.3,86c0.5,0,0.9,0.2,1.2,0.5s0.4,0.7,0.4,1.3V88h-0.7v-0.2
			c0-0.3-0.1-0.6-0.2-0.7c-0.1-0.2-0.3-0.3-0.6-0.3s-0.5,0.1-0.6,0.3c-0.1,0.2-0.2,0.4-0.2,0.7c0,0.3,0.1,0.5,0.2,0.7
			c0.1,0.2,0.3,0.4,0.4,0.5c0.2,0.2,0.4,0.3,0.6,0.5s0.4,0.3,0.6,0.5c0.2,0.2,0.3,0.4,0.4,0.6c0.1,0.2,0.2,0.5,0.2,0.8
			c0,0.5-0.1,1-0.4,1.3c-0.3,0.3-0.7,0.5-1.2,0.5s-0.9-0.2-1.2-0.5s-0.4-0.7-0.4-1.3V91h0.7v0.4c0,0.3,0.1,0.6,0.2,0.7
			c0.1,0.2,0.3,0.3,0.6,0.3s0.5-0.1,0.6-0.3c0.1-0.2,0.2-0.4,0.2-0.7c0-0.3-0.1-0.5-0.2-0.7c-0.1-0.2-0.3-0.4-0.4-0.5
			c-0.2-0.2-0.4-0.3-0.6-0.5c-0.2-0.2-0.4-0.3-0.6-0.5c-0.2-0.2-0.3-0.4-0.4-0.6c-0.1-0.2-0.2-0.5-0.2-0.8c0-0.5,0.1-1,0.4-1.3
			S52.8,86,53.3,86z"/>
		<g transform="translate(105 141)">
			<path class="st7" d="M2.2,0.1c0.7,0,1.1,0.2,1.5,0.6s0.5,0.9,0.5,1.5v4.3C4.2,7.2,4,7.7,3.7,8S2.9,8.6,2.2,8.6h-2V0.2h2V0.1z
				 M2.2,7.7c0.3,0,0.6-0.1,0.8-0.3c0.2-0.2,0.2-0.5,0.2-0.9V2.2c0-0.4-0.1-0.7-0.2-0.9C2.8,1.1,2.6,1,2.2,1h-1v6.7H2.2L2.2,7.7z
				 M4.9,2.2c0-0.7,0.2-1.2,0.5-1.5c0.3-0.4,0.8-0.6,1.5-0.6S8,0.3,8.4,0.7c0.3,0.4,0.5,0.9,0.5,1.5v4.4c0,0.6-0.2,1.2-0.5,1.5
				C8.1,8.4,7.6,8.7,6.9,8.7S5.8,8.5,5.4,8.1C5,7.7,4.9,7.2,4.9,6.6V2.2z M5.8,6.6C5.8,7,5.9,7.3,6,7.5s0.4,0.3,0.8,0.3
				c0.3,0,0.6-0.1,0.8-0.3C7.8,7.3,7.8,7,7.8,6.6V2.1c0-0.4-0.1-0.7-0.2-0.9S7.2,0.9,6.8,0.9C6.5,0.9,6.2,1,6,1.2S5.8,1.7,5.8,2.1
				V6.6z"/>
			<polygon class="st7" points="10.5,8.6 9.7,8.6 9.7,0.2 10.9,0.2 12.9,6.3 12.9,0.2 13.7,0.2 13.7,8.6 12.7,8.6 10.5,1.8 			"/>
			<polygon class="st7" points="15.8,8.6 15.8,1 14.2,1 14.2,0.1 18.2,0.1 18.2,1 16.6,1 16.6,8.6 			"/>
			<polygon class="st7" points="48.6,0.1 50,7.4 51.4,0.1 52.3,0.1 50.7,8.5 49.3,8.5 47.7,0.1 			"/>
			<polygon class="st7" points="53.8,0.1 53.8,8.5 52.9,8.5 52.9,0.1 			"/>
			<path class="st7" d="M56.6,0c0.6,0,1.1,0.2,1.4,0.6s0.5,0.9,0.5,1.5v0.2h-0.9V2c0-0.4-0.1-0.7-0.2-0.9c-0.2-0.2-0.4-0.3-0.7-0.3
				S56.1,0.9,56,1.1c-0.2,0.2-0.2,0.5-0.2,0.9c0,0.3,0.1,0.6,0.2,0.8s0.3,0.4,0.5,0.6s0.4,0.4,0.7,0.6c0.2,0.2,0.5,0.4,0.7,0.6
				s0.4,0.5,0.5,0.8s0.2,0.6,0.2,1c0,0.6-0.2,1.2-0.5,1.5s-0.8,0.6-1.4,0.6c-0.6,0-1.1-0.2-1.4-0.6S54.8,7,54.8,6.4V5.9h0.9v0.5
				c0,0.4,0.1,0.7,0.2,0.9c0.2,0.2,0.4,0.3,0.7,0.3s0.6-0.1,0.7-0.3c0.2-0.2,0.2-0.5,0.2-0.9c0-0.3-0.1-0.6-0.2-0.8
				C57.2,5.4,57,5.2,56.8,5s-0.4-0.4-0.7-0.6c-0.2-0.2-0.5-0.4-0.7-0.6C55.2,3.6,55,3.3,54.9,3s-0.2-0.6-0.2-1
				c0-0.7,0.2-1.2,0.5-1.5S55.9,0,56.6,0z"/>
			<polygon class="st7" points="60.2,0.1 60.2,8.5 59.3,8.5 59.3,0.1 			"/>
			<polygon class="st7" points="62.4,8.6 62.4,1 60.8,1 60.8,0.1 64.8,0.1 64.8,1 63.2,1 63.2,8.6 			"/>
			<polygon class="st7" points="68.5,3.9 68.5,4.7 66.4,4.7 66.4,7.7 68.9,7.7 68.9,8.6 65.4,8.6 65.4,0.2 68.9,0.2 68.9,1.1 
				66.4,1.1 66.4,4 68.5,4 			"/>
			<path class="st7" d="M70.8,6.6c0,0.4,0.1,0.7,0.2,0.9c0.2,0.2,0.4,0.3,0.8,0.3c0.3,0,0.6-0.1,0.7-0.3s0.2-0.5,0.2-0.9V0.2h0.9
				v6.4c0,0.6-0.2,1.2-0.5,1.5c-0.3,0.4-0.8,0.6-1.4,0.6s-1.1-0.2-1.4-0.6c-0.3-0.4-0.5-0.9-0.5-1.5V0.2h0.9v6.4H70.8z M76.4,0.1
				c0.7,0,1.1,0.2,1.4,0.5s0.4,0.8,0.4,1.4v0.7c0,0.5-0.1,0.8-0.3,1.1c-0.2,0.3-0.4,0.5-0.8,0.6c0.4,0.1,0.7,0.3,0.8,0.6
				c0.2,0.3,0.2,0.7,0.2,1.1v1.3c0,0.2,0,0.4,0,0.5c0,0.2,0.1,0.3,0.1,0.5h-1c-0.1-0.1-0.1-0.3-0.1-0.4s0-0.4,0-0.6V6.1
				c0-0.5-0.1-0.8-0.3-1c-0.2-0.2-0.5-0.3-0.9-0.3h-0.7v3.6h-0.9V0h2.1C76.4,0,76.4,0.1,76.4,0.1z M76.2,4.1c0.4,0,0.7-0.1,0.9-0.2
				c0.2-0.2,0.3-0.5,0.3-0.9V2.2c0-0.4-0.1-0.7-0.2-0.9C77.1,1.1,76.8,1,76.4,1h-0.9v3.1H76.2L76.2,4.1z M81,0
				c0.6,0,1.1,0.2,1.4,0.6s0.5,0.9,0.5,1.5v0.2H82V2c0-0.4-0.1-0.7-0.2-0.9s-0.4-0.3-0.7-0.3c-0.3,0-0.6,0.1-0.7,0.3
				S80.2,1.6,80.2,2c0,0.3,0.1,0.6,0.2,0.8s0.3,0.4,0.5,0.6s0.4,0.4,0.7,0.6c0.2,0.2,0.5,0.4,0.7,0.6s0.4,0.5,0.5,0.8
				C82.9,5.7,83,6,83,6.4c0,0.6-0.2,1.2-0.5,1.5c-0.3,0.4-0.8,0.6-1.4,0.6c-0.7,0-1.1-0.2-1.4-0.6S79.2,7,79.2,6.4V5.9h0.9v0.5
				c0,0.4,0.1,0.7,0.2,0.9c0.2,0.2,0.4,0.3,0.7,0.3s0.6-0.1,0.7-0.3c0.2-0.2,0.2-0.5,0.2-0.9c0-0.3-0.1-0.6-0.2-0.8
				c-0.1-0.2-0.3-0.4-0.5-0.6s-0.4-0.4-0.7-0.6C80.2,4.2,80,4,79.8,3.8S79.4,3.3,79.3,3s-0.2-0.6-0.2-1c0-0.7,0.2-1.2,0.5-1.5
				C79.9,0.2,80.4,0,81,0z"/>
		</g>
		<g transform="translate(116 155)">
			<path class="st7" d="M2.8,0.7c0.7,0,1.1,0.2,1.4,0.5c0.3,0.4,0.4,0.9,0.4,1.5v1c0,0.7-0.2,1.2-0.5,1.5C3.8,5.5,3.3,5.7,2.6,5.7
				H1.8V9H0.9V0.6L2.8,0.7L2.8,0.7z M2.7,4.9c0.4,0,0.6-0.1,0.8-0.3c0.2-0.2,0.3-0.5,0.3-0.9V2.6c0-0.4-0.1-0.7-0.2-0.9
				C3.5,1.5,3.2,1.4,2.9,1.4H2v3.4L2.7,4.9L2.7,4.9z M7.3,0.7c0.7,0,1.1,0.2,1.4,0.5S9.1,2,9.1,2.6v0.7c0,0.5-0.1,0.8-0.3,1.1
				C8.6,4.7,8.4,4.9,8,5c0.4,0.1,0.7,0.3,0.8,0.6C8.9,5.9,9,6.3,9,6.7V8c0,0.2,0,0.4,0,0.5C9,8.7,9.1,8.8,9.1,9h-1
				C8,8.9,8,8.8,8,8.6C8,8.5,8,8.2,8,8V6.7c0-0.5-0.1-0.8-0.3-1C7.5,5.5,7.2,5.4,6.8,5.4H6.1V9H5.2V0.6L7.3,0.7L7.3,0.7z M7,4.6
				c0.4,0,0.7-0.1,0.9-0.2c0.2-0.2,0.3-0.5,0.3-0.9V2.7C8.2,2.3,8.1,2,8,1.8C7.9,1.6,7.6,1.5,7.2,1.5H6.3v3.1H7L7,4.6z M10.1,2.7
				c0-0.7,0.2-1.2,0.5-1.5s0.8-0.6,1.5-0.6s1.1,0.2,1.5,0.6s0.5,0.9,0.5,1.5v4.4c0,0.6-0.2,1.2-0.5,1.5c-0.3,0.4-0.8,0.6-1.5,0.6
				S11,9,10.6,8.6c-0.3-0.4-0.5-0.9-0.5-1.5V2.7z M11,7.1c0,0.4,0.1,0.7,0.2,0.9c0.1,0.2,0.4,0.3,0.8,0.3c0.3,0,0.6-0.1,0.8-0.3
				S13,7.5,13,7.1V2.6c0-0.4-0.1-0.7-0.2-0.9c-0.1-0.2-0.4-0.3-0.8-0.3c-0.3,0-0.6,0.1-0.8,0.3S11,2.2,11,2.6V7.1z"/>
			<polygon class="st7" points="17.7,4.6 17.7,5.5 15.8,5.5 15.8,9.2 14.9,9.2 14.9,0.8 18.2,0.8 18.2,1.7 15.8,1.7 15.8,4.8 
				17.7,4.8 			"/>
			<polygon class="st7" points="21.9,4.4 21.9,5.2 19.8,5.2 19.8,8.2 22.3,8.2 22.3,9.1 18.8,9.1 18.8,0.7 22.3,0.7 22.3,1.6 
				19.8,1.6 19.8,4.5 21.9,4.5 			"/>
			<path class="st7" d="M25,0.6c0.6,0,1.1,0.2,1.4,0.6s0.5,0.9,0.5,1.5v0.2H26V2.6c0-0.4-0.1-0.7-0.2-0.9c-0.2-0.2-0.4-0.3-0.7-0.3
				c-0.3,0-0.6,0.1-0.7,0.3c-0.2,0.2-0.2,0.5-0.2,0.9c0,0.3,0.1,0.6,0.2,0.8s0.3,0.4,0.5,0.6c0.2,0.2,0.4,0.4,0.7,0.6
				c0.2,0.2,0.5,0.4,0.7,0.6s0.4,0.5,0.5,0.8S27,6.6,27,7c0,0.6-0.2,1.2-0.5,1.5c-0.3,0.4-0.8,0.6-1.4,0.6c-0.7,0-1.1-0.2-1.4-0.6
				c-0.3-0.4-0.5-0.9-0.5-1.5V6.5h0.9V7c0,0.4,0.1,0.7,0.2,0.9s0.4,0.3,0.7,0.3s0.6-0.1,0.7-0.3s0.2-0.5,0.2-0.9
				c0-0.3-0.1-0.6-0.2-0.8c-0.1-0.2-0.3-0.4-0.5-0.6C25,5.4,24.8,5.2,24.5,5c-0.2-0.2-0.5-0.4-0.7-0.6s-0.4-0.5-0.5-0.8
				s-0.2-0.6-0.2-1c0-0.7,0.2-1.2,0.5-1.5C23.9,0.8,24.4,0.6,25,0.6z M29.5,0.6c0.6,0,1.1,0.2,1.4,0.6s0.5,0.9,0.5,1.5v0.2h-0.9V2.6
				c0-0.4-0.1-0.7-0.2-0.9c-0.2-0.2-0.4-0.3-0.7-0.3c-0.3,0-0.6,0.1-0.7,0.3c-0.2,0.2-0.2,0.5-0.2,0.9c0,0.3,0.1,0.6,0.2,0.8
				C29,3.6,29.2,3.8,29.4,4c0.2,0.2,0.4,0.4,0.7,0.6c0.2,0.2,0.5,0.4,0.7,0.6C31,5.4,31.2,5.7,31.3,6c0.1,0.3,0.2,0.6,0.2,1
				c0,0.6-0.2,1.2-0.5,1.5c-0.3,0.4-0.8,0.6-1.4,0.6c-0.7,0-1.1-0.2-1.4-0.6c-0.3-0.4-0.5-0.9-0.5-1.5V6.5h0.9V7
				c0,0.4,0.1,0.7,0.2,0.9s0.4,0.3,0.7,0.3s0.6-0.1,0.7-0.3s0.2-0.5,0.2-0.9c0-0.3-0.1-0.6-0.2-0.8c-0.1-0.2-0.3-0.4-0.5-0.6
				C29.5,5.4,29.3,5.2,29,5c-0.2-0.2-0.5-0.4-0.7-0.6s-0.4-0.5-0.5-0.8s-0.2-0.6-0.2-1c0-0.7,0.2-1.2,0.5-1.5
				C28.4,0.8,28.9,0.6,29.5,0.6z"/>
			<polygon class="st7" points="33.1,0.7 33.1,9.1 32.2,9.1 32.2,0.7 			"/>
			<path class="st7" d="M34,2.7c0-0.7,0.2-1.2,0.5-1.5s0.8-0.6,1.5-0.6s1.1,0.2,1.5,0.6S38,2.1,38,2.7v4.4c0,0.6-0.2,1.2-0.5,1.5
				C37.2,9,36.7,9.2,36,9.2S34.9,9,34.5,8.6C34.2,8.2,34,7.7,34,7.1V2.7z M35,7.1c0,0.4,0.1,0.7,0.2,0.9c0.2,0.2,0.4,0.3,0.8,0.3
				c0.3,0,0.6-0.1,0.8-0.3S37,7.5,37,7.1V2.6c0-0.4-0.1-0.7-0.2-0.9c-0.2-0.2-0.4-0.3-0.8-0.3c-0.3,0-0.6,0.1-0.8,0.3S35,2.2,35,2.6
				V7.1z"/>
			<polygon class="st7" points="39.6,9.1 38.8,9.1 38.8,0.7 40,0.7 42,6.8 42,0.7 42.8,0.7 42.8,9.1 41.8,9.1 39.6,2.3 			"/>
			<polygon class="st7" points="44.6,9.1 43.8,9.1 43.8,0.7 45,0.7 47,6.8 47,0.7 47.8,0.7 47.8,9.1 46.8,9.1 44.6,2.3 			"/>
			<polygon class="st7" points="51.6,4.4 51.6,5.2 49.5,5.2 49.5,8.2 52,8.2 52,9.1 48.5,9.1 48.5,0.7 52,0.7 52,1.6 49.5,1.6 
				49.5,4.5 51.6,4.5 			"/>
			<polygon class="st7" points="53,9.1 53,0.7 53.9,0.7 53.9,8.3 56.3,8.3 56.3,9.2 53,9.2 			"/>
			<path class="st7" d="M58.8,0.6c0.6,0,1.1,0.2,1.4,0.6s0.5,0.9,0.5,1.5v0.2h-0.9V2.6c0-0.4-0.1-0.7-0.2-0.9
				c-0.1-0.2-0.4-0.3-0.7-0.3s-0.6,0.1-0.7,0.3C58.1,1.9,58,2.2,58,2.6c0,0.3,0.1,0.6,0.2,0.8c0.1,0.2,0.3,0.4,0.5,0.6
				c0.2,0.2,0.4,0.4,0.7,0.6c0.2,0.2,0.5,0.4,0.7,0.6s0.4,0.5,0.5,0.8s0.2,0.6,0.2,1c0,0.6-0.2,1.2-0.5,1.5
				c-0.3,0.4-0.8,0.6-1.4,0.6c-0.7,0-1.1-0.2-1.4-0.6S57,7.6,57,7V6.5h0.9V7c0,0.4,0.1,0.7,0.2,0.9c0.2,0.2,0.4,0.3,0.7,0.3
				s0.6-0.1,0.7-0.3c0.2-0.2,0.2-0.5,0.2-0.9c0-0.3-0.1-0.6-0.2-0.8C59.4,6,59.2,5.8,59,5.6c-0.2-0.2-0.4-0.4-0.7-0.6
				c-0.2-0.2-0.5-0.4-0.7-0.6s-0.4-0.5-0.5-0.8s-0.2-0.6-0.2-1c0-0.7,0.2-1.2,0.5-1.5C57.7,0.8,58.2,0.6,58.8,0.6z"/>
		</g>
		<g transform="translate(242 58)">
			<path class="st8" d="M0.3,2.7c0.5,0,0.8-0.1,1.1-0.2s0.5-0.2,0.7-0.4s0.3-0.4,0.5-0.6C2.7,1.3,2.8,1,2.9,0.8h1.6v15.1H2.1V4.4
				H0.3V2.7L0.3,2.7z M10.6,4.4c0-1.2,0.3-2.2,0.9-2.8s1.5-1,2.7-1s2.1,0.3,2.7,1s0.9,1.6,0.9,2.8v7.9c0,1.2-0.3,2.2-0.9,2.8
				s-1.5,1-2.7,1s-2.1-0.3-2.7-1s-0.9-1.6-0.9-2.8V4.4z M12.9,12.5c0,0.5,0.1,0.9,0.3,1.2c0.2,0.2,0.5,0.3,0.9,0.3s0.7-0.1,0.9-0.3
				s0.3-0.6,0.3-1.2V4.3c0-0.5-0.1-0.9-0.3-1.2c-0.2-0.2-0.5-0.3-0.9-0.3s-0.7,0.1-0.9,0.3s-0.3,0.6-0.3,1.2V12.5z M19.1,4.4
				c0-1.2,0.3-2.2,0.9-2.8s1.5-1,2.7-1s2.1,0.3,2.7,1s0.9,1.6,0.9,2.8v7.9c0,1.2-0.3,2.2-0.9,2.8s-1.5,1-2.7,1s-2.1-0.3-2.7-1
				s-0.9-1.6-0.9-2.8V4.4z M21.5,12.5c0,0.5,0.1,0.9,0.3,1.2c0.2,0.2,0.5,0.3,0.9,0.3s0.7-0.1,0.9-0.3c0.2-0.2,0.3-0.6,0.3-1.2V4.3
				c0-0.5-0.1-0.9-0.3-1.2c-0.2-0.2-0.5-0.3-0.9-0.3S22,2.9,21.8,3.1c-0.2,0.2-0.3,0.6-0.3,1.2V12.5z M27.7,4.4
				c0-1.2,0.3-2.2,0.9-2.8s1.5-1,2.7-1c1.2,0,2.1,0.3,2.7,1s0.9,1.6,0.9,2.8v7.9c0,1.2-0.3,2.2-0.9,2.8c-0.6,0.6-1.5,1-2.7,1
				s-2.1-0.3-2.7-1s-0.9-1.6-0.9-2.8C27.7,12.3,27.7,4.4,27.7,4.4z M30,12.5c0,0.5,0.1,0.9,0.3,1.2c0.2,0.2,0.5,0.3,0.9,0.3
				s0.7-0.1,0.9-0.3c0.2-0.2,0.3-0.6,0.3-1.2V4.3c0-0.5-0.1-0.9-0.3-1.2c-0.2-0.2-0.5-0.3-0.9-0.3s-0.7,0.1-0.9,0.3
				C30.1,3.3,30,3.7,30,4.3V12.5z"/>
			<polygon class="st8" points="44,7.5 46.9,7.5 46.9,9.2 44,9.2 44,12.2 42.3,12.2 42.3,9.2 39.4,9.2 39.4,7.5 42.3,7.5 42.3,4.6 
				44,4.6 			"/>
		</g>
		<g transform="translate(244 79)">
			<polygon class="st7" points="3.1,4.2 3.1,4.9 1.3,4.9 1.3,7.5 3.5,7.5 3.5,8.2 0.5,8.2 0.5,1 3.5,1 3.5,1.7 1.3,1.7 1.3,4.2 			
				"/>
			<polygon class="st7" points="6.1,5.1 4.9,8.2 4.1,8.2 5.6,4.5 4.2,1 5,1 6.1,3.9 7.2,1 8,1 6.6,4.5 8.1,8.2 7.2,8.2 			"/>
			<path class="st7" d="M10.4,1c0.6,0,1,0.2,1.2,0.5C11.9,1.8,12,2.3,12,2.8v0.9c0,0.6-0.1,1-0.4,1.3c-0.3,0.3-0.7,0.4-1.3,0.4H9.6
				v2.9H8.8V1H10.4z M10.3,4.6c0.3,0,0.5-0.1,0.7-0.2c0.1-0.1,0.2-0.4,0.2-0.8v-1c0-0.3-0.1-0.6-0.2-0.7c-0.1-0.2-0.3-0.2-0.6-0.2
				H9.6v2.9C9.6,4.6,10.3,4.6,10.3,4.6z M12.6,2.7c0-0.6,0.1-1,0.4-1.3s0.7-0.5,1.3-0.5s1,0.2,1.3,0.5C15.9,1.7,16,2.2,16,2.7v3.8
				c0,0.6-0.1,1-0.4,1.3c-0.3,0.3-0.7,0.5-1.3,0.5s-1-0.2-1.3-0.5S12.6,7,12.6,6.5V2.7z M13.4,6.5c0,0.3,0.1,0.6,0.2,0.8
				c0.1,0.2,0.4,0.3,0.6,0.3c0.3,0,0.5-0.1,0.7-0.3c0.1-0.2,0.2-0.4,0.2-0.8V2.7c0-0.3-0.1-0.6-0.2-0.8c-0.1-0.2-0.4-0.3-0.7-0.3
				s-0.5,0.1-0.6,0.3s-0.2,0.4-0.2,0.8V6.5z M18.3,0.9c0.6,0,1,0.2,1.2,0.5c0.3,0.3,0.4,0.8,0.4,1.3v0.2h-0.8V2.7
				c0-0.3-0.1-0.6-0.2-0.8s-0.3-0.3-0.6-0.3c-0.3,0-0.5,0.1-0.6,0.3s-0.2,0.4-0.2,0.8c0,0.3,0.1,0.5,0.2,0.7C17.8,3.6,18,3.8,18.2,4
				c0.2,0.2,0.4,0.3,0.6,0.5C19,4.7,19.2,4.8,19.4,5c0.2,0.2,0.3,0.4,0.5,0.7c0.2,0.3,0.2,0.5,0.2,0.9c0,0.6-0.1,1-0.4,1.3
				c-0.3,0.3-0.7,0.5-1.2,0.5c-0.6,0-1-0.2-1.2-0.5c-0.3-0.3-0.4-0.8-0.4-1.3V6.2h0.8v0.5c0,0.3,0.1,0.6,0.2,0.8s0.4,0.3,0.6,0.3
				s0.5-0.1,0.6-0.3s0.2-0.4,0.2-0.8c0-0.3-0.1-0.5-0.2-0.7s-0.3-0.4-0.5-0.5C18.4,5.3,18.2,5.2,18,5s-0.4-0.3-0.6-0.5
				s-0.3-0.4-0.5-0.7c-0.1-0.2-0.2-0.5-0.2-0.9c0-0.6,0.1-1,0.4-1.3C17.3,1,17.7,0.9,18.3,0.9z M21.4,6.8l-0.3,1.5h-0.7L21.8,1H23
				l1.4,7.3h-0.8l-0.3-1.5H21.4z M21.5,6.1h1.6l-0.8-4.2L21.5,6.1z"/>
			<polygon class="st7" points="25.7,8.2 25,8.2 25,1 26,1 27.7,6.3 27.7,1 28.4,1 28.4,8.3 27.6,8.3 25.7,2.4 			"/>
			<polygon class="st7" points="30.3,8.2 30.3,1.7 29,1.7 29,1 32.5,1 32.5,1.7 31.2,1.7 31.2,8.2 			"/>
			<path class="st7" d="M34.5,0.9c0.6,0,1,0.2,1.2,0.5c0.3,0.3,0.4,0.8,0.4,1.3v0.2h-0.8V2.7c0-0.3-0.1-0.6-0.2-0.8
				c-0.1-0.2-0.3-0.3-0.6-0.3S34,1.7,33.9,1.9s-0.2,0.4-0.2,0.8c0,0.3,0.1,0.5,0.2,0.7C34,3.6,34.2,3.8,34.4,4
				c0.2,0.2,0.4,0.3,0.6,0.5s0.4,0.3,0.6,0.5c0.2,0.2,0.3,0.4,0.5,0.7c0.2,0.3,0.2,0.5,0.2,0.9c0,0.6-0.1,1-0.4,1.3
				c-0.3,0.3-0.7,0.5-1.2,0.5c-0.6,0-1-0.2-1.2-0.5c-0.3-0.3-0.4-0.8-0.4-1.3V6.2h0.8v0.5c0,0.3,0.1,0.6,0.2,0.8
				c0.1,0.2,0.4,0.3,0.6,0.3s0.5-0.1,0.6-0.3c0.1-0.2,0.2-0.4,0.2-0.8c0-0.3-0.1-0.5-0.2-0.7c-0.1-0.2-0.3-0.4-0.5-0.5
				c-0.2-0.2-0.4-0.3-0.6-0.5s-0.4-0.3-0.6-0.5c-0.2-0.2-0.3-0.4-0.5-0.7c-0.1-0.2-0.2-0.5-0.2-0.9c0-0.6,0.1-1,0.4-1.3
				C33.6,1,34,0.9,34.5,0.9z"/>
		</g>
		<g transform="translate(236 178)">
			<path class="st7" d="M2.2,2.1c0.6,0,1,0.1,1.2,0.4c0.3,0.3,0.4,0.7,0.4,1.2v0.6c0,0.4-0.1,0.7-0.2,1C3.5,5.5,3.2,5.7,2.9,5.8
				c0.3,0.1,0.6,0.3,0.7,0.5c0.1,0.2,0.2,0.6,0.2,1v1.1c0,0.2,0,0.3,0,0.5s0.1,0.3,0.1,0.4H3.1C3.1,9.2,3,9.1,3,9s0-0.3,0-0.5V7.4
				C3,7,2.9,6.7,2.7,6.6C2.5,6.4,2.3,6.4,1.9,6.4H1.3v3.1H0.5V2.2h1.7V2.1z M2,5.5c0.3,0,0.6-0.1,0.8-0.2C3,5.2,3.1,4.9,3.1,4.5V3.8
				c0-0.3-0.1-0.6-0.2-0.7C2.8,2.9,2.6,2.9,2.3,2.9H1.5v2.7L2,5.5L2,5.5z"/>
			<polygon class="st7" points="7.2,5.3 7.2,6 5.4,6 5.4,8.6 7.6,8.6 7.6,9.3 4.6,9.3 4.6,2 7.6,2 7.6,2.7 5.4,2.7 5.4,5.2 7.2,5.2 
							"/>
			<polygon class="st7" points="9.4,9.3 9.4,2.8 8.1,2.8 8.1,2.1 11.6,2.1 11.6,2.8 10.3,2.8 10.3,9.3 			"/>
			<path class="st7" d="M12.1,3.8c0-0.6,0.1-1,0.4-1.3S13.2,2,13.8,2s1,0.2,1.3,0.5s0.4,0.8,0.4,1.3v3.8c0,0.6-0.1,1-0.4,1.3
				c-0.3,0.3-0.7,0.5-1.3,0.5s-1-0.2-1.3-0.5s-0.4-0.8-0.4-1.3V3.8z M12.9,7.6c0,0.3,0.1,0.6,0.2,0.8c0.1,0.2,0.4,0.3,0.6,0.3
				c0.3,0,0.5-0.1,0.7-0.3c0.1-0.2,0.2-0.4,0.2-0.8V3.8c0-0.3-0.1-0.6-0.2-0.8c-0.1-0.2-0.4-0.3-0.7-0.3S13.2,2.8,13.1,3
				c-0.1,0.2-0.2,0.4-0.2,0.8C12.9,3.8,12.9,7.6,12.9,7.6z"/>
			<polygon class="st7" points="18.9,9.3 18.1,9.3 16.9,3.5 16.9,9.3 16.2,9.3 16.2,2 17.3,2 18.5,7.8 19.7,2 20.8,2 20.8,9.3 
				20,9.3 20,3.5 			"/>
			<path class="st7" d="M23.3,2.1c0.6,0,1,0.1,1.2,0.4s0.4,0.7,0.4,1.2V4c0,0.4-0.1,0.7-0.2,0.9c-0.1,0.2-0.3,0.4-0.7,0.5
				c0.4,0.1,0.6,0.3,0.8,0.5c0.1,0.3,0.2,0.6,0.2,1v0.6c0,0.5-0.1,1-0.4,1.3s-0.7,0.4-1.3,0.4h-1.7V1.9h1.7V2.1z M23.1,5.1
				c0.3,0,0.6-0.1,0.7-0.2C24,4.8,24,4.5,24,4.1V3.7c0-0.3-0.1-0.6-0.2-0.7c-0.1-0.2-0.3-0.2-0.6-0.2h-0.8v2.3H23.1L23.1,5.1z
				 M23.3,8.6c0.6,0,0.9-0.3,0.9-1V7c0-0.4-0.1-0.7-0.2-0.8C23.8,6,23.6,6,23.2,6h-0.7v2.7L23.3,8.6L23.3,8.6z M28.3,5.3V6h-1.8v2.6
				h2.2v0.7h-3V2h3v0.7h-2.2v2.5h1.8V5.3z M28.2,0.6l-1,1.1h-0.6l0.7-1.1H28.2z"/>
			<polygon class="st7" points="32,5.3 32,6 30.2,6 30.2,8.6 32.4,8.6 32.4,9.3 29.4,9.3 29.4,2 32.4,2 32.4,2.7 30.2,2.7 30.2,5.2 
				32,5.2 			"/>
			<path class="st7" d="M34.7,2c0.6,0,1,0.2,1.2,0.5c0.3,0.3,0.4,0.8,0.4,1.3V4h-0.8V3.8c0-0.3-0.1-0.6-0.2-0.8
				c-0.1-0.2-0.3-0.3-0.6-0.3S34.2,2.8,34.1,3c-0.1,0.2-0.2,0.4-0.2,0.8c0,0.3,0.1,0.5,0.2,0.7c0.1,0.2,0.3,0.4,0.5,0.6
				s0.4,0.3,0.6,0.5c0.2,0.2,0.4,0.3,0.6,0.5c0.2,0.2,0.3,0.4,0.5,0.7c0.2,0.3,0.2,0.5,0.2,0.9c0,0.6-0.1,1-0.4,1.3
				c-0.3,0.3-0.7,0.5-1.2,0.5s-1-0.2-1.2-0.5c-0.3-0.3-0.4-0.8-0.4-1.3V7.3h0.8v0.5c0,0.3,0.1,0.6,0.2,0.8c0.1,0.2,0.4,0.3,0.6,0.3
				c0.2,0,0.5-0.1,0.6-0.3s0.2-0.4,0.2-0.8c0-0.3-0.1-0.5-0.2-0.7c-0.1-0.2-0.3-0.4-0.5-0.5c-0.2-0.2-0.4-0.3-0.6-0.5
				c-0.2-0.2-0.4-0.3-0.6-0.5c-0.2-0.2-0.3-0.4-0.5-0.7c-0.1-0.2-0.2-0.5-0.2-0.9c0-0.6,0.1-1,0.4-1.3C33.8,2.2,34.2,2,34.7,2z
				 M40.2,2.1c0.6,0,1,0.2,1.2,0.5c0.3,0.3,0.4,0.8,0.4,1.3v0.9c0,0.6-0.1,1-0.4,1.3c-0.3,0.3-0.7,0.4-1.3,0.4h-0.7v2.9h-0.8V2.1
				H40.2L40.2,2.1z M40.2,5.7c0.3,0,0.5-0.1,0.7-0.2c0.1-0.1,0.2-0.4,0.2-0.8v-1c0-0.3-0.1-0.6-0.2-0.7c-0.1-0.2-0.3-0.2-0.6-0.2
				h-0.8v2.9H40.2L40.2,5.7z M44.2,2.1c0.6,0,1,0.1,1.2,0.4c0.3,0.3,0.4,0.7,0.4,1.2v0.6c0,0.4-0.1,0.7-0.2,1
				c-0.1,0.2-0.4,0.4-0.7,0.5c0.3,0.1,0.6,0.3,0.7,0.5c0.1,0.2,0.2,0.6,0.2,1v1.1c0,0.2,0,0.3,0,0.5c0,0.1,0.1,0.3,0.1,0.4h-0.8
				C45.1,9.2,45,9.1,45,9s0-0.3,0-0.5V7.4c0-0.4-0.1-0.7-0.3-0.8c-0.2-0.2-0.4-0.2-0.8-0.2h-0.6v3.1h-0.8V2.2h1.7
				C44.2,2.2,44.2,2.1,44.2,2.1z M43.9,5.5c0.3,0,0.6-0.1,0.8-0.2C44.9,5.2,45,4.9,45,4.5V3.8c0-0.3-0.1-0.6-0.2-0.7
				c-0.1-0.2-0.3-0.2-0.6-0.2h-0.8v2.7L43.9,5.5L43.9,5.5z"/>
			<polygon class="st7" points="49.2,5.3 49.2,6 47.4,6 47.4,8.6 49.6,8.6 49.6,9.3 46.6,9.3 46.6,2 49.6,2 49.6,2.7 47.4,2.7 
				47.4,5.2 49.2,5.2 			"/>
			<path class="st7" d="M51.9,2c0.6,0,1,0.2,1.2,0.5c0.3,0.3,0.4,0.8,0.4,1.3V4h-0.8V3.8c0-0.3-0.1-0.6-0.2-0.8s-0.3-0.3-0.6-0.3
				S51.4,2.8,51.3,3s-0.2,0.4-0.2,0.8c0,0.3,0.1,0.5,0.2,0.7c0.1,0.2,0.3,0.4,0.5,0.6s0.4,0.3,0.6,0.5c0.2,0.2,0.4,0.3,0.6,0.5
				c0.2,0.2,0.3,0.4,0.5,0.7c0.2,0.3,0.2,0.5,0.2,0.9c0,0.6-0.1,1-0.4,1.3s-0.7,0.5-1.2,0.5s-1-0.2-1.2-0.5
				c-0.3-0.3-0.4-0.8-0.4-1.3V7.3h0.8v0.5c0,0.3,0.1,0.6,0.2,0.8c0.1,0.2,0.4,0.3,0.6,0.3c0.2,0,0.5-0.1,0.6-0.3s0.2-0.4,0.2-0.8
				c0-0.3-0.1-0.5-0.2-0.7c-0.1-0.2-0.3-0.4-0.5-0.5c-0.2-0.2-0.4-0.3-0.6-0.5c-0.2-0.2-0.4-0.3-0.6-0.5c-0.2-0.2-0.3-0.4-0.5-0.7
				c-0.1-0.2-0.2-0.5-0.2-0.9c0-0.6,0.1-1,0.4-1.3C50.9,2.2,51.3,2,51.9,2z M55.8,2c0.6,0,1,0.2,1.2,0.5c0.3,0.3,0.4,0.8,0.4,1.3V4
				h-0.8V3.8c0-0.3-0.1-0.6-0.2-0.8c-0.1-0.2-0.3-0.3-0.6-0.3S55.3,2.8,55.2,3C55.1,3.2,55,3.4,55,3.8c0,0.3,0.1,0.5,0.2,0.7
				c0.1,0.2,0.3,0.4,0.5,0.6s0.4,0.3,0.6,0.5c0.2,0.2,0.4,0.3,0.6,0.5c0.2,0.2,0.3,0.4,0.5,0.7c0.2,0.3,0.2,0.5,0.2,0.9
				c0,0.6-0.1,1-0.4,1.3S56.5,9.5,56,9.5S55,9.3,54.8,9c-0.3-0.3-0.4-0.8-0.4-1.3V7.3h0.8v0.5c0,0.3,0.1,0.6,0.2,0.8
				c0.1,0.2,0.4,0.3,0.6,0.3s0.5-0.1,0.6-0.3s0.2-0.4,0.2-0.8c0-0.3-0.1-0.5-0.2-0.7c-0.1-0.2-0.3-0.4-0.5-0.5
				c-0.2-0.2-0.4-0.3-0.6-0.5c-0.2-0.2-0.4-0.3-0.6-0.5c-0.2-0.2-0.3-0.4-0.5-0.7c-0.1-0.2-0.2-0.5-0.2-0.9c0-0.6,0.1-1,0.4-1.3
				C54.8,2.2,55.2,2,55.8,2z"/>
			<polygon class="st7" points="60.7,5.3 60.7,6 58.9,6 58.9,8.6 61.1,8.6 61.1,9.3 58.1,9.3 58.1,2 61.1,2 61.1,2.7 58.9,2.7 
				58.9,5.2 60.7,5.2 			"/>
		</g>
		<g transform="translate(112 252)">
			<path class="st7" d="M2,1.6c0.6,0,1,0.2,1.3,0.5s0.4,0.8,0.4,1.3v3.7c0,0.6-0.1,1-0.4,1.3C3,8.7,2.6,8.9,2,8.9H0.3V1.6H2z M2,8.1
				c0.3,0,0.5-0.1,0.6-0.3C2.7,7.6,2.8,7.4,2.8,7V3.3c0-0.3-0.1-0.6-0.2-0.8C2.5,2.3,2.2,2.2,1.9,2.2H1V8h1V8.1z"/>
			<polygon class="st7" points="7,4.8 7,5.5 5.2,5.5 5.2,8.1 7.4,8.1 7.4,8.8 4.4,8.8 4.4,1.5 7.4,1.5 7.4,2.2 5.2,2.2 5.2,4.7 
				7,4.7 			"/>
			<path class="st7" d="M11.3,1.6c0.6,0,1,0.2,1.2,0.5c0.3,0.3,0.4,0.8,0.4,1.3v0.9c0,0.6-0.1,1-0.4,1.3C12.2,5.9,11.8,6,11.2,6
				h-0.7v2.9H9.7V1.6H11.3L11.3,1.6z M11.3,5.3c0.3,0,0.5-0.1,0.7-0.2c0.1-0.1,0.2-0.4,0.2-0.8v-1c0-0.3-0.1-0.6-0.2-0.7
				c-0.1-0.2-0.3-0.2-0.6-0.2h-0.8v2.9H11.3z"/>
			<polygon class="st7" points="16.2,4.8 16.2,5.5 14.4,5.5 14.4,8.1 16.6,8.1 16.6,8.8 13.6,8.8 13.6,1.5 16.6,1.5 16.6,2.2 
				14.4,2.2 14.4,4.7 16.2,4.7 			"/>
			<path class="st7" d="M18.9,1.6c0.6,0,1,0.1,1.2,0.4c0.3,0.3,0.4,0.7,0.4,1.2v0.6c0,0.4-0.1,0.7-0.2,1c-0.1,0.2-0.4,0.4-0.7,0.5
				c0.3,0.1,0.6,0.3,0.7,0.5s0.2,0.6,0.2,1v1.1c0,0.2,0,0.3,0,0.5c0,0.1,0.1,0.3,0.1,0.4h-0.8c0-0.1-0.1-0.2-0.1-0.3s0-0.3,0-0.5
				V6.9c0-0.4-0.1-0.7-0.3-0.8c-0.2-0.2-0.4-0.2-0.8-0.2H18V9h-0.8V1.7h1.7C18.9,1.7,18.9,1.6,18.9,1.6z M18.7,5
				c0.3,0,0.6-0.1,0.8-0.2c0.2-0.1,0.3-0.4,0.3-0.8V3.3c0-0.3-0.1-0.6-0.2-0.7c-0.1-0.2-0.3-0.2-0.6-0.2h-0.8v2.7L18.7,5L18.7,5z
				 M22.9,1.5c0.6,0,1,0.2,1.2,0.5c0.3,0.3,0.4,0.8,0.4,1.3v0.2h-0.8V3.3c0-0.3-0.1-0.6-0.2-0.8s-0.3-0.3-0.6-0.3
				c-0.3,0-0.5,0.1-0.6,0.3s-0.2,0.4-0.2,0.8c0,0.3,0.1,0.5,0.2,0.7c0.1,0.2,0.3,0.4,0.5,0.6s0.4,0.3,0.6,0.5s0.4,0.3,0.6,0.5
				s0.3,0.4,0.5,0.7c0.2,0.3,0.2,0.5,0.2,0.9c0,0.6-0.1,1-0.4,1.3C24,8.8,23.6,9,23.1,9c-0.6,0-1-0.2-1.2-0.5
				c-0.3-0.3-0.4-0.8-0.4-1.3V6.8h0.8v0.5c0,0.3,0.1,0.6,0.2,0.8c0.1,0.2,0.4,0.3,0.6,0.3c0.3,0,0.5-0.1,0.6-0.3s0.2-0.4,0.2-0.8
				c0-0.3-0.1-0.5-0.2-0.7s-0.3-0.4-0.5-0.5c-0.2-0.2-0.4-0.3-0.6-0.5S22.2,5.3,22,5.1s-0.3-0.4-0.5-0.7c-0.1-0.2-0.2-0.5-0.2-0.9
				c0-0.6,0.1-1,0.4-1.3C22,1.7,22.4,1.5,22.9,1.5z M25.2,3.3c0-0.6,0.1-1,0.4-1.3s0.7-0.5,1.3-0.5s1,0.2,1.3,0.5s0.4,0.8,0.4,1.3
				v3.8c0,0.6-0.1,1-0.4,1.3c-0.3,0.3-0.7,0.5-1.3,0.5s-1-0.2-1.3-0.5s-0.4-0.8-0.4-1.3V3.3z M26,7.1c0,0.3,0.1,0.6,0.2,0.8
				s0.4,0.3,0.6,0.3c0.3,0,0.5-0.1,0.7-0.3c0.1-0.2,0.2-0.4,0.2-0.8V3.3c0-0.3-0.1-0.6-0.2-0.8s-0.4-0.3-0.7-0.3
				c-0.3,0-0.5,0.1-0.6,0.3S26,2.9,26,3.3V7.1z"/>
			<polygon class="st7" points="30,8.9 29.3,8.9 29.3,1.6 30.3,1.6 32,6.9 32,1.6 32.7,1.6 32.7,8.9 31.9,8.9 30,3 			"/>
			<polygon class="st7" points="34.3,8.9 33.6,8.9 33.6,1.6 34.6,1.6 36.3,6.9 36.3,1.6 37,1.6 37,8.9 36.2,8.9 34.3,3 			"/>
			<polygon class="st7" points="40.4,4.8 40.4,5.5 38.6,5.5 38.6,8.1 40.8,8.1 40.8,8.8 37.8,8.8 37.8,1.5 40.8,1.5 40.8,2.2 
				38.6,2.2 38.6,4.7 40.4,4.7 			"/>
			<path class="st7" d="M43.1,1.5c0.6,0,1,0.2,1.2,0.5s0.4,0.8,0.4,1.3v0.2h-0.8V3.3c0-0.3-0.1-0.6-0.2-0.8
				c-0.1-0.2-0.3-0.3-0.6-0.3s-0.5,0.1-0.6,0.3s-0.2,0.4-0.2,0.8c0,0.3,0.1,0.5,0.2,0.7c0.1,0.2,0.3,0.4,0.5,0.6s0.4,0.3,0.6,0.5
				c0.2,0.2,0.4,0.3,0.6,0.5c0.2,0.2,0.3,0.4,0.5,0.7c0.2,0.3,0.2,0.5,0.2,0.9c0,0.6-0.1,1-0.4,1.3S43.8,9,43.3,9
				c-0.6,0-1-0.2-1.2-0.5c-0.3-0.3-0.4-0.8-0.4-1.3V6.8h0.8v0.5c0,0.3,0.1,0.6,0.2,0.8c0.1,0.2,0.4,0.3,0.6,0.3
				c0.3,0,0.5-0.1,0.6-0.3s0.2-0.4,0.2-0.8c0-0.3-0.1-0.5-0.2-0.7c-0.1-0.2-0.3-0.4-0.5-0.5c-0.2-0.2-0.4-0.3-0.6-0.5
				c-0.2-0.2-0.4-0.3-0.6-0.5c-0.2-0.2-0.3-0.4-0.5-0.7c-0.1-0.2-0.2-0.5-0.2-0.9c0-0.6,0.1-1,0.4-1.3C42.2,1.9,42.5,1.5,43.1,1.5z"
				/>
			<polygon class="st7" points="48.1,8.9 48.1,2.4 46.8,2.4 46.8,1.7 50.3,1.7 50.3,2.4 49,2.4 49,8.9 			"/>
			<path class="st7" d="M50.7,3.3c0-0.6,0.1-1,0.4-1.3c0.3-0.3,0.7-0.5,1.3-0.5s1,0.2,1.3,0.5s0.4,0.8,0.4,1.3v3.8
				c0,0.6-0.1,1-0.4,1.3c-0.3,0.3-0.7,0.5-1.3,0.5s-1-0.2-1.3-0.5s-0.4-0.8-0.4-1.3V3.3z M51.5,7.1c0,0.3,0.1,0.6,0.2,0.8
				c0.1,0.2,0.4,0.3,0.6,0.3c0.3,0,0.5-0.1,0.7-0.3c0.1-0.2,0.2-0.4,0.2-0.8V3.3c0-0.3-0.1-0.6-0.2-0.8s-0.4-0.3-0.7-0.3
				s-0.5,0.1-0.6,0.3s-0.2,0.4-0.2,0.8V7.1z M55.6,7.1c0,0.3,0.1,0.6,0.2,0.8c0.1,0.2,0.4,0.3,0.6,0.3c0.3,0,0.5-0.1,0.6-0.3
				s0.2-0.4,0.2-0.8V1.5H58V7c0,0.6-0.1,1-0.4,1.3c-0.3,0.3-0.7,0.5-1.2,0.5c-0.6,0-1-0.2-1.2-0.5C54.9,8,54.8,7.5,54.8,7V1.5h0.8
				V7.1z M60.4,1.5c0.6,0,1,0.2,1.2,0.5C61.9,2.3,62,2.8,62,3.3V4h-0.8V3.3c0-0.3-0.1-0.6-0.2-0.8s-0.4-0.3-0.6-0.3
				c-0.3,0-0.5,0.1-0.6,0.3s-0.2,0.4-0.2,0.8v3.8c0,0.3,0.1,0.6,0.2,0.8c0.1,0.2,0.4,0.3,0.6,0.3c0.3,0,0.5-0.1,0.6-0.3
				s0.2-0.4,0.2-0.8V6.2H62v0.9c0,0.6-0.1,1-0.4,1.3c-0.3,0.3-0.7,0.5-1.2,0.5c-0.6,0-1-0.2-1.2-0.5s-0.4-0.8-0.4-1.3V3.3
				c0-0.3,0-0.5,0.1-0.8c0.1-0.2,0.2-0.4,0.3-0.6s0.3-0.3,0.5-0.4S60.1,1.5,60.4,1.5z"/>
			<polygon class="st7" points="63.6,5.6 63.6,8.9 62.8,8.9 62.8,1.6 63.6,1.6 63.6,4.9 65.4,4.9 65.4,1.6 66.2,1.6 66.2,8.9 
				65.4,8.9 65.4,5.6 			"/>
			<path class="st7" d="M69.6,4.8v0.7h-1.8v2.6H70v0.7h-3V1.5h3v0.7h-2.2v2.5h1.8C69.6,4.7,69.6,4.8,69.6,4.8z M69.5,0.1l-1,1.1H68
				l0.7-1.1C68.7,0.1,69.5,0.1,69.5,0.1z"/>
			<polygon class="st7" points="73.3,4.8 73.3,5.5 71.5,5.5 71.5,8.1 73.7,8.1 73.7,8.8 70.7,8.8 70.7,1.5 73.7,1.5 73.7,2.2 
				71.5,2.2 71.5,4.7 73.3,4.7 			"/>
			<path class="st7" d="M76,1.5c0.6,0,1,0.2,1.2,0.5c0.3,0.3,0.4,0.8,0.4,1.3v0.2h-0.8V3.3c0-0.3-0.1-0.6-0.2-0.8S76.3,2.2,76,2.2
				s-0.5,0.1-0.6,0.3s-0.2,0.4-0.2,0.8c0,0.3,0.1,0.5,0.2,0.7c0.1,0.2,0.3,0.4,0.5,0.6s0.4,0.3,0.6,0.5s0.4,0.3,0.6,0.5
				s0.3,0.4,0.5,0.7c0.2,0.3,0.2,0.5,0.2,0.9c0,0.6-0.1,1-0.4,1.3C77.1,8.8,76.7,9,76.2,9s-1-0.2-1.2-0.5c-0.3-0.3-0.4-0.8-0.4-1.3
				V6.8h0.8v0.5c0,0.3,0.1,0.6,0.2,0.8c0.1,0.2,0.4,0.3,0.6,0.3s0.5-0.1,0.6-0.3C76.9,7.9,77,7.7,77,7.3c0-0.3-0.1-0.5-0.2-0.7
				s-0.3-0.4-0.5-0.5c-0.2-0.2-0.4-0.3-0.6-0.5s-0.4-0.3-0.6-0.5s-0.3-0.4-0.5-0.7c-0.1-0.2-0.2-0.5-0.2-0.9c0-0.6,0.1-1,0.4-1.3
				C75,1.7,75.5,1.5,76,1.5z"/>
		</g>
		<g transform="translate(109 264)">
			<path class="st7" d="M2.5,2c0.6,0,1,0.2,1.2,0.5C4,2.8,4.1,3.3,4.1,3.8V4H3.3V3.8c0-0.3-0.1-0.6-0.2-0.8C3,2.8,2.8,2.7,2.5,2.7
				S2,2.8,1.9,3S1.7,3.4,1.7,3.8c0,0.3,0.1,0.5,0.2,0.7C2,4.7,2.2,4.9,2.4,5.1C2.6,5.3,2.8,5.4,3,5.6s0.4,0.3,0.6,0.5
				c0.2,0.2,0.3,0.4,0.5,0.7c0.2,0.3,0.2,0.5,0.2,0.9c0,0.6-0.1,1-0.4,1.3C3.6,9.3,3.2,9.5,2.7,9.5c-0.6,0-1-0.2-1.2-0.5
				C1.2,8.7,1.1,8.2,1.1,7.7V7.3h0.8v0.5c0,0.3,0.1,0.6,0.2,0.8c0.1,0.2,0.4,0.3,0.6,0.3c0.3,0,0.5-0.1,0.6-0.3s0.2-0.4,0.2-0.8
				c0-0.3-0.1-0.5-0.2-0.7C3.2,6.9,3,6.7,2.8,6.6C2.6,6.4,2.4,6.3,2.2,6.1C2,5.9,1.8,5.8,1.6,5.6C1.4,5.4,1.3,5.2,1.1,4.9
				C1,4.7,0.9,4.4,0.9,4c0-0.6,0.1-1,0.4-1.3C1.5,2.1,2,2,2.5,2z M5.6,7.6c0,0.3,0.1,0.6,0.2,0.8s0.4,0.3,0.6,0.3
				c0.3,0,0.5-0.1,0.6-0.3C7.1,8.2,7.2,8,7.2,7.6V2H8v5.5c0,0.6-0.1,1-0.4,1.3C7.3,9.1,6.9,9.3,6.4,9.3c-0.6,0-1-0.2-1.2-0.5
				C4.9,8.5,4.8,8,4.8,7.5V2h0.8C5.6,2,5.6,7.6,5.6,7.6z M10.5,2c0.6,0,1,0.1,1.2,0.4c0.3,0.3,0.4,0.7,0.4,1.2v0.6
				c0,0.4-0.1,0.7-0.2,1c-0.1,0.2-0.4,0.4-0.7,0.5c0.3,0.1,0.6,0.3,0.7,0.5c0.1,0.2,0.2,0.6,0.2,1v1.1c0,0.2,0,0.3,0,0.5
				c0,0.1,0.1,0.3,0.1,0.4h-0.8c0-0.1-0.1-0.2-0.1-0.3s0-0.3,0-0.5V7.3c0-0.4-0.1-0.7-0.3-0.8c-0.2-0.2-0.4-0.2-0.8-0.2H9.6v3.1H8.8
				V2H10.5z M10.3,5.5c0.3,0,0.6-0.1,0.8-0.2s0.3-0.4,0.3-0.8V3.8c0-0.3-0.1-0.6-0.2-0.7c-0.1-0.2-0.3-0.2-0.6-0.2H9.8v2.7L10.3,5.5
				L10.3,5.5z"/>
			<polygon class="st7" points="14.6,9.3 14.6,2 15.4,2 15.4,8.5 17.5,8.5 17.5,9.2 14.6,9.2 			"/>
			<polygon class="st7" points="20.6,5.3 20.6,6 18.8,6 18.8,8.6 21,8.6 21,9.3 18,9.3 18,2 21,2 21,2.7 18.8,2.7 18.8,5.2 
				20.6,5.2 			"/>
			<path class="st7" d="M23.3,2c0.6,0,1,0.2,1.2,0.5c0.3,0.3,0.4,0.8,0.4,1.3V4h-0.8V3.8c0-0.3-0.1-0.6-0.2-0.8s-0.3-0.3-0.6-0.3
				c-0.3,0-0.5,0.1-0.6,0.3s-0.2,0.4-0.2,0.8c0,0.3,0.1,0.5,0.2,0.7s0.3,0.4,0.5,0.6s0.4,0.3,0.6,0.5s0.4,0.3,0.6,0.5
				s0.3,0.4,0.5,0.7c0.2,0.3,0.2,0.5,0.2,0.9c0,0.6-0.1,1-0.4,1.3S24,9.5,23.5,9.5c-0.6,0-1-0.2-1.2-0.5c-0.3-0.3-0.4-0.8-0.4-1.3
				V7.3h0.8v0.5c0,0.3,0.1,0.6,0.2,0.8s0.4,0.3,0.6,0.3c0.3,0,0.5-0.1,0.6-0.3s0.2-0.4,0.2-0.8c0-0.3-0.1-0.5-0.2-0.7
				s-0.3-0.4-0.5-0.5c-0.2-0.2-0.4-0.3-0.6-0.5s-0.4-0.3-0.6-0.5s-0.3-0.4-0.5-0.7c-0.1-0.2-0.2-0.5-0.2-0.9c0-0.6,0.1-1,0.4-1.3
				C22.4,2.1,22.8,2,23.3,2z M28.9,2c0.6,0,1,0.1,1.2,0.4c0.3,0.3,0.4,0.7,0.4,1.2v0.6c0,0.4-0.1,0.7-0.2,1
				c-0.1,0.2-0.4,0.4-0.7,0.5c0.3,0.1,0.6,0.3,0.7,0.5s0.2,0.6,0.2,1v1.1c0,0.2,0,0.3,0,0.5c0,0.1,0.1,0.3,0.1,0.4h-0.8
				c0-0.1-0.1-0.2-0.1-0.3s0-0.3,0-0.5V7.3c0-0.4-0.1-0.7-0.3-0.8c-0.2-0.2-0.4-0.2-0.8-0.2H28v3.1h-0.8V2H28.9z M28.7,5.5
				c0.3,0,0.6-0.1,0.8-0.2c0.2-0.1,0.3-0.4,0.3-0.8V3.8c0-0.3-0.1-0.6-0.2-0.7c-0.1-0.2-0.3-0.2-0.6-0.2h-0.8v2.7L28.7,5.5L28.7,5.5
				z M33.9,5.3V6h-1.8v2.6h2.2v0.7h-3V2h3v0.7h-2.2v2.5h1.8V5.3z M33.9,0.6l-1,1.1h-0.6L33,0.6H33.9z M36.6,2c0.6,0,1,0.2,1.2,0.5
				c0.3,0.3,0.4,0.8,0.4,1.3V4h-0.8V3.8c0-0.3-0.1-0.6-0.2-0.8c-0.1-0.2-0.3-0.3-0.6-0.3S36.1,2.8,36,3s-0.2,0.4-0.2,0.8
				c0,0.3,0.1,0.5,0.2,0.7s0.3,0.4,0.5,0.6s0.4,0.3,0.6,0.5c0.2,0.2,0.4,0.3,0.6,0.5c0.2,0.2,0.3,0.4,0.5,0.7
				c0.2,0.3,0.2,0.5,0.2,0.9c0,0.6-0.1,1-0.4,1.3s-0.7,0.5-1.2,0.5c-0.6,0-1-0.2-1.2-0.5c-0.3-0.3-0.4-0.8-0.4-1.3V7.3H36v0.5
				c0,0.3,0.1,0.6,0.2,0.8c0.1,0.2,0.4,0.3,0.6,0.3c0.3,0,0.5-0.1,0.6-0.3s0.2-0.4,0.2-0.8c0-0.3-0.1-0.5-0.2-0.7
				c-0.1-0.2-0.3-0.4-0.5-0.5c-0.2-0.2-0.4-0.3-0.6-0.5c-0.2-0.2-0.4-0.3-0.6-0.5c-0.2-0.2-0.3-0.4-0.5-0.7C35.1,4.7,35,4.4,35,4
				c0-0.6,0.1-1,0.4-1.3C35.7,2.1,36.1,2,36.6,2z"/>
			<polygon class="st7" points="41.5,5.3 41.5,6 39.7,6 39.7,8.6 41.9,8.6 41.9,9.3 38.9,9.3 38.9,2 41.9,2 41.9,2.7 39.7,2.7 
				39.7,5.2 41.5,5.2 			"/>
			<path class="st7" d="M43.5,7.8l-0.3,1.5h-0.7L43.9,2h1.2l1.4,7.3h-0.8l-0.3-1.5H43.5z M43.6,7.2h1.6L44.4,3L43.6,7.2z M47.8,7.6
				c0,0.3,0.1,0.6,0.2,0.8c0.1,0.2,0.4,0.3,0.6,0.3c0.3,0,0.5-0.1,0.6-0.3s0.2-0.4,0.2-0.8V2h0.8v5.5c0,0.6-0.1,1-0.4,1.3
				s-0.7,0.5-1.2,0.5c-0.6,0-1-0.2-1.2-0.5C47.1,8.5,47,8,47,7.5V2h0.8V7.6z"/>
			<polygon class="st7" points="52.9,6.2 51.7,9.3 50.9,9.3 52.4,5.6 51,2 51.8,2 52.9,4.9 54,2 54.8,2 53.4,5.5 54.9,9.2 54,9.2 
							"/>
			<path class="st7" d="M58.8,2c0.6,0,1,0.2,1.2,0.5c0.3,0.3,0.4,0.8,0.4,1.3V4h-0.8V3.8c0-0.3-0.1-0.6-0.2-0.8
				c-0.1-0.2-0.3-0.3-0.6-0.3S58.3,2.8,58.2,3C58.1,3.2,58,3.4,58,3.8c0,0.3,0.1,0.5,0.2,0.7c0.1,0.2,0.3,0.4,0.5,0.6
				s0.4,0.3,0.6,0.5c0.2,0.2,0.4,0.3,0.6,0.5c0.2,0.2,0.3,0.4,0.5,0.7c0.2,0.3,0.2,0.5,0.2,0.9c0,0.6-0.1,1-0.4,1.3S59.5,9.5,59,9.5
				c-0.6,0-1-0.2-1.2-0.5c-0.3-0.3-0.4-0.8-0.4-1.3V7.3h0.8v0.5c0,0.3,0.1,0.6,0.2,0.8c0.1,0.2,0.4,0.3,0.6,0.3s0.5-0.1,0.6-0.3
				s0.2-0.4,0.2-0.8c0-0.3-0.1-0.5-0.2-0.7c-0.1-0.2-0.3-0.4-0.5-0.5c-0.2-0.2-0.4-0.3-0.6-0.5c-0.2-0.2-0.4-0.3-0.6-0.5
				c-0.2-0.2-0.3-0.4-0.5-0.7c-0.1-0.2-0.2-0.5-0.2-0.9c0-0.6,0.1-1,0.4-1.3C57.8,2.1,58.2,2,58.8,2z M61,3.8c0-0.6,0.1-1,0.4-1.3
				C61.7,2.2,62.1,2,62.7,2c0.6,0,1,0.2,1.3,0.5c0.3,0.3,0.4,0.8,0.4,1.3v3.8c0,0.6-0.1,1-0.4,1.3c-0.3,0.3-0.7,0.5-1.3,0.5
				s-1-0.2-1.3-0.5C61.1,8.6,61,8.1,61,7.6V3.8z M61.8,7.6c0,0.3,0.1,0.6,0.2,0.8c0.1,0.2,0.4,0.3,0.6,0.3c0.3,0,0.5-0.1,0.7-0.3
				s0.2-0.4,0.2-0.8V3.8c0-0.3-0.1-0.6-0.2-0.8c-0.1-0.2-0.4-0.3-0.7-0.3S62.1,2.8,62,3s-0.2,0.4-0.2,0.8V7.6z M66.7,2
				c0.6,0,1,0.2,1.2,0.5c0.3,0.3,0.4,0.8,0.4,1.3v0.7h-0.8V3.8c0-0.3-0.1-0.6-0.2-0.8c-0.1-0.2-0.4-0.3-0.6-0.3
				c-0.3,0-0.5,0.1-0.6,0.3s-0.2,0.4-0.2,0.8v3.8c0,0.3,0.1,0.6,0.2,0.8s0.4,0.3,0.6,0.3c0.3,0,0.5-0.1,0.6-0.3s0.2-0.4,0.2-0.8V6.7
				h0.8v0.9c0,0.6-0.1,1-0.4,1.3c-0.3,0.3-0.7,0.5-1.2,0.5c-0.6,0-1-0.2-1.2-0.5c-0.3-0.3-0.4-0.8-0.4-1.3V3.8c0-0.3,0-0.5,0.1-0.8
				c0.1-0.2,0.2-0.4,0.3-0.6C65.6,2.2,65.8,2.1,66,2C66.2,2,66.4,2,66.7,2z"/>
			<polygon class="st7" points="69.9,2 69.9,9.3 69.1,9.3 69.1,2 			"/>
			<path class="st7" d="M71.5,7.8l-0.3,1.5h-0.7L71.9,2h1.2l1.4,7.3h-0.8l-0.3-1.5H71.5z M71.6,7.2h1.6L72.4,3L71.6,7.2z M75.9,7.6
				c0,0.3,0.1,0.6,0.2,0.8s0.4,0.3,0.6,0.3c0.3,0,0.5-0.1,0.6-0.3s0.2-0.4,0.2-0.8V2h0.8v5.5c0,0.6-0.1,1-0.4,1.3s-0.7,0.5-1.2,0.5
				c-0.6,0-1-0.2-1.2-0.5c-0.3-0.3-0.4-0.8-0.4-1.3V2h0.8V7.6z"/>
			<polygon class="st7" points="80.9,6.2 79.7,9.3 78.9,9.3 80.4,5.6 79,2 79.8,2 80.9,4.9 82,2 82.8,2 81.4,5.5 82.9,9.2 82,9.2 
							"/>
		</g>
		<g transform="translate(0 182)">
			<path class="st7" d="M2.3,2.2c0.6,0,1,0.2,1.2,0.5C3.8,3,3.9,3.5,3.9,4v0.9c0,0.6-0.1,1-0.4,1.3C3.2,6.5,2.8,6.6,2.2,6.6H1.5v2.9
				H0.7V2.2H2.3L2.3,2.2z M2.3,5.9c0.3,0,0.5-0.1,0.7-0.2c0.1-0.1,0.2-0.4,0.2-0.8v-1c0-0.3-0.1-0.6-0.2-0.7C2.9,3,2.7,3,2.4,3H1.6
				v2.9H2.3L2.3,5.9z M5.3,8L5,9.5H4.3l1.4-7.3h1.2l1.4,7.3H7.5L7.2,8H5.3z M5.4,7.3H7L6.2,3.1L5.4,7.3z"/>
			<polygon class="st7" points="9.6,6.9 8.1,2.2 8.9,2.2 10,5.8 11.1,2.2 12,2.2 10.5,6.9 10.5,9.5 9.7,9.5 9.7,6.9 			"/>
			<path class="st7" d="M14,2.1c0.6,0,1,0.2,1.2,0.5c0.3,0.3,0.4,0.8,0.4,1.3v0.2h-0.8V3.9c0-0.3-0.1-0.6-0.2-0.8
				c-0.1-0.2-0.3-0.3-0.6-0.3s-0.5,0.1-0.6,0.3s-0.2,0.4-0.2,0.8c0,0.3,0.1,0.5,0.2,0.7c0.1,0.2,0.3,0.4,0.5,0.6s0.4,0.3,0.6,0.5
				c0.2,0.2,0.4,0.3,0.6,0.5c0.2,0.2,0.3,0.4,0.5,0.7c0.2,0.3,0.2,0.5,0.2,0.9c0,0.6-0.1,1-0.4,1.3c-0.3,0.3-0.7,0.5-1.2,0.5
				c-0.6,0-1-0.2-1.2-0.5c-0.3-0.3-0.4-0.8-0.4-1.3V7.4h0.8v0.5c0,0.3,0.1,0.6,0.2,0.8S14,9,14.2,9c0.3,0,0.5-0.1,0.6-0.3
				C14.9,8.5,15,8.3,15,7.9c0-0.3-0.1-0.5-0.2-0.7c-0.1-0.2-0.3-0.4-0.5-0.6s-0.4-0.3-0.6-0.5c-0.2-0.2-0.4-0.3-0.6-0.5
				c-0.2-0.2-0.3-0.4-0.5-0.7c-0.1-0.2-0.2-0.5-0.2-0.9c0-0.6,0.1-1,0.4-1.3C13,2.3,13.5,2.1,14,2.1z M19.6,2.2c0.6,0,1,0.1,1.2,0.4
				c0.3,0.3,0.4,0.7,0.4,1.2v0.6c0,0.4-0.1,0.7-0.2,1c-0.1,0.2-0.4,0.4-0.7,0.5C20.6,6,20.9,6.2,21,6.4c0.1,0.2,0.2,0.6,0.2,1v1.1
				c0,0.2,0,0.3,0,0.5c0,0.1,0.1,0.3,0.1,0.4h-0.8c0-0.1-0.1-0.2-0.1-0.3s0-0.3,0-0.5V7.5c0-0.4-0.1-0.7-0.3-0.8
				c-0.2-0.2-0.4-0.2-0.8-0.2h-0.6v3.1h-0.8V2.3L19.6,2.2L19.6,2.2z M19.4,5.6c0.3,0,0.6-0.1,0.8-0.2c0.2-0.1,0.3-0.4,0.3-0.8V3.9
				c0-0.3-0.1-0.6-0.2-0.7C20.2,3.1,20,3,19.7,3h-0.8v2.7L19.4,5.6L19.4,5.6z"/>
			<polygon class="st7" points="24.6,5.4 24.6,6.1 22.8,6.1 22.8,8.7 25,8.7 25,9.4 22,9.4 22,2.1 25,2.1 25,2.8 22.8,2.8 22.8,5.3 
				24.6,5.3 			"/>
			<path class="st7" d="M27.4,2.2c0.6,0,1,0.2,1.2,0.5C28.9,3,29,3.5,29,4v0.9c0,0.6-0.1,1-0.4,1.3c-0.3,0.3-0.7,0.4-1.3,0.4h-0.7
				v2.9h-0.8V2.2H27.4L27.4,2.2z M27.3,5.9c0.3,0,0.5-0.1,0.7-0.2c0.1-0.1,0.2-0.4,0.2-0.8v-1c0-0.3-0.1-0.6-0.2-0.7
				C27.9,3,27.7,3,27.4,3h-0.8v2.9H27.3L27.3,5.9z M31.2,2.2c0.6,0,1,0.1,1.2,0.4c0.3,0.3,0.4,0.7,0.4,1.2v0.6c0,0.4-0.1,0.7-0.2,1
				c-0.1,0.2-0.4,0.4-0.7,0.5c0.3,0.1,0.6,0.3,0.7,0.5c0.1,0.2,0.2,0.6,0.2,1v1.1c0,0.2,0,0.3,0,0.5c0,0.1,0.1,0.3,0.1,0.4h-0.8
				c0-0.1-0.1-0.2-0.1-0.3s0-0.3,0-0.5V7.5c0-0.4-0.1-0.7-0.3-0.8c-0.2-0.2-0.4-0.2-0.8-0.2h-0.6v3.1h-0.8V2.3L31.2,2.2L31.2,2.2z
				 M31,5.6c0.3,0,0.6-0.1,0.8-0.2C32,5.3,32.1,5,32.1,4.6V3.9c0-0.3-0.1-0.6-0.2-0.7C31.8,3.1,31.6,3,31.3,3h-0.8v2.7L31,5.6
				L31,5.6z M36.3,5.4v0.7h-1.8v2.6h2.2v0.7h-3V2.1h3v0.7h-2.2v2.5L36.3,5.4L36.3,5.4z M36.2,0.7l-1,1.1h-0.6l0.7-1.1
				C35.3,0.7,36.2,0.7,36.2,0.7z M39,2.1c0.6,0,1,0.2,1.2,0.5c0.3,0.3,0.4,0.8,0.4,1.3v0.2h-0.8V3.9c0-0.3-0.1-0.6-0.2-0.8
				c-0.1-0.2-0.3-0.3-0.6-0.3s-0.5,0.1-0.6,0.3s-0.2,0.4-0.2,0.8c0,0.3,0.1,0.5,0.2,0.7c0.1,0.2,0.3,0.4,0.5,0.6s0.4,0.3,0.6,0.5
				c0.2,0.2,0.4,0.3,0.6,0.5c0.2,0.2,0.3,0.4,0.5,0.7c0.2,0.3,0.2,0.5,0.2,0.9c0,0.6-0.1,1-0.4,1.3c-0.3,0.3-0.7,0.5-1.2,0.5
				c-0.6,0-1-0.2-1.2-0.5c-0.3-0.3-0.4-0.8-0.4-1.3V7.4h0.8v0.5c0,0.3,0.1,0.6,0.2,0.8S39,9,39.2,9c0.3,0,0.5-0.1,0.6-0.3
				C39.9,8.5,40,8.3,40,7.9c0-0.3-0.1-0.5-0.2-0.7c-0.1-0.2-0.3-0.4-0.5-0.6s-0.4-0.3-0.6-0.5c-0.2-0.2-0.4-0.3-0.6-0.5
				c-0.2-0.2-0.3-0.4-0.5-0.7c-0.1-0.2-0.2-0.5-0.2-0.9c0-0.6,0.1-1,0.4-1.3C38,2.3,38.4,2.1,39,2.1z"/>
			<polygon class="st7" points="43.9,5.4 43.9,6.1 42.1,6.1 42.1,8.7 44.3,8.7 44.3,9.4 41.3,9.4 41.3,2.1 44.3,2.1 44.3,2.8 
				42.1,2.8 42.1,5.3 43.9,5.3 			"/>
			<polygon class="st7" points="45.8,9.5 45,9.5 45,2.2 46,2.2 47.7,7.5 47.7,2.2 48.4,2.2 48.4,9.5 47.6,9.5 45.7,3.6 45.7,9.5 			
				"/>
			<polygon class="st7" points="50.4,9.5 50.4,3 49,3 49,2.3 52.5,2.3 52.5,3 51.2,3 51.2,9.5 			"/>
			<path class="st7" d="M55.6,5.4v0.7h-1.8v2.6H56v0.7h-3V2.1h3v0.7h-2.2v2.5L55.6,5.4L55.6,5.4z M55.6,0.7l-1,1.1H54l0.7-1.1
				C54.7,0.7,55.6,0.7,55.6,0.7z M58.3,2.1c0.6,0,1,0.2,1.2,0.5c0.3,0.3,0.4,0.8,0.4,1.3v0.2h-0.8V3.9c0-0.3-0.1-0.6-0.2-0.8
				c-0.1-0.2-0.3-0.3-0.6-0.3s-0.5,0.1-0.6,0.3s-0.2,0.4-0.2,0.8c0,0.3,0.1,0.5,0.2,0.7C57.8,4.8,58,5,58.2,5.2s0.4,0.3,0.6,0.5
				C59,5.9,59.2,6,59.4,6.2s0.3,0.4,0.5,0.7c0.2,0.3,0.2,0.5,0.2,0.9c0,0.6-0.1,1-0.4,1.3c-0.3,0.3-0.7,0.5-1.2,0.5
				c-0.6,0-1-0.2-1.2-0.5c-0.3-0.3-0.4-0.8-0.4-1.3V7.4h0.8v0.5c0,0.3,0.1,0.6,0.2,0.8S58.3,9,58.5,9c0.3,0,0.5-0.1,0.6-0.3
				s0.2-0.4,0.2-0.8c0-0.3-0.1-0.5-0.2-0.7C59,7,58.8,6.8,58.6,6.6c-0.2-0.2-0.4-0.3-0.6-0.5c-0.2-0.2-0.4-0.3-0.6-0.5
				c-0.2-0.2-0.3-0.4-0.5-0.7c-0.1-0.2-0.2-0.5-0.2-0.9c0-0.6,0.1-1,0.4-1.3C57.4,2.3,57.8,2.1,58.3,2.1z"/>
		</g>
		<g transform="translate(113 115)">
			<polygon class="st7" points="4.2,12.9 6,0.6 8.2,0.6 5.9,15.7 2.4,15.7 0.1,0.6 2.5,0.6 			"/>
			<polygon class="st7" points="9.3,0.5 11.7,0.5 11.7,15.6 9.3,15.6 			"/>
			<path class="st7" d="M13.1,4.2C13.1,3,13.4,2,14,1.4c0.6-0.7,1.5-1,2.6-1c1.2,0,2,0.3,2.6,1s0.9,1.6,0.9,2.8v0.5h-2.2V4
				c0-0.5-0.1-0.9-0.3-1.2c-0.2-0.2-0.5-0.3-0.9-0.3S16,2.6,15.8,2.8S15.5,3.4,15.5,4c0,0.5,0.1,1,0.3,1.4s0.5,0.8,0.9,1.1
				c0.3,0.4,0.7,0.7,1.1,1.1s0.8,0.7,1.1,1.2c0.3,0.4,0.6,0.9,0.9,1.4c0.2,0.5,0.3,1.2,0.3,1.9c0,1.2-0.3,2.2-0.9,2.8s-1.5,1-2.6,1
				s-2-0.3-2.6-1s-0.9-1.6-0.9-2.8v-0.9h2.2v1.1c0,0.5,0.1,0.9,0.3,1.1c0.2,0.2,0.5,0.3,0.9,0.3s0.7-0.1,0.9-0.3
				c0.2-0.2,0.3-0.6,0.3-1.1s-0.1-1-0.3-1.4c-0.2-0.4-0.5-0.8-0.9-1.1c-0.3-0.4-0.7-0.7-1.1-1.1C15,8.3,14.6,8,14.3,7.5
				c-0.3-0.4-0.6-0.9-0.9-1.4C13.3,5.5,13.1,4.9,13.1,4.2z"/>
			<polygon class="st7" points="21.5,0.5 23.9,0.5 23.9,15.6 21.5,15.6 			"/>
			<polygon class="st7" points="24.9,0.5 32.2,0.5 32.2,2.7 29.7,2.7 29.7,15.7 27.3,15.7 27.3,2.7 24.8,2.7 24.8,0.5 			"/>
			<polygon class="st7" points="35.7,6.9 39,6.9 39,9.1 35.7,9.1 35.7,13.5 39.8,13.5 39.8,15.7 33.3,15.7 33.3,0.6 39.8,0.6 
				39.8,2.8 35.7,2.8 			"/>
			<path class="st7" d="M43.5,0.5v11.7c0,0.5,0.1,0.9,0.3,1.1s0.5,0.3,0.9,0.3s0.7-0.1,0.9-0.3s0.3-0.6,0.3-1.1V0.5h2.2V12
				c0,1.2-0.3,2.2-0.9,2.8c-0.6,0.6-1.5,1-2.6,1c-1.2,0-2-0.3-2.6-1s-0.9-1.6-0.9-2.8V0.5H43.5z M54.8,15.7c0-0.1-0.1-0.2-0.1-0.3
				s-0.1-0.2-0.1-0.3s0-0.3,0-0.5s0-0.5,0-0.8v-2.4c0-0.7-0.1-1.2-0.4-1.5c-0.3-0.3-0.6-0.4-1.2-0.4h-0.8v6.2h-2.4V0.6h3.6
				c1.2,0,2.1,0.3,2.7,0.9c0.6,0.6,0.8,1.4,0.8,2.6v1.2c0,1.6-0.5,2.6-1.6,3.1c0.6,0.2,1,0.6,1.2,1.2c0.2,0.6,0.3,1.2,0.3,2v2.3
				c0,0.4,0,0.7,0,1s0.1,0.6,0.2,0.9L54.8,15.7L54.8,15.7z M52.2,2.7v4.6h0.9c0.4,0,0.8-0.1,1-0.3c0.2-0.2,0.4-0.6,0.4-1.3V4.2
				c0-0.5-0.1-0.9-0.3-1.2c-0.2-0.2-0.5-0.4-0.9-0.4h-1.1C52.2,2.6,52.2,2.7,52.2,2.7z M58.2,4.2c0-1.2,0.3-2.2,0.9-2.8
				c0.6-0.7,1.5-1,2.6-1s2,0.3,2.6,1c0.6,0.7,0.9,1.6,0.9,2.8v0.5H63V4c0-0.5-0.1-0.9-0.3-1.2c-0.2-0.2-0.5-0.3-0.9-0.3
				s-0.7,0.1-0.9,0.3C60.7,3,60.6,3.4,60.6,4c0,0.5,0.1,1,0.3,1.4s0.5,0.8,0.9,1.1c0.3,0.4,0.7,0.7,1.1,1.1C63.3,8,63.7,8.3,64,8.8
				c0.3,0.4,0.6,0.9,0.9,1.4c0.2,0.5,0.3,1.2,0.3,1.9c0,1.2-0.3,2.2-0.9,2.8s-1.5,1-2.6,1c-1.2,0-2-0.3-2.6-1s-0.9-1.6-0.9-2.8v-0.9
				h2.2v1.1c0,0.5,0.1,0.9,0.3,1.1c0.2,0.2,0.5,0.3,0.9,0.3s0.7-0.1,0.9-0.3s0.3-0.6,0.3-1.1s-0.1-1-0.3-1.4s-0.5-0.8-0.9-1.1
				c-0.3-0.4-0.7-0.7-1.1-1.1c-0.4-0.4-0.8-0.7-1.1-1.2c-0.3-0.4-0.6-0.9-0.9-1.4C58.4,5.5,58.2,4.9,58.2,4.2z"/>
		</g>
		<path class="st9" d="M137.1,241.1l1.5-10.1h3.1v14.3h-2.1V235l-1.5,10.2h-2.1l-1.7-10.1v10.1h-2v-14.3h3.1L137.1,241.1z
			 M143.3,230.9h2.2v14.3h-2.2V230.9z M147.2,230.9h2.2v12.2h3.7v2h-5.9V230.9z M154.1,230.9h2.2v12.2h3.7v2h-5.9V230.9z M161,230.9
			h2.2v14.3H161V230.9z M166.9,241.9c0,0.5,0.1,0.9,0.3,1.1c0.2,0.2,0.5,0.3,0.8,0.3s0.6-0.1,0.8-0.3c0.2-0.2,0.3-0.6,0.3-1.1v-7.7
			c0-0.5-0.1-0.9-0.3-1.1c-0.2-0.2-0.5-0.3-0.8-0.3s-0.6,0.1-0.8,0.3c-0.2,0.2-0.3,0.6-0.3,1.1V241.9z M164.7,234.4
			c0-1.2,0.3-2,0.9-2.7c0.6-0.6,1.4-0.9,2.5-0.9s1.9,0.3,2.5,0.9c0.6,0.6,0.9,1.5,0.9,2.7v7.4c0,1.2-0.3,2-0.9,2.7
			c-0.6,0.6-1.4,0.9-2.5,0.9s-1.9-0.3-2.5-0.9c-0.6-0.6-0.9-1.5-0.9-2.7V234.4z M174.9,234.9v10.3h-2v-14.3h2.8l2.3,8.5v-8.5h2v14.3
			h-2.3L174.9,234.9z M181.3,234.4c0-1.2,0.3-2,0.8-2.7c0.5-0.6,1.4-0.9,2.5-0.9c1.1,0,1.9,0.3,2.5,0.9c0.5,0.6,0.8,1.5,0.8,2.7v0.4
			h-2.1v-0.6c0-0.5-0.1-0.9-0.3-1.1c-0.2-0.2-0.5-0.3-0.8-0.3c-0.4,0-0.6,0.1-0.8,0.3c-0.2,0.2-0.3,0.6-0.3,1.1
			c0,0.5,0.1,0.9,0.3,1.3c0.2,0.4,0.5,0.7,0.8,1.1c0.3,0.3,0.7,0.7,1,1c0.4,0.3,0.7,0.7,1,1.1s0.6,0.8,0.8,1.3s0.3,1.1,0.3,1.8
			c0,1.2-0.3,2-0.8,2.7c-0.6,0.6-1.4,0.9-2.5,0.9c-1.1,0-1.9-0.3-2.5-0.9c-0.6-0.6-0.8-1.5-0.8-2.7v-0.9h2.1v1
			c0,0.5,0.1,0.9,0.3,1.1c0.2,0.2,0.5,0.3,0.8,0.3c0.4,0,0.6-0.1,0.8-0.3c0.2-0.2,0.3-0.6,0.3-1.1c0-0.5-0.1-0.9-0.3-1.3
			c-0.2-0.4-0.5-0.7-0.8-1.1s-0.7-0.7-1-1c-0.4-0.3-0.7-0.7-1-1.1s-0.6-0.8-0.8-1.3C181.5,235.6,181.3,235,181.3,234.4z"/>
		<path class="st9" d="M110.4,240.5l4.1-9.6h2.4v9.6h1.1v2h-1.1v2.6h-2.2v-2.6h-4.3V240.5z M114.8,240.5v-5.4l-2.3,5.4H114.8z"/>
		<path class="st9" d="M123.6,240.4v1.3c0,0.5,0.1,0.9,0.3,1.1c0.2,0.2,0.5,0.3,0.8,0.3c0.4,0,0.6-0.1,0.8-0.3
			c0.2-0.2,0.3-0.6,0.3-1.1v-3.1c0-0.5-0.1-0.9-0.3-1.1c-0.2-0.2-0.5-0.3-0.8-0.3c-0.4,0-0.6,0.1-0.8,0.3c-0.2,0.2-0.3,0.6-0.3,1.1
			v0.4h-2.1l0.4-8.3h5.9v2h-3.9l-0.2,3.4c0.4-0.7,1.1-1,2-1c0.8,0,1.4,0.3,1.9,0.8c0.4,0.6,0.6,1.4,0.6,2.4v3.2c0,1.2-0.3,2-0.8,2.7
			c-0.6,0.6-1.4,0.9-2.5,0.9s-1.9-0.3-2.5-0.9c-0.6-0.6-0.8-1.5-0.8-2.7v-1.2H123.6z"/>
		<g>
			<path class="st9" d="M118.6,246.6c0.7-0.3,1.3-0.8,1.3-1.3c0-0.5-0.5-0.7-1-0.8c-0.1,0-0.3-0.2-0.3-0.5c0-0.4,0.3-0.8,0.9-0.8
				c0.6,0,1.3,0.5,1.3,1.7c0,1.2-1.1,2-2,2.3L118.6,246.6z"/>
		</g>
		<path class="st10" d="M253.4,169.9c0,1.2-0.3,2.2-1,2.9s-1.6,1-2.8,1c-1.2,0-2.2-0.3-2.8-1c-0.6-0.7-1-1.6-1-2.9v-1.2
			c0-0.7,0.1-1.4,0.4-1.9s0.6-1,1.1-1.3c-1-0.5-1.5-1.6-1.5-3.1v-0.5c0-1.2,0.3-2.2,1-2.9c0.6-0.7,1.6-1,2.8-1c1.2,0,2.2,0.3,2.8,1
			s1,1.6,1,2.9v0.5c0,1.5-0.5,2.5-1.5,3.1c0.5,0.3,0.9,0.7,1.1,1.3s0.4,1.2,0.4,1.9V169.9z M248.2,169.8c0,0.7,0.1,1.2,0.4,1.4
			c0.3,0.2,0.6,0.4,1,0.4c0.4,0,0.7-0.1,1-0.4s0.4-0.7,0.4-1.4v-1.4c0-0.6-0.1-1.1-0.4-1.3c-0.2-0.3-0.6-0.4-1-0.4
			c-0.4,0-0.8,0.1-1,0.4c-0.2,0.3-0.4,0.7-0.4,1.3V169.8z M248.2,162.8c0,0.6,0.1,1,0.4,1.3c0.3,0.2,0.6,0.4,1,0.4
			c0.4,0,0.7-0.1,1-0.4s0.4-0.7,0.4-1.3v-0.9c0-0.7-0.1-1.2-0.4-1.4s-0.6-0.4-1-0.4c-0.4,0-0.7,0.1-1,0.4c-0.3,0.2-0.4,0.7-0.4,1.4
			V162.8z M261.9,168.6v1.4c0,0.6,0.1,0.9,0.3,1.2s0.5,0.3,0.9,0.3s0.7-0.1,0.9-0.3s0.3-0.6,0.3-1.2v-3.4c0-0.6-0.1-1-0.3-1.2
			s-0.5-0.3-0.9-0.3s-0.7,0.1-0.9,0.3s-0.3,0.6-0.3,1.2v0.5h-2.3l0.4-8.9h6.4v2.2h-4.2L262,164c0.5-0.7,1.2-1.1,2.1-1.1
			c0.9,0,1.6,0.3,2,0.9c0.4,0.6,0.7,1.5,0.7,2.6v3.4c0,1.2-0.3,2.2-0.9,2.9c-0.6,0.7-1.5,1-2.7,1s-2.1-0.3-2.7-1
			c-0.6-0.7-0.9-1.6-0.9-2.9v-1.3H261.9z M273.1,161.9c0-0.7-0.1-1.2-0.3-1.4c-0.2-0.2-0.5-0.4-0.9-0.4c-0.4,0-0.7,0.1-0.9,0.3
			c-0.2,0.2-0.3,0.6-0.3,1.2v1h-2.3v-0.8c0-1.2,0.3-2.2,0.9-2.9c0.6-0.7,1.5-1,2.7-1c1.2,0,2.1,0.3,2.7,1c0.6,0.7,0.9,1.6,0.9,2.9
			v0.4c0,1.6-0.6,2.7-1.7,3.2c0.6,0.3,1.1,0.7,1.3,1.2c0.3,0.6,0.4,1.2,0.4,2v1.2c0,1.2-0.3,2.2-0.9,2.9c-0.6,0.7-1.5,1-2.7,1
			c-1.2,0-2.1-0.3-2.7-1c-0.6-0.7-0.9-1.6-0.9-2.9v-1.3h2.3v1.4c0,0.6,0.1,1,0.3,1.2c0.2,0.2,0.5,0.3,0.9,0.3c0.4,0,0.7-0.1,0.9-0.4
			c0.2-0.2,0.3-0.7,0.3-1.4v-1.2c0-0.7-0.1-1.2-0.4-1.5c-0.2-0.3-0.7-0.4-1.2-0.4h-0.8v-2.2h0.9c0.5,0,0.8-0.1,1.1-0.4
			c0.3-0.2,0.4-0.7,0.4-1.3V161.9z M282.3,162.1c0-0.7-0.1-1.1-0.3-1.4c-0.2-0.3-0.6-0.4-0.9-0.4s-0.7,0.1-0.9,0.3
			c-0.2,0.2-0.3,0.6-0.3,1.2v1.7h-2.3V162c0-1.2,0.3-2.2,0.9-2.9c0.6-0.7,1.5-1,2.7-1s2.1,0.3,2.7,1c0.6,0.7,0.9,1.6,0.9,2.9
			c0,0.8-0.1,1.5-0.3,2.2c-0.3,0.6-0.6,1.2-0.9,1.8c-0.4,0.6-0.8,1-1.2,1.5c-0.4,0.5-0.8,0.9-1.2,1.3c-0.3,0.4-0.7,0.8-0.9,1.2
			c-0.3,0.4-0.3,0.8-0.3,1.2c0,0.1,0,0.3,0,0.3h4.6v2.2h-7v-1.9c0-0.8,0.1-1.4,0.3-2c0.3-0.6,0.6-1.1,0.9-1.6
			c0.3-0.5,0.8-0.9,1.1-1.4c0.4-0.4,0.8-0.8,1.1-1.3c0.3-0.5,0.7-1,0.9-1.5C282.1,163.5,282.3,162.8,282.3,162.1z"/>
	</g>
	<g>
		<path class="st7" d="M85.4,94.8l4.4-10.5h2.6v10.5h1.1V97h-1.1v2.8h-2.4V97h-4.7V94.8z M90.1,94.8V89l-2.5,5.8H90.1z"/>
	</g>
	<g>
		<path class="st7" d="M102.6,95.9c0,1.2-0.3,2.2-1,2.9c-0.6,0.7-1.6,1-2.8,1s-2.2-0.3-2.8-1c-0.6-0.7-1-1.6-1-2.9v-1.2
			c0-0.8,0.1-1.4,0.3-2s0.6-1,1.1-1.3c-1-0.6-1.5-1.6-1.5-3.1v-0.5c0-1.2,0.3-2.2,1-2.9c0.6-0.7,1.6-1,2.8-1s2.2,0.3,2.8,1
			c0.6,0.7,1,1.6,1,2.9v0.5c0,1.5-0.5,2.5-1.5,3.1c0.5,0.3,0.9,0.7,1.1,1.3c0.3,0.6,0.3,1.2,0.3,2V95.9z M97.4,88.8
			c0,0.6,0.1,1.1,0.4,1.3c0.3,0.3,0.6,0.3,1,0.3c0.4,0,0.7-0.1,1-0.3c0.3-0.2,0.4-0.7,0.4-1.3V88c0-0.7-0.1-1.1-0.4-1.4
			c-0.3-0.3-0.6-0.4-1-0.4s-0.7,0.1-1,0.4c-0.3,0.3-0.4,0.7-0.4,1.4V88.8z M97.4,95.9c0,0.7,0.1,1.1,0.4,1.4c0.3,0.3,0.6,0.3,1,0.3
			s0.7-0.1,1-0.3c0.3-0.3,0.4-0.7,0.4-1.4v-1.4c0-0.6-0.1-1.1-0.4-1.3c-0.3-0.3-0.6-0.4-1-0.4s-0.8,0.1-1,0.4
			c-0.3,0.3-0.4,0.7-0.4,1.3L97.4,95.9L97.4,95.9z"/>
	</g>
	<path class="st7" d="M108.9,88.1c0-0.7-0.1-1.1-0.3-1.4c-0.2-0.3-0.6-0.4-0.9-0.4s-0.7,0.1-0.9,0.3c-0.2,0.2-0.3,0.6-0.3,1.2v1.7
		H104V88c0-1.2,0.3-2.2,0.9-2.9c0.6-0.7,1.5-1,2.7-1s2.1,0.3,2.7,1c0.6,0.7,0.9,1.6,0.9,2.9c0,0.8-0.1,1.5-0.3,2.2
		c-0.3,0.6-0.6,1.2-0.9,1.8c-0.4,0.6-0.8,1-1.2,1.5c-0.4,0.5-0.8,0.9-1.2,1.3c-0.3,0.4-0.7,0.8-0.9,1.2c-0.3,0.4-0.3,0.8-0.3,1.2
		c0,0.1,0,0.3,0,0.3h4.6v2.2h-7.1v-1.9c0-0.8,0.1-1.4,0.3-2c0.3-0.6,0.6-1.1,0.9-1.6c0.3-0.5,0.8-0.9,1.1-1.4
		c0.4-0.4,0.8-0.8,1.1-1.3c0.3-0.5,0.7-1,0.9-1.5C108.7,89.5,108.9,88.8,108.9,88.1z"/>
	<path class="st7" d="M121.1,88.1c0-0.7-0.1-1.1-0.3-1.4c-0.2-0.3-0.6-0.4-0.9-0.4s-0.7,0.1-0.9,0.3c-0.2,0.2-0.3,0.6-0.3,1.2v1.7
		h-2.3V88c0-1.2,0.3-2.2,0.9-2.9c0.6-0.7,1.5-1,2.7-1s2.1,0.3,2.7,1c0.6,0.7,0.9,1.6,0.9,2.9c0,0.8-0.1,1.5-0.3,2.2
		c-0.3,0.6-0.6,1.2-0.9,1.8c-0.4,0.6-0.8,1-1.2,1.5c-0.4,0.5-0.8,0.9-1.2,1.3c-0.3,0.4-0.7,0.8-0.9,1.2c-0.3,0.4-0.3,0.8-0.3,1.2
		c0,0.1,0,0.3,0,0.3h4.6v2.2h-7.1v-1.9c0-0.8,0.1-1.4,0.3-2c0.3-0.6,0.6-1.1,0.9-1.6c0.3-0.5,0.8-0.9,1.1-1.4
		c0.4-0.4,0.8-0.8,1.1-1.3c0.3-0.5,0.7-1,0.9-1.5C121,89.5,121.1,88.8,121.1,88.1z"/>
	<path class="st7" d="M129.8,88.1c0-0.7-0.1-1.1-0.3-1.4c-0.2-0.3-0.6-0.4-0.9-0.4c-0.4,0-0.7,0.1-0.9,0.3c-0.2,0.2-0.3,0.6-0.3,1.2
		v1.7H125V88c0-1.2,0.3-2.2,0.9-2.9c0.6-0.7,1.5-1,2.7-1c1.2,0,2.1,0.3,2.7,1c0.6,0.7,0.9,1.6,0.9,2.9c0,0.8-0.1,1.5-0.3,2.2
		c-0.3,0.6-0.6,1.2-0.9,1.8c-0.4,0.6-0.8,1-1.2,1.5c-0.4,0.5-0.8,0.9-1.2,1.3c-0.3,0.4-0.7,0.8-0.9,1.2c-0.3,0.4-0.3,0.8-0.3,1.2
		c0,0.1,0,0.3,0,0.3h4.6v2.2H125v-1.9c0-0.8,0.1-1.4,0.3-2c0.3-0.6,0.6-1.1,0.9-1.6c0.3-0.5,0.8-0.9,1.1-1.4
		c0.4-0.4,0.8-0.8,1.1-1.3c0.3-0.5,0.7-1,0.9-1.5C129.7,89.5,129.8,88.8,129.8,88.1z"/>
	<path class="st7" d="M133.7,86.3c0.5,0,0.8,0,1.1-0.2c0.3-0.1,0.6-0.3,0.7-0.4c0.2-0.2,0.3-0.4,0.5-0.6c0.1-0.3,0.2-0.5,0.3-0.8
		h1.6v15.5h-2.4V88h-1.9V86.3z"/>
</g>
<path class="st11" d="M153.9,0v2.1l-3.6,13.3h-2.4l3.5-13.2h-4.8V0H153.9z"/>
<path class="st11" d="M137.5,10.4L141.9,0h2.6v10.4h1.1v2.2h-1.1v2.8h-2.4v-2.8h-4.7L137.5,10.4L137.5,10.4z M142.2,10.4V4.6
	l-2.5,5.8H142.2z"/>
<path class="st10" d="M19.4,56.1c0-1.3,0.3-2.3,0.9-2.9s1.5-1,2.7-1c1.2,0,2,0.3,2.6,1c0.6,0.7,0.9,1.6,0.9,2.8v0.4h-2.2v-0.5
	c0-0.5-0.1-0.9-0.3-1.2c-0.2-0.2-0.5-0.3-0.9-0.3c-0.4,0-0.7,0.1-1,0.4c-0.2,0.3-0.3,0.7-0.3,1.5v2.8c0.4-0.9,1.2-1.3,2.2-1.3
	c0.9,0,1.5,0.3,2,0.9c0.4,0.6,0.7,1.4,0.7,2.6v2.8c0,1.2-0.3,2.2-0.9,2.8c-0.6,0.7-1.5,1-2.7,1c-1.2,0-2.1-0.3-2.7-1
	c-0.6-0.7-0.9-1.6-0.9-2.8v-8H19.4z M23,59.8c-0.4,0-0.7,0.1-0.9,0.3c-0.2,0.2-0.3,0.6-0.3,1.2V64c0,0.5,0.1,0.9,0.3,1.1
	c0.2,0.2,0.5,0.3,0.9,0.3s0.7-0.1,0.9-0.3c0.2-0.2,0.3-0.6,0.3-1.1v-2.7c0-0.5-0.1-0.9-0.3-1.2C23.7,59.9,23.4,59.8,23,59.8z"/>
<path class="st10" d="M28.7,54.3c0.5,0,0.9,0,1.2-0.2c0.3-0.1,0.6-0.3,0.7-0.4c0.2-0.2,0.3-0.4,0.5-0.6s0.2-0.5,0.3-0.8H33v15.6
	h-2.4V56h-1.9V54.3z"/>
<g transform="translate(19 161)">
	<path class="st8" d="M3.2,4.7c0-0.7-0.1-1.1-0.3-1.4C2.7,3.1,2.4,2.9,2,2.9S1.3,3,1.1,3.2C0.9,3.4,0.8,3.8,0.8,4.4V6h-2.2V4.5
		c0-1.2,0.3-2.2,0.9-2.8c0.6-0.7,1.5-1,2.6-1s2,0.3,2.6,1s0.9,1.6,0.9,2.8c0,0.8-0.1,1.5-0.3,2.2C5.1,7.4,4.8,7.9,4.4,8.4
		s-0.7,1-1.1,1.5c-0.4,0.4-0.8,0.9-1.1,1.3c-0.4,0.4-0.6,0.8-0.9,1.2C1.1,12.8,1,13.2,1,13.6c0,0.1,0,0.3,0,0.3h4.5v2.2h-6.9v-1.9
		c0-0.7,0.1-1.4,0.3-1.9c0.2-0.6,0.5-1.1,0.9-1.5c0.4-0.5,0.7-0.9,1.1-1.3C1.3,9.1,1.7,8.7,2,8.2c0.4-0.5,0.6-1,0.9-1.5
		C3.2,6.2,3.2,5.5,3.2,4.7z"/>
</g>
<path class="st8" d="M31,165.6c0-0.7-0.1-1.1-0.3-1.4c-0.2-0.2-0.5-0.4-0.9-0.4s-0.7,0.1-0.9,0.3c-0.2,0.2-0.3,0.6-0.3,1.2v1.6h-2.3
	v-1.5c0-1.2,0.3-2.2,0.9-2.9c0.6-0.7,1.5-1,2.7-1c1.2,0,2.1,0.3,2.7,1s0.9,1.6,0.9,2.9c0,0.8-0.1,1.5-0.4,2.2
	c-0.2,0.6-0.5,1.2-0.9,1.8c-0.4,0.5-0.7,1-1.2,1.5c-0.4,0.5-0.8,0.9-1.2,1.3c-0.4,0.4-0.7,0.8-0.9,1.2c-0.2,0.4-0.4,0.8-0.4,1.2
	c0,0.1,0,0.3,0,0.3h4.6v2.2h-7v-1.9c0-0.7,0.1-1.4,0.4-2c0.2-0.6,0.5-1.1,0.9-1.6c0.4-0.5,0.7-0.9,1.1-1.3c0.4-0.4,0.8-0.9,1.1-1.3
	s0.7-1,0.9-1.5C30.9,167,31,166.4,31,165.6z"/>
<path class="st7" d="M127.7,141.2c0.7,0,1.1,0.2,1.4,0.6s0.5,0.9,0.5,1.5v0.2c0,0.4-0.1,0.8-0.3,1.1c-0.2,0.3-0.4,0.5-0.8,0.6
	c0.4,0.1,0.6,0.4,0.8,0.7c0.2,0.3,0.2,0.7,0.2,1.1v0.7c0,0.7-0.2,1.2-0.5,1.6c-0.3,0.4-0.8,0.6-1.4,0.6c-0.6,0-1.1-0.2-1.4-0.6
	s-0.5-0.9-0.5-1.5V147h0.9v0.6c0,0.4,0.1,0.7,0.2,0.9c0.2,0.2,0.4,0.3,0.7,0.3c0.3,0,0.6-0.1,0.8-0.3c0.2-0.2,0.2-0.5,0.2-1V147
	c0-0.8-0.4-1.2-1.1-1.3h-0.5v-0.8h0.6c0.3,0,0.6-0.1,0.7-0.3c0.2-0.2,0.3-0.5,0.3-0.8v-0.4c0-0.4-0.1-0.8-0.2-1
	c-0.2-0.2-0.4-0.3-0.8-0.3c-0.3,0-0.6,0.1-0.7,0.3s-0.2,0.5-0.2,0.9v0.4h-0.9v-0.4c0-0.7,0.2-1.2,0.5-1.5S127,141.2,127.7,141.2z"/>
<path class="st7" d="M132.3,141.2c0.7,0,1.1,0.2,1.4,0.6s0.5,0.9,0.5,1.5v0.2c0,0.4-0.1,0.8-0.3,1.1c-0.2,0.3-0.4,0.5-0.8,0.6
	c0.4,0.1,0.6,0.4,0.8,0.7c0.2,0.3,0.2,0.7,0.2,1.1v0.7c0,0.7-0.2,1.2-0.5,1.6c-0.3,0.4-0.8,0.6-1.4,0.6c-0.6,0-1.1-0.2-1.4-0.6
	c-0.3-0.4-0.5-0.9-0.5-1.5V147h0.9v0.6c0,0.4,0.1,0.7,0.2,0.9c0.2,0.2,0.4,0.3,0.7,0.3c0.3,0,0.6-0.1,0.8-0.3c0.2-0.2,0.2-0.5,0.2-1
	V147c0-0.8-0.4-1.2-1.1-1.3h-0.5v-0.8h0.6c0.3,0,0.6-0.1,0.7-0.3c0.2-0.2,0.3-0.5,0.3-0.8v-0.4c0-0.4-0.1-0.8-0.2-1
	c-0.2-0.2-0.4-0.3-0.8-0.3c-0.3,0-0.6,0.1-0.7,0.3c-0.2,0.2-0.2,0.5-0.2,0.9v0.4h-0.9v-0.4c0-0.7,0.2-1.2,0.5-1.5
	C131.2,141.3,131.6,141.2,132.3,141.2z"/>
<g>
	<path class="st7" d="M140.5,147.3h-0.7v-6.1h-1.2l-2.5,5.9v1h2.7v1.6h1v-1.6h0.7V147.3z M138.9,147.3h-1.9l1.9-4.5V147.3z"/>
	<g>
		<path class="st7" d="M141.4,143.4c0-0.7,0.2-1.2,0.5-1.5c0.3-0.4,0.8-0.6,1.5-0.6s1.1,0.2,1.5,0.6c0.3,0.4,0.5,0.9,0.5,1.5v4.4
			c0,0.7-0.2,1.2-0.5,1.5c-0.3,0.4-0.8,0.6-1.5,0.6s-1.1-0.2-1.5-0.6c-0.3-0.4-0.5-0.9-0.5-1.5V143.4z M142.3,147.8
			c0,0.4,0.1,0.7,0.2,0.9c0.2,0.2,0.4,0.3,0.7,0.3s0.6-0.1,0.7-0.3s0.2-0.5,0.2-0.9v-4.4c0-0.4-0.1-0.7-0.2-0.9
			c-0.2-0.2-0.4-0.3-0.7-0.3s-0.6,0.1-0.7,0.3c-0.2,0.2-0.2,0.5-0.2,0.9V147.8z"/>
	</g>
	<path class="st7" d="M149.6,141.8c-0.3-0.3-0.8-0.5-1.4-0.5c-0.6,0-1.1,0.2-1.4,0.5c-0.3,0.3-0.5,0.9-0.5,1.5v0.7h1v-0.8
		c0-0.3,0.1-0.6,0.2-0.8c0.2-0.2,0.4-0.2,0.6-0.2c0.3,0,0.5,0.1,0.6,0.3c0.1,0.2,0.2,0.5,0.2,0.9c0,0.4-0.1,0.8-0.2,1.1
		c-0.1,0.3-0.3,0.6-0.5,0.9c-0.2,0.2-0.4,0.5-0.7,0.8c-0.2,0.2-0.4,0.5-0.6,0.7c-0.2,0.3-0.4,0.5-0.5,0.8c-0.1,0.3-0.2,0.7-0.2,1.1
		v0.9h3.6v-0.9h-2.5l0-0.1c0-0.1,0-0.2,0-0.3c0-0.3,0.1-0.6,0.2-0.8c0.1-0.2,0.2-0.3,0.4-0.5l0.1-0.2c0.2-0.2,0.4-0.5,0.7-0.7
		c0.3-0.3,0.5-0.5,0.7-0.8c0.2-0.3,0.3-0.6,0.5-1c0.1-0.4,0.2-0.8,0.2-1.2C150,142.6,149.9,142.1,149.6,141.8z"/>
</g>
<g>
	<path class="st7" d="M175.1,92.7l-0.4,0.6v0l0.7-0.1v0.3l-0.7-0.1v0l0.4,0.5l-0.3,0.2l-0.3-0.6h0l-0.3,0.6L174,94l0.4-0.5v0
		l-0.7,0.1v-0.3l0.7,0.1v0l-0.4-0.5l0.3-0.2l0.3,0.6h0l0.3-0.6L175.1,92.7z"/>
</g>
<text transform="matrix(1 0 0 1 116.4727 181.5897)" class="st12 st13 st14">Fermeture anticipe du #SIA2020</text>
<g>
	<path class="st7" d="M114.5,178l-0.4,0.5v0l0.7-0.1v0.3l-0.7-0.1v0l0.4,0.5l-0.3,0.2l-0.3-0.6h0l-0.3,0.6l-0.3-0.2l0.4-0.5v0
		l-0.7,0.1v-0.3l0.7,0.1v0l-0.4-0.5l0.3-0.1l0.3,0.6h0l0.3-0.6L114.5,178z"/>
</g>
</svg>
