<svg xmlns="http://www.w3.org/2000/svg" xmlns:xlink="http://www.w3.org/1999/xlink" width="289" height="274" viewBox="0 0 289 274">
  <defs>
    <circle id="graph-exposant-mobile-en-b" cx="117" cy="122" r="67"/>
    <filter id="graph-exposant-mobile-en-a" width="125.4%" height="125.4%" x="-12.7%" y="-11.9%" filterUnits="objectBoundingBox">
      <feOffset dy="1" in="SourceAlpha" result="shadowOffsetOuter1"/>
      <feGaussianBlur in="shadowOffsetOuter1" result="shadowBlurOuter1" stdDeviation="5.5"/>
      <feColorMatrix in="shadowBlurOuter1" values="0 0 0 0 0   0 0 0 0 0   0 0 0 0 0  0 0 0 0.497027853 0"/>
    </filter>
  </defs>
  <g fill="none" fill-rule="evenodd">
    <g transform="translate(29 8)">
      <use fill="#000" filter="url(#graph-exposant-mobile-en-a)" xlink:href="#graph-exposant-mobile-en-b"/>
      <circle cx="115" cy="119" r="78" fill="#FFF"/>
      <g stroke-width="8.019">
        <path stroke="#f6a924" d="M146.20155,57.2067039 C179.184698,57.81338 207.982205,75.9765624 223.75969,102.793296" transform="rotate(30 184.98 80)"/>
        <path stroke="#e30059" d="M76.2209302,61.6759777 C93.2417814,33.3168323 123.268624,17.3384225 154.224806,16.9832402" transform="rotate(30 115.223 39.33)"/>
        <path stroke="#009cd8" d="M45.9557009,121.117318 C30.3888722,92.3835572 31.5742515,58.5836052 46.3565891,31.7318436" transform="rotate(30 40.562 76.425)"/>
        <path stroke="#f6a924" d="M83.7984496,182.346369 C50.8153019,181.739693 22.0177947,163.57651 6.24031008,136.759777" transform="rotate(30 45.02 159.553)"/>
        <path stroke="#83b81a" d="M153.77907,178.324022 C136.758219,206.683168 106.732059,222.661578 75.7751938,223.01676" transform="rotate(30 114.777 200.67)"/>
        <path stroke="#009cd8" d="M184.044291,117.988827 C199.610793,146.722588 198.426104,180.52254 183.643411,207.374302" transform="rotate(30 189.438 162.682)"/>
      </g>
    </g>
    <g fill-rule="nonzero">
      <g fill="#2A2A2A" transform="translate(120 141)">
        <polygon points="3.4 8.6 2.1 8.6 .9 .2 1.8 .2 2.8 7.4 3.7 .2 4.6 .2 5.5 7.4 6.5 .2 7.3 .2 6.2 8.6 5 8.6 4.2 2.9"/>
        <polygon points="9.2 .1 9.2 8.5 8.3 8.5 8.3 .1"/>
        <polygon points="11.3 8.6 11.3 1 9.7 1 9.7 .1 13.7 .1 13.7 1 12.1 1 12.1 8.6"/>
        <polygon points="15.4 4.8 15.4 8.6 14.5 8.6 14.5 .2 15.4 .2 15.4 4 17.5 4 17.5 .2 18.4 .2 18.4 8.6 17.5 8.6 17.5 4.8"/>
        <path d="M23.1,0 C23.8,0 24.2,0.2 24.5,0.6 C24.8,1 25,1.5 25,2.1 L25,2.3 C25,2.7 24.9,3.1 24.7,3.4 C24.5,3.7 24.3,3.9 23.9,4 C24.3,4.1 24.5,4.4 24.7,4.7 C24.9,5 24.9,5.4 24.9,5.8 L24.9,6.5 C24.9,7.2 24.7,7.7 24.4,8.1 C24.1,8.5 23.6,8.7 23,8.7 C22.4,8.7 21.9,8.5 21.6,8.1 C21.3,7.7 21.1,7.2 21.1,6.6 L21.1,6 L22,6 L22,6.6 C22,7 22.1,7.3 22.2,7.5 C22.3,7.7 22.6,7.8 22.9,7.8 C23.2,7.8 23.5,7.7 23.7,7.5 C23.9,7.3 23.9,7 23.9,6.5 L23.9,5.8 C23.9,5 23.5,4.6 22.8,4.5 L22.3,4.5 L22.3,3.7 L22.9,3.7 C23.2,3.7 23.5,3.6 23.6,3.4 C23.8,3.2 23.9,2.9 23.9,2.6 L23.9,2.2 C23.9,1.8 23.8,1.4 23.7,1.2 C23.6,1 23.3,0.9 22.9,0.9 C22.6,0.9 22.3,1 22.2,1.2 C22.1,1.4 22,1.7 22,2.1 L22,2.5 L21.1,2.5 L21.1,2.1 C21.1,1.4 21.3,0.9 21.6,0.6 C21.9,0.2 22.4,0 23.1,0 Z"/>
        <polygon points="28.7 1 25.8 1 25.8 .2 29.6 .2 29.6 1 27.4 8.6 26.5 8.6"/>
        <path d="M34.3 0C35 0 35.4.2 35.8.6 36.1 1 36.3 1.5 36.3 2.1L36.3 6.4C36.3 7.1 36.1 7.6 35.8 8 35.5 8.4 35 8.6 34.3 8.6 33.6 8.6 33.2 8.4 32.9 8 32.6 7.6 32.4 7.1 32.4 6.5L32.4 6.3 33.3 6.3 33.3 6.5C33.3 6.9 33.4 7.2 33.5 7.4 33.7 7.6 33.9 7.7 34.3 7.7 34.7 7.7 34.9 7.6 35.1 7.4 35.3 7.2 35.3 6.8 35.3 6.4L35.3 4.5C35.1 5.1 34.6 5.4 33.9 5.4 33.4 5.4 33 5.2 32.7 4.9 32.5 4.5 32.3 4.1 32.3 3.4L32.3 2.1C32.3 1.4 32.5.9 32.8.6 33.1.2 33.6 0 34.3 0zM34.3.9C34 .9 33.7 1 33.5 1.2 33.3 1.4 33.3 1.7 33.3 2.1L33.3 3.4C33.3 3.8 33.4 4.1 33.5 4.3 33.7 4.5 33.9 4.6 34.3 4.6 34.6 4.6 34.9 4.5 35.1 4.3 35.3 4.1 35.3 3.8 35.3 3.4L35.3 2.1C35.3 1.7 35.2 1.4 35.1 1.2 34.9 1 34.6.9 34.3.9zM38.1 3.6C38.4 3.1 38.8 2.9 39.4 2.9 39.9 2.9 40.3 3.1 40.6 3.4 40.9 3.7 41 4.2 41 4.9L41 6.6C41 7.2 40.8 7.8 40.5 8.1 40.2 8.5 39.7 8.7 39.1 8.7 38.5 8.7 38 8.5 37.7 8.1 37.4 7.7 37.2 7.2 37.2 6.6L37.2 6 38.1 6 38.1 6.6C38.1 7 38.2 7.3 38.3 7.5 38.5 7.7 38.7 7.8 39 7.8 39.3 7.8 39.6 7.7 39.7 7.5 39.9 7.3 39.9 7 39.9 6.6L39.9 5C39.9 4.6 39.8 4.3 39.7 4.1 39.5 3.9 39.3 3.8 39 3.8 38.7 3.8 38.5 3.9 38.4 4 38.2 4.2 38.1 4.4 38.1 4.7L38.1 4.9 37.2 4.9 37.4.2 40.7.2 40.7 1 38.2 1 38.1 3.6zM41.7 2.2C41.7 1.5 41.9 1 42.2.7 42.5.3 43 .1 43.7.1 44.4.1 44.8.3 45.2.7 45.5 1.1 45.7 1.6 45.7 2.2L45.7 6.5C45.7 7.2 45.5 7.7 45.2 8.1 44.9 8.5 44.4 8.7 43.7 8.7 43 8.7 42.6 8.5 42.2 8.1 41.8 7.7 41.7 7.2 41.7 6.5L41.7 2.2zM42.6 6.6C42.6 7 42.7 7.3 42.8 7.5 43 7.7 43.2 7.8 43.6 7.8 43.9 7.8 44.2 7.7 44.4 7.5 44.6 7.3 44.6 7 44.6 6.6L44.6 2.1C44.6 1.7 44.5 1.4 44.4 1.2 44.2 1 44 .9 43.6.9 43.3.9 43 1 42.8 1.2 42.6 1.4 42.6 1.7 42.6 2.1L42.6 6.6z"/>
      </g>
      <g fill="#2A2A2A" transform="translate(103 155)">
        <path d="M2.8.7C3.5.7 3.9.9 4.2 1.2 4.5 1.6 4.6 2.1 4.6 2.7L4.6 3.7C4.6 4.4 4.4 4.9 4.1 5.2 3.8 5.5 3.3 5.7 2.6 5.7L1.8 5.7 1.8 9 .9 9 .9.6 2.8.6 2.8.7zM2.7 4.9C3.1 4.9 3.3 4.8 3.5 4.6 3.7 4.4 3.8 4.1 3.8 3.7L3.8 2.6C3.8 2.2 3.7 1.9 3.6 1.7 3.5 1.5 3.2 1.4 2.9 1.4L2 1.4 2 4.8 2.7 4.8 2.7 4.9zM7.3.7C8 .7 8.4.9 8.7 1.2 9 1.5 9.1 2 9.1 2.6L9.1 3.3C9.1 3.8 9 4.1 8.8 4.4 8.6 4.7 8.4 4.9 8 5 8.4 5.1 8.7 5.3 8.8 5.6 8.9 5.9 9 6.3 9 6.7L9 8C9 8.2 9 8.4 9 8.5 9 8.7 9.1 8.8 9.1 9L8.1 9C8 8.9 8 8.8 8 8.6 8 8.5 8 8.2 8 8L8 6.7C8 6.2 7.9 5.9 7.7 5.7 7.5 5.5 7.2 5.4 6.8 5.4L6.1 5.4 6.1 9 5.2 9 5.2.6 7.3.6 7.3.7zM7.1 4.6C7.5 4.6 7.8 4.5 8 4.4 8.2 4.2 8.3 3.9 8.3 3.5L8.3 2.7C8.3 2.3 8.2 2 8.1 1.8 8 1.6 7.7 1.5 7.3 1.5L6.4 1.5 6.4 4.6 7.1 4.6 7.1 4.6zM10.1 2.7C10.1 2 10.3 1.5 10.6 1.2 10.9.9 11.4.6 12.1.6 12.8.6 13.2.8 13.6 1.2 14 1.6 14.1 2.1 14.1 2.7L14.1 7.1C14.1 7.7 13.9 8.3 13.6 8.6 13.3 9 12.8 9.2 12.1 9.2 11.4 9.2 11 9 10.6 8.6 10.3 8.2 10.1 7.7 10.1 7.1L10.1 2.7zM11 7.1C11 7.5 11.1 7.8 11.2 8 11.3 8.2 11.6 8.3 12 8.3 12.3 8.3 12.6 8.2 12.8 8 13 7.8 13 7.5 13 7.1L13 2.6C13 2.2 12.9 1.9 12.8 1.7 12.7 1.5 12.4 1.4 12 1.4 11.7 1.4 11.4 1.5 11.2 1.7 11 1.9 11 2.2 11 2.6L11 7.1z"/>
        <polygon points="17.7 4.6 17.7 5.5 15.8 5.5 15.8 9.2 14.9 9.2 14.9 .8 18.2 .8 18.2 1.7 15.8 1.7 15.8 4.8 17.7 4.8"/>
        <polygon points="21.9 4.4 21.9 5.2 19.8 5.2 19.8 8.2 22.3 8.2 22.3 9.1 18.8 9.1 18.8 .7 22.3 .7 22.3 1.6 19.8 1.6 19.8 4.5 21.9 4.5"/>
        <path d="M25 .6C25.6.6 26.1.8 26.4 1.2 26.7 1.6 26.9 2.1 26.9 2.7L26.9 2.9 26 2.9 26 2.6C26 2.2 25.9 1.9 25.8 1.7 25.6 1.5 25.4 1.4 25.1 1.4 24.8 1.4 24.5 1.5 24.4 1.7 24.2 1.9 24.2 2.2 24.2 2.6 24.2 2.9 24.3 3.2 24.4 3.4 24.5 3.6 24.7 3.8 24.9 4 25.1 4.2 25.3 4.4 25.6 4.6 25.8 4.8 26.1 5 26.3 5.2 26.5 5.4 26.7 5.7 26.8 6 26.9 6.3 27 6.6 27 7 27 7.6 26.8 8.2 26.5 8.5 26.2 8.9 25.7 9.1 25.1 9.1 24.4 9.1 24 8.9 23.7 8.5 23.4 8.1 23.2 7.6 23.2 7L23.2 6.5 24.1 6.5 24.1 7C24.1 7.4 24.2 7.7 24.3 7.9 24.4 8.1 24.7 8.2 25 8.2 25.3 8.2 25.6 8.1 25.7 7.9 25.8 7.7 25.9 7.4 25.9 7 25.9 6.7 25.8 6.4 25.7 6.2 25.6 6 25.4 5.8 25.2 5.6 25 5.4 24.8 5.2 24.5 5 24.3 4.8 24 4.6 23.8 4.4 23.6 4.2 23.4 3.9 23.3 3.6 23.2 3.3 23.1 3 23.1 2.6 23.1 1.9 23.3 1.4 23.6 1.1 23.9.8 24.4.6 25 .6zM29.5.6C30.1.6 30.6.8 30.9 1.2 31.2 1.6 31.4 2.1 31.4 2.7L31.4 2.9 30.5 2.9 30.5 2.6C30.5 2.2 30.4 1.9 30.3 1.7 30.1 1.5 29.9 1.4 29.6 1.4 29.3 1.4 29 1.5 28.9 1.7 28.7 1.9 28.7 2.2 28.7 2.6 28.7 2.9 28.8 3.2 28.9 3.4 29 3.6 29.2 3.8 29.4 4 29.6 4.2 29.8 4.4 30.1 4.6 30.3 4.8 30.6 5 30.8 5.2 31 5.4 31.2 5.7 31.3 6 31.4 6.3 31.5 6.6 31.5 7 31.5 7.6 31.3 8.2 31 8.5 30.7 8.9 30.2 9.1 29.6 9.1 28.9 9.1 28.5 8.9 28.2 8.5 27.9 8.1 27.7 7.6 27.7 7L27.7 6.5 28.6 6.5 28.6 7C28.6 7.4 28.7 7.7 28.8 7.9 28.9 8.1 29.2 8.2 29.5 8.2 29.8 8.2 30.1 8.1 30.2 7.9 30.3 7.7 30.4 7.4 30.4 7 30.4 6.7 30.3 6.4 30.2 6.2 30.1 6 29.9 5.8 29.7 5.6 29.5 5.4 29.3 5.2 29 5 28.8 4.8 28.5 4.6 28.3 4.4 28.1 4.2 27.9 3.9 27.8 3.6 27.7 3.3 27.6 3 27.6 2.6 27.6 1.9 27.8 1.4 28.1 1.1 28.4.8 28.9.6 29.5.6z"/>
        <polygon points="33.2 .7 33.2 9.1 32.3 9.1 32.3 .7"/>
        <path d="M34.1,2.7 C34.1,2 34.3,1.5 34.6,1.2 C34.9,0.9 35.4,0.6 36.1,0.6 C36.8,0.6 37.2,0.8 37.6,1.2 C38,1.6 38.1,2.1 38.1,2.7 L38.1,7.1 C38.1,7.7 37.9,8.3 37.6,8.6 C37.3,9 36.8,9.2 36.1,9.2 C35.4,9.2 35,9 34.6,8.6 C34.3,8.2 34.1,7.7 34.1,7.1 L34.1,2.7 Z M35,7.1 C35,7.5 35.1,7.8 35.2,8 C35.3,8.2 35.6,8.3 36,8.3 C36.3,8.3 36.6,8.2 36.8,8 C37,7.8 37,7.5 37,7.1 L37,2.6 C37,2.2 36.9,1.9 36.8,1.7 C36.7,1.5 36.4,1.4 36,1.4 C35.7,1.4 35.4,1.5 35.2,1.7 C35,1.9 35,2.2 35,2.6 L35,7.1 Z"/>
        <polygon points="39.7 9.1 38.9 9.1 38.9 .7 40.1 .7 42.1 6.8 42.1 .7 42.9 .7 42.9 9.1 41.9 9.1 39.7 2.3"/>
        <path d="M44.7,7.4 L44.4,9.1 L43.5,9.1 L45.1,0.7 L46.5,0.7 L48.1,9.1 L47.2,9.1 L46.9,7.4 L44.7,7.4 Z M44.8,6.6 L46.7,6.6 L45.7,1.7 L44.8,6.6 Z"/>
        <polygon points="48.8 9.1 48.8 .7 49.7 .7 49.7 8.3 52.1 8.3 52.1 9.2 48.8 9.2"/>
        <polygon points="55.5 .7 56.9 8 58.3 .7 59.2 .7 57.6 9.1 56.2 9.1 54.6 .7"/>
        <polygon points="60.7 .7 60.7 9.1 59.8 9.1 59.8 .7"/>
        <path d="M63.5,0.6 C64.1,0.6 64.6,0.8 64.9,1.2 C65.2,1.6 65.4,2.1 65.4,2.7 L65.4,2.9 L64.5,2.9 L64.5,2.6 C64.5,2.2 64.4,1.9 64.3,1.7 C64.2,1.5 63.9,1.4 63.6,1.4 C63.3,1.4 63,1.5 62.9,1.7 C62.8,1.9 62.7,2.2 62.7,2.6 C62.7,2.9 62.8,3.2 62.9,3.4 C63,3.6 63.2,3.8 63.4,4 C63.6,4.2 63.8,4.4 64.1,4.6 C64.3,4.8 64.6,5 64.8,5.2 C65,5.4 65.2,5.7 65.3,6 C65.4,6.3 65.5,6.6 65.5,7 C65.5,7.6 65.3,8.2 65,8.5 C64.7,8.9 64.2,9.1 63.6,9.1 C62.9,9.1 62.5,8.9 62.2,8.5 C61.9,8.1 61.7,7.6 61.7,7 L61.7,6.5 L62.6,6.5 L62.6,7 C62.6,7.4 62.7,7.7 62.8,7.9 C63,8.1 63.2,8.2 63.5,8.2 C63.8,8.2 64.1,8.1 64.2,7.9 C64.4,7.7 64.4,7.4 64.4,7 C64.4,6.7 64.3,6.4 64.2,6.2 C64.1,6 63.9,5.8 63.7,5.6 C63.5,5.4 63.3,5.2 63,5 C62.8,4.8 62.5,4.6 62.3,4.4 C62.1,4.2 61.9,3.9 61.8,3.6 C61.7,3.3 61.6,3 61.6,2.6 C61.6,1.9 61.8,1.4 62.1,1.1 C62.4,0.8 62.8,0.6 63.5,0.6 Z"/>
        <polygon points="67.1 .7 67.1 9.1 66.2 9.1 66.2 .7"/>
        <polygon points="69.3 9.1 69.3 1.5 67.7 1.5 67.7 .6 71.7 .6 71.7 1.5 70.1 1.5 70.1 9.1"/>
        <path d="M72.4 2.7C72.4 2 72.6 1.5 72.9 1.2 73.2.9 73.7.6 74.4.6 75.1.6 75.5.8 75.9 1.2 76.3 1.6 76.4 2.1 76.4 2.7L76.4 7.1C76.4 7.7 76.2 8.3 75.9 8.6 75.6 9 75.1 9.2 74.4 9.2 73.7 9.2 73.3 9 72.9 8.6 72.6 8.2 72.4 7.7 72.4 7.1L72.4 2.7zM73.3 7.1C73.3 7.5 73.4 7.8 73.5 8 73.7 8.2 73.9 8.3 74.3 8.3 74.6 8.3 74.9 8.2 75.1 8 75.3 7.8 75.3 7.5 75.3 7.1L75.3 2.6C75.3 2.2 75.2 1.9 75.1 1.7 74.9 1.5 74.7 1.4 74.3 1.4 74 1.4 73.7 1.5 73.5 1.7 73.3 1.9 73.3 2.2 73.3 2.6L73.3 7.1zM79 .7C79.7.7 80.1.9 80.4 1.2 80.7 1.5 80.8 2 80.8 2.6L80.8 3.3C80.8 3.8 80.7 4.1 80.5 4.4 80.3 4.7 80.1 4.9 79.7 5 80.1 5.1 80.4 5.3 80.5 5.6 80.7 5.9 80.7 6.3 80.7 6.7L80.7 8C80.7 8.2 80.7 8.4 80.7 8.5 80.7 8.7 80.8 8.8 80.8 9L79.8 9C79.7 8.9 79.7 8.8 79.7 8.6 79.7 8.5 79.7 8.2 79.7 8L79.7 6.7C79.7 6.2 79.6 5.9 79.4 5.7 79.2 5.5 78.9 5.4 78.5 5.4L78 5.4 78 9 77.1 9 77.1.6 79 .6 79 .7zM78.7 4.6C79.1 4.6 79.4 4.5 79.6 4.4 79.8 4.2 79.9 3.9 79.9 3.5L79.9 2.7C79.9 2.3 79.8 2 79.7 1.8 79.6 1.6 79.3 1.5 78.9 1.5L78 1.5 78 4.6 78.7 4.6 78.7 4.6zM83.6.6C84.2.6 84.7.8 85 1.2 85.3 1.6 85.5 2.1 85.5 2.7L85.5 2.9 84.6 2.9 84.6 2.6C84.6 2.2 84.5 1.9 84.4 1.7 84.3 1.5 84 1.4 83.7 1.4 83.4 1.4 83.1 1.5 83 1.7 82.9 1.9 82.8 2.2 82.8 2.6 82.8 2.9 82.9 3.2 83 3.4 83.1 3.6 83.3 3.8 83.5 4 83.7 4.2 83.9 4.4 84.2 4.6 84.4 4.8 84.7 5 84.9 5.2 85.1 5.4 85.3 5.7 85.4 6 85.5 6.3 85.6 6.6 85.6 7 85.6 7.6 85.4 8.2 85.1 8.5 84.8 8.9 84.3 9.1 83.7 9.1 83 9.1 82.6 8.9 82.3 8.5 82 8.1 81.8 7.6 81.8 7L81.8 6.5 82.7 6.5 82.7 7C82.7 7.4 82.8 7.7 82.9 7.9 83.1 8.1 83.3 8.2 83.6 8.2 83.9 8.2 84.2 8.1 84.3 7.9 84.5 7.7 84.5 7.4 84.5 7 84.5 6.7 84.4 6.4 84.3 6.2 84.2 6 84 5.8 83.8 5.6 83.6 5.4 83.4 5.2 83.1 5 82.9 4.8 82.6 4.6 82.4 4.4 82.2 4.2 82 3.9 81.9 3.6 81.8 3.3 81.7 3 81.7 2.6 81.7 1.9 81.9 1.4 82.2 1.1 82.5.8 83 .6 83.6.6z"/>
      </g>
      <g fill="#e30059" transform="translate(134)">
        <path d="M3.1,10.5 L3.1,11.9 C3.1,12.4 3.2,12.8 3.4,13 C3.6,13.2 3.9,13.3 4.3,13.3 C4.7,13.3 5,13.2 5.2,13 C5.4,12.8 5.5,12.4 5.5,11.9 L5.5,8.6 C5.5,8.1 5.4,7.7 5.2,7.4 C5,7.2 4.7,7.1 4.3,7.1 C3.9,7.1 3.6,7.2 3.4,7.4 C3.2,7.6 3.1,8 3.1,8.6 L3.1,9 L0.9,9 L1.3,0.2 L7.6,0.2 L7.6,2.4 L3.5,2.4 L3.3,6 C3.7,5.3 4.4,4.9 5.4,4.9 C6.3,4.9 6.9,5.2 7.4,5.8 C7.8,6.4 8.1,7.2 8.1,8.4 L8.1,11.8 C8.1,13 7.8,14 7.2,14.6 C6.6,15.3 5.7,15.6 4.6,15.6 C3.5,15.6 2.6,15.3 2,14.6 C1.4,13.9 1.1,13 1.1,11.8 L1.1,10.5 L3.1,10.5 L3.1,10.5 Z"/>
        <polygon points="16.5 .2 16.5 2.3 13 15.3 10.6 15.3 14.1 2.3 9.4 2.3 9.4 .1 16.5 .1"/>
      </g>
      <g fill="#f6a924" transform="translate(239 58)">
        <path d="M.3 2.7C.8 2.7 1.1 2.6 1.4 2.5 1.7 2.4 1.9 2.3 2.1 2.1 2.3 1.9 2.4 1.7 2.6 1.5 2.7 1.3 2.8 1 2.9.8L4.5.8 4.5 15.9 2.1 15.9 2.1 4.4.3 4.4.3 2.7.3 2.7zM10.6 4.4C10.6 3.2 10.9 2.2 11.5 1.6 12.1 1 13 .6 14.2.6 15.4.6 16.3.9 16.9 1.6 17.5 2.3 17.8 3.2 17.8 4.4L17.8 12.3C17.8 13.5 17.5 14.5 16.9 15.1 16.3 15.7 15.4 16.1 14.2 16.1 13 16.1 12.1 15.8 11.5 15.1 10.9 14.4 10.6 13.5 10.6 12.3L10.6 4.4zM12.9 12.5C12.9 13 13 13.4 13.2 13.7 13.4 13.9 13.7 14 14.1 14 14.5 14 14.8 13.9 15 13.7 15.2 13.5 15.3 13.1 15.3 12.5L15.3 4.3C15.3 3.8 15.2 3.4 15 3.1 14.8 2.9 14.5 2.8 14.1 2.8 13.7 2.8 13.4 2.9 13.2 3.1 13 3.3 12.9 3.7 12.9 4.3L12.9 12.5zM19.1 4.4C19.1 3.2 19.4 2.2 20 1.6 20.6 1 21.5.6 22.7.6 23.9.6 24.8.9 25.4 1.6 26 2.3 26.3 3.2 26.3 4.4L26.3 12.3C26.3 13.5 26 14.5 25.4 15.1 24.8 15.7 23.9 16.1 22.7 16.1 21.5 16.1 20.6 15.8 20 15.1 19.4 14.4 19.1 13.5 19.1 12.3L19.1 4.4zM21.5 12.5C21.5 13 21.6 13.4 21.8 13.7 22 13.9 22.3 14 22.7 14 23.1 14 23.4 13.9 23.6 13.7 23.8 13.5 23.9 13.1 23.9 12.5L23.9 4.3C23.9 3.8 23.8 3.4 23.6 3.1 23.4 2.9 23.1 2.8 22.7 2.8 22.3 2.8 22 2.9 21.8 3.1 21.6 3.3 21.5 3.7 21.5 4.3L21.5 12.5zM27.7 4.4C27.7 3.2 28 2.2 28.6 1.6 29.2 1 30.1.6 31.3.6 32.5.6 33.4.9 34 1.6 34.6 2.3 34.9 3.2 34.9 4.4L34.9 12.3C34.9 13.5 34.6 14.5 34 15.1 33.4 15.7 32.5 16.1 31.3 16.1 30.1 16.1 29.2 15.8 28.6 15.1 28 14.4 27.7 13.5 27.7 12.3L27.7 4.4zM30 12.5C30 13 30.1 13.4 30.3 13.7 30.5 13.9 30.8 14 31.2 14 31.6 14 31.9 13.9 32.1 13.7 32.3 13.5 32.4 13.1 32.4 12.5L32.4 4.3C32.4 3.8 32.3 3.4 32.1 3.1 31.9 2.9 31.6 2.8 31.2 2.8 30.8 2.8 30.5 2.9 30.3 3.1 30.1 3.3 30 3.7 30 4.3L30 12.5z"/>
        <polygon points="44 7.5 46.9 7.5 46.9 9.2 44 9.2 44 12.2 42.3 12.2 42.3 9.2 39.4 9.2 39.4 7.5 42.3 7.5 42.3 4.6 44 4.6"/>
      </g>
      <g fill="#83b81a" transform="translate(112 230)">
        <path d="M5,4.5 C5,3.8 4.9,3.4 4.7,3.1 C4.5,2.9 4.2,2.7 3.8,2.7 C3.4,2.7 3.1,2.8 2.9,3 C2.7,3.2 2.6,3.6 2.6,4.2 L2.6,5.2 L0.4,5.2 L0.4,4.4 C0.4,3.2 0.7,2.2 1.3,1.6 C1.9,0.9 2.8,0.6 3.9,0.6 C5,0.6 5.9,0.9 6.5,1.6 C7.1,2.3 7.4,3.2 7.4,4.4 L7.4,4.8 C7.4,6.4 6.8,7.5 5.7,7.9 C6.3,8.2 6.7,8.6 7,9.1 C7.3,9.6 7.4,10.3 7.4,11.1 L7.4,12.3 C7.4,13.5 7.1,14.5 6.5,15.1 C5.9,15.8 5,16.1 3.9,16.1 C2.8,16.1 1.9,15.8 1.3,15.1 C0.7,14.4 0.4,13.5 0.4,12.3 L0.4,11 L2.6,11 L2.6,12.4 C2.6,12.9 2.7,13.3 2.9,13.6 C3.1,13.8 3.4,13.9 3.8,13.9 C4.2,13.9 4.5,13.8 4.7,13.6 C4.9,13.4 5,12.9 5,12.2 L5,11 C5,10.3 4.9,9.8 4.6,9.5 C4.4,9.2 4,9.1 3.4,9.1 L2.6,9.1 L2.6,6.9 L3.5,6.9 C3.9,6.9 4.3,6.8 4.5,6.6 C4.7,6.4 4.9,6 4.9,5.3 L4.9,4.5 L5,4.5 Z"/>
        <polygon points="17.3 11.5 18.9 .8 22.2 .8 22.2 15.9 20 15.9 20 5.1 18.4 15.9 16.2 15.9 14.4 5.2 14.4 15.9 12.3 15.9 12.3 .8 15.6 .8"/>
        <polygon points="24 .8 26.4 .8 26.4 15.9 24 15.9"/>
        <polygon points="28.1 .8 30.5 .8 30.5 13.8 34.4 13.8 34.4 16 28.1 16"/>
        <polygon points="35.4 .8 37.8 .8 37.8 13.8 41.7 13.8 41.7 16 35.4 16"/>
        <polygon points="42.7 .8 45.1 .8 45.1 15.9 42.7 15.9"/>
        <path d="M46.7,4.4 C46.7,3.2 47,2.2 47.6,1.6 C48.2,1 49.1,0.6 50.3,0.6 C51.5,0.6 52.4,0.9 53,1.6 C53.6,2.3 53.9,3.2 53.9,4.4 L53.9,12.3 C53.9,13.5 53.6,14.5 53,15.1 C52.4,15.7 51.5,16.1 50.3,16.1 C49.1,16.1 48.2,15.8 47.6,15.1 C47,14.4 46.7,13.5 46.7,12.3 L46.7,4.4 Z M49,12.4 C49,12.9 49.1,13.3 49.3,13.6 C49.5,13.8 49.8,13.9 50.2,13.9 C50.6,13.9 50.9,13.8 51.1,13.6 C51.3,13.4 51.4,13 51.4,12.4 L51.4,4.2 C51.4,3.7 51.3,3.3 51.1,3 C50.9,2.8 50.6,2.7 50.2,2.7 C49.8,2.7 49.5,2.8 49.3,3 C49.1,3.2 49,3.6 49,4.2 L49,12.4 Z"/>
        <polygon points="57.5 4.9 57.5 15.9 55.4 15.9 55.4 .8 58.4 .8 60.8 9.9 60.8 .8 62.9 .8 62.9 15.9 60.5 15.9"/>
        <path d="M64.3,4.4 C64.3,3.2 64.6,2.2 65.2,1.6 C65.8,0.9 66.7,0.6 67.8,0.6 C69,0.6 69.8,0.9 70.4,1.6 C71,2.3 71.3,3.2 71.3,4.4 L71.3,4.9 L69.1,4.9 L69.1,4.3 C69.1,3.8 69,3.4 68.8,3.1 C68.6,2.9 68.3,2.8 67.9,2.8 C67.5,2.8 67.2,2.9 67,3.1 C66.8,3.3 66.7,3.7 66.7,4.3 C66.7,4.8 66.8,5.3 67,5.7 C67.2,6.1 67.5,6.5 67.9,6.8 C68.3,7.1 68.6,7.5 69,7.9 C69.4,8.3 69.8,8.6 70.1,9.1 C70.4,9.5 70.7,10 71,10.5 C71.2,11 71.3,11.7 71.3,12.4 C71.3,13.6 71,14.6 70.4,15.2 C69.8,15.8 68.9,16.2 67.8,16.2 C66.7,16.2 65.8,15.9 65.2,15.2 C64.6,14.5 64.3,13.6 64.3,12.4 L64.3,11.5 L66.5,11.5 L66.5,12.6 C66.5,13.1 66.6,13.5 66.8,13.7 C67,13.9 67.3,14 67.7,14 C68.1,14 68.4,13.9 68.6,13.7 C68.8,13.5 68.9,13.1 68.9,12.6 C68.9,12.1 68.8,11.6 68.6,11.2 C68.4,10.8 68.1,10.4 67.7,10.1 C67.4,9.7 67,9.4 66.6,9 C66.2,8.6 65.8,8.3 65.5,7.8 C65.2,7.4 64.9,6.9 64.6,6.4 C64.4,5.8 64.3,5.1 64.3,4.4 Z"/>
      </g>
      <path fill="#009cd8" d="M8.4 11.6C8.4 12.8 8.1 13.8 7.4 14.4 6.8 15.1 5.8 15.4 4.6 15.4 3.4 15.4 2.5 15.1 1.8 14.4 1.2 13.7.8 12.8.8 11.6L.8 10.4C.8 9.7.9 9 1.1 8.5 1.3 8 1.7 7.5 2.2 7.3 1.2 6.8.7 5.8.7 4.3L.7 3.8C.7 2.6 1 1.6 1.7 1 2.3.3 3.3 0 4.5 0 5.7 0 6.6.3 7.3 1 7.9 1.7 8.3 2.6 8.3 3.8L8.3 4.3C8.3 5.8 7.8 6.8 6.8 7.3 7.3 7.6 7.7 8 7.9 8.5 8.1 9 8.2 9.7 8.2 10.4L8.2 11.6 8.4 11.6zM3.3 4.6C3.3 5.2 3.4 5.6 3.7 5.9 4 6.2 4.3 6.2 4.7 6.2 5.1 6.2 5.4 6.1 5.6 5.9 5.9 5.7 6 5.3 6 4.6L6 3.8C6 3.1 5.9 2.7 5.6 2.4 5.3 2.2 5 2 4.7 2 4.3 2 4 2.1 3.7 2.4 3.4 2.6 3.3 3.1 3.3 3.8L3.3 4.6zM3.3 11.5C3.3 12.2 3.4 12.6 3.7 12.9 4 13.1 4.3 13.2 4.7 13.2 5.1 13.2 5.4 13.1 5.6 12.9 5.8 12.7 6 12.2 6 11.5L6 10.1C6 9.5 5.9 9.1 5.6 8.8 5.4 8.5 5 8.4 4.6 8.4 4.2 8.4 3.9 8.5 3.6 8.8 3.4 9.1 3.2 9.5 3.2 10.1L3.2 11.5 3.3 11.5zM14.6 2C15.1 2 15.4 1.9 15.7 1.8 16 1.7 16.2 1.6 16.4 1.4 16.6 1.2 16.7 1 16.9.8 17.1.6 17.1.3 17.2.1L18.8.1 18.8 15.2 16.4 15.2 16.4 3.7 14.6 3.7 14.6 2 14.6 2zM23.2 2C23.7 2 24 1.9 24.3 1.8 24.6 1.7 24.8 1.6 25 1.4 25.2 1.2 25.3 1 25.5.8 25.6.6 25.7.3 25.8.1L27.4.1 27.4 15.2 25 15.2 25 3.7 23.2 3.7 23.2 2zM37.4 11.6C37.4 12.8 37.1 13.8 36.4 14.4 35.8 15.1 34.8 15.4 33.6 15.4 32.4 15.4 31.5 15.1 30.8 14.4 30.2 13.7 29.8 12.8 29.8 11.6L29.8 10.4C29.8 9.7 29.9 9 30.1 8.5 30.3 8 30.7 7.5 31.2 7.3 30.2 6.8 29.7 5.8 29.7 4.3L29.7 3.8C29.7 2.6 30 1.6 30.7 1 31.3.3 32.3 0 33.5 0 34.7 0 35.6.3 36.3 1 36.9 1.7 37.3 2.6 37.3 3.8L37.3 4.3C37.3 5.8 36.8 6.8 35.8 7.3 36.3 7.6 36.7 8 36.9 8.5 37.1 9 37.2 9.7 37.2 10.4L37.2 11.6 37.4 11.6zM32.3 4.6C32.3 5.2 32.4 5.6 32.7 5.9 33 6.2 33.3 6.2 33.7 6.2 34.1 6.2 34.4 6.1 34.7 5.9 35 5.7 35.1 5.3 35.1 4.6L35.1 3.8C35.1 3.1 35 2.7 34.7 2.4 34.4 2.2 34.1 2 33.7 2 33.3 2 33 2.1 32.7 2.4 32.4 2.6 32.3 3.1 32.3 3.8L32.3 4.6zM32.3 11.5C32.3 12.2 32.4 12.6 32.7 12.9 33 13.1 33.3 13.2 33.7 13.2 34.1 13.2 34.4 13.1 34.6 12.9 34.8 12.7 35 12.2 35 11.5L35 10.1C35 9.5 34.9 9.1 34.6 8.8 34.4 8.5 34 8.4 33.6 8.4 33.2 8.4 32.9 8.5 32.6 8.8 32.4 9.1 32.2 9.5 32.2 10.1L32.2 11.5 32.3 11.5z" transform="translate(242 158)"/>
      <path fill="#009cd8" d="M.3 3.9C.3 2.6.6 1.6 1.2 1 1.8.4 2.7 0 3.9 0 5.1 0 5.9.3 6.5 1 7.1 1.7 7.4 2.6 7.4 3.8L7.4 4.2 5.2 4.2 5.2 3.7C5.2 3.2 5.1 2.8 4.9 2.5 4.7 2.3 4.4 2.2 4 2.2 3.6 2.2 3.3 2.3 3 2.6 2.8 2.9 2.7 3.3 2.7 4.1L2.7 6.9C3.1 6 3.9 5.6 4.9 5.6 5.8 5.6 6.4 5.9 6.9 6.5 7.3 7.1 7.6 7.9 7.6 9.1L7.6 11.9C7.6 13.1 7.3 14.1 6.7 14.7 6.1 15.4 5.2 15.7 4 15.7 2.8 15.7 1.9 15.4 1.3 14.7.7 14 .4 13.1.4 11.9L.4 3.9.3 3.9zM3.9 7.6C3.5 7.6 3.2 7.7 3 7.9 2.8 8.1 2.7 8.5 2.7 9.1L2.7 11.8C2.7 12.3 2.8 12.7 3 12.9 3.2 13.1 3.5 13.2 3.9 13.2 4.3 13.2 4.6 13.1 4.8 12.9 5 12.7 5.1 12.3 5.1 11.8L5.1 9.1C5.1 8.6 5 8.2 4.8 7.9 4.6 7.7 4.3 7.6 3.9 7.6zM11.1 10.4L11.1 11.8C11.1 12.3 11.2 12.7 11.4 12.9 11.6 13.1 11.9 13.2 12.3 13.2 12.7 13.2 13 13.1 13.2 12.9 13.4 12.7 13.5 12.3 13.5 11.8L13.5 8.5C13.5 8 13.4 7.6 13.2 7.3 13 7.1 12.8 7 12.4 7 12 7 11.7 7.1 11.5 7.3 11.3 7.5 11.2 7.9 11.2 8.5L11.2 9 9 9 9.4.2 15.7.2 15.7 2.4 11.6 2.4 11.4 6C11.8 5.3 12.5 4.9 13.5 4.9 14.4 4.9 15 5.2 15.5 5.8 15.9 6.4 16.2 7.2 16.2 8.4L16.2 11.8C16.2 13 15.9 14 15.3 14.6 14.7 15.3 13.8 15.6 12.7 15.6 11.6 15.6 10.7 15.3 10.1 14.6 9.5 13.9 9.2 13 9.2 11.8L9.2 10.5 11.1 10.5 11.1 10.4z" transform="translate(16 52)"/>
      <g fill="#f6a924" transform="translate(19 161)">
        <path d="M4.7,4.5 C4.7,3.8 4.6,3.4 4.4,3.1 C4.2,2.9 3.9,2.7 3.5,2.7 C3.1,2.7 2.8,2.8 2.6,3 C2.4,3.2 2.3,3.6 2.3,4.2 L2.3,5.8 L0.1,5.8 L0.1,4.3 C0.1,3.1 0.4,2.1 1,1.5 C1.6,0.8 2.5,0.5 3.6,0.5 C4.7,0.5 5.6,0.8 6.2,1.5 C6.8,2.2 7.1,3.1 7.1,4.3 C7.1,5.1 7,5.8 6.8,6.5 C6.6,7.2 6.3,7.7 5.9,8.2 C5.5,8.7 5.2,9.2 4.8,9.7 C4.4,10.1 4,10.6 3.7,11 C3.3,11.4 3.1,11.8 2.8,12.2 C2.6,12.6 2.5,13 2.5,13.4 C2.5,13.5 2.5,13.7 2.5,13.7 L7,13.7 L7,15.9 L0.1,15.9 L0.1,14 C0.1,13.3 0.2,12.6 0.4,12.1 C0.6,11.5 0.9,11 1.3,10.6 C1.7,10.1 2,9.7 2.4,9.3 C2.8,8.9 3.2,8.5 3.5,8 C3.9,7.5 4.1,7 4.4,6.5 C4.7,6 4.7,5.3 4.7,4.5 Z"/>
        <polygon points="15.5 .8 15.5 2.9 12 15.9 9.6 15.9 13.1 2.9 8.4 2.9 8.4 .7 15.5 .7"/>
      </g>
      <g fill="#2A2A2A" transform="translate(241 79)">
        <polygon points="3.1 4.2 3.1 4.9 1.3 4.9 1.3 7.5 3.5 7.5 3.5 8.2 .5 8.2 .5 1 3.5 1 3.5 1.7 1.3 1.7 1.3 4.2"/>
        <polygon points="6.1 5.1 4.9 8.2 4.1 8.2 5.6 4.5 4.2 1 5 1 6.1 3.9 7.2 1 8 1 6.6 4.5 8.1 8.2 7.2 8.2"/>
        <polygon points="9.6 5 9.6 8.3 8.8 8.3 8.8 1 9.6 1 9.6 4.3 11.4 4.3 11.4 1 12.2 1 12.2 8.3 11.4 8.3 11.4 5"/>
        <polygon points="13.9 1 13.9 8.3 13 8.3 13 1"/>
        <path d="M16.3,1 C16.9,1 17.3,1.1 17.5,1.4 C17.7,1.7 17.9,2.1 17.9,2.6 L17.9,2.9 C17.9,3.3 17.8,3.6 17.7,3.8 C17.6,4 17.4,4.2 17,4.3 C17.4,4.4 17.6,4.6 17.8,4.8 C17.9,5.1 18,5.4 18,5.8 L18,6.4 C18,6.9 17.9,7.4 17.6,7.7 C17.3,8 16.9,8.1 16.3,8.1 L14.6,8.1 L14.6,1 L16.3,1 Z M16.1,4 C16.4,4 16.7,3.9 16.8,3.8 C17,3.7 17,3.4 17,3 L17,2.6 C17,2.3 16.9,2 16.8,1.9 C16.7,1.7 16.5,1.7 16.2,1.7 L15.4,1.7 L15.4,4 L16.1,4 Z M16.4,7.5 C17,7.5 17.3,7.2 17.3,6.5 L17.3,5.9 C17.3,5.5 17.2,5.2 17.1,5.1 C16.9,4.9 16.7,4.9 16.3,4.9 L15.6,4.9 L15.6,7.6 L16.4,7.6 L16.4,7.5 Z"/>
        <polygon points="19.6 1 19.6 8.3 18.8 8.3 18.8 1"/>
        <polygon points="21.4 8.2 21.4 1.7 20.1 1.7 20.1 1 23.6 1 23.6 1.7 22.3 1.7 22.3 8.2"/>
        <path d="M24.1 2.7C24.1 2.1 24.2 1.7 24.5 1.4 24.8 1.1 25.2.9 25.8.9 26.4.9 26.8 1.1 27.1 1.4 27.4 1.7 27.5 2.2 27.5 2.7L27.5 6.5C27.5 7.1 27.4 7.5 27.1 7.8 26.8 8.1 26.4 8.3 25.8 8.3 25.2 8.3 24.8 8.1 24.5 7.8 24.2 7.5 24.1 7 24.1 6.5L24.1 2.7zM24.9 6.5C24.9 6.8 25 7.1 25.1 7.3 25.2 7.5 25.5 7.6 25.7 7.6 26 7.6 26.2 7.5 26.4 7.3 26.5 7.1 26.6 6.9 26.6 6.5L26.6 2.7C26.6 2.4 26.5 2.1 26.4 1.9 26.3 1.7 26 1.6 25.7 1.6 25.4 1.6 25.2 1.7 25.1 1.9 25 2.1 24.9 2.3 24.9 2.7L24.9 6.5zM29.8 1C30.4 1 30.8 1.1 31 1.4 31.3 1.7 31.4 2.1 31.4 2.6L31.4 3.2C31.4 3.6 31.3 3.9 31.2 4.2 31.1 4.4 30.8 4.6 30.5 4.7 30.8 4.8 31.1 5 31.2 5.2 31.3 5.4 31.4 5.8 31.4 6.2L31.4 7.3C31.4 7.5 31.4 7.6 31.4 7.8 31.4 8 31.5 8.1 31.5 8.2L30.7 8.2C30.7 8.1 30.6 8 30.6 7.9 30.6 7.8 30.6 7.6 30.6 7.4L30.6 6.3C30.6 5.9 30.5 5.6 30.3 5.5 30.1 5.3 29.9 5.3 29.5 5.3L29 5.3 29 8.4 28.2 8.4 28.2 1 29.8 1zM29.6 4.4C29.9 4.4 30.2 4.3 30.4 4.2 30.6 4.1 30.7 3.8 30.7 3.4L30.7 2.7C30.7 2.4 30.6 2.1 30.5 2 30.4 1.8 30.2 1.8 29.9 1.8L29 1.8 29 4.5 29.6 4.5 29.6 4.4zM33.8.9C34.4.9 34.8 1.1 35 1.4 35.3 1.7 35.4 2.2 35.4 2.7L35.4 2.9 34.6 2.9 34.6 2.7C34.6 2.4 34.5 2.1 34.4 1.9 34.3 1.7 34.1 1.6 33.8 1.6 33.5 1.6 33.3 1.7 33.2 1.9 33.1 2.1 33 2.3 33 2.7 33 3 33.1 3.2 33.2 3.4 33.3 3.6 33.5 3.8 33.7 4 33.9 4.2 34.1 4.3 34.3 4.5 34.5 4.7 34.7 4.8 34.9 5 35.1 5.2 35.2 5.4 35.4 5.7 35.6 6 35.6 6.2 35.6 6.6 35.6 7.2 35.5 7.6 35.2 7.9 34.9 8.2 34.5 8.4 34 8.4 33.5 8.4 33 8.2 32.8 7.9 32.5 7.6 32.4 7.1 32.4 6.6L32.4 6.2 33.2 6.2 33.2 6.7C33.2 7 33.3 7.3 33.4 7.5 33.5 7.7 33.8 7.8 34 7.8 34.3 7.8 34.5 7.7 34.6 7.5 34.7 7.3 34.8 7.1 34.8 6.7 34.8 6.4 34.7 6.2 34.6 6 34.5 5.8 34.3 5.6 34.1 5.5 33.9 5.3 33.7 5.2 33.5 5 33.3 4.8 33.1 4.7 32.9 4.5 32.7 4.3 32.6 4.1 32.4 3.8 32.3 3.6 32.2 3.3 32.2 2.9 32.2 2.3 32.3 1.9 32.6 1.6 32.9 1.3 33.2.9 33.8.9z"/>
      </g>
      <g fill="#2A2A2A" transform="translate(235 179)">
        <path d="M2.1 1.1C2.7 1.1 3.1 1.3 3.3 1.6 3.6 1.9 3.7 2.4 3.7 2.9L3.7 3.8C3.7 4.4 3.6 4.8 3.3 5.1 3 5.4 2.6 5.5 2 5.5L1.3 5.5 1.3 8.4.5 8.4.5 1.1 2.1 1.1 2.1 1.1zM2.1 4.7C2.4 4.7 2.6 4.6 2.8 4.5 2.9 4.4 3 4.1 3 3.7L3 2.7C3 2.4 2.9 2.1 2.8 2 2.7 1.8 2.5 1.8 2.2 1.8L1.4 1.8 1.4 4.7 2.1 4.7 2.1 4.7zM6.1 1.1C6.7 1.1 7.1 1.2 7.3 1.5 7.6 1.8 7.7 2.2 7.7 2.7L7.7 3.3C7.7 3.7 7.6 4 7.5 4.3 7.4 4.5 7.1 4.7 6.8 4.8 7.1 4.9 7.4 5.1 7.5 5.3 7.6 5.5 7.7 5.9 7.7 6.3L7.7 7.4C7.7 7.6 7.7 7.7 7.7 7.9 7.7 8 7.8 8.2 7.8 8.3L7 8.3C7 8.2 6.9 8.1 6.9 8 6.9 7.9 6.9 7.7 6.9 7.5L6.9 6.4C6.9 6 6.8 5.7 6.6 5.6 6.4 5.4 6.2 5.4 5.8 5.4L5.2 5.4 5.2 8.5 4.4 8.5 4.4 1.2 6.1 1.2 6.1 1.1zM5.9 4.5C6.2 4.5 6.5 4.4 6.7 4.3 6.9 4.2 7 3.9 7 3.5L7 2.8C7 2.5 6.9 2.2 6.8 2.1 6.7 1.9 6.5 1.9 6.2 1.9L5.4 1.9 5.4 4.6 5.9 4.6 5.9 4.5z"/>
        <polygon points="11.1 4.3 11.1 5 9.3 5 9.3 7.6 11.5 7.6 11.5 8.3 8.5 8.3 8.5 1 11.5 1 11.5 1.7 9.3 1.7 9.3 4.2 11.1 4.2"/>
        <path d="M13.8 1C14.4 1 14.8 1.2 15 1.5 15.3 1.8 15.4 2.3 15.4 2.8L15.4 3 14.6 3 14.6 2.8C14.6 2.5 14.5 2.2 14.4 2 14.3 1.8 14.1 1.7 13.8 1.7 13.5 1.7 13.3 1.8 13.2 2 13.1 2.2 13 2.4 13 2.8 13 3.1 13.1 3.3 13.2 3.5 13.3 3.7 13.5 3.9 13.7 4.1 13.9 4.3 14.1 4.4 14.3 4.6 14.5 4.8 14.7 4.9 14.9 5.1 15.1 5.3 15.2 5.5 15.4 5.8 15.6 6.1 15.6 6.3 15.6 6.7 15.6 7.3 15.5 7.7 15.2 8 14.9 8.3 14.5 8.5 14 8.5 13.5 8.5 13 8.3 12.8 8 12.5 7.7 12.4 7.2 12.4 6.7L12.4 6.3 13.2 6.3 13.2 6.8C13.2 7.1 13.3 7.4 13.4 7.6 13.5 7.8 13.8 7.9 14 7.9 14.2 7.9 14.5 7.8 14.6 7.6 14.7 7.4 14.8 7.2 14.8 6.8 14.8 6.5 14.7 6.3 14.6 6.1 14.5 5.9 14.3 5.7 14.1 5.6 13.9 5.4 13.7 5.3 13.5 5.1 13.3 4.9 13.1 4.8 12.9 4.6 12.7 4.4 12.6 4.2 12.4 3.9 12.3 3.7 12.2 3.4 12.2 3 12.2 2.4 12.3 2 12.6 1.7 12.8 1.2 13.3 1 13.8 1zM17.7 1C18.3 1 18.7 1.2 18.9 1.5 19.1 1.8 19.3 2.3 19.3 2.8L19.3 3 18.5 3 18.5 2.8C18.5 2.5 18.4 2.2 18.3 2 18.2 1.8 18 1.7 17.7 1.7 17.4 1.7 17.2 1.8 17.1 2 17 2.2 16.9 2.4 16.9 2.8 16.9 3.1 17 3.3 17.1 3.5 17.2 3.7 17.4 3.9 17.6 4.1 17.8 4.3 18 4.4 18.2 4.6 18.4 4.8 18.6 4.9 18.8 5.1 19 5.3 19.1 5.5 19.3 5.8 19.5 6.1 19.5 6.3 19.5 6.7 19.5 7.3 19.4 7.7 19.1 8 18.8 8.3 18.4 8.5 17.9 8.5 17.3 8.5 16.9 8.3 16.7 8 16.4 7.7 16.3 7.2 16.3 6.7L16.3 6.3 17.1 6.3 17.1 6.8C17.1 7.1 17.2 7.4 17.3 7.6 17.4 7.8 17.7 7.9 17.9 7.9 18.2 7.9 18.4 7.8 18.5 7.6 18.6 7.4 18.7 7.2 18.7 6.8 18.7 6.5 18.6 6.3 18.5 6.1 18.4 5.9 18.2 5.7 18 5.6 17.8 5.4 17.6 5.3 17.4 5.1 17.2 4.9 17 4.8 16.8 4.6 16.6 4.4 16.5 4.2 16.3 3.9 16.2 3.7 16.1 3.4 16.1 3 16.1 2.4 16.2 2 16.5 1.7 16.8 1.4 17.1 1 17.7 1zM23.2 1C23.8 1 24.2 1.2 24.4 1.5 24.7 1.8 24.8 2.3 24.8 2.8L24.8 3.5 24 3.5 24 2.8C24 2.5 23.9 2.2 23.8 2 23.7 1.8 23.4 1.7 23.2 1.7 22.9 1.7 22.7 1.8 22.6 2 22.5 2.2 22.4 2.4 22.4 2.8L22.4 6.6C22.4 6.9 22.5 7.2 22.6 7.4 22.7 7.6 23 7.7 23.2 7.7 23.5 7.7 23.7 7.6 23.8 7.4 23.9 7.2 24 7 24 6.6L24 5.7 24.8 5.7 24.8 6.6C24.8 7.2 24.7 7.6 24.4 7.9 24.1 8.2 23.7 8.4 23.2 8.4 22.6 8.4 22.2 8.2 22 7.9 21.8 7.6 21.6 7.1 21.6 6.6L21.6 2.8C21.6 2.5 21.6 2.3 21.7 2 21.8 1.8 21.9 1.6 22 1.4 22.1 1.2 22.3 1.1 22.5 1 22.7.9 22.9 1 23.2 1zM25.5 2.8C25.5 2.2 25.6 1.8 25.9 1.5 26.2 1.2 26.6 1 27.2 1 27.8 1 28.2 1.2 28.5 1.5 28.8 1.8 28.9 2.3 28.9 2.8L28.9 6.6C28.9 7.2 28.8 7.6 28.5 7.9 28.2 8.2 27.8 8.4 27.2 8.4 26.6 8.4 26.2 8.2 25.9 7.9 25.6 7.6 25.5 7.1 25.5 6.6L25.5 2.8zM26.3 6.6C26.3 6.9 26.4 7.2 26.5 7.4 26.6 7.6 26.9 7.7 27.1 7.7 27.4 7.7 27.6 7.6 27.8 7.4 27.9 7.2 28 7 28 6.6L28 2.8C28 2.5 27.9 2.2 27.8 2 27.7 1.8 27.4 1.7 27.1 1.7 26.8 1.7 26.6 1.8 26.5 2 26.4 2.2 26.3 2.4 26.3 2.8L26.3 6.6z"/>
        <polygon points="30.2 1.1 31.4 7.4 32.6 1.1 33.3 1.1 31.9 8.4 30.7 8.4 29.3 1.1"/>
        <polygon points="36.5 4.3 36.5 5 34.7 5 34.7 7.6 36.9 7.6 36.9 8.3 33.9 8.3 33.9 1 36.9 1 36.9 1.7 34.7 1.7 34.7 4.2 36.5 4.2"/>
        <path d="M39.3 1.1C39.9 1.1 40.3 1.2 40.5 1.5 40.8 1.8 40.9 2.2 40.9 2.7L40.9 3.3C40.9 3.7 40.8 4 40.7 4.3 40.6 4.5 40.3 4.7 40 4.8 40.3 4.9 40.6 5.1 40.7 5.3 40.8 5.5 40.9 5.9 40.9 6.3L40.9 7.4C40.9 7.6 40.9 7.7 40.9 7.9 40.9 8.1 41 8.2 41 8.3L40.2 8.3C40.2 8.2 40.1 8.1 40.1 8 40.1 7.9 40.1 7.7 40.1 7.5L40.1 6.4C40.1 6 40 5.7 39.8 5.6 39.6 5.4 39.4 5.4 39 5.4L38.4 5.4 38.4 8.5 37.6 8.5 37.6 1.2 39.3 1.2 39.3 1.1zM39.1 4.5C39.4 4.5 39.7 4.4 39.9 4.3 40.1 4.2 40.2 3.9 40.2 3.5L40.2 2.8C40.2 2.5 40.1 2.2 40 2.1 39.9 1.9 39.7 1.9 39.4 1.9L38.6 1.9 38.6 4.6 39.1 4.6 39.1 4.5zM42.6 6.9L42.3 8.4 41.6 8.4 43 1.1 44.2 1.1 45.6 8.4 44.8 8.4 44.5 6.9 42.6 6.9zM42.7 6.2L44.3 6.2 43.5 2 42.7 6.2zM47.7 1C48.3 1 48.7 1.2 48.9 1.5 49.2 1.8 49.3 2.3 49.3 2.8L49.3 3.4 48.5 3.4 48.5 2.7C48.5 2.4 48.4 2.1 48.3 1.9 48.2 1.7 47.9 1.6 47.7 1.6 47.4 1.6 47.2 1.7 47.1 1.9 47 2.1 46.9 2.3 46.9 2.7L46.9 6.5C46.9 6.8 47 7.1 47.1 7.3 47.2 7.5 47.5 7.6 47.7 7.6 48 7.6 48.2 7.5 48.3 7.3 48.4 7.1 48.5 6.9 48.5 6.5L48.5 5 47.8 5 47.8 4.3 49.3 4.3 49.3 6.4C49.3 7 49.2 7.4 48.9 7.7 48.6 8 48.2 8.2 47.7 8.2 47.1 8.2 46.7 8 46.5 7.7 46.3 7.4 46.1 6.9 46.1 6.4L46.1 2.6C46.1 2.3 46.1 2.1 46.2 1.8 46.3 1.6 46.4 1.4 46.5 1.2 46.6 1 46.8.9 47 .8 47.2.7 47.4 1 47.7 1z"/>
        <polygon points="52.7 4.3 52.7 5 50.9 5 50.9 7.6 53.1 7.6 53.1 8.3 50.1 8.3 50.1 1 53.1 1 53.1 1.7 50.9 1.7 50.9 4.2 52.7 4.2"/>
      </g>
      <g fill="#2A2A2A" transform="translate(120 253)">
        <path d="M1.6,0.6 C2.2,0.6 2.6,0.8 2.8,1.1 C3.1,1.4 3.2,1.9 3.2,2.4 L3.2,3.3 C3.2,3.9 3.1,4.3 2.8,4.6 C2.5,4.9 2.1,5 1.5,5 L0.8,5 L0.8,7.9 L0,7.9 L0,0.6 L1.6,0.6 L1.6,0.6 Z M1.6,4.3 C1.9,4.3 2.1,4.2 2.3,4.1 C2.4,4 2.5,3.7 2.5,3.3 L2.5,2.3 C2.5,2 2.4,1.7 2.3,1.6 C2.2,1.4 2,1.4 1.7,1.4 L0.9,1.4 L0.9,4.3 L1.6,4.3 Z"/>
        <polygon points="6.5 3.8 6.5 4.5 4.7 4.5 4.7 7.1 6.9 7.1 6.9 7.8 3.9 7.8 3.9 .5 6.9 .5 6.9 1.2 4.7 1.2 4.7 3.7 6.5 3.7"/>
        <path d="M7.6 2.3C7.6 1.7 7.7 1.3 8 1 8.3.7 8.7.5 9.3.5 9.9.5 10.3.7 10.6 1 10.9 1.3 11 1.8 11 2.3L11 6.1C11 6.7 10.9 7.1 10.6 7.4 10.3 7.7 9.9 7.9 9.3 7.9 8.7 7.9 8.3 7.7 8 7.4 7.7 7.1 7.6 6.6 7.6 6.1L7.6 2.3zM8.4 6.1C8.4 6.4 8.5 6.7 8.6 6.9 8.7 7.1 9 7.2 9.2 7.2 9.5 7.2 9.7 7.1 9.9 6.9 10 6.7 10.1 6.5 10.1 6.1L10.1 2.3C10.1 2 10 1.7 9.9 1.5 9.8 1.3 9.5 1.2 9.2 1.2 8.9 1.2 8.7 1.3 8.6 1.5 8.5 1.7 8.4 1.9 8.4 2.3L8.4 6.1zM13.3.6C13.9.6 14.3.8 14.5 1.1 14.8 1.4 14.9 1.9 14.9 2.4L14.9 3.3C14.9 3.9 14.8 4.3 14.5 4.6 14.2 4.9 13.8 5 13.2 5L12.5 5 12.5 7.9 11.7 7.9 11.7.6 13.3.6 13.3.6zM13.2 4.3C13.5 4.3 13.7 4.2 13.9 4.1 14 4 14.1 3.7 14.1 3.3L14.1 2.3C14.1 2 14 1.7 13.9 1.6 13.8 1.4 13.6 1.4 13.3 1.4L12.5 1.4 12.5 4.3 13.2 4.3z"/>
        <polygon points="15.5 7.9 15.5 .6 16.3 .6 16.3 7.1 18.4 7.1 18.4 7.8 15.5 7.8"/>
        <polygon points="21.6 3.8 21.6 4.5 19.8 4.5 19.8 7.1 22 7.1 22 7.8 19 7.8 19 .5 22 .5 22 1.2 19.8 1.2 19.8 3.7 21.6 3.7"/>
        <path d="M26,0.6 C26.6,0.6 27,0.7 27.2,1 C27.5,1.3 27.6,1.7 27.6,2.2 L27.6,2.8 C27.6,3.2 27.5,3.5 27.4,3.8 C27.3,4 27,4.2 26.7,4.3 C27,4.4 27.3,4.6 27.4,4.8 C27.5,5 27.6,5.4 27.6,5.8 L27.6,6.9 C27.6,7.1 27.6,7.2 27.6,7.4 C27.6,7.5 27.7,7.7 27.7,7.8 L27,7.8 C27,7.7 26.9,7.6 26.9,7.5 C26.9,7.4 26.9,7.2 26.9,7 L26.9,5.9 C26.9,5.5 26.8,5.2 26.6,5.1 C26.4,4.9 26.2,4.9 25.8,4.9 L25.2,4.9 L25.2,8 L24.4,8 L24.4,0.7 L26,0.7 L26,0.6 Z M25.8,4 C26.1,4 26.4,3.9 26.6,3.8 C26.8,3.7 26.9,3.4 26.9,3 L26.9,2.3 C26.9,2 26.8,1.7 26.7,1.6 C26.6,1.4 26.4,1.4 26.1,1.4 L25.3,1.4 L25.3,4.1 L25.8,4.1 L25.8,4 Z"/>
        <polygon points="31.1 3.8 31.1 4.5 29.3 4.5 29.3 7.1 31.5 7.1 31.5 7.8 28.5 7.8 28.5 .5 31.5 .5 31.5 1.2 29.3 1.2 29.3 3.7 31.1 3.7"/>
        <path d="M33 6.4L32.7 7.9 32 7.9 33.4.6 34.6.6 36 7.9 35.2 7.9 34.9 6.4 33 6.4zM33.1 5.7L34.7 5.7 33.9 1.5 33.1 5.7zM38.2.5C38.8.5 39.2.7 39.4 1 39.7 1.3 39.8 1.8 39.8 2.3L39.8 3 39 3 39 2.3C39 2 38.9 1.7 38.8 1.5 38.7 1.3 38.4 1.2 38.2 1.2 37.9 1.2 37.7 1.3 37.6 1.5 37.5 1.7 37.4 1.9 37.4 2.3L37.4 6.1C37.4 6.4 37.5 6.7 37.6 6.9 37.7 7.1 38 7.2 38.2 7.2 38.5 7.2 38.7 7.1 38.8 6.9 38.9 6.7 39 6.5 39 6.1L39 5.2 39.8 5.2 39.8 6.1C39.8 6.7 39.7 7.1 39.4 7.4 39.1 7.7 38.7 7.9 38.2 7.9 37.6 7.9 37.2 7.7 37 7.4 36.8 7.1 36.6 6.6 36.6 6.1L36.6 2.3C36.6 2 36.6 1.8 36.7 1.5 36.8 1.3 36.9 1.1 37 .9 37.1.7 37.3.6 37.5.5 37.7.4 37.9.5 38.2.5z"/>
        <polygon points="41.4 4.6 41.4 7.9 40.6 7.9 40.6 .6 41.4 .6 41.4 3.9 43.2 3.9 43.2 .6 44 .6 44 7.9 43.2 7.9 43.2 4.6"/>
        <path d="M46.3,2.3 C46.3,1.7 46.4,1.3 46.7,1 C47,0.7 47.4,0.5 48,0.5 C48.6,0.5 49,0.7 49.3,1 C49.6,1.3 49.7,1.8 49.7,2.3 L49.7,6.1 C49.7,6.7 49.6,7.1 49.3,7.4 C49,7.7 48.6,7.9 48,7.9 C47.4,7.9 47,7.7 46.7,7.4 C46.4,7.1 46.3,6.6 46.3,6.1 L46.3,2.3 Z M47.1,6.1 C47.1,6.4 47.2,6.7 47.3,6.9 C47.4,7.1 47.7,7.2 47.9,7.2 C48.2,7.2 48.4,7.1 48.6,6.9 C48.7,6.7 48.8,6.5 48.8,6.1 L48.8,2.3 C48.8,2 48.7,1.7 48.6,1.5 C48.5,1.3 48.2,1.2 47.9,1.2 C47.6,1.2 47.4,1.3 47.3,1.5 C47.2,1.7 47.1,1.9 47.1,2.3 L47.1,6.1 Z"/>
        <polygon points="51.1 7.9 50.4 7.9 50.4 .6 51.4 .6 53.1 5.9 53.1 .6 53.8 .6 53.8 7.9 53 7.9 51.1 2"/>
      </g>
      <g fill="#2A2A2A" transform="translate(126 265)">
        <path d="M1.7 1C2.3 1 2.7 1.2 2.9 1.5 3.2 1.8 3.3 2.3 3.3 2.8L3.3 3 2.5 3 2.5 2.8C2.5 2.5 2.4 2.2 2.3 2 2.2 1.8 2 1.7 1.7 1.7 1.4 1.7 1.2 1.8 1.1 2 1 2.2.9 2.4.9 2.8.9 3.1 1 3.3 1.1 3.5 1.2 3.7 1.4 3.9 1.6 4.1 1.8 4.3 2 4.4 2.2 4.6 2.4 4.8 2.6 4.9 2.8 5.1 3 5.3 3.1 5.5 3.3 5.8 3.5 6.1 3.5 6.3 3.5 6.7 3.5 7.3 3.4 7.7 3.1 8 2.8 8.3 2.4 8.5 1.9 8.5 1.3 8.5.9 8.3.7 8 .4 7.7.3 7.2.3 6.7L.3 6.3 1.1 6.3 1.1 6.8C1.1 7.1 1.2 7.4 1.3 7.6 1.4 7.8 1.7 7.9 1.9 7.9 2.2 7.9 2.4 7.8 2.5 7.6 2.6 7.4 2.7 7.2 2.7 6.8 2.7 6.5 2.6 6.3 2.5 6.1 2.4 5.9 2.2 5.7 2 5.6 1.8 5.4 1.6 5.3 1.4 5.1 1.2 4.9 1 4.8.8 4.6.6 4.4.5 4.2.3 3.9.2 3.7.1 3.4.1 3 .1 2.4.2 2 .5 1.7.8 1.1 1.2 1 1.7 1zM4 2.8C4 2.2 4.1 1.8 4.4 1.5 4.7 1.2 5.1 1 5.7 1 6.3 1 6.7 1.2 7 1.5 7.3 1.8 7.4 2.3 7.4 2.8L7.4 6.6C7.4 7.2 7.3 7.6 7 7.9 6.7 8.2 6.3 8.4 5.7 8.4 5.1 8.4 4.7 8.2 4.4 7.9 4.1 7.6 4 7.1 4 6.6L4 2.8zM4.8 6.6C4.8 6.9 4.9 7.2 5 7.4 5.1 7.6 5.4 7.7 5.6 7.7 5.9 7.7 6.1 7.6 6.3 7.4 6.4 7.2 6.5 7 6.5 6.6L6.5 2.8C6.5 2.5 6.4 2.2 6.3 2 6.2 1.8 5.9 1.7 5.6 1.7 5.3 1.7 5.1 1.8 5 2 4.9 2.2 4.8 2.4 4.8 2.8L4.8 6.6zM9.7 1C10.3 1 10.7 1.2 10.9 1.5 11.2 1.8 11.3 2.3 11.3 2.8L11.3 3.5 10.5 3.5 10.5 2.8C10.5 2.5 10.4 2.2 10.3 2 10.2 1.8 9.9 1.7 9.7 1.7 9.4 1.7 9.2 1.8 9.1 2 9 2.2 8.9 2.4 8.9 2.8L8.9 6.6C8.9 6.9 9 7.2 9.1 7.4 9.2 7.6 9.5 7.7 9.7 7.7 10 7.7 10.2 7.6 10.3 7.4 10.4 7.2 10.5 7 10.5 6.6L10.5 5.7 11.3 5.7 11.3 6.6C11.3 7.2 11.2 7.6 10.9 7.9 10.6 8.2 10.2 8.4 9.7 8.4 9.1 8.4 8.7 8.2 8.5 7.9 8.3 7.6 8.1 7.1 8.1 6.6L8.1 2.8C8.1 2.5 8.1 2.3 8.2 2 8.3 1.8 8.4 1.6 8.5 1.4 8.6 1.2 8.8 1.1 9 1 9.2.9 9.4 1 9.7 1z"/>
        <polygon points="12.9 1 12.9 8.3 12.1 8.3 12.1 1"/>
        <path d="M14.5,6.8 L14.2,8.3 L13.5,8.3 L14.9,1 L16.1,1 L17.5,8.3 L16.7,8.3 L16.4,6.8 L14.5,6.8 Z M14.6,6.2 L16.2,6.2 L15.4,2 L14.6,6.2 Z"/>
        <polygon points="18.1 8.3 18.1 1 18.9 1 18.9 7.5 21 7.5 21 8.2 18.1 8.2"/>
        <polygon points="25.9 8.3 25.1 8.3 23.9 2.5 23.9 8.3 23.2 8.3 23.2 1 24.3 1 25.5 6.8 26.7 1 27.8 1 27.8 8.3 27 8.3 27 2.5"/>
        <polygon points="31.2 4.3 31.2 5 29.4 5 29.4 7.6 31.6 7.6 31.6 8.3 28.6 8.3 28.6 1 31.6 1 31.6 1.7 29.4 1.7 29.4 4.2 31.2 4.2"/>
        <path d="M34.1,1 C34.7,1 35.1,1.2 35.4,1.5 C35.7,1.8 35.8,2.3 35.8,2.8 L35.8,6.5 C35.8,7.1 35.7,7.5 35.4,7.8 C35.1,8.1 34.7,8.3 34.1,8.3 L32.4,8.3 L32.4,1 L34.1,1 Z M34.1,7.6 C34.4,7.6 34.6,7.5 34.7,7.3 C34.8,7.1 34.9,6.9 34.9,6.5 L34.9,2.8 C34.9,2.5 34.8,2.2 34.7,2 C34.6,1.8 34.3,1.7 34,1.7 L33.1,1.7 L33.1,7.5 L34.1,7.5 L34.1,7.6 Z"/>
        <polygon points="37.3 1 37.3 8.3 36.5 8.3 36.5 1"/>
        <path d="M38.9,6.8 L38.6,8.3 L37.9,8.3 L39.3,1 L40.5,1 L41.9,8.3 L41.1,8.3 L40.8,6.8 L38.9,6.8 Z M39,6.2 L40.6,6.2 L39.8,2 L39,6.2 Z"/>
      </g>
      <g fill="#2A2A2A" transform="translate(10 184)">
        <path d="M1.6.1C2.2.1 2.6.3 2.8.6 3.1.9 3.2 1.4 3.2 1.9L3.2 2.6 2.4 2.6 2.4 1.9C2.4 1.6 2.3 1.3 2.2 1.1 2.1.9 1.8.8 1.6.8 1.3.8 1.1.9 1 1.1.9 1.3.8 1.5.8 1.9L.8 5.7C.8 6 .9 6.3 1 6.5 1.1 6.7 1.4 6.8 1.6 6.8 1.9 6.8 2.1 6.7 2.2 6.5 2.3 6.3 2.4 6.1 2.4 5.7L2.4 4.8 3.2 4.8 3.2 5.7C3.2 6.3 3.1 6.7 2.8 7 2.5 7.3 2.1 7.5 1.6 7.5 1 7.5.6 7.3.4 7 .2 6.7 3.55271368e-15 6.2 3.55271368e-15 5.7L3.55271368e-15 2C3.55271368e-15 1.7 3.55271368e-15 1.5.1 1.2.2.9.3.8.4.6.5.4.7.3.9.2 1.1.2 1.4.1 1.6.1zM4 2C4 1.4 4.1 1 4.4.7 4.7.4 5.1.2 5.7.2 6.3.2 6.7.4 7 .7 7.3 1 7.4 1.5 7.4 2L7.4 5.8C7.4 6.4 7.3 6.8 7 7.1 6.7 7.4 6.3 7.6 5.7 7.6 5.1 7.6 4.7 7.4 4.4 7.1 4.1 6.8 4 6.3 4 5.8L4 2zM4.8 5.8C4.8 6.1 4.9 6.4 5 6.6 5.1 6.8 5.4 6.9 5.6 6.9 5.9 6.9 6.1 6.8 6.3 6.6 6.4 6.4 6.5 6.2 6.5 5.8L6.5 2C6.5 1.7 6.4 1.4 6.3 1.2 6.2 1 5.9.9 5.6.9 5.3.9 5.1 1 5 1.2 4.9 1.4 4.8 1.6 4.8 2L4.8 5.8zM8.8 5.8C8.8 6.1 8.9 6.4 9 6.6 9.1 6.8 9.4 6.9 9.6 6.9 9.9 6.9 10.1 6.8 10.2 6.6 10.3 6.4 10.4 6.2 10.4 5.8L10.4.2 11.2.2 11.2 5.7C11.2 6.3 11.1 6.7 10.8 7 10.5 7.3 10.1 7.5 9.6 7.5 9 7.5 8.6 7.3 8.4 7 8.1 6.7 8 6.2 8 5.7L8 .2 8.8.2 8.8 5.8z"/>
        <polygon points="12.8 7.5 12.1 7.5 12.1 .2 13.1 .2 14.8 5.5 14.8 .2 15.5 .2 15.5 7.5 14.7 7.5 12.8 1.6 12.8 7.5"/>
        <polygon points="17.4 7.5 17.4 1 16 1 16 .3 19.5 .3 19.5 1 18.2 1 18.2 7.5"/>
        <path d="M21.7,0.2 C22.3,0.2 22.7,0.3 22.9,0.6 C23.2,0.9 23.3,1.3 23.3,1.8 L23.3,2.4 C23.3,2.8 23.2,3.1 23.1,3.4 C23,3.6 22.7,3.8 22.4,3.9 C22.7,4 23,4.2 23.1,4.4 C23.2,4.6 23.3,5 23.3,5.4 L23.3,6.5 C23.3,6.7 23.3,6.8 23.3,7 C23.3,7.1 23.4,7.3 23.4,7.4 L22.6,7.4 C22.6,7.3 22.5,7.2 22.5,7.1 C22.5,7 22.5,6.8 22.5,6.6 L22.5,5.5 C22.5,5.1 22.4,4.8 22.2,4.7 C22,4.5 21.8,4.5 21.4,4.5 L20.8,4.5 L20.8,7.6 L20,7.6 L20,0.3 L21.7,0.3 L21.7,0.2 Z M21.5,3.6 C21.8,3.6 22.1,3.5 22.3,3.4 C22.5,3.3 22.6,3 22.6,2.6 L22.6,1.9 C22.6,1.6 22.5,1.3 22.4,1.2 C22.3,1.1 22,1 21.7,1 L20.9,1 L20.9,3.7 L21.5,3.7 L21.5,3.6 Z"/>
        <polygon points="25 .2 25 7.5 24.2 7.5 24.2 .2"/>
        <polygon points="28.4 3.4 28.4 4.1 26.6 4.1 26.6 6.7 28.8 6.7 28.8 7.4 25.8 7.4 25.8 .1 28.8 .1 28.8 .8 26.6 .8 26.6 3.3 28.4 3.3"/>
        <path d="M31.1,0.1 C31.7,0.1 32.1,0.3 32.3,0.6 C32.6,0.9 32.7,1.4 32.7,1.9 L32.7,2.1 L31.9,2.1 L31.9,1.9 C31.9,1.6 31.8,1.3 31.7,1.1 C31.6,0.9 31.4,0.8 31.1,0.8 C30.8,0.8 30.6,0.9 30.5,1.1 C30.4,1.3 30.3,1.5 30.3,1.9 C30.3,2.2 30.4,2.4 30.5,2.6 C30.6,2.8 30.8,3 31,3.2 C31.2,3.4 31.4,3.5 31.6,3.7 C31.8,3.9 32,4 32.2,4.2 C32.4,4.4 32.5,4.6 32.7,4.9 C32.9,5.2 32.9,5.4 32.9,5.8 C32.9,6.4 32.8,6.8 32.5,7.1 C32.2,7.4 31.8,7.6 31.3,7.6 C30.7,7.6 30.3,7.4 30.1,7.1 C29.8,6.8 29.7,6.3 29.7,5.8 L29.7,5.4 L30.5,5.4 L30.5,5.9 C30.5,6.2 30.6,6.5 30.7,6.7 C30.8,6.9 31.1,7 31.3,7 C31.6,7 31.8,6.9 31.9,6.7 C32,6.5 32.1,6.3 32.1,5.9 C32.1,5.6 32,5.4 31.9,5.2 C31.8,5 31.6,4.8 31.4,4.6 C31.2,4.4 31,4.3 30.8,4.1 C30.6,3.9 30.4,3.8 30.2,3.6 C30,3.4 29.9,3.2 29.7,2.9 C29.6,2.7 29.5,2.4 29.5,2 C29.5,1.4 29.6,1 29.9,0.7 C30.1,0.3 30.5,0.1 31.1,0.1 Z"/>
      </g>
      <g fill="#2A2A2A" transform="translate(5 196)">
        <path d="M1.9,0.7 C2.5,0.7 2.9,0.8 3.1,1.1 C3.4,1.4 3.5,1.8 3.5,2.3 L3.5,2.9 C3.5,3.3 3.4,3.6 3.3,3.9 C3.2,4.1 2.9,4.3 2.6,4.4 C2.9,4.5 3.2,4.7 3.3,4.9 C3.4,5.1 3.5,5.5 3.5,5.9 L3.5,7 C3.5,7.2 3.5,7.3 3.5,7.5 C3.5,7.6 3.6,7.8 3.6,7.9 L2.8,7.9 C2.8,7.8 2.7,7.7 2.7,7.6 C2.7,7.5 2.7,7.3 2.7,7.1 L2.7,6 C2.7,5.6 2.6,5.3 2.4,5.2 C2.2,5 2,5 1.6,5 L1,5 L1,8.1 L0.2,8.1 L0.2,0.8 L1.9,0.8 L1.9,0.7 Z M1.7,4.1 C2,4.1 2.3,4 2.5,3.9 C2.7,3.8 2.8,3.5 2.8,3.1 L2.8,2.4 C2.8,2.1 2.7,1.8 2.6,1.7 C2.5,1.6 2.3,1.5 2,1.5 L1.2,1.5 L1.2,4.2 L1.7,4.2 L1.7,4.1 Z"/>
        <polygon points="7 3.9 7 4.6 5.2 4.6 5.2 7.2 7.4 7.2 7.4 7.9 4.4 7.9 4.4 .6 7.4 .6 7.4 1.3 5.2 1.3 5.2 3.8 7 3.8"/>
        <path d="M9.7.7C10.3.7 10.7.9 10.9 1.2 11.2 1.5 11.3 2 11.3 2.5L11.3 3.4C11.3 4 11.2 4.4 10.9 4.7 10.6 5 10.2 5.1 9.6 5.1L8.9 5.1 8.9 8 8.1 8 8.1.7 9.7.7 9.7.7zM9.6 4.4C9.9 4.4 10.1 4.3 10.3 4.2 10.4 4.1 10.5 3.8 10.5 3.4L10.5 2.4C10.5 2.1 10.4 1.8 10.3 1.7 10.2 1.5 10 1.5 9.7 1.5L8.9 1.5 8.9 4.4 9.6 4.4 9.6 4.4zM13.6.7C14.2.7 14.6.8 14.8 1.1 15.1 1.4 15.2 1.8 15.2 2.3L15.2 2.9C15.2 3.3 15.1 3.6 15 3.9 14.9 4.1 14.6 4.3 14.3 4.4 14.6 4.5 14.9 4.7 15 4.9 15.1 5.1 15.2 5.5 15.2 5.9L15.2 7C15.2 7.2 15.2 7.3 15.2 7.5 15.2 7.6 15.3 7.8 15.3 7.9L14.5 7.9C14.5 7.8 14.4 7.7 14.4 7.6 14.4 7.5 14.4 7.3 14.4 7.1L14.4 6C14.4 5.6 14.3 5.3 14.1 5.2 13.9 5 13.7 5 13.3 5L12.7 5 12.7 8.1 12 8.1 12 .8 13.6.8 13.6.7zM13.4 4.1C13.7 4.1 14 4 14.2 3.9 14.4 3.8 14.5 3.5 14.5 3.1L14.5 2.4C14.5 2.1 14.4 1.8 14.3 1.7 14.2 1.6 14 1.5 13.7 1.5L12.9 1.5 12.9 4.2 13.4 4.2 13.4 4.1z"/>
        <polygon points="18.6 3.9 18.6 4.6 16.8 4.6 16.8 7.2 19 7.2 19 7.9 16 7.9 16 .6 19 .6 19 1.3 16.8 1.3 16.8 3.8 18.6 3.8"/>
        <path d="M21.3,0.6 C21.9,0.6 22.3,0.8 22.5,1.1 C22.8,1.4 22.9,1.9 22.9,2.4 L22.9,2.6 L22.1,2.6 L22.1,2.4 C22.1,2.1 22,1.8 21.9,1.6 C21.8,1.4 21.6,1.3 21.3,1.3 C21,1.3 20.8,1.4 20.7,1.6 C20.6,1.8 20.5,2 20.5,2.4 C20.5,2.7 20.6,2.9 20.7,3.1 C20.8,3.3 21,3.5 21.2,3.7 C21.4,3.9 21.6,4 21.8,4.2 C22,4.4 22.2,4.5 22.4,4.7 C22.6,4.9 22.7,5.1 22.9,5.4 C23.1,5.7 23.1,5.9 23.1,6.3 C23.1,6.9 23,7.3 22.7,7.6 C22.4,7.9 22,8.1 21.5,8.1 C20.9,8.1 20.5,7.9 20.3,7.6 C20,7.3 19.9,6.8 19.9,6.3 L19.9,5.9 L20.7,5.9 L20.7,6.4 C20.7,6.7 20.8,7 20.9,7.2 C21,7.4 21.3,7.5 21.5,7.5 C21.8,7.5 22,7.4 22.1,7.2 C22.2,7 22.3,6.8 22.3,6.4 C22.3,6.1 22.2,5.9 22.1,5.7 C22,5.5 21.8,5.3 21.6,5.1 C21.4,4.9 21.2,4.8 21,4.6 C20.8,4.4 20.6,4.3 20.4,4.1 C20.2,3.9 20.1,3.7 19.9,3.4 C19.8,3.2 19.7,2.9 19.7,2.5 C19.7,1.9 19.8,1.5 20.1,1.2 C20.4,0.8 20.8,0.6 21.3,0.6 Z"/>
        <polygon points="26.2 3.9 26.2 4.6 24.4 4.6 24.4 7.2 26.6 7.2 26.6 7.9 23.6 7.9 23.6 .6 26.6 .6 26.6 1.3 24.4 1.3 24.4 3.8 26.2 3.8"/>
        <polygon points="28.1 8 27.4 8 27.4 .7 28.4 .7 30.1 6 30.1 .7 30.8 .7 30.8 8 30 8 28.1 2.1"/>
        <polygon points="32.7 8 32.7 1.5 31.4 1.5 31.4 .8 34.9 .8 34.9 1.5 33.6 1.5 33.6 8"/>
        <polygon points="38 3.9 38 4.6 36.2 4.6 36.2 7.2 38.4 7.2 38.4 7.9 35.4 7.9 35.4 .6 38.4 .6 38.4 1.3 36.2 1.3 36.2 3.8 38 3.8"/>
        <path d="M40.8,0.7 C41.4,0.7 41.8,0.9 42.1,1.2 C42.4,1.5 42.5,2 42.5,2.5 L42.5,6.2 C42.5,6.8 42.4,7.2 42.1,7.5 C41.8,7.8 41.4,8 40.8,8 L39.1,8 L39.1,0.7 L40.8,0.7 Z M40.8,7.2 C41.1,7.2 41.3,7.1 41.4,6.9 C41.5,6.7 41.6,6.5 41.6,6.1 L41.6,2.4 C41.6,2.1 41.5,1.8 41.4,1.6 C41.3,1.4 41,1.3 40.7,1.3 L39.8,1.3 L39.8,7.1 L40.8,7.1 L40.8,7.2 Z"/>
      </g>
      <g fill="#2A2A2A" transform="translate(0 73)">
        <polygon points="1.7 .3 1.7 7.6 .9 7.6 .9 .3"/>
        <polygon points="3.3 7.6 2.6 7.6 2.6 .3 3.6 .3 5.3 5.6 5.3 .3 6 .3 6 7.6 5.2 7.6 3.3 1.7"/>
        <polygon points="7.9 7.6 7.9 1.1 6.6 1.1 6.6 .4 10 .4 10 1.1 8.7 1.1 8.7 7.6"/>
        <polygon points="13.1 3.6 13.1 4.3 11.3 4.3 11.3 6.9 13.5 6.9 13.5 7.6 10.5 7.6 10.5 .3 13.5 .3 13.5 1 11.3 1 11.3 3.5 13.1 3.5"/>
        <path d="M15.9,0.3 C16.5,0.3 16.9,0.4 17.1,0.7 C17.4,1 17.5,1.4 17.5,1.9 L17.5,2.5 C17.5,2.9 17.4,3.2 17.3,3.5 C17.2,3.7 16.9,3.9 16.6,4 C16.9,4.1 17.2,4.3 17.3,4.5 C17.4,4.7 17.5,5.1 17.5,5.5 L17.5,6.6 C17.5,6.8 17.5,6.9 17.5,7.1 C17.5,7.2 17.6,7.4 17.6,7.5 L16.8,7.5 C16.8,7.4 16.7,7.3 16.7,7.2 C16.7,7.1 16.7,6.9 16.7,6.7 L16.7,5.6 C16.7,5.2 16.6,4.9 16.4,4.8 C16.2,4.6 16,4.6 15.6,4.6 L15,4.6 L15,7.7 L14.2,7.7 L14.2,0.4 L15.9,0.4 L15.9,0.3 Z M15.7,3.8 C16,3.8 16.3,3.7 16.5,3.6 C16.7,3.5 16.8,3.2 16.8,2.8 L16.8,2.1 C16.8,1.8 16.7,1.5 16.6,1.4 C16.5,1.2 16.3,1.2 16,1.2 L15.2,1.2 L15.2,3.9 L15.7,3.9 L15.7,3.8 Z"/>
        <polygon points="19.1 7.6 18.4 7.6 18.4 .3 19.4 .3 21.1 5.6 21.1 .3 21.8 .3 21.8 7.6 21 7.6 19.1 1.7"/>
        <path d="M23.4,6.1 L23.1,7.6 L22.4,7.6 L23.8,0.3 L25,0.3 L26.4,7.6 L25.6,7.6 L25.3,6.1 L23.4,6.1 Z M23.6,5.4 L25.2,5.4 L24.4,1.2 L23.6,5.4 Z"/>
        <polygon points="27.7 7.6 27.7 1.1 26.4 1.1 26.4 .4 29.9 .4 29.9 1.1 28.6 1.1 28.6 7.6"/>
        <polygon points="31.2 .3 31.2 7.6 30.4 7.6 30.4 .3"/>
        <path d="M31.9,2.1 C31.9,1.5 32,1.1 32.3,0.8 C32.6,0.5 33,0.3 33.6,0.3 C34.2,0.3 34.6,0.5 34.9,0.8 C35.2,1.1 35.3,1.6 35.3,2.1 L35.3,5.9 C35.3,6.5 35.2,6.9 34.9,7.2 C34.6,7.5 34.2,7.7 33.6,7.7 C33,7.7 32.6,7.5 32.3,7.2 C32,6.9 31.9,6.4 31.9,5.9 L31.9,2.1 Z M32.7,5.9 C32.7,6.2 32.8,6.5 32.9,6.7 C33,6.9 33.3,7 33.5,7 C33.8,7 34,6.9 34.2,6.7 C34.3,6.5 34.4,6.3 34.4,5.9 L34.4,2.1 C34.4,1.8 34.3,1.5 34.2,1.3 C34.1,1.1 33.8,1 33.5,1 C33.2,1 33,1.1 32.9,1.3 C32.8,1.5 32.7,1.7 32.7,2.1 L32.7,5.9 Z"/>
        <polygon points="36.8 7.6 36 7.6 36 .3 37 .3 38.7 5.6 38.7 .3 39.4 .3 39.4 7.6 38.6 7.6 36.7 1.7 36.7 7.6"/>
        <path d="M41.1,6.1 L40.8,7.6 L40.1,7.6 L41.5,0.3 L42.7,0.3 L44.1,7.6 L43.3,7.6 L43,6.1 L41.1,6.1 Z M41.2,5.4 L42.8,5.4 L42,1.3 L41.2,5.4 Z"/>
        <polygon points="44.7 7.6 44.7 .3 45.5 .3 45.5 6.8 47.6 6.8 47.6 7.5 44.7 7.5"/>
      </g>
      <g fill="#2A2A2A" transform="translate(4 85)">
        <path d="M1.9,0.8 C2.5,0.8 2.9,1 3.2,1.3 C3.5,1.6 3.6,2.1 3.6,2.6 L3.6,6.3 C3.6,6.9 3.5,7.3 3.2,7.6 C2.9,7.9 2.5,8.1 1.9,8.1 L0.2,8.1 L0.2,0.8 L1.9,0.8 Z M1.9,7.4 C2.2,7.4 2.4,7.3 2.5,7.1 C2.6,6.9 2.7,6.7 2.7,6.3 L2.7,2.6 C2.7,2.3 2.6,2 2.5,1.8 C2.4,1.6 2.1,1.5 1.8,1.5 L1,1.5 L1,7.3 L1.9,7.3 L1.9,7.4 Z"/>
        <polygon points="6.9 4.1 6.9 4.8 5.1 4.8 5.1 7.4 7.3 7.4 7.3 8.1 4.3 8.1 4.3 .8 7.3 .8 7.3 1.5 5.1 1.5 5.1 4 6.9 4"/>
        <polygon points="8.1 8.1 8.1 .8 8.9 .8 8.9 7.3 11 7.3 11 8 8.1 8"/>
        <polygon points="14.2 4.1 14.2 4.8 12.4 4.8 12.4 7.4 14.6 7.4 14.6 8.1 11.6 8.1 11.6 .8 14.6 .8 14.6 1.5 12.4 1.5 12.4 4 14.2 4"/>
        <path d="M16.9.8C17.5.8 17.9 1 18.1 1.3 18.4 1.6 18.5 2.1 18.5 2.6L18.5 3.2 17.7 3.2 17.7 2.5C17.7 2.2 17.6 1.9 17.5 1.7 17.4 1.5 17.1 1.4 16.9 1.4 16.6 1.4 16.4 1.5 16.3 1.7 16.2 1.9 16.1 2.1 16.1 2.5L16.1 6.3C16.1 6.6 16.2 6.9 16.3 7.1 16.4 7.3 16.7 7.4 16.9 7.4 17.2 7.4 17.4 7.3 17.5 7.1 17.6 6.9 17.7 6.7 17.7 6.3L17.7 4.8 17 4.8 17 4.1 18.5 4.1 18.5 6.2C18.5 6.8 18.4 7.2 18.1 7.5 17.8 7.8 17.4 8 16.9 8 16.3 8 15.9 7.8 15.7 7.5 15.5 7.2 15.3 6.7 15.3 6.2L15.3 2.4C15.3 2.1 15.3 1.9 15.4 1.6 15.5 1.4 15.6 1.2 15.7 1 15.8.8 16 .7 16.2.6 16.4.5 16.6.8 16.9.8zM20.1 6.6L19.8 8.1 19.1 8.1 20.5.8 21.7.8 23.1 8.1 22.3 8.1 22 6.6 20.1 6.6zM20.2 5.9L21.8 5.9 21 1.7 20.2 5.9z"/>
        <polygon points="24.3 8.1 24.3 1.6 23 1.6 23 .9 26.5 .9 26.5 1.6 25.2 1.6 25.2 8.1"/>
        <polygon points="27.8 .8 27.8 8.1 27 8.1 27 .8"/>
        <path d="M28.6,2.6 C28.6,2 28.7,1.6 29,1.3 C29.3,1 29.7,0.8 30.3,0.8 C30.9,0.8 31.3,1 31.6,1.3 C31.9,1.6 32,2.1 32,2.6 L32,6.4 C32,7 31.9,7.4 31.6,7.7 C31.3,8 30.9,8.2 30.3,8.2 C29.7,8.2 29.3,8 29,7.7 C28.7,7.4 28.6,6.9 28.6,6.4 L28.6,2.6 Z M29.4,6.4 C29.4,6.7 29.5,7 29.6,7.2 C29.7,7.4 30,7.5 30.2,7.5 C30.5,7.5 30.7,7.4 30.9,7.2 C31,7 31.1,6.8 31.1,6.4 L31.1,2.6 C31.1,2.3 31,2 30.9,1.8 C30.8,1.6 30.5,1.5 30.2,1.5 C29.9,1.5 29.7,1.6 29.6,1.8 C29.5,2 29.4,2.2 29.4,2.6 L29.4,6.4 Z"/>
        <polygon points="33.4 8.1 32.7 8.1 32.7 .8 33.7 .8 35.4 6.1 35.4 .8 36.1 .8 36.1 8.1 35.3 8.1 33.4 2.2 33.4 8.1"/>
        <path d="M38.5,0.8 C39.1,0.8 39.5,1 39.7,1.3 C40,1.6 40.1,2.1 40.1,2.6 L40.1,2.8 L39.3,2.8 L39.3,2.6 C39.3,2.3 39.2,2 39.1,1.8 C39,1.6 38.8,1.5 38.5,1.5 C38.2,1.5 38,1.6 37.9,1.8 C37.8,2 37.7,2.2 37.7,2.6 C37.7,2.9 37.8,3.1 37.9,3.3 C38,3.5 38.2,3.7 38.4,3.9 C38.6,4.1 38.8,4.2 39,4.4 C39.2,4.6 39.4,4.7 39.6,4.9 C39.8,5.1 39.9,5.3 40.1,5.6 C40.3,5.9 40.3,6.1 40.3,6.5 C40.3,7.1 40.2,7.5 39.9,7.8 C39.6,8.1 39.2,8.3 38.7,8.3 C38.1,8.3 37.7,8.1 37.5,7.8 C37.2,7.5 37.1,7 37.1,6.5 L37.1,6.1 L37.9,6.1 L37.9,6.6 C37.9,6.9 38,7.2 38.1,7.4 C38.2,7.6 38.5,7.7 38.7,7.7 C39,7.7 39.2,7.6 39.3,7.4 C39.4,7.2 39.5,7 39.5,6.6 C39.5,6.3 39.4,6.1 39.3,5.9 C39.2,5.7 39,5.5 38.8,5.4 C38.6,5.2 38.4,5.1 38.2,4.9 C38,4.7 37.8,4.6 37.6,4.4 C37.4,4.2 37.3,4 37.1,3.7 C37,3.5 36.9,3.2 36.9,2.8 C36.9,2.2 37,1.8 37.3,1.5 C37.5,0.9 37.9,0.8 38.5,0.8 Z"/>
      </g>
      <g fill="#2A2A2A" transform="translate(120 20)">
        <path d="M0.8,1.9 C0.8,1.3 0.9,0.9 1.2,0.6 C1.5,0.3 1.9,0.1 2.5,0.1 C3.1,0.1 3.5,0.3 3.8,0.6 C4.1,0.9 4.2,1.4 4.2,1.9 L4.2,5.7 C4.2,6.3 4.1,6.7 3.8,7 C3.5,7.3 3.1,7.5 2.5,7.5 C1.9,7.5 1.5,7.3 1.2,7 C0.9,6.7 0.8,6.2 0.8,5.7 L0.8,1.9 Z M1.6,5.7 C1.6,6 1.7,6.3 1.8,6.5 C1.9,6.7 2.2,6.8 2.4,6.8 C2.7,6.8 2.9,6.7 3.1,6.5 C3.2,6.3 3.3,6.1 3.3,5.7 L3.3,1.9 C3.3,1.6 3.2,1.3 3.1,1.1 C3,0.9 2.7,0.8 2.4,0.8 C2.1,0.8 1.9,0.9 1.8,1.1 C1.7,1.3 1.6,1.5 1.6,1.9 L1.6,5.7 Z"/>
        <polygon points="7.4 3.5 7.4 4.2 5.7 4.2 5.7 7.3 4.9 7.3 4.9 0 7.8 0 7.8 .7 5.7 .7 5.7 3.3 7.4 3.3"/>
        <polygon points="10.9 3.5 10.9 4.2 9.2 4.2 9.2 7.3 8.4 7.3 8.4 0 11.3 0 11.3 .7 9.2 .7 9.2 3.3 10.9 3.3"/>
        <polygon points="12.8 .2 12.8 7.5 12 7.5 12 .2"/>
        <path d="M15.2,0.1 C15.8,0.1 16.2,0.3 16.4,0.6 C16.7,0.9 16.8,1.4 16.8,1.9 L16.8,2.6 L16,2.6 L16,1.9 C16,1.6 15.9,1.3 15.8,1.1 C15.7,0.9 15.4,0.8 15.2,0.8 C14.9,0.8 14.7,0.9 14.6,1.1 C14.5,1.3 14.4,1.5 14.4,1.9 L14.4,5.7 C14.4,6 14.5,6.3 14.6,6.5 C14.7,6.7 15,6.8 15.2,6.8 C15.5,6.8 15.7,6.7 15.8,6.5 C15.9,6.3 16,6.1 16,5.7 L16,4.8 L16.8,4.8 L16.8,5.7 C16.8,6.3 16.7,6.7 16.4,7 C16.1,7.3 15.7,7.5 15.2,7.5 C14.6,7.5 14.2,7.3 14,7 C13.8,6.7 13.6,6.2 13.6,5.7 L13.6,1.9 C13.6,1.6 13.6,1.4 13.7,1.1 C13.8,0.9 13.9,0.7 14,0.5 C14.1,0.3 14.3,0.2 14.5,0.1 C14.7,0 14.9,0.1 15.2,0.1 Z"/>
        <polygon points="18.4 .2 18.4 7.5 17.6 7.5 17.6 .2"/>
        <path d="M20,6 L19.7,7.5 L19,7.5 L20.4,0.2 L21.6,0.2 L23,7.5 L22.2,7.5 L21.9,6 L20,6 Z M20.1,5.3 L21.7,5.3 L20.9,1.1 L20.1,5.3 Z"/>
        <polygon points="23.6 7.4 23.6 .1 24.4 .1 24.4 6.6 26.5 6.6 26.5 7.3 23.6 7.3"/>
        <polygon points="29.3 .2 30.5 6.5 31.7 .2 32.4 .2 31 7.5 29.8 7.5 28.4 .2"/>
        <polygon points="33.8 .2 33.8 7.5 33 7.5 33 .2"/>
        <path d="M36.2,0.1 C36.8,0.1 37.2,0.3 37.4,0.6 C37.7,0.9 37.8,1.4 37.8,1.9 L37.8,2.1 L37,2.1 L37,1.9 C37,1.6 36.9,1.3 36.8,1.1 C36.7,0.9 36.5,0.8 36.2,0.8 C35.9,0.8 35.7,0.9 35.6,1.1 C35.5,1.3 35.4,1.5 35.4,1.9 C35.4,2.2 35.5,2.4 35.6,2.6 C35.7,2.8 35.9,3 36.1,3.2 C36.3,3.4 36.5,3.5 36.7,3.7 C36.9,3.9 37.1,4 37.3,4.2 C37.5,4.4 37.6,4.6 37.8,4.9 C38,5.2 38,5.4 38,5.8 C38,6.4 37.9,6.8 37.6,7.1 C37.3,7.4 36.9,7.6 36.4,7.6 C35.9,7.6 35.4,7.4 35.2,7.1 C34.9,6.8 34.8,6.3 34.8,5.8 L34.8,5.4 L35.6,5.4 L35.6,5.9 C35.6,6.2 35.7,6.5 35.8,6.7 C35.9,6.9 36.2,7 36.4,7 C36.7,7 36.9,6.9 37,6.7 C37.1,6.5 37.2,6.3 37.2,5.9 C37.2,5.6 37.1,5.4 37,5.2 C36.9,5 36.7,4.8 36.5,4.7 C36.3,4.5 36.1,4.4 35.9,4.2 C35.7,4 35.5,3.9 35.3,3.7 C35.1,3.5 35,3.3 34.8,3 C34.7,2.8 34.6,2.5 34.6,2.1 C34.6,1.5 34.7,1.1 35,0.8 C35.2,0.2 35.6,0.1 36.2,0.1 Z"/>
        <polygon points="39.3 .2 39.3 7.5 38.5 7.5 38.5 .2"/>
        <polygon points="41.2 7.4 41.2 .9 39.9 .9 39.9 .2 43.4 .2 43.4 .9 42 .9 42 7.4"/>
        <path d="M45.4,0.1 C46,0.1 46.4,0.3 46.6,0.6 C46.8,0.9 47,1.4 47,1.9 L47,2.1 L46.2,2.1 L46.2,1.9 C46.2,1.6 46.1,1.3 46,1.1 C45.9,0.9 45.7,0.8 45.4,0.8 C45.1,0.8 44.9,0.9 44.8,1.1 C44.7,1.3 44.6,1.5 44.6,1.9 C44.6,2.2 44.7,2.4 44.8,2.6 C44.9,2.8 45.1,3 45.3,3.2 C45.5,3.4 45.7,3.5 45.9,3.7 C46.1,3.9 46.3,4 46.5,4.2 C46.7,4.4 46.8,4.6 47,4.9 C47.2,5.2 47.2,5.4 47.2,5.8 C47.2,6.4 47.1,6.8 46.8,7.1 C46.5,7.4 46.1,7.6 45.6,7.6 C45,7.6 44.6,7.4 44.4,7.1 C44.1,6.8 44,6.3 44,5.8 L44,5.4 L44.8,5.4 L44.8,5.9 C44.8,6.2 44.9,6.5 45,6.7 C45.1,6.9 45.4,7 45.6,7 C45.8,7 46.1,6.9 46.2,6.7 C46.3,6.5 46.4,6.3 46.4,5.9 C46.4,5.6 46.3,5.4 46.2,5.2 C46.1,5 45.9,4.8 45.7,4.7 C45.5,4.5 45.3,4.4 45.1,4.2 C44.9,4 44.7,3.9 44.5,3.7 C44.3,3.5 44.2,3.3 44,3 C43.9,2.8 43.8,2.5 43.8,2.1 C43.8,1.5 43.9,1.1 44.2,0.8 C44.5,0.2 44.9,0.1 45.4,0.1 Z"/>
      </g>
      <path fill="#2A2A2A" d="M.2 4.3C.2 3 .5 2 1.1 1.4 1.7.8 2.6.4 3.8.4 5 .4 5.8.7 6.4 1.4 7 2.1 7.3 3 7.3 4.2L7.3 4.6 5.1 4.6 5.1 4C5.1 3.5 5 3.1 4.8 2.8 4.6 2.6 4.3 2.5 3.9 2.5 3.5 2.5 3.2 2.6 2.9 2.9 2.7 3.2 2.6 3.6 2.6 4.4L2.6 7.2C3 6.3 3.8 5.9 4.8 5.9 5.7 5.9 6.3 6.2 6.8 6.8 7.2 7.4 7.5 8.2 7.5 9.4L7.5 12.2C7.5 13.4 7.2 14.4 6.6 15 6 15.7 5.1 16 3.9 16 2.7 16 1.8 15.7 1.2 15 .6 14.3.3 13.4.3 12.2L.3 4.3.2 4.3zM3.8 8C3.4 8 3.1 8.1 2.9 8.3 2.7 8.5 2.6 8.9 2.6 9.5L2.6 12.2C2.6 12.7 2.7 13.1 2.9 13.3 3.1 13.5 3.4 13.6 3.8 13.6 4.2 13.6 4.5 13.5 4.7 13.3 4.9 13.1 5 12.7 5 12.2L5 9.5C5 9 4.9 8.6 4.7 8.3 4.4 8.1 4.1 8 3.8 8zM13.4 4.2C13.4 3.5 13.3 3.1 13.1 2.8 12.9 2.6 12.6 2.4 12.2 2.4 11.8 2.4 11.5 2.5 11.3 2.7 11.1 2.9 11 3.3 11 3.9L11 4.9 8.8 4.9 8.8 4.1C8.8 2.9 9.1 1.9 9.7 1.3 10.3.6 11.2.3 12.3.3 13.4.3 14.3.6 14.9 1.3 15.5 2 15.8 2.9 15.8 4.1L15.8 4.5C15.8 6.1 15.2 7.2 14.1 7.6 14.7 7.9 15.1 8.3 15.4 8.8 15.7 9.3 15.8 10 15.8 10.8L15.8 12C15.8 13.2 15.5 14.2 14.9 14.8 14.3 15.5 13.4 15.8 12.3 15.8 11.2 15.8 10.3 15.5 9.7 14.8 9.1 14.1 8.8 13.2 8.8 12L8.8 10.7 11 10.7 11 12.1C11 12.6 11.1 13 11.3 13.3 11.5 13.5 11.8 13.6 12.2 13.6 12.6 13.6 12.9 13.5 13.1 13.3 13.3 13.1 13.4 12.6 13.4 11.9L13.4 10.7C13.4 10 13.3 9.5 13 9.2 12.8 8.9 12.4 8.8 11.8 8.8L11 8.8 11 6.6 11.9 6.6C12.3 6.6 12.7 6.5 12.9 6.3 13.1 6.1 13.3 5.7 13.3 5L13.3 4.2 13.4 4.2zM22 4.2C22 3.5 21.9 3.1 21.7 2.8 21.5 2.6 21.2 2.4 20.8 2.4 20.4 2.4 20.1 2.5 19.9 2.7 19.7 2.9 19.6 3.3 19.6 3.9L19.6 4.9 17.4 4.9 17.4 4.1C17.4 2.9 17.7 1.9 18.3 1.3 18.9.6 19.8.3 20.9.3 22 .3 22.9.6 23.5 1.3 24.1 2 24.4 2.9 24.4 4.1L24.4 4.5C24.4 6.1 23.8 7.2 22.7 7.6 23.3 7.9 23.7 8.3 24 8.8 24.3 9.3 24.4 10 24.4 10.8L24.4 12C24.4 13.2 24.1 14.2 23.5 14.8 22.9 15.5 22 15.8 20.9 15.8 19.8 15.8 18.9 15.5 18.3 14.8 17.7 14.1 17.4 13.2 17.4 12L17.4 10.7 19.6 10.7 19.6 12.1C19.6 12.6 19.7 13 19.9 13.3 20.1 13.5 20.4 13.6 20.8 13.6 21.2 13.6 21.5 13.5 21.7 13.3 21.9 13.1 22 12.6 22 11.9L22 10.7C22 10 21.9 9.5 21.6 9.2 21.4 8.9 21 8.8 20.4 8.8L19.6 8.8 19.6 6.6 20.5 6.6C20.9 6.6 21.3 6.5 21.5 6.3 21.7 6.1 21.9 5.7 21.9 5L21.9 4.2 22 4.2zM34 4.2C34 3.5 33.9 3.1 33.7 2.8 33.5 2.6 33.2 2.4 32.8 2.4 32.4 2.4 32.1 2.5 31.9 2.7 31.7 2.9 31.6 3.3 31.6 3.9L31.6 5.5 29.4 5.5 29.4 4C29.4 2.8 29.7 1.8 30.3 1.2 30.9.6 31.8.2 32.9.2 34.1.2 34.9.5 35.5 1.2 36.1 1.9 36.4 2.8 36.4 4 36.4 4.8 36.3 5.5 36.1 6.1 35.9 6.7 35.6 7.3 35.2 7.8 34.8 8.3 34.5 8.8 34.1 9.3 33.7 9.7 33.3 10.2 33 10.6 32.6 11 32.4 11.4 32.1 11.8 31.8 12.2 31.8 12.6 31.8 13 31.8 13.1 31.8 13.3 31.8 13.3L36.3 13.3 36.3 15.5 29.4 15.5 29.4 13.6C29.4 12.9 29.5 12.2 29.7 11.7 29.9 11.2 30.2 10.6 30.6 10.2 31 9.7 31.3 9.3 31.7 8.9 32.1 8.5 32.5 8.1 32.8 7.6 33.2 7.1 33.4 6.6 33.7 6.1 33.9 5.6 34 5 34 4.2zM39.3 2.4C39.8 2.4 40.1 2.3 40.4 2.2 40.7 2.1 40.9 2 41.1 1.8 41.3 1.6 41.4 1.4 41.6 1.2 41.7 1 41.8.7 41.9.5L43.5.5 43.5 15.6 41.1 15.6 41.1 4.1 39.3 4.1 39.3 2.4 39.3 2.4zM51 4.2C51 3.5 50.9 3.1 50.7 2.8 50.5 2.6 50.2 2.4 49.8 2.4 49.4 2.4 49.1 2.5 48.9 2.7 48.7 2.9 48.6 3.3 48.6 3.9L48.6 4.9 46.4 4.9 46.4 4.1C46.4 2.9 46.7 1.9 47.3 1.3 47.9.6 48.8.3 49.9.3 51.1.3 51.9.6 52.5 1.3 53.1 2 53.4 2.9 53.4 4.1L53.4 4.5C53.4 6.1 52.8 7.2 51.7 7.6 52.3 7.9 52.7 8.3 53 8.8 53.3 9.3 53.4 10 53.4 10.8L53.4 12C53.4 13.2 53.1 14.2 52.5 14.8 51.9 15.5 51 15.8 49.9 15.8 48.7 15.8 47.9 15.5 47.3 14.8 46.7 14.1 46.4 13.2 46.4 12L46.4 10.7 48.6 10.7 48.6 12.1C48.6 12.6 48.7 13 48.9 13.3 49.1 13.5 49.4 13.6 49.8 13.6 50.2 13.6 50.5 13.5 50.7 13.3 50.9 13.1 51 12.6 51 11.9L51 10.7C51 10 50.9 9.5 50.6 9.2 50.4 8.9 50 8.8 49.4 8.8L48.6 8.8 48.6 6.6 49.5 6.6C49.9 6.6 50.3 6.5 50.5 6.3 50.7 6.1 50.9 5.7 50.9 5L50.9 4.2 51 4.2z" transform="translate(116 93)"/>
      <g fill="#2A2A2A" transform="translate(115 115)">
        <polygon points="4.2 12.9 6 .6 8.2 .6 5.9 15.7 2.4 15.7 .1 .6 2.5 .6"/>
        <polygon points="9.3 .5 11.7 .5 11.7 15.6 9.3 15.6"/>
        <path d="M13.1,4.2 C13.1,3 13.4,2 14,1.4 C14.6,0.7 15.5,0.4 16.6,0.4 C17.8,0.4 18.6,0.7 19.2,1.4 C19.8,2.1 20.1,3 20.1,4.2 L20.1,4.7 L17.9,4.7 L17.9,4 C17.9,3.5 17.8,3.1 17.6,2.8 C17.4,2.6 17.1,2.5 16.7,2.5 C16.3,2.5 16,2.6 15.8,2.8 C15.6,3 15.5,3.4 15.5,4 C15.5,4.5 15.6,5 15.8,5.4 C16,5.8 16.3,6.2 16.7,6.5 C17,6.9 17.4,7.2 17.8,7.6 C18.2,8 18.6,8.3 18.9,8.8 C19.2,9.2 19.5,9.7 19.8,10.2 C20,10.7 20.1,11.4 20.1,12.1 C20.1,13.3 19.8,14.3 19.2,14.9 C18.6,15.5 17.7,15.9 16.6,15.9 C15.5,15.9 14.6,15.6 14,14.9 C13.4,14.2 13.1,13.3 13.1,12.1 L13.1,11.2 L15.3,11.2 L15.3,12.3 C15.3,12.8 15.4,13.2 15.6,13.4 C15.8,13.6 16.1,13.7 16.5,13.7 C16.9,13.7 17.2,13.6 17.4,13.4 C17.6,13.2 17.7,12.8 17.7,12.3 C17.7,11.8 17.6,11.3 17.4,10.9 C17.2,10.5 16.9,10.1 16.5,9.8 C16.2,9.4 15.8,9.1 15.4,8.7 C15,8.3 14.6,8 14.3,7.5 C14,7.1 13.7,6.6 13.4,6.1 C13.3,5.5 13.1,4.9 13.1,4.2 Z"/>
        <polygon points="21.5 .5 23.9 .5 23.9 15.6 21.5 15.6"/>
        <polygon points="24.9 .5 32.2 .5 32.2 2.7 29.7 2.7 29.7 15.7 27.3 15.7 27.3 2.7 24.8 2.7 24.8 .5"/>
        <path d="M33.1 4.2C33.1 3 33.4 2 34 1.4 34.6.8 35.5.4 36.7.4 37.9.4 38.8.7 39.4 1.4 40 2.1 40.3 3 40.3 4.2L40.3 12.1C40.3 13.3 40 14.3 39.4 14.9 38.8 15.5 37.9 15.9 36.7 15.9 35.5 15.9 34.6 15.6 34 14.9 33.4 14.2 33.1 13.3 33.1 12.1L33.1 4.2zM35.5 12.2C35.5 12.7 35.6 13.1 35.8 13.4 36 13.6 36.3 13.7 36.7 13.7 37.1 13.7 37.4 13.6 37.6 13.4 37.8 13.2 37.9 12.8 37.9 12.2L37.9 4C37.9 3.5 37.8 3.1 37.6 2.8 37.4 2.6 37.1 2.5 36.7 2.5 36.3 2.5 36 2.6 35.8 2.8 35.6 3 35.5 3.4 35.5 4L35.5 12.2zM46.8 15.7C46.8 15.6 46.7 15.5 46.7 15.4 46.7 15.3 46.6 15.2 46.6 15.1 46.6 15 46.6 14.8 46.6 14.6 46.6 14.4 46.6 14.1 46.6 13.8L46.6 11.4C46.6 10.7 46.5 10.2 46.2 9.9 46 9.6 45.6 9.5 45 9.5L44.2 9.5 44.2 15.7 41.8 15.7 41.8.6 45.4.6C46.6.6 47.5.9 48.1 1.5 48.7 2.1 48.9 2.9 48.9 4.1L48.9 5.3C48.9 6.9 48.4 7.9 47.3 8.4 47.9 8.6 48.3 9 48.5 9.6 48.7 10.2 48.8 10.8 48.8 11.6L48.8 13.9C48.8 14.3 48.8 14.6 48.8 14.9 48.8 15.2 48.9 15.5 49 15.8L46.8 15.8 46.8 15.7zM44.2 2.7L44.2 7.3 45.1 7.3C45.5 7.3 45.9 7.2 46.1 7 46.3 6.8 46.5 6.4 46.5 5.7L46.5 4.2C46.5 3.7 46.4 3.3 46.2 3 46 2.8 45.7 2.6 45.3 2.6L44.2 2.6 44.2 2.7zM50.2 4.2C50.2 3 50.5 2 51.1 1.4 51.7.8 52.6.4 53.7.4 54.9.4 55.7.7 56.3 1.4 56.9 2.1 57.2 3 57.2 4.2L57.2 4.7 55 4.7 55 4C55 3.5 54.9 3.1 54.7 2.8 54.5 2.6 54.2 2.5 53.8 2.5 53.4 2.5 53.1 2.6 52.9 2.8 52.7 3 52.6 3.4 52.6 4 52.6 4.5 52.7 5 52.9 5.4 53.1 5.8 53.4 6.2 53.8 6.5 54.2 6.8 54.5 7.2 54.9 7.6 55.3 8 55.7 8.3 56 8.8 56.3 9.2 56.6 9.7 56.9 10.2 57.1 10.7 57.2 11.4 57.2 12.1 57.2 13.3 56.9 14.3 56.3 14.9 55.7 15.5 54.8 15.9 53.7 15.9 52.5 15.9 51.7 15.6 51.1 14.9 50.5 14.2 50.2 13.3 50.2 12.1L50.2 11.2 52.4 11.2 52.4 12.3C52.4 12.8 52.5 13.2 52.7 13.4 52.9 13.6 53.2 13.7 53.6 13.7 54 13.7 54.3 13.6 54.5 13.4 54.7 13.2 54.8 12.8 54.8 12.3 54.8 11.8 54.7 11.3 54.5 10.9 54.3 10.5 54 10.1 53.6 9.8 53.3 9.4 52.9 9.1 52.5 8.7 52.1 8.3 51.7 8 51.4 7.5 51.1 7.1 50.8 6.6 50.5 6.1 50.4 5.5 50.2 4.9 50.2 4.2z"/>
      </g>
    </g>
  </g>
</svg>
