<?xml version="1.0" encoding="UTF-8"?>
<svg width="300px" height="280px" viewBox="0 0 300 280" version="1.1" xmlns="http://www.w3.org/2000/svg" xmlns:xlink="http://www.w3.org/1999/xlink">
    <!-- Generator: Sketch 47.1 (45422) - http://www.bohemiancoding.com/sketch -->
    <title>Group 2</title>
    <desc>Created with Sketch.</desc>
    <defs>
        <rect id="path-1" x="0" y="0" width="320" height="284"></rect>
        <circle id="path-3" cx="164" cy="150" r="67"></circle>
        <filter x="-12.7%" y="-11.9%" width="125.4%" height="125.4%" filterUnits="objectBoundingBox" id="filter-4">
            <feOffset dx="0" dy="1" in="SourceAlpha" result="shadowOffsetOuter1"></feOffset>
            <feGaussianBlur stdDeviation="5.5" in="shadowOffsetOuter1" result="shadowBlurOuter1"></feGaussianBlur>
            <feColorMatrix values="0 0 0 0 0   0 0 0 0 0   0 0 0 0 0  0 0 0 0.497027853 0" type="matrix" in="shadowBlurOuter1"></feColorMatrix>
        </filter>
    </defs>
    <g id="Mobile" stroke="none" stroke-width="1" fill="none" fill-rule="evenodd">
        <g id="Mobile---Espace-exposants" transform="translate(-10.000000, -856.000000)">
            <g id="Group-2" transform="translate(0.000000, 854.000000)">
                <mask id="mask-2" fill="white">
                    <use xlink:href="#path-1"></use>
                </mask>
                <g id="Mask"></g>
                <g mask="url(#mask-2)">
                    <g transform="translate(4.000000, -5.000000)">
                        <g id="Oval-8" fill="none" fill-opacity="1">
                            <use fill="black" filter="url(#filter-4)" xlink:href="#path-3"></use>
                        </g>
                        <circle id="Oval-8" fill="#FFFFFF" fill-rule="evenodd" cx="162" cy="147" r="78"></circle>
                        <g id="Group-42" stroke-width="1" fill="none" fill-rule="evenodd" transform="translate(73.000000, 0.000000)">
                            <path d="M76.9085045,20.7173806 L76.9085045,22.3297342 C76.9085045,25.4432447 78.4652598,27.2223936 81.4675735,27.2223936 C84.4698872,27.2223936 86.0266424,25.4432447 86.0266424,22.3297342 L86.0266424,17.9930589 C86.0266424,15.1297412 84.8868752,13.5451867 82.6351399,13.5451867 C81.4119751,13.5451867 80.5224006,14.0455723 79.9664166,14.962946 L80.2166094,10.3204794 L85.5262568,10.3204794 L85.5262568,7.54055932 L77.4644885,7.54055932 L76.9085045,18.8270349 L79.7996214,18.8270349 L79.7996214,18.2432517 C79.7996214,16.8532916 80.4112038,16.3251068 81.3841759,16.3251068 C82.3571479,16.3251068 82.9687303,16.8532916 82.9687303,18.2432517 L82.9687303,22.5243286 C82.9687303,23.9142887 82.3571479,24.4146743 81.3841759,24.4146743 C80.4112038,24.4146743 79.7996214,23.9142887 79.7996214,22.5243286 L79.7996214,20.7173806 L76.9085045,20.7173806 Z M88.472972,20.7173806 L88.472972,22.3297342 C88.472972,25.4432447 90.0297273,27.2223936 93.032041,27.2223936 C96.0343547,27.2223936 97.59111,25.4432447 97.59111,22.3297342 L97.59111,17.9930589 C97.59111,15.1297412 96.4513427,13.5451867 94.1996074,13.5451867 C92.9764426,13.5451867 92.0868682,14.0455723 91.5308841,14.962946 L91.7810769,10.3204794 L97.0907243,10.3204794 L97.0907243,7.54055932 L89.0289561,7.54055932 L88.472972,18.8270349 L91.3640889,18.8270349 L91.3640889,18.2432517 C91.3640889,16.8532916 91.9756714,16.3251068 92.9486434,16.3251068 C93.9216154,16.3251068 94.5331978,16.8532916 94.5331978,18.2432517 L94.5331978,22.5243286 C94.5331978,23.9142887 93.9216154,24.4146743 92.9486434,24.4146743 C91.9756714,24.4146743 91.3640889,23.9142887 91.3640889,22.5243286 L91.3640889,20.7173806 L88.472972,20.7173806 Z" id="55" fill="#E74892"></path>
                            <path d="M48.0717932,33.0187197 L49.7654061,42 L51.2409021,42 L52.9216846,33.0187197 L51.9978957,33.0187197 L50.5480605,40.8324336 L49.0853948,33.0187197 L48.0717932,33.0187197 Z M53.9481167,33.0187197 L53.9481167,42 L54.9488879,42 L54.9488879,33.0187197 L53.9481167,33.0187197 Z M58.1179969,32.9289069 C56.7708048,32.9289069 56.1292848,33.7885437 56.1292848,35.174227 C56.1292848,37.7018158 59.1315985,37.8942719 59.1315985,39.8958143 C59.1315985,40.7041296 58.7980081,41.1788544 58.0795057,41.1788544 C57.3610032,41.1788544 57.0274128,40.7041296 57.0274128,39.8958143 L57.0274128,39.3312767 L56.0907936,39.3312767 L56.0907936,39.8444927 C56.0907936,41.2045152 56.7323136,42.0898128 58.1051665,42.0898128 C59.4780193,42.0898128 60.1323697,41.2045152 60.1323697,39.8444927 C60.1323697,37.3169038 57.1172256,37.1244478 57.1172256,35.110075 C57.1172256,34.3145901 57.4251553,33.8398653 58.1436577,33.8398653 C58.8621601,33.8398653 59.1700897,34.3145901 59.1700897,35.1229054 L59.1700897,35.4180046 L60.1195393,35.4180046 L60.1195393,35.174227 C60.1195393,33.8142045 59.4780193,32.9289069 58.1179969,32.9289069 Z M61.261445,33.0187197 L61.261445,42 L62.2622163,42 L62.2622163,33.0187197 L61.261445,33.0187197 Z M65.8290677,42 L65.8290677,33.9296781 L67.4841893,33.9296781 L67.4841893,33.0187197 L63.1860052,33.0187197 L63.1860052,33.9296781 L64.8411268,33.9296781 L64.8411268,42 L65.8290677,42 Z M69.4215799,36.9961438 L69.4215799,33.9296781 L72.115964,33.9296781 L72.115964,33.0187197 L68.4208086,33.0187197 L68.4208086,42 L72.115964,42 L72.115964,41.0890416 L69.4215799,41.0890416 L69.4215799,37.8942719 L71.6155783,37.8942719 L71.6155783,36.9961438 L69.4215799,36.9961438 Z M75.1824297,32.9289069 C73.8352377,32.9289069 73.1937177,33.7885437 73.1937177,35.174227 C73.1937177,37.7018158 76.1960314,37.8942719 76.1960314,39.8958143 C76.1960314,40.7041296 75.862441,41.1788544 75.1439385,41.1788544 C74.4254361,41.1788544 74.0918457,40.7041296 74.0918457,39.8958143 L74.0918457,39.3312767 L73.1552265,39.3312767 L73.1552265,39.8444927 C73.1552265,41.2045152 73.7967465,42.0898128 75.1695993,42.0898128 C76.5424522,42.0898128 77.1968026,41.2045152 77.1968026,39.8444927 C77.1968026,37.3169038 74.1816585,37.1244478 74.1816585,35.110075 C74.1816585,34.3145901 74.4895881,33.8398653 75.2080905,33.8398653 C75.926593,33.8398653 76.2345226,34.3145901 76.2345226,35.1229054 L76.2345226,35.4180046 L77.1839722,35.4180046 L77.1839722,35.174227 C77.1839722,33.8142045 76.5424522,32.9289069 75.1824297,32.9289069 Z M80.4942156,39.8316623 L80.4942156,35.1870574 C80.4942156,33.8142045 81.1742269,32.9289069 82.5470797,32.9289069 C83.932763,32.9289069 84.6127742,33.8142045 84.6127742,35.1870574 L84.6127742,39.8316623 C84.6127742,41.1916848 83.932763,42.0898128 82.5470797,42.0898128 C81.1742269,42.0898128 80.4942156,41.1916848 80.4942156,39.8316623 Z M81.4821565,35.1357358 L81.4821565,39.8829839 C81.4821565,40.7041296 81.8285773,41.1788544 82.5470797,41.1788544 C83.2784125,41.1788544 83.612003,40.7041296 83.612003,39.8829839 L83.612003,35.1357358 C83.612003,34.3274205 83.2784125,33.8398653 82.5470797,33.8398653 C81.8285773,33.8398653 81.4821565,34.3274205 81.4821565,35.1357358 Z M86.8196031,37.2014302 L86.8196031,33.9296781 L89.3856832,33.9296781 L89.3856832,33.0187197 L85.8188319,33.0187197 L85.8188319,42 L86.8196031,42 L86.8196031,38.1123887 L88.8852976,38.1123887 L88.8852976,37.2014302 L86.8196031,37.2014302 Z M91.4385474,37.2014302 L91.4385474,33.9296781 L94.0046274,33.9296781 L94.0046274,33.0187197 L90.4377761,33.0187197 L90.4377761,42 L91.4385474,42 L91.4385474,38.1123887 L93.5042418,38.1123887 L93.5042418,37.2014302 L91.4385474,37.2014302 Z M95.0567203,33.0187197 L95.0567203,42 L96.0574916,42 L96.0574916,33.0187197 L95.0567203,33.0187197 Z M99.2779222,32.9289069 C97.9050693,32.9289069 97.2635493,33.8270349 97.2635493,35.1870574 L97.2635493,39.8316623 C97.2635493,41.1916848 97.9050693,42.0898128 99.2779222,42.0898128 C100.663605,42.0898128 101.305125,41.1916848 101.305125,39.8316623 L101.305125,38.7154175 L100.355676,38.7154175 L100.355676,39.8829839 C100.355676,40.6912992 100.034916,41.1788544 99.303583,41.1788544 C98.5850805,41.1788544 98.2514901,40.6912992 98.2514901,39.8829839 L98.2514901,35.1357358 C98.2514901,34.3274205 98.5850805,33.8398653 99.303583,33.8398653 C100.034916,33.8398653 100.355676,34.3274205 100.355676,35.1357358 L100.355676,35.9953726 L101.305125,35.9953726 L101.305125,35.1870574 C101.305125,33.8270349 100.663605,32.9289069 99.2779222,32.9289069 Z M102.472692,33.0187197 L102.472692,42 L103.473463,42 L103.473463,33.0187197 L102.472692,33.0187197 Z M105.757275,36.9961438 L105.757275,33.9296781 L108.451659,33.9296781 L108.451659,33.0187197 L104.756503,33.0187197 L104.756503,42 L108.451659,42 L108.451659,41.0890416 L105.757275,41.0890416 L105.757275,37.8942719 L107.951273,37.8942719 L107.951273,36.9961438 L105.757275,36.9961438 Z M113.198907,42 L113.198907,41.0890416 L110.632827,41.0890416 L110.632827,33.0187197 L109.632056,33.0187197 L109.632056,42 L113.198907,42 Z M117.77936,42 L117.77936,41.0890416 L115.21328,41.0890416 L115.21328,33.0187197 L114.212509,33.0187197 L114.212509,42 L117.77936,42 Z M119.793733,36.9961438 L119.793733,33.9296781 L122.488117,33.9296781 L122.488117,33.0187197 L118.792962,33.0187197 L118.792962,42 L122.488117,42 L122.488117,41.0890416 L119.793733,41.0890416 L119.793733,37.8942719 L121.987731,37.8942719 L121.987731,36.9961438 L119.793733,36.9961438 Z M125.554583,32.9289069 C124.207391,32.9289069 123.565871,33.7885437 123.565871,35.174227 C123.565871,37.7018158 126.568184,37.8942719 126.568184,39.8958143 C126.568184,40.7041296 126.234594,41.1788544 125.516091,41.1788544 C124.797589,41.1788544 124.463999,40.7041296 124.463999,39.8958143 L124.463999,39.3312767 L123.527379,39.3312767 L123.527379,39.8444927 C123.527379,41.2045152 124.168899,42.0898128 125.541752,42.0898128 C126.914605,42.0898128 127.568956,41.2045152 127.568956,39.8444927 C127.568956,37.3169038 124.553811,37.1244478 124.553811,35.110075 C124.553811,34.3145901 124.861741,33.8398653 125.580243,33.8398653 C126.298746,33.8398653 126.606675,34.3145901 126.606675,35.1229054 L126.606675,35.4180046 L127.556125,35.4180046 L127.556125,35.174227 C127.556125,33.8142045 126.914605,32.9289069 125.554583,32.9289069 Z" id="visites-officielles" fill="#2A2A2A"></path>
                            <path d="M49.6768215,107.463794 L49.6768215,106.251165 C51.0131879,106.251165 51.3101582,105.607729 51.6071285,104.865303 L52.7455147,104.865303 L52.7455147,115.853205 L51.0131879,115.853205 L51.0131879,107.463794 L49.6768215,107.463794 Z M51.2854107,122.188571 L58.1157277,104.865303 L59.7243168,104.865303 L52.8939998,122.188571 L51.2854107,122.188571 Z M61.1101783,113.848655 C61.1101783,112.883502 60.7637129,112.611279 60.2192674,112.611279 C59.6748218,112.611279 59.3283564,112.908249 59.3283564,113.70017 L59.3283564,114.863304 L57.6950198,114.863304 L57.6950198,113.79916 C57.6950198,112.042086 58.5611831,111.052185 60.2687624,111.052185 C61.9763417,111.052185 62.842505,112.042086 62.842505,113.79916 C62.842505,117.412299 59.0808812,118.69917 59.4273465,120.629477 L62.6940199,120.629477 L62.6940199,122.188571 L57.6950198,122.188571 L57.6950198,120.852205 C57.6950198,117.635026 61.1101783,117.041086 61.1101783,113.848655 Z M72.966203,104.865303 L69.1798316,104.865303 L69.1798316,122.188571 L71.555594,122.188571 L71.555594,109.938546 L73.5848911,122.188571 L76.1586338,122.188571 L78.0394457,109.765313 L78.0394457,122.188571 L80.6131883,122.188571 L80.6131883,104.865303 L76.8268169,104.865303 L74.9707525,117.164824 L72.966203,104.865303 Z M82.9899308,122.188571 L85.7121586,122.188571 L85.7121586,104.865303 L82.9899308,104.865303 L82.9899308,122.188571 Z M88.088901,122.188571 L95.2904309,122.188571 L95.2904309,119.713819 L90.8111288,119.713819 L90.8111288,104.865303 L88.088901,104.865303 L88.088901,122.188571 Z M96.8752526,122.188571 L104.076782,122.188571 L104.076782,119.713819 L99.5974804,119.713819 L99.5974804,104.865303 L96.8752526,104.865303 L96.8752526,122.188571 Z M105.661604,122.188571 L108.383832,122.188571 L108.383832,104.865303 L105.661604,104.865303 L105.661604,122.188571 Z M113.260074,108.849655 L113.260074,118.20422 C113.260074,119.441596 113.80452,119.911799 114.670683,119.911799 C115.536847,119.911799 116.081292,119.441596 116.081292,118.20422 L116.081292,108.849655 C116.081292,107.612279 115.536847,107.142076 114.670683,107.142076 C113.80452,107.142076 113.260074,107.612279 113.260074,108.849655 Z M110.537847,118.030987 L110.537847,109.022888 C110.537847,106.251165 111.997951,104.667323 114.670683,104.667323 C117.343416,104.667323 118.80352,106.251165 118.80352,109.022888 L118.80352,118.030987 C118.80352,120.80271 117.343416,122.386551 114.670683,122.386551 C111.997951,122.386551 110.537847,120.80271 110.537847,118.030987 Z M126.773203,122.188571 L129.569674,122.188571 L129.569674,104.865303 L127.144416,104.865303 L127.144416,115.234517 L124.347946,104.865303 L120.932787,104.865303 L120.932787,122.188571 L123.382792,122.188571 L123.382792,109.641576 L126.773203,122.188571 Z M38.7988141,147.377142 L38.7988141,130.053875 L43.1048835,130.053875 C45.8271113,130.053875 47.1634777,131.563474 47.1634777,134.335196 L47.1634777,143.09582 C47.1634777,145.867543 45.8271113,147.377142 43.1048835,147.377142 L38.7988141,147.377142 Z M43.0553884,132.528627 L41.5210419,132.528627 L41.5210419,144.90239 L43.0553884,144.90239 C43.9215518,144.90239 44.4412499,144.456934 44.4412499,143.219558 L44.4412499,134.211459 C44.4412499,132.974083 43.9215518,132.528627 43.0553884,132.528627 Z M52.0149727,132.528627 L56.7170025,132.528627 L56.7170025,130.053875 L49.2927449,130.053875 L49.2927449,147.377142 L56.7170025,147.377142 L56.7170025,144.90239 L52.0149727,144.90239 L52.0149727,139.829147 L55.751849,139.829147 L55.751849,137.354395 L52.0149727,137.354395 L52.0149727,132.528627 Z M65.0588786,130.053875 L62.3119033,130.053875 L64.984636,147.377142 L69.0432302,147.377142 L71.7159629,130.053875 L69.2164629,130.053875 L67.1376707,144.184712 L65.0588786,130.053875 Z M73.3750272,147.377142 L76.097255,147.377142 L76.097255,130.053875 L73.3750272,130.053875 L73.3750272,147.377142 Z M78.1275321,134.211459 C78.1275321,139.160964 83.44825,139.829147 83.44825,143.392791 C83.44825,144.630167 82.9038045,145.075622 82.0376411,145.075622 C81.1714777,145.075622 80.6270321,144.630167 80.6270321,143.392791 L80.6270321,142.155414 L78.0532895,142.155414 L78.0532895,143.219558 C78.0532895,145.991281 79.4391509,147.575123 82.1118836,147.575123 C84.7846164,147.575123 86.1704778,145.991281 86.1704778,143.219558 C86.1704778,138.270053 80.8497598,137.60187 80.8497598,134.038226 C80.8497598,132.80085 81.3447104,132.330647 82.2108737,132.330647 C83.0770371,132.330647 83.5719876,132.80085 83.5719876,134.038226 L83.5719876,134.755904 L86.1457303,134.755904 L86.1457303,134.211459 C86.1457303,131.439736 84.7846164,129.855894 82.1366312,129.855894 C79.488646,129.855894 78.1275321,131.439736 78.1275321,134.211459 Z M88.1265123,147.377142 L90.8487401,147.377142 L90.8487401,130.053875 L88.1265123,130.053875 L88.1265123,147.377142 Z M92.4335618,132.528627 L95.2795272,132.528627 L95.2795272,147.377142 L98.001755,147.377142 L98.001755,132.528627 L100.84772,132.528627 L100.84772,130.053875 L92.4335618,130.053875 L92.4335618,132.528627 Z M105.15477,132.528627 L109.8568,132.528627 L109.8568,130.053875 L102.432542,130.053875 L102.432542,147.377142 L109.8568,147.377142 L109.8568,144.90239 L105.15477,144.90239 L105.15477,139.829147 L108.891646,139.829147 L108.891646,137.354395 L105.15477,137.354395 L105.15477,132.528627 Z M111.812834,130.053875 L111.812834,143.244306 C111.812834,146.016028 113.198696,147.59987 115.871428,147.59987 C118.544161,147.59987 119.930023,146.016028 119.930023,143.244306 L119.930023,130.053875 L117.35628,130.053875 L117.35628,143.417538 C117.35628,144.654915 116.811834,145.10037 115.945671,145.10037 C115.079508,145.10037 114.535062,144.654915 114.535062,143.417538 L114.535062,130.053875 L111.812834,130.053875 Z M130.646681,147.377142 L127.874958,147.377142 C127.726473,146.931687 127.627483,146.659464 127.627483,145.248855 L127.627483,142.526627 C127.627483,140.918038 127.083037,140.324098 125.845661,140.324098 L124.905255,140.324098 L124.905255,147.377142 L122.183027,147.377142 L122.183027,130.053875 L126.291117,130.053875 C129.112335,130.053875 130.324963,131.365493 130.324963,134.038226 L130.324963,135.39934 C130.324963,137.181162 129.75577,138.344296 128.543141,138.913489 C129.904255,139.482682 130.349711,140.794301 130.349711,142.60087 L130.349711,145.273603 C130.349711,146.115019 130.374458,146.733707 130.646681,147.377142 Z M126.216874,132.528627 L124.905255,132.528627 L124.905255,137.849345 L125.969399,137.849345 C126.984047,137.849345 127.602735,137.40389 127.602735,136.018028 L127.602735,134.310449 C127.602735,133.073073 127.182028,132.528627 126.216874,132.528627 Z M132.182008,134.211459 C132.182008,139.160964 137.502726,139.829147 137.502726,143.392791 C137.502726,144.630167 136.95828,145.075622 136.092117,145.075622 C135.225953,145.075622 134.681508,144.630167 134.681508,143.392791 L134.681508,142.155414 L132.107765,142.155414 L132.107765,143.219558 C132.107765,145.991281 133.493627,147.575123 136.166359,147.575123 C138.839092,147.575123 140.224953,145.991281 140.224953,143.219558 C140.224953,138.270053 134.904235,137.60187 134.904235,134.038226 C134.904235,132.80085 135.399186,132.330647 136.265349,132.330647 C137.131513,132.330647 137.626463,132.80085 137.626463,134.038226 L137.626463,134.755904 L140.200206,134.755904 L140.200206,134.211459 C140.200206,131.439736 138.839092,129.855894 136.191107,129.855894 C133.543122,129.855894 132.182008,131.439736 132.182008,134.211459 Z M24.83663,165.724396 L24.83663,162.351284 L27.8004523,162.351284 L27.8004523,161.349229 L23.7357816,161.349229 L23.7357816,171.228637 L27.8004523,171.228637 L27.8004523,170.226583 L24.83663,170.226583 L24.83663,166.712337 L27.2500282,166.712337 L27.2500282,165.724396 L24.83663,165.724396 Z M31.7257527,171.228637 L31.7257527,162.351284 L33.5463865,162.351284 L33.5463865,161.349229 L28.8183841,161.349229 L28.8183841,162.351284 L30.6390179,162.351284 L30.6390179,171.228637 L31.7257527,171.228637 Z M37.2758628,161.349229 L39.4352191,161.349229 C40.9876975,161.349229 41.6510292,162.266603 41.6510292,163.762628 L41.6510292,164.948157 C41.6510292,166.514748 40.9171303,167.333328 39.3505385,167.333328 L38.3767111,167.333328 L38.3767111,171.228637 L37.2758628,171.228637 L37.2758628,161.349229 Z M38.3767111,166.345387 L39.3505385,166.345387 C40.169118,166.345387 40.5642943,165.964324 40.5642943,165.018724 L40.5642943,163.706174 C40.5642943,162.802914 40.2396852,162.351284 39.4352191,162.351284 L38.3767111,162.351284 L38.3767111,166.345387 Z M46.8324257,171.228637 L46.8324257,170.226583 L44.0097377,170.226583 L44.0097377,161.349229 L42.9088894,161.349229 L42.9088894,171.228637 L46.8324257,171.228637 Z M49.1064536,161.349229 L48.0197188,161.349229 L48.0197188,168.843466 C48.0197188,170.339491 48.7112773,171.341545 50.2214154,171.341545 C51.7456669,171.341545 52.4372254,170.339491 52.4372254,168.843466 L52.4372254,161.349229 L51.4069443,161.349229 L51.4069443,168.89992 C51.4069443,169.789066 51.0541083,170.325377 50.2637557,170.325377 C49.4592896,170.325377 49.1064536,169.789066 49.1064536,168.89992 L49.1064536,161.349229 Z M55.9955764,161.250435 C54.5136652,161.250435 53.8079932,162.196036 53.8079932,163.720287 C53.8079932,166.500635 57.1105381,166.712337 57.1105381,168.914033 C57.1105381,169.80318 56.7435887,170.325377 55.9532361,170.325377 C55.1628834,170.325377 54.795934,169.80318 54.795934,168.914033 L54.795934,168.293042 L53.7656529,168.293042 L53.7656529,168.857579 C53.7656529,170.353604 54.4713249,171.327431 55.9814629,171.327431 C57.491601,171.327431 58.2113864,170.353604 58.2113864,168.857579 C58.2113864,166.077232 54.8947281,165.86553 54.8947281,163.64972 C54.8947281,162.774687 55.2334506,162.25249 56.0238033,162.25249 C56.8141559,162.25249 57.1528785,162.774687 57.1528785,163.663834 L57.1528785,163.988443 L58.197273,163.988443 L58.197273,163.720287 C58.197273,162.224263 57.491601,161.250435 55.9955764,161.250435 Z M62.1525644,161.349229 L64.4671685,161.349229 C66.0055335,161.349229 66.7112055,162.280716 66.7112055,163.804968 L66.7112055,168.787012 C66.7112055,170.29715 66.0055335,171.228637 64.4671685,171.228637 L62.1525644,171.228637 L62.1525644,161.349229 Z M63.2534127,170.226583 L64.4530551,170.226583 C65.2434077,170.226583 65.6244706,169.732613 65.6244706,168.829353 L65.6244706,163.748514 C65.6244706,162.845254 65.2434077,162.351284 64.4389416,162.351284 L63.2534127,162.351284 L63.2534127,170.226583 Z M69.2392753,165.724396 L69.2392753,162.351284 L72.2030977,162.351284 L72.2030977,161.349229 L68.138427,161.349229 L68.138427,171.228637 L72.2030977,171.228637 L72.2030977,170.226583 L69.2392753,170.226583 L69.2392753,166.712337 L71.6526735,166.712337 L71.6526735,165.724396 L69.2392753,165.724396 Z M78.3600857,161.250435 C76.8499476,161.250435 76.1442756,162.224263 76.1442756,163.734401 L76.1442756,164.186031 L77.1745567,164.186031 L77.1745567,163.677947 C77.1745567,162.7888 77.5415062,162.238376 78.3318588,162.238376 C79.1363249,162.238376 79.4891609,162.760573 79.4891609,163.776741 L79.4891609,164.228371 C79.4891609,165.089291 79.0375308,165.555034 78.3036319,165.583261 L77.6544137,165.583261 L77.6544137,166.571202 L78.2471782,166.571202 C79.0798711,166.599429 79.4891609,167.065173 79.4891609,168.039 L79.4891609,168.801126 C79.4891609,169.80318 79.1363249,170.325377 78.3318588,170.325377 C77.5415062,170.325377 77.1745567,169.789066 77.1745567,168.89992 L77.1745567,168.151907 L76.1442756,168.151907 L76.1442756,168.829353 C76.1442756,170.339491 76.8499476,171.327431 78.3600857,171.327431 C79.8843372,171.327431 80.5900092,170.339491 80.5900092,168.829353 L80.5900092,168.067227 C80.5900092,167.079286 80.2230597,166.331274 79.3903668,166.020778 C80.1807194,165.724396 80.5900092,165.00461 80.5900092,163.988443 L80.5900092,163.734401 C80.5900092,162.224263 79.8843372,161.250435 78.3600857,161.250435 Z M81.9748904,168.829353 L81.9748904,163.734401 C81.9748904,162.224263 82.7229027,161.250435 84.2330408,161.250435 C85.7572923,161.250435 86.5053046,162.224263 86.5053046,163.734401 L86.5053046,168.829353 C86.5053046,170.339491 85.7572923,171.327431 84.2330408,171.327431 C82.7229027,171.327431 81.9748904,170.339491 81.9748904,168.829353 Z M83.0616253,163.677947 L83.0616253,168.89992 C83.0616253,169.789066 83.4426881,170.325377 84.2330408,170.325377 C85.0375068,170.325377 85.4044563,169.789066 85.4044563,168.89992 L85.4044563,163.677947 C85.4044563,162.774687 85.0375068,162.238376 84.2330408,162.238376 C83.4426881,162.238376 83.0616253,162.774687 83.0616253,163.677947 Z M90.4464825,168.829353 L90.4464825,163.734401 C90.4464825,162.224263 91.1944948,161.250435 92.7046329,161.250435 C94.2288844,161.250435 94.9768967,162.224263 94.9768967,163.734401 L94.9768967,168.829353 C94.9768967,170.339491 94.2288844,171.327431 92.7046329,171.327431 C91.1944948,171.327431 90.4464825,170.339491 90.4464825,168.829353 Z M91.5332174,163.677947 L91.5332174,168.89992 C91.5332174,169.789066 91.9142803,170.325377 92.7046329,170.325377 C93.509099,170.325377 93.8760484,169.789066 93.8760484,168.89992 L93.8760484,163.677947 C93.8760484,162.774687 93.509099,162.238376 92.7046329,162.238376 C91.9142803,162.238376 91.5332174,162.774687 91.5332174,163.677947 Z M96.3335511,168.829353 L96.3335511,163.734401 C96.3335511,162.224263 97.0815634,161.250435 98.5917014,161.250435 C100.115953,161.250435 100.863965,162.224263 100.863965,163.734401 L100.863965,168.829353 C100.863965,170.339491 100.115953,171.327431 98.5917014,171.327431 C97.0815634,171.327431 96.3335511,170.339491 96.3335511,168.829353 Z M97.4202859,163.677947 L97.4202859,168.89992 C97.4202859,169.789066 97.8013488,170.325377 98.5917014,170.325377 C99.3961675,170.325377 99.7631169,169.789066 99.7631169,168.89992 L99.7631169,163.677947 C99.7631169,162.774687 99.3961675,162.238376 98.5917014,162.238376 C97.8013488,162.238376 97.4202859,162.774687 97.4202859,163.677947 Z M102.22062,168.829353 L102.22062,163.734401 C102.22062,162.224263 102.968632,161.250435 104.47877,161.250435 C106.003021,161.250435 106.751034,162.224263 106.751034,163.734401 L106.751034,168.829353 C106.751034,170.339491 106.003021,171.327431 104.47877,171.327431 C102.968632,171.327431 102.22062,170.339491 102.22062,168.829353 Z M103.307354,163.677947 L103.307354,168.89992 C103.307354,169.789066 103.688417,170.325377 104.47877,170.325377 C105.283236,170.325377 105.650185,169.789066 105.650185,168.89992 L105.650185,163.677947 C105.650185,162.774687 105.283236,162.238376 104.47877,162.238376 C103.688417,162.238376 103.307354,162.774687 103.307354,163.677947 Z M110.494624,161.349229 L112.357598,171.228637 L113.980643,171.228637 L115.829504,161.349229 L114.813336,161.349229 L113.218517,169.944314 L111.609585,161.349229 L110.494624,161.349229 Z M117.073251,161.349229 L117.073251,171.228637 L118.174099,171.228637 L118.174099,161.349229 L117.073251,161.349229 Z M121.77479,161.250435 C120.292879,161.250435 119.587207,162.196036 119.587207,163.720287 C119.587207,166.500635 122.889752,166.712337 122.889752,168.914033 C122.889752,169.80318 122.522803,170.325377 121.73245,170.325377 C120.942097,170.325377 120.575148,169.80318 120.575148,168.914033 L120.575148,168.293042 L119.544867,168.293042 L119.544867,168.857579 C119.544867,170.353604 120.250539,171.327431 121.760677,171.327431 C123.270815,171.327431 123.9906,170.353604 123.9906,168.857579 C123.9906,166.077232 120.673942,165.86553 120.673942,163.64972 C120.673942,162.774687 121.012664,162.25249 121.803017,162.25249 C122.59337,162.25249 122.932092,162.774687 122.932092,163.663834 L122.932092,163.988443 L123.976487,163.988443 L123.976487,163.720287 C123.976487,162.224263 123.270815,161.250435 121.77479,161.250435 Z M125.347255,161.349229 L125.347255,171.228637 L126.448103,171.228637 L126.448103,161.349229 L125.347255,161.349229 Z M130.486311,171.228637 L130.486311,162.351284 L132.306945,162.351284 L132.306945,161.349229 L127.578942,161.349229 L127.578942,162.351284 L129.399576,162.351284 L129.399576,171.228637 L130.486311,171.228637 Z M134.552746,165.724396 L134.552746,162.351284 L137.516568,162.351284 L137.516568,161.349229 L133.451897,161.349229 L133.451897,171.228637 L137.516568,171.228637 L137.516568,170.226583 L134.552746,170.226583 L134.552746,166.712337 L136.966144,166.712337 L136.966144,165.724396 L134.552746,165.724396 Z M139.974071,161.349229 L138.887336,161.349229 L138.887336,168.843466 C138.887336,170.339491 139.578894,171.341545 141.089032,171.341545 C142.613284,171.341545 143.304842,170.339491 143.304842,168.843466 L143.304842,161.349229 L142.274561,161.349229 L142.274561,168.89992 C142.274561,169.789066 141.921725,170.325377 141.131373,170.325377 C140.326907,170.325377 139.974071,169.789066 139.974071,168.89992 L139.974071,161.349229 Z M144.788518,161.349229 L146.990214,161.349229 C148.542693,161.349229 149.191911,162.139582 149.191911,163.60738 L149.191911,164.411846 C149.191911,165.498581 148.810848,166.176026 147.964042,166.444181 C148.867302,166.712337 149.206024,167.446235 149.206024,168.504743 L149.206024,170.043108 C149.206024,170.480625 149.220138,170.889915 149.403613,171.228637 L148.288651,171.228637 C148.16163,170.946369 148.105176,170.692327 148.105176,170.028995 L148.105176,168.476517 C148.105176,167.361555 147.582979,167.008719 146.665605,167.008719 L145.889366,167.008719 L145.889366,171.228637 L144.788518,171.228637 L144.788518,161.349229 Z M145.889366,166.006665 L146.707946,166.006665 C147.582979,166.006665 148.105176,165.724396 148.105176,164.651774 L148.105176,163.706174 C148.105176,162.817027 147.780567,162.351284 146.961987,162.351284 L145.889366,162.351284 L145.889366,166.006665 Z M152.820829,161.250435 C151.338918,161.250435 150.633246,162.196036 150.633246,163.720287 C150.633246,166.500635 153.935791,166.712337 153.935791,168.914033 C153.935791,169.80318 153.568841,170.325377 152.778489,170.325377 C151.988136,170.325377 151.621187,169.80318 151.621187,168.914033 L151.621187,168.293042 L150.590906,168.293042 L150.590906,168.857579 C150.590906,170.353604 151.296578,171.327431 152.806716,171.327431 C154.316854,171.327431 155.036639,170.353604 155.036639,168.857579 C155.036639,166.077232 151.719981,165.86553 151.719981,163.64972 C151.719981,162.774687 152.058703,162.25249 152.849056,162.25249 C153.639409,162.25249 153.978131,162.774687 153.978131,163.663834 L153.978131,163.988443 L155.022526,163.988443 L155.022526,163.720287 C155.022526,162.224263 154.316854,161.250435 152.820829,161.250435 Z M51.7765399,179.349229 L53.9358962,179.349229 C55.4883746,179.349229 56.1517063,180.266603 56.1517063,181.762628 L56.1517063,182.948157 C56.1517063,184.514748 55.4178074,185.333328 53.8512156,185.333328 L52.8773882,185.333328 L52.8773882,189.228637 L51.7765399,189.228637 L51.7765399,179.349229 Z M52.8773882,184.345387 L53.8512156,184.345387 C54.6697951,184.345387 55.0649714,183.964324 55.0649714,183.018724 L55.0649714,181.706174 C55.0649714,180.802914 54.7403623,180.351284 53.9358962,180.351284 L52.8773882,180.351284 L52.8773882,184.345387 Z M57.4095665,179.349229 L59.6112632,179.349229 C61.1637415,179.349229 61.8129598,180.139582 61.8129598,181.60738 L61.8129598,182.411846 C61.8129598,183.498581 61.4318969,184.176026 60.5850905,184.444181 C61.4883507,184.712337 61.8270732,185.446235 61.8270732,186.504743 L61.8270732,188.043108 C61.8270732,188.480625 61.8411867,188.889915 62.0246614,189.228637 L60.9096996,189.228637 C60.7826787,188.946369 60.7262249,188.692327 60.7262249,188.028995 L60.7262249,186.476517 C60.7262249,185.361555 60.2040276,185.008719 59.286654,185.008719 L58.5104148,185.008719 L58.5104148,189.228637 L57.4095665,189.228637 L57.4095665,179.349229 Z M58.5104148,184.006665 L59.3289944,184.006665 C60.2040276,184.006665 60.7262249,183.724396 60.7262249,182.651774 L60.7262249,181.706174 C60.7262249,180.817027 60.4016158,180.351284 59.5830363,180.351284 L58.5104148,180.351284 L58.5104148,184.006665 Z M63.2825216,186.843466 L63.2825216,181.734401 C63.2825216,180.224263 64.0305339,179.250435 65.540672,179.250435 C67.0649235,179.250435 67.8129358,180.224263 67.8129358,181.734401 L67.8129358,186.843466 C67.8129358,188.339491 67.0649235,189.327431 65.540672,189.327431 C64.0305339,189.327431 63.2825216,188.339491 63.2825216,186.843466 Z M64.3692565,181.677947 L64.3692565,186.89992 C64.3692565,187.80318 64.7503194,188.325377 65.540672,188.325377 C66.3451381,188.325377 66.7120875,187.80318 66.7120875,186.89992 L66.7120875,181.677947 C66.7120875,180.7888 66.3451381,180.25249 65.540672,180.25249 C64.7503194,180.25249 64.3692565,180.7888 64.3692565,181.677947 Z M70.3551191,183.950211 L70.3551191,180.351284 L73.1778071,180.351284 L73.1778071,179.349229 L69.2542708,179.349229 L69.2542708,189.228637 L70.3551191,189.228637 L70.3551191,184.952265 L72.6273829,184.952265 L72.6273829,183.950211 L70.3551191,183.950211 Z M75.5506291,183.724396 L75.5506291,180.351284 L78.5144515,180.351284 L78.5144515,179.349229 L74.4497808,179.349229 L74.4497808,189.228637 L78.5144515,189.228637 L78.5144515,188.226583 L75.5506291,188.226583 L75.5506291,184.712337 L77.9640273,184.712337 L77.9640273,183.724396 L75.5506291,183.724396 Z M82.0022352,179.250435 C80.520324,179.250435 79.814652,180.196036 79.814652,181.720287 C79.814652,184.500635 83.117197,184.712337 83.117197,186.914033 C83.117197,187.80318 82.7502475,188.325377 81.9598949,188.325377 C81.1695423,188.325377 80.8025928,187.80318 80.8025928,186.914033 L80.8025928,186.293042 L79.7723117,186.293042 L79.7723117,186.857579 C79.7723117,188.353604 80.4779837,189.327431 81.9881218,189.327431 C83.4982598,189.327431 84.2180453,188.353604 84.2180453,186.857579 C84.2180453,184.077232 80.9013869,183.86553 80.9013869,181.64972 C80.9013869,180.774687 81.2401095,180.25249 82.0304621,180.25249 C82.8208147,180.25249 83.1595373,180.774687 83.1595373,181.663834 L83.1595373,181.988443 L84.2039318,181.988443 L84.2039318,181.720287 C84.2039318,180.224263 83.4982598,179.250435 82.0022352,179.250435 Z M87.6493753,179.250435 C86.1674641,179.250435 85.4617921,180.196036 85.4617921,181.720287 C85.4617921,184.500635 88.764337,184.712337 88.764337,186.914033 C88.764337,187.80318 88.3973876,188.325377 87.6070349,188.325377 C86.8166823,188.325377 86.4497329,187.80318 86.4497329,186.914033 L86.4497329,186.293042 L85.4194518,186.293042 L85.4194518,186.857579 C85.4194518,188.353604 86.1251238,189.327431 87.6352618,189.327431 C89.1453999,189.327431 89.8651853,188.353604 89.8651853,186.857579 C89.8651853,184.077232 86.548527,183.86553 86.548527,181.64972 C86.548527,180.774687 86.8872495,180.25249 87.6776021,180.25249 C88.4679548,180.25249 88.8066773,180.774687 88.8066773,181.663834 L88.8066773,181.988443 L89.8510719,181.988443 L89.8510719,181.720287 C89.8510719,180.224263 89.1453999,179.250435 87.6493753,179.250435 Z M91.2218397,179.349229 L91.2218397,189.228637 L92.322688,189.228637 L92.322688,179.349229 L91.2218397,179.349229 Z M93.7640229,186.843466 L93.7640229,181.734401 C93.7640229,180.224263 94.5120353,179.250435 96.0221733,179.250435 C97.5464248,179.250435 98.2944371,180.224263 98.2944371,181.734401 L98.2944371,186.843466 C98.2944371,188.339491 97.5464248,189.327431 96.0221733,189.327431 C94.5120353,189.327431 93.7640229,188.339491 93.7640229,186.843466 Z M94.8507578,181.677947 L94.8507578,186.89992 C94.8507578,187.80318 95.2318207,188.325377 96.0221733,188.325377 C96.8266394,188.325377 97.1935888,187.80318 97.1935888,186.89992 L97.1935888,181.677947 C97.1935888,180.7888 96.8266394,180.25249 96.0221733,180.25249 C95.2318207,180.25249 94.8507578,180.7888 94.8507578,181.677947 Z M100.709599,181.24043 L103.235905,189.228637 L104.379094,189.228637 L104.379094,179.349229 L103.405266,179.349229 L103.405266,186.49063 L101.118889,179.349229 L99.7216587,179.349229 L99.7216587,189.228637 L100.709599,189.228637 L100.709599,181.24043 Z M106.878937,181.24043 L109.405243,189.228637 L110.548431,189.228637 L110.548431,179.349229 L109.574604,179.349229 L109.574604,186.49063 L107.288227,179.349229 L105.890996,179.349229 L105.890996,189.228637 L106.878937,189.228637 L106.878937,181.24043 Z M113.175295,183.724396 L113.175295,180.351284 L116.139117,180.351284 L116.139117,179.349229 L112.074447,179.349229 L112.074447,189.228637 L116.139117,189.228637 L116.139117,188.226583 L113.175295,188.226583 L113.175295,184.712337 L115.588693,184.712337 L115.588693,183.724396 L113.175295,183.724396 Z M121.475762,189.228637 L121.475762,188.226583 L118.653074,188.226583 L118.653074,179.349229 L117.552226,179.349229 L117.552226,189.228637 L121.475762,189.228637 Z M124.780071,179.250435 C123.29816,179.250435 122.592488,180.196036 122.592488,181.720287 C122.592488,184.500635 125.895033,184.712337 125.895033,186.914033 C125.895033,187.80318 125.528083,188.325377 124.737731,188.325377 C123.947378,188.325377 123.580428,187.80318 123.580428,186.914033 L123.580428,186.293042 L122.550147,186.293042 L122.550147,186.857579 C122.550147,188.353604 123.255819,189.327431 124.765957,189.327431 C126.276095,189.327431 126.995881,188.353604 126.995881,186.857579 C126.995881,184.077232 123.679223,183.86553 123.679223,181.64972 C123.679223,180.774687 124.017945,180.25249 124.808298,180.25249 C125.59865,180.25249 125.937373,180.774687 125.937373,181.663834 L125.937373,181.988443 L126.981767,181.988443 L126.981767,181.720287 C126.981767,180.224263 126.276095,179.250435 124.780071,179.250435 Z" id="½-million-de-visiteu" fill="#2A2A2A"></path>
                        </g>
                        <g id="Group-38" stroke-width="1" fill="none" fill-rule="evenodd" transform="translate(236.000000, 180.000000)">
                            <path d="M26.5432588,12.3220219 C26.5432588,17.9374605 20.483033,18.8826333 20.483033,24.6092687 L20.483033,27 L29.3231789,27 L29.3231789,24.2200799 L23.5409451,24.2200799 C23.5131459,24.0810839 23.5131459,23.9420879 23.5131459,23.8030919 C23.5131459,20.6061838 29.6011709,18.3266493 29.6011709,12.2108251 C29.6011709,9.09731457 28.0444157,7.31816571 25.042102,7.31816571 C22.0397883,7.31816571 20.483033,9.09731457 20.483033,12.2108251 L20.483033,14.1011707 L23.3741499,14.1011707 L23.3741499,12.0162307 C23.3741499,10.6262706 23.9857323,10.0980858 24.9587044,10.0980858 C25.9316764,10.0980858 26.5432588,10.5706722 26.5432588,12.3220219 Z M31.3247213,23.4695015 L31.3247213,20.6895814 L36.8845615,7.54055932 L40.2204656,7.54055932 L40.2204656,20.6895814 L41.6660241,20.6895814 L41.6660241,23.4695015 L40.2204656,23.4695015 L40.2204656,27 L37.2181519,27 L37.2181519,23.4695015 L31.3247213,23.4695015 Z M34.1324406,20.6895814 L37.2181519,20.6895814 L37.2181519,13.3783915 L34.1324406,20.6895814 Z M46.4196873,12.0162307 L46.4196873,22.5243286 C46.4196873,23.9142887 47.0312698,24.4424735 48.0042418,24.4424735 C48.9772138,24.4424735 49.5887962,23.9142887 49.5887962,22.5243286 L49.5887962,12.0162307 C49.5887962,10.6262706 48.9772138,10.0980858 48.0042418,10.0980858 C47.0312698,10.0980858 46.4196873,10.6262706 46.4196873,12.0162307 Z M43.3617752,22.3297342 L43.3617752,12.2108251 C43.3617752,9.09731457 45.0019281,7.31816571 48.0042418,7.31816571 C51.0065555,7.31816571 52.6467084,9.09731457 52.6467084,12.2108251 L52.6467084,22.3297342 C52.6467084,25.4432447 51.0065555,27.2223936 48.0042418,27.2223936 C45.0019281,27.2223936 43.3617752,25.4432447 43.3617752,22.3297342 Z M57.9841549,12.0162307 L57.9841549,22.5243286 C57.9841549,23.9142887 58.5957373,24.4424735 59.5687093,24.4424735 C60.5416813,24.4424735 61.1532638,23.9142887 61.1532638,22.5243286 L61.1532638,12.0162307 C61.1532638,10.6262706 60.5416813,10.0980858 59.5687093,10.0980858 C58.5957373,10.0980858 57.9841549,10.6262706 57.9841549,12.0162307 Z M54.9262427,22.3297342 L54.9262427,12.2108251 C54.9262427,9.09731457 56.5663956,7.31816571 59.5687093,7.31816571 C62.571023,7.31816571 64.2111759,9.09731457 64.2111759,12.2108251 L64.2111759,22.3297342 C64.2111759,25.4432447 62.571023,27.2223936 59.5687093,27.2223936 C56.5663956,27.2223936 54.9262427,25.4432447 54.9262427,22.3297342 Z" id="2400" fill="#30B3E8"></path>
                            <path d="M13.6768906,43 C13.8950074,43.0256608 14.074633,43.0128304 14.3055802,43.0128304 C15.3833339,42.9871696 16.2173099,42.4611232 16.2173099,40.7803407 L16.2173099,34.0187197 L15.2293691,34.0187197 L15.2293691,40.8444927 C15.2293691,41.7554512 14.8316267,42.0633808 14.1772762,42.101872 C14.0233114,42.101872 13.8436858,42.101872 13.6768906,42.0890416 L13.6768906,43 Z M17.3848764,40.8316623 L17.3848764,36.1870574 C17.3848764,34.8142045 18.0648876,33.9289069 19.4377405,33.9289069 C20.8234237,33.9289069 21.503435,34.8142045 21.503435,36.1870574 L21.503435,40.8316623 C21.503435,42.1916848 20.8234237,43.0898128 19.4377405,43.0898128 C18.0648876,43.0898128 17.3848764,42.1916848 17.3848764,40.8316623 Z M18.3728173,36.1357358 L18.3728173,40.8829839 C18.3728173,41.7041296 18.7192381,42.1788544 19.4377405,42.1788544 C20.1690733,42.1788544 20.5026637,41.7041296 20.5026637,40.8829839 L20.5026637,36.1357358 C20.5026637,35.3274205 20.1690733,34.8398653 19.4377405,34.8398653 C18.7192381,34.8398653 18.3728173,35.3274205 18.3728173,36.1357358 Z M23.6589423,34.0187197 L22.6710015,34.0187197 L22.6710015,40.8316623 C22.6710015,42.1916848 23.2996911,43.1026432 24.6725439,43.1026432 C26.0582272,43.1026432 26.6869168,42.1916848 26.6869168,40.8316623 L26.6869168,34.0187197 L25.7502976,34.0187197 L25.7502976,40.8829839 C25.7502976,41.6912992 25.4295376,42.1788544 24.7110351,42.1788544 C23.9797023,42.1788544 23.6589423,41.6912992 23.6589423,40.8829839 L23.6589423,34.0187197 Z M27.9314657,34.0187197 L29.9330082,34.0187197 C31.3443522,34.0187197 31.9345507,34.7372221 31.9345507,36.0715838 L31.9345507,36.8029166 C31.9345507,37.7908574 31.5881298,38.4067166 30.8183058,38.6504942 C31.6394514,38.8942719 31.9473811,39.5614527 31.9473811,40.5237327 L31.9473811,41.9222464 C31.9473811,42.3199888 31.9602115,42.6920704 32.1270067,43 L31.113405,43 C30.9979314,42.743392 30.9466098,42.5124448 30.9466098,41.909416 L30.9466098,40.4980719 C30.9466098,39.4844703 30.471885,39.1637103 29.637909,39.1637103 L28.932237,39.1637103 L28.932237,43 L27.9314657,43 L27.9314657,34.0187197 Z M28.932237,38.2527518 L29.6764002,38.2527518 C30.471885,38.2527518 30.9466098,37.9961438 30.9466098,37.0210334 L30.9466098,36.1613966 C30.9466098,35.3530813 30.6515106,34.9296781 29.9073474,34.9296781 L28.932237,34.9296781 L28.932237,38.2527518 Z M34.1285492,35.7379933 L36.4251909,43 L37.4644533,43 L37.4644533,34.0187197 L36.5791557,34.0187197 L36.5791557,40.5109023 L34.5006308,34.0187197 L33.2304212,34.0187197 L33.2304212,43 L34.1285492,43 L34.1285492,35.7379933 Z M42.0320759,41.1909135 L39.7610951,41.1909135 L39.4146742,43 L38.4908854,43 L40.2101591,34.0187197 L41.6599943,34.0187197 L43.379268,43 L42.3784967,43 L42.0320759,41.1909135 Z M40.8773399,35.1477949 L39.8893991,40.3312767 L41.8909415,40.3312767 L40.8773399,35.1477949 Z M47.9853818,43 L47.9853818,42.0890416 L45.4193017,42.0890416 L45.4193017,34.0187197 L44.4185305,34.0187197 L44.4185305,43 L47.9853818,43 Z M48.9989835,34.0187197 L48.9989835,43 L49.9997547,43 L49.9997547,34.0187197 L48.9989835,34.0187197 Z M53.1688637,33.9289069 C51.8216717,33.9289069 51.1801516,34.7885437 51.1801516,36.174227 C51.1801516,38.7018158 54.1824654,38.8942719 54.1824654,40.8958143 C54.1824654,41.7041296 53.8488749,42.1788544 53.1303725,42.1788544 C52.4118701,42.1788544 52.0782797,41.7041296 52.0782797,40.8958143 L52.0782797,40.3312767 L51.1416604,40.3312767 L51.1416604,40.8444927 C51.1416604,42.2045152 51.7831805,43.0898128 53.1560333,43.0898128 C54.5288862,43.0898128 55.1832366,42.2045152 55.1832366,40.8444927 C55.1832366,38.3169038 52.1680925,38.1244478 52.1680925,36.110075 C52.1680925,35.3145901 52.4760221,34.8398653 53.1945245,34.8398653 C53.9130269,34.8398653 54.2209566,35.3145901 54.2209566,36.1229054 L54.2209566,36.4180046 L55.1704062,36.4180046 L55.1704062,36.174227 C55.1704062,34.8142045 54.5288862,33.9289069 53.1688637,33.9289069 Z M58.5961232,43 L58.5961232,34.9296781 L60.2512448,34.9296781 L60.2512448,34.0187197 L55.9530607,34.0187197 L55.9530607,34.9296781 L57.6081823,34.9296781 L57.6081823,43 L58.5961232,43 Z M62.1886354,37.9961438 L62.1886354,34.9296781 L64.8830195,34.9296781 L64.8830195,34.0187197 L61.1878641,34.0187197 L61.1878641,43 L64.8830195,43 L64.8830195,42.0890416 L62.1886354,42.0890416 L62.1886354,38.8942719 L64.3826338,38.8942719 L64.3826338,37.9961438 L62.1886354,37.9961438 Z M67.9494852,33.9289069 C66.6022932,33.9289069 65.9607732,34.7885437 65.9607732,36.174227 C65.9607732,38.7018158 68.9630869,38.8942719 68.9630869,40.8958143 C68.9630869,41.7041296 68.6294965,42.1788544 67.910994,42.1788544 C67.1924916,42.1788544 66.8589012,41.7041296 66.8589012,40.8958143 L66.8589012,40.3312767 L65.922282,40.3312767 L65.922282,40.8444927 C65.922282,42.2045152 66.563802,43.0898128 67.9366548,43.0898128 C69.3095077,43.0898128 69.9638581,42.2045152 69.9638581,40.8444927 C69.9638581,38.3169038 66.948714,38.1244478 66.948714,36.110075 C66.948714,35.3145901 67.2566436,34.8398653 67.975146,34.8398653 C68.6936485,34.8398653 69.0015781,35.3145901 69.0015781,36.1229054 L69.0015781,36.4180046 L69.9510277,36.4180046 L69.9510277,36.174227 C69.9510277,34.8142045 69.3095077,33.9289069 67.9494852,33.9289069 Z M21.5419262,55.1909135 L19.2709453,55.1909135 L18.9245245,57 L18.0007356,57 L19.7200093,48.0187197 L21.1698446,48.0187197 L22.8891182,57 L21.888347,57 L21.5419262,55.1909135 Z M20.3871901,49.1477949 L19.3992493,54.3312767 L21.4007918,54.3312767 L20.3871901,49.1477949 Z M25.8529408,47.9289069 C24.4800879,47.9289069 23.8385679,48.8270349 23.8385679,50.1870574 L23.8385679,54.8316623 C23.8385679,56.1916848 24.4800879,57.0898128 25.8529408,57.0898128 C27.238624,57.0898128 27.8801441,56.1916848 27.8801441,54.8316623 L27.8801441,53.7154175 L26.9306944,53.7154175 L26.9306944,54.8829839 C26.9306944,55.6912992 26.6099344,56.1788544 25.8786016,56.1788544 C25.1600992,56.1788544 24.8265087,55.6912992 24.8265087,54.8829839 L24.8265087,50.1357358 C24.8265087,49.3274205 25.1600992,48.8398653 25.8786016,48.8398653 C26.6099344,48.8398653 26.9306944,49.3274205 26.9306944,50.1357358 L26.9306944,50.9953726 L27.8801441,50.9953726 L27.8801441,50.1870574 C27.8801441,48.8270349 27.238624,47.9289069 25.8529408,47.9289069 Z M30.985101,47.9289069 C29.6122482,47.9289069 28.9707282,48.8270349 28.9707282,50.1870574 L28.9707282,54.8316623 C28.9707282,56.1916848 29.6122482,57.0898128 30.985101,57.0898128 C32.3707843,57.0898128 33.0123043,56.1916848 33.0123043,54.8316623 L33.0123043,53.7154175 L32.0628547,53.7154175 L32.0628547,54.8829839 C32.0628547,55.6912992 31.7420946,56.1788544 31.0107618,56.1788544 C30.2922594,56.1788544 29.958669,55.6912992 29.958669,54.8829839 L29.958669,50.1357358 C29.958669,49.3274205 30.2922594,48.8398653 31.0107618,48.8398653 C31.7420946,48.8398653 32.0628547,49.3274205 32.0628547,50.1357358 L32.0628547,50.9953726 L33.0123043,50.9953726 L33.0123043,50.1870574 C33.0123043,48.8270349 32.3707843,47.9289069 30.985101,47.9289069 Z M34.1798708,48.0187197 L36.1814133,48.0187197 C37.5927573,48.0187197 38.1829557,48.7372221 38.1829557,50.0715838 L38.1829557,50.8029166 C38.1829557,51.7908574 37.8365349,52.4067166 37.0667109,52.6504942 C37.8878565,52.8942719 38.1957861,53.5614527 38.1957861,54.5237327 L38.1957861,55.9222464 C38.1957861,56.3199888 38.2086165,56.6920704 38.3754117,57 L37.3618101,57 C37.2463365,56.743392 37.1950149,56.5124448 37.1950149,55.909416 L37.1950149,54.4980719 C37.1950149,53.4844703 36.7202901,53.1637103 35.8863141,53.1637103 L35.180642,53.1637103 L35.180642,57 L34.1798708,57 L34.1798708,48.0187197 Z M35.180642,52.2527518 L35.9248053,52.2527518 C36.7202901,52.2527518 37.1950149,51.9961438 37.1950149,51.0210334 L37.1950149,50.1613966 C37.1950149,49.3530813 36.8999157,48.9296781 36.1557525,48.9296781 L35.180642,48.9296781 L35.180642,52.2527518 Z M41.6215031,46.1968028 L40.7233751,47.5183341 L41.4162167,47.5183341 L42.609444,46.1968028 L41.6215031,46.1968028 Z M40.4924279,51.9961438 L40.4924279,48.9296781 L43.186812,48.9296781 L43.186812,48.0187197 L39.4916566,48.0187197 L39.4916566,57 L43.186812,57 L43.186812,56.0890416 L40.4924279,56.0890416 L40.4924279,52.8942719 L42.6864264,52.8942719 L42.6864264,51.9961438 L40.4924279,51.9961438 Z M44.3672089,48.0187197 L46.4713946,48.0187197 C47.8699082,48.0187197 48.5114282,48.8655261 48.5114282,50.2512094 L48.5114282,54.7803407 C48.5114282,56.1531936 47.8699082,57 46.4713946,57 L44.3672089,57 L44.3672089,48.0187197 Z M45.3679801,56.0890416 L46.4585642,56.0890416 C47.1770666,56.0890416 47.5234874,55.6399776 47.5234874,54.8188319 L47.5234874,50.1998878 C47.5234874,49.3787421 47.1770666,48.9296781 46.4457338,48.9296781 L45.3679801,48.9296781 L45.3679801,56.0890416 Z M49.7046555,48.0187197 L49.7046555,57 L50.7054268,57 L50.7054268,48.0187197 L49.7046555,48.0187197 Z M54.2722782,57 L54.2722782,48.9296781 L55.9273998,48.9296781 L55.9273998,48.0187197 L51.6292157,48.0187197 L51.6292157,48.9296781 L53.2843373,48.9296781 L53.2843373,57 L54.2722782,57 Z M58.9938656,46.1968028 L58.0957376,47.5183341 L58.7885792,47.5183341 L59.9818064,46.1968028 L58.9938656,46.1968028 Z M57.8647903,51.9961438 L57.8647903,48.9296781 L60.5591744,48.9296781 L60.5591744,48.0187197 L56.8640191,48.0187197 L56.8640191,57 L60.5591744,57 L60.5591744,56.0890416 L57.8647903,56.0890416 L57.8647903,52.8942719 L60.0587888,52.8942719 L60.0587888,51.9961438 L57.8647903,51.9961438 Z M63.6256402,47.9289069 C62.2784482,47.9289069 61.6369281,48.7885437 61.6369281,50.174227 C61.6369281,52.7018158 64.6392418,52.8942719 64.6392418,54.8958143 C64.6392418,55.7041296 64.3056514,56.1788544 63.587149,56.1788544 C62.8686466,56.1788544 62.5350562,55.7041296 62.5350562,54.8958143 L62.5350562,54.3312767 L61.5984369,54.3312767 L61.5984369,54.8444927 C61.5984369,56.2045152 62.239957,57.0898128 63.6128098,57.0898128 C64.9856627,57.0898128 65.6400131,56.2045152 65.6400131,54.8444927 C65.6400131,52.3169038 62.624869,52.1244478 62.624869,50.110075 C62.624869,49.3145901 62.9327986,48.8398653 63.651301,48.8398653 C64.3698034,48.8398653 64.677733,49.3145901 64.677733,50.1229054 L64.677733,50.4180046 L65.6271827,50.4180046 L65.6271827,50.174227 C65.6271827,48.8142045 64.9856627,47.9289069 63.6256402,47.9289069 Z" id="Journalistes-accrédi" fill="#2A2A2A"></path>
                        </g>
                        <g id="Group-39" stroke-width="1" fill="none" fill-rule="evenodd" transform="translate(236.000000, 55.000000)">
                            <path d="M29.1955764,12.2108251 L29.1955764,22.162939 C29.1955764,25.4432447 27.6944195,27.2223936 24.5253106,27.2223936 C21.5229969,27.2223936 19.9662417,25.4432447 19.9662417,22.3297342 L19.9662417,21.8293486 L22.8573586,21.8293486 L22.8573586,22.5243286 C22.8573586,23.9142887 23.468941,24.4424735 24.441913,24.4424735 C25.5260819,24.4424735 26.1376643,23.9142887 26.1376643,22.0517422 L26.1376643,18.4934445 C25.6094795,19.6054125 24.6643066,20.216995 23.3021458,20.216995 C21.0504105,20.216995 19.9106433,18.6324405 19.9106433,15.7691228 L19.9106433,12.2108251 C19.9106433,9.09731457 21.5507961,7.31816571 24.5531098,7.31816571 C27.5554235,7.31816571 29.1955764,9.09731457 29.1955764,12.2108251 Z M24.5531098,17.4370749 C25.5260819,17.4370749 26.1376643,16.90889 26.1376643,15.51893 L26.1376643,12.0162307 C26.1376643,10.6262706 25.5260819,10.125885 24.5531098,10.125885 C23.5801378,10.125885 22.9685554,10.6262706 22.9685554,12.0162307 L22.9685554,15.51893 C22.9685554,16.90889 23.5801378,17.4370749 24.5531098,17.4370749 Z M34.5886213,12.0162307 L34.5886213,22.5243286 C34.5886213,23.9142887 35.2002037,24.4424735 36.1731757,24.4424735 C37.1461478,24.4424735 37.7577302,23.9142887 37.7577302,22.5243286 L37.7577302,12.0162307 C37.7577302,10.6262706 37.1461478,10.0980858 36.1731757,10.0980858 C35.2002037,10.0980858 34.5886213,10.6262706 34.5886213,12.0162307 Z M31.5307092,22.3297342 L31.5307092,12.2108251 C31.5307092,9.09731457 33.170862,7.31816571 36.1731757,7.31816571 C39.1754895,7.31816571 40.8156423,9.09731457 40.8156423,12.2108251 L40.8156423,22.3297342 C40.8156423,25.4432447 39.1754895,27.2223936 36.1731757,27.2223936 C33.170862,27.2223936 31.5307092,25.4432447 31.5307092,22.3297342 Z M46.1530888,12.0162307 L46.1530888,22.5243286 C46.1530888,23.9142887 46.7646712,24.4424735 47.7376433,24.4424735 C48.7106153,24.4424735 49.3221977,23.9142887 49.3221977,22.5243286 L49.3221977,12.0162307 C49.3221977,10.6262706 48.7106153,10.0980858 47.7376433,10.0980858 C46.7646712,10.0980858 46.1530888,10.6262706 46.1530888,12.0162307 Z M43.0951767,22.3297342 L43.0951767,12.2108251 C43.0951767,9.09731457 44.7353296,7.31816571 47.7376433,7.31816571 C50.739957,7.31816571 52.3801098,9.09731457 52.3801098,12.2108251 L52.3801098,22.3297342 C52.3801098,25.4432447 50.739957,27.2223936 47.7376433,27.2223936 C44.7353296,27.2223936 43.0951767,25.4432447 43.0951767,22.3297342 Z M60.3862796,12.4332187 L58.2179419,12.4332187 L58.2179419,16.1861108 L54.492849,16.1861108 L54.492849,18.3544485 L58.2179419,18.3544485 L58.2179419,22.162939 L60.3862796,22.162939 L60.3862796,18.3544485 L64.1113726,18.3544485 L64.1113726,16.1861108 L60.3862796,16.1861108 L60.3862796,12.4332187 Z" id="900+" fill="#F6A723"></path>
                            <path d="M19.9363036,39.5375449 L19.9363036,36.4710792 L22.6306877,36.4710792 L22.6306877,35.5601208 L18.9355324,35.5601208 L18.9355324,44.5414011 L22.6306877,44.5414011 L22.6306877,43.6304427 L19.9363036,43.6304427 L19.9363036,40.435673 L22.1303021,40.435673 L22.1303021,39.5375449 L19.9363036,39.5375449 Z M27.5319007,44.5414011 L28.5839936,44.5414011 L26.7877375,39.9096265 L28.46852,35.5601208 L27.5319007,35.5601208 L26.1333871,39.1526329 L24.7477038,35.5601208 L23.7084414,35.5601208 L25.4020543,39.9096265 L23.5929678,44.5414011 L24.5424174,44.5414011 L26.0435743,40.6666202 L27.5319007,44.5414011 Z M29.6489169,35.5601208 L31.6119681,35.5601208 C33.0233122,35.5601208 33.626341,36.3940968 33.626341,37.7541193 L33.626341,38.8318729 C33.626341,40.2560474 32.9591602,41.0002106 31.5349857,41.0002106 L30.6496881,41.0002106 L30.6496881,44.5414011 L29.6489169,44.5414011 L29.6489169,35.5601208 Z M30.6496881,40.1020825 L31.5349857,40.1020825 C32.279149,40.1020825 32.6384002,39.7556617 32.6384002,38.8960249 L32.6384002,37.7027977 C32.6384002,36.881652 32.343301,36.4710792 31.6119681,36.4710792 L30.6496881,36.4710792 L30.6496881,40.1020825 Z M34.5886211,42.3730634 L34.5886211,37.7284585 C34.5886211,36.3556056 35.2686323,35.470308 36.6414852,35.470308 C38.0271684,35.470308 38.7071797,36.3556056 38.7071797,37.7284585 L38.7071797,42.3730634 C38.7071797,43.7330859 38.0271684,44.6312139 36.6414852,44.6312139 C35.2686323,44.6312139 34.5886211,43.7330859 34.5886211,42.3730634 Z M35.5765619,37.6771369 L35.5765619,42.424385 C35.5765619,43.2455307 35.9229828,43.7202555 36.6414852,43.7202555 C37.372818,43.7202555 37.7064084,43.2455307 37.7064084,42.424385 L37.7064084,37.6771369 C37.7064084,36.8688216 37.372818,36.3812664 36.6414852,36.3812664 C35.9229828,36.3812664 35.5765619,36.8688216 35.5765619,37.6771369 Z M41.7993062,35.470308 C40.4521142,35.470308 39.8105942,36.3299448 39.8105942,37.7156281 C39.8105942,40.243217 42.8129079,40.435673 42.8129079,42.4372154 C42.8129079,43.2455307 42.4793175,43.7202555 41.760815,43.7202555 C41.0423126,43.7202555 40.7087222,43.2455307 40.7087222,42.4372154 L40.7087222,41.8726778 L39.772103,41.8726778 L39.772103,42.3858938 C39.772103,43.7459163 40.413623,44.6312139 41.7864758,44.6312139 C43.1593287,44.6312139 43.8136791,43.7459163 43.8136791,42.3858938 C43.8136791,39.8583049 40.798535,39.6658489 40.798535,37.6514761 C40.798535,36.8559912 41.1064646,36.3812664 41.824967,36.3812664 C42.5434695,36.3812664 42.8513991,36.8559912 42.8513991,37.6643065 L42.8513991,37.9594057 L43.8008487,37.9594057 L43.8008487,37.7156281 C43.8008487,36.3556056 43.1593287,35.470308 41.7993062,35.470308 Z M48.2273369,42.7323146 L45.956356,42.7323146 L45.6099352,44.5414011 L44.6861464,44.5414011 L46.4054201,35.5601208 L47.8552553,35.5601208 L49.574529,44.5414011 L48.5737577,44.5414011 L48.2273369,42.7323146 Z M47.0726009,36.689196 L46.08466,41.8726778 L48.0862025,41.8726778 L47.0726009,36.689196 Z M51.4990891,37.2793944 L53.7957308,44.5414011 L54.8349932,44.5414011 L54.8349932,35.5601208 L53.9496956,35.5601208 L53.9496956,42.0523034 L51.8711707,35.5601208 L50.6009611,35.5601208 L50.6009611,44.5414011 L51.4990891,44.5414011 L51.4990891,37.2793944 Z M58.4018446,44.5414011 L58.4018446,36.4710792 L60.0569663,36.4710792 L60.0569663,35.5601208 L55.7587821,35.5601208 L55.7587821,36.4710792 L57.4139038,36.4710792 L57.4139038,44.5414011 L58.4018446,44.5414011 Z M62.8796544,35.470308 C61.5324624,35.470308 60.8909424,36.3299448 60.8909424,37.7156281 C60.8909424,40.243217 63.8932561,40.435673 63.8932561,42.4372154 C63.8932561,43.2455307 63.5596656,43.7202555 62.8411632,43.7202555 C62.1226608,43.7202555 61.7890704,43.2455307 61.7890704,42.4372154 L61.7890704,41.8726778 L60.8524511,41.8726778 L60.8524511,42.3858938 C60.8524511,43.7459163 61.4939712,44.6312139 62.866824,44.6312139 C64.2396769,44.6312139 64.8940273,43.7459163 64.8940273,42.3858938 C64.8940273,39.8583049 61.8788832,39.6658489 61.8788832,37.6514761 C61.8788832,36.8559912 62.1868128,36.3812664 62.9053152,36.3812664 C63.6238176,36.3812664 63.9317473,36.8559912 63.9317473,37.6643065 L63.9317473,37.9594057 L64.8811969,37.9594057 L64.8811969,37.7156281 C64.8811969,36.3556056 64.2396769,35.470308 62.8796544,35.470308 Z" id="exposants" fill="#2A2A2A"></path>
                        </g>
                        <g id="Group-41" stroke-width="1" fill="none" fill-rule="evenodd" transform="translate(106.000000, 248.000000)">
                            <path d="M14.4694846,10.439038 L16.4688887,10.439038 L16.4688887,23 L19.0563527,23 L19.0563527,6.53431943 L17.3156951,6.53431943 C16.9158143,7.63987226 16.4688887,8.6042907 14.4694846,8.6042907 L14.4694846,10.439038 Z M22.4906232,19.0482367 L22.4906232,10.6272172 C22.4906232,7.85157387 23.7608328,6.34614022 26.4423865,6.34614022 C28.9828058,6.34614022 30.3000603,7.85157387 30.3000603,10.4860828 L30.3000603,10.909486 L27.8537306,10.909486 L27.8537306,10.321426 C27.8537306,9.14530592 27.3362378,8.6983803 26.5129537,8.6983803 C25.5955801,8.6983803 25.0780873,9.14530592 25.0780873,10.7213068 L25.0780873,13.7321741 C25.5250129,12.791278 26.3247745,12.2737852 27.4773722,12.2737852 C29.3826866,12.2737852 30.3471051,13.6145621 30.3471051,16.0373694 L30.3471051,19.0482367 C30.3471051,21.6827456 28.9592834,23.1881792 26.4188641,23.1881792 C23.8784448,23.1881792 22.4906232,21.6827456 22.4906232,19.0482367 Z M26.4188641,14.6260253 C25.5955801,14.6260253 25.0780873,15.0729509 25.0780873,16.249071 L25.0780873,19.2128935 C25.0780873,20.3890135 25.5955801,20.8124167 26.4188641,20.8124167 C27.2421481,20.8124167 27.759641,20.3890135 27.759641,19.2128935 L27.759641,16.249071 C27.759641,15.0729509 27.2421481,14.6260253 26.4188641,14.6260253 Z M40.1324236,6.53431943 L36.5334963,6.53431943 L36.5334963,23 L38.7916468,23 L38.7916468,11.3564116 L40.7204836,23 L43.1668133,23 L44.9545158,11.1917548 L44.9545158,23 L47.4008455,23 L47.4008455,6.53431943 L43.8019181,6.53431943 L42.0377381,18.2249526 L40.1324236,6.53431943 Z M49.7530855,23 L52.3405496,23 L52.3405496,6.53431943 L49.7530855,6.53431943 L49.7530855,23 Z M54.6927896,23 L61.5378082,23 L61.5378082,20.6477599 L57.2802536,20.6477599 L57.2802536,6.53431943 L54.6927896,6.53431943 L54.6927896,23 Z M63.1373314,23 L69.98235,23 L69.98235,20.6477599 L65.7247955,20.6477599 L65.7247955,6.53431943 L63.1373314,6.53431943 L63.1373314,23 Z M71.5818732,23 L74.1693373,23 L74.1693373,6.53431943 L71.5818732,6.53431943 L71.5818732,23 Z M78.8973397,10.321426 L78.8973397,19.2128935 C78.8973397,20.3890135 79.4148326,20.8359391 80.2381166,20.8359391 C81.0614006,20.8359391 81.5788934,20.3890135 81.5788934,19.2128935 L81.5788934,10.321426 C81.5788934,9.14530592 81.0614006,8.6983803 80.2381166,8.6983803 C79.4148326,8.6983803 78.8973397,9.14530592 78.8973397,10.321426 Z M76.3098756,19.0482367 L76.3098756,10.4860828 C76.3098756,7.85157387 77.6976973,6.34614022 80.2381166,6.34614022 C82.7785359,6.34614022 84.1663575,7.85157387 84.1663575,10.4860828 L84.1663575,19.0482367 C84.1663575,21.6827456 82.7785359,23.1881792 80.2381166,23.1881792 C77.6976973,23.1881792 76.3098756,21.6827456 76.3098756,19.0482367 Z M91.8346601,23 L94.4926914,23 L94.4926914,6.53431943 L92.1874961,6.53431943 L92.1874961,16.3902054 L89.5294648,6.53431943 L86.2833735,6.53431943 L86.2833735,23 L88.6120912,23 L88.6120912,11.0741428 L91.8346601,23 Z M96.4920954,10.4860828 C96.4920954,15.1905629 101.549412,15.8256677 101.549412,19.2128935 C101.549412,20.3890135 101.031919,20.8124167 100.208635,20.8124167 C99.3853507,20.8124167 98.8678579,20.3890135 98.8678579,19.2128935 L98.8678579,18.0367734 L96.4215282,18.0367734 L96.4215282,19.0482367 C96.4215282,21.6827456 97.7387826,23.1881792 100.279202,23.1881792 C102.819621,23.1881792 104.136876,21.6827456 104.136876,19.0482367 C104.136876,14.3437565 99.0795595,13.7086517 99.0795595,10.321426 C99.0795595,9.14530592 99.5500075,8.6983803 100.373292,8.6983803 C101.196576,8.6983803 101.667024,9.14530592 101.667024,10.321426 L101.667024,11.0035756 L104.113353,11.0035756 L104.113353,10.4860828 C104.113353,7.85157387 102.819621,6.34614022 100.302724,6.34614022 C97.7858274,6.34614022 96.4920954,7.85157387 96.4920954,10.4860828 Z" id="16-millions" fill="#80BA27"></path>
                            <path d="M12.1131344,29.0190001 L14.2172544,29.0190001 C15.6157244,29.0190001 16.2572244,29.86578 16.2572244,31.25142 L16.2572244,35.78041 C16.2572244,37.15322 15.6157244,38 14.2172544,38 L12.1131344,38 L12.1131344,29.0190001 Z M13.1138744,37.08907 L14.2044244,37.08907 C14.9229044,37.08907 15.2693144,36.64002 15.2693144,35.8189 L15.2693144,31.2001 C15.2693144,30.37898 14.9229044,29.92993 14.1915944,29.92993 L13.1138744,29.92993 L13.1138744,37.08907 Z M18.4511545,32.9963 L18.4511545,29.92993 L21.1454545,29.92993 L21.1454545,29.0190001 L17.4504145,29.0190001 L17.4504145,38 L21.1454545,38 L21.1454545,37.08907 L18.4511545,37.08907 L18.4511545,33.8944 L20.6450845,33.8944 L20.6450845,32.9963 L18.4511545,32.9963 Z M29.3053346,30.77671 L29.3053346,38 L30.2547546,38 L30.2547546,29.0190001 L28.8562846,29.0190001 L27.4321546,36.19097 L25.9567046,29.0190001 L24.5582346,29.0190001 L24.5582346,38 L25.4306746,38 L25.4306746,30.84086 L26.9189546,37.98717 L27.8812046,37.98717 L29.3053346,30.77671 Z M32.5384947,32.9963 L32.5384947,29.92993 L35.2327946,29.92993 L35.2327946,29.0190001 L31.5377547,29.0190001 L31.5377547,38 L35.2327946,38 L35.2327946,37.08907 L32.5384947,37.08907 L32.5384947,33.8944 L34.7324246,33.8944 L34.7324246,32.9963 L32.5384947,32.9963 Z M37.2984247,30.73822 L39.5949947,38 L40.6342247,38 L40.6342247,29.0190001 L39.7489547,29.0190001 L39.7489547,35.51098 L37.6704947,29.0190001 L36.4003247,29.0190001 L36.4003247,38 L37.2984247,38 L37.2984247,30.73822 Z M44.2009648,38 L44.2009648,29.92993 L45.8560347,29.92993 L45.8560347,29.0190001 L41.5579848,29.0190001 L41.5579848,29.92993 L43.2130548,29.92993 L43.2130548,38 L44.2009648,38 Z M46.7926248,29.0190001 L46.7926248,38 L47.7933648,38 L47.7933648,29.0190001 L46.7926248,29.0190001 Z M48.9993849,35.83173 L48.9993849,31.18727 C48.9993849,29.81446 49.6793749,28.9291901 51.0521849,28.9291901 C52.4378249,28.9291901 53.1178149,29.81446 53.1178149,31.18727 L53.1178149,35.83173 C53.1178149,37.19171 52.4378249,38.08981 51.0521849,38.08981 C49.6793749,38.08981 48.9993849,37.19171 48.9993849,35.83173 Z M49.9872949,31.13595 L49.9872949,35.88305 C49.9872949,36.70417 50.3337049,37.17888 51.0521849,37.17888 C51.7834949,37.17888 52.1170749,36.70417 52.1170749,35.88305 L52.1170749,31.13595 C52.1170749,30.32766 51.7834949,29.84012 51.0521849,29.84012 C50.3337049,29.84012 49.9872949,30.32766 49.9872949,31.13595 Z M55.2091049,30.73822 L57.5056749,38 L58.5449049,38 L58.5449049,29.0190001 L57.6596349,29.0190001 L57.6596349,35.51098 L55.5811749,29.0190001 L54.3110049,29.0190001 L54.3110049,38 L55.2091049,38 L55.2091049,30.73822 Z M61.713915,28.9291901 C60.366765,28.9291901 59.725265,29.7888 59.725265,31.17444 C59.725265,33.70195 62.727485,33.8944 62.727485,35.89588 C62.727485,36.70417 62.393905,37.17888 61.675425,37.17888 C60.956945,37.17888 60.623365,36.70417 60.623365,35.89588 L60.623365,35.33136 L59.686775,35.33136 L59.686775,35.84456 C59.686775,37.20454 60.328275,38.08981 61.701085,38.08981 C63.073895,38.08981 63.728225,37.20454 63.728225,35.84456 C63.728225,33.31705 60.713175,33.1246 60.713175,31.11029 C60.713175,30.31483 61.021095,29.84012 61.739575,29.84012 C62.458055,29.84012 62.765975,30.31483 62.765975,31.12312 L62.765975,31.41821 L63.715395,31.41821 L63.715395,31.17444 C63.715395,29.81446 63.073895,28.9291901 61.713915,28.9291901 Z M71.5032051,31.94424 L70.7847251,31.94424 L70.5152951,34.57439 L71.2337751,34.57439 L71.1567951,35.29287 L70.4383151,35.29287 L70.1560551,38 L69.3349351,38 L69.6171951,35.29287 L68.4496651,35.29287 L68.1545751,38 L67.3334551,38 L67.6285451,35.29287 L66.8844051,35.29287 L66.9613851,34.57439 L67.6926951,34.57439 L67.9749551,31.94424 L67.2179851,31.94424 L67.2949651,31.22576 L68.0391051,31.22576 L68.2700451,29.0190001 L69.0911651,29.0190001 L68.8602251,31.22576 L70.0405851,31.22576 L70.2715251,29.0190001 L71.0926451,29.0190001 L70.8617051,31.22576 L71.5801851,31.22576 L71.5032051,31.94424 Z M69.6941751,34.57439 L69.9636051,31.94424 L68.7960751,31.94424 L68.5138151,34.57439 L69.6941751,34.57439 Z M74.5310852,28.9291901 C73.1839352,28.9291901 72.5424352,29.7888 72.5424352,31.17444 C72.5424352,33.70195 75.5446551,33.8944 75.5446551,35.89588 C75.5446551,36.70417 75.2110752,37.17888 74.4925952,37.17888 C73.7741152,37.17888 73.4405352,36.70417 73.4405352,35.89588 L73.4405352,35.33136 L72.5039452,35.33136 L72.5039452,35.84456 C72.5039452,37.20454 73.1454452,38.08981 74.5182552,38.08981 C75.8910651,38.08981 76.5453951,37.20454 76.5453951,35.84456 C76.5453951,33.31705 73.5303452,33.1246 73.5303452,31.11029 C73.5303452,30.31483 73.8382652,29.84012 74.5567452,29.84012 C75.2752252,29.84012 75.5831451,30.31483 75.5831451,31.12312 L75.5831451,31.41821 L76.5325651,31.41821 L76.5325651,31.17444 C76.5325651,29.81446 75.8910651,28.9291901 74.5310852,28.9291901 Z M77.6744352,29.0190001 L77.6744352,38 L78.6751752,38 L78.6751752,29.0190001 L77.6744352,29.0190001 Z M83.2426553,36.19097 L80.9717453,36.19097 L80.6253353,38 L79.7015753,38 L81.4207953,29.0190001 L82.8705853,29.0190001 L84.5898053,38 L83.5890653,38 L83.2426553,36.19097 Z M82.0879553,30.14804 L81.1000453,35.33136 L83.1015253,35.33136 L82.0879553,30.14804 Z M87.6433453,28.9291901 C86.2577053,28.9291901 85.6290353,29.84012 85.6290353,31.21293 L85.6290353,31.94424 L86.5656253,31.94424 L86.5656253,31.14878 C86.5656253,30.35332 86.8863753,29.82729 87.6176853,29.82729 C88.3618253,29.82729 88.6697453,30.31483 88.6697453,31.23859 C88.6697453,33.7661 85.6290353,34.33062 85.6290353,37.2302 L85.6290353,38 L89.5678453,38 L89.5678453,37.08907 L86.6169453,37.08907 L86.6169453,36.94794 C86.6297753,34.88231 89.6704853,33.90723 89.6704853,31.2001 C89.6704853,29.82729 89.0418153,28.9291901 87.6433453,28.9291901 Z M90.7738654,35.8189 L90.7738654,31.18727 C90.7738654,29.81446 91.4538554,28.9291901 92.8266654,28.9291901 C94.2123054,28.9291901 94.8922954,29.81446 94.8922954,31.18727 L94.8922954,35.8189 C94.8922954,37.19171 94.2123054,38.08981 92.8266654,38.08981 C91.4538554,38.08981 90.7738654,37.19171 90.7738654,35.8189 Z M91.7617754,31.13595 L91.7617754,35.88305 C91.7617754,36.69134 92.1081854,37.17888 92.8266654,37.17888 C93.5579754,37.17888 93.8915554,36.69134 93.8915554,35.88305 L93.8915554,31.13595 C93.8915554,30.31483 93.5579754,29.82729 92.8266654,29.82729 C92.1081854,29.82729 91.7617754,30.31483 91.7617754,31.13595 Z M97.9330054,38 L98.9209154,38 L98.9209154,29.0190001 L98.2280954,29.0190001 C97.9971554,29.64767 97.6635754,30.1737 96.6884954,30.21219 L96.6884954,31.03331 C97.1632054,31.00765 97.5994254,30.85369 97.9330054,30.64841 L97.9330054,38 Z M101.384275,38 L102.385015,38 L104.694415,29.89144 L104.694415,29.0190001 L100.627306,29.0190001 L100.627306,29.9171 L103.680845,29.9171 L101.384275,38 Z" id="de-mentions-#sia2017" fill="#2A2A2A"></path>
                        </g>
                        <g id="Group-37" stroke-width="1" fill="none" fill-rule="evenodd" transform="translate(0.000000, 40.000000)">
                            <path d="M31.3247213,23.4695015 L31.3247213,20.6895814 L36.8845615,7.54055932 L40.2204656,7.54055932 L40.2204656,20.6895814 L41.6660241,20.6895814 L41.6660241,23.4695015 L40.2204656,23.4695015 L40.2204656,27 L37.2181519,27 L37.2181519,23.4695015 L31.3247213,23.4695015 Z M34.1324406,20.6895814 L37.2181519,20.6895814 L37.2181519,13.3783915 L34.1324406,20.6895814 Z M52.7857044,22.3297342 C52.7857044,25.4432447 51.0899531,27.2223936 48.0042418,27.2223936 C44.9185305,27.2223936 43.2227792,25.4432447 43.2227792,22.3297342 L43.2227792,20.8007782 C43.2227792,18.9382317 43.7787632,17.4926733 45.1131249,16.7420948 C43.8343616,16.0471148 43.2227792,14.7405524 43.2227792,12.8224075 L43.2227792,12.2108251 C43.2227792,9.09731457 44.9185305,7.31816571 48.0042418,7.31816571 C51.0899531,7.31816571 52.7857044,9.09731457 52.7857044,12.2108251 L52.7857044,12.8224075 C52.7857044,14.7405524 52.1463227,16.0471148 50.8953587,16.7420948 C52.2297203,17.4926733 52.7857044,18.9382317 52.7857044,20.8007782 L52.7857044,22.3297342 Z M46.2806913,22.2463366 C46.2806913,23.9698871 47.0312698,24.4424735 48.0042418,24.4424735 C48.9772138,24.4424735 49.6999931,23.9698871 49.7277923,22.2463366 L49.7277923,20.4393886 C49.7277923,18.9104325 49.0884106,18.2432517 48.0042418,18.2432517 C46.920073,18.2432517 46.2806913,18.9104325 46.2806913,20.4393886 L46.2806913,22.2463366 Z M46.2806913,12.3220219 L46.2806913,13.4061907 C46.2806913,14.962946 47.0034706,15.4633316 48.0042418,15.4633316 C48.9772138,15.4633316 49.7277923,14.962946 49.7277923,13.4061907 L49.7277923,12.3220219 C49.7277923,10.5706722 48.9772138,10.0980858 48.0042418,10.0980858 C47.0312698,10.0980858 46.2806913,10.5706722 46.2806913,12.3220219 Z" id="48" fill="#E74427"></path>
                            <path d="M16.0376843,36.0187197 L18.14187,36.0187197 C19.5403837,36.0187197 20.1819037,36.8655261 20.1819037,38.2512094 L20.1819037,42.7803407 C20.1819037,44.1531936 19.5403837,45 18.14187,45 L16.0376843,45 L16.0376843,36.0187197 Z M17.0384556,44.0890416 L18.1290396,44.0890416 C18.847542,44.0890416 19.1939629,43.6399776 19.1939629,42.8188319 L19.1939629,38.1998878 C19.1939629,37.3787421 18.847542,36.9296781 18.1162092,36.9296781 L17.0384556,36.9296781 L17.0384556,44.0890416 Z M23.5049775,34.1968028 L22.6068494,35.5183341 L23.2996911,35.5183341 L24.4929183,34.1968028 L23.5049775,34.1968028 Z M22.3759022,39.9961438 L22.3759022,36.9296781 L25.0702863,36.9296781 L25.0702863,36.0187197 L21.375131,36.0187197 L21.375131,45 L25.0702863,45 L25.0702863,44.0890416 L22.3759022,44.0890416 L22.3759022,40.8942719 L24.5699007,40.8942719 L24.5699007,39.9961438 L22.3759022,39.9961438 Z M29.8175345,45 L29.8175345,44.0890416 L27.2514545,44.0890416 L27.2514545,36.0187197 L26.2506832,36.0187197 L26.2506832,45 L29.8175345,45 Z M32.9609827,34.1968028 L32.0628547,35.5183341 L32.7556963,35.5183341 L33.9489236,34.1968028 L32.9609827,34.1968028 Z M31.8319075,39.9961438 L31.8319075,36.9296781 L34.5262916,36.9296781 L34.5262916,36.0187197 L30.8311362,36.0187197 L30.8311362,45 L34.5262916,45 L34.5262916,44.0890416 L31.8319075,44.0890416 L31.8319075,40.8942719 L34.025906,40.8942719 L34.025906,39.9961438 L31.8319075,39.9961438 Z M37.644079,35.9289069 C36.2712261,35.9289069 35.6297061,36.8270349 35.6297061,38.1870574 L35.6297061,42.8316623 C35.6297061,44.1916848 36.2712261,45.0898128 37.644079,45.0898128 C39.0297622,45.0898128 39.6712822,44.1916848 39.6712822,42.8316623 L39.6712822,40.1885998 L37.7980438,40.1885998 L37.7980438,41.0867279 L38.7218326,41.0867279 L38.7218326,42.8829839 C38.7218326,43.6912992 38.4010726,44.1788544 37.6697398,44.1788544 C36.9512373,44.1788544 36.6176469,43.6912992 36.6176469,42.8829839 L36.6176469,38.1357358 C36.6176469,37.3274205 36.9512373,36.8398653 37.6697398,36.8398653 C38.4010726,36.8398653 38.7218326,37.3274205 38.7218326,38.1357358 L38.7218326,38.9568814 L39.6712822,38.9568814 L39.6712822,38.1870574 C39.6712822,36.8270349 39.0297622,35.9289069 37.644079,35.9289069 Z M44.149092,43.1909135 L41.8781112,43.1909135 L41.5316904,45 L40.6079015,45 L42.3271752,36.0187197 L43.7770104,36.0187197 L45.4962841,45 L44.4955129,45 L44.149092,43.1909135 Z M42.994356,37.1477949 L42.0064152,42.3312767 L44.0079576,42.3312767 L42.994356,37.1477949 Z M48.3318027,45 L48.3318027,36.9296781 L49.9869243,36.9296781 L49.9869243,36.0187197 L45.6887402,36.0187197 L45.6887402,36.9296781 L47.3438618,36.9296781 L47.3438618,45 L48.3318027,45 Z M50.9235436,36.0187197 L50.9235436,45 L51.9243148,45 L51.9243148,36.0187197 L50.9235436,36.0187197 Z M53.1303725,42.8316623 L53.1303725,38.1870574 C53.1303725,36.8142045 53.8103838,35.9289069 55.1832366,35.9289069 C56.5689199,35.9289069 57.2489311,36.8142045 57.2489311,38.1870574 L57.2489311,42.8316623 C57.2489311,44.1916848 56.5689199,45.0898128 55.1832366,45.0898128 C53.8103838,45.0898128 53.1303725,44.1916848 53.1303725,42.8316623 Z M54.1183134,38.1357358 L54.1183134,42.8829839 C54.1183134,43.7041296 54.4647342,44.1788544 55.1832366,44.1788544 C55.9145694,44.1788544 56.2481599,43.7041296 56.2481599,42.8829839 L56.2481599,38.1357358 C56.2481599,37.3274205 55.9145694,36.8398653 55.1832366,36.8398653 C54.4647342,36.8398653 54.1183134,37.3274205 54.1183134,38.1357358 Z M59.3402864,37.7379933 L61.6369281,45 L62.6761905,45 L62.6761905,36.0187197 L61.7908929,36.0187197 L61.7908929,42.5109023 L59.712368,36.0187197 L58.4421584,36.0187197 L58.4421584,45 L59.3402864,45 L59.3402864,37.7379933 Z M65.8452995,35.9289069 C64.4981075,35.9289069 63.8565875,36.7885437 63.8565875,38.174227 C63.8565875,40.7018158 66.8589012,40.8942719 66.8589012,42.8958143 C66.8589012,43.7041296 66.5253107,44.1788544 65.8068083,44.1788544 C65.0883059,44.1788544 64.7547155,43.7041296 64.7547155,42.8958143 L64.7547155,42.3312767 L63.8180963,42.3312767 L63.8180963,42.8444927 C63.8180963,44.2045152 64.4596163,45.0898128 65.8324691,45.0898128 C67.205322,45.0898128 67.8596724,44.2045152 67.8596724,42.8444927 C67.8596724,40.3169038 64.8445283,40.1244478 64.8445283,38.110075 C64.8445283,37.3145901 65.1524579,36.8398653 65.8709603,36.8398653 C66.5894627,36.8398653 66.8973924,37.3145901 66.8973924,38.1229054 L66.8973924,38.4180046 L67.846842,38.4180046 L67.846842,38.174227 C67.846842,36.8142045 67.205322,35.9289069 65.8452995,35.9289069 Z M6.70998309,50.0187197 L6.70998309,59 L7.71075432,59 L7.71075432,50.0187197 L6.70998309,50.0187197 Z M9.87909206,51.7379933 L12.1757337,59 L13.2149962,59 L13.2149962,50.0187197 L12.3296985,50.0187197 L12.3296985,56.5109023 L10.2511737,50.0187197 L8.98096403,50.0187197 L8.98096403,59 L9.87909206,59 L9.87909206,51.7379933 Z M16.7818476,59 L16.7818476,50.9296781 L18.4369692,50.9296781 L18.4369692,50.0187197 L14.1387851,50.0187197 L14.1387851,50.9296781 L15.7939067,50.9296781 L15.7939067,59 L16.7818476,59 Z M20.3743598,53.9961438 L20.3743598,50.9296781 L23.0687438,50.9296781 L23.0687438,50.0187197 L19.3735885,50.0187197 L19.3735885,59 L23.0687438,59 L23.0687438,58.0890416 L20.3743598,58.0890416 L20.3743598,54.8942719 L22.5683582,54.8942719 L22.5683582,53.9961438 L20.3743598,53.9961438 Z M24.2491408,50.0187197 L26.2506832,50.0187197 C27.6620273,50.0187197 28.2522257,50.7372221 28.2522257,52.0715838 L28.2522257,52.8029166 C28.2522257,53.7908574 27.9058049,54.4067166 27.1359809,54.6504942 C27.9571265,54.8942719 28.2650561,55.5614527 28.2650561,56.5237327 L28.2650561,57.9222464 C28.2650561,58.3199888 28.2778865,58.6920704 28.4446817,59 L27.4310801,59 C27.3156065,58.743392 27.2642849,58.5124448 27.2642849,57.909416 L27.2642849,56.4980719 C27.2642849,55.4844703 26.78956,55.1637103 25.955584,55.1637103 L25.249912,55.1637103 L25.249912,59 L24.2491408,59 L24.2491408,50.0187197 Z M25.249912,54.2527518 L25.9940752,54.2527518 C26.78956,54.2527518 27.2642849,53.9961438 27.2642849,53.0210334 L27.2642849,52.1613966 C27.2642849,51.3530813 26.9691857,50.9296781 26.2250224,50.9296781 L25.249912,50.9296781 L25.249912,54.2527518 Z M30.4462242,51.7379933 L32.7428659,59 L33.7821284,59 L33.7821284,50.0187197 L32.8968307,50.0187197 L32.8968307,56.5109023 L30.8183058,50.0187197 L29.5480962,50.0187197 L29.5480962,59 L30.4462242,59 L30.4462242,51.7379933 Z M38.349751,57.1909135 L36.0787701,57.1909135 L35.7323493,59 L34.8085605,59 L36.5278341,50.0187197 L37.9776694,50.0187197 L39.696943,59 L38.6961718,59 L38.349751,57.1909135 Z M37.1950149,51.1477949 L36.2070741,56.3312767 L38.2086166,56.3312767 L37.1950149,51.1477949 Z M42.5324616,59 L42.5324616,50.9296781 L44.1875832,50.9296781 L44.1875832,50.0187197 L39.8893991,50.0187197 L39.8893991,50.9296781 L41.5445208,50.9296781 L41.5445208,59 L42.5324616,59 Z M45.1242025,50.0187197 L45.1242025,59 L46.1249738,59 L46.1249738,50.0187197 L45.1242025,50.0187197 Z M47.3310315,56.8316623 L47.3310315,52.1870574 C47.3310315,50.8142045 48.0110427,49.9289069 49.3838956,49.9289069 C50.7695788,49.9289069 51.44959,50.8142045 51.44959,52.1870574 L51.44959,56.8316623 C51.44959,58.1916848 50.7695788,59.0898128 49.3838956,59.0898128 C48.0110427,59.0898128 47.3310315,58.1916848 47.3310315,56.8316623 Z M48.3189723,52.1357358 L48.3189723,56.8829839 C48.3189723,57.7041296 48.6653931,58.1788544 49.3838956,58.1788544 C50.1152284,58.1788544 50.4488188,57.7041296 50.4488188,56.8829839 L50.4488188,52.1357358 C50.4488188,51.3274205 50.1152284,50.8398653 49.3838956,50.8398653 C48.6653931,50.8398653 48.3189723,51.3274205 48.3189723,52.1357358 Z M53.5409454,51.7379933 L55.837587,59 L56.8768495,59 L56.8768495,50.0187197 L55.9915518,50.0187197 L55.9915518,56.5109023 L53.913027,50.0187197 L52.6428173,50.0187197 L52.6428173,59 L53.5409454,59 L53.5409454,51.7379933 Z M61.4444721,57.1909135 L59.1734912,57.1909135 L58.8270704,59 L57.9032816,59 L59.6225552,50.0187197 L61.0723905,50.0187197 L62.7916642,59 L61.7908929,59 L61.4444721,57.1909135 Z M60.2897361,51.1477949 L59.3017952,56.3312767 L61.3033377,56.3312767 L60.2897361,51.1477949 Z M67.397778,59 L67.397778,58.0890416 L64.8316979,58.0890416 L64.8316979,50.0187197 L63.8309267,50.0187197 L63.8309267,59 L67.397778,59 Z M69.4121509,53.9961438 L69.4121509,50.9296781 L72.106535,50.9296781 L72.106535,50.0187197 L68.4113797,50.0187197 L68.4113797,59 L72.106535,59 L72.106535,58.0890416 L69.4121509,58.0890416 L69.4121509,54.8942719 L71.6061494,54.8942719 L71.6061494,53.9961438 L69.4121509,53.9961438 Z M75.1730008,49.9289069 C73.8258087,49.9289069 73.1842887,50.7885437 73.1842887,52.174227 C73.1842887,54.7018158 76.1866024,54.8942719 76.1866024,56.8958143 C76.1866024,57.7041296 75.853012,58.1788544 75.1345096,58.1788544 C74.4160071,58.1788544 74.0824167,57.7041296 74.0824167,56.8958143 L74.0824167,56.3312767 L73.1457975,56.3312767 L73.1457975,56.8444927 C73.1457975,58.2045152 73.7873175,59.0898128 75.1601704,59.0898128 C76.5330232,59.0898128 77.1873736,58.2045152 77.1873736,56.8444927 C77.1873736,54.3169038 74.1722295,54.1244478 74.1722295,52.110075 C74.1722295,51.3145901 74.4801592,50.8398653 75.1986616,50.8398653 C75.917164,50.8398653 76.2250936,51.3145901 76.2250936,52.1229054 L76.2250936,52.4180046 L77.1745432,52.4180046 L77.1745432,52.174227 C77.1745432,50.8142045 76.5330232,49.9289069 75.1730008,49.9289069 Z" id="Délégations-internat" fill="#2A2A2A"></path>
                        </g>
                        <g id="Group-40" stroke-width="1" fill="none" fill-rule="evenodd" transform="translate(5.000000, 179.000000)">
                            <path d="M37.3065278,12.3220219 C37.3065278,17.9374605 31.246302,18.8826333 31.246302,24.6092687 L31.246302,27 L40.0864479,27 L40.0864479,24.2200799 L34.3042141,24.2200799 C34.2764149,24.0810839 34.2764149,23.9420879 34.2764149,23.8030919 C34.2764149,20.6061838 40.3644399,18.3266493 40.3644399,12.2108251 C40.3644399,9.09731457 38.8076846,7.31816571 35.8053709,7.31816571 C32.8030572,7.31816571 31.246302,9.09731457 31.246302,12.2108251 L31.246302,14.1011707 L34.1374189,14.1011707 L34.1374189,12.0162307 C34.1374189,10.6262706 34.7490013,10.0980858 35.7219733,10.0980858 C36.6949454,10.0980858 37.3065278,10.5706722 37.3065278,12.3220219 Z M48.8709953,12.3220219 C48.8709953,17.9374605 42.8107695,18.8826333 42.8107695,24.6092687 L42.8107695,27 L51.6509154,27 L51.6509154,24.2200799 L45.8686816,24.2200799 C45.8408824,24.0810839 45.8408824,23.9420879 45.8408824,23.8030919 C45.8408824,20.6061838 51.9289074,18.3266493 51.9289074,12.2108251 C51.9289074,9.09731457 50.3721522,7.31816571 47.3698385,7.31816571 C44.3675247,7.31816571 42.8107695,9.09731457 42.8107695,12.2108251 L42.8107695,14.1011707 L45.7018864,14.1011707 L45.7018864,12.0162307 C45.7018864,10.6262706 46.3134688,10.0980858 47.2864409,10.0980858 C48.2594129,10.0980858 48.8709953,10.5706722 48.8709953,12.3220219 Z" id="22" fill="#F6A723"></path>
                            <path d="M2.88256279,37.1639208 L4.84561406,37.1639208 C6.2569581,37.1639208 6.85998693,37.9978969 6.85998693,39.3579193 L6.85998693,40.435673 C6.85998693,41.8598474 6.1928061,42.6040106 4.76863165,42.6040106 L3.88333402,42.6040106 L3.88333402,46.1452012 L2.88256279,46.1452012 L2.88256279,37.1639208 Z M3.88333402,41.7058826 L4.76863165,41.7058826 C5.51279488,41.7058826 5.87204609,41.3594618 5.87204609,40.499825 L5.87204609,39.3065977 C5.87204609,38.4854521 5.57694688,38.0748793 4.84561406,38.0748793 L3.88333402,38.0748793 L3.88333402,41.7058826 Z M11.0170367,44.3361147 L8.74605586,44.3361147 L8.39963504,46.1452012 L7.47584621,46.1452012 L9.19511987,37.1639208 L10.6449551,37.1639208 L12.3642288,46.1452012 L11.3634575,46.1452012 L11.0170367,44.3361147 Z M9.86230069,38.2929961 L8.87435986,43.4764779 L10.8759023,43.4764779 L9.86230069,38.2929961 Z M14.3657713,46.1452012 L15.3537122,46.1452012 L15.3537122,42.9247706 L17.2654418,37.1639208 L16.3159922,37.1639208 L14.9046481,41.5775786 L13.5061345,37.1639208 L12.4668721,37.1639208 L14.3657713,42.9247706 L14.3657713,46.1452012 Z M20.0368084,37.074108 C18.6896163,37.074108 18.0480963,37.9337449 18.0480963,39.3194281 C18.0480963,41.847017 21.05041,42.039473 21.05041,44.0410155 C21.05041,44.8493307 20.7168196,45.3240555 19.9983172,45.3240555 C19.2798148,45.3240555 18.9462243,44.8493307 18.9462243,44.0410155 L18.9462243,43.4764779 L18.0096051,43.4764779 L18.0096051,43.9896939 C18.0096051,45.3497163 18.6511251,46.235014 20.023978,46.235014 C21.3968308,46.235014 22.0511812,45.3497163 22.0511812,43.9896939 C22.0511812,41.462105 19.0360371,41.269649 19.0360371,39.2552761 C19.0360371,38.4597913 19.3439668,37.9850665 20.0624692,37.9850665 C20.7809716,37.9850665 21.0889012,38.4597913 21.0889012,39.2681065 L21.0889012,39.5632057 L22.0383508,39.5632057 L22.0383508,39.3194281 C22.0383508,37.9594057 21.3968308,37.074108 20.0368084,37.074108 Z M25.4255767,37.1639208 L27.4271192,37.1639208 C28.8384632,37.1639208 29.4286616,37.8824233 29.4286616,39.2167849 L29.4286616,39.9481177 C29.4286616,40.9360586 29.0822408,41.5519178 28.3124168,41.7956954 C29.1335624,42.039473 29.441492,42.7066538 29.441492,43.6689339 L29.441492,45.0674475 C29.441492,45.4651899 29.4543224,45.8372715 29.6211176,46.1452012 L28.607516,46.1452012 C28.4920424,45.8885931 28.4407208,45.6576459 28.4407208,45.0546171 L28.4407208,43.6432731 C28.4407208,42.6296714 27.965996,42.3089114 27.13202,42.3089114 L26.4263479,42.3089114 L26.4263479,46.1452012 L25.4255767,46.1452012 L25.4255767,37.1639208 Z M26.4263479,41.397953 L27.1705112,41.397953 C27.965996,41.397953 28.4407208,41.141345 28.4407208,40.1662345 L28.4407208,39.3065977 C28.4407208,38.4982825 28.1456216,38.0748793 27.4014584,38.0748793 L26.4263479,38.0748793 L26.4263479,41.397953 Z M31.7381338,41.141345 L31.7381338,38.0748793 L34.4325179,38.0748793 L34.4325179,37.1639208 L30.7373625,37.1639208 L30.7373625,46.1452012 L34.4325179,46.1452012 L34.4325179,45.2342427 L31.7381338,45.2342427 L31.7381338,42.039473 L33.9321323,42.039473 L33.9321323,41.141345 L31.7381338,41.141345 Z M35.6129148,37.1639208 L37.575966,37.1639208 C38.9873101,37.1639208 39.5903389,37.9978969 39.5903389,39.3579193 L39.5903389,40.435673 C39.5903389,41.8598474 38.9231581,42.6040106 37.4989836,42.6040106 L36.613686,42.6040106 L36.613686,46.1452012 L35.6129148,46.1452012 L35.6129148,37.1639208 Z M36.613686,41.7058826 L37.4989836,41.7058826 C38.2431469,41.7058826 38.6023981,41.3594618 38.6023981,40.499825 L38.6023981,39.3065977 C38.6023981,38.4854521 38.3072989,38.0748793 37.575966,38.0748793 L36.613686,38.0748793 L36.613686,41.7058826 Z M40.6296014,37.1639208 L42.6311439,37.1639208 C44.0424879,37.1639208 44.6326864,37.8824233 44.6326864,39.2167849 L44.6326864,39.9481177 C44.6326864,40.9360586 44.2862655,41.5519178 43.5164415,41.7956954 C44.3375871,42.039473 44.6455168,42.7066538 44.6455168,43.6689339 L44.6455168,45.0674475 C44.6455168,45.4651899 44.6583472,45.8372715 44.8251424,46.1452012 L43.8115407,46.1452012 C43.6960671,45.8885931 43.6447455,45.6576459 43.6447455,45.0546171 L43.6447455,43.6432731 C43.6447455,42.6296714 43.1700207,42.3089114 42.3360447,42.3089114 L41.6303727,42.3089114 L41.6303727,46.1452012 L40.6296014,46.1452012 L40.6296014,37.1639208 Z M41.6303727,41.397953 L42.3745359,41.397953 C43.1700207,41.397953 43.6447455,41.141345 43.6447455,40.1662345 L43.6447455,39.3065977 C43.6447455,38.4982825 43.3496463,38.0748793 42.6054831,38.0748793 L41.6303727,38.0748793 L41.6303727,41.397953 Z M48.0712337,35.342004 L47.1731057,36.6635352 L47.8659473,36.6635352 L49.0591746,35.342004 L48.0712337,35.342004 Z M46.9421585,41.141345 L46.9421585,38.0748793 L49.6365426,38.0748793 L49.6365426,37.1639208 L45.9413873,37.1639208 L45.9413873,46.1452012 L49.6365426,46.1452012 L49.6365426,45.2342427 L46.9421585,45.2342427 L46.9421585,42.039473 L49.136157,42.039473 L49.136157,41.141345 L46.9421585,41.141345 Z M52.7030084,37.074108 C51.3558163,37.074108 50.7142963,37.9337449 50.7142963,39.3194281 C50.7142963,41.847017 53.71661,42.039473 53.71661,44.0410155 C53.71661,44.8493307 53.3830196,45.3240555 52.6645172,45.3240555 C51.9460147,45.3240555 51.6124243,44.8493307 51.6124243,44.0410155 L51.6124243,43.4764779 L50.6758051,43.4764779 L50.6758051,43.9896939 C50.6758051,45.3497163 51.3173251,46.235014 52.690178,46.235014 C54.0630308,46.235014 54.7173812,45.3497163 54.7173812,43.9896939 C54.7173812,41.462105 51.7022371,41.269649 51.7022371,39.2552761 C51.7022371,38.4597913 52.0101667,37.9850665 52.7286692,37.9850665 C53.4471716,37.9850665 53.7551012,38.4597913 53.7551012,39.2681065 L53.7551012,39.5632057 L54.7045508,39.5632057 L54.7045508,39.3194281 C54.7045508,37.9594057 54.0630308,37.074108 52.7030084,37.074108 Z M56.8472278,41.141345 L56.8472278,38.0748793 L59.5416119,38.0748793 L59.5416119,37.1639208 L55.8464565,37.1639208 L55.8464565,46.1452012 L59.5416119,46.1452012 L59.5416119,45.2342427 L56.8472278,45.2342427 L56.8472278,42.039473 L59.0412263,42.039473 L59.0412263,41.141345 L56.8472278,41.141345 Z M61.6073064,38.8831945 L63.9039481,46.1452012 L64.9432105,46.1452012 L64.9432105,37.1639208 L64.0579129,37.1639208 L64.0579129,43.6561035 L61.979388,37.1639208 L60.7091784,37.1639208 L60.7091784,46.1452012 L61.6073064,46.1452012 L61.6073064,38.8831945 Z M68.5100619,46.1452012 L68.5100619,38.0748793 L70.1651836,38.0748793 L70.1651836,37.1639208 L65.8669994,37.1639208 L65.8669994,38.0748793 L67.5221211,38.0748793 L67.5221211,46.1452012 L68.5100619,46.1452012 Z M73.2316493,35.342004 L72.3335213,36.6635352 L73.0263629,36.6635352 L74.2195902,35.342004 L73.2316493,35.342004 Z M72.1025741,41.141345 L72.1025741,38.0748793 L74.7969582,38.0748793 L74.7969582,37.1639208 L71.1018029,37.1639208 L71.1018029,46.1452012 L74.7969582,46.1452012 L74.7969582,45.2342427 L72.1025741,45.2342427 L72.1025741,42.039473 L74.2965726,42.039473 L74.2965726,41.141345 L72.1025741,41.141345 Z M77.863424,37.074108 C76.5162319,37.074108 75.8747119,37.9337449 75.8747119,39.3194281 C75.8747119,41.847017 78.8770256,42.039473 78.8770256,44.0410155 C78.8770256,44.8493307 78.5434352,45.3240555 77.8249328,45.3240555 C77.1064303,45.3240555 76.7728399,44.8493307 76.7728399,44.0410155 L76.7728399,43.4764779 L75.8362207,43.4764779 L75.8362207,43.9896939 C75.8362207,45.3497163 76.4777407,46.235014 77.8505936,46.235014 C79.2234464,46.235014 79.8777968,45.3497163 79.8777968,43.9896939 C79.8777968,41.462105 76.8626527,41.269649 76.8626527,39.2552761 C76.8626527,38.4597913 77.1705823,37.9850665 77.8890848,37.9850665 C78.6075872,37.9850665 78.9155168,38.4597913 78.9155168,39.2681065 L78.9155168,39.5632057 L79.8649664,39.5632057 L79.8649664,39.3194281 C79.8649664,37.9594057 79.2234464,37.074108 77.863424,37.074108 Z" id="pays-représentés" fill="#2A2A2A"></path>
                        </g>
                        <g id="Group-43" stroke-width="1" fill="none" fill-rule="evenodd" transform="translate(47.000000, 28.000000)">
                            <path d="M146.20155,57.2067039 C179.184698,57.81338 207.982205,75.9765624 223.75969,102.793296" id="Stroke-1" stroke="#F6A723" stroke-width="8.01899996" transform="translate(184.980620, 80.000000) rotate(30.000000) translate(-184.980620, -80.000000) "></path>
                            <path d="M76.2209302,61.6759777 C93.2417814,33.3168323 123.268624,17.3384225 154.224806,16.9832402" id="Stroke-3" stroke="#E74892" stroke-width="8.01899996" transform="translate(115.222868, 39.329609) rotate(30.000000) translate(-115.222868, -39.329609) "></path>
                            <path d="M45.9557009,121.117318 C30.3888722,92.3835572 31.5742515,58.5836052 46.3565891,31.7318436" id="Stroke-5" stroke="#E74427" stroke-width="8.01899996" transform="translate(40.562016, 76.424581) rotate(30.000000) translate(-40.562016, -76.424581) "></path>
                            <path d="M83.7984496,182.346369 C50.8153019,181.739693 22.0177947,163.57651 6.24031008,136.759777" id="Stroke-7" stroke="#F6A723" stroke-width="8.01899996" transform="translate(45.019380, 159.553073) rotate(30.000000) translate(-45.019380, -159.553073) "></path>
                            <path d="M153.77907,178.324022 C136.758219,206.683168 106.732059,222.661578 75.7751938,223.01676" id="Stroke-9" stroke="#80BA27" stroke-width="8.01899996" transform="translate(114.777132, 200.670391) rotate(30.000000) translate(-114.777132, -200.670391) "></path>
                            <path d="M184.044291,117.988827 C199.610793,146.722588 198.426104,180.52254 183.643411,207.374302" id="Stroke-11" stroke="#30B3E8" stroke-width="8.01899996" transform="translate(189.437984, 162.681564) rotate(30.000000) translate(-189.437984, -162.681564) "></path>
                        </g>
                    </g>
                </g>
            </g>
        </g>
    </g>
</svg>