<?xml version="1.0" encoding="UTF-8"?>
<svg width="84px" height="84px" viewBox="0 0 84 84" version="1.1" xmlns="http://www.w3.org/2000/svg" xmlns:xlink="http://www.w3.org/1999/xlink">
    <!-- Generator: Sketch 47.1 (45422) - http://www.bohemiancoding.com/sketch -->
    <title>Group 4</title>
    <desc>Created with Sketch.</desc>
    <defs>
        <polygon id="path-1" points="20.8807534 33.5142857 41.7613636 33.5142857 41.7613636 0.242857143 20.8807534 0.242857143 0.000143181818 0.242857143 0.000143181818 33.5142857"></polygon>
    </defs>
    <g id="Desktop" stroke="none" stroke-width="1" fill="none" fill-rule="evenodd">
        <g id="Visiteurs-pro" transform="translate(-1177.000000, -52.000000)">
            <g id="Group-4" transform="translate(1178.000000, 53.000000)">
                <g id="pro" transform="translate(20.000000, 20.000000)">
                    <g id="Page-1">
                        <path d="M32.3328886,17 L22.7922068,17 C22.3302068,17 21.9545932,17.3812857 21.9545932,17.85 C21.9545932,18.3187143 22.3302068,18.7 22.7922068,18.7 L32.3328886,18.7 C32.7948886,18.7 33.1705023,18.3187143 33.1705023,17.85 C33.1705023,17.3812857 32.7948886,17 32.3328886,17" id="Fill-1" fill="#FFFFFF"></path>
                        <path d="M28.5198614,20.8857143 L22.7868614,20.8857143 C22.327725,20.8857143 21.9544977,21.267 21.9544977,21.7357143 C21.9544977,22.2044286 22.327725,22.5857143 22.7868614,22.5857143 L28.5198614,22.5857143 C28.9789977,22.5857143 29.352225,22.2044286 29.352225,21.7357143 C29.352225,21.267 28.9789977,20.8857143 28.5198614,20.8857143" id="Fill-3" fill="#FFFFFF"></path>
                        <path d="M37.1079545,24.7714286 L22.7897727,24.7714286 C22.3292045,24.7714286 21.9545455,25.1527143 21.9545455,25.6214286 C21.9545455,26.0901429 22.3292045,26.4714286 22.7897727,26.4714286 L37.1079545,26.4714286 C37.5685227,26.4714286 37.9431818,26.0901429 37.9431818,25.6214286 C37.9431818,25.1527143 37.5685227,24.7714286 37.1079545,24.7714286" id="Fill-5" fill="#FFFFFF"></path>
                        <path d="M20.8806818,4.37142857 C20.4201136,4.37142857 20.0454545,4.75271429 20.0454545,5.22142857 C20.0454545,5.69014286 20.4201136,6.07142857 20.8806818,6.07142857 C21.34125,6.07142857 21.7159091,5.69014286 21.7159091,5.22142857 C21.7159091,4.75271429 21.34125,4.37142857 20.8806818,4.37142857" id="Fill-7" fill="#FFFFFF"></path>
                        <g id="Group-11" transform="translate(0.000000, 0.242857)">
                            <mask id="mask-2" fill="white">
                                <use xlink:href="#path-1"></use>
                            </mask>
                            <g id="Clip-10"></g>
                            <path d="M39.9249614,9.22857143 L40.0862795,9.09742857 L40.0910523,9.34611429 L40.0862795,31.8142857 L1.67059773,31.8181714 L1.67537045,9.22857143 L16.2269386,9.22857143 L16.2274159,9.35 C16.229325,10.3539714 17.0320977,11.1714286 18.0167114,11.1714286 L23.7449386,11.1714286 C24.7295523,11.1714286 25.532325,10.3539714 25.5337568,9.35 L25.5337568,9.22857143 L39.9249614,9.22857143 Z M17.8978705,4.98051429 C17.8978705,3.30577143 19.2356659,1.94285714 20.880825,1.94285714 C22.5255068,1.94285714 23.8637795,3.30577143 23.8637795,4.98051429 L23.8642568,9.47142857 L17.8978705,9.46851429 L17.8978705,4.98051429 Z M20.880825,0.242857143 C18.3150068,0.242857143 16.2274159,2.36785714 16.2274159,4.98051429 L16.2274159,7.52857143 L1.79468864,7.52857143 C0.805302273,7.52857143 0.000143181818,8.34408571 0.000143181818,9.34611429 L0.000143181818,31.6967429 C0.000143181818,32.6987714 0.805302273,33.5142857 1.79468864,33.5142857 L39.9669614,33.5142857 C40.9563477,33.5142857 41.7615068,32.6987714 41.7615068,31.6967429 L41.7615068,9.34611429 C41.7615068,8.34408571 40.9563477,7.52857143 39.9669614,7.52857143 L25.5342341,7.52857143 L25.5342341,4.98051429 C25.5342341,2.36785714 23.4466432,0.242857143 20.880825,0.242857143 L20.880825,0.242857143 Z" id="Fill-9" fill="#FFFFFF" mask="url(#mask-2)"></path>
                        </g>
                        <path d="M16.97955,25.4340886 L16.8669136,25.5968029 L16.7762318,25.4200029 C16.2373909,24.3689171 15.4069364,23.5252314 14.3745955,22.9812314 L14.2462091,22.9132314 L14.3364136,22.7976314 C14.7926864,22.2128314 15.0341864,21.5095171 15.0341864,20.7639457 C15.0341864,18.9561171 13.5890045,17.4853743 11.8125955,17.4853743 C10.0361864,17.4853743 8.59100455,18.9561171 8.59100455,20.7639457 C8.59100455,21.5090314 8.83202727,22.2123457 9.28877727,22.7976314 L9.37898182,22.9132314 L9.25011818,22.9812314 C8.2173,23.5252314 7.38636818,24.3689171 6.84752727,25.4190314 L6.75732273,25.5958314 L6.64420909,25.4326314 C5.88820909,24.3412314 5.48873182,23.0623457 5.48873182,21.7353743 C5.48873182,18.1867457 8.32564091,15.29966 11.8125955,15.29966 C15.29955,15.29966 18.1364591,18.1867457 18.1364591,21.7353743 C18.1364591,23.0638029 17.7365045,24.3422029 16.97955,25.4340886 L16.97955,25.4340886 Z M10.2614591,20.7639457 C10.2614591,19.8935457 10.9573227,19.1853743 11.8125955,19.1853743 C12.6678682,19.1853743 13.3637318,19.8935457 13.3637318,20.7639457 C13.3637318,21.6343457 12.6678682,22.3425171 11.8125955,22.3425171 C10.9573227,22.3425171 10.2614591,21.6343457 10.2614591,20.7639457 L10.2614591,20.7639457 Z M15.5105045,26.94466 C14.4228,27.7475457 13.1437091,28.1715743 11.8125955,28.1715743 C10.4814818,28.1715743 9.20239091,27.7475457 8.11373182,26.94466 L8.04309545,26.8931743 L8.0703,26.80866 C8.60150455,25.1543171 10.1053909,24.0430029 11.8125955,24.0430029 C13.5198,24.0430029 15.0236864,25.1548029 15.5544136,26.8091457 L15.5811409,26.8931743 L15.5105045,26.94466 Z M11.8125955,13.59966 C7.40450455,13.59966 3.81827727,17.2493171 3.81827727,21.7353743 C3.81827727,26.2214314 7.40450455,29.8715743 11.8125955,29.8715743 C16.2206864,29.8715743 19.8069136,26.2214314 19.8069136,21.7353743 C19.8069136,17.2493171 16.2206864,13.59966 11.8125955,13.59966 L11.8125955,13.59966 Z" id="Fill-12" fill="#FFFFFF"></path>
                    </g>
                </g>
                <circle id="Oval-3" stroke="#FFFFFF" stroke-width="1.89999998" opacity="0.38176306" cx="41" cy="41" r="41"></circle>
                <circle id="Oval-3" stroke="#FFFFFF" stroke-width="0.949999988" opacity="0.504197761" stroke-dasharray="1.899999976158142,1.899999976158142" cx="41" cy="41" r="34.3255814"></circle>
            </g>
        </g>
    </g>
</svg>