<?xml version="1.0" encoding="utf-8"?>
<!-- Generator: Adobe Illustrator 22.0.1, SVG Export Plug-In . SVG Version: 6.00 Build 0)  -->
<svg version="1.1" id="Calque_1" xmlns="http://www.w3.org/2000/svg" xmlns:xlink="http://www.w3.org/1999/xlink" x="0px" y="0px"
	 viewBox="0 0 84 84" style="enable-background:new 0 0 84 84;" xml:space="preserve">
<style type="text/css">
	.st0{fill:#F2A72B;}
	.st1{filter:url(#Adobe_OpacityMaskFilter);}
	.st2{fill:#FFFFFF;}
	.st3{mask:url(#mask-2_1_);fill:#F2A72B;}
	.st4{opacity:0.3818;fill:none;stroke:#F2A72B;stroke-width:1.9;enable-background:new    ;}
	.st5{opacity:0.5042;fill:none;stroke:#F2A72B;stroke-width:0.95;stroke-dasharray:1.9,1.9;enable-background:new    ;}
</style>
<title>Group 4</title>
<desc>Created with Sketch.</desc>
<g id="Desktop">
	<g id="Visiteurs-pro" transform="translate(-1177.000000, -52.000000)">
		<g id="Group-4" transform="translate(1178.000000, 53.000000)">
			<g id="pro" transform="translate(20.000000, 20.000000)">
				<g id="Page-1">
					<path id="Fill-1" class="st0" d="M32.3,17h-9.5c-0.5,0-0.8,0.4-0.8,0.9s0.4,0.9,0.8,0.9h9.5c0.5,0,0.8-0.4,0.8-0.9
						S32.8,17,32.3,17"/>
					<path id="Fill-3" class="st0" d="M28.5,20.9h-5.7c-0.5,0-0.8,0.4-0.8,0.9s0.4,0.9,0.8,0.9h5.7c0.5,0,0.8-0.4,0.8-0.9
						S29,20.9,28.5,20.9"/>
					<path id="Fill-5" class="st0" d="M37.1,24.8H22.8c-0.5,0-0.8,0.4-0.8,0.9c0,0.5,0.4,0.8,0.8,0.8h14.3c0.5,0,0.8-0.4,0.8-0.8
						C37.9,25.2,37.6,24.8,37.1,24.8"/>
					<path id="Fill-7" class="st0" d="M20.9,4.4c-0.5,0-0.8,0.4-0.8,0.8s0.4,0.9,0.8,0.9s0.8-0.4,0.8-0.9S21.3,4.4,20.9,4.4"/>
					<g id="Group-11" transform="translate(0.000000, 0.242857)">
						<g id="Clip-10">
						</g>
						<defs>
							<filter id="Adobe_OpacityMaskFilter" filterUnits="userSpaceOnUse" x="0" y="0.2" width="41.8" height="33.3">
								<feColorMatrix  type="matrix" values="1 0 0 0 0  0 1 0 0 0  0 0 1 0 0  0 0 0 1 0"/>
							</filter>
						</defs>
						<mask maskUnits="userSpaceOnUse" x="0" y="0.2" width="41.8" height="33.3" id="mask-2_1_">
							<g class="st1">
								<polygon id="path-1_1_" class="st2" points="20.9,33.5 41.8,33.5 41.8,0.2 20.9,0.2 0,0.2 0,33.5 								"/>
							</g>
						</mask>
						<path id="Fill-9" class="st3" d="M39.9,9.2l0.2-0.1l0,0.2l0,22.5l-38.4,0l0-22.6h14.6l0,0.1c0,1,0.8,1.8,1.8,1.8h5.7
							c1,0,1.8-0.8,1.8-1.8V9.2H39.9z M17.9,5c0-1.7,1.3-3,3-3c1.6,0,3,1.4,3,3l0,4.5l-6,0V5z M20.9,0.2c-2.6,0-4.7,2.1-4.7,4.7v2.5
							H1.8C0.8,7.5,0,8.3,0,9.3v22.4c0,1,0.8,1.8,1.8,1.8H40c1,0,1.8-0.8,1.8-1.8V9.3c0-1-0.8-1.8-1.8-1.8H25.5V5
							C25.5,2.4,23.4,0.2,20.9,0.2L20.9,0.2z"/>
					</g>
					<path id="Fill-12" class="st0" d="M17,25.4l-0.1,0.2l-0.1-0.2c-0.5-1.1-1.4-1.9-2.4-2.4l-0.1-0.1l0.1-0.1
						c0.5-0.6,0.7-1.3,0.7-2c0-1.8-1.4-3.3-3.2-3.3S8.6,19,8.6,20.8c0,0.7,0.2,1.4,0.7,2l0.1,0.1L9.3,23c-1,0.5-1.9,1.4-2.4,2.4
						l-0.1,0.2l-0.1-0.2c-0.8-1.1-1.2-2.4-1.2-3.7c0-3.5,2.8-6.4,6.3-6.4s6.3,2.9,6.3,6.4C18.1,23.1,17.7,24.3,17,25.4L17,25.4z
						 M10.3,20.8c0-0.9,0.7-1.6,1.6-1.6c0.9,0,1.6,0.7,1.6,1.6c0,0.9-0.7,1.6-1.6,1.6C11,22.3,10.3,21.6,10.3,20.8L10.3,20.8z
						 M15.5,26.9c-1.1,0.8-2.4,1.2-3.7,1.2s-2.6-0.4-3.7-1.2L8,26.9l0-0.1c0.5-1.7,2-2.8,3.7-2.8s3.2,1.1,3.7,2.8L15.5,26.9
						L15.5,26.9z M11.8,13.6c-4.4,0-8,3.6-8,8.1s3.6,8.1,8,8.1s8-3.7,8-8.1S16.2,13.6,11.8,13.6L11.8,13.6z"/>
				</g>
			</g>
			<circle id="Oval-3" class="st4" cx="41" cy="41" r="41"/>
			<circle id="Oval-3_1_" class="st5" cx="41" cy="41" r="34.3"/>
		</g>
	</g>
</g>
</svg>
