<?xml version="1.0" encoding="UTF-8"?>
<svg width="106px" height="73px" viewBox="0 0 106 73" version="1.1" xmlns="http://www.w3.org/2000/svg" xmlns:xlink="http://www.w3.org/1999/xlink">
    <!-- Generator: Sketch 47.1 (45422) - http://www.bohemiancoding.com/sketch -->
    <title>Group 34</title>
    <desc>Created with Sketch.</desc>
    <defs></defs>
    <g id="Desktop" stroke="none" stroke-width="1" fill="none" fill-rule="evenodd">
        <g id="Espace-exposant" transform="translate(-509.000000, -4761.000000)">
            <g id="Group-27" transform="translate(488.000000, 4723.000000)">
                <g id="Group-24">
                    <g id="Group-34" transform="translate(21.000000, 38.000000)">
                        <path d="M49.5068359,37.0205078 C49.5068359,49.2386679 47.5050656,58.2825227 43.5014648,64.1523438 C39.4978641,70.0221648 33.3330494,72.9570312 25.0068359,72.9570312 C16.935832,72.9570312 10.8507692,69.9264626 6.75146484,63.8652344 C2.65216049,57.8040062 0.602539062,48.8558534 0.602539062,37.0205078 C0.602539062,24.674743 2.59633423,15.5750618 6.58398438,9.72119141 C10.5716345,3.86732099 16.7125236,0.940429688 25.0068359,0.940429688 C33.0778398,0.940429688 39.178853,4.00289906 43.3100586,10.1279297 C47.4412641,16.2529603 49.5068359,25.2170634 49.5068359,37.0205078 Z M15.2929688,37.0205078 C15.2929688,45.6019309 16.0346606,51.7507952 17.5180664,55.4672852 C19.0014723,59.1837751 21.4977038,61.0419922 25.0068359,61.0419922 C28.4521657,61.0419922 30.940422,59.1598496 32.4716797,55.3955078 C34.0029373,51.6311661 34.7685547,45.5062273 34.7685547,37.0205078 C34.7685547,28.4390847 33.9949622,22.27427 32.4477539,18.5258789 C30.9005456,14.7774878 28.4202645,12.9033203 25.0068359,12.9033203 C21.529605,12.9033203 19.0413486,14.7774878 17.5419922,18.5258789 C16.0426357,22.27427 15.2929688,28.4390847 15.2929688,37.0205078 Z M103.100586,17.6884766 C103.100586,22.0589411 101.776706,25.7753753 99.1289062,28.8378906 C96.4811066,31.9004059 92.7646724,34.0058536 87.9794922,35.1542969 L87.9794922,35.4414062 C93.6260048,36.1432327 97.9007016,37.8578965 100.803711,40.5854492 C103.70672,43.3130019 105.158203,46.9895602 105.158203,51.6152344 C105.158203,58.3463878 102.717798,63.5860815 97.8369141,67.3344727 C92.9560303,71.0828638 85.9857224,72.9570312 76.9257812,72.9570312 C69.3332954,72.9570312 62.6022429,71.6969527 56.7324219,69.1767578 L56.7324219,56.5917969 C59.444024,57.9635485 62.4267415,59.0800738 65.6806641,59.9414062 C68.9345866,60.8027387 72.1565596,61.2333984 75.3466797,61.2333984 C80.2275635,61.2333984 83.8323451,60.4039796 86.1611328,58.7451172 C88.4899205,57.0862547 89.6542969,54.4225444 89.6542969,50.7539062 C89.6542969,47.4680825 88.3144665,45.1393298 85.6347656,43.7675781 C82.9550647,42.3958265 78.6803679,41.7099609 72.8105469,41.7099609 L67.4990234,41.7099609 L67.4990234,30.3691406 L72.90625,30.3691406 C78.3294542,30.3691406 82.293119,29.6593495 84.7973633,28.2397461 C87.3016076,26.8201426 88.5537109,24.3877125 88.5537109,20.9423828 C88.5537109,15.6467834 85.2360358,12.9990234 78.6005859,12.9990234 C76.3036995,12.9990234 73.9669715,13.3818321 71.590332,14.1474609 C69.2136925,14.9130898 66.5739077,16.2369698 63.6708984,18.1191406 L56.828125,7.92675781 C63.2083652,3.33298484 70.8166876,1.03613281 79.6533203,1.03613281 C86.894893,1.03613281 92.6130975,2.50356605 96.8081055,5.43847656 C101.003113,8.37338707 103.100586,12.4566796 103.100586,17.6884766 Z" id="03" fill="#F5F5F5"></path>
                        <path d="M73.2358974,53.2121667 C74.1577851,53.9921667 74.2592368,55.3615 73.4652666,56.2671667 C69.078581,61.2526667 63.2274615,64 56.9793568,64 C46.1548959,64 37.1653884,55.771 34.6026289,44.5 L27.2054729,44.5 C25.9880519,44.5 25,43.5293333 25,42.3333333 C25,41.1373333 25.9880519,40.1666667 27.2054729,40.1666667 L33.9431925,40.1666667 C33.8373298,38.7236667 33.8373298,37.2763333 33.9431925,35.8333333 L27.2054729,35.8333333 C25.9880519,35.8333333 25,34.8626667 25,33.6666667 C25,32.4706667 25.9880519,31.5 27.2054729,31.5 L34.6026289,31.5 C37.158772,20.2355 46.1504849,12 56.9793568,12 C63.2274615,12 69.078581,14.7451667 73.4652666,19.7306667 C74.2592368,20.6363333 74.1577851,22.0056667 73.2358974,22.7878333 C72.3140098,23.57 70.9179454,23.4681667 70.1239752,22.5646667 C66.5930131,18.5455 61.924027,16.3333333 56.9793568,16.3333333 C48.3272867,16.3333333 41.4175401,22.9958333 39.0973827,31.5 L53.6711475,31.5 C54.8885685,31.5 55.8766204,32.4706667 55.8766204,33.6666667 C55.8766204,34.8626667 54.8885685,35.8333333 53.6711475,35.8333333 L38.3188507,35.8333333 C38.1931388,37.2741667 38.1931388,38.7258333 38.3188507,40.1666667 L53.6711475,40.1666667 C54.8885685,40.1666667 55.8766204,41.1373333 55.8766204,42.3333333 C55.8766204,43.5293333 54.8885685,44.5 53.6711475,44.5 L39.0973827,44.5 C41.4572386,53.1428333 48.4574096,59.6666667 56.9793568,59.6666667 C61.924027,59.6666667 66.5930131,57.4545 70.1239752,53.4375 C70.9179454,52.5318333 72.3140098,52.43 73.2358974,53.2121667" id="Fill-1" fill="#215AD6"></path>
                    </g>
                </g>
            </g>
        </g>
    </g>
</svg>