<?xml version="1.0" encoding="UTF-8"?>
<svg width="35px" height="36px" viewBox="0 0 35 36" version="1.1" xmlns="http://www.w3.org/2000/svg" xmlns:xlink="http://www.w3.org/1999/xlink">
    <!-- Generator: Sketch 47.1 (45422) - http://www.bohemiancoding.com/sketch -->
    <title>Page 1</title>
    <desc>Created with Sketch.</desc>
    <defs></defs>
    <g id="Desktop" stroke="none" stroke-width="1" fill="none" fill-rule="evenodd">
        <g id="Espace-exposant" transform="translate(-613.000000, -3970.000000)" stroke="#215AD6" stroke-width="0.780000074" fill="#215AD6">
            <g id="Group-7" transform="translate(584.000000, 3941.000000)">
                <path d="M41.1889324,34.7083492 L62.3626719,34.7083492 C62.714477,34.7083492 63,34.4189563 63,34.0614202 C63,33.7038841 62.714477,33.4144912 62.3626719,33.4144912 L41.1889324,33.4144912 C40.8371273,33.4144912 40.5516043,33.7038841 40.5516043,34.0614202 C40.5516043,34.4189563 40.8371273,34.7083492 41.1889324,34.7083492 L41.1889324,34.7083492 Z M36.7276356,36.6133394 C36.7276356,36.7323744 36.6320364,36.8289824 36.5151929,36.8289824 L31.4870989,36.8289824 C31.3702554,36.8289824 31.2746562,36.7323744 31.2746562,36.6133394 L31.2746562,31.509501 C31.2746562,31.390466 31.3702554,31.293858 31.4870989,31.293858 L36.5151929,31.293858 C36.6320364,31.293858 36.7276356,31.390466 36.7276356,31.509501 L36.7276356,36.6133394 Z M36.5151929,30 L31.4870989,30 C30.6670701,30 30,30.677119 30,31.509501 L30,36.6133394 C30,37.4457214 30.6670701,38.1228404 31.4870989,38.1228404 L36.5151929,38.1228404 C37.3352217,38.1228404 38.0022918,37.4457214 38.0022918,36.6133394 L38.0022918,31.509501 C38.0022918,30.677119 37.3352217,30 36.5151929,30 L36.5151929,30 Z M62.3626719,59.2916508 L41.1889324,59.2916508 C40.8371273,59.2916508 40.5516043,59.5810437 40.5516043,59.9385798 C40.5516043,60.2961159 40.8371273,60.5855088 41.1889324,60.5855088 L62.3626719,60.5855088 C62.714477,60.5855088 63,60.2961159 63,59.9385798 C63,59.5810437 62.714477,59.2916508 62.3626719,59.2916508 L62.3626719,59.2916508 Z M36.7276356,62.490499 C36.7276356,62.609534 36.6320364,62.706142 36.5151929,62.706142 L31.4870989,62.706142 C31.3702554,62.706142 31.2746562,62.609534 31.2746562,62.490499 L31.2746562,57.3866606 C31.2746562,57.2676256 31.3702554,57.1710176 31.4870989,57.1710176 L36.5151929,57.1710176 C36.6320364,57.1710176 36.7276356,57.2676256 36.7276356,57.3866606 L36.7276356,62.490499 Z M36.5151929,55.8771596 L31.4870989,55.8771596 C30.6670701,55.8771596 30,56.5542786 30,57.3866606 L30,62.490499 C30,63.322881 30.6670701,64 31.4870989,64 L36.5151929,64 C37.3352217,64 38.0022918,63.322881 38.0022918,62.490499 L38.0022918,57.3866606 C38.0022918,56.5542786 37.3352217,55.8771596 36.5151929,55.8771596 L36.5151929,55.8771596 Z M62.3626719,46.353071 L41.1889324,46.353071 C40.8371273,46.353071 40.5516043,46.6424639 40.5516043,47 C40.5516043,47.3575361 40.8371273,47.646929 41.1889324,47.646929 L62.3626719,47.646929 C62.714477,47.646929 63,47.3575361 63,47 C63,46.6424639 62.714477,46.353071 62.3626719,46.353071 L62.3626719,46.353071 Z M36.7276356,49.5519192 C36.7276356,49.6709542 36.6320364,49.7675622 36.5151929,49.7675622 L31.4870989,49.7675622 C31.3702554,49.7675622 31.2746562,49.6709542 31.2746562,49.5519192 L31.2746562,44.4480808 C31.2746562,44.3290458 31.3702554,44.2324378 31.4870989,44.2324378 L36.5151929,44.2324378 C36.6320364,44.2324378 36.7276356,44.3290458 36.7276356,44.4480808 L36.7276356,49.5519192 Z M36.5151929,42.9385798 L31.4870989,42.9385798 C30.6670701,42.9385798 30,43.6156988 30,44.4480808 L30,49.5519192 C30,50.3843012 30.6670701,51.0614202 31.4870989,51.0614202 L36.5151929,51.0614202 C37.3352217,51.0614202 38.0022918,50.3843012 38.0022918,49.5519192 L38.0022918,44.4480808 C38.0022918,43.6156988 37.3352217,42.9385798 36.5151929,42.9385798 L36.5151929,42.9385798 Z" id="Page-1"></path>
            </g>
        </g>
    </g>
</svg>