<?xml version="1.0" encoding="UTF-8"?>
<svg width="20px" height="27px" viewBox="0 0 20 27" version="1.1" xmlns="http://www.w3.org/2000/svg" xmlns:xlink="http://www.w3.org/1999/xlink">
    <!-- Generator: Sketch 47.1 (45422) - http://www.bohemiancoding.com/sketch -->
    <title>Page 1</title>
    <desc>Created with Sketch.</desc>
    <defs>
        <polygon id="path-1" points="0 27 20 27 20 0 0 0"></polygon>
    </defs>
    <g id="Symbols" stroke="none" stroke-width="1" fill="none" fill-rule="evenodd">
        <g id="locker">
            <g id="Page-1">
                <path d="M9.5,17.7722162 C8.9921875,17.7722162 8.5625,18.1712006 8.5625,18.6423649 C8.5625,19.1138919 8.9921875,19.513239 9.5,19.513239 C10.0078125,19.513239 10.4375,19.1138919 10.4375,18.6423649 C10.4375,18.1712006 10.0078125,17.7722162 9.5,17.7722162 Z M9.5,21 C8.09375,21 7,19.9484947 7,18.6789989 C7,17.6630395 7.703125,16.7566195 8.71875,16.4660863 L8.71875,14.7254262 C8.71875,14.3264418 9.0703125,14 9.5,14 C9.9296875,14 10.28125,14.3264418 10.28125,14.7254262 L10.28125,16.4660863 C11.2578125,16.7566195 12,17.6271309 12,18.6789989 C12,19.9484947 10.90625,21 9.5,21 Z" id="Fill-1" fill="#215AD6"></path>
                <mask id="mask-2" fill="white">
                    <use xlink:href="#path-1"></use>
                </mask>
                <g id="Clip-4"></g>
                <path d="M1.47727273,25.4751793 L18.4469697,25.4751793 L18.4469697,10.1503501 L1.47727273,10.1503501 L1.47727273,25.4751793 Z M5.40454545,6.18772237 C5.40454545,3.63745976 7.46628788,1.56294121 10,1.56294121 C12.5340909,1.56294121 14.5954545,3.63745976 14.5954545,6.18772237 L14.5954545,8.61599932 L5.40454545,8.59732027 L5.40454545,6.18772237 Z M19.2045455,8.62552945 L16.1484848,8.61943017 L16.1484848,6.18772237 C16.1484848,2.77593607 13.3905303,0 10,0 C6.60984848,0 3.85151515,2.77593607 3.85151515,6.18772237 L3.85151515,8.59388942 L0.757575758,8.58779014 C0.340909091,8.58779014 0,8.9308748 0,9.35020049 L0,26.2375897 C0,26.6569153 0.340909091,27 0.757575758,27 L19.2424242,27 C19.6587121,27 20,26.6569153 20,26.2375897 L20,9.3879398 C19.9621212,8.96899531 19.6212121,8.62552945 19.2045455,8.62552945 L19.2045455,8.62552945 Z" id="Fill-3" fill="#215AD6" mask="url(#mask-2)"></path>
            </g>
        </g>
    </g>
</svg>