<?xml version="1.0" encoding="UTF-8"?>
<svg width="108px" height="73px" viewBox="0 0 108 73" version="1.1" xmlns="http://www.w3.org/2000/svg" xmlns:xlink="http://www.w3.org/1999/xlink">
    <!-- Generator: Sketch 47.1 (45422) - http://www.bohemiancoding.com/sketch -->
    <title>Group 35</title>
    <desc>Created with Sketch.</desc>
    <defs>
        <polygon id="path-1" points="40 9.07442307e-15 0 9.07442307e-15 0 53 40 53 40 0"></polygon>
    </defs>
    <g id="Desktop" stroke="none" stroke-width="1" fill="none" fill-rule="evenodd">
        <g id="Espace-exposant" transform="translate(-822.000000, -4979.000000)">
            <g id="Group-26" transform="translate(247.000000, 4940.000000)">
                <g id="Group-23" transform="translate(553.000000, 0.000000)">
                    <g id="Group-35" transform="translate(22.000000, 39.000000)">
                        <path d="M49.5068359,37.0205078 C49.5068359,49.2386679 47.5050656,58.2825227 43.5014648,64.1523438 C39.4978641,70.0221648 33.3330494,72.9570312 25.0068359,72.9570312 C16.935832,72.9570312 10.8507692,69.9264626 6.75146484,63.8652344 C2.65216049,57.8040062 0.602539062,48.8558534 0.602539062,37.0205078 C0.602539062,24.674743 2.59633423,15.5750618 6.58398437,9.72119141 C10.5716345,3.86732099 16.7125236,0.940429688 25.0068359,0.940429688 C33.0778398,0.940429688 39.178853,4.00289906 43.3100586,10.1279297 C47.4412641,16.2529603 49.5068359,25.2170634 49.5068359,37.0205078 Z M15.2929688,37.0205078 C15.2929688,45.6019309 16.0346606,51.7507952 17.5180664,55.4672852 C19.0014723,59.1837751 21.4977038,61.0419922 25.0068359,61.0419922 C28.4521657,61.0419922 30.940422,59.1598496 32.4716797,55.3955078 C34.0029373,51.6311661 34.7685547,45.5062273 34.7685547,37.0205078 C34.7685547,28.4390847 33.9949622,22.27427 32.4477539,18.5258789 C30.9005456,14.7774878 28.4202645,12.9033203 25.0068359,12.9033203 C21.529605,12.9033203 19.0413486,14.7774878 17.5419922,18.5258789 C16.0426357,22.27427 15.2929688,28.4390847 15.2929688,37.0205078 Z M107.407227,57.5009766 L98.9853516,57.5009766 L98.9853516,72 L84.5341797,72 L84.5341797,57.5009766 L54.6748047,57.5009766 L54.6748047,47.2128906 L85.3476562,2.04101562 L98.9853516,2.04101562 L98.9853516,46.0166016 L107.407227,46.0166016 L107.407227,57.5009766 Z M84.5341797,46.0166016 L84.5341797,34.1494141 C84.5341797,32.1715396 84.6139315,29.3004746 84.7734375,25.5361328 C84.9329435,21.7717911 85.0605464,19.5865916 85.15625,18.9804688 L84.7734375,18.9804688 C83.5930931,21.5963672 82.1735109,24.1484251 80.5146484,26.6367188 L67.6904297,46.0166016 L84.5341797,46.0166016 Z" id="04" fill="#F5F5F5"></path>
                        <g id="Icon-bag" transform="translate(33.000000, 8.000000)">
                            <mask id="mask-2" fill="white">
                                <use xlink:href="#path-1"></use>
                            </mask>
                            <g id="Clip-2"></g>
                            <path d="M32.1076233,49.0409639 L7.83258595,49.0409639 C5.62032885,49.0409639 3.76681614,47.5090723 3.70702541,45.5934096 L6.33781764,14.0481928 L9.86547085,14.0481928 L9.86547085,17.8156627 C9.86547085,18.9012048 10.7025411,19.7951807 11.7189836,19.7951807 C12.735426,19.7951807 13.5724963,18.9012048 13.5724963,17.8156627 L13.5724963,14.0481928 L26.367713,14.0481928 L26.367713,17.8156627 C26.367713,18.9012048 27.2047833,19.7951807 28.2212257,19.7951807 C29.2376682,19.7951807 30.0753363,18.9012048 30.0753363,17.8156627 L30.0753363,14.0481928 L33.6023916,14.0481928 L36.2331839,45.6566265 C36.1733931,47.5090723 34.3796712,49.0409639 32.1076233,49.0409639 L32.1076233,49.0409639 Z M19.9701046,3.95903614 C23.2585949,3.95903614 26.0089686,6.64096386 26.367713,10.0891566 L13.5724963,10.0891566 C13.9312407,6.64096386 16.6816143,3.95903614 19.9701046,3.95903614 L19.9701046,3.95903614 Z M37.1300448,11.8771084 C37.0702541,10.8554217 36.2331839,10.0891566 35.2765321,10.0891566 L30.0753363,10.0891566 C29.715994,4.46987952 25.3512706,0 19.9701046,0 C14.5889387,0 10.2242152,4.46987952 9.86547085,10.0891566 L4.66367713,10.0891566 C3.70702541,10.0891566 2.86995516,10.8554217 2.81016442,11.8771084 L0,45.3373494 L0,45.5289157 C0,49.6156627 3.52765321,53 7.83258595,53 L32.168012,53 C36.4723468,53 40,49.6795181 40,45.5289157 L40,45.3373494 L37.1300448,11.8771084 Z" id="Fill-1" fill="#215AD6" mask="url(#mask-2)"></path>
                        </g>
                    </g>
                </g>
            </g>
        </g>
    </g>
</svg>