<?xml version="1.0" encoding="UTF-8"?>
<svg width="40px" height="37px" viewBox="0 0 40 37" version="1.1" xmlns="http://www.w3.org/2000/svg" xmlns:xlink="http://www.w3.org/1999/xlink">
    <!-- Generator: Sketch 47.1 (45422) - http://www.bohemiancoding.com/sketch -->
    <title>Page 1</title>
    <desc>Created with Sketch.</desc>
    <defs>
        <polygon id="path-1" points="0 0 0 37 40 37 40 6.2605492e-15"></polygon>
    </defs>
    <g id="Desktop" stroke="none" stroke-width="1" fill="none" fill-rule="evenodd">
        <g id="Espace-exposant" transform="translate(-361.000000, -3846.000000)">
            <g id="Group-5" transform="translate(330.000000, 3818.000000)">
                <g id="Page-1" transform="translate(31.000000, 28.000000)">
                    <mask id="mask-2" fill="white">
                        <use xlink:href="#path-1"></use>
                    </mask>
                    <g id="Clip-2"></g>
                    <path d="M26.3495378,5.72722156 C26.8622643,5.72722156 27.2586273,6.11137854 27.2586273,6.60831554 C27.2586273,7.10525253 26.8622643,7.48940951 26.3495378,7.48940951 C25.8363568,7.48940951 25.4404484,7.10525253 25.4404484,6.60831554 C25.4404484,6.11137854 25.8363568,5.72722156 26.3495378,5.72722156 L26.3495378,5.72722156 Z M38.1817914,5.56201645 L38.1817914,31.9261102 L27.2727181,34.9548708 L27.2727181,20.4304772 C29.0413517,16.7651263 30.8945305,13.1262082 32.6422549,9.45821398 C32.9208908,8.73615747 33.1286178,7.82114139 33.1536177,6.95238273 L38.1817914,5.56201645 Z M14.545466,5.56201645 L19.5454579,6.95238273 C19.5704579,7.82202248 19.780003,8.73791966 20.0568207,9.45821398 C21.8445451,13.1314947 23.6549967,16.8113837 25.4545393,20.4855456 L25.4545393,34.9548708 L14.545466,31.9261102 L14.545466,5.56201645 Z M12.7272871,5.56201645 L12.7272871,31.9261102 L1.81821384,34.9548708 L1.81821384,8.59077697 L12.7272871,5.56201645 Z M26.3495378,3.96503362 C24.8540857,3.96503362 23.6222695,5.15891595 23.6222695,6.60831554 C23.6222695,8.05771512 24.8540857,9.25159745 26.3495378,9.25159745 C27.8445354,9.25159745 29.0768061,8.05771512 29.0768061,6.60831554 C29.0768061,5.15891595 27.8449899,3.96503362 26.3495378,3.96503362 L26.3495378,3.96503362 Z M26.3354469,1.7622987 C29.0927152,1.7622987 31.3495297,3.98133386 31.3495297,6.78717761 C31.3495297,7.36958073 31.1499846,8.27005876 30.9377122,8.82470742 C29.4186238,11.9512694 27.8804444,15.0765097 26.3495378,18.1999878 C24.8249948,15.0734259 23.2736337,11.9543532 21.7613634,8.82470742 C21.549091,8.26873712 21.3495459,7.36825909 21.3495459,6.78717761 C21.4627275,3.58660376 23.9459053,1.78520714 26.3354469,1.7622987 L26.3354469,1.7622987 Z M26.3354469,0.000110755978 C23.1322703,0.000110755978 20.4613655,2.21209717 19.7300031,5.16288088 L13.8922852,3.5522411 C13.6859219,3.50554312 13.498195,3.53594086 13.3809224,3.5522411 L0.653670265,7.07661698 C0.276852693,7.18322935 -0.00360139936,7.54976444 3.49584027e-05,7.92995649 L3.49584027e-05,36.1249636 C0.0045804056,36.6677174 0.627306672,37.1175159 1.16503308,36.9646461 L13.6363766,33.5094361 L26.1081746,36.9646461 C26.2740834,37.0117846 26.4536286,37.0117846 26.6195374,36.9646461 L39.3467895,33.4402702 C39.7186071,33.3345389 39.997243,32.9763742 39.9999703,32.6005877 L39.9999703,4.40558061 C40.0049703,3.85798071 39.3776986,3.39804965 38.8354267,3.5522411 L32.9831635,5.17653783 C32.2331647,1.9658314 29.2868058,-0.0170705764 26.3354469,0.000110755978 L26.3354469,0.000110755978 Z" id="Fill-1" fill="#215AD6" mask="url(#mask-2)"></path>
                </g>
            </g>
        </g>
    </g>
</svg>