<?xml version="1.0" encoding="UTF-8"?>
<svg width="46px" height="35px" viewBox="0 0 46 35" version="1.1" xmlns="http://www.w3.org/2000/svg" xmlns:xlink="http://www.w3.org/1999/xlink">
    <!-- Generator: Sketch 47.1 (45422) - http://www.bohemiancoding.com/sketch -->
    <title>Page 1</title>
    <desc>Created with Sketch.</desc>
    <defs>
        <polygon id="path-1" points="45.9267632 0.511241379 45.9267632 34.3965517 6.05263158e-05 34.3965517 6.05263158e-05 0.511241379"></polygon>
    </defs>
    <g id="Desktop" stroke="none" stroke-width="1" fill="none" fill-rule="evenodd">
        <g id="Espace-exposant" transform="translate(-603.000000, -3851.000000)">
            <g id="Group-8" transform="translate(584.000000, 3818.000000)">
                <g id="Page-1" transform="translate(19.000000, 33.000000)">
                    <g id="Group-3" transform="translate(0.000000, 0.092267)">
                        <mask id="mask-2" fill="white">
                            <use xlink:href="#path-1"></use>
                        </mask>
                        <g id="Clip-2"></g>
                        <path d="M16.8409026,28.1316724 L2.54035,28.1316724 C1.13977105,28.1316724 6.05263158e-05,26.9833103 6.05263158e-05,25.5724483 L6.05263158e-05,3.01736207 C6.05263158e-05,1.63546552 1.13977105,0.511241379 2.54035,0.511241379 L41.0453763,0.511241379 C42.4465605,0.511241379 43.5862711,1.63546552 43.5862711,3.01736207 L43.5862711,7.53960345 C43.5862711,8.12253448 43.1111395,8.59563793 42.5270605,8.59563793 C41.9423763,8.59563793 41.46785,8.12253448 41.46785,7.53960345 L41.46785,3.01736207 C41.46785,2.7965 41.2820342,2.62331034 41.0453763,2.62331034 L2.53974474,2.62331034 C2.30308684,2.62331034 2.11787632,2.7965 2.11787632,3.01736207 L2.11787632,25.5724483 C2.11787632,25.8059828 2.31882368,26.0196034 2.53974474,26.0196034 L16.8402974,26.0196034 C17.4249816,26.0196034 17.8995079,26.4927069 17.8995079,27.0756379 C17.8995079,27.658569 17.4255868,28.1316724 16.8409026,28.1316724 M31.1711132,15.9456379 C30.2202447,15.9456379 29.3274816,16.3143448 28.6562447,16.9841724 C27.9837974,17.654 27.6139816,18.5440862 27.6139816,19.4915 C27.6139816,20.4389138 27.9837974,21.329 28.6562447,21.9988276 C29.3274816,22.6686552 30.2202447,23.0373621 31.1711132,23.0373621 C32.1207711,23.0373621 33.0141395,22.6686552 33.6853763,21.9988276 C34.3572184,21.329 34.7276395,20.4389138 34.7276395,19.4915 C34.7276395,18.5440862 34.3572184,17.654 33.6853763,16.9841724 C33.0141395,16.3149483 32.1207711,15.9456379 31.1711132,15.9456379 M39.0322711,28.4074483 C38.7611132,28.4074483 38.4905605,28.3042586 38.2835605,28.0972759 L34.3529816,24.1784828 C33.4214816,24.8102931 32.3217184,25.149431 31.1711132,25.149431 C29.6543237,25.149431 28.2295342,24.5604655 27.1576132,23.4917586 C26.0856921,22.4230517 25.4949553,21.0025345 25.4949553,19.4908966 C25.4949553,17.9792586 26.0856921,16.5587414 27.1576132,15.4900345 C28.2295342,14.4213276 29.6543237,13.8323621 31.1711132,13.8323621 C32.6866921,13.8323621 34.1114816,14.4213276 35.1840079,15.4900345 C36.2553237,16.5587414 36.8466658,17.9792586 36.8466658,19.4908966 C36.8466658,20.6489138 36.4992447,21.754431 35.8546395,22.6879655 L39.7815868,26.6037414 C40.1955868,27.0152931 40.1955868,27.6851207 39.7815868,28.0966724 C39.5751921,28.3042586 39.3034289,28.4074483 39.0322711,28.4074483 M32.9947711,10.7227931 C27.0323237,10.7227931 22.1811395,15.559431 22.1811395,21.504 C22.1811395,27.448569 27.0323237,32.2852069 32.9947711,32.2852069 C38.9572184,32.2852069 43.8090079,27.4479655 43.8090079,21.5033966 C43.8090079,15.5588276 38.9572184,10.7227931 32.9947711,10.7227931 M32.9947711,34.3966724 C25.8641658,34.3966724 20.0627184,28.6132241 20.0627184,21.5033966 C20.0627184,14.393569 25.8635605,8.61012069 32.9947711,8.61012069 C40.1265868,8.61012069 45.9274289,14.3941724 45.9274289,21.5033966 C45.9274289,28.6126207 40.1259816,34.3966724 32.9947711,34.3966724" id="Fill-1" fill="#215AD6" mask="url(#mask-2)"></path>
                    </g>
                    <path d="M23.6288684,9.08418966 L7.35636842,9.08418966 C6.85460526,9.08418966 6.44847368,8.67927586 6.44847368,8.17901724 C6.44847368,7.67875862 6.85460526,7.27384483 7.35636842,7.27384483 L23.6288684,7.27384483 C24.1300263,7.27384483 24.5367632,7.67875862 24.5367632,8.17901724 C24.5367632,8.67927586 24.1300263,9.08418966 23.6288684,9.08418966" id="Fill-4" fill="#215AD6"></path>
                    <path d="M18.1808947,15.0037759 L7.35636842,15.0037759 C6.85460526,15.0037759 6.44847368,14.5988621 6.44847368,14.0986034 C6.44847368,13.5983448 6.85460526,13.193431 7.35636842,13.193431 L18.1808947,13.193431 C18.6826579,13.193431 19.0887895,13.5983448 19.0887895,14.0986034 C19.0887895,14.5988621 18.6826579,15.0037759 18.1808947,15.0037759" id="Fill-6" fill="#215AD6"></path>
                    <path d="M15.7598421,20.9230603 L7.35636842,20.9230603 C6.85460526,20.9230603 6.44847368,20.5181466 6.44847368,20.0178879 C6.44847368,19.5176293 6.85460526,19.1127155 7.35636842,19.1127155 L15.7598421,19.1127155 C16.2616053,19.1127155 16.6677368,19.5176293 16.6677368,20.0178879 C16.6677368,20.5181466 16.2616053,20.9230603 15.7598421,20.9230603" id="Fill-8" fill="#215AD6"></path>
                </g>
            </g>
        </g>
    </g>
</svg>