<?xml version="1.0" encoding="UTF-8"?>
<svg width="34px" height="34px" viewBox="0 0 34 34" version="1.1" xmlns="http://www.w3.org/2000/svg" xmlns:xlink="http://www.w3.org/1999/xlink">
    <!-- Generator: Sketch 47.1 (45422) - http://www.bohemiancoding.com/sketch -->
    <title>Fill 1</title>
    <desc>Created with Sketch.</desc>
    <defs></defs>
    <g id="Desktop" stroke="none" stroke-width="1" fill="none" fill-rule="evenodd">
        <g id="Espace-exposant" transform="translate(-978.000000, -77.000000)" fill="#3B5998">
            <g id="Header" transform="translate(0.000000, 34.000000)">
                <g id="Visiteurs-pro" transform="translate(949.000000, 0.000000)">
                    <g id="Facebook" transform="translate(29.000000, 43.000000)">
                        <path d="M18.1609583,34 L1.87708333,34 C0.840083333,34 0,33.1592083 0,32.123625 L0,1.876375 C0,0.840083333 0.840083333,0 1.87708333,0 L32.123625,0 C33.1599167,0 34,0.840083333 34,1.876375 L34,32.123625 C34,33.1592083 33.1599167,34 32.123625,34 L23.4592917,34 L23.4592917,20.8335 L27.8792917,20.8335 L28.540875,15.701625 L23.4592917,15.701625 L23.4592917,12.4255833 C23.4592917,10.9402083 23.87225,9.928 26.0022083,9.928 L28.719375,9.92658333 L28.719375,5.33729167 C28.24975,5.27495833 26.636875,5.13541667 24.7597917,5.13541667 C20.8427083,5.13541667 18.1609583,7.52604167 18.1609583,11.9177083 L18.1609583,15.701625 L13.7303333,15.701625 L13.7303333,20.8335 L18.1609583,20.8335 L18.1609583,34 Z" id="Fill-1"></path>
                    </g>
                </g>
            </g>
        </g>
    </g>
</svg>