<?xml version="1.0" encoding="UTF-8"?>
<svg width="21px" height="28px" viewBox="0 0 21 28" version="1.1" xmlns="http://www.w3.org/2000/svg" xmlns:xlink="http://www.w3.org/1999/xlink">
    <!-- Generator: Sketch 47.1 (45422) - http://www.bohemiancoding.com/sketch -->
    <title>locker</title>
    <desc>Created with Sketch.</desc>
    <defs>
        <polygon id="path-1" points="0 28 21 28 21 0 0 0"></polygon>
    </defs>
    <g id="Desktop" stroke="none" stroke-width="1" fill="none" fill-rule="evenodd">
        <g id="Espace-exposant" transform="translate(-1065.000000, -166.000000)">
            <g id="locker" transform="translate(1065.000000, 166.000000)">
                <g id="Page-1">
                    <path d="M9.975,18.4304464 C9.44179688,18.4304464 8.990625,18.844208 8.990625,19.3328228 C8.990625,19.8218138 9.44179688,20.2359516 9.975,20.2359516 C10.5082031,20.2359516 10.959375,19.8218138 10.959375,19.3328228 C10.959375,18.844208 10.5082031,18.4304464 9.975,18.4304464 Z M9.975,21.7777778 C8.4984375,21.7777778 7.35,20.6873279 7.35,19.3708137 C7.35,18.3172262 8.08828125,17.3772351 9.1546875,17.0759414 L9.1546875,15.2708123 C9.1546875,14.8570507 9.52382813,14.5185185 9.975,14.5185185 C10.4261719,14.5185185 10.7953125,14.8570507 10.7953125,15.2708123 L10.7953125,17.0759414 C11.8207031,17.3772351 12.6,18.2799876 12.6,19.3708137 C12.6,20.6873279 11.4515625,21.7777778 9.975,21.7777778 Z" id="Fill-1" fill="#FFFFFF"></path>
                    <mask id="mask-2" fill="white">
                        <use xlink:href="#path-1"></use>
                    </mask>
                    <g id="Clip-4"></g>
                    <path d="M1.55113636,26.4187045 L19.3693182,26.4187045 L19.3693182,10.526289 L1.55113636,10.526289 L1.55113636,26.4187045 Z M5.67477273,6.41689727 C5.67477273,3.77218049 7.83960227,1.62082792 10.5,1.62082792 C13.1607955,1.62082792 15.3252273,3.77218049 15.3252273,6.41689727 L15.3252273,8.93511041 L5.67477273,8.91573954 L5.67477273,6.41689727 Z M20.1647727,8.94499351 L16.9559091,8.93866832 L16.9559091,6.41689727 C16.9559091,2.87874852 14.0600568,0 10.5,0 C6.94034091,0 4.04409091,2.87874852 4.04409091,6.41689727 L4.04409091,8.91218162 L0.795454545,8.90585644 C0.357954545,8.90585644 0,9.26164794 0,9.69650421 L0,27.2093522 C0,27.6442085 0.357954545,28 0.795454545,28 L20.2045455,28 C20.6416477,28 21,27.6442085 21,27.2093522 L21,9.73564127 C20.9602273,9.30118032 20.6022727,8.94499351 20.1647727,8.94499351 L20.1647727,8.94499351 Z" id="Fill-3" fill="#FFFFFF" mask="url(#mask-2)"></path>
                </g>
            </g>
        </g>
    </g>
</svg>