<?xml version="1.0" encoding="UTF-8"?>
<svg width="53px" height="44px" viewBox="0 0 53 44" version="1.1" xmlns="http://www.w3.org/2000/svg" xmlns:xlink="http://www.w3.org/1999/xlink">
    <!-- Generator: Sketch 47.1 (45422) - http://www.bohemiancoding.com/sketch -->
    <title>Fill 1</title>
    <desc>Created with Sketch.</desc>
    <defs></defs>
    <g id="Desktop" stroke="none" stroke-width="1" fill="none" fill-rule="evenodd">
        <g id="Espace-exposant" transform="translate(-356.000000, -3966.000000)" fill="#215AD6">
            <g id="Group-6" transform="translate(330.000000, 3941.000000)">
                <path d="M40.0593997,27.6519799 C38.4482592,27.6519799 37.135567,28.9444418 37.1313635,30.5365792 C37.12716,32.1316837 38.4368497,33.4336402 40.0503923,33.4377942 L40.0581987,33.4377942 C41.6693393,33.4377942 42.9820315,32.1453323 42.986235,30.5531949 L44.0371094,30.5561619 L42.986235,30.5531949 C42.9904385,28.9580904 41.6807488,27.6561338 40.0672062,27.6519799 L40.0593997,27.6519799 Z M68.0180626,43.6131129 L76.8982513,43.6131129 L76.8982513,30.4796112 L59.3396417,30.4796112 L59.3396417,35.2530563 L67.247021,34.0062875 C67.8168952,33.9184618 68.3597469,34.3018091 68.4504223,34.8685222 C68.5422987,35.4346419 68.151974,35.9675302 67.5784968,36.0577295 L59.3396417,37.3561256 L59.3396417,43.6131129 L68.0180626,43.6131129 Z M40.1392662,35.9960142 C38.2897273,35.9960142 36.8929651,36.3194264 35.2566036,37.9364873 L35.2445936,37.9590371 C33.5073482,40.1974055 28.4463372,46.8151902 28.3952947,46.8822463 C28.0890399,47.28755 28.0217839,47.6875129 28.1983308,48.0672997 C28.3958952,48.4915928 28.8612824,48.7983893 29.3560941,48.8316206 C29.9692043,48.8713796 30.500046,48.5260109 30.9432147,47.8352737 C30.9576267,47.8133173 30.9726392,47.7919543 30.9882522,47.7711847 L33.9048789,43.9015134 C34.1739028,43.5430897 34.645295,43.3959223 35.0734512,43.5347818 C35.5028085,43.6724545 35.7940508,44.0664833 35.7982543,44.5121394 L35.8252768,47.5177957 C35.8288798,47.555181 35.8306813,47.5925662 35.8306813,47.6299515 L44.5331221,47.6299515 L44.5169086,47.2311754 L44.5295191,41.0869373 C44.5301196,40.7124913 44.7354905,40.3671227 45.0657653,40.1843503 L45.1942722,40.1131403 C45.3876331,40.0057318 45.6140214,39.961819 45.8302013,39.9867425 C49.3551342,40.3908594 53.2487739,39.0598254 54.3506907,38.2337891 C54.5842851,38.0581377 54.5878881,37.5323704 54.3584972,37.1086708 C54.1699403,36.7585548 53.7964295,36.3912298 53.0908425,36.6345307 C52.3996674,36.8309517 46.7399583,38.3595935 43.5699206,36.9947348 C42.7676531,36.6600476 40.8808833,35.997201 40.1831027,35.9954208 C40.1686907,35.9960142 40.1536782,35.9960142 40.1392662,35.9960142 L40.1392662,35.9960142 Z M35.7730333,49.7075039 L35.3190556,65.9154983 C35.3208571,66.2038989 35.416937,66.5012007 35.5820744,66.6982151 C35.7075788,66.8477561 35.8565028,66.9231201 36.0252432,66.9231201 L36.0276452,66.9231201 L37.3823723,66.9231201 C37.7198531,66.9213398 37.8705786,66.2679879 37.8687771,65.8045293 L38.0801529,53.2798733 C38.0903614,52.7131602 38.5575501,52.2586029 39.1310273,52.2586029 L41.337263,52.2586029 C41.9083381,52.2586029 42.3749264,52.7095997 42.3881374,53.2733457 L42.6769777,65.8051227 C42.6793797,66.3255493 42.93219,66.8649652 43.4828482,66.8649652 L44.641212,66.8649652 C44.73489,66.8643718 44.8814119,66.8430088 45.0219288,66.6614232 C45.1750562,66.4650023 45.2615281,66.1570189 45.2597266,65.8181779 L44.615991,49.7075039 L35.7730333,49.7075039 Z M60.2518007,68.9994856 C60.1587232,68.9994856 60.0632438,68.9870239 59.9677644,68.9615069 C59.4092997,68.8072186 59.0826279,68.2345713 59.2381573,67.6821002 L64.3844392,49.4576754 L62.296502,49.4576754 C61.7152183,49.4576754 61.2456276,48.99303 61.2456276,48.4191959 C61.2456276,47.8453618 61.7152183,47.3807164 62.296502,47.3807164 L66.9659872,47.3807164 L66.9659872,45.6900718 L58.2887674,45.6900718 C57.7086847,45.6900718 57.237893,45.2254264 57.237893,44.6515923 L57.237893,37.6878456 L56.6355918,37.7827923 C56.6271849,38.6206969 56.2770936,39.3962927 55.621348,39.8882353 C54.1909578,40.9605395 50.3393531,42.2553751 46.6294663,42.1266037 L46.6180568,47.1926033 L47.3602744,65.7724848 C47.3644779,66.6109828 47.125479,67.362842 46.6895163,67.9254011 C46.1832951,68.5775662 45.457291,68.9383637 44.644815,68.9419242 L43.4822477,68.9419242 C41.8326752,68.9419242 40.5830354,67.6055494 40.5746284,65.8336067 L40.3092076,54.3355619 L40.1638867,54.3355619 L39.9705258,65.8169911 C39.9795333,67.6749792 38.9166489,68.992958 37.3871763,68.9994856 L36.0318486,68.9994856 C35.2181716,69.0155079 34.4957706,68.6564907 33.9661299,68.0250952 C33.4869312,67.4548216 33.2215103,66.6970283 33.2179073,65.8893879 L33.72593,47.7278653 L33.7253295,47.6163029 L32.6960731,48.9811617 C31.8409617,50.2926129 30.5817139,50.987504 29.2161777,50.9026454 C27.955729,50.8189736 26.8069732,50.0469383 26.2893425,48.9342817 C25.7879253,47.858417 25.9434547,46.6549676 26.7150967,45.6336972 C26.7697422,45.5630806 31.8355572,38.9381749 33.5457801,36.736005 C33.6274481,36.62919 33.715121,36.5217815 33.7709675,36.4671872 C34.8434599,35.4073447 35.8889297,34.7789162 36.9031736,34.4115912 C35.7580208,33.4965424 35.0260117,32.0960787 35.0302152,30.530645 C35.0380217,27.7955868 37.2928979,25.5744275 40.0600002,25.5744275 L40.0732112,25.5744275 C42.8457181,25.5821419 45.0957902,27.8169498 45.0885842,30.5579422 C45.0837802,32.2034871 44.2665002,33.6626991 43.012657,34.5646928 C43.795108,34.8323238 44.3944067,35.0833391 44.4070171,35.0892733 C46.5117684,35.9942339 50.9332473,35.0815588 52.4591168,34.6537053 C53.8216505,34.1866862 55.1865862,34.6216608 55.9972607,35.7788236 L57.237893,35.5829961 L57.237893,29.4411317 C57.237893,28.8672976 57.7086847,28.4026522 58.2887674,28.4026522 L66.9671882,28.4026522 L66.9671882,26.0384795 C66.9671882,25.4646454 67.4373794,25 68.0180626,25 C68.5981452,25 69.0689369,25.4646454 69.0689369,26.0384795 L69.0689369,28.4026522 L77.9491256,28.4026522 C78.5292083,28.4026522 79,28.8672976 79,29.4411317 L79,44.6515923 C79,45.2254264 78.5292083,45.6900718 77.9491256,45.6900718 L69.0689369,45.6900718 L69.0689369,47.3807164 L73.8705321,47.3807164 C74.4506147,47.3807164 74.9214064,47.8453618 74.9214064,48.4191959 C74.9214064,48.99303 74.4506147,49.4576754 73.8705321,49.4576754 L71.6234624,49.4576754 L76.7775508,67.6821002 C76.9336807,68.2345713 76.6070089,68.8072186 76.0479438,68.9615069 C75.4900796,69.1146085 74.9093964,68.7929766 74.752666,68.2405055 L69.4412467,49.4576754 L66.5672554,49.4576754 L61.2636426,68.2405055 C61.1339347,68.6992167 60.7117834,68.9994856 60.2518007,68.9994856 L60.2518007,68.9994856 Z" id="Fill-1"></path>
            </g>
        </g>
    </g>
</svg>