<?xml version="1.0" encoding="UTF-8"?>
<svg width="105px" height="73px" viewBox="0 0 105 73" version="1.1" xmlns="http://www.w3.org/2000/svg" xmlns:xlink="http://www.w3.org/1999/xlink">
    <!-- Generator: Sketch 47.1 (45422) - http://www.bohemiancoding.com/sketch -->
    <title>Group 36</title>
    <desc>Created with Sketch.</desc>
    <defs></defs>
    <g id="Desktop" stroke="none" stroke-width="1" fill="none" fill-rule="evenodd">
        <g id="Espace-exposant" transform="translate(-507.000000, -5192.000000)">
            <g id="Group-14" transform="translate(488.000000, 5154.000000)">
                <g id="Group-28">
                    <g id="Group-25">
                        <g id="Group-36" transform="translate(19.000000, 38.000000)">
                            <path d="M49.5068359,37.0205078 C49.5068359,49.2386679 47.5050656,58.2825227 43.5014648,64.1523438 C39.4978641,70.0221648 33.3330494,72.9570312 25.0068359,72.9570312 C16.935832,72.9570312 10.8507692,69.9264626 6.75146484,63.8652344 C2.65216049,57.8040062 0.602539062,48.8558534 0.602539062,37.0205078 C0.602539062,24.674743 2.59633423,15.5750618 6.58398438,9.72119141 C10.5716345,3.86732099 16.7125236,0.940429688 25.0068359,0.940429688 C33.0778398,0.940429688 39.178853,4.00289906 43.3100586,10.1279297 C47.4412641,16.2529603 49.5068359,25.2170634 49.5068359,37.0205078 Z M15.2929688,37.0205078 C15.2929688,45.6019309 16.0346606,51.7507952 17.5180664,55.4672852 C19.0014723,59.1837751 21.4977038,61.0419922 25.0068359,61.0419922 C28.4521657,61.0419922 30.940422,59.1598496 32.4716797,55.3955078 C34.0029373,51.6311661 34.7685547,45.5062273 34.7685547,37.0205078 C34.7685547,28.4390847 33.9949622,22.27427 32.4477539,18.5258789 C30.9005456,14.7774878 28.4202645,12.9033203 25.0068359,12.9033203 C21.529605,12.9033203 19.0413486,14.7774878 17.5419922,18.5258789 C16.0426357,22.27427 15.2929688,28.4390847 15.2929688,37.0205078 Z M82.3808594,27.3066406 C89.143914,27.3066406 94.527161,29.2047336 98.5307617,33.0009766 C102.534362,36.7972195 104.536133,41.9970373 104.536133,48.6005859 C104.536133,56.4163802 102.127628,62.4296664 97.3105469,66.640625 C92.4934655,70.8515836 85.6029094,72.9570312 76.6386719,72.9570312 C68.8547788,72.9570312 62.5703364,71.6969527 57.7851563,69.1767578 L57.7851563,56.4003906 C60.3053511,57.7402411 63.2402176,58.8328408 66.5898438,59.6782227 C69.9394699,60.5236045 73.1135918,60.9462891 76.1123047,60.9462891 C85.1403446,60.9462891 89.6542969,57.2458052 89.6542969,49.8447266 C89.6542969,42.7945611 84.980841,39.2695312 75.6337891,39.2695312 C73.9430254,39.2695312 72.0768331,39.43701 70.0351563,39.7719727 C67.9934794,40.1069353 66.3346418,40.4658184 65.0585938,40.8486328 L59.1728516,37.6904297 L61.8046875,2.04101562 L99.7509766,2.04101562 L99.7509766,14.578125 L74.7724609,14.578125 L73.4804688,28.3115234 L75.1552734,27.9765625 C77.1012467,27.5299457 79.5097513,27.3066406 82.3808594,27.3066406 Z" id="05" fill="#F5F5F5"></path>
                            <path d="M33.4698064,47.5315 C34.1094835,48.0715 34.1798786,49.0195 33.6289605,49.6465 C30.5851379,53.098 26.5251773,55 22.1897578,55 C14.6789074,55 8.44128992,49.303 6.66304865,41.5 L1.53032812,41.5 C0.685586999,41.5 0,40.828 0,40 C0,39.172 0.685586999,38.5 1.53032812,38.5 L6.20548054,38.5 C6.13202479,37.501 6.13202479,36.499 6.20548054,35.5 L1.53032812,35.5 C0.685586999,35.5 0,34.828 0,34 C0,33.172 0.685586999,32.5 1.53032812,32.5 L6.66304865,32.5 C8.43669894,24.7015 14.6758467,19 22.1897578,19 C26.5251773,19 30.5851379,20.9005 33.6289605,24.352 C34.1798786,24.979 34.1094835,25.927 33.4698064,26.4685 C32.8301292,27.01 31.8614315,26.9395 31.3105134,26.314 C28.8604581,23.5315 25.6207534,22 22.1897578,22 C16.1862806,22 11.3917625,26.6125 9.78185736,32.5 L19.8942656,32.5 C20.7390067,32.5 21.4245937,33.172 21.4245937,34 C21.4245937,34.828 20.7390067,35.5 19.8942656,35.5 L9.24165153,35.5 C9.15442283,36.4975 9.15442283,37.5025 9.24165153,38.5 L19.8942656,38.5 C20.7390067,38.5 21.4245937,39.172 21.4245937,40 C21.4245937,40.828 20.7390067,41.5 19.8942656,41.5 L9.78185736,41.5 C11.4193085,47.4835 16.2765699,52 22.1897578,52 C25.6207534,52 28.8604581,50.4685 31.3105134,47.6875 C31.8614315,47.0605 32.8301292,46.99 33.4698064,47.5315" id="Fill-1" fill="#215AD6"></path>
                            <path d="M69.4698064,47.5315 C70.1094835,48.0715 70.1798786,49.0195 69.6289605,49.6465 C66.5851379,53.098 62.5251773,55 58.1897578,55 C50.6789074,55 44.4412899,49.303 42.6630486,41.5 L37.5303281,41.5 C36.685587,41.5 36,40.828 36,40 C36,39.172 36.685587,38.5 37.5303281,38.5 L42.2054805,38.5 C42.1320248,37.501 42.1320248,36.499 42.2054805,35.5 L37.5303281,35.5 C36.685587,35.5 36,34.828 36,34 C36,33.172 36.685587,32.5 37.5303281,32.5 L42.6630486,32.5 C44.4366989,24.7015 50.6758467,19 58.1897578,19 C62.5251773,19 66.5851379,20.9005 69.6289605,24.352 C70.1798786,24.979 70.1094835,25.927 69.4698064,26.4685 C68.8301292,27.01 67.8614315,26.9395 67.3105134,26.314 C64.8604581,23.5315 61.6207534,22 58.1897578,22 C52.1862806,22 47.3917625,26.6125 45.7818574,32.5 L55.8942656,32.5 C56.7390067,32.5 57.4245937,33.172 57.4245937,34 C57.4245937,34.828 56.7390067,35.5 55.8942656,35.5 L45.2416515,35.5 C45.1544228,36.4975 45.1544228,37.5025 45.2416515,38.5 L55.8942656,38.5 C56.7390067,38.5 57.4245937,39.172 57.4245937,40 C57.4245937,40.828 56.7390067,41.5 55.8942656,41.5 L45.7818574,41.5 C47.4193085,47.4835 52.2765699,52 58.1897578,52 C61.6207534,52 64.8604581,50.4685 67.3105134,47.6875 C67.8614315,47.0605 68.8301292,46.99 69.4698064,47.5315" id="Fill-1" fill="#215AD6"></path>
                            <path d="M104.469806,47.5315 C105.109484,48.0715 105.179879,49.0195 104.62896,49.6465 C101.585138,53.098 97.5251773,55 93.1897578,55 C85.6789074,55 79.4412899,49.303 77.6630486,41.5 L72.5303281,41.5 C71.685587,41.5 71,40.828 71,40 C71,39.172 71.685587,38.5 72.5303281,38.5 L77.2054805,38.5 C77.1320248,37.501 77.1320248,36.499 77.2054805,35.5 L72.5303281,35.5 C71.685587,35.5 71,34.828 71,34 C71,33.172 71.685587,32.5 72.5303281,32.5 L77.6630486,32.5 C79.4366989,24.7015 85.6758467,19 93.1897578,19 C97.5251773,19 101.585138,20.9005 104.62896,24.352 C105.179879,24.979 105.109484,25.927 104.469806,26.4685 C103.830129,27.01 102.861432,26.9395 102.310513,26.314 C99.8604581,23.5315 96.6207534,22 93.1897578,22 C87.1862806,22 82.3917625,26.6125 80.7818574,32.5 L90.8942656,32.5 C91.7390067,32.5 92.4245937,33.172 92.4245937,34 C92.4245937,34.828 91.7390067,35.5 90.8942656,35.5 L80.2416515,35.5 C80.1544228,36.4975 80.1544228,37.5025 80.2416515,38.5 L90.8942656,38.5 C91.7390067,38.5 92.4245937,39.172 92.4245937,40 C92.4245937,40.828 91.7390067,41.5 90.8942656,41.5 L80.7818574,41.5 C82.4193085,47.4835 87.2765699,52 93.1897578,52 C96.6207534,52 99.8604581,50.4685 102.310513,47.6875 C102.861432,47.0605 103.830129,46.99 104.469806,47.5315" id="Fill-1" fill="#215AD6"></path>
                        </g>
                    </g>
                </g>
            </g>
        </g>
    </g>
</svg>