<?xml version="1.0" encoding="UTF-8"?>
<svg width="26px" height="13px" viewBox="0 0 26 13" version="1.1" xmlns="http://www.w3.org/2000/svg" xmlns:xlink="http://www.w3.org/1999/xlink">
    <!-- Generator: Sketch 47.1 (45422) - http://www.bohemiancoding.com/sketch -->
    <title>Fill 1 Copy 3</title>
    <desc>Created with Sketch.</desc>
    <defs></defs>
    <g id="Desktop" stroke="none" stroke-width="1" fill="none" fill-rule="evenodd">
        <g id="Liste-des-produits---single" transform="translate(-500.000000, -489.000000)" fill="#83b81a">
            <g id="Group-3" transform="translate(482.000000, 469.000000)">
                <path d="M43.3874142,25.5784912 L34.0123317,20.1093024 C33.4767801,19.7991434 32.8263837,20.1874281 32.8283369,20.7807927 L32.8283369,23.499176 C32.8283369,23.9308204 33.1779493,24.2804329 33.6095937,24.2804329 C34.0408475,24.2804329 34.3908506,23.9308204 34.3908506,23.499176 L34.3908506,22.1358827 L41.4463815,26.2499815 L34.3908506,30.3640802 L34.3908506,26.2624816 C34.3908506,25.8241965 34.0353787,25.4687246 33.5970936,25.4687246 L19.5887672,25.4687246 C19.1997013,25.4687246 18.8391512,25.7343519 18.7766507,26.1187303 C18.6969625,26.6081877 19.0723564,27.0312383 19.5469699,27.0312383 L32.8283369,27.0312383 L32.8283369,31.7191702 C32.8283369,32.2699563 33.5158429,32.7141009 34.0123317,32.3902699 L43.3874142,26.9214717 C43.6397602,26.7699079 43.7542143,26.5378746 43.7659332,26.2499815 C43.7620269,25.9839635 43.6167131,25.6855234 43.3874142,25.5784912" id="Fill-1-Copy-3" transform="translate(31.265933, 26.249882) scale(-1, 1) translate(-31.265933, -26.249882) "></path>
            </g>
        </g>
    </g>
</svg>