<?xml version="1.0" encoding="UTF-8"?>
<svg width="25px" height="13px" viewBox="0 0 25 13" version="1.1" xmlns="http://www.w3.org/2000/svg" xmlns:xlink="http://www.w3.org/1999/xlink">
    <!-- Generator: Sketch 47.1 (45422) - http://www.bohemiancoding.com/sketch -->
    <title>Fill 1</title>
    <desc>Created with Sketch.</desc>
    <defs></defs>
    <g id="Desktop" stroke="none" stroke-width="1" fill="none" fill-rule="evenodd">
        <g id="Accueil" transform="translate(-576.000000, -4413.000000)" fill="#E74892">
            <g id="Vache-égérie" transform="translate(-1.000000, 3539.000000)">
                <g id="Bloc" transform="translate(278.000000, 609.000000)">
                    <g id="Left" transform="translate(67.000000, 83.000000)">
                        <g id="btn" transform="translate(39.000000, 164.000000)">
                            <path d="M217.621481,23.5784912 L208.246399,18.1093024 C207.710847,17.7991434 207.060451,18.1874281 207.062404,18.7807927 L207.062404,21.499176 C207.062404,21.9308204 207.412016,22.2804329 207.843661,22.2804329 C208.274914,22.2804329 208.624917,21.9308204 208.624917,21.499176 L208.624917,20.1358827 L215.680448,24.2499815 L208.624917,28.3640802 L208.624917,24.2624816 C208.624917,23.8241965 208.269446,23.4687246 207.83116,23.4687246 L193.822834,23.4687246 C193.433768,23.4687246 193.073218,23.7343519 193.010718,24.1187303 C192.931029,24.6081877 193.306423,25.0312383 193.781037,25.0312383 L207.062404,25.0312383 L207.062404,29.7191702 C207.062404,30.2699563 207.74991,30.7141009 208.246399,30.3902699 L217.621481,24.9214717 C217.873827,24.7699079 217.988281,24.5378746 218,24.2499815 C217.996094,23.9839635 217.85078,23.6855234 217.621481,23.5784912" id="Fill-1"></path>
                        </g>
                    </g>
                </g>
            </g>
        </g>
    </g>
</svg>