<?xml version="1.0" encoding="UTF-8"?>
<svg width="25px" height="14px" viewBox="0 0 25 14" version="1.1" xmlns="http://www.w3.org/2000/svg" xmlns:xlink="http://www.w3.org/1999/xlink">
    <!-- Generator: Sketch 47.1 (45422) - http://www.bohemiancoding.com/sketch -->
    <title>Fill 1</title>
    <desc>Created with Sketch.</desc>
    <defs></defs>
    <g id="Desktop" stroke="none" stroke-width="1" fill="none" fill-rule="evenodd">
        <g id="All-in-one" transform="translate(-460.000000, -1676.000000)" fill="#FFFFFF">
            <g id="btn-badge-pro" transform="translate(320.000000, 1658.591373)">
                <path d="M164.621481,23.5784912 L155.246399,18.1093024 C154.710847,17.7991434 154.060451,18.1874281 154.062404,18.7807927 L154.062404,21.499176 C154.062404,21.9308204 154.412016,22.2804329 154.843661,22.2804329 C155.274914,22.2804329 155.624917,21.9308204 155.624917,21.499176 L155.624917,20.1358827 L162.680448,24.2499815 L155.624917,28.3640802 L155.624917,24.2624816 C155.624917,23.8241965 155.269446,23.4687246 154.83116,23.4687246 L140.822834,23.4687246 C140.433768,23.4687246 140.073218,23.7343519 140.010718,24.1187303 C139.931029,24.6081877 140.306423,25.0312383 140.781037,25.0312383 L154.062404,25.0312383 L154.062404,29.7191702 C154.062404,30.2699563 154.74991,30.7141009 155.246399,30.3902699 L164.621481,24.9214717 C164.873827,24.7699079 164.988281,24.5378746 165,24.2499815 C164.996094,23.9839635 164.85078,23.6855234 164.621481,23.5784912" id="Fill-1"></path>
            </g>
        </g>
    </g>
</svg>