<?xml version="1.0" encoding="UTF-8"?>
<svg width="25px" height="13px" viewBox="0 0 25 13" version="1.1" xmlns="http://www.w3.org/2000/svg" xmlns:xlink="http://www.w3.org/1999/xlink">
    <!-- Generator: Sketch 47.1 (45422) - http://www.bohemiancoding.com/sketch -->
    <title>Fill 1</title>
    <desc>Created with Sketch.</desc>
    <defs></defs>
    <g id="Desktop" stroke="none" stroke-width="1" fill="none" fill-rule="evenodd">
        <g id="Visiteurs-pro" transform="translate(-816.000000, -483.000000)" fill="#4b2980">
            <g id="Slider" transform="translate(0.000000, 153.000000)">
                <g id="btn" transform="translate(578.000000, 311.000000)">
                    <path d="M262.621481,24.5784912 L253.246399,19.1093024 C252.710847,18.7991434 252.060451,19.1874281 252.062404,19.7807927 L252.062404,22.499176 C252.062404,22.9308204 252.412016,23.2804329 252.843661,23.2804329 C253.274914,23.2804329 253.624917,22.9308204 253.624917,22.499176 L253.624917,21.1358827 L260.680448,25.2499815 L253.624917,29.3640802 L253.624917,25.2624816 C253.624917,24.8241965 253.269446,24.4687246 252.83116,24.4687246 L238.822834,24.4687246 C238.433768,24.4687246 238.073218,24.7343519 238.010718,25.1187303 C237.931029,25.6081877 238.306423,26.0312383 238.781037,26.0312383 L252.062404,26.0312383 L252.062404,30.7191702 C252.062404,31.2699563 252.74991,31.7141009 253.246399,31.3902699 L262.621481,25.9214717 C262.873827,25.7699079 262.988281,25.5378746 263,25.2499815 C262.996094,24.9839635 262.85078,24.6855234 262.621481,24.5784912" id="Fill-1"></path>
                </g>
            </g>
        </g>
    </g>
</svg>