<?xml version="1.0" encoding="UTF-8"?>
<svg width="25px" height="13px" viewBox="0 0 25 13" version="1.1" xmlns="http://www.w3.org/2000/svg" xmlns:xlink="http://www.w3.org/1999/xlink">
    <!-- Generator: Sketch 47.1 (45422) - http://www.bohemiancoding.com/sketch -->
    <title>Fill 1</title>
    <desc>Created with Sketch.</desc>
    <defs></defs>
    <g id="Desktop" stroke="none" stroke-width="1" fill="none" fill-rule="evenodd">
        <g id="Accueil" transform="translate(-1158.000000, -2401.000000)" fill="#E74427">
            <g id="Grand-marché-de-france" transform="translate(-1.000000, 2017.000000)">
                <g id="750-produits" transform="translate(720.000000, 59.000000)">
                    <g id="Group-13-Copy" transform="translate(236.000000, 306.000000)">
                        <path d="M227.621481,24.5784912 L218.246399,19.1093024 C217.710847,18.7991434 217.060451,19.1874281 217.062404,19.7807927 L217.062404,22.499176 C217.062404,22.9308204 217.412016,23.2804329 217.843661,23.2804329 C218.274914,23.2804329 218.624917,22.9308204 218.624917,22.499176 L218.624917,21.1358827 L225.680448,25.2499815 L218.624917,29.3640802 L218.624917,25.2624816 C218.624917,24.8241965 218.269446,24.4687246 217.83116,24.4687246 L203.822834,24.4687246 C203.433768,24.4687246 203.073218,24.7343519 203.010718,25.1187303 C202.931029,25.6081877 203.306423,26.0312383 203.781037,26.0312383 L217.062404,26.0312383 L217.062404,30.7191702 C217.062404,31.2699563 217.74991,31.7141009 218.246399,31.3902699 L227.621481,25.9214717 C227.873827,25.7699079 227.988281,25.5378746 228,25.2499815 C227.996094,24.9839635 227.85078,24.6855234 227.621481,24.5784912" id="Fill-1"></path>
                    </g>
                </g>
            </g>
        </g>
    </g>
</svg>