<?xml version="1.0" encoding="utf-8"?>
<!-- Generator: Adobe Illustrator 22.0.1, SVG Export Plug-In . SVG Version: 6.00 Build 0)  -->
<svg version="1.1" id="Calque_1" xmlns="http://www.w3.org/2000/svg" xmlns:xlink="http://www.w3.org/1999/xlink" x="0px" y="0px"
	 viewBox="0 0 26 13" style="enable-background:new 0 0 26 13;" xml:space="preserve">
<style type="text/css">
	.st0{fill:#80BA27;}
</style>
<title>Fill 1 Copy 3</title>
<desc>Created with Sketch.</desc>
<g id="Desktop">
	<g id="Liste-des-produits---single" transform="translate(-500.000000, -489.000000)">
		<g id="Group-3" transform="translate(482.000000, 469.000000)">
			<path id="Fill-1-Copy-3" class="st0" d="M43.6,27.2l-9.5,5.5C33.6,33,33,32.6,33,32v-2.7c0-0.4,0.4-0.8,0.8-0.8
				c0.4,0,0.8,0.4,0.8,0.8v1.4l7.1-4.2l-7.1-4.2v4.1c0,0.4-0.4,0.8-0.8,0.8H19.6c-0.4,0-0.8-0.3-0.8-0.7c-0.1-0.5,0.3-0.9,0.8-0.9
				H33V21c0-0.6,0.7-1,1.2-0.7l9.5,5.5c0.3,0.2,0.4,0.4,0.4,0.7C44,26.8,43.8,27.1,43.6,27.2"/>
		</g>
	</g>
</g>
</svg>
