<?xml version="1.0" encoding="utf-8"?>
<!-- Generator: Adobe Illustrator 22.0.1, SVG Export Plug-In . SVG Version: 6.00 Build 0)  -->
<svg version="1.1" id="Calque_1" xmlns="http://www.w3.org/2000/svg" xmlns:xlink="http://www.w3.org/1999/xlink" x="0px" y="0px"
	 viewBox="0 0 25 14" style="enable-background:new 0 0 25 14;" xml:space="preserve">
<style type="text/css">
	.st0{fill:#FFFFFF;}
</style>
<title>Fill 1</title>
<desc>Created with Sketch.</desc>
<g id="Desktop">
	<g id="All-in-one" transform="translate(-460.000000, -1676.000000)">
		<g id="btn-badge-pro" transform="translate(320.000000, 1658.591373)">
			<path id="Fill-1" class="st0" d="M164.6,23.6l-9.4-5.5c-0.5-0.3-1.2,0.1-1.2,0.7v2.7c0,0.4,0.3,0.8,0.8,0.8
				c0.4,0,0.8-0.3,0.8-0.8v-1.4l7.1,4.1l-7.1,4.1v-4.1c0-0.4-0.4-0.8-0.8-0.8h-14c-0.4,0-0.7,0.3-0.8,0.7c-0.1,0.5,0.3,0.9,0.8,0.9
				h13.3v4.7c0,0.6,0.7,1,1.2,0.7l9.4-5.5c0.3-0.2,0.4-0.4,0.4-0.7C165,24,164.9,23.7,164.6,23.6"/>
		</g>
	</g>
</g>
</svg>
