<?xml version="1.0" encoding="UTF-8"?>
<svg width="25px" height="13px" viewBox="0 0 25 13" version="1.1" xmlns="http://www.w3.org/2000/svg" xmlns:xlink="http://www.w3.org/1999/xlink">
    <!-- Generator: Sketch 47.1 (45422) - http://www.bohemiancoding.com/sketch -->
    <title>Fill 1</title>
    <desc>Created with Sketch.</desc>
    <defs></defs>
    <g id="Desktop" stroke="none" stroke-width="1" fill="none" fill-rule="evenodd">
        <g id="Espace-exposant" transform="translate(-779.000000, -529.000000)" fill="#215AD6">
            <g id="Slider" transform="translate(0.000000, 153.000000)">
                <g id="btn" transform="translate(614.000000, 358.000000)">
                    <path d="M189.621481,23.5786467 L180.246399,18.109458 C179.710847,17.799299 179.060451,18.1875836 179.062404,18.7809482 L179.062404,21.4993316 C179.062404,21.930976 179.412016,22.2805884 179.843661,22.2805884 C180.274914,22.2805884 180.624917,21.930976 180.624917,21.4993316 L180.624917,20.1360383 L187.680448,24.250137 L180.624917,28.3642357 L180.624917,24.2626371 C180.624917,23.824352 180.269446,23.4688801 179.83116,23.4688801 L165.822834,23.4688801 C165.433768,23.4688801 165.073218,23.7345075 165.010718,24.1188859 C164.931029,24.6083433 165.306423,25.0313939 165.781037,25.0313939 L179.062404,25.0313939 L179.062404,29.7193258 C179.062404,30.2701119 179.74991,30.7142564 180.246399,30.3904255 L189.621481,24.9216273 C189.873827,24.7700635 189.988281,24.5380302 190,24.250137 C189.996094,23.9841191 189.85078,23.6856789 189.621481,23.5786467" id="Fill-1"></path>
                </g>
            </g>
        </g>
    </g>
</svg>