<?xml version="1.0" encoding="UTF-8"?>
<svg width="377px" height="343px" viewBox="0 0 377 343" version="1.1" xmlns="http://www.w3.org/2000/svg" xmlns:xlink="http://www.w3.org/1999/xlink">
    <!-- Generator: Sketch 47.1 (45422) - http://www.bohemiancoding.com/sketch -->
    <title>Fill 1</title>
    <desc>Created with Sketch.</desc>
    <defs></defs>
    <g id="Desktop" stroke="none" stroke-width="1" fill="none" fill-rule="evenodd" opacity="0.636831975">
        <g id="Accueil" transform="translate(-170.000000, -6187.000000)" fill="#FFFFFF">
            <g id="Rejoignez-notre-communauté" transform="translate(-1.000000, 6119.000000)">
                <path d="M278.394279,93.0113693 C256.409745,92.6458694 235.199246,101.105975 219.489748,116.500833 C185.412748,150.614162 188.869129,209.727688 226.889326,248.616883 L227.765592,249.542817 L359.984355,382 L492.349163,249.494083 L493.176747,248.616883 C531.196944,209.630221 534.507281,150.516696 500.527643,116.549566 C466.548005,82.5824373 407.400068,85.8475702 368.600968,123.859565 C363.732825,128.304045 356.284566,128.304045 351.416423,123.859565 C332.016874,104.449081 305.816528,93.3817426 278.394279,93.0113693 M359.465539,410.999945 C356.228678,411.009701 353.123437,409.726752 350.83716,407.438907 L209.468238,265.97301 L208.444532,264.899821 C161.5003,216.703853 158.136695,142.019616 201.522329,98.6042202 C242.519317,57.5791102 311.253862,58.1644864 359.514287,98.1651881 C407.725964,58.1644864 476.509257,57.6278916 517.452622,98.6042202 C560.843131,142.019616 557.62577,216.752634 510.242807,265.143727 L509.267849,266.216917 L368.093918,407.438907 C365.807641,409.726752 362.7024,411.009701 359.465539,410.999945" id="Fill-1"></path>
            </g>
        </g>
    </g>
</svg>