<?xml version="1.0" encoding="UTF-8"?>
<svg width="371px" height="249px" viewBox="0 0 371 249" version="1.1" xmlns="http://www.w3.org/2000/svg" xmlns:xlink="http://www.w3.org/1999/xlink">
    <!-- Generator: Sketch 47.1 (45422) - http://www.bohemiancoding.com/sketch -->
    <title>Fill 1</title>
    <desc>Created with Sketch.</desc>
    <defs></defs>
    <g id="Desktop" stroke="none" stroke-width="1" fill="none" fill-rule="evenodd" opacity="0.598731884">
        <g id="Accueil" transform="translate(-896.000000, -6227.000000)" fill="#FFFFFF">
            <g id="Rejoignez-notre-communauté" transform="translate(-1.000000, 6119.000000)">
                <g id="Newsletter" transform="translate(897.000000, 108.000000)">
                    <path d="M143.505701,127.82589 L20.3976691,222.729757 L20.3976691,32.9676113 L143.505701,127.82589 Z M159.374628,137.663968 L179.748196,153.094213 C182.958542,156.061568 187.974356,156.140698 191.816615,153.241168 L212.376372,137.66962 L331.407433,229.273279 L39.8357794,229.273279 L159.374628,137.663968 Z M39.8357794,19.8805668 L331.407433,19.8805668 L185.624422,131.120445 L39.8357794,19.8805668 Z M350.845544,32.9676113 L350.845544,222.729757 L227.737512,127.82589 L350.845544,32.9676113 Z M360.416216,0.25 L10.8269965,0.25 C5.10952117,0.25 0.959558824,4.41877519 0.959558824,10.1621693 L0.959558824,238.991677 C0.959558824,244.735071 5.10952117,248.903846 10.8269965,248.903846 L360.416216,248.903846 C361.527008,248.903846 362.682908,248.665954 363.697844,248.258139 C364.481601,247.96927 365.208972,247.578448 366.201354,246.847779 C368.79508,244.865345 370.283654,241.795405 370.283654,238.425267 L370.283654,10.1621693 C370.283654,4.41877519 366.133691,0.25 360.416216,0.25 L360.416216,0.25 Z" id="Fill-1"></path>
                </g>
            </g>
        </g>
    </g>
</svg>