<?xml version="1.0" encoding="UTF-8"?>
<svg width="29px" height="31px" viewBox="0 0 29 31" version="1.1" xmlns="http://www.w3.org/2000/svg" xmlns:xlink="http://www.w3.org/1999/xlink">
    <!-- Generator: Sketch 47.1 (45422) - http://www.bohemiancoding.com/sketch -->
    <title>Fill 1</title>
    <desc>Created with Sketch.</desc>
    <defs></defs>
    <g id="Desktop" stroke="none" stroke-width="1" fill="none" fill-rule="evenodd">
        <g id="Accueil" transform="translate(-347.000000, -679.000000)" fill="#FFFFFF">
            <g id="Quicklinks" transform="translate(307.000000, 646.000000)">
                <g id="Achetez-vos-billets">
                    <path d="M68.547776,57.5687917 C69.093383,58.0337917 69.1534259,58.850125 68.6835251,59.3900417 C66.0873235,62.3621667 62.624416,64 58.9265581,64 C52.5202445,64 47.1999238,59.09425 45.6831886,52.375 L41.3052799,52.375 C40.5847654,52.375 40,51.7963333 40,51.0833333 C40,50.3703333 40.5847654,49.7916667 41.3052799,49.7916667 L45.2929099,49.7916667 C45.2302564,48.9314167 45.2302564,48.0685833 45.2929099,47.2083333 L41.3052799,47.2083333 C40.5847654,47.2083333 40,46.6296667 40,45.9166667 C40,45.2036667 40.5847654,44.625 41.3052799,44.625 L45.6831886,44.625 C47.1960079,37.909625 52.5176339,33 58.9265581,33 C62.624416,33 66.0873235,34.6365417 68.6835251,37.6086667 C69.1534259,38.1485833 69.093383,38.9649167 68.547776,39.4312083 C68.002169,39.8975 67.1759269,39.8367917 66.7060261,39.2981667 C64.6162731,36.902125 61.8529956,35.5833333 58.9265581,35.5833333 C53.8059452,35.5833333 49.7165033,39.5552083 48.3433489,44.625 L56.9686383,44.625 C57.6891528,44.625 58.2739182,45.2036667 58.2739182,45.9166667 C58.2739182,46.6296667 57.6891528,47.2083333 56.9686383,47.2083333 L47.8825851,47.2083333 C47.8081842,48.0672917 47.8081842,48.9327083 47.8825851,49.7916667 L56.9686383,49.7916667 C57.6891528,49.7916667 58.2739182,50.3703333 58.2739182,51.0833333 C58.2739182,51.7963333 57.6891528,52.375 56.9686383,52.375 L48.3433489,52.375 C49.7399984,57.5274583 53.8829567,61.4166667 58.9265581,61.4166667 C61.8529956,61.4166667 64.6162731,60.097875 66.7060261,57.703125 C67.1759269,57.1632083 68.002169,57.1025 68.547776,57.5687917" id="Fill-1"></path>
                </g>
            </g>
        </g>
    </g>
</svg>