<?xml version="1.0" encoding="UTF-8"?>
<svg width="34px" height="32px" viewBox="0 0 34 32" version="1.1" xmlns="http://www.w3.org/2000/svg" xmlns:xlink="http://www.w3.org/1999/xlink">
    <!-- Generator: Sketch 47.1 (45422) - http://www.bohemiancoding.com/sketch -->
    <title>tv</title>
    <desc>Created with Sketch.</desc>
    <defs></defs>
    <g id="Symbols" stroke="none" stroke-width="1" fill="none" fill-rule="evenodd">
        <g id="icon-tv" transform="translate(1.000000, 1.000000)">
            <g id="tv">
                <path d="M12.7595215,24 L10.791748,24 L10.791748,16.3574219 L8.27172852,16.3574219 L8.27172852,14.7197266 L15.279541,14.7197266 L15.279541,16.3574219 L12.7595215,16.3574219 L12.7595215,24 Z M22.001709,14.7197266 L23.9885254,14.7197266 L20.8337402,24 L18.6882324,24 L15.5397949,14.7197266 L17.5266113,14.7197266 L19.2722168,20.2421875 C19.369548,20.5680355 19.4700516,20.9478331 19.5737305,21.3815918 C19.6774094,21.8153505 19.7419432,22.1168611 19.767334,22.2861328 C19.8138837,21.8968079 19.9725735,21.2154997 20.2434082,20.2421875 L22.001709,14.7197266 Z" id="TV" fill="#293a4d"></path>
                <path d="M2.45800804,10.7243617 C2.02981546,10.7847816 1.68897022,11.1135885 1.61319892,11.5393323 C1.20509227,13.8324146 1,16.4866033 1,19.5 C1,22.5050082 1.20395183,25.1528114 1.60979874,27.4415278 C1.68588847,27.8706251 2.03109071,28.2010324 2.46311778,28.2582605 C6.19216243,28.752311 10.5528099,29 15.5428571,29 C20.613558,29 25.2828793,28.7442571 29.550271,28.2333809 C29.9854082,28.1812879 30.3359334,27.8519313 30.4149993,27.4208872 C30.8038655,25.3006557 31,22.6586156 31,19.5 C31,16.3336712 30.8029057,13.6864544 30.4121543,11.5636288 C30.3333629,11.1355807 29.9867551,10.807652 29.555004,10.7526694 C25.6182298,10.2513418 20.9466381,10 15.5428571,10 C10.2383074,10 5.87473138,10.2422468 2.45800804,10.7243617 Z M2.1785673,8.74397971 C5.69921694,8.24720034 10.1520206,8 15.5428571,8 C21.025847,8 25.7799029,8.25577853 29.8076564,8.7686919 C31.1029142,8.93364037 32.1427351,9.91742417 32.3791094,11.2015687 C32.7941822,13.4565244 33,16.2209084 33,19.5 C33,22.7709958 32.7951964,25.5298128 32.3821828,27.7817043 C32.1449795,29.0748667 31.0934198,30.0629219 29.788006,30.2192012 C25.438257,30.7399369 20.6900573,31 15.5428571,31 C10.4700804,31 6.02334202,30.747421 2.20046111,30.2409384 C0.904412759,30.0692583 -0.13121087,29.0780202 -0.359479701,27.7907303 C-0.787178819,25.3787815 -1,22.615832 -1,19.5 C-1,16.3753975 -0.785979238,13.6056613 -0.355859662,11.1888922 C-0.128545536,9.91165932 0.893989477,8.92523937 2.1785673,8.74397971 Z" id="Rectangle-6" fill="#293a4d" fill-rule="nonzero"></path>
                <path d="M15.5,8.5 L10.5,3.5" id="Line" stroke="#293a4d" stroke-width="1.5" stroke-linecap="round"></path>
                <path d="M23.5,8.5 L15.5,0.5" id="Line" stroke="#293a4d" stroke-width="1.5" stroke-linecap="round" transform="translate(19.500000, 4.500000) scale(1, -1) translate(-19.500000, -4.500000) "></path>
            </g>
        </g>
    </g>
</svg>