<?xml version="1.0" encoding="UTF-8"?>
<svg width="32px" height="41px" viewBox="0 0 32 41" version="1.1" xmlns="http://www.w3.org/2000/svg" xmlns:xlink="http://www.w3.org/1999/xlink">
    <!-- Generator: Sketch 47.1 (45422) - http://www.bohemiancoding.com/sketch -->
    <title>Page 1</title>
    <desc>Created with Sketch.</desc>
    <defs>
        <path d="M12.0674595,0.000854166667 L19.5001081,0.000854166667 C19.9956757,0.0179375 20.3243243,0.355333333 20.3243243,0.854166667 C20.3243243,1.36666667 19.9783784,1.70833333 19.4594595,1.70833333 L16.6918919,1.70833333 L16.6918919,3.58835417 L26.4648649,3.58835417 C29.3189189,3.58835417 31.6540541,5.89375 31.6540541,8.71335417 L31.6540541,29.98125 C31.6540541,32.8008542 29.3189189,35.10625 26.4648649,35.10625 L29.5792432,39.6341875 C29.8378378,40.0612708 29.7513514,40.5729167 29.3189189,40.8291667 C29.1468108,40.9154375 28.972973,41 28.8,41 C28.5405405,41 28.2819459,40.9154375 28.1081081,40.6583333 L26.2495135,37.9062083 L5.3267027,37.9062083 L3.45945946,40.6583333 C3.28648649,40.8291667 3.02789189,41 2.76756757,41 C2.59459459,41 2.42162162,40.9154375 2.33427027,40.8291667 C1.9027027,40.5729167 1.81621622,40.0612708 2.07567568,39.6341875 L5.18918919,35.10625 C2.33427027,35.10625 0,32.8008542 0,29.98125 L0,8.71335417 C0,5.89375 2.33427027,3.58835417 5.18918919,3.58835417 L14.9621622,3.58835417 L14.9621622,1.70833333 L12.1081081,1.70833333 C11.5891892,1.70833333 11.2432432,1.36666667 11.2432432,0.854166667 C11.2432432,0.355333333 11.5718919,0.0179375 12.0674595,0.000854166667 Z M1.72972973,29.98125 C1.72972973,31.8604167 3.28648649,33.3979167 5.18918919,33.3979167 L26.4648649,33.3979167 C28.3675676,33.3979167 29.9243243,31.8604167 29.9243243,29.98125 L29.9243243,8.71335417 C29.9243243,6.83333333 28.3675676,5.2966875 26.4648649,5.2966875 L5.18918919,5.2966875 C3.28648649,5.2966875 1.72972973,6.83333333 1.72972973,8.71335417 L1.72972973,29.98125 Z M7.26486486,35.10625 L6.53751351,36.197875 L25.1251892,36.197875 L24.3900541,35.10625 L7.26486486,35.10625 Z" id="path-1"></path>
        <path d="M6.43459459,7.11008333 L25.2082162,7.11008333 C26.604973,7.11008333 27.7690811,8.2589375 27.6903784,9.7144375 L27.6903784,20.5948125 C27.6903784,21.6667917 26.8376216,22.5867292 25.6735135,22.5867292 L5.81362162,22.5867292 C4.72821622,22.5867292 3.79675676,21.7436667 3.79675676,20.5948125 L3.79675676,9.7144375 C3.79675676,8.2589375 5.03783784,7.11008333 6.43459459,7.11008333 Z M5.4252973,20.5948125 C5.4252973,20.8237292 5.58010811,21.0535 5.89232432,21.0535 L25.7513514,21.0535 C25.984,21.0535 26.2166486,20.9006042 26.2166486,20.5948125 L26.2936216,20.5948125 L26.2936216,9.7144375 C26.2936216,9.102 25.7513514,8.64160417 25.2082162,8.64160417 L6.51243243,8.64160417 C5.89232432,8.64160417 5.4252973,9.178875 5.4252973,9.7144375 L5.4252973,20.5948125 Z" id="path-3"></path>
        <path d="M20.9245405,27.9713958 C20.9245405,25.9905833 22.5132973,24.4223333 24.5189189,24.4223333 C26.5236757,24.4223333 28.1124324,25.9905833 28.1124324,27.9713958 C28.1124324,29.9522083 26.5236757,31.5204583 24.5189189,31.5204583 C22.5132973,31.5204583 20.9245405,29.9522083 20.9245405,27.9713958 Z M22.5954595,28.05425 C22.5954595,29.0442292 23.4317838,29.9522083 24.5189189,29.9522083 C25.6051892,29.9522083 26.4406486,29.0442292 26.4406486,28.05425 C26.4406486,27.0634167 25.6051892,26.1554375 24.5189189,26.1554375 C23.5156757,26.1554375 22.5954595,27.0634167 22.5954595,28.05425 Z" id="path-5"></path>
        <path d="M3.54248649,27.9713958 C3.54248649,25.9905833 5.12951351,24.4223333 7.136,24.4223333 C9.14162162,24.4223333 10.7295135,25.9905833 10.7295135,27.9713958 C10.7295135,29.9522083 9.14162162,31.5204583 7.136,31.5204583 C5.12951351,31.5204583 3.54248649,29.9522083 3.54248649,27.9713958 Z M5.21427027,28.05425 C5.21427027,29.0442292 6.04972973,29.9522083 7.136,29.9522083 C8.22227027,29.9522083 9.05859459,29.0442292 9.05859459,28.05425 C9.05859459,27.0634167 8.13924324,26.1554375 7.136,26.1554375 C6.13362162,26.1554375 5.21427027,27.0634167 5.21427027,28.05425 Z" id="path-7"></path>
    </defs>
    <g id="Desktop" stroke="none" stroke-width="1" fill="none" fill-rule="evenodd">
        <g id="Accueil" transform="translate(-549.000000, -674.000000)">
            <g id="Quicklinks" transform="translate(307.000000, 646.000000)">
                <g id="Accès-&amp;-transports" transform="translate(207.000000, 0.000000)">
                    <g id="Page-1" transform="translate(35.000000, 28.000000)">
                        <mask id="mask-2" fill="white">
                            <use xlink:href="#path-1"></use>
                        </mask>
                        <g id="Clip-2"></g>
                        <polygon id="Fill-1" fill="#e30059" mask="url(#mask-2)" points="-4.32432432 45.2708333 35.9783784 45.2708333 35.9783784 -4.27083333 -4.32432432 -4.27083333"></polygon>
                        <mask id="mask-4" fill="white">
                            <use xlink:href="#path-3"></use>
                        </mask>
                        <g id="Clip-5"></g>
                        <polygon id="Fill-4" fill="#e30059" mask="url(#mask-4)" points="-0.528432432 26.8575625 32.0181622 26.8575625 32.0181622 2.83925 -0.528432432 2.83925"></polygon>
                        <mask id="mask-6" fill="white">
                            <use xlink:href="#path-5"></use>
                        </mask>
                        <g id="Clip-8"></g>
                        <polygon id="Fill-7" fill="#e30059" mask="url(#mask-6)" points="16.6002162 35.7912917 32.4367568 35.7912917 32.4367568 20.1515 16.6002162 20.1515"></polygon>
                        <mask id="mask-8" fill="white">
                            <use xlink:href="#path-7"></use>
                        </mask>
                        <g id="Clip-11"></g>
                        <polygon id="Fill-10" fill="#e30059" mask="url(#mask-8)" points="-0.781837838 35.7912917 15.0538378 35.7912917 15.0538378 20.1515 -0.781837838 20.1515"></polygon>
                    </g>
                </g>
            </g>
        </g>
    </g>
</svg>