<?xml version="1.0" encoding="utf-8"?>
<!-- Generator: Adobe Illustrator 22.0.1, SVG Export Plug-In . SVG Version: 6.00 Build 0)  -->
<svg version="1.1" id="Calque_1" xmlns="http://www.w3.org/2000/svg" xmlns:xlink="http://www.w3.org/1999/xlink" x="0px" y="0px"
	 viewBox="0 0 32 41" style="enable-background:new 0 0 32 41;" xml:space="preserve">
<style type="text/css">
	.st0{filter:url(#Adobe_OpacityMaskFilter);}
	.st1{fill:#FFFFFF;}
	.st2{mask:url(#mask-2_1_);fill:#009cd8;}
	.st3{filter:url(#Adobe_OpacityMaskFilter_1_);}
	.st4{mask:url(#mask-4_1_);fill:#009cd8;}
	.st5{filter:url(#Adobe_OpacityMaskFilter_2_);}
	.st6{mask:url(#mask-6_1_);fill:#009cd8;}
	.st7{filter:url(#Adobe_OpacityMaskFilter_3_);}
	.st8{mask:url(#mask-8_1_);fill:#009cd8;}
</style>
<title>Page 1</title>
<desc>Created with Sketch.</desc>
<g id="Desktop">
	<g id="Accueil" transform="translate(-549.000000, -674.000000)">
		<g id="Quicklinks" transform="translate(307.000000, 646.000000)">
			<g id="Accès-_x26_-transports" transform="translate(207.000000, 0.000000)">
				<g id="Page-1" transform="translate(35.000000, 28.000000)">
					<g id="Clip-2">
					</g>
					<defs>
						<filter id="Adobe_OpacityMaskFilter" filterUnits="userSpaceOnUse" x="-4.3" y="-4.3" width="40.3" height="49.5">
							<feColorMatrix  type="matrix" values="1 0 0 0 0  0 1 0 0 0  0 0 1 0 0  0 0 0 1 0"/>
						</filter>
					</defs>
					<mask maskUnits="userSpaceOnUse" x="-4.3" y="-4.3" width="40.3" height="49.5" id="mask-2_1_">
						<g class="st0">
							<path id="path-1_1_" class="st1" d="M12.1,0h7.4c0.5,0,0.8,0.4,0.8,0.9c0,0.5-0.3,0.9-0.9,0.9h-2.8v1.9h9.8
								c2.9,0,5.2,2.3,5.2,5.1V30c0,2.8-2.3,5.1-5.2,5.1l3.1,4.5c0.3,0.4,0.2,0.9-0.3,1.2C29.1,40.9,29,41,28.8,41
								c-0.3,0-0.5-0.1-0.7-0.3l-1.9-2.8H5.3l-1.9,2.8C3.3,40.8,3,41,2.8,41c-0.2,0-0.3-0.1-0.4-0.2c-0.4-0.3-0.5-0.8-0.3-1.2
								l3.1-4.5C2.3,35.1,0,32.8,0,30V8.7c0-2.8,2.3-5.1,5.2-5.1H15V1.7h-2.9c-0.5,0-0.9-0.3-0.9-0.9C11.2,0.4,11.6,0,12.1,0z
								 M1.7,30c0,1.9,1.6,3.4,3.5,3.4h21.3c1.9,0,3.5-1.5,3.5-3.4V8.7c0-1.9-1.6-3.4-3.5-3.4H5.2c-1.9,0-3.5,1.5-3.5,3.4V30z
								 M7.3,35.1l-0.7,1.1h18.6l-0.7-1.1H7.3z"/>
						</g>
					</mask>
					<polygon id="Fill-1" class="st2" points="-4.3,45.3 36,45.3 36,-4.3 -4.3,-4.3 					"/>
					<g id="Clip-5">
					</g>
					<defs>
						<filter id="Adobe_OpacityMaskFilter_1_" filterUnits="userSpaceOnUse" x="-0.5" y="2.8" width="32.5" height="24">
							<feColorMatrix  type="matrix" values="1 0 0 0 0  0 1 0 0 0  0 0 1 0 0  0 0 0 1 0"/>
						</filter>
					</defs>
					<mask maskUnits="userSpaceOnUse" x="-0.5" y="2.8" width="32.5" height="24" id="mask-4_1_">
						<g class="st3">
							<path id="path-3_1_" class="st1" d="M6.4,7.1h18.8c1.4,0,2.6,1.1,2.5,2.6v10.9c0,1.1-0.9,2-2,2H5.8c-1.1,0-2-0.8-2-2V9.7
								C3.8,8.3,5,7.1,6.4,7.1z M5.4,20.6c0,0.2,0.2,0.5,0.5,0.5h19.9c0.2,0,0.5-0.2,0.5-0.5h0.1V9.7c0-0.6-0.5-1.1-1.1-1.1H6.5
								c-0.6,0-1.1,0.5-1.1,1.1V20.6z"/>
						</g>
					</mask>
					<polygon id="Fill-4" class="st4" points="-0.5,26.9 32,26.9 32,2.8 -0.5,2.8 					"/>
					<g id="Clip-8">
					</g>
					<defs>
						<filter id="Adobe_OpacityMaskFilter_2_" filterUnits="userSpaceOnUse" x="16.6" y="20.2" width="15.8" height="15.6">
							<feColorMatrix  type="matrix" values="1 0 0 0 0  0 1 0 0 0  0 0 1 0 0  0 0 0 1 0"/>
						</filter>
					</defs>
					<mask maskUnits="userSpaceOnUse" x="16.6" y="20.2" width="15.8" height="15.6" id="mask-6_1_">
						<g class="st5">
							<path id="path-5_1_" class="st1" d="M20.9,28c0-2,1.6-3.5,3.6-3.5c2,0,3.6,1.6,3.6,3.5s-1.6,3.5-3.6,3.5
								C22.5,31.5,20.9,30,20.9,28z M22.6,28.1c0,1,0.8,1.9,1.9,1.9c1.1,0,1.9-0.9,1.9-1.9c0-1-0.8-1.9-1.9-1.9
								C23.5,26.2,22.6,27.1,22.6,28.1z"/>
						</g>
					</mask>
					<polygon id="Fill-7" class="st6" points="16.6,35.8 32.4,35.8 32.4,20.2 16.6,20.2 					"/>
					<g id="Clip-11">
					</g>
					<defs>
						<filter id="Adobe_OpacityMaskFilter_3_" filterUnits="userSpaceOnUse" x="-0.8" y="20.2" width="15.8" height="15.6">
							<feColorMatrix  type="matrix" values="1 0 0 0 0  0 1 0 0 0  0 0 1 0 0  0 0 0 1 0"/>
						</filter>
					</defs>
					<mask maskUnits="userSpaceOnUse" x="-0.8" y="20.2" width="15.8" height="15.6" id="mask-8_1_">
						<g class="st7">
							<path id="path-7_1_" class="st1" d="M3.5,28c0-2,1.6-3.5,3.6-3.5c2,0,3.6,1.6,3.6,3.5s-1.6,3.5-3.6,3.5
								C5.1,31.5,3.5,30,3.5,28z M5.2,28.1C5.2,29,6,30,7.1,30s1.9-0.9,1.9-1.9c0-1-0.9-1.9-1.9-1.9C6.1,26.2,5.2,27.1,5.2,28.1z"/>
						</g>
					</mask>
					<polygon id="Fill-10" class="st8" points="-0.8,35.8 15.1,35.8 15.1,20.2 -0.8,20.2 					"/>
				</g>
			</g>
		</g>
	</g>
</g>
</svg>
