<?xml version="1.0" encoding="UTF-8"?>
<svg width="46px" height="60px" viewBox="0 0 46 60" version="1.1" xmlns="http://www.w3.org/2000/svg" xmlns:xlink="http://www.w3.org/1999/xlink">
    <!-- Generator: Sketch 47.1 (45422) - http://www.bohemiancoding.com/sketch -->
    <title>Page 1</title>
    <desc>Created with Sketch.</desc>
    <defs>
        <path d="M17.5365574,0 L28.3377596,0 C29.0579235,0.0250005208 29.5355191,0.518760808 29.5355191,1.24877602 C29.5355191,1.99879164 29.0327869,2.49880206 28.2786885,2.49880206 L24.2568306,2.49880206 L24.2568306,5.25010938 L38.4590164,5.25010938 C42.6065574,5.25010938 46,8.62392967 46,12.7502656 L46,43.8746641 C46,48.001 42.6065574,51.3748203 38.4590164,51.3748203 L42.9848634,58.0012084 C43.3606557,58.6262214 43.2349727,59.374987 42.6065574,59.7499948 C42.3564481,59.8762474 42.1038251,60 41.852459,60 C41.4754098,60 41.0996175,59.8762474 40.8469945,59.4999896 L38.1460656,55.4724057 L7.74081967,55.4724057 L5.0273224,59.4999896 C4.77595628,59.7499948 4.40016393,60 4.02185792,60 C3.7704918,60 3.51912568,59.8762474 3.39218579,59.7499948 C2.76502732,59.374987 2.63934426,58.6262214 3.01639344,58.0012084 L7.54098361,51.3748203 C3.39218579,51.3748203 0,48.001 0,43.8746641 L0,12.7502656 C0,8.62392967 3.39218579,5.25010938 7.54098361,5.25010938 L21.7431694,5.25010938 L21.7431694,2.49880206 L17.5956284,2.49880206 C16.8415301,2.49880206 16.3387978,1.99879164 16.3387978,1.24877602 C16.3387978,0.518760808 16.8163934,0.0250005208 17.5365574,0 Z M2.5136612,43.8746641 C2.5136612,46.6247213 4.77595628,48.8747682 7.54098361,48.8747682 L38.4590164,48.8747682 C41.2240437,48.8747682 43.4863388,46.6247213 43.4863388,43.8746641 L43.4863388,12.7502656 C43.4863388,9.99895831 41.2240437,7.75016146 38.4590164,7.75016146 L7.54098361,7.75016146 C4.77595628,7.75016146 2.5136612,9.99895831 2.5136612,12.7502656 L2.5136612,43.8746641 Z M10.557377,51.3748203 L9.50038251,52.9723536 L36.5121858,52.9723536 L35.4438798,51.3748203 L10.557377,51.3748203 Z" id="path-1"></path>
        <path d="M8.75298214,10 L35.4631406,10 C37.4503754,10 39.1066095,11.7073238 38.9946353,13.8703571 L38.9946353,30.0397925 C38.9946353,31.6328716 37.7813761,33 36.1251421,33 L7.86949323,33 C6.32523337,33 5,31.7471163 5,30.0397925 L5,13.8703571 C5,11.7073238 6.76574734,10 8.75298214,10 Z M7.31700504,30.0397925 C7.31700504,30.3799879 7.53726202,30.7214526 7.98146745,30.7214526 L36.2358858,30.7214526 C36.5668865,30.7214526 36.8978872,30.4942326 36.8978872,30.0397925 L37.0074005,30.0397925 L37.0074005,13.8703571 C37.0074005,12.9602075 36.2358858,12.2760086 35.4631406,12.2760086 L8.86372588,12.2760086 C7.98146745,12.2760086 7.31700504,13.0744522 7.31700504,13.8703571 L7.31700504,30.0397925 Z" id="path-3"></path>
        <path d="M30,40 C30,37.2093863 32.431356,35 35.5006618,35 C38.568644,35 41,37.2093863 41,40 C41,42.7906137 38.568644,45 35.5006618,45 C32.431356,45 30,42.7906137 30,40 Z M32.557093,40.1167268 C32.557093,41.511432 33.8369631,42.7906137 35.5006618,42.7906137 C37.1630369,42.7906137 38.4415834,41.511432 38.4415834,40.1167268 C38.4415834,38.7208183 37.1630369,37.4416366 35.5006618,37.4416366 C33.9653471,37.4416366 32.557093,38.7208183 32.557093,40.1167268 Z" id="path-5"></path>
        <path d="M5,40 C5,37.2093863 7.20818291,35 10,35 C12.7906137,35 15,37.2093863 15,40 C15,42.7906137 12.7906137,45 10,45 C7.20818291,45 5,42.7906137 5,40 Z M7.32611312,40.1167268 C7.32611312,41.511432 8.48856799,42.7906137 10,42.7906137 C11.511432,42.7906137 12.6750903,41.511432 12.6750903,40.1167268 C12.6750903,38.7208183 11.3959085,37.4416366 10,37.4416366 C8.60529483,37.4416366 7.32611312,38.7208183 7.32611312,40.1167268 Z" id="path-7"></path>
    </defs>
    <g id="Desktop" stroke="none" stroke-width="1" fill="none" fill-rule="evenodd">
        <g id="Accueil" transform="translate(-697.000000, -5508.000000)">
            <g id="Group-2" transform="translate(549.000000, 5444.000000)">
                <g id="offre-adapte">
                    <g id="Page-1" transform="translate(148.000000, 64.000000)">
                        <mask id="mask-2" fill="white">
                            <use xlink:href="#path-1"></use>
                        </mask>
                        <g id="Clip-2"></g>
                        <polygon id="Fill-1" fill="#FFFFFF" mask="url(#mask-2)" points="-6 66 52 66 52 -6 -6 -6"></polygon>
                        <mask id="mask-4" fill="white">
                            <use xlink:href="#path-3"></use>
                        </mask>
                        <g id="Clip-5"></g>
                        <polygon id="Fill-4" fill="#FFFFFF" mask="url(#mask-4)" points="-1 39 46 39 46 4 -1 4"></polygon>
                        <mask id="mask-6" fill="white">
                            <use xlink:href="#path-5"></use>
                        </mask>
                        <g id="Clip-8"></g>
                        <polygon id="Fill-7" fill="#FFFFFF" mask="url(#mask-6)" points="23 52 46 52 46 29 23 29"></polygon>
                        <mask id="mask-8" fill="white">
                            <use xlink:href="#path-7"></use>
                        </mask>
                        <g id="Clip-11"></g>
                        <polygon id="Fill-10" fill="#FFFFFF" mask="url(#mask-8)" points="-2 52 21 52 21 29 -2 29"></polygon>
                    </g>
                </g>
            </g>
        </g>
    </g>
</svg>