<?xml version="1.0" encoding="UTF-8"?>
<svg width="69px" height="69px" viewBox="0 0 69 69" version="1.1" xmlns="http://www.w3.org/2000/svg" xmlns:xlink="http://www.w3.org/1999/xlink">
    <!-- Generator: Sketch 47.1 (45422) - http://www.bohemiancoding.com/sketch -->
    <title>Group 31</title>
    <desc>Created with Sketch.</desc>
    <defs>
        <polygon id="path-1" points="0 35 37 35 37 0 0 0"></polygon>
    </defs>
    <g id="Desktop" stroke="none" stroke-width="1" fill="none" fill-rule="evenodd">
        <g id="Visiteurs-pro" transform="translate(-1086.000000, -1766.000000)">
            <g id="service-dediee" transform="translate(950.000000, 1509.000000)">
                <g id="Group-31" transform="translate(138.000000, 259.000000)">
                    <circle id="Oval-2" stroke="#FFFFFF" stroke-width="4" fill="#89298E" cx="32.5" cy="32.5" r="32.5"></circle>
                    <g id="Page-1" transform="translate(14.000000, 15.000000)">
                        <mask id="mask-2" fill="white">
                            <use xlink:href="#path-1"></use>
                        </mask>
                        <g id="Clip-2"></g>
                        <path d="M25.3837209,19.2068092 C25.8586977,19.2068092 26.244186,19.5892381 26.244186,20.0604452 C26.244186,20.5316522 25.8586977,20.9140812 25.3837209,20.9140812 L11.6162791,20.9140812 C11.1408721,20.9140812 10.755814,20.5316522 10.755814,20.0604452 C10.755814,19.5892381 11.1408721,19.2068092 11.6162791,19.2068092 L25.3837209,19.2068092 Z M26.6744186,14.0849934 C27.1493953,14.0849934 27.5348837,14.4674223 27.5348837,14.9386294 C27.5348837,15.4098364 27.1493953,15.7922654 26.6744186,15.7922654 L9.46511628,15.7922654 C8.99013953,15.7922654 8.60465116,15.4098364 8.60465116,14.9386294 C8.60465116,14.4674223 8.99013953,14.0849934 9.46511628,14.0849934 L26.6744186,14.0849934 Z M25.0967558,8.96317764 C25.5717326,8.96317764 25.9572209,9.34560655 25.9572209,9.8168136 C25.9572209,10.2880207 25.5717326,10.6704496 25.0967558,10.6704496 L11.1860465,10.6704496 C10.7110698,10.6704496 10.3255814,10.2880207 10.3255814,9.8168136 C10.3255814,9.34560655 10.7110698,8.96317764 11.1860465,8.96317764 L25.0967558,8.96317764 Z M18.5,1.70727193 C9.13469767,1.70727193 1.72093023,7.79540364 1.72093023,15.1119175 C1.72093023,22.4284314 9.13469767,28.5302212 18.5,28.5302212 C19.8255465,28.5302212 21.8971163,28.4038831 23.0712209,28.1832182 C23.267407,28.1426705 23.4721977,28.1708405 23.6494535,28.26346 L30.9500698,32.2115263 L28.4624651,26.3560104 C28.3071512,25.9740083 28.4482674,25.5365199 28.7984767,25.315855 C32.7604884,22.809153 35.2790698,19.3404033 35.2790698,15.1119175 C35.2790698,7.79540364 27.8653023,1.70727193 18.5,1.70727193 L18.5,1.70727193 Z M18.5,0 C28.6229419,0 37,6.66433598 37,15.1119175 C37,19.7761844 34.2581279,23.5991931 30.3047209,26.3026582 L33.4910233,33.8120938 C33.6768837,34.2457408 33.4733837,34.747252 33.0358372,34.9320642 C32.7918953,35.0349273 32.5126744,35.0204155 32.2807791,34.8923701 L23.0445465,29.8904901 C21.6635,30.1154232 19.8272674,30.2374932 18.5,30.2374932 C8.37705814,30.2374932 0,23.559499 0,15.1119175 C0,6.66433598 8.37705814,0 18.5,0 L18.5,0 Z" id="Fill-1" fill="#FFFFFF" mask="url(#mask-2)"></path>
                    </g>
                </g>
            </g>
        </g>
    </g>
</svg>