<?xml version="1.0" encoding="UTF-8"?>
<svg width="45px" height="48px" viewBox="0 0 45 48" version="1.1" xmlns="http://www.w3.org/2000/svg" xmlns:xlink="http://www.w3.org/1999/xlink">
    <!-- Generator: Sketch 47.1 (45422) - http://www.bohemiancoding.com/sketch -->
    <title>Fill 1</title>
    <desc>Created with Sketch.</desc>
    <defs></defs>
    <g id="Desktop" stroke="none" stroke-width="1" fill="none" fill-rule="evenodd">
        <g id="Accueil" transform="translate(-297.000000, -5498.000000)" fill="#FFFFFF">
            <g id="Group" transform="translate(149.000000, 5444.000000)">
                <path d="M192.508918,94.862 C188.48033,99.464 183.106852,102 177.368797,102 C169.555752,102 162.783674,97.3077608 159.09991,90.2478753 C158.096682,88.3252022 157.322508,86.2269258 156.818741,84 L150.025434,84 C148.907395,84 148,83.104 148,82 C148,80.896 148.907395,80 150.025434,80 L156.213136,80 C156.115915,78.668 156.115915,77.332 156.213136,76 L150.025434,76 C148.907395,76 148,75.104 148,74 C148,72.896 148.907395,72 150.025434,72 L156.818741,72 C159.166219,61.602 167.423915,54 177.368797,54 C183.106852,54 188.48033,56.534 192.508918,61.136 C193.238075,61.972 193.144905,63.236 192.298273,63.958 C191.451642,64.68 190.169542,64.586 189.440385,63.752 C186.197665,60.042 181.909821,58 177.368797,58 C169.423018,58 163.077333,64.15 160.946576,72 L174.330646,72 C175.448685,72 176.35608,72.896 176.35608,74 C176.35608,75.104 175.448685,76 174.330646,76 L160.231598,76 C160.116148,77.33 160.116148,78.67 160.231598,80 L174.330646,80 C175.448685,80 176.35608,80.896 176.35608,82 C176.35608,83.104 175.448685,84 174.330646,84 L160.946576,84 C163.113791,91.978 169.542519,98 177.368797,98 C181.909821,98 186.197665,95.958 189.440385,92.25 C190.169542,91.414 191.451642,91.32 192.298273,92.042 C193.144905,92.762 193.238075,94.026 192.508918,94.862 Z" id="Fill-1"></path>
            </g>
        </g>
    </g>
</svg>