<?xml version="1.0" encoding="UTF-8"?>
<svg width="54px" height="54px" viewBox="0 0 54 54" version="1.1" xmlns="http://www.w3.org/2000/svg" xmlns:xlink="http://www.w3.org/1999/xlink">
    <!-- Generator: Sketch 47.1 (45422) - http://www.bohemiancoding.com/sketch -->
    <title>icon-player</title>
    <desc>Created with Sketch.</desc>
    <defs>
        <polygon id="path-1" points="0 26.9998975 0 0 54 0 54 26.9998975 54 53.9997949 0 53.9997949"></polygon>
    </defs>
    <g id="Desktop" stroke="none" stroke-width="1" fill="none" fill-rule="evenodd">
        <g id="Accueil" transform="translate(-693.000000, -4921.000000)">
            <g id="Dans-les-coulisses" transform="translate(-1.000000, 4620.000000)">
                <g id="Video-1-Copy-2">
                    <g transform="translate(551.000000, 234.000000)">
                        <g id="player" transform="translate(143.000000, 67.000000)">
                            <g id="Player">
                                <mask id="mask-2" fill="white">
                                    <use xlink:href="#path-1"></use>
                                </mask>
                                <g id="Clip-2"></g>
                                <path d="M27,2.99987089 C40.2006076,2.99987089 50.9999241,13.7998709 50.9999241,26.9997949 C50.9999241,40.2004025 40.2006076,51.0004025 27,51.0004025 C13.8000759,51.0004025 3.00007595,40.2004025 3.00007595,26.9997949 C3.00007595,13.7998709 13.8000759,2.99987089 27,2.99987089 M27,53.9997949 C41.9251899,53.9997949 54,41.9249848 54,26.9997949 C54,12.0746051 41.9251899,-0.000205063291 27,-0.000205063291 C12.0748101,-0.000205063291 0,12.0746051 0,26.9997949 C0,41.9249848 12.0748101,53.9997949 27,53.9997949" id="Fill-1" fill="#FFFFFF" mask="url(#mask-2)"></path>
                                <path d="M22.2151899,19.8227848 L34.5189873,27 L22.2151899,34.1772152 L22.2151899,19.8227848 Z M20.164557,37.7316456 C20.3696203,37.8683544 20.643038,37.9367089 20.8481013,37.9367089 C21.0531646,37.9367089 21.3265823,37.8683544 21.5316456,37.7316456 L37.9367089,28.1620253 C38.3468354,27.8886076 38.6202532,27.478481 38.6202532,27 C38.6202532,26.521519 38.3468354,26.043038 37.9367089,25.8379747 L21.5316456,16.2683544 C21.121519,15.9949367 20.5746835,15.9949367 20.164557,16.2683544 C19.7544304,16.5417722 19.4810127,16.9518987 19.4810127,17.4303797 L19.4810127,36.5696203 C19.4810127,37.0481013 19.7544304,37.5265823 20.164557,37.7316456 L20.164557,37.7316456 Z" id="Fill-4" fill="#FFFFFF" mask="url(#mask-2)"></path>
                            </g>
                        </g>
                    </g>
                </g>
            </g>
        </g>
    </g>
</svg>