<?xml version="1.0" encoding="UTF-8"?>
<svg width="37px" height="27px" viewBox="0 0 37 27" version="1.1" xmlns="http://www.w3.org/2000/svg" xmlns:xlink="http://www.w3.org/1999/xlink">
    <!-- Generator: Sketch 47.1 (45422) - http://www.bohemiancoding.com/sketch -->
    <title>Youtube</title>
    <desc>Created with Sketch.</desc>
    <defs>
        <polygon id="path-1" points="18.5 27 0 27 0 0 18.5 0 37 0 37 27"></polygon>
    </defs>
    <g id="Desktop" stroke="none" stroke-width="1" fill="none" fill-rule="evenodd">
        <g id="Accueil" transform="translate(-479.000000, -6419.000000)">
            <g id="Rejoignez-notre-communauté" transform="translate(-1.000000, 6119.000000)">
                <g id="Group-8" transform="translate(175.000000, 281.000000)">
                    <g id="Youtube" transform="translate(305.000000, 19.000000)">
                        <mask id="mask-2" fill="white">
                            <use xlink:href="#path-1"></use>
                        </mask>
                        <g id="Clip-2"></g>
                        <path d="M36.63,5.82405882 C36.63,5.82405882 36.2684792,3.17885294 35.1600208,2.01388235 C33.7524792,0.484411765 32.1753542,0.477264706 31.4523125,0.388323529 C26.274625,0 18.5084792,0 18.5084792,0 L18.4922917,0 C18.4922917,0 10.7261458,0 5.5476875,0.388323529 C4.823875,0.477264706 3.24829167,0.484411765 1.83997917,2.01388235 C0.731520833,3.17885294 0.37,5.82405882 0.37,5.82405882 C0.37,5.82405882 0,8.93144118 0,12.0372353 L0,14.9492647 C0,18.0566471 0.37,21.1624412 0.37,21.1624412 C0.37,21.1624412 0.731520833,23.8076471 1.83997917,24.9726176 C3.24829167,26.5020882 5.09675,26.4544412 5.92077083,26.6140588 C8.88,26.9086765 18.5,27 18.5,27 C18.5,27 26.274625,26.9880882 31.4523125,26.5989706 C32.1753542,26.5092353 33.7524792,26.5020882 35.1600208,24.9726176 C36.2684792,23.8076471 36.63,21.1624412 36.63,21.1624412 C36.63,21.1624412 37,18.0566471 37,14.9492647 L37,12.0372353 C37,8.93144118 36.63,5.82405882 36.63,5.82405882 L36.63,5.82405882 Z M14.67975,18.4791176 L14.6789792,7.69341176 L24.6759167,13.1045294 L14.67975,18.4791176 Z" id="Fill-1" fill="#DD0000" mask="url(#mask-2)"></path>
                    </g>
                </g>
            </g>
        </g>
    </g>
</svg>