<?xml version="1.0" encoding="UTF-8"?>
<svg width="84px" height="84px" viewBox="0 0 84 84" version="1.1" xmlns="http://www.w3.org/2000/svg" xmlns:xlink="http://www.w3.org/1999/xlink">
    <!-- Generator: Sketch 47.1 (45422) - http://www.bohemiancoding.com/sketch -->
    <title>Group 4</title>
    <desc>Created with Sketch.</desc>
    <defs>
        <polygon id="path-1" points="52.5888574 52.5888574 0 52.5888574 0 26.2944287 0 -3.55271368e-15 52.5888574 -3.55271368e-15"></polygon>
    </defs>
    <g id="Symbols" stroke="none" stroke-width="1" fill="none" fill-rule="evenodd">
        <g id="Header" transform="translate(-1233.000000, -18.000000)">
            <g id="Achetez-billet">
                <g transform="translate(1210.000000, 0.000000)">
                    <g id="Group-4" transform="translate(24.000000, 19.000000)">
                        <g id="icon-ticket" transform="translate(16.209302, 14.302326)">
                            <g id="Page-1" transform="translate(26.500000, 26.500000) rotate(-90.000000) translate(-26.500000, -26.500000) ">
                                <mask id="mask-2" fill="white">
                                    <use xlink:href="#path-1"></use>
                                </mask>
                                <g id="Clip-2"></g>
                                <path d="M3.12982255,19.4332612 L6.64989311,15.9719074 C9.2814076,17.258656 12.4728188,16.6992001 14.5444366,14.6297726 C16.6154945,12.5592262 17.1753912,9.37088683 15.8881887,6.68493891 L19.3595482,3.2168716 L27.030133,10.8808584 L25.3504429,12.5592262 L26.9181536,14.1262622 L28.5978437,12.4478944 L49.3649722,33.1981149 L49.3694514,33.20315 L45.6181435,36.9515047 C42.9306394,35.3290825 39.4592798,35.7772067 37.219693,38.0150305 C34.9801062,40.2528542 34.5321889,43.7209215 36.211879,46.4068694 L33.1889967,49.427372 L12.4162692,28.6721164 L14.0959593,26.9937486 L12.5288085,25.4267126 L10.8491184,27.1050804 L3.1225439,19.4410936 L3.12982255,19.4332612 Z M0,19.3157754 L33.0960538,52.5799061 L33.1050122,52.5888574 L39.0919876,46.6054763 C39.0919876,46.6054763 38.564005,46.1271414 38.0041083,45.2314525 C36.8843149,43.3852479 37.219693,41.0920381 38.7314141,39.525002 C40.2436951,38.0150305 42.5952612,37.7353025 44.4429204,38.7977093 C45.3381952,39.3571652 45.8633783,39.8399757 45.8633783,39.8399757 L52.5888574,33.1751772 L52.5871778,33.1734988 L19.3315534,-3.55271368e-15 L12.932494,6.39290291 C12.932494,6.39290291 13.4246432,6.79738955 13.8725605,7.63657345 C14.7683953,9.42627297 14.3759077,11.552765 12.9761659,12.9514048 C11.5764242,14.3500446 9.44937661,14.7411043 7.65714727,13.8465343 C6.76187245,13.3984101 6.42369484,12.8965781 6.42369484,12.8965781 L0,19.3157754 Z" id="Fill-1" fill="#FFFFFF" mask="url(#mask-2)"></path>
                                <polygon id="Fill-4" fill="#FFFFFF" mask="url(#mask-2)" points="14.2740252 23.773392 16.2852822 21.761627 17.7224749 23.1988197 15.7107099 25.2100766"></polygon>
                                <polygon id="Fill-6" fill="#FFFFFF" mask="url(#mask-2)" points="18.0893936 19.9170314 20.1006506 17.9052665 21.5378433 19.3424592 19.5260783 21.3537161"></polygon>
                                <polygon id="Fill-8" fill="#FFFFFF" mask="url(#mask-2)" points="21.8300379 16.0601629 23.8418029 14.0489059 25.2784876 15.4855906 23.2667226 17.4973556"></polygon>
                                <path d="M22.7578626,32.4173321 C22.9864891,32.6459586 23.2722722,32.7602718 23.5580553,32.7602718 C23.8438385,32.7602718 24.1296216,32.6459586 24.3582481,32.4173321 L32.4173321,24.3582481 C32.8745851,23.9009951 32.8745851,23.2151156 32.4173321,22.7578626 C31.9600791,22.3006096 31.2741996,22.3006096 30.8169466,22.7578626 L22.7578626,30.8169466 C22.3006096,31.217043 22.3006096,31.9600791 22.7578626,32.4173321" id="Fill-10" fill="#FFFFFF" mask="url(#mask-2)"></path>
                                <path d="M26.2063123,35.8652292 C26.4349388,36.093843 26.7207219,36.2087215 27.006505,36.2087215 C27.2922881,36.2087215 27.5780712,36.093843 27.8066977,35.8652292 L35.8657818,27.8065904 C36.3230348,27.3493626 36.3230348,26.663521 35.8657818,26.2062933 C35.4091003,25.7490656 34.7226493,25.7490656 34.2659679,26.2062933 L26.2063123,34.2083502 C25.7490593,34.6650064 25.7490593,35.4080014 26.2063123,35.8652292" id="Fill-12" fill="#FFFFFF" mask="url(#mask-2)"></path>
                            </g>
                        </g>
                        <circle id="Oval-3" stroke="#FFFFFF" stroke-width="1.89999998" opacity="0.38176306" cx="41" cy="41" r="41"></circle>
                        <circle id="Oval-3" stroke="#FFFFFF" stroke-width="0.949999988" opacity="0.504197761" stroke-dasharray="1.899999976158142,1.899999976158142" cx="41" cy="41" r="34.3255814"></circle>
                    </g>
                </g>
            </g>
        </g>
    </g>
</svg>