<?xml version="1.0" encoding="UTF-8"?>
<svg width="60px" height="65px" viewBox="0 0 60 65" version="1.1" xmlns="http://www.w3.org/2000/svg" xmlns:xlink="http://www.w3.org/1999/xlink">
    <!-- Generator: Sketch 47.1 (45422) - http://www.bohemiancoding.com/sketch -->
    <title>Page 1</title>
    <desc>Created with Sketch.</desc>
    <defs>
        <filter x="-34.5%" y="-26.6%" width="169.0%" height="161.7%" filterUnits="objectBoundingBox" id="filter-1">
            <feOffset dx="0" dy="2" in="SourceAlpha" result="shadowOffsetOuter1"></feOffset>
            <feGaussianBlur stdDeviation="4.5" in="shadowOffsetOuter1" result="shadowBlurOuter1"></feGaussianBlur>
            <feColorMatrix values="0 0 0 0 0   0 0 0 0 0   0 0 0 0 0  0 0 0 0.354789402 0" type="matrix" in="shadowBlurOuter1" result="shadowMatrixOuter1"></feColorMatrix>
            <feMerge>
                <feMergeNode in="shadowMatrixOuter1"></feMergeNode>
                <feMergeNode in="SourceGraphic"></feMergeNode>
            </feMerge>
        </filter>
        <polygon id="path-2" points="42 0 42 47 5.46934278e-15 47 0 1.87090208e-14 42 1.87090208e-14"></polygon>
    </defs>
    <g id="Desktop" stroke="none" stroke-width="1" fill="none" fill-rule="evenodd">
        <g id="Accueil" transform="translate(-1089.000000, -5501.000000)">
            <g id="Group-4" transform="translate(949.000000, 5444.000000)">
                <g id="service-dediee">
                    <g id="Page-1" filter="url(#filter-1)" transform="translate(149.000000, 64.000000)">
                        <mask id="mask-3" fill="white">
                            <use xlink:href="#path-2"></use>
                        </mask>
                        <g id="Clip-2"></g>
                        <path d="M38.1473684,44.3669468 L3.78947368,44.3669468 C3.09473684,44.3669468 2.52631579,43.7745098 2.52631579,43.0504202 L2.52631579,19.5504202 L39.4736842,19.5504202 L39.4736842,43.0504202 C39.4105263,43.7745098 38.8421053,44.3669468 38.1473684,44.3669468 M3.78947368,7.04341737 L10.5473684,7.04341737 L10.5473684,10.1372549 C10.5473684,10.8613445 11.1157895,11.4537815 11.8105263,11.4537815 C12.5052632,11.4537815 13.0736842,10.8613445 13.0736842,10.1372549 L13.0736842,7.04341737 L28.8631579,7.04341737 L28.8631579,10.1372549 C28.8631579,10.8613445 29.4315789,11.4537815 30.1263158,11.4537815 C30.8204211,11.4537815 31.3894737,10.8613445 31.3894737,10.1372549 L31.3894737,7.04341737 L38.1473684,7.04341737 C38.8421053,7.04341737 39.4105263,7.63585434 39.4105263,8.35994398 L39.4105263,16.9173669 L2.52631579,16.9173669 L2.52631579,8.35994398 C2.52631579,7.63585434 3.09473684,7.04341737 3.78947368,7.04341737 M38.1473684,4.41036415 L31.3894737,4.41036415 L31.3894737,1.31652661 C31.3894737,0.592436975 30.8204211,0 30.1263158,0 C29.4315789,0 28.8631579,0.592436975 28.8631579,1.31652661 L28.8631579,4.41036415 L13.0736842,4.41036415 L13.0736842,1.31652661 C13.0736842,0.592436975 12.5052632,0 11.8105263,0 C11.1157895,0 10.5473684,0.592436975 10.5473684,1.31652661 L10.5473684,4.41036415 L3.78947368,4.41036415 C1.70526316,4.41036415 0,6.18767507 0,8.35994398 L0,43.0504202 C0,45.2226891 1.70526316,47 3.78947368,47 L38.2105263,47 C40.2941053,47 42,45.2226891 42,43.0504202 L42,8.35994398 C41.9368421,6.18767507 40.2315789,4.41036415 38.1473684,4.41036415" id="Fill-1" fill="#FFFFFF" mask="url(#mask-3)"></path>
                        <path d="M31.7910555,34 L10.2732433,34 C9.57295949,34 9,34.675 9,35.5 C9,36.325 9.57295949,37 10.2732433,37 L31.7267567,37 C32.4276771,37 33,36.325 33,35.5 C33,34.675 32.4913393,34 31.7910555,34" id="Fill-4" fill="#FFFFFF" mask="url(#mask-3)"></path>
                        <path d="M14.2830189,29 L28.7169811,29 C29.423283,29 30,28.325 30,27.5 C30,26.675 29.423283,26 28.7169811,26 L14.2830189,26 C13.5773585,26 13,26.675 13,27.5 C13,28.325 13.5773585,29 14.2830189,29" id="Fill-6" fill="#FFFFFF" mask="url(#mask-3)"></path>
                    </g>
                </g>
            </g>
        </g>
    </g>
</svg>