<?xml version="1.0" encoding="UTF-8"?>
<svg width="84px" height="84px" viewBox="0 0 84 84" version="1.1" xmlns="http://www.w3.org/2000/svg" xmlns:xlink="http://www.w3.org/1999/xlink">
    <!-- Generator: Sketch 47.1 (45422) - http://www.bohemiancoding.com/sketch -->
    <title>Group 4</title>
    <desc>Created with Sketch.</desc>
    <defs>
        <polygon id="path-1" points="19 34 0 34 0 0 19 0 38 0 38 34"></polygon>
    </defs>
    <g id="headers" stroke="none" stroke-width="1" fill="none" fill-rule="evenodd">
        <g id="Header-Juin---Novembre" transform="translate(-1191.000000, -52.000000)">
            <g id="Achetez-billet" transform="translate(1165.000000, 34.000000)">
                <g id="Group-4" transform="translate(27.000000, 19.000000)">
                    <circle id="Oval-3" stroke="#FFFFFF" stroke-width="1.89999998" opacity="0.38176306" cx="41" cy="41" r="41"></circle>
                    <circle id="Oval-3" stroke="#FFFFFF" stroke-width="0.949999988" opacity="0.504197761" stroke-dasharray="1.899999976158142,1.899999976158142" cx="41.3255814" cy="41.3255814" r="34.3255814"></circle>
                    <g id="Page-1" transform="translate(23.000000, 24.000000)">
                        <mask id="mask-2" fill="white">
                            <use xlink:href="#path-1"></use>
                        </mask>
                        <g id="Clip-2"></g>
                        <path d="M31.652938,14.7228587 C30.4305953,14.7228587 29.3332817,14.0856936 28.7110784,13.0198901 C28.447782,12.5695302 27.9609042,12.2914945 27.4372532,12.2914945 C26.9077185,12.2914945 26.4223117,12.5695302 26.1590153,13.0198901 C25.5412247,14.0856936 24.4409693,14.7228587 23.2200975,14.7228587 C21.996284,14.7228587 20.8974994,14.0856936 20.278238,13.0198901 C19.7516451,12.1206184 18.2498258,12.1206184 17.721762,13.0198901 C17.1054424,14.0856936 16.005187,14.7228587 14.7828443,14.7228587 C13.5590307,14.7228587 12.463188,14.0856936 11.8409847,13.0198901 C11.3158628,12.1206184 9.81404351,12.1206184 9.28745065,13.0198901 C8.66966014,14.0856936 7.56940466,14.7228587 6.34853294,14.7228587 C4.55694047,14.7228587 3.08159789,13.3500575 2.95068514,11.6181268 L5.17178912,6.00383321 L32.3913447,6.00383321 L35.0478439,11.6601218 C34.8933963,13.3732271 33.432763,14.7228587 31.652938,14.7228587 L31.652938,14.7228587 Z M28.3021599,31.1023468 L28.3021599,21.2089101 C28.3021599,20.8092338 27.9697298,20.4848588 27.5666951,20.4848588 L10.4068282,20.4848588 C9.99790973,20.4848588 9.67136332,20.8092338 9.67136332,21.2089101 L9.67136332,31.1023468 L6.98985833,31.1023468 L6.98985833,17.5596916 C8.32252071,17.4221219 9.57722381,16.8892202 10.5686305,16.0145662 C11.7144848,17.0296861 13.2133622,17.6190638 14.7843152,17.6190638 C16.3582101,17.6190638 17.8556166,17.0296861 19.0029419,16.0145662 C20.1502671,17.0296861 21.6476736,17.6190638 23.2215685,17.6190638 C24.7910506,17.6190638 26.289928,17.0296861 27.4387242,16.0145662 C28.425718,16.8892202 29.6804212,17.4221219 31.0130835,17.5582435 L31.0130835,31.1023468 L28.3021599,31.1023468 Z M11.1422931,31.1023468 L26.8312302,31.1023468 L26.8312302,21.9329614 L11.1422931,21.9329614 L11.1422931,31.1023468 Z M30.9336533,2.89620512 L31.7117752,4.55573065 L5.7439808,4.55573065 L6.40148641,2.89620512 L30.9336533,2.89620512 Z M38,11.3690532 C38,11.1605264 37.9544012,10.9519997 37.8661454,10.7608501 L33.2091817,0.839899485 C32.9679492,0.327271178 32.4472401,0 31.8721065,0 L5.39537044,0 C4.78934737,0 4.24510335,0.366369948 4.02446388,0.920993228 L0.100023225,10.843392 C0.033831385,11.0113719 0,11.1894885 0,11.3690532 C0,14.0147366 1.6842146,16.2679842 4.04799876,17.1788407 L4.04799876,32.5518974 C4.04799876,33.3526982 4.7069753,34 5.51892854,34 L32.4840133,34 C33.2974375,34 33.9549431,33.3512501 33.9549431,32.5504493 L33.9549431,17.1773926 C36.3172563,16.2665361 38,14.0147366 38,11.3690532 L38,11.3690532 Z" id="Fill-1" fill="#FFFFFF" mask="url(#mask-2)"></path>
                    </g>
                </g>
            </g>
        </g>
    </g>
</svg>