<?xml version="1.0" encoding="UTF-8"?>
<svg width="31px" height="21px" viewBox="0 0 31 21" version="1.1" xmlns="http://www.w3.org/2000/svg" xmlns:xlink="http://www.w3.org/1999/xlink">
    <!-- Generator: Sketch 47.1 (45422) - http://www.bohemiancoding.com/sketch -->
    <title>Fill 1</title>
    <desc>Created with Sketch.</desc>
    <defs></defs>
    <g id="Symbols" stroke="none" stroke-width="1" fill="none" fill-rule="evenodd">
        <g id="supfooter" transform="translate(-624.000000, -94.000000)" fill="#2A2A2A">
            <g id="Group-23">
                <g transform="translate(618.000000, 90.000000)">
                    <g id="Group-18" transform="translate(6.000000, 0.000000)">
                        <g id="Group-10" transform="translate(0.000000, 4.000000)">
                            <path d="M11.9337403,10.5981776 L2.00305329,18.1854213 L2.00305329,3.01457849 L11.9337403,10.5981776 Z M13.2482441,11.6214122 L14.9021373,12.865148 C15.1627479,13.1043279 15.5699235,13.1107061 15.8818319,12.8769931 L17.5508396,11.6218678 L27.2135876,19.0054669 L3.54427467,19.0054669 L13.2482441,11.6214122 Z M3.54381665,2.19453293 L27.255725,2.19453293 L15.3999999,11.2177676 L3.54381665,2.19453293 Z M28.7969464,3.01457849 L28.7969464,18.1854213 L18.8662594,10.5981776 L28.7969464,3.01457849 Z M29.5984731,0.599999905 L1.20152657,0.599999905 C0.737099094,0.599999905 0.399999857,0.935307422 0.399999857,1.39726642 L0.399999857,19.8027334 C0.399999857,20.2646924 0.737099094,20.5999999 1.20152657,20.5999999 L29.5984731,20.5999999 C29.6887021,20.5999999 29.7825953,20.5808655 29.865038,20.5480637 C29.9287021,20.5248291 29.9877861,20.493394 30.0683968,20.4346241 C30.2790838,20.2751707 30.3999999,20.0282459 30.3999999,19.7571753 L30.3999999,1.39726642 C30.3999999,0.935307422 30.0629006,0.599999905 29.5984731,0.599999905 L29.5984731,0.599999905 Z" id="Fill-1"></path>
                        </g>
                    </g>
                </g>
            </g>
        </g>
    </g>
</svg>