<?xml version="1.0" encoding="UTF-8"?>
<svg width="69px" height="69px" viewBox="0 0 69 69" version="1.1" xmlns="http://www.w3.org/2000/svg" xmlns:xlink="http://www.w3.org/1999/xlink">
    <!-- Generator: Sketch 47.1 (45422) - http://www.bohemiancoding.com/sketch -->
    <title>Group 16</title>
    <desc>Created with Sketch.</desc>
    <defs></defs>
    <g id="Desktop" stroke="none" stroke-width="1" fill="none" fill-rule="evenodd">
        <g id="Accueil" transform="translate(-1085.000000, -3138.000000)">
            <g id="siapro" transform="translate(-1.000000, 2629.000000)">
                <g id="service-dediee" transform="translate(950.000000, 252.000000)">
                    <g id="Group-16" transform="translate(138.000000, 259.000000)">
                        <circle id="Oval-2" stroke="#FFFFFF" stroke-width="4" fill="#89298E" cx="32.5" cy="32.5" r="32.5"></circle>
                        <g id="icon-service" transform="translate(16.000000, 14.000000)" fill="#FFFFFF">
                            <g id="Page-1-Copy">
                                <path d="M17.3756614,1.79475598 L18.1063285,1.79475598 L17.9493354,2.42972967 C17.8757572,2.42891664 17.8041463,2.41916032 17.7301746,2.41916032 C17.6723351,2.41916032 17.6168563,2.42647756 17.5594102,2.42729059 L17.3756614,1.79475598 Z M32.4914591,17.9272341 C32.9691273,17.8768265 33.3169516,17.4365726 33.2681617,16.9438786 C32.5245103,9.35427629 26.8460036,3.49194878 19.7104909,2.56306601 L19.8997482,1.80085368 C20.0079515,1.36019332 19.9135195,0.885792362 19.6463559,0.531719325 C19.3917831,0.193093792 19.0132685,0 18.6064242,0 L16.8558923,0 C16.4376376,0 16.0512536,0.203256623 15.7966808,0.557736173 C15.5303041,0.928882766 15.4496435,1.41669866 15.5798809,1.86264369 L15.7825161,2.55778134 C8.59900046,3.4740622 2.90082042,9.37541498 2.18589202,17.0158314 C2.13985645,17.5093385 2.48925459,17.9479663 2.96692277,17.9967479 C2.99525235,17.999187 3.02358193,18 3.05191151,18 C3.49456118,18 3.8722889,17.6532442 3.91596366,17.1885996 C4.60767755,9.79249757 10.5470525,4.21432282 17.7301746,4.21432282 C24.880639,4.21432282 30.8164728,9.76404165 31.538877,17.1235574 C31.5876669,17.617471 32.0149713,17.9756092 32.4914591,17.9272341 L32.4914591,17.9272341 Z" id="Fill-1"></path>
                                <g id="Group-5" transform="translate(0.000000, 18.000000)">
                                    <path d="M3.59604334,1.84939535 L32.5182068,1.84939535 C32.2255255,2.33706977 31.7085612,2.66190698 31.1216079,2.66190698 L9.76223427,2.66190698 L9.72246779,2.66190698 L4.99065391,2.66190698 C4.40370062,2.66190698 3.88832699,2.33706977 3.59604334,1.84939535 L3.59604334,1.84939535 Z M13.1531223,4.51046512 L21.483803,4.51046512 L20.1532164,5.70725581 C19.5006484,6.16730233 17.6646299,6.7407907 16.8279431,6.7407907 C15.7594177,6.7407907 14.7254891,6.26525581 13.9913998,5.4355814 C13.6772446,5.08102326 13.3941072,4.77251163 13.1531223,4.51046512 L13.1531223,4.51046512 Z M9.894259,4.52260465 C10.0199211,4.54269767 10.1762034,4.58539535 10.3662872,4.6615814 C10.8653565,4.86502326 11.3373847,5.202 11.7680557,5.66455814 C12.0233565,5.93874419 12.3518277,6.29497674 12.7081354,6.69725581 C13.7722865,7.89990698 15.2738689,8.58976744 16.8279431,8.58976744 C17.9251003,8.58976744 20.2021292,7.93423256 21.194303,7.19748837 C21.2169698,7.18074419 24.1879238,4.51046512 24.1879238,4.51046512 L25.5002178,4.51046512 C24.2125791,6.15683721 22.3761628,8.50144186 22.1069438,8.84302326 L17.0144479,13.9596279 L16.1900887,14.7122791 L12.4174424,11.9494884 C12.8588503,11.0080465 12.9630385,9.94269767 12.7077377,8.9192093 C12.4540275,7.90325581 11.9676834,6.95595349 11.3035832,6.17693023 L9.894259,4.52260465 Z M-3.97664835e-05,0.925116279 C-3.97664835e-05,1.43539535 0.392853091,1.84981395 0.878401854,1.84981395 L1.71429334,1.84981395 C2.10400488,3.37730233 3.41788949,4.51088372 4.99065391,4.51088372 L7.77033111,4.51088372 C7.78424938,4.71306977 7.8598057,4.90813953 7.99143276,5.06176744 L9.99685652,7.41181395 C10.4752473,7.9735814 10.82559,8.6584186 11.0089135,9.39013953 C11.1226457,9.846 11.1067391,10.3148372 10.9778957,10.7564651 C10.6565825,10.5869302 10.2617013,10.6254419 9.98611957,10.8971163 L6.97022946,13.880093 C6.61750076,14.2287907 6.6000035,14.814 6.93205364,15.1869767 C7.10464018,15.3803721 7.3384671,15.477907 7.57189636,15.477907 C7.78782837,15.477907 8.00415804,15.3950233 8.17396092,15.2267442 L10.5917631,12.8365116 L17.3783112,17.833814 C17.5310145,17.9455814 17.7055894,18 17.8797666,18 C18.1565413,18 18.4301347,17.8610233 18.6011306,17.601907 C18.878303,17.1841395 18.7792844,16.6068837 18.3816196,16.3151163 L17.6777528,15.8006512 L18.1975008,15.3255349 L23.3575997,10.1427907 C23.3830502,10.1172558 23.4065124,10.0904651 23.4287817,10.0632558 C23.4287817,10.0632558 26.682873,5.91237209 27.7760536,4.51046512 L31.1216079,4.51046512 C32.6951677,4.51046512 34.0098476,3.37688372 34.3995591,1.84939535 L35.0087817,1.84939535 C35.4931374,1.84939535 35.8868256,1.43497674 35.8868256,0.924697674 C35.8868256,0.414418605 35.4931374,-1.42108547e-13 35.0087817,-1.42108547e-13 L33.6507563,-1.42108547e-13 L2.46309622,-1.42108547e-13 L0.878401854,-1.42108547e-13 C0.393250755,-1.42108547e-13 -3.97664835e-05,0.414837209 -3.97664835e-05,0.925116279 L-3.97664835e-05,0.925116279 Z" id="Fill-3"></path>
                                </g>
                                <path d="M28.2935968,15.2317263 C28.7556963,15.0852096 29.0131234,14.5823446 28.8691388,14.1099193 C27.2361228,8.74318483 22.6075914,7.19562689 22.4112487,7.13150044 C21.9523224,6.98579541 21.4604741,7.24433052 21.3141095,7.71513231 C21.1677449,8.18512237 21.4219988,8.68961084 21.8817184,8.84099796 C22.0423624,8.89457196 25.8426846,10.1957707 27.1956643,14.6420065 C27.3130733,15.0263594 27.6585571,15.2727186 28.0325999,15.2727186 C28.1194666,15.2731244 28.2071267,15.2593251 28.2935968,15.2317263" id="Fill-6"></path>
                            </g>
                        </g>
                    </g>
                </g>
            </g>
        </g>
    </g>
</svg>