<?xml version="1.0" encoding="UTF-8"?>
<svg width="69px" height="69px" viewBox="0 0 69 69" version="1.1" xmlns="http://www.w3.org/2000/svg" xmlns:xlink="http://www.w3.org/1999/xlink">
    <!-- Generator: Sketch 47.1 (45422) - http://www.bohemiancoding.com/sketch -->
    <title>Group 18</title>
    <desc>Created with Sketch.</desc>
    <defs></defs>
    <g id="Desktop" stroke="none" stroke-width="1" fill="none" fill-rule="evenodd">
        <g id="Accueil" transform="translate(-285.000000, -3138.000000)" stroke="#FFFFFF">
            <g id="siapro" transform="translate(-1.000000, 2629.000000)">
                <g id="concour-agricole" transform="translate(150.000000, 252.000000)">
                    <g id="Group-18" transform="translate(138.000000, 259.000000)">
                        <circle id="Oval-2" stroke-width="4" fill="#4b2980" cx="32.5" cy="32.5" r="32.5"></circle>
                        <g id="Page-1" transform="translate(11.000000, 16.000000)" stroke-width="1.75">
                            <path d="M2.51230145,24.9648234 C3.4183827,24.3607692 4.96136355,23.5381229 5.15503841,23.4735646 C6.06111966,23.1715376 5.91010612,21.1894848 7.76002199,20.9252111 C8.7382122,20.7854481 9.36680606,15.3187579 11.5654877,15.013182 C12.0827846,14.9412996 12.7057154,15.0356831 12.8944824,17.1498726 C13.0832493,19.2640622 15.4377769,14.4346492 15.8769998,13.2235206 C16.4999307,11.5057415 19.0821112,7.30703657 20.6150496,7.97580003 C23.0380619,9.03289482 20.0912592,12.9192283 21.6721444,13.1857672 C21.9990887,13.2408871 22.8637168,13.0468347 23.0312663,11.2225912 C23.2011565,9.37267528 25.2518449,4.51200245 27.2973988,4.78563899 C30.2610395,5.18204953 28.0406119,9.55751586 28.5055071,9.71245575 C29.0718079,9.90122268 32.7905163,0.481753082 36.1128142,3.65303743 C39.4351121,6.82432179 33.3948725,9.60938901 33.9608713,10.8828107 C34.2628984,11.5623716 39.9259061,8.5609775 41.039631,11.6756318 C42.9149927,16.920181 33.0322135,13.8869231 32.8848998,15.5076004 C32.7716397,16.7534621 38.435176,15.4941602 38.151497,18.9242817 C37.7362098,23.945482 26.1571711,17.5201578 25.6362499,19.6038427 C25.3342228,20.811951 30.1577463,19.0771829 29.9023824,22.6996202 C29.6003553,26.9846295 21.7481042,20.8741686 20.4451594,22.7562503 C19.9354887,23.4924413 23.5220603,24.6061662 23.050143,25.417864 C20.9081669,29.1021413 14.9520419,23.4169346 12.5735786,23.8322218 C14.044375,26.2080423 12.588831,26.5864823 10.5537725,26.154055 C8.17470517,25.6486127 4.38736108,24.3464229 3.72040978,25.5877542 C3.04084885,26.8524926 1.07767282,25.9464114 2.51230145,24.9648234" id="Fill-1" transform="translate(21.638133, 14.833083) rotate(-7.000000) translate(-21.638133, -14.833083) "></path>
                        </g>
                    </g>
                </g>
            </g>
        </g>
    </g>
</svg>