<?xml version="1.0" encoding="UTF-8"?>
<svg width="36px" height="28px" viewBox="0 0 36 28" version="1.1" xmlns="http://www.w3.org/2000/svg" xmlns:xlink="http://www.w3.org/1999/xlink">
    <!-- Generator: Sketch 47.1 (45422) - http://www.bohemiancoding.com/sketch -->
    <title>Twitter</title>
    <desc>Created with Sketch.</desc>
    <defs>
        <polygon id="path-1" points="0 14 0 28 36 28 36 14 36 0 0 0"></polygon>
    </defs>
    <g id="Desktop" stroke="none" stroke-width="1" fill="none" fill-rule="evenodd">
        <g id="Accueil" transform="translate(-274.000000, -6418.000000)">
            <g id="Rejoignez-notre-communauté" transform="translate(-1.000000, 6119.000000)">
                <g id="Group-8" transform="translate(175.000000, 281.000000)">
                    <g id="Twitter" transform="translate(100.000000, 18.000000)">
                        <mask id="mask-2" fill="white">
                            <use xlink:href="#path-1"></use>
                        </mask>
                        <g id="Clip-2"></g>
                        <path d="M30.9935426,4.4268 C32.5190426,3.5532 33.6890426,2.1679 34.2410426,0.5173 C32.8122926,1.3265 31.2342926,1.9145 29.5475426,2.2302 C28.2042926,0.8575 26.2827926,0 24.1572926,0 C20.0817926,0 16.7742926,3.1647 16.7742926,7.0679 C16.7742926,7.6223 16.8380426,8.1599 16.9647926,8.6779 C10.8260426,8.3825 5.38554255,5.5713 1.73979255,1.2901 C1.10379255,2.3373 0.740792553,3.5532 0.740792553,4.8475 C0.740792553,7.2982 2.04429255,9.4626 4.02654255,10.7303 C2.81754255,10.696 1.67679255,10.3747 0.679292553,9.849 L0.679292553,9.9358 C0.679292553,13.3616 3.22554255,16.2197 6.60654255,16.8665 C5.98704255,17.0324 5.33454255,17.1157 4.66029255,17.1157 C4.18479255,17.1157 3.71979255,17.0723 3.26979255,16.9897 C4.21029255,19.7967 6.93654255,21.8414 10.1690426,21.896 C7.64154255,23.793 4.45554255,24.9235 0.996542553,24.9235 C0.400292553,24.9235 -0.189207447,24.8913 -0.765957447,24.8262 C2.50254255,26.8289 6.38679255,28 10.5560426,28 C24.1430426,28 31.5695426,17.2305 31.5695426,7.889 C31.5695426,7.5817 31.5635426,7.2744 31.5507926,6.9734 C32.9945426,5.9759 34.2477926,4.732 35.2340426,3.3145 C33.9110426,3.8766 32.4867926,4.2567 30.9935426,4.4268 Z" id="Fill-1" fill="#1DA1F2" mask="url(#mask-2)"></path>
                    </g>
                </g>
            </g>
        </g>
    </g>
</svg>