<?xml version="1.0" encoding="UTF-8"?>
<svg width="84px" height="84px" viewBox="0 0 84 84" version="1.1" xmlns="http://www.w3.org/2000/svg" xmlns:xlink="http://www.w3.org/1999/xlink">
    <!-- Generator: Sketch 47.1 (45422) - http://www.bohemiancoding.com/sketch -->
    <title>Group 4</title>
    <desc>Created with Sketch.</desc>
    <defs>
        <polygon id="path-1" points="52.5888574 52.5888574 0 52.5888574 0 26.2944287 0 -3.55271368e-15 52.5888574 -3.55271368e-15"></polygon>
    </defs>
    <g id="Symbols" stroke="none" stroke-width="1" fill="none" fill-rule="evenodd">
        <g id="Header" transform="translate(-1233.000000, -18.000000)">
            <g id="Achetez-billet">
                <g transform="translate(1210.000000, 0.000000)">
                    <g id="Group-4" transform="translate(23.000000, 18.000000)">
                        <g id="icon-ticket" transform="translate(17.209302, 15.302326)">
                            <g id="Page-1" transform="translate(26.500000, 26.500000) rotate(-90.000000) translate(-26.500000, -26.500000) ">
                                <mask id="mask-2" fill="white">
                                    <use xlink:href="#path-1"></use>
                                </mask>
                                <g id="Clip-2"></g>
                                <path d="M3.12982255,19.4332612 L6.64989311,15.9719074 C9.2814076,17.258656 12.4728188,16.6992001 14.5444366,14.6297726 C16.6154945,12.5592262 17.1753912,9.37088683 15.8881887,6.68493891 L19.3595482,3.2168716 L27.030133,10.8808584 L25.3504429,12.5592262 L26.9181536,14.1262622 L28.5978437,12.4478944 L49.3649722,33.1981149 L49.3694514,33.20315 L45.6181435,36.9515047 C42.9306394,35.3290825 39.4592798,35.7772067 37.219693,38.0150305 C34.9801062,40.2528542 34.5321889,43.7209215 36.211879,46.4068694 L33.1889967,49.427372 L12.4162692,28.6721164 L14.0959593,26.9937486 L12.5288085,25.4267126 L10.8491184,27.1050804 L3.1225439,19.4410936 L3.12982255,19.4332612 Z M0,19.3157754 L33.0960538,52.5799061 L33.1050122,52.5888574 L39.0919876,46.6054763 C39.0919876,46.6054763 38.564005,46.1271414 38.0041083,45.2314525 C36.8843149,43.3852479 37.219693,41.0920381 38.7314141,39.525002 C40.2436951,38.0150305 42.5952612,37.7353025 44.4429204,38.7977093 C45.3381952,39.3571652 45.8633783,39.8399757 45.8633783,39.8399757 L52.5888574,33.1751772 L52.5871778,33.1734988 L19.3315534,-3.55271368e-15 L12.932494,6.39290291 C12.932494,6.39290291 13.4246432,6.79738955 13.8725605,7.63657345 C14.7683953,9.42627297 14.3759077,11.552765 12.9761659,12.9514048 C11.5764242,14.3500446 9.44937661,14.7411043 7.65714727,13.8465343 C6.76187245,13.3984101 6.42369484,12.8965781 6.42369484,12.8965781 L0,19.3157754 Z" id="Fill-1" fill="#f6a924" mask="url(#mask-2)"></path>
                                <polygon id="Fill-4" fill="#f6a924" mask="url(#mask-2)" points="14.2740252 23.773392 16.2852822 21.761627 17.7224749 23.1988197 15.7107099 25.2100766"></polygon>
                                <polygon id="Fill-6" fill="#f6a924" mask="url(#mask-2)" points="18.0893936 19.9170314 20.1006506 17.9052665 21.5378433 19.3424592 19.5260783 21.3537161"></polygon>
                                <polygon id="Fill-8" fill="#f6a924" mask="url(#mask-2)" points="21.8300379 16.0601629 23.8418029 14.0489059 25.2784876 15.4855906 23.2667226 17.4973556"></polygon>
                                <path d="M22.7578626,32.4173321 C22.9864891,32.6459586 23.2722722,32.7602718 23.5580553,32.7602718 C23.8438385,32.7602718 24.1296216,32.6459586 24.3582481,32.4173321 L32.4173321,24.3582481 C32.8745851,23.9009951 32.8745851,23.2151156 32.4173321,22.7578626 C31.9600791,22.3006096 31.2741996,22.3006096 30.8169466,22.7578626 L22.7578626,30.8169466 C22.3006096,31.217043 22.3006096,31.9600791 22.7578626,32.4173321" id="Fill-10" fill="#f6a924" mask="url(#mask-2)"></path>
                                <path d="M26.2063123,35.8652292 C26.4349388,36.093843 26.7207219,36.2087215 27.006505,36.2087215 C27.2922881,36.2087215 27.5780712,36.093843 27.8066977,35.8652292 L35.8657818,27.8065904 C36.3230348,27.3493626 36.3230348,26.663521 35.8657818,26.2062933 C35.4091003,25.7490656 34.7226493,25.7490656 34.2659679,26.2062933 L26.2063123,34.2083502 C25.7490593,34.6650064 25.7490593,35.4080014 26.2063123,35.8652292" id="Fill-12" fill="#f6a924" mask="url(#mask-2)"></path>
                            </g>
                        </g>
                        <path d="M42,83.95 C18.8316548,83.95 0.0500000119,65.1683452 0.0500000119,42 C0.0500000119,18.8316548 18.8316548,0.0500000119 42,0.0500000119 C65.1683452,0.0500000119 83.95,18.8316548 83.95,42 C83.95,65.1683452 65.1683452,83.95 42,83.95 Z M42,82.05 C64.1190042,82.05 82.05,64.1190042 82.05,42 C82.05,19.8809958 64.1190042,1.94999999 42,1.94999999 C19.8809958,1.94999999 1.94999999,19.8809958 1.94999999,42 C1.94999999,64.1190042 19.8809958,82.05 42,82.05 Z" id="Oval-3" fill="#f6a924" fill-rule="nonzero" opacity="0.380774457"></path>
                        <path d="M42,76.8005814 C42.6435981,76.8005814 43.2851373,76.7831054 43.9241558,76.7482747 L43.8724514,75.7996828 C43.2506493,75.833575 42.6263513,75.8505814 42,75.8505814 L42,76.8005814 Z M45.8468365,76.5903386 C46.4862451,76.5200158 47.1222849,76.4321674 47.754438,76.3269682 L47.5984893,75.3898556 C46.9836222,75.4921782 46.3649534,75.5776274 45.7429809,75.6460325 L45.8468365,76.5903386 Z M49.6596359,75.9547987 C50.2871877,75.8138344 50.9099276,75.6555605 51.5272898,75.4802155 L51.2677341,74.5663606 C50.6673512,74.736883 50.0617342,74.8908051 49.4514295,75.0278952 L49.6596359,75.9547987 Z M53.3964156,74.8915346 C54.0033951,74.6812563 54.604039,74.4542052 55.1977488,74.21069 L54.8372437,73.3317497 C54.259852,73.5685719 53.6757226,73.7893803 53.085436,73.9938757 L53.3964156,74.8915346 Z M56.9404606,73.4391643 C57.520471,73.1630478 58.0925865,72.8709016 58.6561915,72.5631072 L58.2008562,71.7293389 C57.6526789,72.0287079 57.0962335,72.3128523 56.5321188,72.5814016 L56.9404606,73.4391643 Z M60.3460113,71.5775392 C60.8913536,71.2385725 61.4272276,70.8845745 61.9530202,70.5159972 L61.4077123,69.7380902 C60.8962432,70.0966268 60.3749753,70.4409761 59.8445058,70.7706983 L60.3460113,71.5775392 Z M63.5023534,69.3647658 C64.0069581,68.9677213 64.5005647,68.5568196 64.9825823,68.1325762 L64.3549291,67.4194482 C63.8859989,67.8321729 63.4057978,68.2319152 62.9149022,68.6181729 L63.5023534,69.3647658 Z M66.3772118,66.836116 C66.8356264,66.3861201 67.2815895,65.9235769 67.7145496,65.4490533 L67.0127671,64.8087398 C66.5915551,65.2703875 66.1576916,65.7203812 65.7117144,66.1581683 L66.3772118,66.836116 Z M68.985103,63.9763379 C69.3910637,63.4784457 69.7832289,62.969461 70.1611028,62.4499856 L69.3928553,61.8911513 C69.0252586,62.3964983 68.6437545,62.8916461 68.2488259,63.3760081 L68.985103,63.9763379 Z M71.2654951,60.8387862 C71.613635,60.2990613 71.9467975,59.74979 72.264554,59.1915892 L71.4389498,58.7216129 C71.1298738,59.2645647 70.8058072,59.79884 70.4671663,60.3238385 L71.2654951,60.8387862 Z M73.1853066,57.4624056 C73.470929,56.8874407 73.740591,56.3045202 73.993937,55.7142559 L73.1209504,55.3395634 C72.8745581,55.9136266 72.6122939,56.4805556 72.3345027,57.0397561 L73.1853066,57.4624056 Z M74.7178235,53.8859108 C74.9370241,53.2826619 75.1395052,52.6730457 75.3249841,52.0576509 L74.4153999,51.7835039 C74.2350241,52.3819676 74.0381135,52.9748121 73.8249425,53.5614676 L74.7178235,53.8859108 Z M75.8307777,50.1920409 C75.9812259,49.5685414 76.1144741,48.9402084 76.2303076,48.3075917 L75.295843,48.1364893 C75.1831873,48.7517513 75.0535974,49.3628332 74.9072821,49.9692048 L75.8307777,50.1920409 Z M76.5111958,46.5082345 C76.5934094,45.8727328 76.6582277,45.2338033 76.7054943,44.5919464 L75.7580598,44.522177 C75.7120763,45.1466101 75.6490209,45.7681617 75.569047,46.3863506 L76.5111958,46.5082345 Z M76.7946085,42.6512322 C76.7985691,42.4354758 76.8005615,42.2194748 76.8005812,42.0032464 C76.8005814,41.5738276 76.7929185,41.1481359 76.7775833,40.7230736 L75.8282009,40.757325 C75.843124,41.1709647 75.8505814,41.5852373 75.8505813,42.0032029 C75.850562,42.2136043 75.848623,42.4238219 75.8447685,42.6337959 L76.7946085,42.6512322 Z M76.6554897,38.801093 C76.5970566,38.1600282 76.521065,37.5221052 76.4276803,36.8878337 L75.4878125,37.0262118 C75.5786482,37.6431705 75.6525686,38.263706 75.7094118,38.8873281 L76.6554897,38.801093 Z M76.0918657,34.9786758 C75.962832,34.3488883 75.8164501,33.723657 75.6529472,33.1035396 L74.734341,33.3457435 C74.8933492,33.9488134 75.0357084,34.5568633 75.1611985,35.1693551 L76.0918657,34.9786758 Z M75.0996778,31.223304 C74.9008494,30.6122121 74.6851331,30.0071978 74.4528254,29.4088557 L73.5672306,29.7526899 C73.7931506,30.3345795 74.0029338,30.9229531 74.1962926,31.5172346 L75.0996778,31.223304 Z M73.7132432,27.6494807 C73.4479568,27.0641379 73.1664839,26.4864305 72.8691941,25.9169734 L72.0270488,26.3566224 C72.3161943,26.910479 72.5899515,27.4723507 72.847962,28.0416395 L73.7132432,27.6494807 Z M71.9168407,24.2114602 C71.5880373,23.6596505 71.2440108,23.1170522 70.8852023,22.5842807 L70.0972394,23.1149543 C70.4462659,23.6332012 70.7809081,24.1609986 71.100737,24.6977469 L71.9168407,24.2114602 Z M69.7402329,20.9835523 C69.3520273,20.4719323 68.9497598,19.9710758 68.5339368,19.4815792 L67.8099126,20.0966312 C68.2144413,20.5728325 68.6057793,21.0600807 68.9834332,21.5577946 L69.7402329,20.9835523 Z M67.2886919,18.0925035 C66.8475251,17.6260102 66.3935889,17.1717178 65.9274415,16.7301851 L65.274147,17.4198998 C65.727647,17.8494529 66.1692679,18.2914202 66.5984651,18.7452569 L67.2886919,18.0925035 Z M64.4783859,15.4321056 C63.9882744,15.0170248 63.4868237,14.6155165 62.9746303,14.2280865 L62.4015251,14.9857476 C62.8997961,15.3626466 63.387622,15.7532455 63.864421,16.1570518 L64.4783859,15.4321056 Z M61.385737,13.0946279 C60.8527055,12.7364468 60.3098658,12.393052 59.7578331,12.0648836 L59.272385,12.8814864 C59.8093496,13.2006972 60.3373812,13.5347246 60.8558804,13.8831404 L61.385737,13.0946279 Z M58.0466353,11.1118349 C57.4769277,10.8152713 56.8989895,10.5345288 56.3134352,10.269976 L55.9222941,11.1357177 C56.4917879,11.3930143 57.0538832,11.6660609 57.6079827,11.9544996 L58.0466353,11.1118349 Z M54.4992005,9.51162808 C53.9000599,9.28097482 53.2942839,9.06693798 52.6824668,8.86981265 L52.3911288,9.77403725 C52.986115,9.96573974 53.5752286,10.1738893 54.1578939,10.3982 L54.4992005,9.51162808 Z M50.8287018,8.32926077 C50.2080819,8.1669707 49.5823726,8.02181886 48.9521312,7.89403125 L48.7633509,8.82508546 C49.3762856,8.94936399 49.9848018,9.09052737 50.5883614,9.24835622 L50.8287018,8.32926077 Z M47.1522728,7.57824853 C46.5182784,7.48414888 45.8806197,7.40743152 45.2398063,7.34826248 L45.1524603,8.29423851 C45.7758352,8.35179738 46.3961113,8.42642342 47.0127984,8.51795426 L47.1522728,7.57824853 Z M43.3013393,7.22330594 C42.8704228,7.20746081 42.4384446,7.19948655 42.0055442,7.19941904 C41.7904098,7.19941861 41.5803217,7.20127214 41.3697876,7.20501193 L41.3866601,8.15486207 C41.5915517,8.15122252 41.796015,8.14941861 42.0054692,8.14941903 C42.4267059,8.14948472 42.8470953,8.15724506 43.2664307,8.17266433 L43.3013393,7.22330594 Z M39.4455299,7.29176611 C38.8032912,7.33836895 38.1639697,7.40254147 37.5280664,7.48412743 L37.6489599,8.4264038 C38.2675416,8.34704018 38.8894768,8.28461282 39.5142841,8.23927487 L39.4455299,7.29176611 Z M35.6179127,7.78341689 C34.9854015,7.90066046 34.3572048,8.03532209 33.7338734,8.18718541 L33.958746,9.11018721 C34.5649524,8.96249605 35.1759,8.831532 35.7910572,8.71750519 L35.6179127,7.78341689 Z M31.8481566,8.70355183 C31.233394,8.89075332 30.6244472,9.09493797 30.0219056,9.31582122 L30.348884,10.207777 C30.9348523,9.99296931 31.5270462,9.79440201 32.1248952,9.61235089 L31.8481566,8.70355183 Z M28.2453426,10.0234341 C27.6551411,10.277642 27.0723078,10.5481715 26.4974555,10.8346653 L26.921205,11.684922 C27.4802967,11.4062828 28.0471416,11.1431746 28.6211445,10.8959436 L28.2453426,10.0234341 Z M24.7757338,11.7540708 C24.2179809,12.0723721 23.6691696,12.4060637 23.1299162,12.7547166 L23.6457173,13.5524943 C24.1702578,13.2133539 24.7040865,12.8887722 25.2466033,12.5791659 L24.7757338,11.7540708 Z M21.5105253,13.8676643 C20.9917762,14.2461211 20.4835291,14.638843 19.9863846,15.0453341 L20.5877271,15.7807845 C21.0713621,15.3853394 21.565793,15.0032932 22.0704341,14.6351291 L21.5105253,13.8676643 Z M18.5706158,16.2675178 C18.0958769,16.7000134 17.6331027,17.1455152 17.1828599,17.6034722 L17.8602928,18.2694937 C18.29832,17.8239615 18.7485384,17.3905469 19.2103955,16.9697869 L18.5706158,16.2675178 Z M15.8584816,19.0275817 C15.4343981,19.5097936 15.0236625,20.0035908 14.6267903,20.5083822 L15.3736128,21.0955417 C15.7597027,20.6044645 16.1592833,20.1240781 16.5718523,19.654959 L15.8584816,19.0275817 Z M13.4646907,22.0745577 C13.0966547,22.6006575 12.7432053,23.1368234 12.4047939,23.6824424 L13.2121169,24.1831714 C13.5412986,23.6524334 13.8851138,23.130882 14.2431235,22.6191147 L13.4646907,22.0745577 Z M11.4195818,25.375546 C11.1123418,25.9395308 10.8207623,26.5120132 10.5452241,27.0923773 L11.403415,27.4998187 C11.6714015,26.9353606 11.9549943,26.3785591 12.2538238,25.8300131 L11.4195818,25.375546 Z M9.75346987,28.8899745 C9.51146233,29.4846454 9.28595315,30.0862187 9.07724963,30.6940957 L9.97576733,31.0025854 C10.1787309,30.4114268 10.3980394,29.8263946 10.633395,29.2480693 L9.75346987,28.8899745 Z M8.49003478,32.5780898 C8.31669011,33.1958555 8.16042133,33.8189533 8.02146507,34.4468189 L8.94902057,34.6521011 C9.08415828,34.0414894 9.23613065,33.4355229 9.40470811,32.8347465 L8.49003478,32.5780898 Z M7.67995271,36.2041284 C7.57395991,36.8363229 7.485325,37.4724216 7.41422383,38.1119059 L8.35840568,38.2168849 C8.42756773,37.5948412 8.51378163,36.9761171 8.6168758,36.3612115 L7.67995271,36.2041284 Z M7.25324987,40.0480751 C7.21789523,40.6874044 7.19991419,41.3292663 7.19942871,41.973198 L8.14942843,41.9739143 C8.1499009,41.3472411 8.16739863,40.7226316 8.20180061,40.1005295 L7.25324987,40.0480751 Z M7.2507834,43.9067971 C7.28551489,44.5498448 7.33781131,45.1901983 7.40752559,45.827366 L8.35188983,45.7240405 C8.28407005,45.1041881 8.2331922,44.4812044 8.19940076,43.8555616 L7.2507834,43.9067971 Z M7.67098215,47.7421078 C7.77638316,48.3768857 7.89925155,49.0075913 8.03938166,49.6336811 L8.96644501,49.4261877 C8.83016147,48.8172841 8.71066342,48.2038791 8.60815084,47.5864966 L7.67098215,47.7421078 Z M8.51827738,51.5219818 C8.69369253,52.1399668 8.88616549,52.7524008 9.09542411,53.3587009 L9.99344185,53.0487588 C9.78994019,52.4591387 9.60276289,51.8635551 9.43217376,51.2625721 L8.51827738,51.5219818 Z M9.77099249,55.1530001 C10.0138927,55.7475773 10.273227,56.33506 10.5486513,56.9148392 L11.4067482,56.5071999 C11.1388806,55.9433281 10.8866654,55.3719725 10.6504361,54.7937246 L9.77099249,55.1530001 Z M11.435324,58.6533187 C11.7431653,59.2171357 12.0665753,59.772272 12.4051366,60.3181101 L13.2124503,59.8173661 C12.8831337,59.2864327 12.5685602,58.7464643 12.2691353,58.1980619 L11.435324,58.6533187 Z M13.4853299,61.9549133 C13.8539837,62.480741 14.2371079,62.996325 14.6342171,63.5010607 L15.3808377,62.9136446 C14.9945254,62.422632 14.6218222,61.9210719 14.2632008,61.4095539 L13.4853299,61.9549133 Z M15.8347949,64.945457 C16.258421,65.428146 16.6952798,65.8991133 17.1448288,66.357785 L17.8232935,65.6928146 C17.3859421,65.246588 16.9609375,64.7884005 16.5488085,64.3188116 L15.8347949,64.945457 Z M18.5441036,67.7083042 C19.0183347,68.1412276 19.5043952,68.5610281 20.0016995,68.9671809 L20.6026259,68.2313905 C20.1188266,67.8362674 19.6459619,67.4278638 19.1846027,67.0066912 L18.5441036,67.7083042 Z M21.5448709,70.1573606 C22.0642103,70.5352804 22.5938827,70.8987999 23.1332768,71.247456 L23.6489863,70.4496191 C23.1242921,70.1104648 22.6090464,69.7568465 22.1038451,69.389215 L21.5448709,70.1573606 Z M24.8042664,72.2621944 C25.3622477,72.5799274 25.9289899,72.8821715 26.5038766,73.168534 L26.92745,72.3181896 C26.3683067,72.0396692 25.8170755,71.7456971 25.274356,71.4366547 L24.8042664,72.2621944 Z M28.2848686,73.9935612 C28.8747598,74.2467662 29.4718185,74.4836038 30.075442,74.7037544 L30.4009481,73.8112603 C29.8139198,73.5971622 29.2332706,73.3668338 28.6595851,73.120585 L28.2848686,73.9935612 Z M31.9474473,75.3265203 C32.5618443,75.511595 33.181833,75.6796737 33.8068424,75.8305082 L34.0297093,74.9070201 C33.421885,74.7603329 32.8189493,74.5968773 32.2214541,74.4168938 L31.9474473,75.3265203 Z M35.5644846,76.2066362 C36.1947668,76.3244894 36.829197,76.425011 37.4672476,76.5080151 L37.5898006,75.5659531 C36.9691847,75.4852171 36.3521132,75.3874459 35.7390939,75.2728206 L35.5644846,76.2066362 Z M39.3971699,76.7046911 C40.0358924,76.7519268 40.6773692,76.7817699 41.3211276,76.7940903 L41.3393055,75.8442642 C40.712865,75.8322753 40.0886901,75.8032371 39.4672342,75.7572783 L39.3971699,76.7046911 Z" id="Oval-3" fill="#f6a924" fill-rule="nonzero" opacity="0.497395833"></path>
                    </g>
                </g>
            </g>
        </g>
    </g>
</svg>