<?xml version="1.0" encoding="UTF-8"?>
<svg width="69px" height="69px" viewBox="0 0 69 69" version="1.1" xmlns="http://www.w3.org/2000/svg" xmlns:xlink="http://www.w3.org/1999/xlink">
    <!-- Generator: Sketch 47.1 (45422) - http://www.bohemiancoding.com/sketch -->
    <title>Group 15</title>
    <desc>Created with Sketch.</desc>
    <defs></defs>
    <g id="Desktop" stroke="none" stroke-width="1" fill="none" fill-rule="evenodd">
        <g id="Accueil" transform="translate(-685.000000, -3138.000000)">
            <g id="siapro" transform="translate(-1.000000, 2629.000000)">
                <g id="offre-adapte" transform="translate(550.000000, 252.000000)">
                    <g id="Group-15" transform="translate(138.000000, 259.000000)">
                        <circle id="Oval-2" stroke="#FFFFFF" stroke-width="4" fill="#4b2980" cx="32.5" cy="32.5" r="32.5"></circle>
                        <g id="icon-adapte" transform="translate(14.000000, 15.000000)" fill="#FFFFFF">
                            <g id="Group-19">
                                <g id="Page-1">
                                    <path d="M32.2156781,9.80767789 L30.3513464,11.6885246 L25.5652174,6.82145332 L27.5544498,4.73527578 L27.5923589,4.73324681 L27.776318,4.57377049 L28.0552495,4.84524545 L32.3393817,9.26675693 L32.3477616,9.46884143 C32.3497568,9.60194126 32.305463,9.71840361 32.2156781,9.80767789 L32.2156781,9.80767789 Z M15.8286974,19.8196721 L14.0869565,18.1405468 L24.2374748,8.13114754 L26.0869565,9.93215781 L15.8286974,19.8196721 Z M17.2173913,23.0697176 L12,24.3934426 L13.3585767,19.3114754 L17.2173913,23.0697176 Z M10.9552696,26.2683137 C11.0921739,26.3019309 11.2370087,26.3019309 11.3734957,26.2683137 L12,26.1178367 L12,31.5081967 L3.65217391,31.5081967 L3.65217391,26.3055328 L6.99130435,26.3055328 C7.2237913,26.3115359 7.43081739,26.227893 7.59109565,26.0790168 C7.75095652,25.9297404 7.84069565,25.7300381 7.84403478,25.5163287 C7.84695652,25.3026193 7.76306087,25.1005158 7.6077913,24.9468371 C7.45252174,24.7935586 7.24382609,24.7075145 7.02093913,24.7047131 L3.65217391,24.7047131 L3.65217391,19.5020492 L7.82608696,19.5020492 C8.30316522,19.5092529 8.67213913,19.1542711 8.67881739,18.7128451 C8.68507826,18.2714191 8.31610435,17.9072326 7.85572174,17.9012295 L3.65217391,17.9012295 L3.65217391,12.6985656 L6.99130435,12.6985656 C7.46671304,12.714974 7.83735652,12.3507875 7.84403478,11.9093615 C7.85029565,11.4679355 7.48132174,11.103749 7.02093913,11.0977459 L3.65217391,11.0977459 L3.65217391,5.89508197 L7.82608696,5.89508197 C8.30316522,5.8978834 8.67213913,5.54730389 8.67881739,5.10587787 C8.68173913,4.89216844 8.59784348,4.68966475 8.44257391,4.53678648 C8.28730435,4.38310779 8.0786087,4.29706373 7.85572174,4.2942623 L3.65217391,4.2942623 L3.65217391,-0.508196721 L12,-0.508196721 L11.9862261,19.3535732 L10.3558957,25.294215 C10.241113,25.720033 10.509913,26.157457 10.9552696,26.2683137 L10.9552696,26.2683137 Z M33.30377,7.96084586 L29.0452083,3.75237135 C28.6620724,3.37304284 28.1344955,3.1526976 27.5979421,3.14871306 L27.5795809,3.14871306 C27.0103854,3.14871306 26.4660794,3.36706603 26.0829435,3.75077754 L13.5116793,16.3431293 L13.5116793,-1.23428443 C13.5116793,-1.67377955 13.1456805,-2.03119307 12.6956284,-2.03119307 L2.90301748,-2.03119307 C2.86017481,-2.03278689 2.8328371,-2.03318534 2.8071315,-2.03238843 C2.39380171,-1.98497237 2.08492644,-1.64469238 2.08696657,-1.23667516 L2.08696657,32.2358782 C2.08696657,32.6749749 2.4529654,33.0327869 2.90301748,33.0327869 L12.6956284,33.0327869 C13.1456805,33.0327869 13.5116793,32.6749749 13.5116793,32.2358782 L13.5116793,25.6402639 L19.0183908,24.2297356 C19.1640559,24.195867 19.2901358,24.1297236 19.3929582,24.0364853 L27.5338821,16.3228082 C27.8574462,16.0159983 27.8651987,15.5091644 27.5506111,15.1931902 C27.3984176,15.0397853 27.1944049,14.9537191 26.9757032,14.9505315 C26.7525133,14.9521253 26.5501327,15.0278316 26.3934509,15.1764551 L18.8245787,22.3478359 L17.1169922,20.680703 L27.180532,10.8404752 L29.6621428,13.2638744 C29.9795866,13.5794502 30.4965549,13.5842316 30.8172629,13.2782187 L33.2935694,10.8723516 C33.6926183,10.4854524 33.9182563,9.94554681 33.912952,9.39049995 C33.9080557,8.8605557 33.6860899,8.33937746 33.30377,7.96084586 L33.30377,7.96084586 Z" id="Fill-1" transform="translate(18.000000, 15.500000) scale(-1, 1) rotate(-90.000000) translate(-18.000000, -15.500000) "></path>
                                </g>
                            </g>
                        </g>
                    </g>
                </g>
            </g>
        </g>
    </g>
</svg>