<?xml version="1.0" encoding="UTF-8"?>
<svg width="48px" height="35px" viewBox="0 0 48 35" version="1.1" xmlns="http://www.w3.org/2000/svg" xmlns:xlink="http://www.w3.org/1999/xlink">
    <!-- Generator: Sketch 48.1 (47250) - http://www.bohemiancoding.com/sketch -->
    <title>Group 5</title>
    <desc>Created with Sketch.</desc>
    <defs></defs>
    <g id="Liste-des-exposants---single" stroke="none" stroke-width="1" fill="none" fill-rule="evenodd" transform="translate(-673.000000, -1225.000000)">
        <g id="Group-5" transform="translate(671.000000, 1214.282553)">
            <path d="M10.0047839,12.0706614 C12.6994641,12.0706614 14.6499446,12.6973218 15.8562839,13.9506614 C17.0626233,15.204001 17.6657839,17.0996487 17.6657839,19.6376614 L17.6657839,20.8126614 C17.6657839,22.5046698 17.3994533,23.8989892 16.8667839,24.9956614 C16.3341146,26.0923335 15.4881231,26.9069921 14.3287839,27.4396614 C15.738791,27.9723307 16.7336144,28.841822 17.3132839,30.0481614 C17.8929535,31.2545008 18.1827839,32.7349859 18.1827839,34.4896614 L18.1827839,37.1686614 C18.1827839,39.7066741 17.5247905,41.6414881 16.2087839,42.9731614 C14.8927773,44.3048347 12.9344636,44.9706614 10.3337839,44.9706614 L2.20278392,44.9706614 L2.20278392,12.0706614 L10.0047839,12.0706614 Z M7.37278392,30.1656614 L7.37278392,40.2706614 L10.3337839,40.2706614 C11.2111216,40.2706614 11.8769483,40.0356637 12.3312839,39.5656614 C12.7856195,39.095659 13.0127839,38.2496675 13.0127839,37.0276614 L13.0127839,34.1606614 C13.0127839,32.6253204 12.7542865,31.5756642 12.2372839,31.0116614 C11.7202813,30.4476586 10.8664565,30.1656614 9.67578392,30.1656614 L7.37278392,30.1656614 Z M7.37278392,16.7706614 L7.37278392,25.4656614 L9.39378392,25.4656614 C10.3651221,25.4656614 11.1249478,25.2149972 11.6732839,24.7136614 C12.22162,24.2123255 12.4957839,23.303668 12.4957839,21.9876614 L12.4957839,20.1546614 C12.4957839,18.9639888 12.284286,18.1023307 11.8612839,17.5696614 C11.4382818,17.0369921 10.7724551,16.7706614 9.86378392,16.7706614 L7.37278392,16.7706614 Z M23.2847839,12.0706614 L28.4547839,12.0706614 L28.4547839,44.9706614 L23.2847839,44.9706614 L23.2847839,12.0706614 Z M38.9617839,37.4036614 C38.9617839,38.594334 39.2046148,39.4324923 39.6902839,39.9181614 C40.175953,40.4038305 40.8261132,40.6466614 41.6407839,40.6466614 C42.4554547,40.6466614 43.1056148,40.4038305 43.5912839,39.9181614 C44.076953,39.4324923 44.3197839,38.594334 44.3197839,37.4036614 L44.3197839,19.6376614 C44.3197839,18.4469888 44.076953,17.6088305 43.5912839,17.1231614 C43.1056148,16.6374923 42.4554547,16.3946614 41.6407839,16.3946614 C40.8261132,16.3946614 40.175953,16.6374923 39.6902839,17.1231614 C39.2046148,17.6088305 38.9617839,18.4469888 38.9617839,19.6376614 L38.9617839,37.4036614 Z M33.7917839,19.9666614 C33.7917839,17.3033147 34.4654439,15.2588352 35.8127839,13.8331614 C37.160124,12.4074876 39.1027712,11.6946614 41.6407839,11.6946614 C44.1787966,11.6946614 46.1214439,12.4074876 47.4687839,13.8331614 C48.816124,15.2588352 49.4897839,17.3033147 49.4897839,19.9666614 L49.4897839,37.0746614 C49.4897839,39.738008 48.816124,41.7824876 47.4687839,43.2081614 C46.1214439,44.6338352 44.1787966,45.3466614 41.6407839,45.3466614 C39.1027712,45.3466614 37.160124,44.6338352 35.8127839,43.2081614 C34.4654439,41.7824876 33.7917839,39.738008 33.7917839,37.0746614 L33.7917839,19.9666614 Z" id="BIO" fill="#5D9723"></path>
            <path d="M32.3336998,21.1754349 L32.0181455,21.4925775 C31.9281384,21.5831141 31.7888921,21.6741801 31.6369389,21.7213015 C31.3886252,21.8769608 31.0974257,22.0506216 30.7707529,22.24599 C30.3334243,22.5070106 29.8299139,22.8066813 29.2782233,23.1550617 C29.0775604,23.2704826 28.9097237,23.373726 28.7418869,23.4774989 C28.5655788,23.5855075 28.3892708,23.6940454 28.199197,23.8025834 L27.3626604,24.28068 L27.4076639,23.3181334 C27.5082601,21.162728 27.2705354,18.9967335 26.6823125,16.6973167 L26.2899875,15.1634897 L27.5262615,16.152509 C28.4072722,16.8572117 29.3195207,17.6762763 30.1639991,18.5207547 L30.1782944,18.53505 C30.9661213,19.3842935 31.5861114,20.1287052 32.0737381,20.8117003 L32.3336998,21.1754349 Z M33.3544863,22.7606188 L33.6017411,23.2704826 C34.5134601,25.1500427 35.0296773,27.0523693 35.1360975,28.9250466 L35.1615112,29.3692581 L34.7278888,29.4703837 C33.9543571,29.6509274 32.753027,29.9045356 31.362682,30.1978529 C29.8881538,30.5091716 28.2060799,30.8639055 26.6230137,31.2186394 L25.6673501,31.4330681 L26.0114949,30.516584 C26.5012394,29.2098926 26.8099108,27.8687867 27.0481649,26.7288732 L27.0942274,26.5043849 L27.2906547,26.3847284 C30.0443426,24.7058312 31.9191377,23.5812718 32.8626239,23.0417586 L33.3544863,22.7606188 Z M35.0227944,31.9625216 C34.5007532,34.8040988 33.5233819,36.7763133 32.0356174,37.9914093 C30.8311106,39.0217259 29.2565157,39.5437671 27.3547186,39.5437671 C25.2395516,39.5437671 23.3404017,38.923777 22.396386,38.5547478 L21.7779843,38.3122581 L22.1523079,37.7632148 C22.8628346,36.7201913 23.6924883,35.463798 24.4522542,34.0512159 C24.5184359,33.9485019 24.5475558,33.8876147 24.5777347,33.827257 C24.6264444,33.7287787 24.6772719,33.6303003 24.7429242,33.531822 L24.8631101,33.3523372 L28.8297762,32.5168595 C31.5691689,31.9397551 33.2941285,31.5760205 34.3953919,31.3483555 L35.1652174,31.18899 L35.0227944,31.9625216 Z M20.5845959,36.939385 L20.2420395,37.41907 L19.8020636,37.0272743 C18.748451,36.0912004 18.0686326,34.8888114 17.7816688,33.4534628 C17.5010584,32.0514698 17.6556589,30.521349 18.2295865,29.0293489 L18.5223743,28.2690536 L19.0984198,28.8450991 C19.2281359,28.9748152 19.3679117,29.1092964 19.5161587,29.2522489 C19.8550089,29.5783923 20.2378039,29.9479508 20.6502482,30.3974569 C21.0690459,30.8157252 21.5196109,31.2504066 21.9251723,31.6416728 C22.2603164,31.9651689 22.5647522,32.2590156 22.8045947,32.4988581 C22.8570106,32.5502151 22.9994336,32.6915792 22.9994336,32.9250682 C22.9999631,33.0902577 22.9284868,33.2093847 22.8681291,33.2840377 C22.2629637,34.4403643 21.5148458,35.6369293 20.5845959,36.939385 Z M19.7581189,26.3762571 C20.418877,25.4978937 20.9859217,24.6550036 21.4433696,23.8703535 L21.7621006,23.3234279 L25.3449129,26.3746688 L25.2776723,26.6849286 C24.9684714,28.1054525 24.6343862,29.2406009 24.1944103,30.3656897 L23.8989752,31.1196316 L23.3266359,30.5472923 C22.5467508,29.7674072 21.7668657,29.0208777 21.0934008,28.3775916 C20.577713,27.8841409 20.1239713,27.4505184 19.7792971,27.1058441 L19.454742,26.7807597 L19.7581189,26.3762571 Z M22.8093598,21.402041 C23.3684627,20.3388982 23.8714436,19.2085149 24.2627098,18.1321358 L24.9160555,16.3335821 L25.2797901,18.2126128 C25.5895204,19.812092 25.7171187,21.5259331 25.6599377,23.3070149 L25.6234054,24.433692 L22.6161092,21.7694818 L22.8093598,21.402041 Z M24.9584118,12.3113234 C24.8599334,12.2525541 24.7741619,12.2017265 24.7026857,12.150899 C24.4215459,12.0010636 24.1224046,12.0275363 23.8603251,12.2239636 C23.6056579,12.4156258 23.4695884,12.738063 23.5299461,13.0091432 C24.1128744,16.5607177 19.4859798,24.0969596 18.7119187,25.0526233 C18.3894815,25.4295942 18.0993409,25.8198015 17.8642636,26.1941251 C17.8229662,26.2793671 17.8081415,26.3090165 17.7710797,26.3820811 L17.7710797,26.4016709 L17.6625418,26.582744 C16.2949632,28.8879848 15.7850995,31.422479 16.2266637,33.7266609 C16.5755736,35.5744538 17.4851748,37.1723446 18.856989,38.3477315 L19.2673155,38.6998181 L18.9078165,39.1022028 C17.3835197,40.8091611 16.1011832,41.9871952 15.4721924,42.5372975 C15.2932371,42.6839561 15.1926409,42.8862074 15.1756984,43.1170491 C15.1582264,43.3510676 15.2307616,43.586145 15.3753024,43.762453 C15.5299028,43.9482912 15.7496261,44.0441223 16.023883,44.0441223 C16.2314288,44.0441223 16.4283855,43.9747639 16.593575,43.84293 C17.7414303,42.8750889 19.1683077,41.4476821 20.4977656,39.9360922 L20.7561389,39.641716 L21.1129906,39.8031993 C22.0686543,40.2341745 24.6015601,41.2385479 27.4600798,41.2385479 C29.7737919,41.2385479 31.7264166,40.5852022 33.2618319,39.2970417 C35.1419215,37.7219174 36.3268385,35.2509576 36.7837569,31.9529914 C37.5043432,26.7526986 35.6681983,21.7048884 31.4738672,17.3570158 C29.623427,15.4774557 27.429901,13.7789687 24.9584118,12.3113234 Z" id="Fill-1" fill="#FFFFFF"></path>
        </g>
    </g>
</svg>