<?xml version="1.0" encoding="UTF-8"?>
<svg width="32px" height="31px" viewBox="0 0 32 31" version="1.1" xmlns="http://www.w3.org/2000/svg" xmlns:xlink="http://www.w3.org/1999/xlink">
    <!-- Generator: Sketch 47.1 (45422) - http://www.bohemiancoding.com/sketch -->
    <title>phone</title>
    <desc>Created with Sketch.</desc>
    <defs>
        <polygon id="path-1" points="9.28290027 0.000361666667 18.2402189 0.000361666667 18.2402189 17.732155 0.325581661 17.732155 0.325581661 0.000361666667"></polygon>
    </defs>
    <g id="Symbols" stroke="none" stroke-width="1" fill="none" fill-rule="evenodd">
        <g id="supfooter" transform="translate(-220.000000, -90.000000)">
            <g id="Group-21">
                <g transform="translate(210.000000, 90.000000)">
                    <g id="Group-11" transform="translate(10.000000, 0.000000)">
                        <g id="phone">
                            <g id="Page-1">
                                <path d="M25.3578208,16.8061583 C25.354933,17.0336386 25.4523961,17.2643482 25.625303,17.4387259 C25.7989318,17.6138212 26.0303166,17.7142857 26.2602575,17.7142857 C26.4905593,17.7142857 26.7215831,17.6138212 26.8955729,17.4387259 C27.0684798,17.2639894 27.166304,17.032921 27.1626942,16.8072347 C27.1626942,9.9813886 21.5758889,4.42857143 14.7076235,4.42857143 C14.458551,4.43036544 14.2217516,4.53298276 14.0419862,4.7174069 C13.8651086,4.89824303 13.7622308,5.14186947 13.7676454,5.37437306 C13.7936356,5.8522971 14.244132,6.25523156 14.7090674,6.2225806 C20.5806817,6.2225806 25.3570988,10.9702465 25.3578208,16.8061583" id="Fill-1" fill="#2A2A2A"></path>
                                <g id="Group-5" transform="translate(13.395349, 0.000000)">
                                    <mask id="mask-2" fill="white">
                                        <use xlink:href="#path-1"></use>
                                    </mask>
                                    <g id="Clip-4"></g>
                                    <path d="M1.27788418,0.000361666667 L1.27095303,0.000361666667 C1.02435021,0.000361666667 0.78869129,0.100543333 0.607022344,0.282823333 C0.423164615,0.466911667 0.320656635,0.709228333 0.325763794,0.953715 C0.352029184,1.435455 0.807295942,1.84269167 1.27715458,1.808695 C9.6248062,1.808695 16.4162335,8.54184333 16.4162335,16.81533 C16.4125855,17.0449883 16.5114455,17.2779017 16.6865481,17.454395 C16.8620155,17.6308883 17.0958504,17.732155 17.3282262,17.732155 C17.5609667,17.732155 17.7944368,17.6308883 17.970269,17.454395 C18.1450068,17.2782633 18.2438668,17.04535 18.2402189,16.8178617 C18.2402189,7.54472833 10.6309166,0.000361666667 1.27788418,0.000361666667" id="Fill-3" fill="#2A2A2A" mask="url(#mask-2)"></path>
                                </g>
                                <path d="M9.58282967,10.6355457 C8.16347821,11.8980092 7.46365909,13.4391277 7.61187326,14.9751733 C7.7666585,16.5949241 8.7490337,17.8508651 9.5437683,18.6172572 L12.1232789,21.1776955 C12.896475,21.9680034 14.1610413,22.9427527 15.7946827,23.0974806 C17.34217,23.245686 18.8954983,22.548867 20.1659055,21.1403723 C20.4586832,20.8160598 20.6685925,20.6312561 20.7901573,20.5910341 C20.862074,20.5663935 21.033652,20.5098653 21.5812413,20.7950429 L25.8060752,23.9979461 C26.1766107,24.3661042 26.1470408,24.4603179 26.0674579,24.7128831 C25.9849544,24.9763191 25.6936369,25.3803509 25.2898811,25.7916299 C22.8191582,28.2448094 20.6642117,29.1572328 18.3030067,28.7521139 C16.1225061,28.377071 13.5948339,26.7381151 10.5761567,23.7417573 L6.96206729,20.1547522 C3.94339003,17.1576697 2.29222577,14.649049 1.91438915,12.4850329 C1.5062526,10.1420109 2.42620261,8.00263535 4.89546529,5.55126756 C5.31236327,5.14868521 5.71903959,4.859884 5.98443787,4.7776282 C6.07643287,4.7493641 6.14761948,4.72726011 6.21771091,4.72726011 C6.34146609,4.72726011 6.46193573,4.79574622 6.68790758,5.0189602 L9.91466878,9.20530937 C10.2183983,9.77493985 10.161449,9.94379977 10.13699,10.0166342 C10.0767552,10.1967273 9.70512461,10.5271999 9.58282967,10.6355457 L9.58282967,10.6355457 Z M27.0812282,22.7032326 C25.9349413,21.7995058 24.7320701,20.8968662 23.5693555,20.0239401 L22.5044768,19.226385 C21.6582688,18.7745216 20.8646294,18.6513191 20.2067922,18.8698224 C19.5686681,19.0821655 19.1875459,19.5057648 18.850596,19.880083 L18.8060587,19.9297264 C17.8828232,20.9523073 16.9829514,21.3846032 15.9691811,21.287853 C15.1007045,21.189291 14.1708979,20.6841607 13.4155897,19.8985634 L10.8313333,17.3334145 C10.0428047,16.5865898 9.53354663,15.663658 9.43534562,14.8045016 C9.33823978,13.7978645 9.77302568,12.9024721 10.8028586,11.9864251 L10.8517766,11.9429418 C11.2292482,11.6084832 11.657463,11.2287296 11.8702927,10.595686 C12.0907887,9.94307505 11.9663033,9.15457892 11.4961067,8.29071184 L10.7163395,7.26885564 C9.83399063,6.11075195 8.92170686,4.91315098 7.99445565,3.75613437 C7.28843051,3.05460472 6.30824567,2.78645806 5.43976905,3.05460472 C4.69322231,3.28579063 4.1222692,3.76990406 3.61739187,4.2576411 C0.792196152,6.94780436 -0.387676253,9.81987253 0.111360126,12.7952134 C0.566954421,15.4063821 2.2820041,18.0711802 5.67194691,21.435696 L9.28567121,25.0227012 C12.675614,28.3879418 15.3602618,30.0899484 17.9945314,30.5428988 C18.3866053,30.6019636 18.7805046,30.6309524 19.1751339,30.6309524 C21.7440578,30.6309524 24.3385359,29.3920423 26.5905882,27.0631523 C27.0826884,26.5623703 27.5700429,25.9960011 27.803681,25.2528 C28.0745552,24.39002 27.803681,23.4185319 27.0969257,22.7170022 L27.0812282,22.7032326 Z" id="Fill-6" fill="#2A2A2A"></path>
                            </g>
                        </g>
                    </g>
                </g>
            </g>
        </g>
    </g>
</svg>