<?xml version="1.0" encoding="UTF-8"?>
<svg width="88px" height="88px" viewBox="0 0 88 88" version="1.1" xmlns="http://www.w3.org/2000/svg" xmlns:xlink="http://www.w3.org/1999/xlink">
    <!-- Generator: Sketch 47.1 (45422) - http://www.bohemiancoding.com/sketch -->
    <title>Group 6</title>
    <desc>Created with Sketch.</desc>
    <defs>
        <polygon id="path-1" points="29 58 0 58 0 0 58 0 58 58"></polygon>
    </defs>
    <g id="Desktop" stroke="none" stroke-width="1" fill="none" fill-rule="evenodd">
        <g id="Accueil" transform="translate(-731.000000, -1014.000000)">
            <g id="Services-et-metiers" transform="translate(731.000000, 1014.000000)">
                <g id="Group-26">
                    <g id="Group-6">
                        <rect id="Rectangle-20-Copy-3" fill="#E74892" x="0" y="0" width="88" height="88"></rect>
                        <g id="Page-1" transform="translate(15.000000, 14.000000)">
                            <mask id="mask-2" fill="white">
                                <use xlink:href="#path-1"></use>
                            </mask>
                            <g id="Clip-2"></g>
                            <path d="M31.0537203,39.8986465 L34.9314603,39.8986465 L34.9314603,36.1063897 L31.0537203,36.1063897 L31.0537203,39.8986465 Z M37,40.9461756 L37,35.0513063 C37,34.4746616 36.5418339,34 35.9749923,34 L30.0262427,34 C29.4643408,34 29,34.4746616 29,35.0513063 L29,40.9461756 C29,41.5341517 29.4643408,42 30.0262427,42 L35.9749923,42 C36.5418339,42 37,41.5341517 37,40.9461756 L37,40.9461756 Z" id="Fill-1" fill="#FEFEFE" mask="url(#mask-2)"></path>
                            <path d="M13.6300174,15.3617873 C13.6300174,15.9958128 13.1215886,16.508128 12.5147542,16.508128 C11.9038195,16.508128 11.4008577,15.9958128 11.4008577,15.3617873 C11.4008577,14.7192704 11.9038195,14.2182771 12.5147542,14.2182771 C13.1215886,14.2182771 13.6300174,14.7192704 13.6300174,15.3617873 M56.8615021,41.5592102 C55.2186756,41.5592102 53.667421,42.0715254 52.3252782,43.0395464 L52.3252782,37.7692097 L56.5512512,37.7833621 L56.5594517,37.7833621 C57.0350786,37.7833621 57.4615028,37.4819169 57.6364461,37.0219654 C57.812756,36.5563529 57.6760816,36.0270549 57.2974935,35.7057965 L51.4286941,30.5189587 L51.2291494,23.2319115 C51.210015,22.6049622 50.7029529,22.0898165 50.0961185,22.0898165 L45.8482776,22.0898165 C45.2291425,22.0898165 44.7097797,22.6205298 44.7097797,23.2715381 L44.7097797,23.6593126 L37.9416626,16.8888263 C37.496104,16.435951 36.8031647,16.435951 36.3630731,16.8576912 L16.896536,35.8218458 C16.5671506,36.1530109 16.4509774,36.670987 16.6245539,37.1224471 C16.7899299,37.5682463 17.2136206,37.8512934 17.6878809,37.8512934 L21.7717124,37.8512934 L21.7717124,55.3025613 L13.5193111,55.3025613 L13.5193111,18.7243867 C14.5594035,18.3818997 15.3985844,17.5497413 15.7375369,16.4755776 L26.9680737,18.575787 L27.0022423,18.575787 C27.0746798,18.575787 27.1266161,18.5531432 27.1771856,18.5021947 C27.2195547,18.4427548 27.2195547,18.3592559 27.2058872,18.2658504 C27.1020147,18.0606413 24.8427866,13.18374 15.8400427,14.6329411 C15.5106574,13.0507079 14.1575807,11.8505883 12.5147542,11.8505883 L12.3972142,11.8505883 L10.4769386,0.181972236 C10.4564375,0.102719053 10.4058679,0.0376182237 10.330697,0.00506780906 C10.2391252,-0.00908454512 10.1666877,0.00506780906 10.1079177,0.0645076966 C9.94254167,0.228675005 6.30563545,4.11066576 10.7147521,12.3954539 C9.76486493,13.0110813 9.11429471,14.103643 9.11429471,15.3617873 C9.11429471,15.7934341 9.18809889,16.2038524 9.33160703,16.5774746 L0.0828492633,24.323058 C0.0131453109,24.3824979 -0.00735585158,24.4702425 0.00221135757,24.5353433 C0.0199790317,24.6329946 0.0828492633,24.7122477 0.164853913,24.7249849 C0.220890424,24.737722 0.600845302,24.8551865 1.27054994,24.8551865 C3.03911689,24.8551865 6.73069288,23.9975538 10.3265968,18.0436584 C10.5917451,18.2828332 10.8937956,18.4710595 11.2313814,18.6154136 L11.2313814,55.3025613 L3.23456131,55.3025613 C2.60859248,55.3025613 2.09879691,55.8375203 2.09879691,56.4871133 C2.09879691,57.1381216 2.60859248,57.6688349 3.23456131,57.6688349 L22.9184108,57.6688349 C23.227295,57.6688349 23.5184115,57.5471247 23.7357238,57.3235175 C23.9544028,57.0956646 24.0760431,56.809787 24.0760431,56.4871133 L24.0569087,36.6794784 C24.0569087,36.0270549 23.5375459,35.4991721 22.9184108,35.4991721 L20.5635106,35.4991721 L37.1393838,19.3654883 L45.0487323,27.3134504 C45.3917851,27.6559374 45.8769793,27.7422668 46.3047702,27.5483795 C46.7243606,27.3700598 46.994976,26.9497349 46.994976,26.4614787 L46.994976,24.4575054 L48.976755,24.4575054 L49.1544318,31.1091118 C49.1721994,31.453014 49.3157076,31.7572896 49.5685552,31.9823121 L53.4309743,35.4057666 L51.1908806,35.3916142 C50.9011308,35.3916142 50.6018138,35.5062483 50.3845015,35.7355164 C50.1644557,35.9534627 50.0305148,36.2492469 50.0305148,36.5690901 L50.0305148,41.666768 C48.8769827,40.9605656 47.5430404,40.5742063 46.1380274,40.5742063 C41.8081819,40.5742063 38.3052166,44.2127766 38.3052166,48.6849205 C38.3052166,49.2057271 38.3680868,49.746347 38.4787931,50.2713994 C35.7330041,51.1262016 33.7785599,53.7288195 33.7785599,56.809787 C33.7785599,57.4721172 34.2965559,58 34.9238915,58 C35.5566941,58 36.0623894,57.4721172 36.0623894,56.809787 C36.0623894,54.4803095 37.7762866,52.5711569 40.028681,52.3588716 C40.3785675,52.3362279 40.722987,52.1239425 40.9074975,51.808345 C41.0920079,51.4941628 41.1234431,51.1007273 40.9922356,50.7582404 C40.722987,50.0619445 40.610914,49.3628182 40.610914,48.6849205 C40.610914,45.5119627 43.0765205,42.9461409 46.1380274,42.9461409 C48.047369,42.9461409 49.805002,43.9693561 50.8286934,45.6846214 C51.0241378,46.0072951 51.3439559,46.2096737 51.6979427,46.235148 C52.0464624,46.2761898 52.4004492,46.1304205 52.6450964,45.8615258 C53.7630931,44.6161187 55.2460105,43.9382209 56.8615021,43.9382209 C57.4915712,43.9382209 58,43.4032619 58,42.7465927 C58,42.0913387 57.4915712,41.5592102 56.8615021,41.5592102" id="Fill-3" fill="#FEFEFE" mask="url(#mask-2)"></path>
                        </g>
                    </g>
                </g>
            </g>
        </g>
    </g>
</svg>