<?xml version="1.0" encoding="utf-8"?>
<!-- Generator: Adobe Illustrator 23.1.1, SVG Export Plug-In . SVG Version: 6.00 Build 0)  -->
<svg version="1.1" id="Calque_1" xmlns="http://www.w3.org/2000/svg" xmlns:xlink="http://www.w3.org/1999/xlink" x="0px" y="0px"
	 viewBox="0 0 88 88" style="enable-background:new 0 0 88 88;" xml:space="preserve">
<style type="text/css">
	.st0{fill:#009CD8;}
	.st1{fill:#FFFFFF;}
</style>
<title>Group 6</title>
<desc>Created with Sketch.</desc>
<polygon class="st0" points="0,0 88,0 88,88 0,88 "/>
<path class="st1" d="M67.9,50.8c-0.3,0-0.6,0.1-0.9,0.4c-0.2,0.2-0.4,0.5-0.4,0.9v5.3c-1.2-0.7-2.7-1.1-4.2-1.1
	c-4.6,0-8.4,3.8-8.4,8.4c0,0.6,0.1,1.1,0.2,1.7c-2.6,0.8-4.1,2.6-4.5,5.2H38.9V52.2c0-0.7-0.5-1.2-1.2-1.2h-2.5l17.7-16.8l8.5,8.3
	c0.4,0.3,0.9,0.4,1.3,0.2c0.5-0.2,0.7-0.6,0.7-1.1v-2.1h2.1l0.2,6.9c0,0.3,0.2,0.7,0.4,0.9l4.2,3.6L67.9,50.8z M26.5,31.1
	c-0.7,0-1.2-0.5-1.2-1.2s0.5-1.2,1.2-1.2s1.2,0.5,1.2,1.2S27.2,31.1,26.5,31.1 M74,57.2c-1.8,0-3.4,0.5-4.9,1.5v-5.5h4.5l0,0
	c0.5,0,1-0.3,1.1-0.8c0.2-0.5,0-1-0.4-1.4L68,45.6L67.8,38c0-0.7-0.6-1.2-1.2-1.2h-4.5c-0.7,0-1.2,0.6-1.2,1.2v0.4l-7.2-7.1
	c-0.5-0.5-1.2-0.5-1.7,0L31.2,51.2c-0.4,0.4-0.5,0.9-0.3,1.4s0.6,0.8,1.1,0.8h4.4v18.1h-8.8V33.4c1.1-0.3,2-1.2,2.4-2.3l12,2.2l0,0
	c0.1,0,0.1,0,0.2-0.1c0-0.1,0.1-0.2,0-0.2c-0.1-0.2-2.5-5.3-12.1-3.8c-0.4-1.7-1.8-2.9-3.6-2.9h-0.1l-2.1-12.1
	c0-0.1-0.1-0.1-0.2-0.2c-0.1,0-0.2,0-0.2,0.1c-0.2,0.2-4.1,4.2,0.6,12.8c-1,0.6-1.7,1.8-1.7,3.1c0,0.4,0.1,0.9,0.2,1.3l-9.9,8.1
	C13,39.5,13,39.5,13,39.6s0.1,0.2,0.2,0.2c0.1,0,0.5,0.1,1.2,0.1c1.9,0,5.9-0.9,9.7-7.1c0.3,0.2,0.6,0.5,1,0.6v38.2h-8.5
	c-0.7,0-1.2,0.6-1.2,1.2c0,0.7,0.6,1.2,1.2,1.2h16.7l0,0h17.5c0,0,0,0,0.1,0c0.7,0,1.2-0.6,1.2-1.2c0-2.4,1.4-4.1,3.8-4.3
	c0.4,0,0.7-0.2,0.9-0.6c0.2-0.3,0.2-0.7,0.1-1.1c-0.3-0.7-0.4-1.5-0.4-2.2c0-3.3,2.7-6,5.9-6c2.1,0,3.9,1.1,5,2.8
	c0.2,0.3,0.5,0.5,0.9,0.6c0.4,0,0.8-0.1,1-0.4c1.2-1.3,2.8-2,4.5-2c0.7,0,1.2-0.6,1.2-1.2C75.2,57.7,74.6,57.2,74,57.2"/>
</svg>
