<?xml version="1.0" encoding="UTF-8"?>
<svg width="88px" height="88px" viewBox="0 0 88 88" version="1.1" xmlns="http://www.w3.org/2000/svg" xmlns:xlink="http://www.w3.org/1999/xlink">
    <!-- Generator: Sketch 47.1 (45422) - http://www.bohemiancoding.com/sketch -->
    <title>Group 5</title>
    <desc>Created with Sketch.</desc>
    <defs>
        <polygon id="path-1" points="0.000278054241 53.4120265 19.8241552 53.4120265 19.8241552 0.58008272 0.000278054241 0.58008272"></polygon>
        <polygon id="path-3" points="9.87124333 0.489654753 9.87124333 6.44376041 0.440723916 6.44376041 0.440723916 0.489654753 9.87124333 0.489654753"></polygon>
    </defs>
    <g id="Desktop" stroke="none" stroke-width="1" fill="none" fill-rule="evenodd">
        <g id="Accueil" transform="translate(-329.000000, -1014.000000)">
            <g id="Culture-et-filiere" transform="translate(329.000000, 1014.000000)">
                <g id="Group-20">
                    <g id="Group-5">
                        <rect id="Rectangle-20-Copy-3" fill="#80BA27" x="0" y="0" width="88" height="88"></rect>
                        <g id="Page-1" transform="translate(17.709677, 14.654151)">
                            <path d="M38.8336574,6.19304776 C38.0475841,5.8006921 37.3047016,5.22022071 36.689952,4.49463148 C36.0608054,3.7730733 35.6231382,2.95880094 35.3985458,2.15662174 C36.1673428,2.5489774 36.9260619,3.13213615 37.5393719,3.84563223 C38.1584406,4.57793988 38.6119445,5.38415013 38.8336574,6.19304776 M40.8737049,7.48835891 C40.8895415,5.91490522 40.2042468,4.19230264 38.9805063,2.77740364 C37.7769215,1.35041148 36.1241519,0.353398128 34.4742618,0.0188208715 C34.1964007,-0.034926479 33.9300572,0.0282266579 33.7025854,0.185437658 C33.4909503,0.342648658 33.3671365,0.596604889 33.3671365,0.849217436 C33.3426617,2.42535849 34.0351549,4.14124265 35.2430588,5.56420376 C36.4480833,6.98850855 38.1008528,7.99224032 39.750743,8.32144284 C39.8155293,8.34562915 39.8759964,8.34562915 39.9407827,8.34562915 C40.1452194,8.34562915 40.3626133,8.27710127 40.5166606,8.15482605 C40.7426927,7.99224032 40.8564286,7.75172092 40.8737049,7.48835891" id="Fill-1" fill="#FEFEFE"></path>
                            <path d="M35.9704179,14.8005618 C35.9704179,12.3894947 37.272605,10.8710964 39.3884845,10.8710964 C40.0207361,10.8710964 40.6836931,11.011742 41.3968953,11.272941 C41.5964802,11.3446989 41.8225834,11.3446989 42.0277512,11.2628948 C42.7409533,10.9729927 43.4318243,10.8337823 44.0598888,10.8337823 C46.1129619,10.8337823 47.4235232,12.392365 47.4235232,14.8005618 C47.4235232,18.0483267 44.8526458,20.6875842 41.6997619,20.6875842 C38.5468781,20.6875842 35.9704179,18.0483267 35.9704179,14.8005618 M34.2006716,14.8005618 C34.2006716,19.0586787 37.5629103,22.5331987 41.6997619,22.5331987 C45.8491748,22.5331987 49.2156006,19.0586787 49.2156006,14.8005618 C49.2156006,11.3734021 47.0941383,8.98960294 44.0598888,8.98960294 C43.6146609,8.98960294 43.1498931,9.0470093 42.668377,9.15608139 C42.8232996,8.60067484 43.0954609,7.91753915 43.5741856,7.41379833 C43.9147361,7.06361952 43.9147361,6.47520432 43.5741856,6.11210909 C43.229448,5.75188417 42.668377,5.75188417 42.3138695,6.11210909 C41.3815426,7.09232271 40.9795813,8.40405806 40.8190759,9.19483068 C40.331977,9.08719375 39.8448781,9.02548192 39.3884845,9.02548192 C36.2746802,9.02548192 34.2006716,11.3504395 34.2006716,14.8005618" id="Fill-3" fill="#FEFEFE"></path>
                            <g id="Group-7" transform="translate(0.000000, 3.338252)">
                                <mask id="mask-2" fill="white">
                                    <use xlink:href="#path-1"></use>
                                </mask>
                                <g id="Clip-6"></g>
                                <path d="M7.25610347,41.7136683 C7.57169503,41.3552454 7.8678228,41.0333677 8.16117002,40.7157067 C8.67278983,40.1492581 9.15243339,39.6193546 9.58341747,39.0950734 C9.83088574,39.4492794 10.0825248,39.8091078 10.3675304,40.1815864 C10.8555156,40.8787539 11.4269171,41.6630674 12.0136115,42.5626384 L12.0136115,50.939893 C12.0136115,51.0186055 12.0455878,51.1015347 12.0650516,51.1914918 L7.28807971,51.1914918 L7.28807971,41.868282 C7.28807971,41.8092477 7.27139645,41.7572412 7.25610347,41.7136683 L7.25610347,41.7136683 Z M2.21080927,30.8344818 C2.21080927,25.9922599 3.78598654,19.0248016 6.23842495,15.2859598 C8.67278983,19.0163681 10.2479671,25.9922599 10.2479671,30.8344818 C10.2479671,35.1229053 9.03704088,36.4863176 6.5401138,39.2117365 C6.44140454,39.3368331 6.33574393,39.4422515 6.23842495,39.5715649 C6.1202519,39.4422515 6.01320101,39.3368331 5.92144311,39.2117365 C3.44397983,36.4863176 2.21080927,35.1229053 2.21080927,30.8344818 L2.21080927,30.8344818 Z M13.1244382,3.92184833 C15.8215644,9.5722785 17.6247461,20.5681281 17.6247461,28.0500285 C17.6247461,34.0167141 16.3790631,35.7427659 14.1240432,38.875803 C13.7987198,39.3087215 13.4678352,39.7725628 13.1244382,40.2729491 C12.7685288,39.7725628 12.4473761,39.3030992 12.1331749,38.875803 C11.7021908,38.2784316 11.308744,37.7344723 10.9556151,37.2045688 C11.8954385,35.602208 12.457108,33.7468428 12.457108,30.8344818 C12.457108,26.7372171 11.406063,21.210478 9.57090503,17.0035781 C10.3675304,11.9969034 11.6146037,7.10408064 13.1244382,3.92184833 L13.1244382,3.92184833 Z M11.272597,51.1914918 L14.1629708,51.1914918 C14.1824346,51.1015347 14.2227525,51.0186055 14.2227525,50.939893 L14.2227525,42.5823165 C14.8191788,41.6715009 15.3877997,40.8787539 15.8910779,40.1815864 C18.2503682,36.8981524 19.8241552,34.7279374 19.8241552,28.0500285 C19.8241552,20.417731 17.8124327,6.7892308 14.0364561,1.03338216 C13.6332775,0.428982908 12.6142087,0.428982908 12.2221522,1.03338216 C10.3286028,3.92184833 8.88411105,8.76828694 7.90675039,13.860702 C7.63286697,13.4516783 7.3464711,13.0651439 7.05312387,12.7235881 C6.83485129,12.4804228 6.53455271,12.3511095 6.23842495,12.3511095 C5.92144311,12.3511095 5.61002236,12.4804228 5.40426223,12.7235881 C2.07317242,16.5060029 0.000278054241,25.0800387 0.000278054241,30.8344818 C0.000278054241,35.9845256 1.70892136,37.86238 4.28926472,40.7072732 C4.56175788,41.0066617 4.85649537,41.3285394 5.14706205,41.6546339 C5.12481771,41.7291296 5.10257337,41.7965975 5.10257337,41.868282 L5.10257337,51.1914918 L1.39611034,51.1914918 C0.795513183,51.1914918 0.29501555,51.6848503 0.29501555,52.3033053 C0.29501555,52.8992711 0.795513183,53.4123076 1.39611034,53.4123076 L17.1659566,53.4123076 C17.7748954,53.4123076 18.2726125,52.8992711 18.2726125,52.3033053 C18.2726125,51.6848503 17.7748954,51.1914918 17.1659566,51.1914918 L13.4706158,51.1914918 L11.272597,51.1914918 Z" id="Fill-5" fill="#FEFEFE" mask="url(#mask-2)"></path>
                            </g>
                            <path d="M27.7271781,33.5081806 C27.8952732,33.6957536 28.1212372,33.799798 28.356846,33.799798 C28.6076109,33.799798 28.825308,33.6957536 28.9961588,33.5081806 L33.1489361,28.6356786 C33.4575699,28.2576017 33.4382803,27.7036752 33.0883116,27.3578374 C32.74661,27.0193267 32.2009896,27.0544967 31.8813332,27.416454 L28.356846,31.5547836 L24.839248,27.416454 C24.5278586,27.0544967 23.9905052,27.0193267 23.6419144,27.3578374 C23.2947014,27.7036752 23.2533665,28.2576017 23.5785342,28.6356786 L27.7271781,33.5081806 Z" id="Fill-8" fill="#FEFEFE"></path>
                            <path d="M28.3565732,36.1394583 L24.8391671,32.0097474 C24.5277947,31.642988 23.9904706,31.6121802 23.6418988,31.9422637 C23.2947048,32.2811493 23.2533722,32.8503599 23.5785221,33.2244545 L27.7269396,38.1052888 C27.8950256,38.2916025 28.1209772,38.3898941 28.3565732,38.3898941 C28.6073244,38.3898941 28.8250096,38.2916025 28.9958511,38.1052888 L33.1484018,33.2244545 C33.4583965,32.8503599 33.4377301,32.2811493 33.0877806,31.9422637 C32.7447199,31.6121802 32.200507,31.642988 31.8808681,32.0097474 L28.3565732,36.1394583 Z" id="Fill-10" fill="#FEFEFE"></path>
                            <path d="M27.7644751,24.7827732 C27.787789,24.7890945 27.787789,24.791623 27.7955603,24.8004727 C27.7994459,24.8004727 27.7994459,24.8055297 27.8072172,24.8055297 C27.8784541,24.8813847 27.9652336,24.9344832 28.052013,24.9736749 L28.0584891,24.9736749 C28.1556303,25.0090739 28.2514763,25.0368874 28.3563888,25.0368874 C28.4651869,25.0368874 28.5636233,25.0090739 28.6555836,24.9787319 C28.6555836,24.9787319 28.669831,24.9736749 28.6827832,24.9736749 C28.7630866,24.9344832 28.84339,24.8813847 28.9055603,24.8194365 C28.9107412,24.8055297 28.9249886,24.8004727 28.9340551,24.791623 C28.9340551,24.791623 28.957369,24.7890945 28.957369,24.7827732 L31.494697,22.0456724 C31.7848253,21.7232886 31.7641019,21.239081 31.4364122,20.940718 C31.1139035,20.6613188 30.6074741,20.682811 30.306984,20.996345 L29.1607179,22.2428953 L29.1607179,19.1353693 C29.1607179,18.7067886 28.8071239,18.3603841 28.3563888,18.3603841 C27.9224914,18.3603841 27.5637166,18.7067886 27.5637166,19.1353693 L27.5637166,22.2517451 L26.4032031,20.996345 C26.1130748,20.682811 25.6131214,20.6613188 25.2854318,20.940718 C24.9642182,21.239081 24.9344283,21.7232886 25.2271471,22.0456724 L27.7644751,24.7827732 Z" id="Fill-12" fill="#FEFEFE"></path>
                            <path d="M27.7499651,28.9597365 C27.9121735,29.115965 28.1302242,29.209702 28.357582,29.209702 C28.5995651,29.209702 28.8096383,29.115965 28.9745059,28.9597365 L32.3157342,25.480217 C32.621537,25.1702598 32.6029229,24.690326 32.2638807,24.4053654 C31.9288271,24.1191549 31.4063032,24.1341528 31.1071482,24.4591079 L28.357582,27.304965 L25.6199819,24.4591079 C25.3075312,24.1391521 24.8009622,24.1191549 24.4725566,24.3978664 C24.1202185,24.690326 24.0989453,25.1702598 24.4047481,25.480217 L27.7499651,28.9597365 Z" id="Fill-14" fill="#FEFEFE"></path>
                            <path d="M36.6649913,45.9807252 C33.6111227,45.9807252 30.8948392,47.4724403 29.2395375,49.7323607 L29.2395375,42.5740838 L33.3061614,38.1576015 C33.625307,37.8126075 33.6040306,37.2636898 33.2423323,36.949424 C32.8919813,36.6253811 32.3302851,36.6477288 32.0012106,37.0038968 L28.37288,40.9440918 L24.7516415,37.0038968 C24.4310775,36.6477288 23.8778918,36.6253811 23.5190303,36.949424 C23.1615873,37.2636898 23.120453,37.8126075 23.4552012,38.1576015 L27.5019671,42.5377686 L27.5019671,49.7323607 C25.8268075,47.4724403 23.1147793,45.9807252 20.0609107,45.9807252 C19.58432,45.9807252 19.1857426,46.3760018 19.1857426,46.8467022 C19.1857426,47.3187993 19.58432,47.7029019 20.0609107,47.7029019 C24.1559031,47.7029019 27.5019671,50.989424 27.5019671,55.0176134 L27.5019671,55.0511351 C27.5019671,55.5344061 27.8806866,55.9157153 28.3657878,55.9157153 C28.8508891,55.9157153 29.2395375,55.5344061 29.2395375,55.0511351 L29.2395375,55.0176134 C29.2395375,50.989424 32.5742542,47.7029019 36.6649913,47.7029019 C37.1543478,47.7029019 37.5373225,47.3187993 37.5373225,46.8467022 C37.5373225,46.3760018 37.1543478,45.9807252 36.6649913,45.9807252" id="Fill-16" fill="#FEFEFE"></path>
                            <path d="M45.9221506,42.5975656 L45.9221506,49.7432437 C47.5775802,47.4873008 50.2926551,45.9982112 53.3481783,45.9982112 C53.8361541,45.9982112 54.220577,46.3941864 54.220577,46.8640583 C54.220577,47.3339302 53.8361541,47.7173568 53.3481783,47.7173568 C49.257125,47.7173568 45.9221506,50.9980945 45.9221506,55.0191941 L45.9221506,55.0540511 C45.9221506,55.5350772 45.5334721,55.9157153 45.0483334,55.9157153 C44.5646131,55.9157153 44.1816088,55.5350772 44.1816088,55.0540511 L44.1816088,55.0191941 C44.1816088,50.9980945 40.8381232,47.7173568 36.7428143,47.7173568 C36.2661867,47.7173568 35.8689971,47.3339302 35.8689971,46.8640583 C35.8689971,46.3941864 36.2661867,45.9982112 36.7428143,45.9982112 C39.7955004,45.9982112 42.5105753,47.4873008 44.1816088,49.7432437 L44.1816088,42.5627086 L45.9221506,42.5975656 Z" id="Fill-18" fill="#FEFEFE"></path>
                            <path d="M45.464645,30.033025 C44.6941452,31.1387506 44.2387867,32.6715926 44.2387867,33.7056638 C44.2387867,34.516342 44.4623011,34.7692398 45.464645,35.4647089 C46.462824,34.7748598 46.6835618,34.5247719 46.6835618,33.7056638 C46.6835618,32.6715926 46.2309799,31.1415606 45.464645,30.033025 L45.464645,30.033025 Z M45.5229531,37.5553312 L44.9954036,37.220944 L45.4674215,36.508615 L44.9579199,37.1970592 C44.9023883,37.1577195 44.8482451,37.1211898 44.799655,37.0832552 C43.4891112,36.1854678 42.5422989,35.5251234 42.5422989,33.7056638 C42.5422989,32.0618278 43.3641653,29.5356592 44.8871172,28.0941415 L45.4701981,27.5405762 L46.0491142,28.0955465 C47.562348,29.5412792 48.3814379,32.0646378 48.3814379,33.7056638 C48.3814379,35.5504132 47.4235192,36.2037326 46.096316,37.10433 L45.5229531,37.5553312 Z" id="Fill-20" fill="#FEFEFE"></path>
                            <g id="Group-24" transform="translate(45.044787, 32.547954)">
                                <mask id="mask-4" fill="white">
                                    <use xlink:href="#path-3"></use>
                                </mask>
                                <g id="Clip-23"></g>
                                <path d="M2.3683548,4.18576699 C3.3421802,4.80134059 3.6796586,4.96424728 4.49475475,4.66380463 C5.47001014,4.30460875 6.75128408,3.36455708 7.51061049,2.29364595 C6.29082626,2.01857401 4.60057425,2.09468615 3.57097912,2.47524684 C2.80307275,2.75833058 2.65006347,3.04542022 2.3683548,4.18576699 M3.80835799,6.44376041 C2.79592278,6.44376041 2.02801641,5.94836386 1.05419102,5.32344315 L0.440723916,4.99495919 L0.526523511,4.38739739 C0.547973409,4.29259104 0.563703335,4.22048481 0.58372324,4.15639037 C0.939791557,2.66886544 1.20720029,1.5926131 2.93034214,0.958345286 C3.74686828,0.656567336 4.79362334,0.489654753 5.86897825,0.489654753 C6.72840419,0.489654753 7.99108822,0.596478806 9.13079283,1.09855186 L9.87152933,1.42703582 L9.56694077,2.14008637 C8.77043453,3.9974896 6.68979437,5.6091975 5.13539172,6.18337678 C4.65777398,6.35830117 4.22448603,6.44376041 3.80835799,6.44376041" id="Fill-22" fill="#FEFEFE" mask="url(#mask-4)"></path>
                            </g>
                            <path d="M38.1461493,35.3252028 C38.8487495,36.5423432 40.0650035,37.6321428 41.0083352,38.0645089 C41.7935118,38.4243205 42.0986251,38.2718078 43.1063384,37.6040094 C42.8782033,36.3380057 42.7382431,36.0152118 41.9894561,35.671688 C41.0027368,35.2171113 39.3582046,35.0660793 38.1461493,35.3252028 M41.7039373,40.0590199 C41.2672615,40.0590199 40.8179893,39.9494477 40.3267291,39.7243803 C38.8249563,39.0343714 36.850118,37.1701625 36.1419194,35.0734828 L35.8689971,34.2739016 L36.6079869,33.9377813 C37.4099587,33.5735277 38.4036761,33.3825166 39.4757711,33.3825166 C40.6346415,33.3825166 41.7991103,33.6105453 42.6710622,34.0118166 C44.3575825,34.7877066 44.5689224,35.9989241 44.8600396,37.6736025 L45.044787,38.431724 L44.5227355,38.8019005 C44.4359602,38.859648 44.3771769,38.9011078 44.3211928,38.9336833 C43.38206,39.5644641 42.6360722,40.0590199 41.7039373,40.0590199" id="Fill-25" fill="#FEFEFE"></path>
                            <path d="M42.9716617,40.1138841 C42.6022525,40.1138841 42.3244907,40.1957101 41.8986833,40.6217699 C41.1640949,41.3539719 40.4041273,42.768998 40.1672543,44.1064306 C41.5137646,43.8750604 42.9166733,43.1160533 43.6540815,42.379619 C44.2307546,41.8026043 44.2462641,41.4640138 44.0220807,40.2479095 C43.6131928,40.1717266 43.2564733,40.1138841 42.9716617,40.1138841 M39.3776776,45.9009603 L38.3977564,45.8727444 L38.3737872,45.061538 C38.311749,42.9467581 39.5144435,40.5667489 40.6804792,39.402844 C41.3798186,38.7030903 42.0833878,38.3898941 42.9716617,38.3898941 C43.5088558,38.3898941 44.0756591,38.5013468 44.7326998,38.6311398 L45.4757479,38.7214306 L45.606874,39.3421799 C45.6266134,39.4409355 45.640713,39.5128859 45.6477628,39.5777825 C45.9537238,41.1578715 46.1638076,42.3062577 44.8722856,43.597134 C43.7288093,44.7426986 41.4742858,45.9009603 39.3776776,45.9009603" id="Fill-27" fill="#FEFEFE"></path>
                            <path d="M46.0710335,40.2475606 C45.8412043,41.4535628 45.8609443,41.7906792 46.4418622,42.3732276 C47.1623697,43.0940078 48.5850548,43.8627461 49.9231402,44.102536 C49.690491,42.7653546 48.9305036,41.3491836 48.1973061,40.6157086 C47.7757176,40.1939605 47.4965386,40.1135603 47.1257099,40.1135603 C46.8423008,40.1135603 46.4940321,40.1671604 46.0710335,40.2475606 L46.0710335,40.2475606 Z M50.7268374,45.9009603 C48.6499146,45.9009603 46.3431626,44.7118845 45.2236265,43.5919245 C43.913741,42.2801327 44.1379302,41.1305517 44.4523591,39.536654 L44.5186289,38.9033266 L45.1587667,38.6635367 C45.2602863,38.6437893 45.3336061,38.629684 45.3956459,38.6212208 C46.0724435,38.4900416 46.6068317,38.3898941 47.1257099,38.3898941 C48.0125968,38.3898941 48.7190043,38.7002104 49.4169519,39.3970117 C50.5830179,40.5635191 51.7843337,42.9473128 51.715244,45.0673377 L51.689864,45.8755708 L50.7268374,45.9009603 Z" id="Fill-29" fill="#FEFEFE"></path>
                            <path d="M46.7131125,38.3898941 C46.7131125,39.310311 45.966651,40.0590199 45.0439861,40.0590199 C44.1229231,40.0590199 43.3764616,39.310311 43.3764616,38.3898941 C43.3764616,37.4679302 44.1229231,36.7207682 45.0439861,36.7207682 C45.966651,36.7207682 46.7131125,37.4679302 46.7131125,38.3898941" id="Fill-31" fill="#FFFFFF"></path>
                            <path d="M45.044787,36.7094629 C44.5978646,36.7094629 44.2383835,37.0893235 44.2383835,37.5560095 C44.2383835,38.0213388 44.5978646,38.3998428 45.044787,38.3998428 C45.4889336,38.3998428 45.8511906,38.0213388 45.8511906,37.5560095 C45.8511906,37.0893235 45.4889336,36.7094629 45.044787,36.7094629 M45.044787,40.0590199 C43.6637689,40.0590199 42.5422989,38.9357177 42.5422989,37.5560095 C42.5422989,36.1749446 43.6637689,35.0516424 45.044787,35.0516424 C46.4258052,35.0516424 47.5472752,36.1749446 47.5472752,37.5560095 C47.5472752,38.9357177 46.4258052,40.0590199 45.044787,40.0590199" id="Fill-33" fill="#FEFEFE"></path>
                        </g>
                    </g>
                </g>
            </g>
        </g>
    </g>
</svg>