<?xml version="1.0" encoding="UTF-8"?>
<svg width="88px" height="88px" viewBox="0 0 88 88" version="1.1" xmlns="http://www.w3.org/2000/svg" xmlns:xlink="http://www.w3.org/1999/xlink">
    <!-- Generator: Sketch 47.1 (45422) - http://www.bohemiancoding.com/sketch -->
    <title>Group 11</title>
    <desc>Created with Sketch.</desc>
    <defs></defs>
    <g id="Desktop" stroke="none" stroke-width="1" fill="none" fill-rule="evenodd">
        <g id="Accueil" transform="translate(-329.000000, -1135.000000)">
            <g id="Elevage-et-filieres" transform="translate(329.000000, 1135.000000)">
                <g id="Group-25">
                    <g id="Group-11">
                        <rect id="Rectangle-20-Copy-3" fill="#30B3E8" x="0" y="0" width="88" height="88"></rect>
                        <g id="Page-1" transform="translate(6.500000, 22.243787)" fill="#FEFEFE">
                            <path d="M38.4801655,11.0470632 C37.7232895,11.962869 35.9381324,13.0496085 31.735814,13.1718823 C31.981735,12.5081103 32.1193488,11.8019167 32.1193488,11.0545493 C32.1193488,10.5929034 32.088768,10.1661928 32.0479935,9.74072987 L32.2480432,9.74696833 C32.4404477,9.74696833 32.6341265,9.74072987 32.8176116,9.72700526 L39.0828631,9.72700526 C39.0344434,10.1013128 38.8649746,10.5716926 38.4801655,11.0470632 L38.4801655,11.0470632 Z M33.7273918,5.73813458 C34.0230067,5.75435458 36.1318111,5.80925301 37.9883235,4.55157968 C37.8290483,5.18291173 37.5219656,5.85167454 37.0008169,6.4355943 C36.0974077,7.44747235 34.6766724,7.99645674 32.7857565,8.08129978 L31.7957015,8.08129978 C31.5663451,7.13180632 31.2031975,6.35823741 30.6998877,5.73813458 L33.7273918,5.73813458 Z M26.9358948,15.703449 C26.2159706,15.9592258 25.4705624,16.1563611 24.6831056,16.298598 C24.4562976,16.3335333 24.2562479,16.4620456 24.1275535,16.6392178 C23.9975848,16.8425916 23.9504394,17.0621853 24.0077785,17.278036 C24.0256173,17.3279437 24.8270904,20.9761945 25.8732103,24.39487 C24.9889141,24.277587 23.9848428,24.3711639 22.9068679,24.4747223 C22.0964754,24.5520792 21.268244,24.62195 20.4056092,24.62195 C19.521313,24.62195 18.6918074,24.5520792 17.8801407,24.4747223 C16.8047142,24.3711639 15.807014,24.277587 14.9290887,24.39487 C15.9675634,20.9761945 16.7703107,17.3279437 16.7881496,17.278036 C16.828924,17.0621853 16.7881496,16.8425916 16.6479873,16.6392178 C16.5307607,16.4620456 16.337082,16.3335333 16.1102741,16.298598 C15.315172,16.1563611 14.5608443,15.9592258 13.8613074,15.703449 C11.7321158,14.9436047 10.3725421,13.1194793 10.3725421,11.0545493 C10.3725421,8.78375026 10.7828352,7.27778626 11.6492926,6.46304352 C12.0124402,6.12741442 12.4622335,5.89783913 12.975737,5.73813458 L13.1120766,5.73813458 L13.1120766,5.70070383 C14.3200202,5.38004704 15.9025791,5.42995471 17.7616399,5.49857776 C18.563113,5.5372562 19.4155542,5.56720081 20.3011247,5.56720081 C21.1854209,5.56720081 22.0391363,5.5372562 22.8495288,5.49857776 C24.72388,5.42995471 26.4020041,5.38004704 27.6787546,5.72316228 L27.6787546,5.73813458 L27.7055129,5.73813458 C28.2699844,5.89783913 28.7580038,6.13739596 29.137716,6.49797889 C30.0118186,7.32395086 30.4323053,8.81369487 30.4323053,11.0545493 C30.4323053,13.1194793 29.0561671,14.9436047 26.9358948,15.703449 L26.9358948,15.703449 Z M28.4776793,26.1915462 C28.3324203,25.8896048 28.1629514,25.6463049 27.9552565,25.4104912 C27.1499608,23.002446 26.4020041,20.1140395 25.9929853,18.4047017 C26.2159706,18.6941662 26.5549084,18.8788246 26.9524594,18.8788246 C27.6354317,18.8788246 28.1718708,18.3435648 28.1718708,17.6660682 C28.1718708,17.4414837 28.1056123,17.2381099 28.0100472,17.0621853 C28.9121822,16.6654194 29.6754293,16.1089488 30.3290949,15.4501675 C30.5278704,19.0185661 30.159626,24.1702855 28.4776793,26.1915462 L28.4776793,26.1915462 Z M27.2722842,30.4948353 C26.5141339,30.7493644 23.9746492,31.5117041 20.5661587,31.5117041 L20.4374643,31.5117041 C16.9015535,31.5329148 14.2945361,30.7493644 13.5312891,30.4848537 C13.4752242,30.1018123 13.4510143,29.6950648 13.4510143,29.2496388 C13.4510143,29.026302 13.4586596,28.8291667 13.467579,28.6320314 L16.0567576,28.9826328 C16.0937094,28.9976051 16.1357581,28.9976051 16.1765326,28.9976051 C16.5868256,28.9976051 16.9474248,28.7056452 17.0136833,28.2914115 C17.0710224,27.8384994 16.7473751,27.4255134 16.2963076,27.3606335 L13.7797585,27.0150228 C13.8995335,26.7679798 14.0218569,26.5633584 14.1836805,26.4236169 C14.8309752,25.8334587 16.1765326,25.9682094 17.7195913,26.1029601 C18.5325322,26.1915462 19.4563287,26.2701508 20.3966898,26.2701508 L20.4056092,26.2701508 C21.3459703,26.2701508 22.2532022,26.1915462 23.0483043,26.1029601 C24.6193955,25.9682094 25.9611302,25.8334587 26.6122475,26.4236169 C26.7727969,26.5633584 26.9014914,26.7679798 27.0072501,27.0150228 L24.5072657,27.3606335 C24.0396335,27.4255134 23.727454,27.8384994 23.7886157,28.2914115 C23.8548742,28.7056452 24.2091024,28.9976051 24.6193955,28.9976051 C24.6588957,28.9976051 24.7085896,28.9976051 24.7378962,28.9826328 L27.3207038,28.6320314 C27.3347201,28.8291667 27.3436395,29.026302 27.3436395,29.2496388 C27.3436395,29.6950648 27.3207038,30.1018123 27.2722842,30.4948353 L27.2722842,30.4948353 Z M20.4056092,35.1487257 C17.1653134,35.1487257 15.1304127,34.3227537 14.1505513,32.5260775 C15.485915,32.8741835 17.6087357,33.2846741 20.2272209,33.2846741 L20.4298191,33.2846741 L20.5661587,33.2846741 C23.1769987,33.2846741 25.303642,32.8741835 26.6377315,32.5260775 C25.6616927,34.3227537 23.6306147,35.1487257 20.4056092,35.1487257 L20.4056092,35.1487257 Z M12.3169745,26.1915462 C10.6388504,24.1702855 10.257864,19.0185661 10.4732041,15.4501675 C11.1026599,16.1089488 11.8824716,16.6616763 12.7922519,17.0621853 C12.6775737,17.2331191 12.622783,17.4414837 12.622783,17.6660682 C12.622783,18.3435648 13.1528511,18.8788246 13.8358234,18.8788246 C14.2384712,18.8788246 14.5748606,18.6941662 14.7927491,18.403454 C14.376085,20.104058 13.6587093,22.9962075 12.8292037,25.4104912 C12.6393476,25.6463049 12.4622335,25.8896048 12.3169745,26.1915462 L12.3169745,26.1915462 Z M8.98111349,8.08129978 L8.01654253,8.08129978 C6.11161044,7.99645674 4.68705253,7.44747235 3.79638528,6.4355943 C3.26249462,5.85167454 2.96433133,5.18291173 2.81397549,4.55157968 C4.66284269,5.80925301 6.76272769,5.75435458 7.0761814,5.73813458 L10.0590884,5.73813458 C9.56597224,6.35823741 9.22193768,7.13180632 8.98111349,8.08129978 L8.98111349,8.08129978 Z M2.32213349,11.0782555 C1.92330824,10.5929034 1.76148458,10.1025605 1.7117907,9.72700526 L7.9999779,9.72700526 C8.1860114,9.74072987 8.36185129,9.74072987 8.5542558,9.74072987 L8.7402893,9.74072987 C8.69696643,10.1661928 8.68167601,10.5929034 8.68167601,11.0545493 C8.68167601,11.8019167 8.81037041,12.5081103 9.06138822,13.1718823 C4.90366688,13.0496085 3.09429994,11.979089 2.32213349,11.0782555 L2.32213349,11.0782555 Z M40.7482452,8.73384259 L40.5940668,8.08129978 L37.6850634,8.08129978 C37.8914842,7.90163216 38.0953565,7.71447839 38.2801158,7.50611386 C40.2245482,5.31641475 39.8295455,2.36687134 39.8155293,2.24958831 L39.4893336,0 L38.2648254,1.92394075 C36.7918478,4.24839057 33.9223447,4.1074014 33.7987471,4.09741987 L27.9629017,4.09741987 C26.4822789,3.73059848 24.72388,3.79423076 22.7921897,3.86035843 C21.9817972,3.88531226 21.1535658,3.92024763 20.3011247,3.92024763 C19.4563287,3.92024763 18.6217263,3.88531226 17.8240758,3.86035843 C15.9242406,3.79423076 14.1976968,3.73059848 12.7349128,4.09741987 L7.04305215,4.09741987 L6.98698726,4.09741987 C6.86593806,4.1074014 4.00408022,4.24839057 2.52345742,1.92394075 L1.30149763,0 L0.980398714,2.24958831 C0.961285683,2.36687134 0.563734638,5.31641475 2.50816699,7.50611386 C2.69165209,7.71447839 2.90316963,7.90163216 3.11213877,8.08129978 L0.192941837,8.08129978 L0.0540538114,8.73384259 C0.0387633866,8.80995179 -0.314190586,10.4818588 1.00460855,12.0764089 C2.37947258,13.7570498 5.01834506,14.6716079 8.82056403,14.8163401 C8.72245047,16.1563611 8.17454358,25.3655743 11.8327777,28.0094332 C11.7869064,28.3874838 11.771616,28.7892406 11.771616,29.2496388 C11.771616,34.2553783 14.6589579,36.7956788 20.3966898,36.7956788 L20.4056092,36.7956788 C26.1229539,36.7956788 29.0255862,34.2553783 29.0255862,29.2496388 C29.0255862,28.7892406 29.0090216,28.3874838 28.9593277,28.0094332 C32.6099166,25.3655743 32.0722033,16.1563611 31.9766382,14.8163401 C35.7801314,14.6716079 38.4088102,13.7570498 39.7887711,12.0764089 C41.1075702,10.4818588 40.753342,8.80995179 40.7482452,8.73384259 L40.7482452,8.73384259 Z" id="Fill-1"></path>
                            <path d="M40.8049583,28.7966182 L31.5218739,28.7966182 C30.9839219,28.7966182 30.5524681,29.2001744 30.5524681,29.6939668 C30.5524681,30.1852526 30.9839219,30.5875556 31.5218739,30.5875556 L39.8218989,30.5875556 L39.8218989,43.8973909 C39.8218989,44.3936898 40.2424299,44.7947395 40.8049583,44.7947395 C41.3224298,44.7947395 41.7511529,44.3936898 41.7511529,43.8973909 L41.7511529,29.6939668 C41.7511529,29.2001744 41.3224298,28.7966182 40.8049583,28.7966182" id="Fill-4"></path>
                            <path d="M62.0782961,2.25641216 C59.6704608,0.345284686 56.3780378,0.322682653 53.9877688,2.17981638 C52.6790809,3.17430584 51.9714107,4.67608537 51.9162024,6.20297828 L49.3502706,8.11661709 C43.8984497,6.70147868 38.8343417,8.25222929 37.7778554,8.61762882 L37.8897945,8.22083757 C37.3979386,8.17814484 36.9700742,8.54354438 36.9223943,9.0332551 C36.8809881,9.53049983 39.5272994,9.95742712 40.0216648,9.99635285 L40.1129926,10.4132348 C42.5560369,10.4132348 40.3840152,10.4031894 40.4919223,10.3667751 C40.5383475,10.3416617 43.688909,8.33887041 49.291298,9.95742712 C49.5648301,10.0377899 49.8471454,9.98002915 50.0792712,9.80423556 L52.2135744,8.20702522 C52.4005298,8.74570701 52.6728072,9.25550842 53.027897,9.71759444 C53.7619166,10.6719025 54.8284409,11.2708564 56.0066365,11.4303263 C56.1998655,11.454184 56.3930946,11.4604623 56.5900879,11.4604623 C57.5737997,11.4604623 58.5261431,11.1440339 59.315371,10.5174553 C60.1146368,9.90845605 60.6152758,9.0131644 60.7532966,8.01867494 C60.8825343,7.01665147 60.6077474,6.03095169 59.995437,5.23109085 C59.6855177,4.85187896 59.1221419,4.77653885 58.7419574,5.08041063 C58.3379329,5.3767484 58.2739415,5.94807757 58.573823,6.33607914 C58.8975445,6.74668274 59.0418389,7.25773983 58.9740833,7.79391028 C58.913856,8.31752405 58.6390692,8.79216675 58.2275163,9.11236221 C57.6541027,9.54933486 56.943923,9.74019647 56.2337434,9.64978834 C55.5147806,9.56816988 54.8786302,9.20025901 54.4507658,8.63269684 C53.2299093,7.0593442 53.5134792,4.79160688 55.0806425,3.58616511 C56.8109212,2.23381012 59.2287943,2.25641216 60.9465257,3.63764752 C60.9465257,3.64267019 63.6149275,5.82251072 68.9517311,10.1771691 C69.3068209,10.4320698 69.9479902,11.0825061 69.2478484,12.1448017 C68.8237482,12.7676132 68.0972569,13.1945405 67.5087865,13.1731942 C67.1072715,13.1631488 66.944156,12.9584749 66.8550699,12.802772 C66.7007376,12.5353146 66.4046203,12.3695663 66.0871725,12.3695663 L62.7784379,12.344453 C62.3806871,12.3331519 61.5789118,12.162381 61.5048825,11.8559979 C61.3819185,11.3725655 60.8975911,11.0825061 60.4132636,11.1992833 C59.9439929,11.3198275 59.655404,11.8007485 59.7683301,12.2929705 C59.7846417,12.3331519 59.8109911,12.400958 59.834831,12.4449064 L52.310189,23.0553053 C52.2461975,23.1482248 52.1960081,23.268769 52.1608756,23.3817791 C52.1244883,23.5688738 51.1156818,28.0616557 47.5396889,28.0616557 L44.6475261,28.0616557 L44.6475261,24.2494461 C44.6475261,23.7446673 44.25103,23.3503874 43.7667026,23.3503874 C43.2660636,23.3503874 42.8733317,23.7446673 42.8733317,24.2494461 L42.8733317,43.0957747 C42.8733317,43.5930195 43.2660636,43.9948334 43.7667026,43.9948334 C44.25103,43.9948334 44.6475261,43.5930195 44.6475261,43.0957747 L44.6475261,41.1206082 L44.6324693,35.5843657 L44.6475261,29.8572616 L47.5396889,29.8572616 C51.4368938,29.8572616 53.349109,26.0890005 53.8685691,23.9455743 L56.1095247,20.787568 L57.548705,18.742084 L61.082037,13.7633584 C61.8173114,14.1049002 62.6040298,14.1325249 62.7483243,14.1325249 L65.6367228,14.1475929 C66.0972103,14.6385593 66.7195586,14.9411754 67.4447951,14.9537321 C67.4786729,14.9537321 67.5087865,14.9587548 67.5514475,14.9587548 C68.7509736,14.9587548 69.9793585,14.2543248 70.723416,13.1443138 C72.0208114,11.2093286 71.0458827,9.48027309 70.0596615,8.76956471 L62.0782961,2.25641216 Z" id="Fill-6"></path>
                            <path d="M50.4871071,36.7956788 C50.0190834,36.7956788 49.6424706,37.1649822 49.6193132,37.6372885 C48.4870372,37.651106 46.0896348,37.6636674 43.3509651,37.651106 L43.3509651,39.4448652 L44.1261293,39.4448652 C46.5271881,39.4448652 48.5881986,39.4348161 49.6193132,39.4348161 L49.6193132,43.8953476 C49.6193132,44.3927766 50.00202,44.7947395 50.4871071,44.7947395 C50.9661,44.7947395 51.3500257,44.3927766 51.3500257,43.8953476 L51.3500257,37.6850216 C51.3500257,37.1951294 50.9661,36.7956788 50.4871071,36.7956788" id="Fill-9"></path>
                            <path d="M73.2428012,30.8301219 C73.0616884,30.7499015 72.8666439,30.7398739 72.6690663,30.7724635 C72.6386697,30.77121 72.6044736,30.7561687 72.5664779,30.7561687 C70.298135,30.6233037 68.8580982,28.4824216 68.8492325,28.4623665 C68.7770407,28.35081 68.6693862,28.2568017 68.5465335,28.1853555 L65.9007667,26.6022559 L67.7752209,24.5090047 C67.9791311,24.2883986 68.0487899,23.9813049 67.9677324,23.6892525 C67.8904745,23.399707 67.6751656,23.1640595 67.3825988,23.0725581 C64.8419534,22.2352577 62.4760882,22.8995829 61.0905119,23.5087566 L59.7897926,22.7291145 C58.359888,21.8654917 56.7146745,21.2400233 55.2417081,20.7975576 L53.8561318,22.2703541 C55.4316866,22.6839905 57.2947421,23.3056987 58.8525655,24.2520488 L59.4478314,24.614294 C59.3401769,24.8699966 59.3629743,25.1821041 59.533955,25.4415669 C59.8201892,25.8476827 60.3736598,25.952972 60.7840133,25.6797213 C60.8144098,25.6521455 62.875043,24.2883986 65.3865583,24.4739083 L63.8287349,26.2149418 C63.6476221,26.4142393 63.5690976,26.6799694 63.6083599,26.946953 C63.6476221,27.2076693 63.8148031,27.4420633 64.0339116,27.5724214 L67.4725219,29.6192952 C67.8790758,30.1833449 69.31278,31.8955491 71.530462,32.3981801 C71.3024878,32.9208662 71.1239081,33.414723 70.9592601,33.8672163 C70.5691709,34.8950402 70.2018792,35.8789936 69.8193892,36.0319137 C69.6471421,36.0883187 69.2228569,36.1058669 68.1551779,35.5618723 C67.7232935,35.3312386 67.1799551,35.5042139 66.9494478,35.9353986 C66.8582582,36.0983463 66.8367273,36.2700681 66.8557251,36.4267485 C65.5904685,37.0459498 62.0948647,38.3395038 55.5596054,37.9609638 L55.5596054,37.9371483 C57.2301494,36.9469277 57.4733218,34.4061971 57.4986523,34.0740345 C57.5315819,33.5789242 57.1617572,33.1627808 56.660214,33.1214172 C56.1637369,33.0950949 55.7318526,33.4585936 55.6976564,33.9486901 C55.6558612,34.419985 55.3404969,36.2449992 54.4172016,36.5019552 C54.0207798,36.6197789 53.7497439,36.9657294 53.7497439,37.3630711 L53.7978717,43.9060478 C53.7978717,44.3961443 54.2082252,44.7947395 54.7034358,44.7947395 C55.210045,44.7897257 55.6077333,44.3936374 55.6077333,43.8910065 L55.5836693,39.752135 C56.3511824,39.8022727 57.1047636,39.8185675 57.8178161,39.8185675 C64.8723499,39.8185675 68.0335916,37.854421 68.3983503,37.6087461 C68.8492325,37.7579059 69.2469208,37.8406332 69.6167455,37.8406332 C69.9067793,37.8406332 70.1942801,37.7967626 70.4463182,37.7002475 C71.6115195,37.2540215 72.0776,36.0319137 72.6475354,34.4801503 C72.9261705,33.7544063 73.2314025,32.9208662 73.6582208,32.0271607 C73.8760628,31.5809347 73.6784852,31.0519815 73.2428012,30.8301219" id="Fill-12"></path>
                        </g>
                    </g>
                </g>
            </g>
        </g>
    </g>
</svg>