<?xml version="1.0" encoding="utf-8"?>
<!-- Generator: Adobe Illustrator 23.1.1, SVG Export Plug-In . SVG Version: 6.00 Build 0)  -->
<svg version="1.1" id="Calque_1" xmlns="http://www.w3.org/2000/svg" xmlns:xlink="http://www.w3.org/1999/xlink" x="0px" y="0px"
	 viewBox="0 0 88 88" style="enable-background:new 0 0 88 88;" xml:space="preserve">
<style type="text/css">
	.st0{fill:#E30059;}
	.st1{fill:#FFFFFF;}
</style>
<title>Group 10</title>
<desc>Created with Sketch.</desc>
<g>
	<rect class="st0" width="88" height="88"/>
	<path class="st1" d="M67.2,51.5c0-1.9-0.6-3.8-1.7-5.4c-0.2-0.3-0.6-0.5-1-0.5H51.6c-0.4,0-0.8,0.2-1,0.5c-1.1,1.6-1.7,3.4-1.7,5.4
		c0,4.6,3.5,8.5,7.9,9.1v8.8h-3.6c-0.7,0-1.2,0.5-1.2,1.2s0.5,1.2,1.2,1.2h9.7c0.7,0,1.2-0.6,1.2-1.2c0-0.7-0.6-1.2-1.2-1.2h-3.6
		v-8.8C63.7,59.9,67.2,56.1,67.2,51.5 M51.8,51.5c0-1.2,0.3-2.4,0.9-3.4h11.5c0.6,1,0.9,2.2,0.9,3.4c0,3.7-3,6.7-6.7,6.7
		C54.8,58.2,51.8,55.2,51.8,51.5"/>
	<path class="st1" d="M28.9,58.5c-1.2,0-2.2,1-2.2,2.2s1,2.2,2.2,2.2s2.2-1,2.2-2.2S30.1,58.5,28.9,58.5"/>
	<path class="st1" d="M34.2,62.7c-1,0-1.7,0.8-1.7,1.7c0,1,0.8,1.7,1.7,1.7c1,0,1.7-0.8,1.7-1.7C36,63.4,35.2,62.7,34.2,62.7"/>
	<path class="st1" d="M53.1,69.6l-5.8-3.7l0,0V44.7c0-5.1-1.4-7.6-2.4-9.3l-0.1-0.1c-1.1-2-1.9-3.7-2-4.4c-0.1-0.5-0.2-3.9-0.2-8.3
		c0.4-0.2,0.6-0.6,0.6-1.1v-4c0-0.7-0.6-1.2-1.2-1.2h-7.7c-0.7,0-1.2,0.5-1.2,1.2v4c0,0.5,0.3,0.9,0.8,1.1c0,5.1,0,7.8-0.1,8.3
		c-0.1,0.3-0.4,1.4-2,4.4l-0.1,0.1c-0.8,1.4-1.8,3.2-2.2,6.3l-0.2,2.5c0,0.2,0,10.2,0,10.2l-1.5-1c-0.5-0.3-1.1-0.2-1.6,0.2
		c-2.1,2.2-3.7,4.8-4.6,7.7L21,63.7c-0.5,2.5-0.4,5.1,0.3,7.5c0.1,0.5,0.6,0.9,1.2,0.9h29.9c0.6,0,1-0.4,1.2-0.9
		C53.8,70.5,53.6,69.9,53.1,69.6 M31.8,44.7c0-4.5,1.1-6.5,2-8.1l0.1-0.1c1.4-2.5,2.1-4.2,2.3-5.2s0.2-5.9,0.1-9.8
		c0-0.5-0.3-0.9-0.7-1.1v-1.7h5.2v1.7c-0.1,0-0.2,0.1-0.3,0.2c-0.2,0.2-0.4,0.6-0.4,0.9c0,2.6,0.1,8.8,0.2,9.8
		c0.2,1.4,1.5,3.8,2.3,5.2l0.1,0.1c0.9,1.6,2,3.7,2,8.2v19.6l-13.1-8.5V44.7H31.8z M29,69.4c0.4-0.4,0.6-0.9,0.6-1.5
		c0-1.2-1-2.2-2.2-2.2s-2.2,1-2.2,2.2c0,0.6,0.2,1.1,0.6,1.5h-2.3c-0.9-4.5,0.6-9.8,3.8-13.5L41.4,65c-0.8,0.2-1.3,0.9-1.3,1.7
		c0,1,0.8,1.7,1.7,1.7c1,0,1.7-0.8,1.7-1.7c0-0.1,0-0.2,0-0.3l4.8,3.1L29,69.4L29,69.4z"/>
	<path class="st1" d="M67.2,51.5c0-1.9-0.6-3.8-1.7-5.4c-0.2-0.3-0.6-0.5-1-0.5H51.6c-0.4,0-0.8,0.2-1,0.5c-1.1,1.6-1.7,3.4-1.7,5.4
		c0,4.6,3.5,8.5,7.9,9.1v8.8h-3.6c-0.7,0-1.2,0.5-1.2,1.2s0.5,1.2,1.2,1.2h9.7c0.7,0,1.2-0.6,1.2-1.2c0-0.7-0.6-1.2-1.2-1.2h-3.6
		v-8.8C63.7,59.9,67.2,56.1,67.2,51.5 M51.8,51.5c0-1.2,0.3-2.4,0.9-3.4h11.5c0.6,1,0.9,2.2,0.9,3.4c0,3.7-3,6.7-6.7,6.7
		C54.8,58.2,51.8,55.2,51.8,51.5"/>
	<path class="st1" d="M28.9,58.5c-1.2,0-2.2,1-2.2,2.2s1,2.2,2.2,2.2s2.2-1,2.2-2.2S30.1,58.5,28.9,58.5"/>
	<path class="st1" d="M34.2,62.7c-1,0-1.7,0.8-1.7,1.7c0,1,0.8,1.7,1.7,1.7c1,0,1.7-0.8,1.7-1.7C36,63.4,35.2,62.7,34.2,62.7"/>
	<path class="st1" d="M53.1,69.6l-5.8-3.7l0,0V44.7c0-5.1-1.4-7.6-2.4-9.3l-0.1-0.1c-1.1-2-1.9-3.7-2-4.4c-0.1-0.5-0.2-3.9-0.2-8.3
		c0.4-0.2,0.6-0.6,0.6-1.1v-4c0-0.7-0.6-1.2-1.2-1.2h-7.7c-0.7,0-1.2,0.5-1.2,1.2v4c0,0.5,0.3,0.9,0.8,1.1c0,5.1,0,7.8-0.1,8.3
		c-0.1,0.3-0.4,1.4-2,4.4l-0.1,0.1c-0.8,1.4-1.8,3.2-2.2,6.3l-0.2,2.5c0,0.2,0,10.2,0,10.2l-1.5-1c-0.5-0.3-1.1-0.2-1.6,0.2
		c-2.1,2.2-3.7,4.8-4.6,7.7L21,63.7c-0.5,2.5-0.4,5.1,0.3,7.5c0.1,0.5,0.6,0.9,1.2,0.9h29.9c0.6,0,1-0.4,1.2-0.9
		C53.8,70.5,53.6,69.9,53.1,69.6 M31.8,44.7c0-4.5,1.1-6.5,2-8.1l0.1-0.1c1.4-2.5,2.1-4.2,2.3-5.2s0.2-5.9,0.1-9.8
		c0-0.5-0.3-0.9-0.7-1.1v-1.7h5.2v1.7c-0.1,0-0.2,0.1-0.3,0.2c-0.2,0.2-0.4,0.6-0.4,0.9c0,2.6,0.1,8.8,0.2,9.8
		c0.2,1.4,1.5,3.8,2.3,5.2l0.1,0.1c0.9,1.6,2,3.7,2,8.2v19.6l-13.1-8.5V44.7H31.8z M29,69.4c0.4-0.4,0.6-0.9,0.6-1.5
		c0-1.2-1-2.2-2.2-2.2s-2.2,1-2.2,2.2c0,0.6,0.2,1.1,0.6,1.5h-2.3c-0.9-4.5,0.6-9.8,3.8-13.5L41.4,65c-0.8,0.2-1.3,0.9-1.3,1.7
		c0,1,0.8,1.7,1.7,1.7c1,0,1.7-0.8,1.7-1.7c0-0.1,0-0.2,0-0.3l4.8,3.1L29,69.4L29,69.4z"/>
</g>
</svg>
