<?xml version="1.0" encoding="UTF-8"?>
<svg width="88px" height="88px" viewBox="0 0 88 88" version="1.1" xmlns="http://www.w3.org/2000/svg" xmlns:xlink="http://www.w3.org/1999/xlink">
    <!-- Generator: Sketch 47.1 (45422) - http://www.bohemiancoding.com/sketch -->
    <title>Group 10</title>
    <desc>Created with Sketch.</desc>
    <defs>
        <polygon id="path-1" points="28.5020886 0.717528089 28.5020886 50.0916591 0.684911803 50.0916591 0.684911803 0.717528089 28.5020886 0.717528089"></polygon>
    </defs>
    <g id="Desktop" stroke="none" stroke-width="1" fill="none" fill-rule="evenodd">
        <g id="Accueil" transform="translate(-731.000000, -1135.000000)">
            <g id="Produits-des-regions" transform="translate(731.000000, 1135.000000)">
                <g id="Group-26">
                    <g id="Group-10">
                        <rect id="Rectangle-20-Copy-3" fill="#F6A723" x="0" y="0" width="88" height="88"></rect>
                        <g id="icon-produits" transform="translate(13.000000, 13.000000)">
                            <g id="Page-1" transform="translate(0.802253, 0.739155)">
                                <g id="Group-3" transform="translate(0.000000, 0.442247)" fill="#FEFEFE">
                                    <path d="M8.05336186,47.1587109 C8.14418304,46.930532 8.23575481,46.7106097 8.31907011,46.4884355 C9.2355384,44.0497742 10.5423126,41.8467976 12.2656633,39.8892634 C13.3555174,38.6515433 13.7165504,38.593748 15.0766164,39.4764398 C15.354334,39.656581 15.638807,39.8247128 15.9893317,40.0408822 L15.9893317,29.5048746 C13.6084657,29.5048746 11.3004067,29.529644 8.99384897,29.4883616 C8.37986776,29.4778534 8.19672422,29.7285499 8.04285362,30.256964 C7.11812887,33.4161901 6.15362293,36.5641573 5.21088405,39.7181293 C4.47605813,42.1748047 3.7547428,44.6359837 3.00865805,47.1587109 L8.05336186,47.1587109 Z M35.5474105,55.9668643 C35.5669257,55.9150737 35.586441,55.8625325 35.6059563,55.8099913 C34.0927704,54.8364783 32.5810856,53.8622148 31.0213631,52.8571771 C30.8149514,54.1564454 30.3060525,54.7599183 29.4000925,54.8927725 C28.5939607,55.0106148 27.793083,54.6067983 27.5033559,53.8464524 C27.3705018,53.4996806 27.2594147,53.0298124 27.3900171,52.7228218 C27.6189465,52.1838994 28.0415277,51.7267911 28.4250783,51.1751087 C23.6768568,48.1142097 18.8490731,45.0030213 13.9529857,41.8475482 C10.6624067,46.050092 9.08692192,50.6339346 9.9395902,55.9203278 L12.1688374,55.9203278 C11.4858021,54.4176501 11.5818774,53.4441371 12.4540609,52.6687794 C13.228668,51.98049 14.3868257,51.8056029 15.1892046,52.4406006 C15.6695811,52.8203982 16.1296917,53.4291253 16.2490353,54.0078289 C16.3743835,54.612803 16.0809035,55.3048454 15.9690658,55.9668643 L35.5474105,55.9668643 Z M22.6110215,2.90552722 C22.6710686,3.55103314 22.5164474,4.30162142 22.8166827,4.6161179 C23.4314145,5.25787088 23.4186545,5.9416568 23.4209062,6.68699096 C23.4239086,8.0673228 23.3503509,9.45365935 23.452431,10.8272359 C23.7496639,14.815862 22.9052521,18.4712269 20.6827602,21.8421189 C19.248386,24.0188249 18.7072119,26.519785 18.6899483,29.1145687 C18.6651789,33.0761736 18.6929507,37.0377785 18.657673,40.9986329 C18.6516683,41.6223717 18.8693389,41.9593859 19.3737343,42.2813882 C23.4156521,44.8619107 27.4403065,47.470205 31.4717161,50.0664898 C31.7126549,50.2218616 31.967855,50.3554663 32.2861044,50.5393605 C32.3168785,50.3246922 32.346902,50.2151063 32.346902,50.1055204 C32.3446503,43.2338848 32.3649162,36.3607479 32.3236338,29.4891122 C32.308622,26.9453686 31.7907161,24.4924461 30.5522455,22.2286718 C29.9052384,21.0464953 29.2101936,19.8815823 28.6847818,18.646114 C28.2351795,17.5870339 27.7720665,16.4513939 27.7067653,15.326262 C27.5258735,12.214323 27.5461394,9.09037462 27.4996029,5.97017916 C27.49585,5.70972502 27.4988524,5.36070148 27.652723,5.20082617 C28.3184948,4.5072826 28.0873136,3.7266708 28.0302689,2.90552722 L22.6110215,2.90552722 Z M7.37332888,49.803784 C5.44356642,49.803784 3.64740867,49.8082875 1.85125093,49.8022828 C0.14216142,49.7977792 -0.30218684,49.1920545 0.186446128,47.5542709 C2.09444153,41.1615105 4.00243693,34.7679996 5.91043233,28.3744886 C6.28272411,27.1270109 6.50264648,26.9618815 7.81917832,26.9611309 C10.3696773,26.9588791 12.9209268,26.9453686 15.4721764,26.9708886 C16.0561341,26.9776439 16.29332,26.838785 16.3818894,26.2022862 C16.7008894,23.9137425 17.6631436,21.8518765 18.7950307,19.862067 C19.1357978,19.2630975 19.4315296,18.6401093 19.7670425,18.0388881 C20.5454026,16.644295 20.8996802,15.1663867 20.8561461,13.5586266 C20.8021037,11.6093489 20.8501414,9.65781936 20.850892,7.70628984 C20.850892,7.4976263 20.9169438,7.18312981 20.8081085,7.09531098 C19.6807249,6.18184505 20.2001319,4.92911322 20.1115625,3.81448962 C20.0530166,3.06915547 20.0845414,2.31406366 20.1138143,1.56422597 C20.1438378,0.782863573 20.5859343,0.328757665 21.3642944,0.323503547 C24.035638,0.303237664 26.7069817,0.303988252 29.3783254,0.322752959 C30.2107278,0.328007077 30.7038643,0.819642399 30.7278831,1.68957421 C30.7661631,3.03913193 30.7421443,4.39019083 30.7323867,5.74049914 C30.7308855,5.91463562 30.7113702,6.14431564 30.6040361,6.25240035 C29.7956525,7.06753922 30.0493513,8.08608751 30.0628619,9.04233697 C30.0906337,11.0524124 30.1379207,13.063989 30.2422525,15.071062 C30.2730266,15.6527679 30.4456619,16.2592433 30.6896031,16.7921609 C31.2743114,18.0711634 31.8830385,19.3456623 32.5855891,20.5623659 C34.1873445,23.3372907 34.8891445,26.3358909 34.8989022,29.5048746 C34.9199187,36.7675668 34.9169163,44.0310095 34.8928975,51.2944523 C34.8906457,51.9947511 35.0722881,52.4255888 35.6930246,52.8016335 C37.3833494,53.8276877 39.0233848,54.9363066 40.6881896,56.0051443 C41.2864084,56.3894455 41.7322579,56.8495561 41.4935708,57.626415 C41.2601378,58.3905138 40.6656719,58.5466362 39.9376013,58.5458856 C29.7326031,58.5353774 19.5283554,58.5398809 9.32410781,58.5376291 C8.1659501,58.5368786 7.85070303,58.2921868 7.57373595,57.1640526 C7.05883239,55.0706619 7.01679945,52.9517512 7.26899711,50.8193299 C7.30352417,50.5266005 7.32979476,50.2331204 7.37332888,49.803784 L7.37332888,49.803784 Z" id="Fill-1"></path>
                                </g>
                                <g id="Group-6" transform="translate(32.275296, 7.197541)">
                                    <mask id="mask-2" fill="white">
                                        <use xlink:href="#path-1"></use>
                                    </mask>
                                    <g id="Clip-5"></g>
                                    <path d="M13.4283996,33.7396936 C13.7158749,32.8877759 14.0393784,32.1431924 14.2142655,31.3648323 C14.4702161,30.2254393 15.2530797,29.1806204 14.8642749,27.9128768 C14.8335008,27.8107968 15.0451667,27.6561757 15.0721879,27.5120627 C15.1900303,26.8973309 15.370922,26.2690885 15.319882,25.6641144 C15.3063714,25.5034885 14.5565338,25.3541214 14.1317008,25.2925732 C13.6926066,25.2287732 13.2287431,25.2317755 12.7896489,25.2970767 C12.5389525,25.3346061 12.2222042,25.4967332 12.0946042,25.7016438 C10.6332088,28.0502345 11.2411853,31.8046771 13.4283996,33.7396936 M14.4837267,34.626889 C16.9268915,36.4050326 20.5379717,36.203875 22.9083295,34.1172395 C25.3297273,31.9848183 26.066805,28.4465451 24.5949014,25.7842085 C24.4537908,25.5290085 24.0086919,25.3083355 23.6994496,25.3008296 C21.8695153,25.2557943 20.0350776,25.3263496 18.2066445,25.2557943 C17.4147739,25.2257708 17.1753363,25.5635355 17.0334751,26.2360626 C16.7835292,27.4242439 16.769268,28.6627145 16.2100797,29.7900981 C16.054708,30.1030934 16.2160844,30.5609523 16.1049974,30.911477 C15.7754891,31.952543 15.3986938,32.9785971 15.0038844,33.9971454 C14.9153149,34.2245737 14.6796302,34.3957078 14.4837267,34.626889 M9.78129113,4.54556261 C8.83630049,4.82703321 7.9648675,5.08673675 7.09343451,5.3464403 C7.0491498,5.24736265 7.0048651,5.14903558 6.96133098,5.04995793 C7.11445098,4.85855792 7.26757099,4.6679085 7.33812629,4.58084026 C6.03585563,4.87507086 4.62700143,5.19407088 3.21814724,5.5130709 C7.17374746,2.71037427 11.2396842,2.61129662 13.9185337,5.55435325 C14.362882,4.02840728 15.1367385,2.74715309 16.4577739,1.87271775 C17.7615457,1.00879064 19.2079293,0.592214151 20.8434612,0.750588277 C19.9247411,1.2482283 19.0060211,1.74511774 18.1315857,2.21873895 C18.138341,2.22474365 18.3117269,2.35534601 18.6667552,2.62555779 C18.0370116,2.86724722 17.564141,3.04888958 17.101028,3.226779 C17.8733833,3.86778139 17.8733833,3.86778139 15.8715644,5.08148264 C16.2476091,5.04845675 16.6311597,5.04920734 16.9981974,4.97564969 C17.6767292,4.83829203 18.346254,4.52304496 19.0187811,4.52604731 C20.1506682,4.52980025 21.3756282,4.48701672 22.3926754,4.88933204 C24.4297719,5.69696502 26.5021462,6.54738154 28.0175839,8.26697928 C28.2112357,8.48615106 28.3943792,8.7143299 28.5024639,9.09412757 C27.6302804,8.84793461 26.7295744,8.67304754 25.8949203,8.33528282 C25.1015485,8.01403103 24.3772308,7.52164512 23.5358213,7.0555298 C23.8022801,7.46985453 24.0131955,7.7986122 24.2248613,8.12736986 L24.0357131,8.40959106 C23.1710354,7.98625927 22.3078589,7.56367807 21.3673718,7.10281687 C21.6413365,7.52164512 21.8747695,7.87667338 22.1314706,8.26848046 C21.4003977,8.65428284 20.825447,8.76612049 20.1866964,8.19492281 C19.6680399,7.73105925 19.0195316,7.41130865 18.359014,7.11107334 C20.8832423,9.64580995 23.5771037,12.0199207 25.0467555,15.4388503 C23.120746,15.555942 22.2185389,15.6632762 21.2029929,12.2038148 C21.0956588,12.8373113 21.0251035,13.2568902 20.94404,13.7350149 C20.3007858,13.5691349 19.8444282,13.3131843 19.711574,12.5610948 C19.558454,11.6904124 19.268727,10.8437488 18.869414,10.0083441 L18.869414,12.0642054 L18.5579199,12.1895536 C18.3762775,11.8247677 18.1593575,11.4727418 18.023501,11.0921936 C17.8801386,10.6906288 17.8140869,10.2620429 17.5558845,9.85297231 C17.4785739,10.2177582 17.4020139,10.5810429 17.3254539,10.9458288 L17.1235457,11.0389018 C16.8503315,10.4737088 16.5771174,9.90851585 16.2280938,9.18644992 C16.1733009,9.62028995 16.140275,9.87624055 16.105748,10.1494547 C15.6801644,9.98957938 15.2695926,9.83570878 14.7141573,9.62704524 C14.8154867,10.37313 14.4424443,11.0839371 15.3919385,11.270083 C15.4309691,11.2775889 15.4917667,11.3691606 15.4820091,11.40669 C15.166762,12.6684289 16.0944891,13.6194243 16.3241691,14.7460573 C16.4330044,15.2767232 16.7872821,15.7593515 16.8788539,16.2900174 C16.9906915,16.9392762 16.9141315,17.6185586 16.9779315,18.2790763 C17.0072045,18.5905704 17.1730845,18.8893046 17.4823269,19.1557634 L17.4823269,22.7345683 C19.983287,22.7345683 22.2883436,22.7751001 24.5903978,22.715053 C25.5008614,22.6910342 26.028525,23.0550695 26.4803791,23.7883943 C30.008144,29.5191358 26.8158921,36.8366209 20.1626776,38.2319645 C20.0178141,38.261988 19.8714493,38.2867574 19.6627858,38.3250374 L19.6627858,47.4844662 C20.7076047,47.4844662 21.7193977,47.4747085 22.7319413,47.4882191 C23.0892213,47.4934732 23.5425766,47.4289226 23.7790119,47.6150685 C24.1595602,47.9145533 24.6061602,48.3844215 24.630179,48.804751 C24.6519461,49.1755416 24.1768237,49.6206404 23.8383084,49.9478969 C23.6799343,50.1002663 23.3264072,50.0852546 23.0614495,50.0860051 C19.9089788,50.0942616 16.7572586,50.0912593 13.6047878,50.0905087 C13.4854443,50.0905087 13.363849,50.0912593 13.245256,50.0724946 C12.5059266,49.956904 12.003783,49.570351 12.0082866,48.7807321 C12.0127901,47.9926144 12.5036748,47.5460144 13.2565149,47.5159909 C14.4799737,47.4679532 15.706435,47.5032309 16.9846868,47.5032309 L16.9846868,38.3362963 C13.5469925,37.6960445 10.9867359,35.8818726 9.56887465,32.6896206 C8.1952981,29.593444 8.50529106,26.5603168 10.25191,23.6615448 C10.6467194,23.0062813 11.1518653,22.6797754 11.9422348,22.7233095 C12.8399384,22.7735989 13.7489008,22.6670154 14.6405996,22.7555848 C15.400195,22.8321448 15.7769903,22.2106577 15.7206962,21.8541283 C15.4827597,20.3619588 15.8655597,18.8547775 15.3739244,17.3445939 C15.0871997,16.4634033 14.5490279,15.5003985 14.5813032,14.7032738 C14.6255879,13.5818949 14.052889,12.9138713 13.8667431,12.0619536 L13.7406443,10.5427629 C13.6633337,10.5412618 13.5860231,10.5405112 13.5087125,10.53901 C13.4283996,11.1177136 13.3480866,11.6964171 13.2677737,12.2751207 C13.1904631,12.2923842 13.1131525,12.3096477 13.0358419,12.3269113 C12.8429407,11.9621254 12.6507901,11.5980901 12.4443783,11.2070336 C11.9662536,12.1152454 13.0523548,13.1720737 12.0240489,14.0735302 C11.7575901,13.3964996 11.5219053,12.7967795 11.2862206,12.1963089 C11.2134136,12.2083183 11.1413571,12.2203277 11.0677994,12.2315866 C11.1863924,12.958156 11.2306771,13.7064925 11.442343,14.403789 C11.6922889,15.2309373 11.4400912,15.7811185 10.6887524,16.3072809 C10.44331,15.9229797 10.2128794,15.559695 9.92540408,15.1070903 C9.55761583,16.1766785 10.7855782,17.2395115 9.79480172,18.3000928 C9.53734994,17.9458151 9.3031664,17.6238127 9.06898286,17.302561 C9.90889114,19.079954 9.06748168,20.7927965 8.88208638,22.7766013 C8.09622045,21.0427423 7.4657263,19.4942787 7.39742277,17.7896928 C7.35538982,16.7328645 7.44771218,15.670782 7.48374042,14.6109514 C7.48749336,14.4908573 7.47773571,14.3504973 7.53553101,14.2574243 C8.26059928,13.0917607 8.24483693,11.6025936 9.26263463,10.5352571 C9.64768642,10.13069 9.69122054,9.39961699 9.89087702,8.81716049 C9.7895476,8.76987343 9.68896878,8.72183578 9.58763936,8.67379813 C9.31067228,9.27051581 8.94213344,9.84246408 8.77775461,10.4684547 C8.56458754,11.2805912 8.10672869,11.6844077 7.18350511,11.8127583 C7.21277805,11.3961818 7.23829805,11.0328971 7.26381805,10.6688618 L7.13171451,10.6110665 C6.95532627,11.0036241 6.81646744,11.4202006 6.59204154,11.7834854 C6.35710741,12.1617819 6.03960857,12.4890383 5.75813797,12.8380619 C5.68833326,12.7975301 5.61927914,12.7562478 5.54947443,12.715716 C5.5832509,12.3216572 5.61702737,11.9275983 5.65080384,11.5342901 C5.57124149,11.4885042 5.49092854,11.4427183 5.41136618,11.397683 C5.19970029,13.3056784 3.89592845,14.4705914 2.72350956,15.7743632 C3.16635665,11.6446265 5.91651209,9.38085229 9.2198511,7.50062865 C8.27185811,7.47360748 7.34938512,8.438864 6.41715448,7.439831 C6.45843683,7.33700041 6.52899213,7.16061216 6.60555213,6.96996274 C5.85121091,6.79057214 4.97677557,8.14088045 4.44911201,6.9339345 C3.20688841,7.0172498 1.98868364,7.09831334 0.770478866,7.18012746 C0.741956512,7.13133922 0.713434157,7.08180039 0.684911803,7.03301216 C1.13226242,6.76355097 1.55259185,6.42353448 2.03221776,6.23663799 C3.60770255,5.6219062 5.18093558,5.28564265 6.93205803,5.67219561 C7.90482044,5.88686386 9.07798992,5.7239862 9.78129113,4.54556261" id="Fill-4" fill="#FEFEFE" mask="url(#mask-2)"></path>
                                </g>
                                <path d="M15.587842,49.648187 C14.2870726,49.6399305 13.2572654,48.5883564 13.287289,47.2988457 C13.3165619,46.0438621 14.3366114,45.0628432 15.6088585,45.0658456 C16.9118798,45.0680973 17.9589504,46.1301797 17.9191692,47.4091822 C17.8816398,48.661914 16.845828,49.6564435 15.587842,49.648187" id="Fill-7" fill="#FEFEFE"></path>
                                <path d="M21.1380671,49.3865319 C22.1656224,49.3820284 22.983013,50.1874096 22.9687519,51.1909461 C22.9544907,52.1471956 22.1491095,52.9690898 21.1996153,52.9968615 C20.1990811,53.0261345 19.3569211,52.2170003 19.3381564,51.2097109 C19.3178905,50.186659 20.1037564,49.391786 21.1380671,49.3865319" id="Fill-9" fill="#FEFEFE"></path>
                            </g>
                        </g>
                    </g>
                </g>
            </g>
        </g>
    </g>
</svg>