<?xml version="1.0" encoding="utf-8"?>
<!-- Generator: Adobe Illustrator 23.1.1, SVG Export Plug-In . SVG Version: 6.00 Build 0)  -->
<svg version="1.1" id="Calque_1" xmlns="http://www.w3.org/2000/svg" xmlns:xlink="http://www.w3.org/1999/xlink" x="0px" y="0px"
	 viewBox="0 0 88 88" style="enable-background:new 0 0 88 88;" xml:space="preserve">
<style type="text/css">
	.st0{fill:#83B81A;}
	.st1{fill:#FFFFFF;}
</style>
<title>Group 11</title>
<desc>Created with Sketch.</desc>
<g>
	<rect class="st0" width="88" height="88"/>
	<path class="st1" d="M77.5,60.6c0-0.5-0.4-0.8-0.8-0.8c-0.5,0-0.8,0.4-0.8,0.8c0,0.5,0.4,0.8,0.8,0.8C77.1,61.4,77.5,61,77.5,60.6"
		/>
	<path class="st1" d="M70.5,39.8c0-0.5-0.4-0.8-0.8-0.8c-0.5,0-0.8,0.4-0.8,0.8c0,0.5,0.4,0.8,0.8,0.8S70.5,40.2,70.5,39.8"/>
	<path class="st1" d="M45.7,58.5h-5.4c-0.5,0-0.9,0.4-0.9,0.9s0.4,0.9,0.9,0.9h4.6v12.9c0,0.5,0.4,0.9,0.9,0.9s0.9-0.4,0.9-0.9V59.3
		C46.6,58.9,46.2,58.5,45.7,58.5"/>
	<path class="st1" d="M83.6,60.4c-0.2-0.1-0.4-0.1-0.5-0.1H83c-2.2-0.1-3.6-2.2-3.6-2.2c-0.1-0.1-0.2-0.2-0.3-0.3l-2.5-1.5l1.8-2
		c0.2-0.2,0.3-0.5,0.2-0.8c-0.1-0.3-0.3-0.5-0.6-0.6c-2.4-0.8-4.7-0.2-6,0.4l-1.3-0.8C68,51,64.6,50.2,63.1,50l3.7-5.2
		c0.7,0.3,1.5,0.4,1.6,0.4h2.8c0.4,0.5,1.1,0.8,1.7,0.8H73c1.2,0,2.4-0.7,3.1-1.8c1.3-1.9,0.3-3.5-0.6-4.2l-7.7-6.3c0,0,0,0-0.1,0
		c-2.3-1.8-5.5-1.8-7.8,0c-1.3,1-1.9,2.4-2,3.9l-2.5,1.8c-5.3-1.4-10.2,0.1-11.2,0.5l-5.1-0.4c-0.5,0-0.9,0.3-0.9,0.8
		s0.3,0.9,0.8,0.9l5.2,0.4c0,0,0,0,0.1,0s0.2,0,0.3-0.1c0,0,5.3-2,10.7-0.4c0.3,0.1,0.5,0,0.8-0.1l2.1-1.5c0.2,0.5,0.4,1,0.8,1.5
		c0.7,0.9,1.7,1.5,2.9,1.6c0.2,0,0.4,0,0.6,0c1,0,1.9-0.3,2.6-0.9c0.8-0.6,1.3-1.5,1.4-2.4c0.1-1-0.1-1.9-0.7-2.7
		c-0.3-0.4-0.8-0.5-1.2-0.2c-0.4,0.3-0.5,0.8-0.2,1.2s0.5,0.9,0.4,1.4s-0.3,1-0.7,1.3c-0.6,0.4-1.2,0.6-1.9,0.5s-1.3-0.4-1.7-1
		c-1.2-1.5-0.9-3.7,0.6-4.9c1.7-1.3,4-1.3,5.7,0.1l0,0l7.7,6.3l0,0c0.3,0.2,0.9,0.8,0.2,1.9c-0.4,0.6-1.1,1-1.7,1
		c-0.4,0-0.5-0.2-0.6-0.3c-0.2-0.3-0.4-0.4-0.7-0.4h-3.2c-0.4,0-1.2-0.2-1.2-0.5c-0.1-0.5-0.6-0.8-1-0.6c-0.5,0.1-0.7,0.6-0.6,1
		c0,0.1,0,0.1,0.1,0.2l-7.3,10.2c-0.1,0.1-0.1,0.2-0.1,0.3c0,0.2-1,4.5-4.5,4.5h-2.8v-3.7c0-0.5-0.4-0.9-0.9-0.9s-0.9,0.4-0.9,0.9
		v18.2c0,0.5,0.4,0.9,0.9,0.9s0.9-0.4,0.9-0.9v-4.3c1.6,0,3.3,0,4.8,0c2.4,0,4.4,0,5.5,0v4.3c0,0.5,0.4,0.9,0.9,0.9s0.9-0.4,0.9-0.9
		v-6c0-0.5-0.4-0.9-0.9-0.9s-0.8,0.4-0.9,0.8c-1.7,0-6.1,0-10.3,0v-6.8h2.8c3.8,0,5.6-3.6,6.1-5.7l2.2-3.1h0.1c0,0,4.6,0.6,7.8,2.5
		l0.6,0.3c-0.1,0.3-0.1,0.6,0.1,0.8c0.3,0.4,0.8,0.5,1.2,0.2c0,0,2-1.3,4.4-1.2l-1.8,2c-0.2,0.2-0.2,0.4-0.2,0.7s0.2,0.5,0.4,0.6
		l3.3,2c0.4,0.6,1.8,2.2,3.9,2.7c-0.2,0.5-0.4,1-0.5,1.4c-0.4,1-0.7,2-1.1,2.1c-0.2,0.1-0.6,0.1-1.6-0.4c-0.4-0.2-0.9-0.1-1.2,0.4
		c-0.1,0.1-0.1,0.3-0.1,0.5c-1.2,0.6-4.6,1.8-10.8,1.5l0,0c1.6-1,1.8-3.4,1.9-3.7c0-0.5-0.3-0.9-0.8-0.9s-0.9,0.3-0.9,0.8
		s-0.3,2.2-1.2,2.5c-0.4,0.1-0.6,0.4-0.6,0.8v6.3c0,0.5,0.4,0.9,0.9,0.9l0,0c0.5,0,0.9-0.4,0.9-0.9v-4c0.7,0,1.5,0.1,2.1,0.1
		c6.8,0,9.8-1.9,10.1-2.1c0.4,0.1,0.8,0.2,1.2,0.2c0.3,0,0.6,0,0.8-0.1c1.1-0.4,1.5-1.6,2.1-3.1c0.3-0.7,0.6-1.5,1-2.4
		C84.2,61.2,84,60.7,83.6,60.4"/>
	<path class="st1" d="M46.7,30.6c-0.8,1-2.8,2.3-7.5,2.4c0.3-0.7,0.4-1.5,0.4-2.4c0-0.5,0-1-0.1-1.5h0.2c0.2,0,0.4,0,0.6,0h7
		C47.4,29.6,47.2,30.1,46.7,30.6 M41.4,24.7c0.3,0,2.7,0.1,4.8-1.3c-0.2,0.7-0.5,1.5-1.1,2.1c-1,1.1-2.6,1.8-4.7,1.9h-1.1
		c-0.3-1.1-0.7-1.9-1.2-2.6h3.3V24.7z M36.7,45.5c-0.3,0.9-0.6,1.7-1.1,2.2l0,0l0,0c0,0,0,0,0-0.1c-0.2-0.3-1.4-1.6-2.9-2l0,0
		c-1-0.1-2.1,0-3.3,0.1c-0.9,0.1-1.8,0.2-2.8,0.2s-1.9-0.1-2.8-0.2c-1.2-0.1-2.3-0.2-3.3-0.1l0,0c-1.6,0.4-2.9,2-2.9,2
		c-0.3-0.4-0.6-0.9-0.9-1.5c-0.8-2-1.2-4.9-1.3-7.6c-0.2-3.6-0.1-6.9-0.1-7.7c0-0.1,0-0.1,0-0.2c0-2.6,0.5-4.3,1.4-5.2
		c0.4-0.4,0.9-0.6,1.5-0.8h0.2l0,0c1.3-0.4,3.1-0.3,5.2-0.2c0.9,0,1.9,0.1,2.8,0.1c1,0,1.9,0,2.8-0.1c2.1-0.1,4-0.1,5.4,0.3l0,0l0,0
		c0.6,0.2,1.2,0.4,1.6,0.9c1,0.9,1.4,2.6,1.4,5.1c0,0.1,0,0.1,0,0.2c0,0.8,0.2,4.5-0.1,8.2C37.6,41.4,37.3,43.7,36.7,45.5
		 M34.2,52.6c-0.8,0.3-3.7,1.1-7.5,1.1h-0.1c-4,0-6.9-0.9-7.7-1.2c-0.1-0.4-0.1-0.9-0.1-1.4c0-0.3,0-0.5,0-0.7l2.9,0.4h0.1
		c0.5,0,0.9-0.3,0.9-0.8c0.1-0.5-0.3-1-0.8-1.1l-2.8-0.4c0.1-0.3,0.3-0.5,0.5-0.7c0.7-0.7,2.2-0.5,4-0.4c0.9,0.1,1.9,0.2,3,0.2l0,0
		c1.1,0,2.1-0.1,3-0.2c1.8-0.2,3.3-0.3,4,0.4c0.2,0.2,0.3,0.4,0.4,0.7l-2.8,0.4c-0.5,0.1-0.9,0.5-0.8,1.1c0.1,0.5,0.5,0.8,0.9,0.8
		h0.1l2.9-0.4c0,0.2,0,0.4,0,0.7C34.3,51.7,34.3,52.2,34.2,52.6 M26.5,57.8c-3.6,0-5.9-0.9-7-3c1.5,0.4,3.9,0.9,6.8,0.9h0.2h0.2
		c2.9,0,5.3-0.5,6.8-0.9C32.4,56.9,30.1,57.8,26.5,57.8 M13.8,27.3h-1.1C10.5,27.2,9,26.6,8,25.4c-0.6-0.6-1-1.4-1.1-2.1
		c2.1,1.4,4.4,1.4,4.8,1.3H15C14.4,25.4,14,26.2,13.8,27.3 M6.3,30.7c-0.4-0.5-0.6-1.1-0.7-1.5h7c0.2,0,0.4,0,0.6,0h0.2
		c0,0.5-0.1,1-0.1,1.5c0,0.8,0.1,1.6,0.4,2.4C9.2,32.9,7.2,31.7,6.3,30.7 M49.3,28l-0.2-0.7h-3.3c0.2-0.2,0.5-0.4,0.7-0.6
		c2.2-2.5,1.7-5.8,1.7-5.9l-0.4-2.5l-1.4,2.2c-1.6,2.6-4.9,2.5-5,2.5H35c-1.7-0.4-3.6-0.3-5.8-0.3c-0.9,0-1.8,0.1-2.8,0.1
		c-0.9,0-1.9,0-2.8-0.1c-2.1-0.1-4.1-0.2-5.7,0.3h-6.4h-0.1c-0.1,0-3.3,0.2-5-2.5L5,18.3l-0.4,2.5c0,0.1-0.5,3.5,1.7,5.9
		c0.2,0.2,0.4,0.4,0.7,0.6H3.9L3.8,28c0,0.1-0.4,2,1.1,3.8c1.5,1.9,4.5,2.9,8.7,3.1c-0.1,1.5-0.7,11.9,3.4,14.9
		c-0.1,0.4-0.1,0.9-0.1,1.4c0,5.7,3.2,8.5,9.6,8.5l0,0c6.4,0,9.6-2.9,9.6-8.5c0-0.5,0-1-0.1-1.4c4.1-3,3.5-13.4,3.4-14.9
		c4.3-0.2,7.2-1.2,8.7-3.1C49.7,30,49.3,28.1,49.3,28"/>
	<path class="st1" d="M21.4,36.7c0,0.9-0.7,1.7-1.7,1.7S18,37.7,18,36.7c0-0.9,0.7-1.7,1.7-1.7S21.4,35.8,21.4,36.7"/>
	<path class="st1" d="M35.2,36.7c0,0.9-0.7,1.7-1.7,1.7c-0.9,0-1.7-0.7-1.7-1.7c0-0.9,0.7-1.7,1.7-1.7
		C34.5,35.1,35.2,35.8,35.2,36.7"/>
	<path class="st1" d="M17.5,48.7c-0.3,0-0.6-0.1-0.8-0.4c-0.3-0.4-0.3-1,0.1-1.4c5-4.1,7.3-7.7,6.6-10.7c-1-4.7-8.6-6.9-8.6-6.9
		c-0.5-0.1-0.8-0.7-0.7-1.2s0.7-0.8,1.2-0.7c0.4,0.1,8.8,2.5,10,8.4c0.8,3.8-1.7,8.1-7.3,12.6C17.9,48.6,17.7,48.7,17.5,48.7"/>
	<path class="st1" d="M35.7,48.7c-0.2,0-0.4-0.1-0.6-0.2c-5.7-4.6-8.1-8.8-7.3-12.6c1.2-5.9,9.7-8.3,10-8.4c0.5-0.1,1.1,0.2,1.2,0.7
		c0.1,0.5-0.2,1.1-0.7,1.2c-0.1,0-7.7,2.2-8.6,6.9c-0.6,3.1,1.6,6.7,6.6,10.7c0.4,0.3,0.5,0.9,0.1,1.4
		C36.2,48.6,35.9,48.7,35.7,48.7"/>
</g>
</svg>
