<?xml version="1.0" encoding="utf-8"?>
<!-- Generator: Adobe Illustrator 23.1.1, SVG Export Plug-In . SVG Version: 6.00 Build 0)  -->
<svg version="1.1" id="Calque_1" xmlns="http://www.w3.org/2000/svg" xmlns:xlink="http://www.w3.org/1999/xlink" x="0px" y="0px"
	 viewBox="0 0 88 88" style="enable-background:new 0 0 88 88;" xml:space="preserve">
<style type="text/css">
	.st0{fill:#F6A924;}
	.st1{fill:#FFFFFF;}
</style>
<title>Group 5</title>
<desc>Created with Sketch.</desc>
<g>
	<rect class="st0" width="88" height="88"/>
	<path class="st1" d="M50.9,54.9c0.1-0.2,0.2-0.4,0.2-0.6c0-0.1,0-0.1,0-0.2c-0.3-1.6-1.3-3.3-2.7-4.6c-1.5-1.2-3.2-2-4.9-2
		c-0.3,0-0.5,0.1-0.7,0.3s-0.3,0.5-0.2,0.8c0.3,1.6,1.3,3.3,2.7,4.5c1.5,1.3,3.2,2,4.9,2C50.4,55.2,50.7,55.1,50.9,54.9 M46.4,51.7
		c-0.7-0.6-1.3-1.4-1.7-2.2c0.8,0.3,1.7,0.7,2.4,1.4c0.7,0.6,1.3,1.4,1.7,2.2C48,52.9,47.2,52.4,46.4,51.7"/>
	<path class="st1" d="M58.1,55.9c-0.7,0-1.3,0.1-2,0.2c-0.2-1.1-0.8-2.9-2.1-4.2c-0.5-0.5-1.3-0.5-1.8,0s-0.5,1.3,0,1.8
		c0.7,0.7,1.1,1.6,1.3,2.4c-0.7-0.1-1.3-0.2-1.9-0.2c-4.2,0-7.2,3.2-7.2,7.9c0,5.8,4.7,10.5,10.5,10.5s10.5-4.7,10.5-10.5
		C65.3,59,62.4,55.9,58.1,55.9 M54.8,71.7c-4.4,0-8-3.6-8-8c0-3.3,1.8-5.4,4.7-5.4c0.9,0,1.8,0.2,2.8,0.6c0.3,0.1,0.6,0.1,0.9,0
		c1-0.4,1.9-0.5,2.8-0.5c2.9,0,4.8,2,4.8,5.3C62.8,68.1,59.2,71.7,54.8,71.7"/>
	<path class="st1" d="M71.3,26.2c0-3.1-2.5-5.6-5.6-5.6c-1.8,0-3.3,0.8-4.4,2.1c-0.9-1.1-2.2-1.9-3.7-2.1c0,0,0,0,0-0.1v-3.1l2,0.4
		c0.1,0,0.2,0,0.3,0c0.5,0,1.1-0.4,1.2-0.9c0.1-0.7-0.3-1.3-0.9-1.4l-8-1.8c-0.6-0.1-1.3,0.3-1.4,0.9c-0.1,0.6,0.3,1.3,0.9,1.4
		l3.6,0.8v3.6c0,0.1,0,0.2,0.1,0.3c-1.1,0.3-2,1-2.7,1.9c-1-1.3-2.6-2.1-4.4-2.1c-3.1,0-5.6,2.5-5.6,5.6c0,2.8,2.1,5.1,4.8,5.5
		C47.2,32.3,47,33,47,33.8c0,2.8,2.1,5.1,4.8,5.5c-0.3,0.6-0.4,1.4-0.4,2.1c0,3.1,2.5,5.6,5.6,5.6s5.6-2.5,5.6-5.6
		c0-0.7-0.2-1.5-0.4-2.1c2.7-0.4,4.8-2.7,4.8-5.5c0-0.7-0.1-1.4-0.4-2.1C69.2,31.3,71.3,29,71.3,26.2 M57,23c1.7,0,3.1,1.3,3.2,3
		c0,0.1,0,0.1,0,0.2v0.1c-0.1,1.7-1.5,3-3.2,3c-0.6,0-1.1-0.2-1.6-0.4c-0.1,0-0.1-0.1-0.2-0.1c-0.8-0.5-1.3-1.4-1.4-2.5
		c0-0.1,0-0.1,0-0.1c0-0.1,0-0.1,0-0.2C53.9,24.3,55.2,23,57,23 M45,26.2c0-1.8,1.4-3.2,3.2-3.2c1.7,0,3.1,1.3,3.2,3
		c0,0.1,0,0.1,0,0.2v0.1c-0.1,1.7-1.5,3-3.2,3C46.4,29.4,45,27.9,45,26.2 M49.4,33.8c0-1.8,1.4-3.2,3.2-3.2c0.6,0,1.1,0.2,1.6,0.4
		c0.1,0,0.1,0.1,0.2,0.1c0.8,0.6,1.3,1.5,1.4,2.5c0,0.1,0,0.1,0,0.2v0.1c-0.1,1.7-1.5,3-3.2,3C50.9,37,49.4,35.5,49.4,33.8 M57,44.6
		c-1.8,0-3.2-1.4-3.2-3.2s1.4-3.2,3.2-3.2s3.2,1.4,3.2,3.2C60.2,43.1,58.8,44.6,57,44.6 M61.4,37c-1.7,0-3.1-1.4-3.2-3v-0.1v-0.2
		c0.1-1.7,1.5-3,3.2-3c0.6,0,1.1,0.2,1.6,0.4c0.1,0,0.1,0.1,0.2,0.1c0.9,0.6,1.4,1.6,1.4,2.7C64.5,35.5,63.1,37,61.4,37 M65.7,29.4
		c-0.6,0-1.1-0.2-1.6-0.4c-0.1,0-0.1-0.1-0.2-0.1c-0.8-0.5-1.4-1.5-1.4-2.5c0-0.1,0-0.1,0-0.1c0-0.1,0-0.1,0-0.2
		c0.1-1.7,1.5-3,3.2-3c1.8,0,3.2,1.4,3.2,3.2C68.9,27.9,67.5,29.4,65.7,29.4"/>
	<path class="st1" d="M37.6,72h-2.5h-2.4h-0.5c0-0.1,0.1-0.2,0.1-0.3v-9c0.7-1,1.3-1.8,1.8-2.6c2.6-3.5,4.3-5.9,4.3-13.1
		c0-8.3-2.2-23-6.3-29.2c-0.4-0.7-1.6-0.7-2,0c-2.1,3.1-3.6,8.4-4.7,13.9c-0.3-0.4-0.6-0.9-0.9-1.2c-0.2-0.3-0.6-0.4-0.9-0.4
		s-0.7,0.1-0.9,0.4c-3.7,4-5.9,13.3-5.9,19.5c0,5.6,1.9,7.6,4.7,10.7c0.3,0.3,0.6,0.7,0.9,1c0,0.1,0,0.1,0,0.2V72h-4
		c-0.7,0-1.2,0.5-1.2,1.2s0.5,1.2,1.2,1.2h19.4c0.7,0,1.2-0.5,1.2-1.2C38.8,72.5,38.3,72,37.6,72 M31.1,20.9C34,27,36,38.9,36,47
		c0,6.4-1.4,8.3-3.8,11.7c-0.3,0.5-0.7,1-1.1,1.5c-0.4-0.5-0.7-1-1.1-1.5c-0.5-0.6-0.9-1.2-1.3-1.8c1-1.7,1.6-3.7,1.6-6.9
		c0-4.4-1.1-10.4-3.1-15C28.1,29.6,29.4,24.3,31.1,20.9 M19.1,50c0-5.2,1.7-12.8,4.4-16.8c2.7,4,4.4,11.6,4.4,16.8
		c0,4.6-1.4,6.1-4.1,9.1c-0.1,0.1-0.2,0.3-0.3,0.4c-0.1-0.1-0.2-0.3-0.3-0.4C20.5,56.1,19.1,54.6,19.1,50 M24.7,61.7
		c0.3-0.4,0.7-0.7,1-1.1c0.6-0.6,1.1-1.2,1.6-1.7c0.3,0.4,0.5,0.8,0.8,1.2c0.5,0.8,1.2,1.6,1.8,2.6v9.1c0,0.1,0,0.2,0.1,0.3h-5.2
		V61.9C24.7,61.8,24.7,61.8,24.7,61.7"/>
	<path class="st1" d="M50.9,54.9c0.1-0.2,0.2-0.4,0.2-0.6c0-0.1,0-0.1,0-0.2c-0.3-1.6-1.3-3.3-2.7-4.6c-1.5-1.2-3.2-2-4.9-2
		c-0.3,0-0.5,0.1-0.7,0.3s-0.3,0.5-0.2,0.8c0.3,1.6,1.3,3.3,2.7,4.5c1.5,1.3,3.2,2,4.9,2C50.4,55.2,50.7,55.1,50.9,54.9 M46.4,51.7
		c-0.7-0.6-1.3-1.4-1.7-2.2c0.8,0.3,1.7,0.7,2.4,1.4c0.7,0.6,1.3,1.4,1.7,2.2C48,52.9,47.2,52.4,46.4,51.7"/>
	<path class="st1" d="M58.1,55.9c-0.7,0-1.3,0.1-2,0.2c-0.2-1.1-0.8-2.9-2.1-4.2c-0.5-0.5-1.3-0.5-1.8,0s-0.5,1.3,0,1.8
		c0.7,0.7,1.1,1.6,1.3,2.4c-0.7-0.1-1.3-0.2-1.9-0.2c-4.2,0-7.2,3.2-7.2,7.9c0,5.8,4.7,10.5,10.5,10.5s10.5-4.7,10.5-10.5
		C65.3,59,62.4,55.9,58.1,55.9 M54.8,71.7c-4.4,0-8-3.6-8-8c0-3.3,1.8-5.4,4.7-5.4c0.9,0,1.8,0.2,2.8,0.6c0.3,0.1,0.6,0.1,0.9,0
		c1-0.4,1.9-0.5,2.8-0.5c2.9,0,4.8,2,4.8,5.3C62.8,68.1,59.2,71.7,54.8,71.7"/>
	<path class="st1" d="M71.3,26.2c0-3.1-2.5-5.6-5.6-5.6c-1.8,0-3.3,0.8-4.4,2.1c-0.9-1.1-2.2-1.9-3.7-2.1c0,0,0,0,0-0.1v-3.1l2,0.4
		c0.1,0,0.2,0,0.3,0c0.5,0,1.1-0.4,1.2-0.9c0.1-0.7-0.3-1.3-0.9-1.4l-8-1.8c-0.6-0.1-1.3,0.3-1.4,0.9c-0.1,0.6,0.3,1.3,0.9,1.4
		l3.6,0.8v3.6c0,0.1,0,0.2,0.1,0.3c-1.1,0.3-2,1-2.7,1.9c-1-1.3-2.6-2.1-4.4-2.1c-3.1,0-5.6,2.5-5.6,5.6c0,2.8,2.1,5.1,4.8,5.5
		C47.2,32.3,47,33,47,33.8c0,2.8,2.1,5.1,4.8,5.5c-0.3,0.6-0.4,1.4-0.4,2.1c0,3.1,2.5,5.6,5.6,5.6s5.6-2.5,5.6-5.6
		c0-0.7-0.2-1.5-0.4-2.1c2.7-0.4,4.8-2.7,4.8-5.5c0-0.7-0.1-1.4-0.4-2.1C69.2,31.3,71.3,29,71.3,26.2 M57,23c1.7,0,3.1,1.3,3.2,3
		c0,0.1,0,0.1,0,0.2v0.1c-0.1,1.7-1.5,3-3.2,3c-0.6,0-1.1-0.2-1.6-0.4c-0.1,0-0.1-0.1-0.2-0.1c-0.8-0.5-1.3-1.4-1.4-2.5
		c0-0.1,0-0.1,0-0.1c0-0.1,0-0.1,0-0.2C53.9,24.3,55.2,23,57,23 M45,26.2c0-1.8,1.4-3.2,3.2-3.2c1.7,0,3.1,1.3,3.2,3
		c0,0.1,0,0.1,0,0.2v0.1c-0.1,1.7-1.5,3-3.2,3C46.4,29.4,45,27.9,45,26.2 M49.4,33.8c0-1.8,1.4-3.2,3.2-3.2c0.6,0,1.1,0.2,1.6,0.4
		c0.1,0,0.1,0.1,0.2,0.1c0.8,0.6,1.3,1.5,1.4,2.5c0,0.1,0,0.1,0,0.2v0.1c-0.1,1.7-1.5,3-3.2,3C50.9,37,49.4,35.5,49.4,33.8 M57,44.6
		c-1.8,0-3.2-1.4-3.2-3.2s1.4-3.2,3.2-3.2s3.2,1.4,3.2,3.2C60.2,43.1,58.8,44.6,57,44.6 M61.4,37c-1.7,0-3.1-1.4-3.2-3v-0.1v-0.2
		c0.1-1.7,1.5-3,3.2-3c0.6,0,1.1,0.2,1.6,0.4c0.1,0,0.1,0.1,0.2,0.1c0.9,0.6,1.4,1.6,1.4,2.7C64.5,35.5,63.1,37,61.4,37 M65.7,29.4
		c-0.6,0-1.1-0.2-1.6-0.4c-0.1,0-0.1-0.1-0.2-0.1c-0.8-0.5-1.4-1.5-1.4-2.5c0-0.1,0-0.1,0-0.1c0-0.1,0-0.1,0-0.2
		c0.1-1.7,1.5-3,3.2-3c1.8,0,3.2,1.4,3.2,3.2C68.9,27.9,67.5,29.4,65.7,29.4"/>
	<path class="st1" d="M37.6,72h-2.5h-2.4h-0.5c0-0.1,0.1-0.2,0.1-0.3v-9c0.7-1,1.3-1.8,1.8-2.6c2.6-3.5,4.3-5.9,4.3-13.1
		c0-8.3-2.2-23-6.3-29.2c-0.4-0.7-1.6-0.7-2,0c-2.1,3.1-3.6,8.4-4.7,13.9c-0.3-0.4-0.6-0.9-0.9-1.2c-0.2-0.3-0.6-0.4-0.9-0.4
		s-0.7,0.1-0.9,0.4c-3.7,4-5.9,13.3-5.9,19.5c0,5.6,1.9,7.6,4.7,10.7c0.3,0.3,0.6,0.7,0.9,1c0,0.1,0,0.1,0,0.2V72h-4
		c-0.7,0-1.2,0.5-1.2,1.2s0.5,1.2,1.2,1.2h19.4c0.7,0,1.2-0.5,1.2-1.2C38.8,72.5,38.3,72,37.6,72 M31.1,20.9C34,27,36,38.9,36,47
		c0,6.4-1.4,8.3-3.8,11.7c-0.3,0.5-0.7,1-1.1,1.5c-0.4-0.5-0.7-1-1.1-1.5c-0.5-0.6-0.9-1.2-1.3-1.8c1-1.7,1.6-3.7,1.6-6.9
		c0-4.4-1.1-10.4-3.1-15C28.1,29.6,29.4,24.3,31.1,20.9 M19.1,50c0-5.2,1.7-12.8,4.4-16.8c2.7,4,4.4,11.6,4.4,16.8
		c0,4.6-1.4,6.1-4.1,9.1c-0.1,0.1-0.2,0.3-0.3,0.4c-0.1-0.1-0.2-0.3-0.3-0.4C20.5,56.1,19.1,54.6,19.1,50 M24.7,61.7
		c0.3-0.4,0.7-0.7,1-1.1c0.6-0.6,1.1-1.2,1.6-1.7c0.3,0.4,0.5,0.8,0.8,1.2c0.5,0.8,1.2,1.6,1.8,2.6v9.1c0,0.1,0,0.2,0.1,0.3h-5.2
		V61.9C24.7,61.8,24.7,61.8,24.7,61.7"/>
</g>
</svg>
