<?xml version="1.0" encoding="UTF-8"?>
<svg width="91px" height="75px" viewBox="0 0 91 75" version="1.1" xmlns="http://www.w3.org/2000/svg" xmlns:xlink="http://www.w3.org/1999/xlink">
    <!-- Generator: Sketch 47.1 (45422) - http://www.bohemiancoding.com/sketch -->
    <title>Fill 1</title>
    <desc>Created with Sketch.</desc>
    <defs></defs>
    <g id="Desktop" stroke="none" stroke-width="1" fill="none" fill-rule="evenodd">
        <g id="Accueil" transform="translate(-892.000000, -4259.000000)" fill="#EEEEEE">
            <g id="Vache-égérie" transform="translate(-1.000000, 3539.000000)">
                <g id="Bloc" transform="translate(278.000000, 609.000000)">
                    <g id="Right" transform="translate(462.000000, 52.000000)">
                        <g id="Twitter" transform="translate(153.000000, 59.000000)">
                            <path d="M80.2809583,11.8575 C84.1370833,9.5175 87.0945833,5.806875 88.4899167,1.385625 C84.8783542,3.553125 80.8895208,5.128125 76.6257917,5.97375 C73.2303542,2.296875 68.3732292,0 63.0004375,0 C52.6984792,0 44.3378542,8.476875 44.3378542,18.931875 C44.3378542,20.416875 44.499,21.856875 44.8193958,23.244375 C29.302,22.453125 15.549625,14.923125 6.33397917,3.455625 C4.7263125,6.260625 3.80872917,9.5175 3.80872917,12.984375 C3.80872917,19.54875 7.1036875,25.34625 12.114375,28.741875 C9.05829167,28.65 6.17472917,27.789375 3.65327083,26.38125 L3.65327083,26.61375 C3.65327083,35.79 10.089625,43.445625 18.6360417,45.178125 C17.0700833,45.6225 15.4207083,45.845625 13.7163542,45.845625 C12.5143958,45.845625 11.3389792,45.729375 10.2014792,45.508125 C12.5788542,53.026875 19.4702083,58.50375 27.64125,58.65 C21.2522917,63.73125 13.1987917,66.759375 4.45520833,66.759375 C2.94802083,66.759375 1.45789583,66.673125 0,66.49875 C8.26204167,71.863125 18.0805625,75 28.6195,75 C62.9644167,75 81.7369583,46.153125 81.7369583,21.13125 C81.7369583,20.308125 81.7217917,19.485 81.6895625,18.67875 C85.3390417,16.006875 88.5069792,12.675 91,8.878125 C87.65575,10.38375 84.0555625,11.401875 80.2809583,11.8575 Z" id="Fill-1"></path>
                        </g>
                    </g>
                </g>
            </g>
        </g>
    </g>
</svg>