<?xml version="1.0" standalone="no"?>
<!DOCTYPE svg PUBLIC "-//W3C//DTD SVG 1.1//EN" "http://www.w3.org/Graphics/SVG/1.1/DTD/svg11.dtd" >
<svg xmlns="http://www.w3.org/2000/svg">
<metadata>Generated by IcoMoon</metadata>
<defs>
<font id="icomoon" horiz-adv-x="1024">
<font-face units-per-em="1024" ascent="960" descent="-64" />
<missing-glyph horiz-adv-x="1024" />
<glyph unicode="&#x20;" horiz-adv-x="512" d="" />
<glyph unicode="&#xe900;" glyph-name="sia-icon-account" d="M854.295 207.267l-14.677-20.79-11.76 22.559c-34.32 65.753-87.164 118.474-152.824 152.514l-16.725 8.657 11.729 14.77c28.548 35.995 43.66 79.251 43.66 125.083 0 111.213-90.484 201.697-201.697 201.697s-201.697-90.484-201.697-201.697c0-45.832 15.112-89.088 43.691-125.083l11.698-14.77-16.725-8.657c-65.722-34.040-118.567-86.761-152.855-152.452l-11.792-22.559-14.646 20.79c-50.114 71.059-76.583 154.314-76.583 240.671 0 230.99 187.92 418.909 418.909 418.909s418.909-187.92 418.909-418.909c0-86.45-26.5-169.705-76.614-240.733v0zM403.394 510.061c0 59.888 48.749 108.606 108.606 108.606 59.888 0 108.606-48.718 108.606-108.606 0-59.857-48.718-108.606-108.606-108.606-59.857 0-108.606 48.749-108.606 108.606v0zM757.015 108.901c-72.083-52.224-156.796-79.81-245.015-79.81-88.188 0-172.932 27.586-245.015 79.81l-9.154 6.64 3.506 10.768c35.592 108.885 136.316 182.055 250.663 182.055 114.378 0 215.102-73.169 250.632-182.055l3.537-10.768-9.154-6.64zM512 960c-282.314 0-512-229.686-512-512s229.686-512 512-512c282.314 0 512 229.686 512 512s-229.686 512-512 512v0z" />
<glyph unicode="&#xe901;" glyph-name="sia-icon-app" d="M726.95-29.867h-429.909c-22.63 0-41.045 18.415-41.045 41.045v129.621h512v-129.621c0-22.63-18.415-41.045-41.045-41.045v0zM297.040 925.867h429.892c22.647 0 41.062-18.415 41.062-41.045v-27.221h-512v27.221c0 22.63 18.415 41.045 41.045 41.045v0zM255.995 174.933v648.533h512v-648.533h-512zM726.95 960h-429.909c-41.455 0-75.179-33.741-75.179-75.179v-873.626c0-41.455 33.724-75.196 75.179-75.196h429.892c41.489 0 75.196 33.741 75.196 75.179v873.643c0 41.438-33.707 75.179-75.179 75.179v0zM512 21.333c-18.825 0-34.133 15.309-34.133 34.133s15.309 34.133 34.133 34.133c18.825 0 34.133-15.309 34.133-34.133s-15.309-34.133-34.133-34.133zM512 123.733c-37.649 0-68.267-30.618-68.267-68.267s30.618-68.267 68.267-68.267c37.649 0 68.267 30.618 68.267 68.267s-30.618 68.267-68.267 68.267zM546.133 670.191c0-0.358-0.29-0.649-0.649-0.649l-67.618 0.649 0.649 67.618 67.618-0.666v-66.953zM545.485 771.925h-66.97c-19.183 0-34.782-15.599-34.782-34.782v-66.97c0-19.183 15.599-34.782 34.782-34.782h66.97c19.183 0 34.782 15.599 34.782 34.782v66.97c0 19.183-15.599 34.782-34.782 34.782v0zM392.533 670.191c0-0.358-0.29-0.649-0.649-0.649l-67.618 0.649 0.649 67.618 67.618-0.666v-66.953zM391.885 771.925h-66.97c-19.183 0-34.782-15.599-34.782-34.782v-66.97c0-19.183 15.599-34.782 34.782-34.782h66.97c19.183 0 34.782 15.599 34.782 34.782v66.97c0 19.183-15.599 34.782-34.782 34.782v0zM699.733 670.191c0-0.358-0.29-0.649-0.649-0.649l-67.618 0.649 0.649 67.618 67.618-0.666v-66.953zM699.085 771.925h-66.97c-19.183 0-34.782-15.599-34.782-34.782v-66.97c0-19.183 15.599-34.782 34.782-34.782h66.97c19.183 0 34.782 15.599 34.782 34.782v66.97c0 19.183-15.599 34.782-34.782 34.782v0zM546.133 516.917c0-0.341-0.29-0.649-0.649-0.649l-67.618 0.649 0.649 67.618 67.618-0.649v-66.97zM545.485 618.668h-66.97c-19.183 0-34.782-15.599-34.782-34.782v-66.97c0-19.183 15.599-34.782 34.782-34.782h66.97c19.183 0 34.782 15.599 34.782 34.782v66.97c0 19.183-15.599 34.782-34.782 34.782v0zM392.533 516.917c0-0.341-0.29-0.649-0.649-0.649l-67.618 0.649 0.649 67.618 67.618-0.649v-66.97zM391.885 618.668h-66.97c-19.183 0-34.782-15.599-34.782-34.782v-66.97c0-19.183 15.599-34.782 34.782-34.782h66.97c19.183 0 34.782 15.599 34.782 34.782v66.97c0 19.183-15.599 34.782-34.782 34.782v0zM699.733 516.917c0-0.341-0.29-0.649-0.649-0.649l-67.618 0.649 0.649 67.618 67.618-0.649v-66.97zM699.085 618.668h-66.97c-19.183 0-34.782-15.599-34.782-34.782v-66.97c0-19.183 15.599-34.782 34.782-34.782h66.97c19.183 0 34.782 15.599 34.782 34.782v66.97c0 19.183-15.599 34.782-34.782 34.782v0zM546.133 363.317c0-0.341-0.29-0.649-0.649-0.649l-67.618 0.649 0.649 67.618 67.618-0.649v-66.97zM545.485 465.068h-66.97c-19.183 0-34.782-15.599-34.782-34.782v-66.97c0-19.183 15.599-34.782 34.782-34.782h66.97c19.183 0 34.782 15.599 34.782 34.782v66.97c0 19.183-15.599 34.782-34.782 34.782v0zM392.533 363.317c0-0.341-0.29-0.649-0.649-0.649l-67.618 0.649 0.649 67.618 67.618-0.649v-66.97zM391.885 465.068h-66.97c-19.183 0-34.782-15.599-34.782-34.782v-66.97c0-19.183 15.599-34.782 34.782-34.782h66.97c19.183 0 34.782 15.599 34.782 34.782v66.97c0 19.183-15.599 34.782-34.782 34.782v0z" />
<glyph unicode="&#xe902;" glyph-name="sia-icon-badgepro" d="M535.27 430.545c0 12.847 10.438 23.273 23.331 23.273h232.611c12.893 0 23.331-10.333 23.331-23.273 0-12.847-10.438-23.273-23.331-23.273h-232.611c-12.893 0-23.331 10.333-23.331 23.273zM535.27 337.455c0 12.847 10.415 23.273 23.203 23.273h139.776c12.812 0 23.203-10.333 23.203-23.273 0-12.847-10.415-23.273-23.203-23.273h-139.776c-12.812 0-23.203 10.333-23.203 23.273zM535.27 244.364c0 12.847 10.38 23.273 23.273 23.273h349.091c12.847 0 23.273-10.333 23.273-23.273 0-12.847-10.38-23.273-23.273-23.273h-349.091c-12.847 0-23.273 10.333-23.273 23.273zM511.998 756.364c-12.847 0-23.273-10.426-23.273-23.273s10.426-23.273 23.273-23.273c12.847 0 23.273 10.426 23.273 23.273s-10.426 23.273-23.273 23.273zM977.338 674.909h-348.975v58.135c0 64.326-52.108 116.41-116.364 116.41-64.291 0-116.364-52.119-116.364-116.41v-58.135h-348.975c-25.74 0-46.662-20.794-46.662-46.452v-535.459c0-25.542 20.887-46.452 46.662-46.452h930.676c25.74 0 46.662 20.794 46.662 46.452v535.459c0 25.542-20.887 46.452-46.662 46.452v0zM442.182 733.044c0 38.528 31.313 69.865 69.818 69.865 38.493 0 69.818-31.337 69.818-69.865l0.012-104.681-139.648 0.070v104.611zM977.338 93.091l-930.793-0.093 0.116 535.366h348.975c0.047-25.809 20.852-46.545 46.534-46.545h139.66c25.647 0 46.487 20.829 46.522 46.545l349.103 0.093-0.116-535.366zM290.907 535.279c-109.254 0-197.818-88.576-197.818-197.818 0-109.254 88.564-197.818 197.818-197.818s197.818 88.564 197.818 197.818c0 109.242-88.564 197.818-197.818 197.818zM202.435 215.011c12.172 37.248 47.209 64.268 88.471 64.268s76.3-27.020 88.46-64.268c-24.902-18.048-55.412-28.823-88.46-28.823s-63.558 10.775-88.471 28.823zM255.998 360.733c0 19.247 15.663 34.909 34.909 34.909s34.909-15.663 34.909-34.909c0-19.258-15.663-34.909-34.909-34.909s-34.909 15.651-34.909 34.909zM414.508 250.537c-13.324 25.53-34.223 46.417-59.788 59.671 11.020 13.882 17.641 31.418 17.641 50.525 0 44.986-36.468 81.455-81.455 81.455s-81.455-36.468-81.455-81.455c0-19.107 6.621-36.643 17.641-50.525-25.553-13.242-46.487-34.129-59.811-59.648-17.35 24.611-27.648 54.551-27.648 86.9 0 83.409 67.852 151.273 151.273 151.273 83.409 0 151.273-67.863 151.273-151.273 0-32.361-10.298-62.301-27.671-86.924z" />
<glyph unicode="&#xe903;" glyph-name="sia-icon-calendar" d="M889.34 0.523h-763.090c-15.43 0-28.055 12.625-28.055 28.055v500.778h820.603v-500.778c-1.403-15.43-14.027-28.055-29.458-28.055zM126.249 795.877h150.093v-65.929c0-15.43 12.625-28.055 28.055-28.055s28.055 12.625 28.055 28.055v65.929h350.685v-65.929c0-15.43 12.625-28.055 28.055-28.055 15.416 0 28.055 12.625 28.055 28.055v65.929h150.093c15.43 0 28.055-12.625 28.055-28.055v-182.356h-819.2v182.356c0 15.43 12.625 28.055 28.055 28.055zM889.34 851.986h-150.093v65.929c0 15.43-12.639 28.055-28.055 28.055-15.43 0-28.055-12.625-28.055-28.055v-65.929h-350.685v65.929c0 15.43-12.625 28.055-28.055 28.055s-28.055-12.625-28.055-28.055v-65.929h-150.093c-46.29 0-84.164-37.874-84.164-84.164v-739.244c0-46.29 37.874-84.164 84.164-84.164h764.493c46.276 0 84.164 37.874 84.164 84.164v739.244c-1.403 46.29-39.277 84.164-85.567 84.164zM744.86 220.756h-474.126c-15.43 0-28.055-12.625-28.055-28.055s12.625-28.055 28.055-28.055h472.709c15.444 0 28.055 12.625 28.055 28.055s-11.208 28.055-26.638 28.055zM350.682 323.153h315.616c15.444 0 28.055 12.625 28.055 28.055s-12.611 28.055-28.055 28.055h-315.616c-15.43 0-28.055-12.625-28.055-28.055s12.625-28.055 28.055-28.055z" />
<glyph unicode="&#xe904;" glyph-name="sia-icon-fb" d="M546.959-64h-490.432c-31.232 0-56.533 25.323-56.533 56.512v910.976c0 31.211 25.301 56.512 56.533 56.512h910.955c31.211 0 56.512-25.301 56.512-56.512v-910.976c0-31.189-25.301-56.512-56.512-56.512h-260.949v396.544h133.12l19.925 154.56h-153.045v98.667c0 44.736 12.437 75.221 76.587 75.221l81.835 0.043v138.219c-14.144 1.877-62.72 6.080-119.253 6.080-117.973 0-198.741-72-198.741-204.267v-113.963h-133.44v-154.56h133.44v-396.544z" />
<glyph unicode="&#xe905;" glyph-name="sia-icon-grid" d="M0 789.333h227.556v-227.556h-227.556v227.556zM398.222 789.333h227.556v-227.556h-227.556v227.556zM796.444 789.333h227.556v-227.556h-227.556v227.556zM0 334.222h227.556v-227.556h-227.556v227.556zM398.222 334.222h227.556v-227.556h-227.556v227.556zM796.444 334.222h227.556v-227.556h-227.556v227.556z" />
<glyph unicode="&#xe906;" glyph-name="sia-icon-instagram" d="M810.876 704.22c0-31.8-25.971-57.6-58.027-57.6s-58.027 25.8-58.027 57.6c0 31.82 25.971 57.6 58.027 57.6s58.027-25.78 58.027-57.6zM494.732 288c-89.035 0-161.185 71.64-161.185 160s72.151 160 161.185 160c89.015 0 161.185-71.64 161.185-160s-72.171-160-161.185-160zM494.732 694.48c-137.148 0-248.326-110.34-248.326-246.48s111.177-246.48 248.326-246.48c137.128 0 248.306 110.34 248.306 246.48s-111.177 246.48-248.306 246.48zM494.732 841.52c129.109 0 144.402-0.5 195.397-2.8 47.147-2.14 72.735-9.96 89.78-16.54 22.566-8.7 38.684-19.1 55.609-35.9s27.401-32.78 36.166-55.2c6.629-16.9 14.487-42.32 16.663-89.12 2.317-50.62 2.801-65.8 2.801-193.96s-0.484-143.34-2.801-193.96c-2.176-46.8-10.034-72.22-16.663-89.12-8.764-22.4-19.241-38.4-36.166-55.2s-33.043-27.2-55.609-35.9c-17.045-6.58-42.633-14.4-89.78-16.54-50.975-2.3-66.267-2.8-195.397-2.8s-144.422 0.5-195.417 2.8c-47.127 2.14-72.735 9.96-89.78 16.54-22.566 8.7-38.684 19.1-55.589 35.9-16.924 16.8-27.401 32.8-36.186 55.2-6.609 16.9-14.507 42.32-16.642 89.12-2.337 50.62-2.821 65.8-2.821 193.96s0.484 143.34 2.821 193.96c2.136 46.8 10.034 72.22 16.642 89.12 8.785 22.42 19.262 38.4 36.186 55.2 16.904 16.8 33.023 27.2 55.589 35.9 17.045 6.58 42.654 14.4 89.78 16.54 50.995 2.3 66.287 2.8 195.417 2.8zM494.732 928c-131.326 0-147.807-0.56-199.366-2.9-51.479-2.32-86.637-10.44-117.383-22.3-31.814-12.26-58.772-28.68-85.65-55.36-26.898-26.68-43.419-53.46-55.79-85.020-11.948-30.54-20.128-65.42-22.465-116.52-2.357-51.2-2.901-67.54-2.901-197.9s0.544-146.7 2.901-197.92c2.337-51.060 10.517-85.96 22.465-116.5 12.371-31.56 28.892-58.34 55.79-85.020 26.878-26.68 53.836-43.1 85.65-55.36 30.746-11.86 65.905-19.98 117.383-22.32 51.559-2.34 68.040-2.88 199.366-2.88 131.305 0 147.787 0.54 199.366 2.88 51.458 2.34 86.617 10.46 117.363 22.32 31.794 12.26 58.772 28.68 85.65 55.36s43.439 53.46 55.79 85.020c11.948 30.54 20.128 65.44 22.465 116.5 2.357 51.22 2.921 67.56 2.921 197.92s-0.564 146.7-2.921 197.9c-2.337 51.1-10.517 85.98-22.465 116.52-12.351 31.56-28.913 58.34-55.79 85.020s-53.856 43.1-85.65 55.36c-30.746 11.86-65.905 19.98-117.363 22.3-51.579 2.34-68.060 2.9-199.366 2.9z" />
<glyph unicode="&#xe907;" glyph-name="sia-icon-linkedin" d="M16.88-23.071h199.587v637.66h-199.587v-637.66zM111.576 694.352h-1.443c-72.239 0-119.087 48.74-119.087 110.528 0 62.985 48.221 110.716 121.926 110.716 73.635 0 118.9-47.59 120.343-110.528 0-61.788-46.708-110.716-121.74-110.716v0zM1015.047-23.071h-226.327v329.988c0 86.357-35.398 145.329-113.245 145.329-59.532 0-92.649-39.776-108.055-78.144-5.772-13.751-4.887-32.947-4.887-52.119v-345.054h-224.209c0 0 2.886 584.531 0 637.66h224.209v-100.085c13.242 43.765 84.899 106.21 199.215 106.21 141.847 0 253.3-91.731 253.3-289.227v-354.558z" />
<glyph unicode="&#xe908;" glyph-name="sia-icon-list" d="M0 704h1024v-170.667h-1024v170.667zM0 362.667h1024v-170.667h-1024v170.667z" />
<glyph unicode="&#xe909;" glyph-name="sia-icon-list2" d="M353.535 818.196h631.757c10.497 0 19.016 8.716 19.016 19.484s-8.519 19.484-19.016 19.484h-631.757c-10.497 0-19.016-8.716-19.016-19.484s8.519-19.484 19.016-19.484v0zM220.424 760.822c0-3.585-2.852-6.495-6.339-6.495h-150.022c-3.486 0-6.339 2.91-6.339 6.495v153.716c0 3.585 2.852 6.495 6.339 6.495h150.022c3.486 0 6.339-2.91 6.339-6.495v-153.716zM214.085 960h-150.022c-24.467 0-44.37-20.393-44.37-45.463v-153.716c0-25.069 19.903-45.463 44.37-45.463h150.022c24.467 0 44.37 20.393 44.37 45.463v153.716c0 25.069-19.903 45.463-44.37 45.463v0zM985.292 77.804h-631.757c-10.497 0-19.016-8.716-19.016-19.484s8.519-19.484 19.016-19.484h631.757c10.497 0 19.016 8.716 19.016 19.484s-8.519 19.484-19.016 19.484v0zM220.424-18.537c0-3.585-2.852-6.495-6.339-6.495h-150.022c-3.486 0-6.339 2.91-6.339 6.495v153.716c0 3.585 2.852 6.495 6.339 6.495h150.022c3.486 0 6.339-2.91 6.339-6.495v-153.716zM214.085 180.641h-150.022c-24.467 0-44.37-20.393-44.37-45.463v-153.716c0-25.069 19.903-45.463 44.37-45.463h150.022c24.467 0 44.37 20.393 44.37 45.463v153.716c0 25.069-19.903 45.463-44.37 45.463v0zM985.292 467.484h-631.757c-10.497 0-19.016-8.716-19.016-19.484s8.519-19.484 19.016-19.484h631.757c10.497 0 19.016 8.716 19.016 19.484s-8.519 19.484-19.016 19.484v0zM220.424 371.142c0-3.585-2.852-6.495-6.339-6.495h-150.022c-3.486 0-6.339 2.91-6.339 6.495v153.716c0 3.585 2.852 6.495 6.339 6.495h150.022c3.486 0 6.339-2.91 6.339-6.495v-153.716zM214.085 570.32h-150.022c-24.467 0-44.37-20.393-44.37-45.463v-153.716c0-25.069 19.903-45.463 44.37-45.463h150.022c24.467 0 44.37 20.393 44.37 45.463v153.716c0 25.069-19.903 45.463-44.37 45.463v0z" />
<glyph unicode="&#xe90a;" glyph-name="sia-icon-locker" d="M493.037 285.972c-19.259 0-35.556-15.132-35.556-33.001 0-17.883 16.296-33.029 35.556-33.029s35.556 15.146 35.556 33.029c0 17.869-16.296 33.001-35.556 33.001zM493.037 163.556c-53.333 0-94.815 39.879-94.815 88.026 0 38.531 26.667 72.908 65.185 83.927v66.016c0 15.132 13.333 27.512 29.63 27.512s29.63-12.381 29.63-27.512v-66.016c37.037-11.019 65.185-44.034 65.185-83.927 0-48.147-41.481-88.026-94.815-88.026zM188.768-6.17v581.208h643.591v-581.208h-643.591zM337.713 725.325c0 96.721 78.193 175.399 174.287 175.399 96.108 0 174.287-78.678 174.287-175.399v-92.095l-348.574 0.708v91.386zM861.091 632.869l-115.904 0.231v92.225c0 129.395-104.598 234.675-233.187 234.675-128.575 0-233.187-105.28-233.187-234.675v-91.256l-117.341 0.231c-15.802 0-28.732-13.012-28.732-28.915v-640.47c0-15.903 12.929-28.915 28.732-28.915h701.055c15.788 0 28.732 13.012 28.732 28.915v639.039c-1.437 15.889-14.366 28.915-30.168 28.915v0z" />
<glyph unicode="&#xe90b;" glyph-name="sia-icon-magnify" d="M365.499 300.809c-65.211 65.295-101.13 151.739-101.13 243.406 0 92.431 35.919 179.299 101.13 244.582 134.405 134.542 353.091 134.53 487.449 0 64.271-64.342 101.13-153.068 101.13-243.406 0-90.349-36.859-179.064-101.13-243.394-134.711-134.848-353.361-135.412-487.449-1.188zM902.461 838.365c-162.017 162.196-425.634 162.184-587.709-0.059-77.959-79.257-120.881-183.698-120.881-294.091 0-97.889 34.697-192.485 97.922-267.602l-281.3-280.447c-6.78-6.775-10.493-15.586-10.493-24.796s3.713-18.009 10.481-24.784c7.026-7.034 16.532-10.586 26.049-10.586 8.648 0 17.296 2.941 24.075 8.869l280.713 280.988c164.085-138.4 408.467-128.661 561.143 24.219 78.371 78.434 121.539 182.91 121.539 294.138s-43.168 215.705-121.539 294.15zM763.024 772.523c-11.726 12.526-30.101 12.514-41.827 0-11.726-12.537-11.726-32.185 0-44.722 42.054-44.953 65.204-104.782 65.204-168.461 0-62.757-23.764-124.165-65.214-168.484-5.701-6.107-8.838-14.036-8.838-22.344s3.147-16.248 8.848-22.355c5.712-6.107 13.138-9.461 20.919-9.461 7.771 0 15.196 3.353 20.833 9.392 53.51 56.131 82.965 131.505 82.965 212.238 0 80.975-29.433 157.041-82.89 214.197z" />
<glyph unicode="&#xe90c;" glyph-name="sia-icon-mail" d="M399.601 465.126l-322.019-246.029v491.94l322.019-245.911zM442.226 431.946l53.63-40.33c8.451-7.756 21.654-7.963 31.768-0.384l54.12 40.7 313.331-239.426h-767.517l314.667 239.44zM127.543 737.628h768.898l-384.442-292.593-384.456 292.593zM946.418 711.037v-491.94l-322.019 246.029 322.019 245.911zM972.409 789.333h-920.818c-15.060 0-25.991-10.873-25.991-25.853v-596.828c0-14.98 10.931-25.853 25.991-25.853h920.818c2.926 0 5.97 0.62 8.644 1.684 2.064 0.753 3.98 1.773 6.594 3.678 6.832 5.171 10.753 13.177 10.753 21.967v595.351c0 14.98-10.931 25.853-25.991 25.853v0z" />
<glyph unicode="&#xe90d;" glyph-name="sia-icon-map" d="M674.548 785.427c13.126 0 23.273-10.149 23.273-23.276s-10.147-23.276-23.273-23.276c-13.137 0-23.273 10.149-23.273 23.276s10.135 23.276 23.273 23.276v0zM977.454 789.792v-696.478l-279.272-80.013v383.701c45.277 96.83 92.718 192.962 137.46 289.862 7.133 19.075 12.451 43.248 13.091 66.198l128.721 36.73zM372.364 789.792l128-36.73c0.64-22.974 6.004-47.17 13.091-66.198 45.766-97.040 92.113-194.254 138.182-291.317v-382.246l-279.272 80.013v696.478zM325.819 789.792v-696.478l-279.272-80.013v696.478l279.272 80.013zM674.548 831.98c-38.284 0-69.818-31.54-69.818-69.829s31.534-69.829 69.818-69.829c38.272 0 69.818 31.54 69.818 69.829s-31.534 69.829-69.818 69.829v0zM674.187 890.171c70.586 0 128.361-58.622 128.361-132.746 0-15.386-5.108-39.174-10.543-53.827-38.889-82.597-78.266-165.158-117.457-247.673-39.028 82.597-78.743 164.995-117.457 247.673-5.434 14.687-10.543 38.476-10.543 53.827 2.897 84.552 66.467 132.141 127.639 132.746v0zM674.187 936.724c-82.001 0-150.376-58.436-169.099-136.388l-149.446 42.549c-5.283 1.234-10.089 0.431-13.091 0l-325.818-93.106c-9.647-2.816-16.826-12.499-16.733-22.543v-744.847c0.116-14.338 16.058-26.221 29.824-22.182l319.266 91.279 319.278-91.279c4.247-1.245 8.844-1.245 13.091 0l325.818 93.106c9.519 2.793 16.652 12.255 16.721 22.182v744.847c0.128 14.466-15.93 26.617-29.812 22.543l-149.818-42.91c-19.2 84.819-94.627 137.203-170.182 136.749v0z" />
<glyph unicode="&#xe90e;" glyph-name="sia-icon-pdf" d="M823.607 389.173c5.702 0 9.755-0.002 13.813 0 20.225 0.011 40.455-0.088 60.681 0.085 8.546 0.072 16.63 3.327 17.871 12.168 0.929 6.603-0.407 15.414-4.38 20.243-3.453 4.198-11.986 5.668-18.326 5.794-28.456 0.578-56.931 0.27-85.401 0.234-20.239-0.027-26.736-6.684-26.709-26.95 0.061-48.322 0.056-96.642 0.083-144.962 0.007-12.361-0.438-24.744 0.182-37.074 0.612-12.186 9.126-18.818 22.17-18.481 12.105 0.315 19.742 7.426 19.944 19.537 0.31 18.724 0.094 37.458 0.101 56.187 0.002 5.854 0 11.709 0 18.586 18.296 0 35.073 0.067 51.85-0.027 9.168-0.052 16.131 3.318 19.315 12.294 4.254 11.986-3.235 24.266-16.163 25.055-15.304 0.931-30.691 0.596-46.040 0.605-5.623 0.004-9.234 1.12-9.094 8.008 0.319 15.677 0.101 31.368 0.101 48.698zM422.99 280.381c17.422 1.131 33.124 1.362 48.61 3.316 36.377 4.595 59.653 29.446 61.585 64.57 2.093 38.083-17.37 68.123-53.576 74.721-26.19 4.771-53.536 3.955-80.371 4.078-12.676 0.063-18.771-8.615-18.782-21.849-0.052-59.898-0.074-119.795 0.007-179.693 0.020-16.496 7.786-25.3 21.763-25.293 14.42 0.007 20.691 7.7 20.752 25.653 0.058 17.921 0.013 35.84 0.013 54.496zM575.369 315.888c0-29.565-0.004-59.129 0.002-88.696 0.002-16.824 5.567-23.177 22.48-23.728 16.446-0.533 32.975-0.845 49.383 0.166 50.836 3.127 81.165 28.985 85.659 76.156 2.392 25.109 1.439 50.968-1.578 76.059-4.391 36.53-28.387 62.542-64.39 68.505-24.090 3.986-49.161 2.965-73.766 2.552-12.685-0.214-17.719-7.759-17.764-21.192-0.106-29.938-0.034-59.878-0.027-89.821zM640.998 506.415c103.402 0.002 206.803 0.063 310.205-0.031 32.126-0.029 49.057-17.159 49.077-49.403 0.058-94.034 0.056-188.068 0-282.102-0.020-31.291-17.386-49.057-48.482-49.075-206.803-0.121-413.607 0.126-620.408-0.373-34.327-0.083-50.415 23.908-50.118 49.981 1.068 93.647 1.167 187.326-0.018 280.971-0.375 29.607 19.468 50.818 50.669 50.467 103.013-1.156 206.049-0.436 309.074-0.434zM800.323 577.058h-68.075v179.313h-13.128c-32.224 0.002-64.449-0.067-96.673 0.034-16.192 0.054-23.485 7.199-23.551 23.182-0.133 31.474-0.49 62.958 0.189 94.418 0.236 11.021-2.383 14.742-14.196 14.699-128.145-0.465-256.292-0.328-384.438-0.342-38.969-0.002-77.939 0.061-116.906 0.038-4.386-0.002-8.773-0.369-14.348-0.621v-15.513c0.002-281.4 0.038-562.8-0.148-844.201-0.004-9.344 1.12-13.939 12.462-13.921 212.079 0.36 424.156 0.288 636.236 0.308h14.283v36.797h69.103c0-7.127 0.002-14.407 0-21.685-0.002-15.362 0.108-30.727-0.036-46.087-0.236-25.181-13.544-38.162-39.498-38.207-67.824-0.119-135.647-0.090-203.471-0.088-171.988 0.007-343.976-0.085-515.962 0.369-9.578 0.025-20.084 2.934-28.481 7.552-10.965 6.030-13.71 17.764-13.678 30.152 0.151 57.329 0 114.657-0.002 171.986-0.009 251.42-0.011 502.843 0.036 754.263 0.002 7.105-0.175 14.346 1.061 21.284 2.959 16.612 17.889 26.714 38.978 26.745 61.076 0.094 122.153 0.045 183.229 0.040 128.522-0.013 257.045-0.227 385.567 0.175 16.97 0.054 29.92-5.189 41.89-17.208 45.215-45.393 91.039-90.178 136.771-135.054 8.404-8.249 13.728-17.411 13.701-29.578-0.146-63.698-0.083-127.396-0.135-191.094-0.002-2.206-0.432-4.411-0.78-7.759zM617.533 241.755v148.746c15.369-1.679 30.741-1.61 45.096-5.389 16.657-4.389 26.271-18.058 27.611-34.794 1.787-22.296 2.595-44.909 0.985-67.178-1.859-25.731-17.408-39.338-43.259-41.267-9.659-0.722-19.414-0.117-30.433-0.117zM422.918 392.084c14.791-0.87 27.921-0.447 40.59-2.662 19.74-3.449 28.016-16.005 27.573-38.358-0.36-18.256-10.007-29.43-28.569-33.088-0.366-0.070-0.744-0.083-1.111-0.148-37.499-6.711-38.562-5.832-38.488 31.563 0.027 13.418 0.004 26.835 0.004 42.692z" />
<glyph unicode="&#xe90f;" glyph-name="sia-icon-phone" d="M811.45 406.203c-0.092-7.279 3.026-14.662 8.559-20.242 5.556-5.603 12.96-8.818 20.319-8.818 7.37 0 14.762 3.215 20.33 8.818 5.533 5.592 8.663 12.986 8.548 20.208 0 218.427-178.778 396.117-398.562 396.117-7.97-0.057-15.548-3.341-21.3-9.243-5.66-5.787-8.952-13.583-8.779-21.023 0.832-15.294 15.248-28.187 30.126-27.143 187.892 0 340.737-151.925 340.76-338.674zM469.543 943.988h-0.222c-7.891 0-15.432-3.206-21.246-9.039-5.883-5.891-9.164-13.645-9-21.469 0.84-15.416 15.409-28.447 30.445-27.359 267.125 0 484.451-215.461 484.451-480.212-0.117-7.349 3.047-14.802 8.65-20.45 5.615-5.648 13.098-8.888 20.534-8.888 7.448 0 14.919 3.241 20.545 8.888 5.592 5.636 8.755 13.089 8.638 20.369 0 296.74-243.498 538.16-542.795 538.16zM306.651 603.663c-45.419-40.399-67.813-89.715-63.071-138.868 4.953-51.832 36.389-92.022 61.821-116.547l82.544-81.934c24.742-25.29 65.208-56.482 117.485-61.433 49.52-4.743 99.226 17.556 139.879 62.627 9.369 10.378 16.086 16.292 19.976 17.579 2.301 0.788 7.792 2.597 25.315-6.528l135.195-102.493c11.857-11.781 10.911-14.796 8.364-22.878-2.64-8.43-11.962-21.359-24.882-34.52-79.063-78.502-148.021-107.699-223.58-94.735-69.776 12.001-150.662 64.448-247.259 160.331l-115.651 114.784c-96.598 95.907-149.435 176.183-161.526 245.431-13.060 74.977 16.378 143.437 95.394 221.88 13.341 12.883 26.354 22.124 34.847 24.756 2.944 0.904 5.222 1.612 7.465 1.612 3.96 0 7.815-2.192 15.046-9.334l103.256-133.963c9.719-18.228 7.897-23.632 7.114-25.962-1.928-5.763-13.82-16.338-17.733-19.805v0zM866.599 217.497c-36.681 28.919-75.173 57.804-112.38 85.737l-34.076 25.522c-27.079 14.46-52.475 18.402-73.526 11.41-20.42-6.795-32.616-20.35-43.398-32.328l-1.425-1.589c-29.544-32.723-58.339-46.556-90.78-43.46-27.791 3.154-57.545 19.318-81.715 44.457l-82.696 82.085c-25.233 23.898-41.529 53.432-44.672 80.925-3.107 32.212 10.806 60.865 43.76 90.178l1.565 1.391c12.079 10.703 25.782 22.855 32.593 43.112 7.056 20.884 3.072 46.115-11.974 73.759l-24.953 32.699c-28.235 37.059-57.428 75.383-87.1 112.407-22.593 22.449-53.959 31.030-81.75 22.449-23.889-7.398-42.16-22.89-58.316-38.497-90.406-86.085-128.162-177.991-112.193-273.202 14.579-83.557 69.461-168.831 177.939-276.495l115.639-114.784c108.478-107.688 194.387-162.152 278.684-176.646 12.546-1.89 25.151-2.818 37.779-2.818 82.206 0 165.229 39.645 237.295 114.17 15.747 16.025 31.343 34.149 38.819 57.931 8.668 27.609 0 58.697-22.616 81.146l-0.502 0.441z" />
<glyph unicode="&#xe910;" glyph-name="sia-icon-play" d="M512 903.114c250.323 0 455.11-204.8 455.11-455.11 0-250.323-204.787-455.123-455.11-455.123-250.31 0-455.11 204.8-455.11 455.123 0 250.31 204.8 455.11 455.11 455.11zM512-63.996c283.026 0 512 228.974 512 512s-228.974 512-512 512c-283.026 0-512-228.974-512-512s228.974-512 512-512zM421.266 584.101l233.316-136.101-233.316-136.101v272.203zM382.38 244.496c3.889-2.592 9.073-3.889 12.962-3.889s9.073 1.296 12.962 3.889l311.089 181.468c7.777 5.185 12.962 12.962 12.962 22.035s-5.185 18.147-12.962 22.035l-311.089 181.468c-7.777 5.185-18.147 5.185-25.924 0s-12.962-12.962-12.962-22.035v-362.937c0-9.073 5.185-18.147 12.962-22.035v0z" />
<glyph unicode="&#xe911;" glyph-name="sia-Icon-shopping" d="M749.025 12.492h-475.22c-43.308 0-79.593 29.597-80.764 66.609l51.502 609.477h69.059v-72.79c0-20.973 16.387-38.246 36.285-38.246s36.285 17.272 36.285 38.246v72.79h250.485v-72.79c0-20.973 16.387-38.246 36.285-38.246s36.297 17.272 36.297 38.246v72.79h69.047l51.502-610.699c-1.17-35.791-36.285-65.388-80.764-65.388v0zM511.415 883.508c64.377 0 118.22-51.817 125.243-118.439h-250.485c7.023 66.622 60.866 118.439 125.243 118.439v0zM847.346 730.525c-1.17 19.74-17.557 34.545-36.285 34.545h-101.821c-7.035 108.569-92.481 194.93-197.825 194.93s-190.79-86.361-197.813-194.93h-101.833c-18.728 0-35.115-14.805-36.285-34.545l-55.013-646.477v-3.701c0-78.959 69.059-144.347 153.334-144.347h476.402c84.264 0 153.323 64.154 153.323 144.347v3.701l-56.184 646.477z" />
<glyph unicode="&#xe912;" glyph-name="sia-icon-snapchat" d="M551.543 890.498h-0.043c-0.875 0-1.728 0-2.517 0-6.293-0.063-16.661-0.168-17.579-0.189-22.741 0-68.224-3.151-117.077-24.324-27.947-12.099-53.056-28.441-74.688-48.606-25.771-24.030-46.763-53.647-62.379-88.053-22.891-50.37-17.451-135.231-13.099-203.414l0.021-0.105c0.469-7.31 0.96-14.935 1.408-22.37-3.371-1.512-8.811-3.109-16.832-3.109-12.907 0-28.267 4.054-45.611 12.036-5.099 2.332-10.923 3.529-17.365 3.529-10.325 0-21.227-3.004-30.677-8.444-11.883-6.848-19.563-16.531-21.632-27.286-1.387-7.1-1.323-21.131 14.571-35.373 8.747-7.835 21.568-15.061 38.144-21.488 4.331-1.68 9.493-3.277 14.955-4.978 18.965-5.923 47.659-14.872 55.147-32.159 3.797-8.759 2.155-20.312-4.843-34.259-0.171-0.357-0.363-0.735-0.533-1.113-1.749-4.033-18.048-40.309-51.52-78.58-19.029-21.761-39.957-39.931-62.229-54.067-27.179-17.224-56.576-28.483-87.381-33.482-12.075-1.932-20.715-12.519-20.032-24.534 0.192-3.487 1.024-6.953 2.453-10.293l0.043-0.063c4.885-11.217 16.213-20.753 34.667-29.155 22.528-10.293 56.213-18.926 100.139-25.689 2.219-4.138 4.501-14.557 6.101-21.677 1.664-7.583 3.413-15.376 5.888-23.652 2.688-8.969 9.621-19.682 27.477-19.682 6.763 0 14.528 1.512 23.531 3.235 13.184 2.542 31.232 5.986 53.717 5.986 12.48 0 25.429-1.071 38.443-3.214 25.088-4.096 46.72-19.094 71.744-36.465 36.629-25.416 78.101-54.193 141.461-54.193 1.707 0 3.456 0.063 5.163 0.168 2.091-0.084 4.693-0.168 7.424-0.168 63.36 0 104.832 28.777 141.419 54.193l0.043 0.042c25.045 17.35 46.656 32.327 71.744 36.423 13.013 2.143 25.92 3.214 38.4 3.214 21.504 0 38.549-2.689 53.739-5.608 9.92-1.911 17.621-2.836 23.531-2.836l0.597-0.021h0.597c13.035 0 22.635 7.037 26.304 19.346 2.432 8.108 4.16 15.712 5.867 23.421 1.493 6.68 3.883 17.392 6.101 21.572 43.947 6.764 77.611 15.397 100.139 25.668 18.411 8.381 29.717 17.896 34.645 29.092 1.472 3.361 2.347 6.848 2.539 10.356 0.683 12.015-7.957 22.623-20.075 24.555-136.896 22.16-198.549 160.248-201.109 166.13-0.149 0.378-0.341 0.756-0.533 1.113-6.997 13.947-8.619 25.479-4.843 34.259 7.488 17.287 36.16 26.235 55.125 32.138 5.504 1.701 10.667 3.319 14.997 4.999 18.688 7.247 32.043 15.103 40.832 24.009 10.517 10.65 12.587 20.837 12.459 27.496-0.341 16.132-12.907 30.478-32.875 37.515-6.763 2.731-14.464 4.18-22.293 4.18-5.333 0-13.248-0.714-20.736-4.138-16.021-7.373-30.357-11.385-42.667-11.973-6.571 0.336-11.136 1.722-14.123 3.067 0.384 6.302 0.789 12.75 1.216 19.493l0.171 2.899c4.373 68.225 9.835 153.148-13.056 203.561-15.68 34.532-36.757 64.213-62.613 88.306-21.717 20.165-46.933 36.507-74.965 48.606-48.789 21.026-94.272 24.156-117.035 24.156z" />
<glyph unicode="&#xe913;" glyph-name="sia-icon-ticket" d="M375.465-3.529l-66.876 68.010c24.861 50.843 14.052 112.503-25.931 152.529-40.005 40.014-101.606 50.832-153.5 25.962l-67.006 67.069 148.074 148.201 32.427-32.453 30.276 30.289-32.427 32.453 401.007 401.323 72.421-72.478c-31.346-51.925-22.688-118.994 20.548-162.264s110.242-51.925 162.137-19.472l58.358-58.404-401.007-401.345-32.427 32.453-30.276-30.279 32.427-32.453-148.074-149.283-0.151 0.141zM373.195-64l642.861 639.614-115.603 115.673c0 0-9.242-10.201-26.547-21.019-35.67-21.635-79.977-15.155-110.253 14.052-29.174 29.218-34.578 74.652-14.052 110.351 10.809 17.297 20.137 27.444 20.137 27.444l-128.801 129.909-640.937-642.524 123.516-123.635c0 0 7.815 9.509 24.029 18.163 34.578 17.308 75.664 9.725 102.687-17.319s34.578-68.14 17.295-102.767c-8.658-17.297-18.354-23.831-18.354-23.831l124.024-124.111zM459.32 211.785l-38.869 38.859 27.768 27.768 38.859-38.869zM384.812 285.501l-38.869 38.859 27.768 27.768 38.859-38.869zM310.294 357.773l-38.859 38.869 27.758 27.758 38.869-38.869zM626.327 375.699c4.417 4.417 6.626 9.939 6.626 15.46s-2.209 11.043-6.626 15.46l-155.708 155.708c-8.834 8.834-22.086 8.834-30.921 0s-8.834-22.086 0-30.921l155.708-155.708c7.73-8.834 22.086-8.834 30.921 0zM692.943 442.326c4.417 4.417 6.637 9.939 6.637 15.46s-2.22 11.043-6.637 15.46l-155.699 155.708c-8.834 8.834-22.085 8.834-30.919 0-8.834-8.823-8.834-22.086 0-30.91l154.606-155.719c8.823-8.834 23.178-8.834 32.012 0z" />
<glyph unicode="&#xe914;" glyph-name="sia-icon-tv" d="M414.404 176.941h-59.265v230.176h-75.897v49.324h211.059v-49.324h-75.897v-230.176zM692.757 456.441h59.838l-95.015-279.5h-64.618l-94.824 279.5h59.838l52.574-166.324c2.931-9.814 5.958-21.252 9.081-34.316s5.066-22.145 5.831-27.243c1.402 11.726 6.181 32.245 14.338 61.559l52.956 166.324zM104.147 576.772c-12.896-1.82-23.162-11.723-25.444-24.545-12.291-69.062-18.468-149-18.468-239.757 0-90.504 6.143-170.249 18.366-239.18 2.292-12.923 12.688-22.874 25.7-24.598 112.31-14.88 243.642-22.339 393.931-22.339 152.718 0 293.347 7.702 421.87 23.089 13.105 1.569 23.662 11.488 26.044 24.47 11.712 63.856 17.619 143.428 17.619 238.558 0 95.362-5.936 175.090-17.705 239.025-2.373 12.892-12.812 22.768-25.815 24.424-118.566 15.099-259.264 22.669-422.013 22.669-159.761 0-291.181-7.296-394.085-21.816zM95.731 636.417c106.034 14.962 240.142 22.407 402.501 22.407 165.135 0 308.316-7.703 429.622-23.151 39.010-4.968 70.327-34.597 77.446-73.273 12.501-67.914 18.7-151.171 18.7-249.929 0-98.515-6.168-181.604-18.607-249.425-7.144-38.947-38.815-68.705-78.131-73.412-131.004-15.683-274.009-23.516-429.030-23.516-152.78 0-286.705 7.607-401.842 22.861-39.034 5.171-70.224 35.024-77.099 73.795-12.881 72.642-19.291 155.856-19.291 249.697 0 94.106 6.446 177.524 19.4 250.311 6.846 38.467 37.643 68.176 76.331 73.635z" />
<glyph unicode="&#xe915;" glyph-name="sia-icon-twitter" d="M858.369 686.101c40.981 23.962 72.412 61.958 87.241 107.232-38.382-22.195-80.774-38.323-126.087-46.982-36.085 37.651-87.705 61.171-144.805 61.171-109.485 0-198.338-86.803-198.338-193.862 0-15.206 1.713-29.952 5.118-44.16-164.913 8.102-311.067 85.21-409.007 202.637-17.086-28.723-26.837-62.074-26.837-97.574 0-67.219 35.017-126.586 88.269-161.357-32.479 0.941-63.124 9.754-89.921 24.173v-2.381c0-93.965 68.403-172.358 159.231-190.099-16.642-4.55-34.171-6.835-52.284-6.835-12.774 0-25.266 1.19-37.355 3.456 25.266-76.992 98.504-133.075 185.343-134.573-67.899-52.032-153.489-83.040-246.412-83.040-16.018 0-31.854 0.883-47.348 2.669 87.806-54.931 192.153-87.053 304.156-87.053 365.004 0 564.511 295.392 564.511 551.616 0 8.429-0.161 16.858-0.504 25.114 38.785 27.36 72.453 61.478 98.948 100.358-35.541-15.418-73.803-25.843-113.918-30.509z" />
<glyph unicode="&#xe916;" glyph-name="sia-icon-youtube" d="M967.479 631.202c0 0-9.449 68.971-38.423 99.347-36.791 39.88-78.014 40.066-96.913 42.385-135.335 10.125-338.328 10.125-338.328 10.125h-0.423c0 0-202.993 0-338.348-10.125-18.919-2.319-60.102-2.505-96.913-42.385-28.973-30.376-38.423-99.347-38.423-99.347s-9.671-81.022-9.671-162.003v-75.928c0-81.022 9.671-162.003 9.671-162.003s9.449-68.971 38.423-99.347c36.811-39.88 85.126-38.637 106.664-42.799 77.349-7.682 328.798-10.063 328.798-10.063s203.214 0.311 338.549 10.456c18.899 2.34 60.122 2.526 96.913 42.406 28.973 30.376 38.423 99.347 38.423 99.347s9.671 80.981 9.671 162.003v75.928c0 80.981-9.671 162.003-9.671 162.003v0zM393.74 301.233l-0.020 281.227 261.301-141.090-261.281-140.137z" />
</font>
</defs>
</svg>
