<svg xmlns="http://www.w3.org/2000/svg" xmlns:xlink="http://www.w3.org/1999/xlink" width="239" height="119" viewBox="0 0 239 119">
  <defs>
    <polygon id="logo-a" points="0 119 238.668 119 238.668 .07 0 .07"/>
  </defs>
  <g fill="none" fill-rule="evenodd">
    <polygon fill="#E74427" points="39.719 119 79.438 119 79.438 79.333 39.719 79.333"/>
    <polygon fill="#30B3E8" points="0 79.333 39.719 79.333 39.719 39.667 0 39.667"/>
    <polygon fill="#006943" points="39.719 79.333 79.438 79.333 79.438 39.667 39.719 39.667"/>
    <polygon fill="#F6A723" points="79.438 79.333 119.158 79.333 119.158 39.667 79.438 39.667"/>
    <polygon fill="#80BA27" points="0 39.667 39.719 39.667 39.719 0 0 0"/>
    <polygon fill="#E74892" points="39.719 39.667 79.438 39.667 79.438 0 39.719 0"/>
    <polygon fill="#80BA27" points="79.438 39.667 119.158 39.667 119.158 0 79.438 0"/>
    <polygon fill="#006943" points="119.158 119 238.315 119 238.315 0 119.158 0"/>
    <path fill="#F6A723" d="M156.545357,46.437898 C156.064979,46.5386221 154.962725,46.6274963 154.479969,46.659491 C154.479969,47.430919 155.00672,48.3315108 156.481148,48.3315108 C156.978173,48.3315108 157.699929,48.2663363 158.328939,47.9594241 L158.40266,47.9499442 L158.502541,47.9499442 L158.502541,49.1005687 L158.433576,49.1183436 C157.821212,49.3055719 157.111347,49.4122209 156.476392,49.4122209 C155.281392,49.4122209 154.421705,49.1361184 153.852148,48.5732485 C153.292103,48.0103787 153.020999,47.1678514 153.020999,46.007747 C153.028133,43.8498816 154.189839,42.5617984 156.137511,42.5617984 C157.749869,42.5665384 158.710625,43.257387 158.710625,44.4257864 C158.710625,45.5017566 158.028108,46.1428357 156.545357,46.437898 Z M156.074491,43.4671301 L156.073302,43.5631143 C154.690431,43.5690392 154.479969,44.7670633 154.479969,45.4816118 L154.479969,45.6605451 C156.814083,45.5847058 157.294461,45.1403349 157.294461,44.4945158 C157.294461,44.0963594 157.164854,43.5631143 156.074491,43.5631143 L156.074491,43.4671301 Z"/>
    <mask id="logo-b" fill="#fff">
      <use xlink:href="#logo-a"/>
    </mask>
    <polygon fill="#F6A723" points="133.721 41.758 135.16 41.758 135.16 40.23 133.721 40.23" mask="url(#logo-b)"/>
    <path fill="#F6A723" d="M207.538801 42.5670123C206.298617 42.5670123 205.04892 42.8087501 204.641075 42.9272491L204.568542 42.9473939 204.568542 49.2716812 206.006109 49.2716812 206.006109 43.9001252C206.444871 43.7970311 207.000159 43.7413366 207.580418 43.7413366 208.208239 43.7413366 208.713587 43.9321199 208.929995 44.252067 209.129756 44.5577942 209.129756 44.8658914 209.129756 46.1563446L209.129756 49.2716812 210.564945 49.2716812 210.564945 45.7581882C210.564945 44.6229686 210.564945 43.8728704 210.014413 43.2543061 209.595866 42.7980852 208.75996 42.5670123 207.538801 42.5670123M215.894764 42.5658274C215.27051 42.5658274 214.589182 42.6641815 213.869804 42.8620747L213.794894 42.8845895 213.794894 44.1572678 213.988709 44.1477879C214.65458 43.8728704 215.325207 43.7188218 215.88763 43.7188218 216.78061 43.7188218 217.067172 43.91553 217.256232 44.2579919 217.320441 44.3918957 217.362058 44.6063787 217.362058 44.8220468L217.362058 44.8967011C216.777043 44.9286958 216.357306 44.9713554 215.840068 45.0258649 214.030326 45.232053 213.226525 45.9383066 213.226525 47.320004 213.226525 48.6507468 214.205117 49.4126949 215.916167 49.4126949 216.958968 49.4126949 218.15159 49.1413324 218.697366 48.8758948L218.756819 48.847455 218.756819 44.8670764C218.756819 44.4345553 218.689043 44.0873535 218.558247 43.7899212 218.182505 42.9710937 217.313306 42.5658274 215.894764 42.5658274M215.516645 46.2061141C215.768724 46.1326448 216.106416 46.0722104 216.457187 46.0414006L216.826983 46.008221C217.027933 45.9916311 217.1837 45.9703013 217.362058 45.9631914L217.362058 48.1767512C217.060038 48.3153949 216.532098 48.4042691 216.027938 48.4042691 215.105232 48.4042691 214.666471 48.0369224 214.666471 47.2465347 214.666471 46.7085496 214.938764 46.3660877 215.516645 46.2061141M198.432782 42.5577694C196.338857 42.5577694 195.040409 43.8849573 195.040409 46.0120129 195.040409 48.1331436 196.273459 49.399897 198.344792 49.399897 200.508872 49.399897 201.791862 48.1141837 201.791862 45.9634284 201.791862 43.8968072 200.479145 42.5577694 198.432782 42.5577694M198.419702 48.300227C197.097474 48.300227 196.507702 47.5856786 196.507702 45.998978 196.507702 44.0650757 197.540991 43.6609944 198.409001 43.6609944 199.687235 43.6609944 200.330513 44.4513822 200.330513 46.0120129 200.330513 47.5276141 199.689613 48.300227 198.419702 48.300227M164.927955 42.5600209C164.243059 42.5600209 163.646154 42.8266435 163.081353 43.3788484L163.081353 42.6962947 161.679457 42.6962947 161.679457 49.2694297 163.107512 49.2694297 163.094432 44.6586368C163.207393 44.4666685 163.655666 43.8386242 164.647338 43.8386242 164.816184 43.8386242 164.975517 43.8563991 165.120582 43.8966887L165.241865 43.9286834 165.241865 42.5991256 165.165766 42.5849057C165.113447 42.5730558 165.032592 42.5600209 164.927955 42.5600209M187.725582 48.2338676C186.887299 48.2338676 186.793363 47.8309713 186.793363 47.532354L186.793363 43.7747533 187.987174 43.7747533 187.987174 42.6952282 186.793363 42.6952282 186.793363 40.9047095 185.383144 40.9047095 185.383144 42.6952282 184.756512 42.6952282 184.756512 43.7747533 185.383144 43.7747533 185.383144 47.6958826C185.383144 48.8062174 186.015721 49.4105619 187.16197 49.4105619 187.563871 49.4105619 187.830219 49.4105619 188.070408 49.3833072L188.158398 49.3726423 188.158398 48.199503 188.047816 48.2113529C187.945557 48.2267577 187.824274 48.2338676 187.725582 48.2338676M170.717581 42.5670123C169.465506 42.5670123 168.222944 42.8087501 167.813909 42.9272491L167.740188 42.9473939 167.740188 49.2716812 169.182511 49.2716812 169.182511 43.9001252C169.623651 43.7970311 170.178939 43.7413366 170.75682 43.7413366 171.383452 43.7413366 171.882855 43.9321199 172.101641 44.252067 172.304969 44.5577942 172.304969 44.8658914 172.304969 46.1563446L172.304969 49.2716812 173.741347 49.2716812 173.741347 45.7581882C173.741347 44.6229686 173.741347 43.8728704 173.193193 43.2543061 172.773457 42.7980852 171.93874 42.5670123 170.717581 42.5670123M179.100298 42.5658274C178.472477 42.5658274 177.788771 42.6641815 177.071771 42.8620747L176.999238 42.8845895 176.999238 44.1572678 177.194243 44.1477879C177.847034 43.8728704 178.521228 43.7188218 179.089597 43.7188218 179.988522 43.7188218 180.266761 43.91553 180.442741 44.2579919 180.517651 44.3978206 180.558079 44.6063787 180.558079 44.8220468L180.558079 44.8967011C179.979009 44.9286958 179.558084 44.9713554 179.038467 45.0258649 177.234671 45.232053 176.43087 45.9383066 176.43087 47.320004 176.43087 48.6507468 177.410651 49.4126949 179.113378 49.4126949L179.115756 49.4126949C180.158557 49.4126949 181.34999 49.1413324 181.898144 48.8758948L181.950462 48.847455 181.950462 44.8670764C181.950462 44.4392953 181.886253 44.0873535 181.755457 43.7899212 181.379716 42.9710937 180.511706 42.5658274 179.100298 42.5658274M178.706721 46.2061141C178.964746 46.1326448 179.31195 46.0722104 179.659154 46.0414006L180.032517 46.008221C180.231089 45.9916311 180.385666 45.9703013 180.558079 45.9631914L180.558079 48.1767512C180.260815 48.3153949 179.737631 48.4042691 179.231094 48.4042691 178.301253 48.4042691 177.862492 48.0369224 177.862492 47.2465347 177.862492 46.7085496 178.139542 46.3660877 178.706721 46.2061141M150.760368 48.1875346C150.567741 48.2384891 150.376303 48.2610039 150.068338 48.2610039 149.485701 48.2610039 149.236 47.918542 149.236 47.1222293L149.236 43.7793748 150.671189 43.7793748 150.671189 42.6962947 149.236 42.6962947 149.236 41.2126882 147.837671 41.2126882 147.837671 42.6962947 146.963716 42.6962947 146.963716 43.7793748 147.837671 43.7793748 147.837671 47.157779C147.837671 48.0038612 147.994626 48.5513262 148.339452 48.8843082 148.65693 49.2279551 149.156333 49.4128134 149.748482 49.4128134 150.180109 49.4128134 150.589144 49.351194 150.88284 49.235065L150.944671 49.2078103 150.873328 48.1484299 150.760368 48.1875346zM141.4163 42.5670123C140.167793 42.5670123 138.921663 42.8087501 138.519763 42.9272491L138.448419 42.9473939 138.448419 49.2716812 139.878852 49.2716812 139.878852 43.9001252C140.319992 43.7970311 140.87528 43.7413366 141.450783 43.7413366 142.088116 43.7413366 142.579196 43.9273799 142.80036 44.252067 143.007255 44.5577942 143.007255 44.8658914 143.007255 46.1563446L143.007255 49.2716812 144.442444 49.2716812 144.442444 45.7581882C144.442444 44.6229686 144.442444 43.8728704 143.887156 43.2543061 143.474554 42.7980852 142.638648 42.5670123 141.4163 42.5670123" mask="url(#logo-b)"/>
    <polygon fill="#F6A723" points="133.728 49.272 135.165 49.272 135.165 42.7 133.728 42.7" mask="url(#logo-b)"/>
    <polygon fill="#F6A723" points="190.834 49.272 192.27 49.272 192.27 42.7 190.834 42.7" mask="url(#logo-b)"/>
    <polygon fill="#F6A723" points="190.834 41.756 192.27 41.756 192.27 40.228 190.834 40.228" mask="url(#logo-b)"/>
    <path fill="#FEFEFE" d="M64.333806,105.575139 L64.333806,101.731034 C64.333806,101.349468 64.0210846,101.040185 63.6417761,101.040185 L59.6822239,101.040185 C59.3041045,101.040185 58.9913831,101.349468 58.9913831,101.731034 L58.9913831,105.575139 C58.9913831,105.950781 59.3041045,106.262433 59.6822239,106.262433 L63.6417761,106.262433 C64.0210846,106.262433 64.333806,105.950781 64.333806,105.575139 L64.333806,105.575139 Z M60.3694975,104.885475 L62.9556915,104.885475 L62.9556915,102.413588 L60.3694975,102.413588 L60.3694975,104.885475 Z" mask="url(#logo-b)"/>
    <path fill="#FEFEFE" d="M75.9445687 105.454744C74.9505189 105.454744 74.0111657 105.753361 73.2121209 106.312676L73.2121209 103.251849 75.7602652 103.264884 75.7662104 103.264884C76.0527726 103.264884 76.3107975 103.083581 76.4130562 102.814588 76.5117478 102.544411 76.4344592 102.243423 76.213295 102.05501L72.6687229 99.0546175 72.5521955 94.8242061C72.5391159 94.4509345 72.237096 94.1535022 71.8637328 94.1535022L69.3096433 94.1535022C68.933902 94.1535022 68.6235587 94.4651543 68.6235587 94.8443509L68.6235587 95.0730538 64.5415338 91.1377047C64.2751856 90.8805621 63.8542602 90.8734521 63.59029 91.1282248L51.8650214 102.121369C51.6569368 102.319263 51.5891607 102.61788 51.6937975 102.875023 51.7972453 103.13809 52.052892 103.308729 52.333509 103.308729L54.7996085 103.308729 54.8055537 113.424981 49.8222254 113.424981 49.8222254 92.206565C50.4500463 92.0157817 50.9494493 91.5216412 51.1599119 90.9018919L57.9244443 92.1259857 57.9470363 92.1259857C57.9862751 92.1259857 58.0255139 92.1082109 58.0528622 92.0774011 58.0802104 92.0430364 58.0861557 91.9885269 58.0671308 91.9446823 58.0088672 91.8214435 56.6497776 89.0023542 51.2241209 89.8377716 51.0267378 88.91585 50.2039119 88.2167064 49.2229418 88.2167064 49.1967826 88.2167064 49.1730015 88.2214463 49.1492204 88.2214463L47.9910811 81.4504181C47.9791905 81.4042035 47.945897 81.3674688 47.901902 81.350879 47.8555289 81.3354741 47.8043995 81.350879 47.7699169 81.3840587 47.6700363 81.4812278 45.4762303 83.7303373 48.1290114 88.5330985 47.5570761 88.8933352 47.1706333 89.5308594 47.1706333 90.2608127 47.1706333 90.5061055 47.2170065 90.7454733 47.3014294 90.9646963L41.7247627 95.4593603C41.687902 95.49254 41.6688771 95.5423095 41.6783896 95.5837841 41.6914692 95.6347387 41.7247627 95.6738433 41.7723249 95.6856932 41.8079965 95.6999131 42.0469965 95.7603475 42.4358174 95.7603475 43.5107229 95.7603475 45.7306881 95.269762 47.8983348 91.8107786 48.0588572 91.9506073 48.2431607 92.0631813 48.4441109 92.1449455L48.4441109 113.424981 43.6272502 113.424981C43.2491308 113.424981 42.9387876 113.731894 42.9387876 114.11109 42.9387876 114.491472 43.2491308 114.798384 43.6272502 114.798384L55.4940164 114.798384C55.6783199 114.798384 55.8531109 114.724915 55.9791507 114.599306 56.1111358 114.465402 56.1872353 114.297133 56.1872353 114.11109L56.1765338 102.62499C56.1765338 102.243423 55.8697577 101.940066 55.4868821 101.940066L54.0695289 101.940066 64.0552104 92.5762816 68.8316433 97.1929995C69.0314045 97.3814127 69.3227229 97.4394772 69.5795587 97.3280882 69.8352055 97.2202542 69.999295 96.9761464 69.999295 96.696489L69.999295 95.5304596 71.193106 95.5304596 71.302499 99.3994493C71.3108224 99.5902326 71.4011905 99.7727209 71.5450662 99.8983298L73.8827478 101.879632 72.5224692 101.874892C72.3453 101.874892 72.170509 101.944806 72.0349567 102.072785 71.9053498 102.200764 71.8304393 102.377327 71.8304393 102.561L71.8304393 105.512809C71.1300861 105.106357 70.3227179 104.887134 69.4773 104.887134 66.8756483 104.887134 64.7638871 106.99049 64.7638871 109.578506 64.7638871 109.890159 64.7995587 110.198256 64.8649567 110.514648 63.2074144 111.006418 62.0350065 112.51254 62.0350065 114.305428 62.0350065 114.679885 62.3453498 114.990352 62.7270363 114.990352 63.1051557 114.990352 63.4119318 114.679885 63.4119318 114.305428 63.4119318 112.953356 64.4416532 111.841836 65.7995537 111.725707 66.0195289 111.704377 66.2133448 111.588248 66.327494 111.402205 66.4416433 111.216162 66.4606682 110.985089 66.3845687 110.787195 66.2252353 110.386669 66.1443796 109.975478 66.1443796 109.578506 66.1443796 107.744143 67.6390214 106.258167 69.4773 106.258167 70.6330612 106.258167 71.6913199 106.853031 72.3096284 107.846052 72.4225886 108.028541 72.6164045 108.145855 72.8304343 108.167184 73.0468423 108.188514 73.2561159 108.10912 73.4023697 107.950331 74.0741856 107.223933 74.9743 106.828147 75.9445687 106.828147 76.3238771 106.828147 76.6306532 106.517679 76.6306532 106.137298 76.6306532 105.762841 76.3238771 105.454744 75.9445687 105.454744M49.8864343 90.2608127C49.8864343 90.6293443 49.5891706 90.9279616 49.2229418 90.9279616 48.8519567 90.9279616 48.5511259 90.6293443 48.5511259 90.2608127 48.5511259 89.8910961 48.8519567 89.5889238 49.2229418 89.5889238 49.5891706 89.5889238 49.8864343 89.8910961 49.8864343 90.2608127M36.3608179 65.460174C34.3750965 63.7206098 31.9815294 62.8022432 29.4488428 62.8022432 27.0826239 62.8022432 24.8329323 63.6222557 22.979196 65.0869024 22.3121363 64.4304184 21.718798 63.6637304 21.2253403 62.8022432 21.0362806 62.4751862 20.6141662 62.3614273 20.284798 62.5474706 19.9530517 62.7346988 19.8412806 63.156555 20.0291512 63.487167 20.5749274 64.4327884 21.2241512 65.2729457 21.9530418 66.007639 21.2300965 66.7352223 20.5856289 67.5789346 20.0434199 68.522186 19.8614945 68.8480581 19.9708876 69.2710992 20.3026338 69.4571425 20.4120269 69.5187619 20.5297433 69.5495717 20.6462706 69.5495717 20.8805144 69.5495717 21.1147582 69.4263328 21.2443652 69.2011848 21.7342557 68.3420677 22.3192706 67.5789346 22.9803851 66.9224506 24.8329323 68.3716924 27.063599 69.1751151 29.4167383 69.1751151 31.9708279 69.1751151 34.3727184 68.2484535 36.3608179 66.4958545 36.5736587 66.3145512 36.646191 66.0135639 36.5510667 65.7445714 36.5118279 65.6367374 36.4476189 65.5348283 36.3608179 65.460174M29.4167383 67.8028976C27.4714448 67.8028976 25.6141413 67.1630034 24.0434 65.9993441 25.6224647 64.8273898 27.4880915 64.1780157 29.4488428 64.1780157 31.3834348 64.1780157 33.2217134 64.79895 34.819803 65.9791992 33.2217134 67.1772233 31.3679771 67.8028976 29.4167383 67.8028976M21.7334234 71.865396C19.8808761 70.2395909 17.6466423 69.3816587 15.2792343 69.3816587 13.0711597 69.3816587 10.9843687 70.1317569 9.25905025 71.4850145 8.65263234 70.886595 8.11280149 70.1886363 7.66214975 69.4053585 7.47071194 69.0747465 7.04978657 68.9586176 6.71922935 69.1482158 6.3922393 69.3378141 6.276901 69.7573003 6.46477164 70.0843573 6.96655274 70.9565093 7.56226915 71.7374172 8.23170697 72.4116761 7.56821443 73.078825 6.97844328 73.8561779 6.47785124 74.722405 6.29354776 75.0542019 6.40650796 75.4725031 6.73944328 75.6644714 6.84645821 75.7225358 6.96417463 75.7533456 7.07951294 75.7533456 7.31613483 75.7533456 7.55275672 75.6253667 7.68117463 75.4049587 8.1282592 74.6287908 8.65857761 73.9272772 9.26142836 73.3205628 10.9796124 74.6607855 13.0580801 75.4049587 15.2471299 75.4049587 17.6014582 75.4049587 19.9034682 74.5138469 21.7369905 72.8975216 21.9736124 72.6948885 22.0342542 72.3536116 21.8951348 72.0751391 21.8594632 71.9957449 21.8000104 71.9234605 21.7334234 71.865396M15.2471299 74.0339263C13.4647368 74.0339263 11.7667667 73.4532816 10.3232542 72.4069361 11.7715229 71.3428158 13.4837617 70.7550612 15.2792343 70.7550612 17.0402244 70.7550612 18.726304 71.3143761 20.1888413 72.3844213 18.7191697 73.4651314 17.0295229 74.0339263 15.2471299 74.0339263M37.5371498 54.7952713C34.0615428 51.7273343 29.9616821 49.9202258 25.5871498 49.4865197 25.1246075 48.9118 23.5574333 47.3938288 19.4373587 46.4624273 19.0639955 46.3794781 18.6977667 46.6129209 18.6145328 46.9885625 18.5324881 47.3523542 18.7607866 47.7149609 19.1329607 47.80739 21.1745677 48.2588709 22.4944184 48.8726953 23.3267567 49.3893506 18.4528214 49.4367502 13.8357219 51.207124 10.0664184 54.3461604 8.44454776 52.8175243 7.01173682 51.0104158 5.83100547 48.9509046 5.64075672 48.6274026 5.22220945 48.5089036 4.89165224 48.6985019 4.56228408 48.8845452 4.44456766 49.3028464 4.63719453 49.6358284 5.86310995 51.7771038 7.34586119 53.6647916 9.02956269 55.2514921 7.33278159 56.8524125 5.84051791 58.7424703 4.59795572 60.8813758 4.41127413 61.2143577 4.52661244 61.6314739 4.85716965 61.8246271 4.96299552 61.8815066 5.08071194 61.9135013 5.20080647 61.9135013 5.4362393 61.9135013 5.66572687 61.7867075 5.79652289 61.5734094 6.98201045 59.5008633 8.427901 57.6925698 10.0664184 56.1734137 12.2840055 58.0350317 14.8024234 59.4202841 17.4980104 60.2509615 16.8927816 60.6431929 16.2613935 60.9441802 15.6133587 61.1764381 15.250697 61.3044169 15.0675826 61.7002033 15.1960005 62.05807 15.2982592 62.3377275 15.5622294 62.5071809 15.8464134 62.5071809 15.923702 62.5071809 16.0033687 62.497701 16.075901 62.4716312 17.1936124 62.0687349 18.2328463 61.4845353 19.226896 60.7095523 20.6537617 61.0212045 22.1210552 61.187103 23.614508 61.187103 28.7179308 61.187103 33.5288463 59.3361499 37.5323935 55.8321368 37.6275179 55.7456326 37.7012393 55.6271337 37.7381 55.5062648 37.8177667 55.2514921 37.7381 54.9694647 37.5371498 54.7952713M28.5645428 59.1666964C27.4254284 58.2649196 26.7417219 56.8571525 26.7417219 55.3593261 26.7417219 54.5523485 26.9426721 53.7631457 27.3112791 53.0604471 27.4860701 52.7227252 27.3600303 52.306794 27.0187716 52.1290456 26.6834582 51.9524822 26.2684781 52.0804611 26.091309 52.416998 25.6156871 53.3164048 25.3659856 54.3331255 25.3659856 55.3593261 25.3659856 56.914032 25.9414881 58.3988234 26.9426721 59.5221932 25.8511199 59.7165314 24.7381647 59.8148855 23.614508 59.8148855 22.5633836 59.8148855 21.5372294 59.7283813 20.5265328 59.5601128 20.8499557 59.2330558 21.1745677 58.8917789 21.4920453 58.5173223 21.7369905 58.227 21.702508 57.7944789 21.4111896 57.5480012 21.1234383 57.3086334 20.6858662 57.341813 20.4409209 57.6309504 19.9308164 58.2305549 19.4111995 58.7543202 18.878503 59.2164659 16.0568761 58.5007325 13.425498 57.1569547 11.1175428 55.260972 14.6704383 52.3636735 18.9926522 50.7568281 23.5455428 50.7568281 28.0960552 50.7568281 32.393299 52.3269388 36.022294 55.3071866 33.7559557 57.1510298 31.2375378 58.4521479 28.5645428 59.1666964" mask="url(#logo-b)"/>
    <path fill="#FEFEFE" d="M31.0972294 55.9328609C31.6216025 55.9328609 32.0508512 55.4908599 32.0508512 54.9445799 32.0508512 54.3982999 31.6216025 53.951559 31.0972294 53.951559 30.5716672 53.951559 30.1459856 54.3982999 30.1459856 54.9445799 30.1459856 55.4908599 30.5716672 55.9328609 31.0972294 55.9328609M115.172316 12.8519865L115.060545 12.3388861 112.798963 12.3388861C112.970187 12.2002424 113.122386 12.0497488 113.266262 11.8838503 114.77755 10.1525811 114.467207 7.83355724 114.456505 7.73401815L114.206804 5.96838426 113.257938 7.48161545C112.112879 9.31005377 109.891724 9.20458973 109.798978 9.19866479L105.278192 9.19510982C104.130754 8.90478747 102.762152 8.95218704 101.269889 9.0114365 100.644446 9.03158131 99.9999781 9.06120604 99.344809 9.06120604 98.6836945 9.06120604 98.041605 9.03158131 97.4221075 9.0114365 95.9536249 8.95218704 94.6111821 8.90478747 93.4815801 9.19510982L89.0713761 9.19510982 89.0297592 9.19866479C88.939391 9.20458973 86.7182368 9.31005377 85.5672318 7.48161545L84.6183662 5.96838426 84.3734209 7.73401815C84.3579632 7.83355724 84.0559433 10.1525811 85.5648537 11.8838503 85.7039731 12.0497488 85.8585502 12.2002424 86.0226398 12.3388861L83.768192 12.3388861 83.6564209 12.8519865C83.6433413 12.9112359 83.375804 14.2277589 84.3960129 15.4933274 85.4661622 16.8134053 87.504202 17.5315088 90.4518687 17.6452677 90.3745801 18.707018 89.9500876 25.9662618 92.783605 28.0471028 92.7467443 28.3469051 92.7289085 28.6656672 92.7289085 29.0223489 92.7289085 32.9707329 94.9774109 34.9721796 99.411396 34.9745496L99.4137741 34.9745496 99.4173413 34.9745496C103.848948 34.9721796 106.099829 32.9707329 106.099829 29.0223489 106.099829 28.6656672 106.079615 28.3421651 106.04751 28.0471028 108.873894 25.9650768 108.45059 18.707018 108.374491 17.6452677 111.325724 17.5315088 113.362575 16.8134053 114.436292 15.4933274 115.4565 14.2277589 115.183018 12.9112359 115.172316 12.8519865L115.172316 12.8519865zM85.4257343 14.6993846C85.1070677 14.3178181 84.9810279 13.9315116 84.9394109 13.6388193L89.8109682 13.6388193C89.9536547 13.6447442 90.0975303 13.6447442 90.242595 13.6447442L90.3840925 13.6447442C90.3555552 13.9718012 90.3400975 14.3178181 90.3400975 14.6887197 90.3400975 15.2646244 90.4435453 15.8286793 90.6266597 16.3536295 87.4066995 16.2564604 86.0202617 15.4103781 85.4257343 14.6993846L85.4257343 14.6993846zM90.5743413 12.3388861L89.8276149 12.3388861C88.3531871 12.2725267 87.2497443 11.8388207 86.5517692 11.038953 86.1463015 10.5779922 85.9215701 10.048302 85.7931522 9.55771651 87.2271522 10.5495525 88.8537791 10.5068929 89.0939682 10.495043L91.4019234 10.495043C91.024993 10.9808885 90.7515104 11.588788 90.5743413 12.3388861L90.5743413 12.3388861zM93.1569682 26.6144509C91.8537642 25.0218254 91.5648239 20.9584975 91.7265353 18.1405932 92.2152368 18.6631734 92.8228438 19.0980645 93.523197 19.4132716 93.4423413 19.5507303 93.3900229 19.7166288 93.3900229 19.8920072 93.3900229 20.4252524 93.8097592 20.8506635 94.3305652 20.8506635 94.6361522 20.8506635 94.9025005 20.7025398 95.0761025 20.4738369 94.7538687 21.8199846 94.1902567 24.0963489 93.5600577 26.0053665 93.4031025 26.1760049 93.2687393 26.384563 93.1569682 26.6144509L93.1569682 26.6144509zM99.4137741 33.6769865C96.9048687 33.6769865 95.3376945 33.0181325 94.5778886 31.6103653 95.6123662 31.8829128 97.2580179 32.2040449 99.2865453 32.2040449L99.4375552 32.2040449 99.541003 32.2040449C101.567152 32.2040449 103.215182 31.8829128 104.250849 31.6103653 103.493421 33.0181325 101.92268 33.6769865 99.4137741 33.6769865L99.4137741 33.6769865zM104.732416 30.0070749C104.149779 30.2037831 102.185461 30.8081276 99.541003 30.8081276L99.4446896 30.8081276C96.7086746 30.8211625 94.6849035 30.2037831 94.0963214 30.00352 94.0547045 29.6954228 94.0321124 29.3695508 94.0321124 29.0223489 94.0321124 28.8505255 94.0380577 28.690552 94.045192 28.5400583L96.0487493 28.8185308C96.0844209 28.8232707 96.1117692 28.8232707 96.1426846 28.8232707 96.4625403 28.8232707 96.7407791 28.5921978 96.7871522 28.2698808 96.8382816 27.917939 96.5885801 27.588512 96.2330527 27.5351875L94.2960826 27.259085C94.3793164 27.0635618 94.478008 26.9012183 94.6016697 26.7933843 95.1034507 26.3336085 96.1426846 26.4378875 97.3483861 26.5516465 97.9702617 26.6085259 98.6777493 26.6748853 99.411396 26.6748853L99.4137741 26.6748853 99.4173413 26.6748853C100.146232 26.6748853 100.85253 26.6085259 101.477973 26.5516465 102.683675 26.4378875 103.724098 26.3336085 104.22469 26.7933843 104.350729 26.9012183 104.451799 27.0635618 104.533844 27.259085L102.595685 27.5351875C102.237779 27.588512 101.991645 27.917939 102.041585 28.2698808 102.086769 28.5921978 102.365008 28.8232707 102.683675 28.8232707 102.715779 28.8232707 102.744316 28.8232707 102.77761 28.8185308L104.781167 28.5400583C104.787112 28.690552 104.796625 28.8505255 104.796625 29.0223489 104.796625 29.3695508 104.774033 29.6954228 104.732416 30.0070749L104.732416 30.0070749zM105.671769 26.6144509C105.558809 26.384563 105.425635 26.1760049 105.263923 26.0053665 104.640859 24.0963489 104.068923 21.8199846 103.749068 20.4773919 103.921481 20.7025398 104.189018 20.8506635 104.494605 20.8506635 105.0166 20.8506635 105.438714 20.4252524 105.438714 19.8920072 105.438714 19.7166288 105.389963 19.5566553 105.306729 19.4132716 106.003515 19.1039894 106.606366 18.6631734 107.103391 18.1405932 107.259157 20.9584975 106.974973 25.0230104 105.671769 26.6144509L105.671769 26.6144509zM104.477958 18.3491513C103.933371 18.5482295 103.344789 18.7010931 102.728859 18.8124821 102.556446 18.8456618 102.401869 18.9475708 102.307933 19.0921395 102.206864 19.2378932 102.172381 19.4180116 102.21162 19.59102 102.219943 19.6206447 102.848953 22.4989834 103.649187 25.1948338 102.971426 25.1047747 102.197351 25.179429 101.35669 25.2611932 100.728869 25.3192577 100.087968 25.3749522 99.4137741 25.3749522 98.7407692 25.3749522 98.0974905 25.3192577 97.4720478 25.2611932 96.6313861 25.179429 95.8585005 25.1047747 95.1807393 25.1948338 95.978595 22.4989834 96.608794 19.6206447 96.6183065 19.59102 96.6539781 19.4180116 96.6206846 19.2378932 96.520804 19.0921395 96.4209234 18.9475708 96.2699134 18.8456618 96.0963114 18.8124821 95.4815701 18.7010931 94.8929881 18.5482295 94.3507791 18.3491513 92.7075055 17.7507318 91.6433015 16.3097849 91.6433015 14.6887197 91.6433015 12.8934611 91.9655353 11.7072869 92.6385403 11.0602828 92.9179682 10.7924752 93.261605 10.6135419 93.6646945 10.495043L93.7717095 10.495043 93.7717095 10.4618633C94.7051174 10.2106456 95.9357891 10.2533052 97.3721672 10.3089997 98.0023662 10.3315145 98.6599134 10.3552142 99.344809 10.3552142 100.023759 10.3552142 100.683685 10.3315145 101.317451 10.3089997 102.760963 10.2533052 104.068923 10.2082756 105.058217 10.4831931L105.058217 10.495043 105.07962 10.495043C105.513625 10.6159119 105.882232 10.8031402 106.180685 11.0875376 106.859635 11.7416516 107.189003 12.9195308 107.189003 14.6887197 107.189003 16.3097849 106.122421 17.7507318 104.477958 18.3491513L104.477958 18.3491513zM109.737147 10.495043C109.971391 10.5068929 111.600396 10.5495525 113.036774 9.55771651 112.908356 10.048302 112.676491 10.5779922 112.275779 11.038953 111.574237 11.8388207 110.476739 12.2725267 109.008257 12.3388861L108.246073 12.3388861C108.064147 11.588788 107.782341 10.9808885 107.387575 10.495043L109.737147 10.495043zM113.422028 14.6721299C112.832257 15.3985282 111.448197 16.2564604 108.203267 16.3536295 108.38757 15.8286793 108.487451 15.2646244 108.487451 14.6887197 108.487451 14.3178181 108.468426 13.9718012 108.439889 13.6447442L108.594466 13.6494842C108.743098 13.6494842 108.886973 13.6447442 109.02966 13.6388193L113.892894 13.6388193C113.848899 13.9232167 113.725237 14.3047832 113.422028 14.6721299L113.422028 14.6721299zM35.6710473 29.2832835C35.1704552 26.1904618 31.4201766 20.6387874 30.9160174 19.9005391L29.8220871 16.9072565C29.8030622 16.851562 29.776903 16.8017924 29.7376642 16.7484679L25.2596841 10.3969259 25.801893 4.40088056C25.8256741 4.14255292 25.7020124 3.89726016 25.4867935 3.75861642 25.2715746 3.62471264 24.9933358 3.6187877 24.7721716 3.74795152 24.627107 3.83090076 22.1241468 5.30502731 19.9529328 7.73188517 18.3441418 7.51977211 12.3132562 7.1808652 4.35372388 12.3450481 4.0326791 12.5536062 3.94587811 12.9825723 4.15515174 13.2965944 4.28713682 13.5004125 4.50592289 13.6070616 4.72589801 13.6070616 4.8626393 13.6070616 4.99224627 13.5762518 5.10758458 13.4992276 11.5522612 9.31621572 16.6877886 8.94294412 18.9041866 9.02826334 18.5248781 9.55795351 18.1657836 10.1137134 17.8685199 10.6955431 17.6901617 11.03682 17.8221468 11.4527512 18.1610274 11.6281296 18.499908 11.805878 18.913699 11.6648643 19.0849229 11.3295123 20.4202313 8.76164078 22.8601716 6.74715916 24.3001169 5.70555366L23.8625448 10.5497895C23.8435199 10.7571626 23.9243756 10.9479458 24.063495 11.0889595L28.5557438 17.4642014 29.6484851 20.4515591C29.6698881 20.5036986 29.6984254 20.5582081 29.7305299 20.6008678 29.7673905 20.6541923 32.7221915 24.9414832 33.8874652 28.02601 33.66749 27.9691305 33.4689179 27.9513557 33.317908 27.9572806 32.5319428 27.9821654 31.7745149 28.5177805 31.4439577 29.2939484 31.1621517 29.9421375 31.254898 30.6163964 31.6865249 31.097502 31.819699 31.2515506 32.0099478 31.3285749 32.2049527 31.3285749 32.363097 31.3285749 32.5271866 31.2740654 32.6544154 31.1555665 32.9421667 30.8996088 32.9671368 30.4706427 32.7150572 30.1850603 32.6282562 30.0855212 32.6627388 29.9421375 32.7091119 29.8354885 32.8268284 29.557016 33.1074453 29.3626778 33.361903 29.3271281 33.6139826 29.2939484 34.2560721 29.3745277 34.2501269 30.1743954 34.2394254 30.9754481 33.5806891 32.8181063 31.6710672 32.96149 31.6603657 32.96149 31.6520423 32.962675 31.6413408 32.962675 31.4332562 32.5787385 30.9469328 32.0585282 30.1110274 31.2266658 29.842301 30.9588583 29.4011617 30.9588583 29.1348134 31.2266658 28.8672761 31.4932884 28.8672761 31.9258094 29.1348134 32.193617 29.4843955 32.5420038 29.8755945 32.9520101 30.1359975 33.2470724 29.5081766 33.5682044 28.6151965 33.2944719 27.9719179 32.7837416 27.0123507 32.0217936 26.4190124 30.6637959 27.6377935 29.1173851 27.8756045 28.8223227 27.8232861 28.3909867 27.5212662 28.1551738 27.2228134 27.918176 26.7899975 27.9738705 26.5557537 28.2713028 26.2953507 28.6007298 26.1003458 28.9360817 25.9469577 29.2607687L21.4392512 25.7401659C21.2561368 25.5967822 21.0135697 25.5541226 20.7876493 25.6299619 20.7650572 25.6358868 18.61049 26.3516203 16.7959925 24.7566248 16.5260771 24.516072 16.3025348 24.2387846 16.1146642 23.9449072 16.0849378 23.8347033 16.0254851 23.7410891 15.9470075 23.6557699 15.0516493 21.9233157 15.4214453 19.4609082 17.0195348 17.5898102 17.2668582 17.3006729 17.2311866 16.8657818 16.9410572 16.6181191 16.6521169 16.3751963 16.2169229 16.410746 15.9731667 16.6998834 14.0647338 18.934773 13.6212164 21.8818411 14.6354801 24.083551L5.86382338 35.805464C5.63195771 36.1100063 5.69735572 36.5389723 6.00294279 36.7617503 6.12779353 36.8553645 6.27166915 36.902764 6.41316667 36.902764 6.62362935 36.902764 6.83052488 36.8055949 6.96726617 36.6254766L15.4273905 25.3194947C15.5700771 25.4818382 15.719898 25.6394418 15.8863657 25.7828255 17.8066891 27.4714351 19.9886045 27.2225873 20.8601816 27.0282491L25.5878632 30.7254154C25.5486244 32.0016487 26.2049826 33.1356834 27.1157985 33.8644517 27.8708483 34.4581313 28.7186443 34.7567486 29.5081766 34.7567486 30.1585896 34.7567486 30.7673856 34.5458205 31.2489527 34.1429242 31.3726144 34.2602381 31.5402711 34.3313375 31.7221965 34.3313375L31.7745149 34.3313375C33.4879428 34.3242276 36.0491667 31.6639268 35.6710473 29.2832835M112.452235 66.2714176C112.452235 65.9099959 112.159727 65.6232285 111.799444 65.6232285 111.436782 65.6232285 111.149031 65.9099959 111.149031 66.2714176 111.149031 66.6292843 111.436782 66.9231616 111.799444 66.9231616 112.159727 66.9231616 112.452235 66.6292843 112.452235 66.2714176M106.86344 49.7371449C106.86344 49.3780932 106.570932 49.0842159 106.211838 49.0842159 105.849176 49.0842159 105.559047 49.3780932 105.559047 49.7371449 105.559047 50.0985666 105.849176 50.391259 106.211838 50.391259 106.570932 50.391259 106.86344 50.0985666 106.86344 49.7371449M87.1139542 64.6073373L82.7762826 64.6073373C82.3981632 64.6073373 82.0878199 64.9106945 82.0878199 65.289891 82.0878199 65.6702726 82.3981632 65.9748148 82.7762826 65.9748148L86.4219244 65.9748148 86.4219244 76.2273412C86.4219244 76.6029828 86.7322677 76.91108 87.1139542 76.91108 87.4920736 76.91108 87.7976607 76.6029828 87.7976607 76.2273412L87.7976607 65.289891C87.7976607 64.9106945 87.4920736 64.6073373 87.1139542 64.6073373" mask="url(#logo-b)"/>
    <path fill="#FEFEFE" d="M117.292044 66.1706935C117.154114 66.1031491 117.004293 66.0948542 116.861606 66.119739 116.833069 66.114999 116.809288 66.1055191 116.779562 66.1055191 115.051865 66.007165 113.946044 64.361215 113.936532 64.3434402 113.881835 64.2581209 113.803358 64.1822816 113.715368 64.1277721L111.683273 62.9155282 113.118462 61.3051279C113.273039 61.1309345 113.327736 60.8903817 113.268283 60.6711587 113.210019 60.4483807 113.039985 60.2706323 112.81882 60.195978 110.875905 59.5477889 109.079243 60.0632592 108.011472 60.5348849L107.010288 59.9281705C104.90685 58.6412722 102.167268 58.0499626 100.930651 57.8319246L103.880696 53.6892024C104.446686 53.948715 105.04597 53.9688598 105.167253 53.9747848L107.394353 53.9866347C107.746313 54.3670162 108.232636 54.5909791 108.786736 54.606384 108.811706 54.606384 108.841432 54.608754 108.864024 54.608754 109.789109 54.608754 110.745109 54.063659 111.319422 53.2092818 112.320606 51.7280453 111.570313 50.3996724 110.805751 49.8522074L104.64288 44.852738C104.6298 44.8361481 104.616721 44.8361481 104.602452 44.8195583 102.787955 43.3821664 100.245756 43.3643916 98.4062881 44.7840086 97.4027259 45.5578066 96.8545716 46.7072461 96.8058204 47.8803854L94.8308005 49.3521419C90.6239249 48.2607669 86.7190692 49.458791 85.9009995 49.7360784L81.8677259 49.4244263C81.4919846 49.3924316 81.1578602 49.679199 81.1257557 50.0524706 81.0948403 50.4340371 81.3802134 50.7587241 81.7595219 50.7907188L85.9414274 51.1177758C85.9592632 51.1177758 85.97591 51.1237008 85.9925567 51.1237008 86.0769796 51.1237008 86.1578353 51.100001 86.2398801 51.0751162 86.2767408 51.0585264 90.4622134 49.5192254 94.7844274 50.7587241 94.993701 50.8227135 95.2148652 50.7883488 95.3896562 50.6532601L97.035308 49.4244263C97.1791836 49.8332476 97.3872682 50.226664 97.666696 50.5857157 98.231497 51.315669 99.0483776 51.7778148 99.9663279 51.8939438 100.112582 51.9117186 100.264781 51.9211985 100.406278 51.9211985 101.168462 51.9211985 101.910432 51.6759057 102.519228 51.1983551 103.131592 50.7255444 103.52398 50.0429906 103.62386 49.2739327 103.720174 48.5119846 103.512089 47.7476666 103.0329 47.1421371 102.804601 46.8387799 102.367029 46.7842704 102.069766 47.0200832 101.768935 47.2511561 101.71186 47.6801222 101.947293 47.9811095 102.196995 48.3022415 102.306388 48.7003979 102.255258 49.0997392 102.201751 49.5085605 101.997233 49.8652423 101.677378 50.117645 101.236238 50.4553669 100.688084 50.6034905 100.137552 50.5323912 99.5870194 50.4636618 99.0959398 50.1840044 98.7546811 49.7467433 97.8212731 48.5416093 98.0424373 46.8056002 99.2493279 45.8682737 100.587014 44.8361481 102.445507 44.852738 103.764169 45.9121183 103.772492 45.9192283 103.782004 45.9227832 103.790328 45.9287082L109.956766 50.9329175C109.9639 50.9364725 109.978169 50.9483224 109.990059 50.9566173 110.230248 51.1343657 110.727273 51.6296912 110.17793 52.4508887 109.854507 52.9248843 109.298029 53.2472014 108.834298 53.2317965 108.528711 53.2258716 108.400293 53.071823 108.332517 52.959249 108.212422 52.7495059 107.990069 52.6167872 107.743935 52.6167872L105.185089 52.5990123C104.88188 52.5942724 104.263572 52.4544436 104.204119 52.2257407 104.110184 51.8548391 103.738009 51.6273212 103.367024 51.7244903 102.997228 51.8121795 102.779631 52.1866361 102.866432 52.5551677 102.88189 52.5990123 102.898537 52.6428569 102.909238 52.6843315L97.1137856 60.8299472C97.0579 60.9022316 97.0198502 60.9875508 97.0032035 61.078795 96.9663428 61.2245486 96.1875119 64.6764221 93.4360393 64.6764221L91.2065617 64.6764221 91.2065617 61.7376489C91.2065617 61.3631924 90.8985965 61.0539102 90.5228552 61.0539102 90.1387905 61.0539102 89.8332035 61.3631924 89.8332035 61.7376489L89.8332035 76.2253268C89.8332035 76.6068933 90.1387905 76.9114355 90.5228552 76.9114355 90.8985965 76.9114355 91.2065617 76.6068933 91.2065617 76.2253268L91.2065617 72.7900431C92.5109547 72.804263 93.8391289 72.8090029 95.0638552 72.8090029 96.9663428 72.8090029 98.5989149 72.797153 99.4181736 72.7900431L99.4181736 76.2253268C99.4181736 76.6068933 99.7225716 76.9114355 100.105447 76.9114355 100.482378 76.9114355 100.795099 76.6068933 100.795099 76.2253268L100.795099 71.4533753C100.795099 71.0718088 100.482378 70.7684515 100.105447 70.7684515 99.7344622 70.7684515 99.4419547 71.0575889 99.4193627 71.4154556 98.0852433 71.4273055 94.5406711 71.4486353 91.2065617 71.4154556L91.2065617 66.0462696 93.4360393 66.0462696C96.4395915 66.0462696 97.9140194 63.159636 98.3123527 61.508946L100.041238 59.0844581C100.062641 59.0844581 100.087611 59.0903831 100.109014 59.0951231 100.142308 59.101048 103.804597 59.5785986 106.292099 61.1084197L106.747507 61.3797822C106.671407 61.5812304 106.685676 61.8253381 106.821228 62.0161214 107.038825 62.3313285 107.464507 62.4107228 107.776039 62.1974247 107.793875 62.1843899 109.37294 61.1297495 111.29683 61.2755032L110.099452 62.6169109C109.967467 62.7709595 109.909203 62.9735927 109.936552 63.1785958 109.967467 63.380044 110.086373 63.5566073 110.261164 63.6620714L112.884218 65.2309971C113.201696 65.6706281 114.294437 66.9847811 115.986462 67.3710875 115.822373 67.7727989 115.680875 68.1531804 115.550079 68.5003822 115.251626 69.299065 114.974577 70.0503481 114.674935 70.1641071 114.55484 70.2115066 114.223094 70.2292815 113.416915 69.8097953 113.080412 69.6332319 112.661865 69.7647657 112.487074 70.1013026 112.424054 70.2174316 112.401462 70.3513354 112.414542 70.4745742 111.450218 70.9450149 108.776034 71.9451458 103.784383 71.6536385L103.784383 71.6358636C105.062616 70.8762856 105.248109 68.9127585 105.261189 68.6662807 105.289726 68.2906392 105.001975 67.9588422 104.626233 67.9327724 104.245736 67.9067027 103.91399 68.1899151 103.889019 68.5714816 103.859293 68.9352733 103.617915 70.3371155 102.903293 70.5338237 102.607218 70.6167729 102.402701 70.8857655 102.402701 71.1986026L102.437184 76.2288817C102.44194 76.6104482 102.748716 76.9114355 103.126835 76.9114355L103.130402 76.9114355C103.512089 76.9114355 103.818865 76.5997833 103.818865 76.2170318L103.798651 73.0329659C104.394368 73.0649606 104.971059 73.0779955 105.513268 73.0779955 110.898497 73.0779955 113.319412 71.5671343 113.600029 71.381091 113.943666 71.4960349 114.244497 71.5671343 114.523925 71.5671343 114.755791 71.5671343 114.967442 71.5280296 115.168393 71.4486353 116.054238 71.1097284 116.399064 70.170032 116.842582 68.9814879 117.049477 68.417433 117.289666 67.7727989 117.617845 67.0878751 117.783124 66.7465982 117.639248 66.336592 117.292044 66.1706935M75.2054522 23.865276C75.2054522 22.8094506 74.8784622 21.7974698 74.2542085 20.9312427 74.1246015 20.7617893 73.9212731 20.6610652 73.7036761 20.6610652L66.6502035 20.6610652C66.4361736 20.6610652 66.2352234 20.7617893 66.1032383 20.9312427 65.4801736 21.7974698 65.1519945 22.8094506 65.1519945 23.865276 65.1519945 26.3999679 67.0509149 28.4914738 69.5027458 28.8232707L69.5027458 33.6378818 67.530104 33.6378818C67.1591189 33.6378818 66.8582881 33.9388691 66.8582881 34.3121407 66.8582881 34.6818573 67.1591189 34.9840295 67.530104 34.9840295L72.8439896 34.9840295C73.2161637 34.9840295 73.5217507 34.6818573 73.5217507 34.3121407 73.5217507 33.9388691 73.2161637 33.6378818 72.8439896 33.6378818L70.8499448 33.6378818 70.8499448 28.8232707C73.3124771 28.4914738 75.2054522 26.3999679 75.2054522 23.865276M66.5039498 23.865276C66.5039498 23.205237 66.6763627 22.5700828 67.0164323 22.002473L73.3398254 22.002473C73.6775169 22.5700828 73.853497 23.205237 73.853497 23.865276 73.853497 25.8868675 72.2078453 27.5304475 70.1781289 27.5304475 68.1519796 27.5304475 66.5039498 25.8868675 66.5039498 23.865276M51.8336303 28.5820069C51.1630035 28.5820069 50.6196055 29.119992 50.6196055 29.7918809 50.6196055 30.4602148 51.1630035 31.0017549 51.8336303 31.0017549 52.5018791 31.0017549 53.0452771 30.4602148 53.0452771 29.7918809 53.0452771 29.119992 52.5018791 28.5820069 51.8336303 28.5820069M54.7424149 30.8397668C54.2192308 30.8397668 53.787604 31.2699179 53.787604 31.7936831 53.787604 32.3174484 54.2192308 32.7428595 54.7424149 32.7428595 55.2691662 32.7428595 55.6936587 32.3174484 55.6936587 31.7936831 55.6936587 31.2699179 55.2691662 30.8397668 54.7424149 30.8397668" mask="url(#logo-b)"/>
    <path fill="#FEFEFE" d="M65.1263109 34.6492701L61.9527239 32.6087187C61.9527239 32.6087187 61.956291 32.6004238 61.956291 32.5944988L61.956291 20.9970096C61.956291 18.1956952 61.2083756 16.8613974 60.6661667 15.8885213L60.6269279 15.8126819C60.0228881 14.7355268 59.587694 13.7887204 59.522296 13.4107089 59.4675995 13.1168315 59.4236045 11.2789133 59.4045796 8.85442543 59.6138532 8.73829649 59.7505945 8.52025848 59.7505945 8.26430081L59.7505945 6.05785094C59.7505945 5.68339436 59.4461965 5.38477709 59.0752114 5.38477709L54.8552562 5.38477709C54.4795149 5.38477709 54.1786841 5.68339436 54.1786841 6.05785094L54.1786841 8.26430081C54.1786841 8.54632824 54.351097 8.7809561 54.590097 8.88642014 54.6043657 11.6829946 54.5710721 13.1701561 54.5282662 13.4107089 54.4997289 13.5872722 54.3308831 14.1750269 53.4117438 15.8138669L53.3701269 15.8885213C52.9444453 16.6492843 52.4058035 17.6209754 52.1810721 19.3273599L47.485495 19.3273599C47.1822861 19.3273599 46.919505 19.5264381 46.8303259 19.8120205L43.6674403 30.4354485C43.6032313 30.6380817 43.6448483 30.8584897 43.7673209 31.0243882 43.8957388 31.1973966 44.0990672 31.3004906 44.313097 31.3004906L47.5473259 31.3004906C47.289301 32.6916679 47.3225945 34.1041751 47.6983358 35.4041082 47.7780025 35.6885056 48.0443507 35.8911388 48.3463706 35.8911388L64.7600821 35.8911388C65.062102 35.8911388 65.3248831 35.6932456 65.4081169 35.4064782 65.4925398 35.1197108 65.3819577 34.8139836 65.1263109 34.6492701L65.1263109 34.6492701zM53.4295796 20.9970096C53.4295796 18.546452 54.0478881 17.4325622 54.5508582 16.5402653L54.590097 16.4703509C55.351092 15.1099834 55.7660721 14.1868768 55.8611965 13.6382268 55.9515647 13.1168315 55.9527537 10.4245361 55.937296 8.26193084 55.9349179 7.98819833 55.7720174 7.75001551 55.5306393 7.64692145L55.5306393 6.7309248 58.3998284 6.7309248 58.3998284 7.67891615C58.3415647 7.7073559 58.2892463 7.74290557 58.2452512 7.79030514 58.1192114 7.92065395 58.0466791 8.09247738 58.0514353 8.26785578 58.0550025 9.6910278 58.0859179 13.0575821 58.1869876 13.6382268 58.3213507 14.3883249 59.0335945 15.7368426 59.4461965 16.4703509L59.4878134 16.5331554C59.9836493 17.4325622 60.6043358 18.546452 60.6043358 20.9970096L60.6043358 31.7353817 53.4295796 27.1103689 53.4295796 20.9970096zM47.8743159 29.9851526C47.8124851 29.9650078 47.7518433 29.9519729 47.6840672 29.9519729L45.2132114 29.9519729 47.984898 20.6746926 52.0847587 20.6746926C52.0788134 20.7825266 52.0788134 26.2441418 52.0788134 26.2441418L51.2369627 25.7014167C50.9670473 25.5284083 50.6067637 25.565143 50.3844104 25.7997708 49.2250821 26.9800201 48.3737189 28.4422967 47.8743159 29.9851526L47.8743159 29.9851526zM51.8671617 34.543806C52.0788134 34.324583 52.2119876 34.0295207 52.2119876 33.7012787 52.2119876 33.0353148 51.6697786 32.4878498 50.9979627 32.4878498 50.3273358 32.4878498 49.787505 33.0353148 49.787505 33.7012787 49.787505 34.0295207 49.91949 34.324583 50.1335199 34.543806L48.8755 34.543806C48.3784751 32.1086533 49.2048682 29.2042448 50.9801269 27.1435486L58.6982811 32.1110232C58.2821119 32.2153023 57.9729577 32.5850189 57.9729577 33.0353148 57.9729577 33.557895 58.3962612 33.9809362 58.9242015 33.9809362 59.4521418 33.9809362 59.8766343 33.557895 59.8766343 33.0353148 59.8766343 32.9725104 59.8671219 32.9168159 59.8599876 32.8623064L62.4675846 34.543806 51.8671617 34.543806zM26.0089075 18.5362611L24.8055841 18.5362611C24.5558826 18.5362611 24.4262756 18.7211194 24.4357881 18.9403424 24.4607582 19.5091372 25.6224647 20.3113749 26.1944 20.2888601 26.7639572 20.2651603 27.1813154 19.7816847 27.1813154 19.206965 27.1813154 18.4604218 26.5832209 18.5362611 26.0089075 18.5362611M145.357303 26.659836C144.121875 26.0756363 142.30381 25.3077633 140.510716 24.4569411 138.90787 23.7969021 138.094557 22.8939403 138.194437 21.4174438 138.282427 20.0096767 139.465537 19.1612244 142.584427 19.1612244 145.589169 19.1612244 147.767517 20.078406 148.976786 20.957668L148.976786 17.6017786C147.767517 17.0803834 145.464318 16.3658349 142.30381 16.3658349 137.140935 16.3658349 134.000641 18.8626071 134.000641 22.5254087 134.000641 24.1263291 134.695049 25.6348203 137.131422 27.0177027 138.201572 27.6575969 140.842462 28.6790576 142.894771 29.4279707 145.350169 30.3214526 145.988691 31.2291543 145.988691 32.5847819 145.988691 34.8315214 143.881686 35.4003162 141.130213 35.4003162 138.473865 35.4003162 135.608243 34.6478481 133.450109 33.1512068L133.450109 36.8270432C135.250338 37.5996562 138.186114 38.2928748 141.239606 38.2928748 147.874532 38.2928748 150.277611 35.0673343 150.277611 32.1830706 150.277611 30.0275753 149.128985 28.2844562 145.357303 26.659836M192.424845 38.2933488C184.974228 38.2933488 182.378522 33.0782114 182.378522 27.4542527 182.378522 19.8324023 186.755432 16.3674939 192.724487 16.3674939 199.993179 16.3674939 202.928955 21.4996821 202.928955 27.2930942 202.928955 31.8612275 201.210771 38.2933488 192.424845 38.2933488M192.634119 19.3631466C188.933781 19.3631466 186.377313 21.8788786 186.377313 27.4080382 186.377313 32.3861777 188.26791 35.3024361 192.675736 35.3024361 196.110915 35.3024361 198.931353 33.3768287 198.931353 27.4542527 198.931353 22.7842103 197.288079 19.3631466 192.634119 19.3631466M174.777133 9.70548466L178.623725 9.70548466 178.623725 32.8269937C178.664153 34.9564193 179.412068 34.9564193 181.297909 34.9564193L181.297909 38.2139546C180.827043 38.2577992 180.095775 38.2909789 179.582103 38.2909789 174.898416 38.2909789 174.743839 35.2005271 174.777133 32.907573L174.777133 9.70548466zM214.591917 16.3884682C217.583579 16.3884682 220.488439 16.8861637 221.870121 18.4823441 223.459887 20.3439621 223.459887 22.660616 223.459887 26.2345434L223.459887 37.8438824 219.618051 37.8438824 219.618051 27.5297365C219.618051 23.3562046 219.618051 22.3347439 218.950992 21.2789186 218.178106 20.0702296 216.469434 19.5026198 214.6264 19.5026198 212.671594 19.5026198 211.06637 19.7230278 209.741763 20.0797095L209.741763 37.8438824 205.903494 37.8438824 205.903494 17.5189479C207.241181 17.1231615 210.983136 16.3884682 214.591917 16.3884682M170.717581 36.5495187C168.917352 37.3896761 165.069571 38.2985628 161.524999 38.2938413 155.182581 38.2926378 152.66773 35.427334 152.66773 31.7242428 152.66773 28.195345 154.237283 25.2613117 161.316914 24.4981787 163.194432 24.2967305 164.687885 24.1426819 166.838885 24.0419579L166.838885 23.4944929C166.838885 22.7657245 166.690253 22.0132564 166.395367 21.4942311 165.6748 20.2097028 164.560656 19.5034493 161.452467 19.5034493 159.514307 19.5034493 157.167113 19.9916648 154.81873 20.9467661L154.622536 20.9467661 154.622536 17.3278091C157.101715 16.678435 159.412049 16.3691529 161.472681 16.3691529 166.436984 16.3691529 168.905462 17.7852149 170.067168 20.2464375 170.498795 21.1659891 170.717581 22.3071337 170.717581 23.6651313L170.717581 36.5495187zM161.968516 35.6134127C163.827009 35.6062674 165.779437 35.2602505 166.838885 34.7353003L166.838885 26.9155566C165.708094 26.9807311 164.904293 27.0696052 163.378735 27.202324 162.140929 27.310158 160.951875 27.5092362 160.052949 27.748604 157.52383 28.4382678 156.699815 29.8519599 156.699815 31.482505 156.699815 34.1712454 158.442969 35.6216722 161.968516 35.6134127L161.968516 35.6134127zM133.771035 59.0029309L137.830468 59.0029309 137.830468 72.3091745C137.876841 74.8071317 138.750796 74.8071317 140.967194 74.8071317L140.967194 78.1796109C140.417851 78.2281955 140.00406 78.2696701 139.41191 78.2696701 133.910154 78.2696701 133.724662 74.6400482 133.771035 71.9465678L133.771035 59.0029309zM133.824423 52.5734166L136.313115 52.5734166C137.958767 52.5734166 139.265538 53.2144957 139.265538 54.9623548 139.265538 56.6118597 138.066971 57.4093574 136.358299 57.4093574L133.824423 57.4093574 133.824423 52.5734166zM135.861274 56.6011948C137.59016 56.6011948 138.258408 56.1094243 138.258408 54.9753896 138.258408 53.7880305 137.556866 53.3875041 135.861274 53.3875041L134.837498 53.3875041 134.837498 56.6011948 135.861274 56.6011948z" mask="url(#logo-b)"/>
    <polygon fill="#FEFEFE" points="140.16 52.573 144.807 52.573 144.807 53.386 141.171 53.386 141.171 54.509 144.3 54.509 144.3 55.318 141.171 55.318 141.171 56.601 144.896 56.601 144.896 57.409 140.16 57.409" mask="url(#logo-b)"/>
    <path fill="#FEFEFE" d="M144.903322,59.0029309 L144.903322,62.5247188 C144.925914,63.0271542 144.820088,63.5047048 144.597735,63.9467058 C144.370625,64.3981867 144.056715,64.7880481 143.650058,65.1174751 C143.243401,65.456382 142.758267,65.7419644 142.194655,65.9647424 C141.6358,66.1839654 141.01868,66.329719 140.356377,66.3854135 L140.356377,64.8674424 C141.16969,64.6683642 141.724979,64.3756719 142.022242,63.9858104 C142.319506,63.5888391 142.46576,63.1124734 142.46576,62.5472336 L140.356377,62.5472336 L140.356377,59.0029309 L144.903322,59.0029309 Z" mask="url(#logo-b)"/>
    <polygon fill="#FEFEFE" points="218.928 77.91 223.459 77.91 223.459 59.555 218.928 59.555" mask="url(#logo-b)"/>
    <polygon fill="#FEFEFE" points="218.93 57.282 223.457 57.282 223.457 52.94 218.93 52.94" mask="url(#logo-b)"/>
    <path fill="#FEFEFE" d="M214.467661 52.7249767C211.253646 52.7249767 208.899317 54.3021973 206.930243 56.4612476L206.930243 53.2522969 202.50577 53.2522969 202.50577 77.9131069 207.03488 77.9131069 207.03488 59.8289869C207.95283 58.280206 210.014651 56.4529527 213.384432 56.4529527 214.076462 56.4529527 214.723307 56.5311619 215.32378 56.6781006L215.32378 52.8091109C215.08478 52.7486765 214.781571 52.7249767 214.467661 52.7249767M169.958251 57.2636038C168.455286 54.173152 165.257917 52.7298351 159.735947 52.7298351 157.331679 52.7298351 154.131932 53.1588012 151.391161 53.8508349L151.391161 57.9603774 151.523146 57.9603774C154.649171 56.8453026 157.482689 56.2599179 159.7193 56.2599179 163.542111 56.2599179 164.783485 57.1356249 165.659818 58.6524111 166.023669 59.2863803 166.21035 60.1016529 166.21035 61.069789L166.21035 61.8009274C163.529032 61.9786757 161.557579 62.1279844 159.558778 62.3424674 152.317435 63.1174504 149.016619 65.781306 149.016619 70.7973653 149.016619 75.6688558 152.951201 78.4689853 159.813236 78.47373 163.713335 78.4760952 168.043873 77.5944633 170.740649 76.4343589L170.740649 61.2653123C170.740649 59.6774267 170.473111 58.328909 169.958251 57.2636038L169.958251 57.2636038zM166.21035 74.4151373L166.158032 74.4329121C164.607504 75.1711604 162.266256 75.4769522 160.343554 75.4769522 155.691972 75.4899225 153.739544 73.5299504 153.739544 70.5058579 153.739544 68.2069789 155.041559 66.6890078 157.61943 66.011194 159.827504 65.4352892 163.576594 65.1852565 166.21035 65.016988L166.21035 74.4151373zM196.704967 70.1052131L196.704967 54.2156931C193.215091 53.2665167 190.099768 52.800816 187.172315 52.8078457 179.760937 52.8257008 175.0392 56.7942295 175.0392 64.9090355 175.0392 71.4952054 179.083176 75.4435894 186.514768 75.4779541 188.356613 75.4779541 190.010589 75.2243664 192.058141 74.609357L192.17229 74.5761773 192.17229 75.4246296C192.17229 76.6570183 192.075977 77.4189664 191.825086 77.8550424 190.922594 79.4109332 189.431519 79.8849289 185.68124 79.8280494 183.865554 79.7984247 181.684827 79.3777535 179.202081 78.5861807L179.202081 82.5440446C181.514793 83.0370001 183.816802 83.3320624 185.70621 83.3593172 191.970151 83.4612262 196.7014 81.6576727 196.7014 74.9944785L196.704967 70.1052131zM192.17229 71.7120584L192.111648 71.7310183C190.471942 72.3187729 189.211544 72.5616957 187.768031 72.5641117 183.386365 72.5747306 179.741912 70.7332574 179.741912 64.9090355 179.741912 59.379876 181.536196 55.7715839 187.401802 55.7715839 189.74424 55.7715839 191.536146 56.2515045 192.123539 56.5489368L192.17229 56.5750065 192.17229 71.7120584zM169.492617 101.049191L169.492617 83.2992382 165.823194 83.2992382 165.823194 101.228125C165.823194 104.062619 167.383234 105.564 170.322577 105.564 170.68405 105.564 171.182264 105.534375 171.542547 105.503566L171.542547 102.889479C170.158488 102.889479 169.5271 102.855115 169.492617 101.049191M140.956493 103.210849C137.694915 103.210849 136.578393 100.948704 136.578393 97.133039 136.578393 94.3340945 136.490403 90.013624 141.436871 90.013624 142.995721 90.013624 143.968368 90.2755066 145.05992 90.994795L145.05992 88.4162585C143.899403 87.9327829 142.737697 87.7289648 141.190736 87.7289648 136.36793 87.7289648 132.790065 90.4260002 132.790065 97.133039 132.790065 102.173983 134.938687 105.563052 140.386935 105.563052 142.568851 105.563052 143.995716 105.283395 145.281085 104.591361L145.281085 102.119474C143.571224 103.074575 142.138413 103.210849 140.956493 103.210849M158.174481 88.0987999L158.174481 102.88865C158.174481 102.88865 156.677461 103.240592 155.890306 103.240592 154.914093 103.242962 153.15667 103.052179 152.394486 101.778315 151.87368 100.889573 151.87368 99.9640967 151.87368 96.534738L151.87368 88.0987999 148.1995 88.0987999 148.1995 97.5467187C148.1995 102.388585 148.713172 105.663895 155.276754 105.66271 157.872461 105.66271 160.635824 105.084435 161.846282 104.526305L161.846282 88.0987999 158.174481 88.0987999zM194.482504 88.0987999L194.482504 102.88865C194.482504 102.88865 192.99143 103.240592 192.191196 103.240592 191.21736 103.242962 189.467072 103.052179 188.703699 101.778315 188.179325 100.889573 188.179325 99.9640967 188.179325 96.534738L188.179325 88.0987999 184.507524 88.0987999 184.507524 97.5467187C184.507524 102.388585 185.021196 105.663895 191.584778 105.66271 194.175728 105.66271 196.931957 105.084435 198.159062 104.526305L198.159062 88.0987999 194.482504 88.0987999zM180.995295 102.918156C179.440011 102.918156 178.679016 102.303147 178.679016 101.050613L178.679016 90.4354801 181.588633 90.4354801 181.588633 88.0998664 178.679016 88.0998664 178.679016 83.2982902 175.004837 83.2982902 175.004837 88.0998664 173.336593 88.0998664 173.336593 90.4354801 175.004837 90.4354801 175.004837 101.225992C175.004837 104.061671 176.561309 105.563052 179.506598 105.563052 180.253324 105.563052 181.010752 105.557127 181.608847 105.501433L181.608847 102.898011C181.390061 102.913416 181.184354 102.918156 180.995295 102.918156M210.546277 87.7214994C208.133685 87.7214994 206.7306 88.7240002 205.346541 90.4031299L205.346541 88.0995109 201.759163 88.0995109 201.759163 105.19061 205.43572 105.19061 205.43572 93.0468408C206.420257 91.4210356 207.568884 90.6567176 209.668755 90.6567176 210.221665 90.6567176 210.646158 90.7124121 210.955312 90.8060262L210.955312 87.7700839C210.857809 87.7451992 210.677073 87.7214994 210.546277 87.7214994M211.702818 96.8404652C211.69098 103.082988 213.693348 105.572651 219.371085 105.572651 221.041706 105.572651 222.926358 105.288253 224.549418 104.795298L224.549418 102.171732 224.457861 102.171732C222.825289 102.975154 220.929935 103.199117 219.384164 103.199117 216.444821 103.199117 215.526871 100.989112 215.526871 98.6013591L215.526871 98.3465864C216.568483 98.2968169 218.035776 98.1012937 219.41508 97.8240062 223.340149 97.0205835 225.107085 95.3106441 225.107085 92.5993889 225.107085 89.5658165 223.040507 87.8084514 218.909731 87.8084514 214.92402 87.7989977 211.712383 90.3668692 211.702818 96.8404652L211.702818 96.8404652zM215.526871 95.437438C215.526871 90.723551 217.255756 89.8798387 218.732562 89.8727278 220.744443 89.8715438 221.551811 90.9641038 221.551811 92.803207 221.551811 94.5664709 220.099975 95.9066937 215.526871 96.1922761L215.526871 95.437438z" mask="url(#logo-b)"/>
    <polygon fill="#80BA27" points="0 119.063 39.779 119.063 39.779 79.362 0 79.362" mask="url(#logo-b)"/>
    <path fill="#FEFEFE" d="M13.9731766,95.0224548 C14.5106294,93.8979 15.8126443,91.929633 18.5248781,91.2138995 C18.8958632,91.1179154 19.1158383,90.7327939 19.023092,90.3607073 C18.9184552,89.9909907 18.5427139,89.7741376 18.1669726,89.8724917 C16.2026542,90.389147 14.8602114,91.4473424 13.9577189,92.5055377 L13.9577189,89.6710436 C13.9577189,89.2906621 13.6473756,88.9766399 13.2609328,88.9766399 C12.8780572,88.9766399 12.570092,89.2906621 12.570092,89.6710436 L12.570092,92.695136 C11.6664104,91.5753212 10.2835398,90.4223267 8.20150498,89.8724917 C7.82933085,89.7741376 7.44645522,89.9933606 7.34419652,90.3607073 C7.24669403,90.7327939 7.46785821,91.1179154 7.84122139,91.2138995 C10.592694,91.9391129 11.8875746,93.9251548 12.4095697,95.0437846 C10.1467985,95.439571 8.42742537,97.3793983 8.19793781,99.9579347 C7.8804602,103.503422 9.13966915,105.587818 10.3560721,107.603485 C11.4904303,109.492358 12.5712811,111.279321 12.5712811,114.354368 C12.5712811,114.738305 12.8804353,115.047587 13.2668781,115.047587 C13.6533209,115.047587 13.9612861,114.738305 13.9612861,114.354368 C13.9612861,111.288801 15.0064652,109.526722 16.111097,107.663919 C17.2953955,105.656548 18.5213109,103.586372 18.3298731,99.9840045 C18.1990771,97.3722883 16.3703109,95.3566217 13.9731766,95.0224548 M14.9077736,106.957666 C14.3120572,107.961352 13.7032612,108.997032 13.2561766,110.234161 C12.7853109,108.942523 12.1467886,107.884327 11.5522612,106.893676 C10.3477488,104.895785 9.31089303,103.178735 9.58913184,100.077619 C9.77700249,97.9209383 11.3215846,96.3531976 13.2668781,96.3531976 C15.2514104,96.3531976 16.8340423,97.9434531 16.9410572,100.056289 C17.1063358,103.242725 16.0397537,105.043908 14.9077736,106.957666" mask="url(#logo-b)"/>
    <path fill="#FEFEFE" d="M22.587997 92.7219168C22.8793154 92.1827467 22.9268776 91.5653673 22.7271164 90.9859076 22.5701612 90.5261318 22.261007 90.1267904 21.8519721 89.841208 21.9316388 88.9204714 21.4096438 88.0234346 20.4774249 87.6003935 20.4060816 86.8017108 19.8888428 86.0753124 19.088609 85.7221856 18.15639 85.3062544 17.0672159 85.4982227 16.3537831 86.123897 16.1896935 85.9852532 16.0018229 85.8726792 15.7937383 85.7826201 15.7592557 85.7672152 15.722395 85.7506254 15.6891015 85.7387755 15.3823254 84.5289015 14.1457085 83.6840042 12.7925642 83.816723 11.6142109 83.9375919 10.6903154 84.7469395 10.4525045 85.786175 10.2515542 85.8726792 10.0672507 85.9888082 9.90197214 86.123897 9.18616119 85.4982227 8.09698706 85.3062544 7.17071343 85.7221856 6.36810149 86.0753124 5.85205174 86.8017108 5.78189751 87.6003935 4.85086766 88.0234346 4.32768358 88.9204714 4.40616119 89.841208 3.99831542 90.1267904 3.68440498 90.5261318 3.53339502 90.9859076 3.32768856 91.5618123 3.37762886 92.1827467 3.66656915 92.7219168 4.00069353 93.3381111 4.60354428 93.7730022 5.30984279 93.9294207 5.31578806 93.9341607 5.31816617 93.9471956 5.32173333 93.9554905 5.7533602 94.7529882 6.62731542 95.219874 7.53337512 95.219874 7.87939005 95.219874 8.24086269 95.1511446 8.57617612 95.001836 8.64038507 94.9686563 8.70340498 94.9414015 8.76404677 94.9046668 9.32290249 95.1689194 9.84727562 95.1440347 10.5060119 94.8525273 10.8603502 94.6961087 11.0161164 94.2884725 10.8603502 93.9341607 10.7045841 93.5845889 10.2931711 93.4293553 9.94358905 93.5845889 9.54644478 93.7611523 9.45250945 93.7338975 9.138599 93.5134895 8.87938507 93.3298162 8.52266866 93.3464061 8.28366866 93.5549642 8.19448955 93.6296185 8.10055423 93.6876829 8.00899701 93.7338975 7.47154428 93.9673404 6.80448458 93.7694472 6.55478308 93.3073014 6.52505672 93.243312 6.49770846 93.1793226 6.4834398 93.1188881 6.40377313 92.8167159 6.13980299 92.6069728 5.83064876 92.5986779 5.4275592 92.589198 5.07084279 92.3853798 4.90199701 92.0666177 4.76168856 91.8106601 4.7973602 91.5866971 4.85086766 91.4385735 4.93053433 91.1956507 5.11840498 91.0048674 5.37999701 90.8863685L5.45728557 90.8567438C5.62494229 90.7903844 5.76881791 90.6552956 5.84372836 90.4905821 5.92101692 90.3199437 5.92101692 90.1267904 5.85205174 89.954967 5.68677313 89.5331108 5.90793731 89.0603002 6.36810149 88.856482 6.44539005 88.8268573 6.53456915 88.7996025 6.63088259 88.7794577 6.81280796 88.7415381 6.97214129 88.639629 7.07915622 88.4832104 7.18022587 88.3291618 7.21470846 88.1407485 7.17903682 87.9570752 7.09699204 87.5624738 7.32172338 87.1749824 7.74027065 86.990124 8.27296716 86.7578662 8.93764876 86.9462794 9.19448458 87.4226451 9.20637512 87.4522698 9.22183284 87.4830795 9.23491244 87.5150743 9.33479303 87.7769569 9.58806169 87.9570752 9.8663005 87.9641852 10.1671313 87.9665551 10.4108876 87.8042116 10.5214697 87.542329 10.6177831 87.3302159 10.7961413 87.1524676 11.028007 87.0505585 11.0993502 87.0185638 11.1706935 86.996049 11.245604 86.9794591 11.5583254 86.9048048 11.790191 86.6239624 11.790191 86.3052003 11.7913801 85.7387755 12.2812706 85.2683348 12.9293055 85.1996054 13.6451164 85.132061 14.287206 85.5776169 14.3633055 86.1961813 14.3644945 86.230546 14.3656836 86.2625407 14.3656836 86.2957204 14.3728179 86.6239624 14.613007 86.9048048 14.9447532 86.9640543 15.0458229 86.9794591 15.1433254 87.0126388 15.2277483 87.0505585 15.460803 87.1524676 15.6427284 87.326661 15.7330965 87.542329 15.8460567 87.8042116 16.0957582 87.9570752 16.3882657 87.9641852 16.6724498 87.9570752 16.9257184 87.7769569 17.0232209 87.5150743 17.0363005 87.4830795 17.048191 87.4522698 17.0624597 87.4179051 17.3216736 86.9462794 17.9851662 86.7578662 18.5214299 86.990124 18.9352209 87.1749824 19.1587632 87.5624738 19.0755294 87.9570752 19.0362905 88.1407485 19.0755294 88.3291618 19.1777881 88.4832104 19.2812358 88.639629 19.4441363 88.7415381 19.6260617 88.7794577 19.7211861 88.7996025 19.8115542 88.8268573 19.8864647 88.856482 20.350196 89.0603002 20.5725493 89.5331108 20.4060816 89.954967 20.3371164 90.1267904 20.3394945 90.3199437 20.4179721 90.4905821 20.4928826 90.6552956 20.632002 90.7903844 20.8020368 90.8602987 20.8091711 90.8602987 20.872191 90.8863685 20.8793254 90.8863685 21.1385393 91.0048674 21.32641 91.1956507 21.4096438 91.4385735 21.4619622 91.5866971 21.4916886 91.8106601 21.3561363 92.0666177 21.1884796 92.3853798 20.8293851 92.589198 20.4286736 92.5986779 20.1123851 92.6069728 19.8519821 92.8226408 19.7758826 93.1200731 19.7568577 93.1840625 19.7342657 93.243312 19.7045393 93.2978215 19.4548378 93.7694472 18.7877781 93.9673404 18.2503254 93.7338975 18.1516338 93.6876829 18.0636438 93.6296185 17.9756537 93.5549642 17.7330866 93.3464061 17.3787483 93.3321862 17.1171562 93.5134895 16.9578229 93.6260635 16.8591313 93.6959779 16.8317831 93.7019028 16.8175144 93.7019028 16.7461711 93.6959779 16.503604 93.5845889 16.1528328 93.4293553 15.7414199 93.5845889 15.5868428 93.9341607 15.4310766 94.2884725 15.5868428 94.6961087 15.939992 94.8525273 16.6320219 95.1606245 17.0398677 95.1511446 17.5012209 94.9094068 17.5606736 94.9414015 17.6236935 94.9710262 17.6843353 95.001836 18.8817134 95.5315261 20.3394945 95.0622704 20.9328328 93.9495656 20.9375891 93.9471956 20.9399672 93.9341607 20.9459124 93.9294207 21.6486438 93.7730022 22.2550617 93.3381111 22.587997 92.7219168M27.9997418 96.477029C28.1329159 96.6204127 28.3219756 96.699807 28.5157915 96.699807 28.7179308 96.699807 28.8986672 96.6204127 29.0342194 96.477029L32.4468065 92.7265382C32.7036423 92.4409558 32.6822393 92.0048798 32.3980552 91.7489221 32.111493 91.4882245 31.6691647 91.5107393 31.4135179 91.7963217L28.5157915 94.9709077 25.6251995 91.7963217C25.3647965 91.5107393 24.9248463 91.4882245 24.6382841 91.7489221 24.3517219 92.0048798 24.3303189 92.4409558 24.5919109 92.7265382L27.9997418 96.477029z" mask="url(#logo-b)"/>
    <path fill="#FEFEFE" d="M31.4148259 95.6426781L28.5170995 98.8208191 25.6241294 95.6426781C25.3649154 95.3582807 24.9237761 95.3345809 24.6372139 95.5952785 24.3518408 95.8512362 24.3316269 96.2908672 24.5920299 96.5705246L27.9998607 100.323385C28.1354129 100.466769 28.3220945 100.554458 28.5170995 100.554458 28.7180498 100.554458 28.8987861 100.466769 29.0355274 100.323385L32.4457363 96.5705246C32.7037612 96.2908672 32.6847363 95.8512362 32.3981741 95.5952785 32.112801 95.3345809 31.6716617 95.3582807 31.4148259 95.6426781M27.9997418 89.3347437C28.0092542 89.3430386 28.0128214 89.3465935 28.0211448 89.3560735 28.0282791 89.3572584 28.0306572 89.3619984 28.0342244 89.3631834 28.0972443 89.4236178 28.1650204 89.4722024 28.243498 89.5053821 28.2458761 89.5053821 28.2458761 89.5053821 28.2530104 89.5101221 28.3338662 89.5433018 28.4230453 89.5622616 28.5134134 89.5622616L28.5157915 89.5587066 28.5157915 89.5622616C28.5157915 89.5622616 28.5181697 89.5587066 28.5205478 89.5587066 28.6073488 89.5587066 28.6929607 89.5433018 28.7726274 89.5101221 28.7785726 89.5053821 28.7904632 89.5053821 28.7964085 89.5053821 28.8689408 89.4722024 28.9283935 89.4319128 28.9902244 89.3762183 28.9997368 89.3631834 29.0080602 89.3560735 29.0163836 89.3442236 29.0235179 89.3430386 29.0294632 89.3406686 29.0306522 89.3347437L31.2506174 86.8948509C31.5145876 86.6104535 31.4931846 86.1708225 31.2042443 85.9160498 30.9200602 85.6565372 30.481299 85.680237 30.219707 85.9634494L29.2137667 87.0725993 29.2137667 84.2997246C29.2137667 83.9193431 28.9034234 83.6053209 28.5157915 83.6053209 28.1329159 83.6053209 27.8225726 83.9193431 27.8225726 84.2997246L27.8225726 87.0737843 26.8142542 85.9634494C26.5538512 85.680237 26.113901 85.6565372 25.8237716 85.9160498 25.5443438 86.1708225 25.5241299 86.6104535 25.7797766 86.8948509L27.9997418 89.3347437z" mask="url(#logo-b)"/>
    <path fill="#FEFEFE" d="M27.9997418 92.9035756C28.1329159 93.0469593 28.3219756 93.1310935 28.5157915 93.1310935 28.7179308 93.1310935 28.8986672 93.0469593 29.0342194 92.9035756L31.8855726 89.7716492C32.1447866 89.4836968 32.1233836 89.0511757 31.8380104 88.7881081 31.5514483 88.5309655 31.110309 88.5534803 30.8522841 88.8366927L28.5157915 91.4033793 26.1864333 88.8366927C25.9284085 88.5534803 25.4860801 88.5309655 25.200707 88.7881081 24.9153338 89.0511757 24.8927418 89.4836968 25.1483886 89.7716492L27.9997418 92.9035756zM35.1334756 106.738087C32.6923463 106.738087 30.5330229 107.936111 29.2024706 109.77166L29.2024706 103.981803 32.4462119 100.41854C32.7042368 100.137698 32.6840229 99.7016216 32.3986498 99.440924 32.1120876 99.1849663 31.6709483 99.2062961 31.4141124 99.4895085L28.5163861 102.671204 25.624605 99.4895085C25.364202 99.2062961 24.9230627 99.1849663 24.6376896 99.440924 24.3511274 99.7016216 24.3309134 100.137698 24.5913164 100.41854L27.8088985 103.961658 27.8088985 109.77166C26.4783463 107.936111 24.3190229 106.738087 21.8850279 106.738087 21.4997741 106.738087 21.1882418 107.04737 21.1882418 107.428936 21.1882418 107.811688 21.4997741 108.12334 21.8850279 108.12334 25.147794 108.12334 27.8088985 110.775346 27.8088985 114.035251L27.8088985 114.067246C27.8088985 114.449997 28.123998 114.758094 28.5033065 114.758094 28.8921274 114.758094 29.2024706 114.449997 29.2024706 114.067246L29.2024706 114.035251C29.2024706 110.775346 31.8635751 108.12334 35.1334756 108.12334 35.5175403 108.12334 35.8302617 107.811688 35.8302617 107.428936 35.8302617 107.04737 35.5175403 106.738087 35.1334756 106.738087" mask="url(#logo-b)"/>
    <polygon fill="#80BA27" points="79.418 119.067 119.336 119.067 119.336 79.366 79.418 79.366" mask="url(#logo-b)"/>
    <path fill="#FEFEFE" d="M110.413125,104.244278 C110.541543,104.342632 110.692553,104.390031 110.84713,104.390031 C110.89707,104.390031 110.9482,104.390031 110.993384,104.378181 C112.24308,104.105634 113.479697,103.296286 114.397647,102.151587 C115.310841,101.010442 115.825702,99.6228198 115.813811,98.3536964 C115.813811,98.1510632 115.713931,97.95317 115.552219,97.8240062 C115.38813,97.6889174 115.171722,97.6438878 114.970772,97.6865475 C113.72702,97.954355 112.484458,98.7672576 111.572453,99.9084022 C110.654503,101.049547 110.138453,102.434799 110.147966,103.705108 C110.152722,103.914851 110.249035,104.110374 110.413125,104.244278 M112.662816,100.772259 C113.12417,100.19043 113.69016,99.7270988 114.278742,99.4071518 C114.106329,100.055341 113.771015,100.711825 113.306095,101.291285 C112.841175,101.869559 112.275185,102.34237 111.684224,102.655207 C111.857826,102.007018 112.195518,101.356459 112.662816,100.772259" mask="url(#logo-b)"/>
    <path fill="#FEFEFE" d="M111.291004 104.69564C110.928342 104.69564 110.55379 104.734745 110.178049 104.818879 110.055576 104.220459 109.747611 103.228623 109.016342 102.4963 108.744049 102.224938 108.306477 102.224938 108.031805 102.4963 107.7607 102.764108 107.7607 103.207294 108.031805 103.473916 108.409924 103.855483 108.621576 104.374508 108.734536 104.780959 108.368307 104.70512 108.003268 104.663645 107.656064 104.663645 105.29579 104.663645 103.644193 106.466014 103.644193 109.04218 103.644193 112.251131 106.268437 114.872327 109.489586 114.872327 112.715492 114.872327 115.338546 112.251131 115.338546 109.04218 115.338546 106.444684 113.711919 104.69564 111.291004 104.69564M109.489586 113.479965C107.036576 113.479965 105.036576 111.487998 105.036576 109.04218 105.036576 107.229147 106.067487 106.051268 107.656064 106.051268 108.147143 106.051268 108.682218 106.160287 109.238696 106.373585 109.39684 106.435204 109.57282 106.439944 109.727397 106.37951 110.275551 106.180431 110.804681 106.079707 111.291004 106.079707 112.93071 106.079707 113.947352 107.213742 113.947352 109.04218 113.947352 111.487998 111.946173 113.479965 109.489586 113.479965M113.932132 88.8729534C113.932132 87.0871747 112.471973 85.6379329 110.686013 85.6379329 109.655102 85.6379329 108.73953 86.1190385 108.147381 86.8667667 107.62063 86.2079127 106.850122 85.7611718 105.976167 85.6568927 105.976167 85.6474128 105.980923 85.6379329 105.980923 85.623713L105.980923 83.8284544 107.134306 84.086782C107.183058 84.0986319 107.231809 84.1010019 107.284127 84.1010019 107.602794 84.1010019 107.895301 83.8817789 107.965456 83.5606468 108.04869 83.1802653 107.80969 82.8117337 107.435137 82.7323394L102.776421 81.7002138C102.401869 81.6137096 102.032073 81.8530774 101.950028 82.226349 101.864416 82.6008056 102.099849 82.9693372 102.477968 83.0570264L104.583784 83.5203572 104.583784 85.623713C104.583784 85.6865174 104.608754 85.739842 104.623023 85.7860565 103.998769 85.9839497 103.460127 86.3667012 103.059416 86.8643967 102.464889 86.1190385 101.548127 85.6379329 100.517217 85.6379329 98.7312567 85.6379329 97.2722866 87.0871747 97.2722866 88.8729534 97.2722866 90.4999435 98.4946348 91.8484612 100.068943 92.0664992 99.9226896 92.4409558 99.8346995 92.8438521 99.8346995 93.2728182 99.8346995 94.9021784 101.058237 96.2506961 102.632545 96.4699191 102.480346 96.8443756 102.391167 97.2520119 102.391167 97.680978 102.391167 99.4632017 103.852515 100.919553 105.638476 100.919553 107.429192 100.919553 108.884595 99.4632017 108.884595 97.680978 108.884595 97.2520119 108.797794 96.8408207 108.643217 96.4663641 110.205635 96.2352912 111.408958 94.8926984 111.408958 93.2728182 111.408958 92.8438521 111.323346 92.4374008 111.171147 92.0617593 112.731187 91.8283164 113.932132 90.4892786 113.932132 88.8729534M105.603993 87.0279252C106.594476 87.0279252 107.398277 87.8100181 107.445839 88.7840792 107.445839 88.8148889 107.44465 88.8409587 107.44465 88.8729534 107.44465 88.9013931 107.445839 88.9274629 107.445839 88.9570876 107.398277 89.9347037 106.594476 90.7120566 105.603993 90.7120566 105.267491 90.7120566 104.954769 90.6172575 104.687232 90.4632089 104.642048 90.4418791 104.608754 90.4217342 104.567137 90.3980345 104.102217 90.0828273 103.789496 89.5602471 103.760958 88.9594576 103.760958 88.9286479 103.765714 88.9013931 103.765714 88.8729534 103.765714 88.8409587 103.760958 88.8125189 103.760958 88.7781542 103.809709 87.8029081 104.611132 87.0279252 105.603993 87.0279252M98.6658587 88.8729534C98.6658587 87.8538627 99.4993861 87.0279252 100.517217 87.0279252 101.508889 87.0279252 102.313879 87.8029081 102.363819 88.7781542 102.363819 88.8125189 102.356685 88.8409587 102.356685 88.8729534 102.356685 88.9013931 102.363819 88.9286479 102.363819 88.9594576 102.313879 89.9382586 101.508889 90.7120566 100.517217 90.7120566 99.4993861 90.7120566 98.6658587 89.8849341 98.6658587 88.8729534M101.23065 93.2728182C101.23065 92.2513575 102.058232 91.4254201 103.082008 91.4254201 103.414943 91.4254201 103.728854 91.5225892 103.998769 91.6778228 104.036819 91.6979676 104.076058 91.7216674 104.117675 91.7418122 104.583784 92.0605743 104.896505 92.5890795 104.927421 93.186314 104.927421 93.2183087 104.919098 93.2420085 104.919098 93.2728182 104.919098 93.298888 104.927421 93.3249578 104.927421 93.3569525 104.876292 94.3345685 104.071301 95.1178464 103.082008 95.1178464 102.058232 95.1178464 101.23065 94.2895389 101.23065 93.2728182M105.638476 99.5271912C104.619456 99.5271912 103.787117 98.6953288 103.787117 97.680978 103.787117 96.6642573 104.619456 95.8335799 105.638476 95.8335799 106.659874 95.8335799 107.492212 96.6642573 107.492212 97.680978 107.492212 98.6953288 106.659874 99.5271912 105.638476 99.5271912M108.166406 95.1178464C107.173545 95.1178464 106.367366 94.3345685 106.32456 93.3569525L106.32456 93.2728182 106.32456 93.186314C106.367366 92.206328 107.173545 91.4254201 108.166406 91.4254201 108.506476 91.4254201 108.818008 91.5225892 109.09268 91.6825627 109.127162 91.7027076 109.158078 91.7216674 109.193749 91.7347023 109.693152 92.0664992 110.013008 92.635294 110.013008 93.2728182 110.013008 94.2895389 109.184237 95.1178464 108.166406 95.1178464M110.686013 90.7120566C110.345943 90.7120566 110.032033 90.6172575 109.754983 90.4572839 109.725257 90.4418791 109.693152 90.4217342 109.65867 90.4027744 109.184237 90.0875673 108.869137 89.5602471 108.842978 88.9570876 108.847734 88.9274629 108.850112 88.9013931 108.850112 88.8729534 108.850112 88.8409587 108.847734 88.8148889 108.842978 88.7840792 108.886973 87.8100181 109.694341 87.0279252 110.686013 87.0279252 111.707411 87.0279252 112.539749 87.8538627 112.539749 88.8729534 112.539749 89.8849341 111.707411 90.7120566 110.686013 90.7120566M101.348366 113.458043L98.9940378 113.458043 98.9940378 111.897412C99.0927294 111.788393 99.1854756 111.680559 99.2794109 111.58576 100.363829 110.399585 101.150983 109.541653 101.150983 107.328093 101.150983 104.951005 100.273461 101.398408 98.8525403 99.8045971 98.5873811 99.5095348 98.0737095 99.5095348 97.8097393 99.8045971 96.390008 101.398408 95.5148637 104.951005 95.5148637 107.328093 95.5148637 109.541653 96.2984507 110.399585 97.3804905 111.58576 97.45659 111.665154 97.5362567 111.745733 97.6064109 111.826312L97.6064109 113.458043 91.8870577 113.458043C91.8965701 113.404718 91.9191622 113.352579 91.9191622 113.298069L91.9191622 108.072267C92.3008488 107.503472 92.6635104 107.010516 92.9845552 106.56733 94.4851423 104.512559 95.4732468 103.160487 95.4732468 98.9751047 95.4732468 94.1984133 94.2021473 85.6570112 91.8050129 82.067679 91.5481771 81.6790025 90.9037095 81.6790025 90.6444955 82.067679 89.4471174 83.8664925 88.5303562 86.9059898 87.9132368 90.0888708 87.7360677 89.8340981 87.5565204 89.5864354 87.3698388 89.3826172 87.2354756 89.2333086 87.047605 89.1468044 86.8466547 89.1468044 86.6492716 89.1468044 86.4590229 89.2333086 86.3234706 89.3826172 84.2057642 91.7573356 82.8966149 97.1146717 82.8966149 100.719409 82.8966149 103.940209 83.9774657 105.116904 85.614794 106.897942 85.788396 107.085171 85.9703214 107.283064 86.1558139 107.491622 86.1463015 107.537837 86.1320328 107.573386 86.1320328 107.620786L86.1320328 113.458043 83.7788935 113.458043C83.3936398 113.458043 83.0844856 113.767325 83.0844856 114.145336 83.0844856 114.534013 83.3936398 114.84448 83.7788935 114.84448L101.348366 114.84448C101.727675 114.84448 102.043963 114.534013 102.043963 114.145336 102.043963 113.767325 101.727675 113.458043 101.348366 113.458043M96.9060577 107.328093C96.9060577 105.574309 97.4696697 103.014733 98.3281672 101.478987 99.1902318 103.014733 99.7574109 105.574309 99.7574109 107.328093 99.7574109 108.959824 99.3067592 109.488329 98.3281672 110.558374 97.3543313 109.488329 96.9060577 108.959824 96.9060577 107.328093M91.2259433 83.8724175C92.935804 87.4072402 94.0808637 94.2943974 94.0808637 98.9751047 94.0808637 102.704266 93.2913313 103.784976 91.8573313 105.749688 91.6623264 106.017495 91.4471075 106.312558 91.2259433 106.62184 91.0047791 106.312558 90.7919383 106.01631 90.5921771 105.749688 90.3210726 105.376416 90.0737493 105.036324 89.851396 104.705712 90.4506796 103.709137 90.7966945 102.545477 90.7966945 100.719409 90.7966945 98.1515372 90.1308239 94.6878138 88.9738736 92.0512129 89.4827891 88.9228414 90.262809 85.8655693 91.2259433 83.8724175M84.2901871 100.719409C84.2901871 97.6846515 85.2949383 93.3262612 86.8478438 90.9870926 88.3971821 93.3203363 89.4043114 97.6799115 89.4043114 100.719409 89.4043114 103.399854 88.6183463 104.255417 87.047605 105.960616 86.983396 106.0329 86.9156199 106.107555 86.8478438 106.181024 86.7824458 106.107555 86.7099134 106.0329 86.6468935 105.960616 85.0809085 104.255417 84.2901871 103.399854 84.2901871 100.719409M87.504202 107.524802C87.7015851 107.307949 87.8930229 107.097021 88.0713811 106.897942 88.4007493 106.546001 88.7027692 106.216574 88.981008 105.885962 89.1379632 106.11111 89.2972965 106.333888 89.4685204 106.56733 89.7871871 107.005776 90.1462816 107.495177 90.5232119 108.052122L90.5232119 113.298069C90.5232119 113.352579 90.5398587 113.404718 90.5541274 113.458043L87.5244159 113.458043 87.5244159 107.620786C87.5244159 107.589976 87.5101473 107.557981 87.504202 107.524802" mask="url(#logo-b)"/>
    <path fill="#F6A723" d="M224.216958,48.248917 C223.579625,48.248917 223.428615,48.248917 223.411968,47.6291677 L223.411968,39.591386 L221.961321,39.591386 L221.961321,47.5035588 C221.95062,48.0166591 221.976779,48.5937489 222.366789,48.9942752 C222.653351,49.2774876 223.090923,49.4232413 223.68664,49.4232413 C223.857864,49.4232413 224.070704,49.4090214 224.22766,49.3959865 L224.319217,49.3853216 L224.319217,48.248917 L224.216958,48.248917 Z" mask="url(#logo-b)"/>
  </g>
</svg>
