<svg xmlns="http://www.w3.org/2000/svg" width="25" height="22" viewBox="0 0 25 22">
  <path fill="#41A62A" fill-rule="evenodd" d="M237.051724,852.04 C234.982759,854.592 231.965517,856 228.775862,856 C222.827586,856 218,851.072 218,845 C218,838.928 222.827586,834 228.775862,834 C234.12069,834 238.517241,837.96 239.37931,843.24 L241.62069,840.336 L243,841.392 L238.775862,846.848 L233.431034,842.624 L234.551724,841.216 L237.741379,843.768 C237.137931,839.28 233.344828,835.76 228.775862,835.76 C223.775862,835.76 219.724138,839.896 219.724138,845 C219.724138,850.104 223.775862,854.24 228.775862,854.24 C231.448276,854.24 233.948276,853.008 235.672414,850.896 L237.051724,852.04 Z" transform="translate(-218 -834)"/>
</svg>
