<?xml version="1.0" encoding="UTF-8"?>
<svg width="105px" height="73px" viewBox="0 0 105 73" version="1.1" xmlns="http://www.w3.org/2000/svg" xmlns:xlink="http://www.w3.org/1999/xlink">
    <!-- Generator: Sketch 47.1 (45422) - http://www.bohemiancoding.com/sketch -->
    <title>Group 36</title>
    <desc>Created with Sketch.</desc>
    <defs>
        <polygon id="path-1" points="19.4998279 68 0 68 0 0 19.4998279 0 38.9996559 0 38.9996559 68"></polygon>
    </defs>
    <g id="Desktop" stroke="none" stroke-width="1" fill="none" fill-rule="evenodd">
        <g id="Visiteurs-pro" transform="translate(-508.000000, -3721.000000)">
            <g id="Group-28" transform="translate(489.000000, 3674.000000)">
                <g id="Group-25" transform="translate(0.000000, 9.000000)">
                    <g id="Group-36" transform="translate(19.000000, 38.000000)">
                        <path d="M49.5068359,37.0205078 C49.5068359,49.2386679 47.5050656,58.2825227 43.5014648,64.1523438 C39.4978641,70.0221648 33.3330494,72.9570312 25.0068359,72.9570312 C16.935832,72.9570312 10.8507692,69.9264626 6.75146484,63.8652344 C2.65216049,57.8040062 0.602539062,48.8558534 0.602539062,37.0205078 C0.602539062,24.674743 2.59633423,15.5750618 6.58398438,9.72119141 C10.5716345,3.86732099 16.7125236,0.940429688 25.0068359,0.940429688 C33.0778398,0.940429688 39.178853,4.00289906 43.3100586,10.1279297 C47.4412641,16.2529603 49.5068359,25.2170634 49.5068359,37.0205078 Z M15.2929688,37.0205078 C15.2929688,45.6019309 16.0346606,51.7507952 17.5180664,55.4672852 C19.0014723,59.1837751 21.4977038,61.0419922 25.0068359,61.0419922 C28.4521657,61.0419922 30.940422,59.1598496 32.4716797,55.3955078 C34.0029373,51.6311661 34.7685547,45.5062273 34.7685547,37.0205078 C34.7685547,28.4390847 33.9949622,22.27427 32.4477539,18.5258789 C30.9005456,14.7774878 28.4202645,12.9033203 25.0068359,12.9033203 C21.529605,12.9033203 19.0413486,14.7774878 17.5419922,18.5258789 C16.0426357,22.27427 15.2929688,28.4390847 15.2929688,37.0205078 Z M82.3808594,27.3066406 C89.143914,27.3066406 94.527161,29.2047336 98.5307617,33.0009766 C102.534362,36.7972195 104.536133,41.9970373 104.536133,48.6005859 C104.536133,56.4163802 102.127628,62.4296664 97.3105469,66.640625 C92.4934655,70.8515836 85.6029094,72.9570312 76.6386719,72.9570312 C68.8547788,72.9570312 62.5703364,71.6969527 57.7851563,69.1767578 L57.7851563,56.4003906 C60.3053511,57.7402411 63.2402176,58.8328408 66.5898438,59.6782227 C69.9394699,60.5236045 73.1135918,60.9462891 76.1123047,60.9462891 C85.1403446,60.9462891 89.6542969,57.2458052 89.6542969,49.8447266 C89.6542969,42.7945611 84.980841,39.2695312 75.6337891,39.2695312 C73.9430254,39.2695312 72.0768331,39.43701 70.0351563,39.7719727 C67.9934794,40.1069353 66.3346418,40.4658184 65.0585938,40.8486328 L59.1728516,37.6904297 L61.8046875,2.04101562 L99.7509766,2.04101562 L99.7509766,14.578125 L74.7724609,14.578125 L73.4804688,28.3115234 L75.1552734,27.9765625 C77.1012467,27.5299457 79.5097513,27.3066406 82.3808594,27.3066406 Z" id="05" fill="#F5F5F5"></path>
                        <g id="Page-1" transform="translate(35.000000, 3.000000)">
                            <g id="Group-3">
                                <mask id="mask-2" fill="white">
                                    <use xlink:href="#path-1"></use>
                                </mask>
                                <g id="Clip-2"></g>
                                <path d="M33.9468618,65.7333333 L5.05245,65.7333333 C3.53145,65.7333333 2.29377353,64.5104667 2.29377353,63.0076667 L2.29377353,54.4 L36.7055382,54.4 L36.7055382,63.0076667 C36.7055382,64.5104667 35.4678618,65.7333333 33.9468618,65.7333333 L33.9468618,65.7333333 Z M5.05245,2.26666667 L33.9457147,2.26666667 C35.4678618,2.26666667 36.7055382,3.48953333 36.7055382,4.99233333 L36.7055382,6.8 L2.29377353,6.8 L2.29377353,4.99233333 C2.29377353,3.48953333 3.53145,2.26666667 5.05245,2.26666667 L5.05245,2.26666667 Z M2.29377353,52.1333333 L36.7055382,52.1333333 L36.7055382,9.06666667 L2.29377353,9.06666667 L2.29377353,52.1333333 Z M33.9468618,0 L5.05245,0 C2.26624412,0 -0.000344117647,2.2406 -0.000344117647,4.99233333 L-0.000344117647,63.0065333 C-0.000344117647,65.7594 2.26624412,68 5.05245,68 L33.9457147,68 C36.7342147,68 38.9996559,65.7594 38.9996559,63.0076667 L38.9996559,4.99233333 C38.9996559,2.2406 36.7342147,0 33.9468618,0 L33.9468618,0 Z" id="Fill-1" fill="#4b2980" mask="url(#mask-2)"></path>
                            </g>
                            <path d="M19.5,62.3333333 C18.2347941,62.3333333 17.2058824,61.3167333 17.2058824,60.0666667 C17.2058824,58.8166 18.2347941,57.8 19.5,57.8 C20.7652059,57.8 21.7941176,58.8166 21.7941176,60.0666667 C21.7941176,61.3167333 20.7652059,62.3333333 19.5,62.3333333 M19.5,55.5333333 C16.9695882,55.5333333 14.9117647,57.5665333 14.9117647,60.0666667 C14.9117647,62.5668 16.9695882,64.6 19.5,64.6 C22.0304118,64.6 24.0882353,62.5668 24.0882353,60.0666667 C24.0882353,57.5665333 22.0304118,55.5333333 19.5,55.5333333" id="Fill-4" fill="#4b2980"></path>
                            <path d="M21.7941176,19.2451333 C21.7941176,19.2689333 21.7746176,19.2882 21.7505294,19.2882 L17.2058824,19.2451333 L17.2494706,14.7548667 L21.7941176,14.7990667 L21.7941176,19.2451333 Z M21.7505294,12.4893333 L17.2494706,12.4893333 C15.9601765,12.4893333 14.9117647,13.5252 14.9117647,14.7990667 L14.9117647,19.2462667 C14.9117647,20.5201333 15.9601765,21.556 17.2494706,21.556 L21.7505294,21.556 C23.0398235,21.556 24.0882353,20.5201333 24.0882353,19.2462667 L24.0882353,14.7990667 C24.0882353,13.5252 23.0398235,12.4893333 21.7505294,12.4893333 L21.7505294,12.4893333 Z" id="Fill-6" fill="#4b2980"></path>
                            <path d="M11.4705882,19.2451333 C11.4705882,19.2689333 11.4510882,19.2882 11.427,19.2882 L6.88235294,19.2451333 L6.92594118,14.7548667 L11.4705882,14.7990667 L11.4705882,19.2451333 Z M11.427,12.4893333 L6.92594118,12.4893333 C5.63664706,12.4893333 4.58823529,13.5252 4.58823529,14.7990667 L4.58823529,19.2462667 C4.58823529,20.5201333 5.63664706,21.556 6.92594118,21.556 L11.427,21.556 C12.7162941,21.556 13.7647059,20.5201333 13.7647059,19.2462667 L13.7647059,14.7990667 C13.7647059,13.5252 12.7162941,12.4893333 11.427,12.4893333 L11.427,12.4893333 Z" id="Fill-8" fill="#4b2980"></path>
                            <path d="M32.1176471,19.2451333 C32.1176471,19.2689333 32.0981471,19.2882 32.0740588,19.2882 L27.5294118,19.2451333 L27.573,14.7548667 L32.1176471,14.7990667 L32.1176471,19.2451333 Z M32.0740588,12.4893333 L27.573,12.4893333 C26.2837059,12.4893333 25.2352941,13.5252 25.2352941,14.7990667 L25.2352941,19.2462667 C25.2352941,20.5201333 26.2837059,21.556 27.573,21.556 L32.0740588,21.556 C33.3633529,21.556 34.4117647,20.5201333 34.4117647,19.2462667 L34.4117647,14.7990667 C34.4117647,13.5252 33.3633529,12.4893333 32.0740588,12.4893333 L32.0740588,12.4893333 Z" id="Fill-10" fill="#4b2980"></path>
                            <path d="M21.7941176,29.4234867 C21.7941176,29.4461533 21.7746176,29.4665533 21.7505294,29.4665533 L17.2058824,29.4234867 L17.2494706,24.93322 L21.7941176,24.9762867 L21.7941176,29.4234867 Z M21.7505294,22.6665533 L17.2494706,22.6665533 C15.9601765,22.6665533 14.9117647,23.70242 14.9117647,24.9762867 L14.9117647,29.4234867 C14.9117647,30.6973533 15.9601765,31.73322 17.2494706,31.73322 L21.7505294,31.73322 C23.0398235,31.73322 24.0882353,30.6973533 24.0882353,29.4234867 L24.0882353,24.9762867 C24.0882353,23.70242 23.0398235,22.6665533 21.7505294,22.6665533 L21.7505294,22.6665533 Z" id="Fill-12" fill="#4b2980"></path>
                            <path d="M11.4705882,29.4234867 C11.4705882,29.4461533 11.4510882,29.4665533 11.427,29.4665533 L6.88235294,29.4234867 L6.92594118,24.93322 L11.4705882,24.9762867 L11.4705882,29.4234867 Z M11.427,22.6665533 L6.92594118,22.6665533 C5.63664706,22.6665533 4.58823529,23.70242 4.58823529,24.9762867 L4.58823529,29.4234867 C4.58823529,30.6973533 5.63664706,31.73322 6.92594118,31.73322 L11.427,31.73322 C12.7162941,31.73322 13.7647059,30.6973533 13.7647059,29.4234867 L13.7647059,24.9762867 C13.7647059,23.70242 12.7162941,22.6665533 11.427,22.6665533 L11.427,22.6665533 Z" id="Fill-14" fill="#4b2980"></path>
                            <path d="M32.1176471,29.4234867 C32.1176471,29.4461533 32.0981471,29.4665533 32.0740588,29.4665533 L27.5294118,29.4234867 L27.573,24.93322 L32.1176471,24.9762867 L32.1176471,29.4234867 Z M32.0740588,22.6665533 L27.573,22.6665533 C26.2837059,22.6665533 25.2352941,23.70242 25.2352941,24.9762867 L25.2352941,29.4234867 C25.2352941,30.6973533 26.2837059,31.73322 27.573,31.73322 L32.0740588,31.73322 C33.3633529,31.73322 34.4117647,30.6973533 34.4117647,29.4234867 L34.4117647,24.9762867 C34.4117647,23.70242 33.3633529,22.6665533 32.0740588,22.6665533 L32.0740588,22.6665533 Z" id="Fill-16" fill="#4b2980"></path>
                            <path d="M21.7941176,39.6234867 C21.7941176,39.6461533 21.7746176,39.6665533 21.7505294,39.6665533 L17.2058824,39.6234867 L17.2494706,35.13322 L21.7941176,35.1762867 L21.7941176,39.6234867 Z M21.7505294,32.8665533 L17.2494706,32.8665533 C15.9601765,32.8665533 14.9117647,33.90242 14.9117647,35.1762867 L14.9117647,39.6234867 C14.9117647,40.8973533 15.9601765,41.93322 17.2494706,41.93322 L21.7505294,41.93322 C23.0398235,41.93322 24.0882353,40.8973533 24.0882353,39.6234867 L24.0882353,35.1762867 C24.0882353,33.90242 23.0398235,32.8665533 21.7505294,32.8665533 L21.7505294,32.8665533 Z" id="Fill-18" fill="#4b2980"></path>
                            <path d="M11.4705882,39.6234867 C11.4705882,39.6461533 11.4510882,39.6665533 11.427,39.6665533 L6.88235294,39.6234867 L6.92594118,35.13322 L11.4705882,35.1762867 L11.4705882,39.6234867 Z M11.427,32.8665533 L6.92594118,32.8665533 C5.63664706,32.8665533 4.58823529,33.90242 4.58823529,35.1762867 L4.58823529,39.6234867 C4.58823529,40.8973533 5.63664706,41.93322 6.92594118,41.93322 L11.427,41.93322 C12.7162941,41.93322 13.7647059,40.8973533 13.7647059,39.6234867 L13.7647059,35.1762867 C13.7647059,33.90242 12.7162941,32.8665533 11.427,32.8665533 L11.427,32.8665533 Z" id="Fill-20" fill="#4b2980"></path>
                        </g>
                    </g>
                </g>
            </g>
        </g>
    </g>
</svg>