<?xml version="1.0" encoding="UTF-8"?>
<svg width="106px" height="73px" viewBox="0 0 106 73" version="1.1" xmlns="http://www.w3.org/2000/svg" xmlns:xlink="http://www.w3.org/1999/xlink">
    <!-- Generator: Sketch 47.1 (45422) - http://www.bohemiancoding.com/sketch -->
    <title>Group 33</title>
    <desc>Created with Sketch.</desc>
    <defs></defs>
    <g id="Desktop" stroke="none" stroke-width="1" fill="none" fill-rule="evenodd">
        <g id="Visiteurs-pro" transform="translate(-821.000000, -3029.000000)">
            <g id="Group-29" transform="translate(322.000000, 2990.000000)">
                <g id="Group-22" transform="translate(478.000000, 0.000000)">
                    <g id="Group-33" transform="translate(21.000000, 39.000000)">
                        <path d="M49.5068359,37.0205078 C49.5068359,49.2386679 47.5050656,58.2825227 43.5014648,64.1523438 C39.4978641,70.0221648 33.3330494,72.9570312 25.0068359,72.9570312 C16.935832,72.9570312 10.8507692,69.9264626 6.75146484,63.8652344 C2.65216049,57.8040062 0.602539062,48.8558534 0.602539062,37.0205078 C0.602539062,24.674743 2.59633423,15.5750618 6.58398438,9.72119141 C10.5716345,3.86732099 16.7125236,0.940429688 25.0068359,0.940429688 C33.0778398,0.940429688 39.178853,4.00289906 43.3100586,10.1279297 C47.4412641,16.2529603 49.5068359,25.2170634 49.5068359,37.0205078 Z M15.2929688,37.0205078 C15.2929688,45.6019309 16.0346606,51.7507952 17.5180664,55.4672852 C19.0014723,59.1837751 21.4977038,61.0419922 25.0068359,61.0419922 C28.4521657,61.0419922 30.940422,59.1598496 32.4716797,55.3955078 C34.0029373,51.6311661 34.7685547,45.5062273 34.7685547,37.0205078 C34.7685547,28.4390847 33.9949622,22.27427 32.4477539,18.5258789 C30.9005456,14.7774878 28.4202645,12.9033203 25.0068359,12.9033203 C21.529605,12.9033203 19.0413486,14.7774878 17.5419922,18.5258789 C16.0426357,22.27427 15.2929688,28.4390847 15.2929688,37.0205078 Z M105.828125,72 L56.9238281,72 L56.9238281,61.7119141 L74.4853516,43.9589844 C79.6852474,38.6314838 83.0826743,34.9389751 84.6777344,32.8813477 C86.2727944,30.8237202 87.4212204,28.917652 88.1230469,27.1630859 C88.8248733,25.4085199 89.1757812,23.5901787 89.1757812,21.7080078 C89.1757812,18.9007021 88.4021887,16.8112048 86.8549805,15.4394531 C85.3077722,14.0677015 83.2422004,13.3818359 80.6582031,13.3818359 C77.946601,13.3818359 75.3147914,14.0039 72.7626953,15.2480469 C70.2105992,16.4921937 67.5468889,18.2626838 64.7714844,20.5595703 L56.7324219,11.0371094 C60.1777516,8.10219887 63.0328663,6.02865189 65.2978516,4.81640625 C67.5628368,3.60416061 70.0351429,2.67106447 72.7148438,2.01708984 C75.3945446,1.36311522 78.3932126,1.03613281 81.7109375,1.03613281 C86.0814021,1.03613281 89.9413895,1.83365088 93.2910156,3.42871094 C96.6406417,5.023771 99.2405506,7.25682158 101.09082,10.1279297 C102.94109,12.9990378 103.866211,16.2848122 103.866211,19.9853516 C103.866211,23.2073729 103.299973,26.2299664 102.16748,29.0532227 C101.034988,31.876479 99.2804481,34.7714695 96.9038086,37.7382812 C94.5271691,40.705093 90.3401993,44.9319387 84.3427734,50.4189453 L75.3466797,58.8886719 L75.3466797,59.5585938 L105.828125,59.5585938 L105.828125,72 Z" id="02" fill="#F5F5F5"></path>
                        <path d="M54.4255319,36.0645161 C49.2309289,36.0645161 45.0638298,31.8789339 45.0638298,26.6612903 C45.0638298,21.4436467 49.2309289,17.2580645 54.4255319,17.2580645 C59.6201349,17.2580645 63.787234,21.4436467 63.787234,26.6612903 C63.787234,31.8789339 59.6201349,36.0645161 54.4255319,36.0645161 M54.0267023,7 C43.0253672,7 34.1068091,15.957 34,27.034 C34.0534045,30.903 35.1748999,34.56 37.1508678,37.581 L52.4779706,58.834 C52.9052069,59.629 53.4926569,60 54.0267023,60 C54.6141522,60 55.1481976,59.629 55.5754339,58.834 L70.8491322,37.581 C72.8251001,34.507 74,30.903 74,27.034 C73.9465955,15.957 65.0280374,7 54.0267023,7" id="Fill-1" stroke="#89298E" stroke-width="2.56499997"></path>
                    </g>
                </g>
            </g>
        </g>
    </g>
</svg>