<?xml version="1.0" encoding="UTF-8"?>
<svg width="34px" height="37px" viewBox="0 0 34 37" version="1.1" xmlns="http://www.w3.org/2000/svg" xmlns:xlink="http://www.w3.org/1999/xlink">
    <!-- Generator: Sketch 47.1 (45422) - http://www.bohemiancoding.com/sketch -->
    <title>Page 1</title>
    <desc>Created with Sketch.</desc>
    <defs>
        <polygon id="path-1" points="33.7462687 0.304210959 33.7462687 36.4931507 0.000101492537 36.4931507 0.000101492537 0.304210959 33.7462687 0.304210959"></polygon>
    </defs>
    <g id="Desktop" stroke="none" stroke-width="1" fill="none" fill-rule="evenodd">
        <g id="Visiteurs-pro" transform="translate(-616.000000, -2312.000000)">
            <g id="Group-8" transform="translate(584.000000, 2283.000000)">
                <g id="Page-1" transform="translate(32.000000, 29.000000)">
                    <g id="Group-3" transform="translate(0.000000, 0.202740)">
                        <mask id="mask-2" fill="white">
                            <use xlink:href="#path-1"></use>
                        </mask>
                        <g id="Clip-2"></g>
                        <path d="M30.6508478,34.4658548 L3.04487761,34.4658548 C2.48666866,34.4658548 2.02995224,34.0096904 2.02995224,33.4521562 L2.02995224,15.3576356 L31.7165194,15.3576356 L31.7165194,33.4521562 C31.6657731,34.0096904 31.2090567,34.4658548 30.6508478,34.4658548 M3.04487761,5.72749863 L8.47472836,5.72749863 L8.47472836,8.10969041 C8.47472836,8.66722466 8.93144478,9.12338904 9.48965373,9.12338904 C10.0478627,9.12338904 10.5045791,8.66722466 10.5045791,8.10969041 L10.5045791,5.72749863 L23.1911463,5.72749863 L23.1911463,8.10969041 C23.1911463,8.66722466 23.6478627,9.12338904 24.2060716,9.12338904 C24.7637731,9.12338904 25.220997,8.66722466 25.220997,8.10969041 L25.220997,5.72749863 L30.6508478,5.72749863 C31.2090567,5.72749863 31.6657731,6.18366301 31.6657731,6.74119726 L31.6657731,13.3302384 L2.02995224,13.3302384 L2.02995224,6.74119726 C2.02995224,6.18366301 2.48666866,5.72749863 3.04487761,5.72749863 M30.6508478,3.70010137 L25.220997,3.70010137 L25.220997,1.31790959 C25.220997,0.760375342 24.7637731,0.304210959 24.2060716,0.304210959 C23.6478627,0.304210959 23.1911463,0.760375342 23.1911463,1.31790959 L23.1911463,3.70010137 L10.5045791,3.70010137 L10.5045791,1.31790959 C10.5045791,0.760375342 10.0478627,0.304210959 9.48965373,0.304210959 C8.93144478,0.304210959 8.47472836,0.760375342 8.47472836,1.31790959 L8.47472836,3.70010137 L3.04487761,3.70010137 C1.37025075,3.70010137 0.000101492537,5.06859452 0.000101492537,6.74119726 L0.000101492537,33.4521562 C0.000101492537,35.1247589 1.37025075,36.4932521 3.04487761,36.4932521 L30.701594,36.4932521 C32.3757134,36.4932521 33.7463701,35.1247589 33.7463701,33.4521562 L33.7463701,6.74119726 C33.6956239,5.06859452 32.3254746,3.70010137 30.6508478,3.70010137" id="Fill-1" fill="#89298E" mask="url(#mask-2)"></path>
                    </g>
                    <path d="M25.4240836,26.7109589 L8.27184478,26.7109589 C7.71363582,26.7109589 7.2569194,27.1671233 7.2569194,27.7246575 C7.2569194,28.2821918 7.71363582,28.7383562 8.27184478,28.7383562 L25.3728299,28.7383562 C25.9315463,28.7383562 26.3877552,28.2821918 26.3877552,27.7246575 C26.3877552,27.1671233 25.9822925,26.7109589 25.4240836,26.7109589" id="Fill-4" fill="#89298E"></path>
                    <path d="M11.1640776,23.0110603 L22.5819881,23.0110603 C23.1407045,23.0110603 23.5969134,22.5548959 23.5969134,21.9973616 C23.5969134,21.4398274 23.1407045,20.983663 22.5819881,20.983663 L11.1640776,20.983663 C10.6058687,20.983663 10.1491522,21.4398274 10.1491522,21.9973616 C10.1491522,22.5548959 10.6058687,23.0110603 11.1640776,23.0110603" id="Fill-6" fill="#89298E"></path>
                </g>
            </g>
        </g>
    </g>
</svg>