<?xml version="1.0" encoding="UTF-8"?>
<svg width="33px" height="45px" viewBox="0 0 33 45" version="1.1" xmlns="http://www.w3.org/2000/svg" xmlns:xlink="http://www.w3.org/1999/xlink">
    <!-- Generator: Sketch 47.1 (45422) - http://www.bohemiancoding.com/sketch -->
    <title>Page 1</title>
    <desc>Created with Sketch.</desc>
    <defs></defs>
    <g id="Desktop" stroke="none" stroke-width="1" fill="none" fill-rule="evenodd">
        <g id="Visiteurs-pro" transform="translate(-363.000000, -2432.000000)" fill="#FFFFFF">
            <g id="Group-6" transform="translate(330.000000, 2406.000000)">
                <g id="Page-1" transform="translate(33.000000, 26.000000)">
                    <path d="M3.94749451,1.66226913 L28.9932122,1.66226913 C30.2796965,1.66226913 31.3230186,2.69643799 31.3230186,3.97222955 L31.3230186,41.0277704 C31.3230186,42.303562 30.2796965,43.3377309 28.9932122,43.3377309 L3.94749451,43.3377309 C2.66041126,43.3377309 1.61708924,42.303562 1.61708924,41.0277704 L1.61708924,3.97222955 C1.61708924,2.69643799 2.66041126,1.66226913 3.94749451,1.66226913 M3.40906369,45 L29.5915352,45 C31.4739469,45 33,43.4873351 33,41.6208443 L33,3.37915567 C33,1.51325858 31.4739469,0 29.5915352,0 L3.40906369,0 C1.5260531,0 0,1.51325858 0,3.37915567 L0,41.6208443 C0,43.4873351 1.5260531,45 3.40906369,45" id="Fill-1"></path>
                    <path d="M20.3944099,18 C20.3354037,14.9411765 19.6869255,12.3529412 18.742236,10.8235294 C21.9291615,11.7647059 24.2894099,14.5882353 24.5248447,18 L20.3944099,18 Z M18.742236,26.1764706 C19.6869255,24.6470588 20.3354037,22.0588235 20.3944099,19 L24.5248447,19 C24.2894099,22.4117647 21.9291615,25.2352941 18.742236,26.1764706 L18.742236,26.1764706 Z M17.2086646,26.4117647 C16.9720497,26.4117647 16.7360248,26.4705882 16.5,26.4705882 C16.2639752,26.4705882 16.0285404,26.4705882 15.7919255,26.4117647 C14.7298137,25.5294118 13.6682919,22.7647059 13.6086957,18.9411765 L19.3918944,18.9411765 C19.3322981,22.7647059 18.2701863,25.5882353 17.2086646,26.4117647 L17.2086646,26.4117647 Z M8.53416149,19 L12.6645963,19 C12.7236025,22.0588235 13.3732609,24.6470588 14.3167702,26.1764706 C11.0714286,25.2352941 8.71118012,22.4117647 8.53416149,19 L8.53416149,19 Z M14.258354,10.8235294 C13.3136646,12.3529412 12.6645963,14.9411765 12.6055901,18 L8.47515528,18 C8.71118012,14.5882353 11.0714286,11.7058824 14.258354,10.8235294 L14.258354,10.8235294 Z M15.7919255,10.5294118 C16.0285404,10.5294118 16.2639752,10.4705882 16.5,10.4705882 C16.7360248,10.4705882 16.9720497,10.4705882 17.2086646,10.5294118 C18.2701863,11.4117647 19.3322981,14.1764706 19.3918944,18 L13.6086957,18 C13.7267081,14.1764706 14.7298137,11.4117647 15.7919255,10.5294118 L15.7919255,10.5294118 Z M16.5,9 C11.2484472,9 7,13.2352941 7,18.4705882 C7,23.7058824 11.2484472,28 16.5,28 C21.7521429,28 26,23.7647059 26,18.5294118 C26,13.2941176 21.7521429,9 16.5,9 L16.5,9 Z" id="Fill-4"></path>
                    <path d="M22.1420822,34 L10.8585311,34 C10.3679419,34 10,34.4285714 10,34.9992857 C10,35.5714286 10.3679419,36 10.8585311,36 L22.1420822,36 C22.6326714,36 23,35.5714286 23,34.9992857 C23,34.4285714 22.6326714,34 22.1420822,34" id="Fill-6"></path>
                </g>
            </g>
        </g>
    </g>
</svg>