<?xml version="1.0" encoding="UTF-8"?>
<svg width="106px" height="73px" viewBox="0 0 106 73" version="1.1" xmlns="http://www.w3.org/2000/svg" xmlns:xlink="http://www.w3.org/1999/xlink">
    <!-- Generator: Sketch 47.1 (45422) - http://www.bohemiancoding.com/sketch -->
    <title>Group 34</title>
    <desc>Created with Sketch.</desc>
    <defs></defs>
    <g id="Desktop" stroke="none" stroke-width="1" fill="none" fill-rule="evenodd">
        <g id="Visiteurs-pro" transform="translate(-513.000000, -3260.000000)">
            <g id="Group-26" transform="translate(491.000000, 3212.000000)">
                <g id="Group-23" transform="translate(0.000000, 9.000000)">
                    <g id="Group-34" transform="translate(22.000000, 39.000000)">
                        <path d="M49.5068359,37.0205078 C49.5068359,49.2386679 47.5050656,58.2825227 43.5014648,64.1523438 C39.4978641,70.0221648 33.3330494,72.9570312 25.0068359,72.9570312 C16.935832,72.9570312 10.8507692,69.9264626 6.75146484,63.8652344 C2.65216049,57.8040062 0.602539062,48.8558534 0.602539062,37.0205078 C0.602539062,24.674743 2.59633423,15.5750618 6.58398438,9.72119141 C10.5716345,3.86732099 16.7125236,0.940429688 25.0068359,0.940429688 C33.0778398,0.940429688 39.178853,4.00289906 43.3100586,10.1279297 C47.4412641,16.2529603 49.5068359,25.2170634 49.5068359,37.0205078 Z M15.2929688,37.0205078 C15.2929688,45.6019309 16.0346606,51.7507952 17.5180664,55.4672852 C19.0014723,59.1837751 21.4977038,61.0419922 25.0068359,61.0419922 C28.4521657,61.0419922 30.940422,59.1598496 32.4716797,55.3955078 C34.0029373,51.6311661 34.7685547,45.5062273 34.7685547,37.0205078 C34.7685547,28.4390847 33.9949622,22.27427 32.4477539,18.5258789 C30.9005456,14.7774878 28.4202645,12.9033203 25.0068359,12.9033203 C21.529605,12.9033203 19.0413486,14.7774878 17.5419922,18.5258789 C16.0426357,22.27427 15.2929688,28.4390847 15.2929688,37.0205078 Z M103.100586,17.6884766 C103.100586,22.0589411 101.776706,25.7753753 99.1289062,28.8378906 C96.4811066,31.9004059 92.7646724,34.0058536 87.9794922,35.1542969 L87.9794922,35.4414062 C93.6260048,36.1432327 97.9007016,37.8578965 100.803711,40.5854492 C103.70672,43.3130019 105.158203,46.9895602 105.158203,51.6152344 C105.158203,58.3463878 102.717798,63.5860815 97.8369141,67.3344727 C92.9560303,71.0828638 85.9857224,72.9570312 76.9257812,72.9570312 C69.3332954,72.9570312 62.6022429,71.6969527 56.7324219,69.1767578 L56.7324219,56.5917969 C59.444024,57.9635485 62.4267415,59.0800738 65.6806641,59.9414062 C68.9345866,60.8027387 72.1565596,61.2333984 75.3466797,61.2333984 C80.2275635,61.2333984 83.8323451,60.4039796 86.1611328,58.7451172 C88.4899205,57.0862547 89.6542969,54.4225444 89.6542969,50.7539062 C89.6542969,47.4680825 88.3144665,45.1393298 85.6347656,43.7675781 C82.9550647,42.3958265 78.6803679,41.7099609 72.8105469,41.7099609 L67.4990234,41.7099609 L67.4990234,30.3691406 L72.90625,30.3691406 C78.3294542,30.3691406 82.293119,29.6593495 84.7973633,28.2397461 C87.3016076,26.8201426 88.5537109,24.3877125 88.5537109,20.9423828 C88.5537109,15.6467834 85.2360358,12.9990234 78.6005859,12.9990234 C76.3036995,12.9990234 73.9669715,13.3818321 71.590332,14.1474609 C69.2136925,14.9130898 66.5739077,16.2369698 63.6708984,18.1191406 L56.828125,7.92675781 C63.2083652,3.33298484 70.8166876,1.03613281 79.6533203,1.03613281 C86.894893,1.03613281 92.6130975,2.50356605 96.8081055,5.43847656 C101.003113,8.37338707 103.100586,12.4566796 103.100586,17.6884766 Z" id="03" fill="#F5F5F5"></path>
                        <path d="M64.7583851,34.0545455 C64.5878035,25.2117647 62.7131118,17.7294118 59.9821005,13.3080214 C69.1952123,16.028877 76.018476,24.1914439 76.6990966,34.0545455 L64.7583851,34.0545455 Z M59.9821005,57.6919786 C62.7131118,53.2705882 64.5878035,45.7882353 64.7583851,36.9454545 L76.6990966,36.9454545 C76.018476,46.8085561 69.1952123,54.971123 59.9821005,57.6919786 L59.9821005,57.6919786 Z M55.5486849,58.3721925 C54.8646527,58.3721925 54.1823264,58.542246 53.5,58.542246 C52.8176736,58.542246 52.1370531,58.542246 51.4530209,58.3721925 C48.3825522,55.8213904 45.3137894,47.828877 45.141502,36.7754011 L61.8602038,36.7754011 C61.6879164,47.828877 58.6174478,55.9914439 55.5486849,58.3721925 L55.5486849,58.3721925 Z M30.471485,36.9454545 L42.4121965,36.9454545 C42.5827781,45.7882353 44.4608814,53.2705882 47.1884811,57.6919786 C37.8064935,54.971123 30.9832298,46.8085561 30.471485,36.9454545 L30.471485,36.9454545 Z M47.0196053,13.3080214 C44.288594,17.7294118 42.4121965,25.2117647 42.2416149,34.0545455 L30.3009034,34.0545455 C30.9832298,24.1914439 37.8064935,15.8588235 47.0196053,13.3080214 L47.0196053,13.3080214 Z M51.4530209,12.457754 C52.1370531,12.457754 52.8176736,12.2877005 53.5,12.2877005 C54.1823264,12.2877005 54.8646527,12.2877005 55.5486849,12.457754 C58.6174478,15.0085561 61.6879164,23.0010695 61.8602038,34.0545455 L45.141502,34.0545455 C45.4826652,23.0010695 48.3825522,15.0085561 51.4530209,12.457754 L51.4530209,12.457754 Z M53.5,9 C38.8509317,9 27,20.8142415 27,35.4179567 C27,50.0216718 38.8509317,62 53.5,62 C68.1507143,62 80,50.1857585 80,35.5820433 C80,20.9783282 68.1507143,9 53.5,9 L53.5,9 Z" id="Fill-4" fill="#4b2980"></path>
                    </g>
                </g>
            </g>
        </g>
    </g>
</svg>