<?xml version="1.0" encoding="UTF-8"?>
<svg width="108px" height="73px" viewBox="0 0 108 73" version="1.1" xmlns="http://www.w3.org/2000/svg" xmlns:xlink="http://www.w3.org/1999/xlink">
    <!-- Generator: Sketch 47.1 (45422) - http://www.bohemiancoding.com/sketch -->
    <title>Group 35</title>
    <desc>Created with Sketch.</desc>
    <defs></defs>
    <g id="Desktop" stroke="none" stroke-width="1" fill="none" fill-rule="evenodd">
        <g id="Visiteurs-pro" transform="translate(-821.000000, -3490.000000)">
            <g id="Group-27" transform="translate(228.000000, 3452.000000)">
                <g id="Group-24" transform="translate(572.000000, 0.000000)">
                    <g id="Group-35" transform="translate(21.000000, 38.000000)">
                        <path d="M49.5068359,37.0205078 C49.5068359,49.2386679 47.5050656,58.2825227 43.5014648,64.1523438 C39.4978641,70.0221648 33.3330494,72.9570312 25.0068359,72.9570312 C16.935832,72.9570312 10.8507692,69.9264626 6.75146484,63.8652344 C2.65216049,57.8040062 0.602539062,48.8558534 0.602539062,37.0205078 C0.602539062,24.674743 2.59633423,15.5750618 6.58398437,9.72119141 C10.5716345,3.86732099 16.7125236,0.940429688 25.0068359,0.940429688 C33.0778398,0.940429688 39.178853,4.00289906 43.3100586,10.1279297 C47.4412641,16.2529603 49.5068359,25.2170634 49.5068359,37.0205078 Z M15.2929688,37.0205078 C15.2929688,45.6019309 16.0346606,51.7507952 17.5180664,55.4672852 C19.0014723,59.1837751 21.4977038,61.0419922 25.0068359,61.0419922 C28.4521657,61.0419922 30.940422,59.1598496 32.4716797,55.3955078 C34.0029373,51.6311661 34.7685547,45.5062273 34.7685547,37.0205078 C34.7685547,28.4390847 33.9949622,22.27427 32.4477539,18.5258789 C30.9005456,14.7774878 28.4202645,12.9033203 25.0068359,12.9033203 C21.529605,12.9033203 19.0413486,14.7774878 17.5419922,18.5258789 C16.0426357,22.27427 15.2929688,28.4390847 15.2929688,37.0205078 Z M107.407227,57.5009766 L98.9853516,57.5009766 L98.9853516,72 L84.5341797,72 L84.5341797,57.5009766 L54.6748047,57.5009766 L54.6748047,47.2128906 L85.3476562,2.04101562 L98.9853516,2.04101562 L98.9853516,46.0166016 L107.407227,46.0166016 L107.407227,57.5009766 Z M84.5341797,46.0166016 L84.5341797,34.1494141 C84.5341797,32.1715396 84.6139315,29.3004746 84.7734375,25.5361328 C84.9329435,21.7717911 85.0605464,19.5865916 85.15625,18.9804688 L84.7734375,18.9804688 C83.5930931,21.5963672 82.1735109,24.1484251 80.5146484,26.6367188 L67.6904297,46.0166016 L84.5341797,46.0166016 Z" id="04" fill="#F5F5F5"></path>
                        <g id="Group-19" transform="translate(28.000000, 10.000000)" fill="#4b2980">
                            <g id="Page-1">
                                <path d="M52.797917,17.4515887 L49.7424844,20.6065574 L41.8985507,12.4424378 L45.1586816,8.94304324 L45.2208104,8.93963982 L45.522299,8.67213115 L45.9794367,9.1275085 L53.0006533,16.5442374 L53.014387,16.8832179 C53.017657,17.1064821 52.9450643,17.3018383 52.797917,17.4515887 L52.797917,17.4515887 Z M25.9414763,34.2459016 L23.0869565,31.4293043 L39.7225281,14.6393443 L42.7536232,17.6603938 L25.9414763,34.2459016 Z M28.2173913,39.6975909 L19.6666667,41.9180328 L21.893223,33.3934426 L28.2173913,39.6975909 Z M17.9544696,45.0629779 C18.1788406,45.119368 18.4162087,45.119368 18.6398957,45.0629779 L19.6666667,44.8105648 L19.6666667,53.852459 L5.98550725,53.852459 L5.98550725,45.1254098 L11.457971,45.1254098 C11.8389913,45.1354795 12.1782841,44.9951754 12.4409623,44.7454475 C12.7029565,44.4950484 12.850029,44.1600639 12.8555014,43.8015836 C12.8602899,43.4431033 12.7227942,43.104091 12.4683246,42.8463074 C12.2138551,42.5891951 11.8718261,42.4448631 11.5065391,42.4401639 L5.98550725,42.4401639 L5.98550725,33.7131148 L12.826087,33.7131148 C13.6079652,33.7251984 14.2126725,33.1297451 14.2236174,32.3892885 C14.2338783,31.648832 13.629171,31.0379385 12.8746551,31.0278689 L5.98550725,31.0278689 L5.98550725,22.3008197 L11.457971,22.3008197 C12.237113,22.3283434 12.8445565,21.71745 12.8555014,20.9769934 C12.8657623,20.2365369 12.2610551,19.6256434 11.5065391,19.6155738 L5.98550725,19.6155738 L5.98550725,10.8885246 L12.826087,10.8885246 C13.6079652,10.8932238 14.2126725,10.3051549 14.2236174,9.56469836 C14.2284058,9.20621803 14.0909101,8.86653443 13.8364406,8.61009344 C13.581971,8.35230984 13.239942,8.20797787 12.8746551,8.20327869 L5.98550725,8.20327869 L5.98550725,0.147540984 L19.6666667,0.147540984 L19.6440928,33.4640582 L16.9721623,43.4290057 C16.7840464,44.1432811 17.2245797,44.8770246 17.9544696,45.0629779 L17.9544696,45.0629779 Z M54.5811786,14.3536769 L47.6018692,7.29430033 C46.9739521,6.65800735 46.1093121,6.28839598 45.2299606,6.28171223 L45.1998687,6.28171223 C44.2670205,6.28171223 43.3749635,6.64798172 42.7470464,7.29162683 L22.1441411,28.4142815 L22.1441411,-1.0704126 C22.1441411,-1.8076302 21.5443096,-2.40716257 20.8067243,-2.40716257 L4.75772309,-2.40716257 C4.68750871,-2.40983607 4.64270525,-2.41050444 4.60057662,-2.40916769 C3.92317503,-2.32963107 3.41696278,-1.75883883 3.42030632,-1.07442285 L3.42030632,55.0730861 C3.42030632,55.8096353 4.02013774,56.4098361 4.75772309,56.4098361 L20.8067243,56.4098361 C21.5443096,56.4098361 22.1441411,55.8096353 22.1441411,55.0730861 L22.1441411,44.009475 L31.1690294,41.6434275 C31.4077583,41.5866157 31.6143892,41.4756654 31.7829037,41.3192657 L45.1249734,28.3801943 C45.6552591,27.8655456 45.6679646,27.0153726 45.1523904,26.4853513 C44.9029622,26.2280269 44.568608,26.0836579 44.2101803,26.0783109 C43.8443968,26.0809844 43.5127175,26.2079756 43.2559334,26.4572795 L30.8513929,38.4866925 L28.0528483,35.6902115 L44.5458719,19.1840229 L48.6129563,23.2490796 C49.1332114,23.7784326 49.980465,23.7864531 50.5060697,23.2731411 L54.5644609,19.2374929 C55.2184577,18.5885008 55.5882535,17.6828527 55.5795603,16.7518064 C55.5715358,15.8628676 55.2077584,14.9886332 54.5811786,14.3536769 L54.5811786,14.3536769 Z" id="Fill-1" transform="translate(29.500000, 27.000000) scale(-1, 1) rotate(-90.000000) translate(-29.500000, -27.000000) "></path>
                            </g>
                        </g>
                    </g>
                </g>
            </g>
        </g>
    </g>
</svg>