<?xml version="1.0" encoding="UTF-8"?>
<svg width="31px" height="40px" viewBox="0 0 31 40" version="1.1" xmlns="http://www.w3.org/2000/svg" xmlns:xlink="http://www.w3.org/1999/xlink">
    <!-- Generator: Sketch 47.1 (45422) - http://www.bohemiancoding.com/sketch -->
    <title>Page 1</title>
    <desc>Created with Sketch.</desc>
    <defs>
        <path d="M11.6903514,0.000833333333 L18.8907297,0.000833333333 C19.3708108,0.0175 19.6891892,0.346666667 19.6891892,0.833333333 C19.6891892,1.33333333 19.3540541,1.66666667 18.8513514,1.66666667 L16.1702703,1.66666667 L16.1702703,3.50083333 L25.6378378,3.50083333 C28.4027027,3.50083333 30.6648649,5.75 30.6648649,8.50083333 L30.6648649,29.25 C30.6648649,32.0008333 28.4027027,34.25 25.6378378,34.25 L28.6548919,38.6675 C28.9054054,39.0841667 28.8216216,39.5833333 28.4027027,39.8333333 C28.235973,39.9175 28.0675676,40 27.9,40 C27.6486486,40 27.3981351,39.9175 27.2297297,39.6666667 L25.4292162,36.9816667 L5.16024324,36.9816667 L3.35135135,39.6666667 C3.18378378,39.8333333 2.93327027,40 2.68108108,40 C2.51351351,40 2.34594595,39.9175 2.26132432,39.8333333 C1.84324324,39.5833333 1.75945946,39.0841667 2.01081081,38.6675 L5.02702703,34.25 C2.26132432,34.25 0,32.0008333 0,29.25 L0,8.50083333 C0,5.75 2.26132432,3.50083333 5.02702703,3.50083333 L14.4945946,3.50083333 L14.4945946,1.66666667 L11.7297297,1.66666667 C11.227027,1.66666667 10.8918919,1.33333333 10.8918919,0.833333333 C10.8918919,0.346666667 11.2102703,0.0175 11.6903514,0.000833333333 Z M1.67567568,29.25 C1.67567568,31.0833333 3.18378378,32.5833333 5.02702703,32.5833333 L25.6378378,32.5833333 C27.4810811,32.5833333 28.9891892,31.0833333 28.9891892,29.25 L28.9891892,8.50083333 C28.9891892,6.66666667 27.4810811,5.1675 25.6378378,5.1675 L5.02702703,5.1675 C3.18378378,5.1675 1.67567568,6.66666667 1.67567568,8.50083333 L1.67567568,29.25 Z M7.03783784,34.25 L6.33321622,35.315 L24.340027,35.315 L23.6278649,34.25 L7.03783784,34.25 Z" id="path-1"></path>
        <path d="M6.23351351,6.93666667 L24.4204595,6.93666667 C25.7735676,6.93666667 26.9012973,8.0575 26.8250541,9.4775 L26.8250541,20.0925 C26.8250541,21.1383333 25.9989459,22.0358333 24.8712162,22.0358333 L5.63194595,22.0358333 C4.58045946,22.0358333 3.67810811,21.2133333 3.67810811,20.0925 L3.67810811,9.4775 C3.67810811,8.0575 4.88040541,6.93666667 6.23351351,6.93666667 Z M5.25575676,20.0925 C5.25575676,20.3158333 5.40572973,20.54 5.70818919,20.54 L24.9466216,20.54 C25.172,20.54 25.3973784,20.3908333 25.3973784,20.0925 L25.4719459,20.0925 L25.4719459,9.4775 C25.4719459,8.88 24.9466216,8.43083333 24.4204595,8.43083333 L6.30891892,8.43083333 C5.70818919,8.43083333 5.25575676,8.955 5.25575676,9.4775 L5.25575676,20.0925 Z" id="path-3"></path>
        <path d="M20.2706486,27.2891667 C20.2706486,25.3566667 21.8097568,23.8266667 23.7527027,23.8266667 C25.6948108,23.8266667 27.2339189,25.3566667 27.2339189,27.2891667 C27.2339189,29.2216667 25.6948108,30.7516667 23.7527027,30.7516667 C21.8097568,30.7516667 20.2706486,29.2216667 20.2706486,27.2891667 Z M21.8893514,27.37 C21.8893514,28.3358333 22.6995405,29.2216667 23.7527027,29.2216667 C24.805027,29.2216667 25.6143784,28.3358333 25.6143784,27.37 C25.6143784,26.4033333 24.805027,25.5175 23.7527027,25.5175 C22.7808108,25.5175 21.8893514,26.4033333 21.8893514,27.37 Z" id="path-5"></path>
        <path d="M3.43178378,27.2891667 C3.43178378,25.3566667 4.96921622,23.8266667 6.913,23.8266667 C8.85594595,23.8266667 10.3942162,25.3566667 10.3942162,27.2891667 C10.3942162,29.2216667 8.85594595,30.7516667 6.913,30.7516667 C4.96921622,30.7516667 3.43178378,29.2216667 3.43178378,27.2891667 Z M5.05132432,27.37 C5.05132432,28.3358333 5.86067568,29.2216667 6.913,29.2216667 C7.96532432,29.2216667 8.77551351,28.3358333 8.77551351,27.37 C8.77551351,26.4033333 7.88489189,25.5175 6.913,25.5175 C5.94194595,25.5175 5.05132432,26.4033333 5.05132432,27.37 Z" id="path-7"></path>
    </defs>
    <g id="Desktop" stroke="none" stroke-width="1" fill="none" fill-rule="evenodd">
        <g id="Visiteurs-pro" transform="translate(-619.000000, -2434.000000)">
            <g id="Group-7" transform="translate(584.000000, 2406.000000)">
                <g id="Page-1" transform="translate(35.000000, 28.000000)">
                    <mask id="mask-2" fill="white">
                        <use xlink:href="#path-1"></use>
                    </mask>
                    <g id="Clip-2"></g>
                    <polygon id="Fill-1" fill="#89298E" mask="url(#mask-2)" points="-4.18918919 44.1666667 34.8540541 44.1666667 34.8540541 -4.16666667 -4.18918919 -4.16666667"></polygon>
                    <mask id="mask-4" fill="white">
                        <use xlink:href="#path-3"></use>
                    </mask>
                    <g id="Clip-5"></g>
                    <polygon id="Fill-4" fill="#89298E" mask="url(#mask-4)" points="-0.511918919 26.2025 31.0175946 26.2025 31.0175946 2.77 -0.511918919 2.77"></polygon>
                    <mask id="mask-6" fill="white">
                        <use xlink:href="#path-5"></use>
                    </mask>
                    <g id="Clip-8"></g>
                    <polygon id="Fill-7" fill="#89298E" mask="url(#mask-6)" points="16.0814595 34.9183333 31.4231081 34.9183333 31.4231081 19.66 16.0814595 19.66"></polygon>
                    <mask id="mask-8" fill="white">
                        <use xlink:href="#path-7"></use>
                    </mask>
                    <g id="Clip-11"></g>
                    <polygon id="Fill-10" fill="#89298E" mask="url(#mask-8)" points="-0.757405405 34.9183333 14.5834054 34.9183333 14.5834054 19.66 -0.757405405 19.66"></polygon>
                </g>
            </g>
        </g>
    </g>
</svg>